<?xml version="1.0" encoding="UTF-8" standalone="no"?>
<!-- Created with Inkscape (http://www.inkscape.org/) -->

<svg
   xmlns:dc="http://purl.org/dc/elements/1.1/"
   xmlns:cc="http://creativecommons.org/ns#"
   xmlns:rdf="http://www.w3.org/1999/02/22-rdf-syntax-ns#"
   xmlns:svg="http://www.w3.org/2000/svg"
   xmlns="http://www.w3.org/2000/svg"
   xmlns:sodipodi="http://sodipodi.sourceforge.net/DTD/sodipodi-0.dtd"
   xmlns:inkscape="http://www.inkscape.org/namespaces/inkscape"
   width="1600"
   height="750"
   id="svg2"
   version="1.1"
   inkscape:version="0.48.4 r9939"
   sodipodi:docname="20-4-reactors.svg">
  <defs
     id="defs4">
    <marker
       inkscape:stockid="Arrow1Lstart"
       orient="auto"
       refY="0"
       refX="0"
       id="Arrow1Lstart"
       style="overflow:visible">
      <path
         id="path3907"
         d="M 0,0 5,-5 -12.5,0 5,5 0,0 z"
         style="fill-rule:evenodd;stroke:#000000;stroke-width:1pt"
         transform="matrix(0.8,0,0,0.8,10,0)"
         inkscape:connector-curvature="0" />
    </marker>
    <marker
       inkscape:stockid="Arrow1Mend"
       orient="auto"
       refY="0"
       refX="0"
       id="Arrow1Mend"
       style="overflow:visible">
      <path
         id="path3916"
         d="M 0,0 5,-5 -12.5,0 5,5 0,0 z"
         style="fill-rule:evenodd;stroke:#000000;stroke-width:1pt"
         transform="matrix(-0.4,0,0,-0.4,-4,0)"
         inkscape:connector-curvature="0" />
    </marker>
    <marker
       inkscape:stockid="Arrow2Mend"
       orient="auto"
       refY="0"
       refX="0"
       id="Arrow2Mend"
       style="overflow:visible">
      <path
         id="path3934"
         style="fill-rule:evenodd;stroke-width:0.625;stroke-linejoin:round"
         d="M 8.7185878,4.0337352 -2.2072895,0.01601326 8.7185884,-4.0017078 c -1.7454984,2.3720609 -1.7354408,5.6174519 -6e-7,8.035443 z"
         transform="scale(-0.6,-0.6)"
         inkscape:connector-curvature="0" />
    </marker>
    <marker
       inkscape:stockid="Arrow2Lend"
       orient="auto"
       refY="0"
       refX="0"
       id="Arrow2Lend"
       style="overflow:visible">
      <path
         id="path3928"
         style="fill-rule:evenodd;stroke-width:0.625;stroke-linejoin:round"
         d="M 8.7185878,4.0337352 -2.2072895,0.01601326 8.7185884,-4.0017078 c -1.7454984,2.3720609 -1.7354408,5.6174519 -6e-7,8.035443 z"
         transform="matrix(-1.1,0,0,-1.1,-1.1,0)"
         inkscape:connector-curvature="0" />
    </marker>
    <marker
       inkscape:stockid="Arrow2Mend"
       orient="auto"
       refY="0"
       refX="0"
       id="Arrow2Mend-1"
       style="overflow:visible">
      <path
         inkscape:connector-curvature="0"
         id="path3934-6"
         style="fill-rule:evenodd;stroke-width:0.625;stroke-linejoin:round"
         d="M 8.7185878,4.0337352 -2.2072895,0.01601326 8.7185884,-4.0017078 c -1.7454984,2.3720609 -1.7354408,5.6174519 -6e-7,8.035443 z"
         transform="scale(-0.6,-0.6)" />
    </marker>
    <marker
       inkscape:stockid="Arrow2Mend"
       orient="auto"
       refY="0"
       refX="0"
       id="Arrow2Mend-1-3"
       style="overflow:visible">
      <path
         inkscape:connector-curvature="0"
         id="path3934-6-4"
         style="fill-rule:evenodd;stroke-width:0.625;stroke-linejoin:round"
         d="M 8.7185878,4.0337352 -2.2072895,0.01601326 8.7185884,-4.0017078 c -1.7454984,2.3720609 -1.7354408,5.6174519 -6e-7,8.035443 z"
         transform="scale(-0.6,-0.6)" />
    </marker>
    <marker
       inkscape:stockid="Arrow2Mend"
       orient="auto"
       refY="0"
       refX="0"
       id="marker6458"
       style="overflow:visible">
      <path
         inkscape:connector-curvature="0"
         id="path6460"
         style="fill-rule:evenodd;stroke-width:0.625;stroke-linejoin:round"
         d="M 8.7185878,4.0337352 -2.2072895,0.01601326 8.7185884,-4.0017078 c -1.7454984,2.3720609 -1.7354408,5.6174519 -6e-7,8.035443 z"
         transform="scale(-0.6,-0.6)" />
    </marker>
    <marker
       inkscape:stockid="Arrow2Mend"
       orient="auto"
       refY="0"
       refX="0"
       id="marker6462"
       style="overflow:visible">
      <path
         inkscape:connector-curvature="0"
         id="path6464"
         style="fill-rule:evenodd;stroke-width:0.625;stroke-linejoin:round"
         d="M 8.7185878,4.0337352 -2.2072895,0.01601326 8.7185884,-4.0017078 c -1.7454984,2.3720609 -1.7354408,5.6174519 -6e-7,8.035443 z"
         transform="scale(-0.6,-0.6)" />
    </marker>
  </defs>
  <sodipodi:namedview
     id="base"
     pagecolor="#ffffff"
     bordercolor="#666666"
     borderopacity="1.0"
     inkscape:pageopacity="0.0"
     inkscape:pageshadow="2"
     inkscape:zoom="0.35"
     inkscape:cx="742.07798"
     inkscape:cy="662.37534"
     inkscape:document-units="px"
     inkscape:current-layer="layer1"
     showgrid="false"
     inkscape:window-width="796"
     inkscape:window-height="864"
     inkscape:window-x="800"
     inkscape:window-y="16"
     inkscape:window-maximized="0" />
  <metadata
     id="metadata7">
    <rdf:RDF>
      <cc:Work
         rdf:about="">
        <dc:format>image/svg+xml</dc:format>
        <dc:type
           rdf:resource="http://purl.org/dc/dcmitype/StillImage" />
        <dc:title></dc:title>
      </cc:Work>
    </rdf:RDF>
  </metadata>
  <g
     inkscape:label="Layer 1"
     inkscape:groupmode="layer"
     id="layer1"
     transform="translate(0,-302.36218)">
    <text
       xml:space="preserve"
       style="font-size:40px;font-style:normal;font-weight:normal;line-height:125%;letter-spacing:0px;word-spacing:0px;fill:#000000;fill-opacity:1;stroke:none;font-family:Sans"
       x="389.91888"
       y="-151.04585"
       id="text5902"
       sodipodi:linespacing="125%"
       transform="translate(0,502.36218)"><tspan
         sodipodi:role="line"
         id="tspan5904"
         x="389.91888"
         y="-151.04585" /></text>
    <path
       sodipodi:type="arc"
       style="fill:none;stroke:#000000;stroke-width:18.0827446;stroke-linecap:butt;stroke-miterlimit:4;stroke-opacity:1;stroke-dasharray:none;stroke-dashoffset:0"
       id="path8413"
       sodipodi:cx="798.57141"
       sodipodi:cy="182.66591"
       sodipodi:rx="117.14286"
       sodipodi:ry="117.14286"
       d="m 915.71427,182.66591 a 117.14286,117.14286 0 1 1 -234.28572,0 117.14286,117.14286 0 1 1 234.28572,0 z"
       transform="matrix(-0.2765067,0,0,0.2765067,676.64131,422.53095)" />
    <path
       sodipodi:type="arc"
       style="fill:none;stroke:#000000;stroke-width:18.0827446;stroke-linecap:butt;stroke-miterlimit:4;stroke-opacity:1;stroke-dasharray:none;stroke-dashoffset:0"
       id="path5279"
       sodipodi:cx="798.57141"
       sodipodi:cy="182.66591"
       sodipodi:rx="117.14286"
       sodipodi:ry="117.14286"
       d="m 915.71427,182.66591 a 117.14286,117.14286 0 1 1 -234.28572,0 117.14286,117.14286 0 1 1 234.28572,0 z"
       transform="matrix(-0.2765067,0,0,0.2765067,528.36822,421.28495)" />
    <path
       style="fill:none;stroke:#000000;stroke-width:5;stroke-linecap:butt;stroke-linejoin:miter;stroke-miterlimit:4;stroke-opacity:1;stroke-dasharray:none;marker-mid:none;marker-end:url(#Arrow2Mend-1)"
       d="m 275.23563,462.98615 c -18.09772,-3.1187 -21.50113,-9.80424 -30.07724,-22.46125 -7.10354,-10.48376 -13.02765,-16.22386 -44.85955,-18.09377"
       id="path5283"
       inkscape:connector-curvature="0"
       sodipodi:nodetypes="csc" />
    <path
       sodipodi:nodetypes="csc"
       inkscape:connector-curvature="0"
       id="path5665"
       d="m 275.2368,479.72492 c -19.34447,4.98385 -23.99391,11.03521 -32.57029,23.67282 -7.10376,10.4677 -10.53611,16.1971 -42.36875,16.82007"
       style="fill:none;stroke:#000000;stroke-width:5;stroke-linecap:butt;stroke-linejoin:miter;stroke-miterlimit:4;stroke-opacity:1;stroke-dasharray:none;marker-mid:none;marker-end:url(#Arrow2Mend-1)" />
    <path
       style="fill:none;stroke:#000000;stroke-width:5;stroke-linecap:butt;stroke-linejoin:miter;stroke-miterlimit:4;stroke-opacity:1;stroke-dasharray:none;marker-end:url(#Arrow2Mend-1)"
       d="m 422.22841,472.29684 -77.13811,0"
       id="path5667"
       inkscape:connector-curvature="0"
       sodipodi:nodetypes="cc" />
    <rect
       style="fill:none;stroke:#000000;stroke-width:5;stroke-linecap:butt;stroke-miterlimit:4;stroke-opacity:1;stroke-dasharray:none;stroke-dashoffset:0"
       id="rect5859"
       width="63.322338"
       height="65.19133"
       x="-194.41171"
       y="484.55695"
       rx="3.7601299"
       ry="4.8240008"
       transform="scale(-1,1)" />
    <rect
       ry="4.8240008"
       rx="3.7601299"
       y="387.99252"
       x="-194.41171"
       height="65.19133"
       width="63.322338"
       id="rect5863"
       style="fill:none;stroke:#000000;stroke-width:5;stroke-linecap:butt;stroke-miterlimit:4;stroke-opacity:1;stroke-dasharray:none;stroke-dashoffset:0"
       transform="scale(-1,1)" />
    <rect
       style="fill:none;stroke:#000000;stroke-width:10;stroke-linecap:butt;stroke-miterlimit:4;stroke-opacity:1;stroke-dasharray:none;stroke-dashoffset:0"
       id="rect7090"
       width="542.95813"
       height="640.24451"
       x="22.564539"
       y="328.02304"
       rx="9.4987125"
       ry="14.453526" />
    <path
       transform="matrix(-0.2765067,0,0,0.2765067,676.64131,762.57599)"
       d="m 915.71427,182.66591 a 117.14286,117.14286 0 1 1 -234.28572,0 117.14286,117.14286 0 1 1 234.28572,0 z"
       sodipodi:ry="117.14286"
       sodipodi:rx="117.14286"
       sodipodi:cy="182.66591"
       sodipodi:cx="798.57141"
       id="path7107"
       style="fill:none;stroke:#000000;stroke-width:18.0827446;stroke-linecap:butt;stroke-miterlimit:4;stroke-opacity:1;stroke-dasharray:none;stroke-dashoffset:0"
       sodipodi:type="arc" />
    <path
       transform="matrix(-0.2765067,0,0,0.2765067,528.36822,761.32999)"
       d="m 915.71427,182.66591 a 117.14286,117.14286 0 1 1 -234.28572,0 117.14286,117.14286 0 1 1 234.28572,0 z"
       sodipodi:ry="117.14286"
       sodipodi:rx="117.14286"
       sodipodi:cy="182.66591"
       sodipodi:cx="798.57141"
       id="path7109"
       style="fill:none;stroke:#000000;stroke-width:18.0827446;stroke-linecap:butt;stroke-miterlimit:4;stroke-opacity:1;stroke-dasharray:none;stroke-dashoffset:0"
       sodipodi:type="arc" />
    <path
       sodipodi:nodetypes="cc"
       inkscape:connector-curvature="0"
       id="path7111"
       d="m 422.22841,812.34188 -77.13811,0"
       style="fill:none;stroke:#000000;stroke-width:5;stroke-linecap:butt;stroke-linejoin:miter;stroke-miterlimit:4;stroke-opacity:1;stroke-dasharray:none;marker-end:url(#Arrow2Mend-1)" />
    <path
       style="fill:none;stroke:#000000;stroke-width:5;stroke-linecap:butt;stroke-linejoin:miter;stroke-miterlimit:4;stroke-opacity:1;stroke-dasharray:none;marker-end:url(#Arrow2Mend-1)"
       d="m 276.76644,812.34188 -77.13811,0"
       id="path7113"
       inkscape:connector-curvature="0"
       sodipodi:nodetypes="cc" />
    <text
       xml:space="preserve"
       style="font-size:40px;font-style:normal;font-weight:normal;line-height:125%;letter-spacing:0px;word-spacing:0px;fill:#000000;fill-opacity:1;stroke:none;font-family:Sans"
       x="139.49023"
       y="815.98645"
       id="text7119"
       sodipodi:linespacing="125%"><tspan
         sodipodi:role="line"
         id="tspan7121"
         x="139.49023"
         y="815.98645">...</tspan></text>
  </g>
</svg>
