<?xml version="1.0" encoding="UTF-8" standalone="no"?>
<!-- Created with Inkscape (http://www.inkscape.org/) -->

<svg
   xmlns:dc="http://purl.org/dc/elements/1.1/"
   xmlns:cc="http://creativecommons.org/ns#"
   xmlns:rdf="http://www.w3.org/1999/02/22-rdf-syntax-ns#"
   xmlns:svg="http://www.w3.org/2000/svg"
   xmlns="http://www.w3.org/2000/svg"
   xmlns:sodipodi="http://sodipodi.sourceforge.net/DTD/sodipodi-0.dtd"
   xmlns:inkscape="http://www.inkscape.org/namespaces/inkscape"
   width="1052.3622"
   height="744.09448"
   id="svg2"
   version="1.1"
   inkscape:version="0.48.4 r9939"
   sodipodi:docname="apl-3.svg">
  <defs
     id="defs4">
    <inkscape:path-effect
       effect="sketch"
       id="path-effect4498"
       is_visible="true"
       nbiter_approxstrokes="5"
       strokelength="100"
       strokelength_rdm="0.3;1"
       strokeoverlap="0.3"
       strokeoverlap_rdm="0.3;1"
       ends_tolerance="0.1;1"
       parallel_offset="5;1"
       tremble_size="5;1"
       tremble_frequency="1"
       nbtangents="12"
       tgt_places_rdmness="1;1"
       tgtscale="10"
       tgtlength="100"
       tgtlength_rdm="0.3;1" />
    <inkscape:path-effect
       effect="bend_path"
       id="path-effect4496"
       is_visible="true"
       bendpath="m 224.25385,199.62225 76.77159,0"
       prop_scale="1"
       scale_y_rel="false"
       vertical="false" />
    <inkscape:path-effect
       effect="sketch"
       id="path-effect3855"
       is_visible="true"
       nbiter_approxstrokes="3"
       strokelength="100"
       strokelength_rdm="0.2;1"
       strokeoverlap="0"
       strokeoverlap_rdm="0;1"
       ends_tolerance="0.1;1"
       parallel_offset="1.3;1"
       tremble_size="1.3;1"
       tremble_frequency="2"
       nbtangents="0"
       tgt_places_rdmness="1;1"
       tgtscale="10"
       tgtlength="1"
       tgtlength_rdm="0.3;1" />
    <inkscape:path-effect
       tgtlength_rdm="0.3;1"
       tgtlength="0"
       tgtscale="10"
       tgt_places_rdmness="1;1"
       nbtangents="0"
       tremble_frequency="1.5"
       tremble_size="1.6;1"
       parallel_offset="1.5;1"
       ends_tolerance="0.1;1"
       strokeoverlap_rdm="0.3;1"
       strokeoverlap="0.3"
       strokelength_rdm="0.3;1"
       strokelength="100"
       nbiter_approxstrokes="8"
       is_visible="true"
       id="path-effect3845"
       effect="sketch" />
    <inkscape:path-effect
       effect="sketch"
       id="path-effect3841"
       is_visible="true"
       nbiter_approxstrokes="8"
       strokelength="90"
       strokelength_rdm="0.2;1"
       strokeoverlap="0.3"
       strokeoverlap_rdm="0.2;1"
       ends_tolerance="0.1;1"
       parallel_offset="2;1"
       tremble_size="2;1"
       tremble_frequency="1.5"
       nbtangents="0"
       tgt_places_rdmness="1;1"
       tgtscale="10"
       tgtlength="1"
       tgtlength_rdm="0.3;1" />
    <inkscape:path-effect
       effect="sketch"
       id="path-effect3837"
       is_visible="true"
       nbiter_approxstrokes="5"
       strokelength="100"
       strokelength_rdm="0.3;1"
       strokeoverlap="0.3"
       strokeoverlap_rdm="0.3;1"
       ends_tolerance="0.1;1"
       parallel_offset="1.3;1"
       tremble_size="1.5;1"
       tremble_frequency="2"
       nbtangents="0"
       tgt_places_rdmness="1;1"
       tgtscale="10"
       tgtlength="1"
       tgtlength_rdm="0.3;1" />
    <inkscape:path-effect
       effect="sketch"
       id="path-effect3810"
       is_visible="true"
       nbiter_approxstrokes="5"
       strokelength="100"
       strokelength_rdm="0.3;1"
       strokeoverlap="0.3"
       strokeoverlap_rdm="0.3;1"
       ends_tolerance="0;1"
       parallel_offset="1;1"
       tremble_size="1;1"
       tremble_frequency="1"
       nbtangents="0"
       tgt_places_rdmness="1;1"
       tgtscale="10"
       tgtlength="1"
       tgtlength_rdm="0.3;1" />
    <inkscape:path-effect
       effect="sketch"
       id="path-effect3808"
       is_visible="true"
       nbiter_approxstrokes="3"
       strokelength="100"
       strokelength_rdm="0.3;1"
       strokeoverlap="0.3"
       strokeoverlap_rdm="0.3;1"
       ends_tolerance="0.1;1"
       parallel_offset="1;1"
       tremble_size="1;1"
       tremble_frequency="1"
       nbtangents="0"
       tgt_places_rdmness="1;1"
       tgtscale="10"
       tgtlength="2"
       tgtlength_rdm="0.3;1" />
    <inkscape:path-effect
       effect="sketch"
       id="path-effect3800"
       is_visible="true"
       nbiter_approxstrokes="3"
       strokelength="100"
       strokelength_rdm="0.3;1"
       strokeoverlap="0.3"
       strokeoverlap_rdm="0.3;1"
       ends_tolerance="0.1;1"
       parallel_offset="2;1"
       tremble_size="2;1"
       tremble_frequency="1"
       nbtangents="5"
       tgt_places_rdmness="1;1"
       tgtscale="10"
       tgtlength="2"
       tgtlength_rdm="0.3;1" />
    <inkscape:path-effect
       effect="sketch"
       id="path-effect3796"
       is_visible="true"
       nbiter_approxstrokes="5"
       strokelength="100"
       strokelength_rdm="0.3;1"
       strokeoverlap="0.3"
       strokeoverlap_rdm="0.3;1"
       ends_tolerance="0.1;1"
       parallel_offset="2;1"
       tremble_size="1;1"
       tremble_frequency="1"
       nbtangents="5"
       tgt_places_rdmness="1;1"
       tgtscale="10"
       tgtlength="2"
       tgtlength_rdm="0.3;1" />
    <inkscape:path-effect
       tgtlength_rdm="0.3;1"
       tgtlength="4"
       tgtscale="10"
       tgt_places_rdmness="1;1"
       nbtangents="5"
       tremble_frequency="1"
       tremble_size="3;1"
       parallel_offset="2;1"
       ends_tolerance="0.1;1"
       strokeoverlap_rdm="0.3;1"
       strokeoverlap="0.3"
       strokelength_rdm="0.3;1"
       strokelength="100"
       nbiter_approxstrokes="5"
       is_visible="true"
       id="path-effect3790"
       effect="sketch" />
    <inkscape:path-effect
       tgtlength_rdm="0.3;1"
       tgtlength="2"
       tgtscale="10"
       tgt_places_rdmness="1;1"
       nbtangents="5"
       tremble_frequency="1"
       tremble_size="3;1"
       parallel_offset="3;1"
       ends_tolerance="0.1;1"
       strokeoverlap_rdm="0.3;1"
       strokeoverlap="0.3"
       strokelength_rdm="0.3;1"
       strokelength="100"
       nbiter_approxstrokes="5"
       is_visible="true"
       id="path-effect3788"
       effect="sketch" />
    <inkscape:path-effect
       tgtlength_rdm="0.3;1"
       tgtlength="2"
       tgtscale="10"
       tgt_places_rdmness="1;1"
       nbtangents="5"
       tremble_frequency="1"
       tremble_size="3;1"
       parallel_offset="2;1"
       ends_tolerance="0.1;1"
       strokeoverlap_rdm="0.3;1"
       strokeoverlap="0.3"
       strokelength_rdm="0.3;1"
       strokelength="100"
       nbiter_approxstrokes="4"
       is_visible="true"
       id="path-effect3786"
       effect="sketch" />
    <inkscape:path-effect
       effect="sketch"
       id="path-effect3771"
       is_visible="true"
       nbiter_approxstrokes="4"
       strokelength="100"
       strokelength_rdm="0.3;1"
       strokeoverlap="0.3"
       strokeoverlap_rdm="0.3;1"
       ends_tolerance="0.1;1"
       parallel_offset="2;1"
       tremble_size="3;1"
       tremble_frequency="1"
       nbtangents="5"
       tgt_places_rdmness="1;1"
       tgtscale="10"
       tgtlength="4"
       tgtlength_rdm="0.3;1" />
    <inkscape:path-effect
       effect="sketch"
       id="path-effect3767"
       is_visible="true"
       nbiter_approxstrokes="5"
       strokelength="100"
       strokelength_rdm="0.3;1"
       strokeoverlap="0.3"
       strokeoverlap_rdm="0.3;1"
       ends_tolerance="0.1;1"
       parallel_offset="3;1"
       tremble_size="3;1"
       tremble_frequency="1"
       nbtangents="5"
       tgt_places_rdmness="1;1"
       tgtscale="10"
       tgtlength="2"
       tgtlength_rdm="0.3;1" />
    <inkscape:path-effect
       effect="sketch"
       id="path-effect3765"
       is_visible="true"
       nbiter_approxstrokes="5"
       strokelength="100"
       strokelength_rdm="0.3;1"
       strokeoverlap="0.3"
       strokeoverlap_rdm="0.3;1"
       ends_tolerance="0.1;1"
       parallel_offset="2;1"
       tremble_size="3;1"
       tremble_frequency="1"
       nbtangents="5"
       tgt_places_rdmness="1;1"
       tgtscale="10"
       tgtlength="4"
       tgtlength_rdm="0.3;1" />
    <inkscape:path-effect
       effect="sketch"
       id="path-effect3763"
       is_visible="true"
       nbiter_approxstrokes="4"
       strokelength="100"
       strokelength_rdm="0.3;1"
       strokeoverlap="0.3"
       strokeoverlap_rdm="0.3;1"
       ends_tolerance="0.1;1"
       parallel_offset="2;1"
       tremble_size="3;1"
       tremble_frequency="1"
       nbtangents="5"
       tgt_places_rdmness="1;1"
       tgtscale="10"
       tgtlength="2"
       tgtlength_rdm="0.3;1" />
    <inkscape:path-effect
       effect="sketch"
       id="path-effect3761"
       is_visible="true"
       nbiter_approxstrokes="4"
       strokelength="100"
       strokelength_rdm="0.3;1"
       strokeoverlap="0.3"
       strokeoverlap_rdm="0.3;1"
       ends_tolerance="0.1;1"
       parallel_offset="3;1"
       tremble_size="3;1"
       tremble_frequency="1"
       nbtangents="5"
       tgt_places_rdmness="1;1"
       tgtscale="10"
       tgtlength="5"
       tgtlength_rdm="0.3;1" />
    <inkscape:path-effect
       effect="sketch"
       id="path-effect3998"
       is_visible="true"
       nbiter_approxstrokes="5"
       strokelength="100"
       strokelength_rdm="0.3;1"
       strokeoverlap="0.3"
       strokeoverlap_rdm="0.3;1"
       ends_tolerance="0.1;1"
       parallel_offset="4;1"
       tremble_size="4;1"
       tremble_frequency="1"
       nbtangents="13"
       tgt_places_rdmness="1;1"
       tgtscale="10"
       tgtlength="100"
       tgtlength_rdm="0.3;1" />
    <inkscape:path-effect
       effect="sketch"
       id="path-effect3998-7"
       is_visible="true"
       nbiter_approxstrokes="5"
       strokelength="100"
       strokelength_rdm="0.3;1"
       strokeoverlap="0.3"
       strokeoverlap_rdm="0.3;1"
       ends_tolerance="0.1;1"
       parallel_offset="4;1"
       tremble_size="4;1"
       tremble_frequency="1"
       nbtangents="13"
       tgt_places_rdmness="1;1"
       tgtscale="10"
       tgtlength="100"
       tgtlength_rdm="0.3;1" />
  </defs>
  <sodipodi:namedview
     id="base"
     pagecolor="#ffffff"
     bordercolor="#666666"
     borderopacity="1.0"
     inkscape:pageopacity="0.0"
     inkscape:pageshadow="2"
     inkscape:zoom="1.4"
     inkscape:cx="447.70667"
     inkscape:cy="395.50679"
     inkscape:document-units="px"
     inkscape:current-layer="layer1"
     showgrid="false"
     inkscape:window-width="1716"
     inkscape:window-height="1404"
     inkscape:window-x="3400"
     inkscape:window-y="16"
     inkscape:window-maximized="0" />
  <metadata
     id="metadata7">
    <rdf:RDF>
      <cc:Work
         rdf:about="">
        <dc:format>image/svg+xml</dc:format>
        <dc:type
           rdf:resource="http://purl.org/dc/dcmitype/StillImage" />
        <dc:title />
      </cc:Work>
    </rdf:RDF>
  </metadata>
  <g
     inkscape:label="Layer 1"
     inkscape:groupmode="layer"
     id="layer1"
     transform="translate(0,-308.2677)">
    <path
       style="fill:none;stroke:#000000;stroke-width:1px;stroke-linecap:butt;stroke-linejoin:miter;stroke-opacity:1"
       d="m 248.00092,247.3728 c 0.70972,26.26972 0.095,53.41144 -0.47721,80.35733 m -1.08567,-23.96716 c -0.28571,23.67834 0.13799,47.808 0.81763,72.02349 m -3.2084,-13.24448 c -0.64259,24.45622 -0.2355,48.82372 0.17556,72.69811 -0.0838,0.11248 -0.16768,0.22495 -0.25152,0.33739 m 2.94368,-15.35802 c 0.14845,5.52415 0.25829,11.02237 0.34141,16.50327 -15.15504,21.49635 -30.93928,42.58503 -45.99469,64.25137 m 12.33138,-25.8115 c -12.55052,16.27409 -24.13964,32.74044 -35.18128,49.04299 m 67.66679,-277.5043 c -0.47816,25.95109 0.42474,50.33749 1.87147,73.92381 m -4.23865,-16.3063 c -0.4373,24.90163 0.34881,49.63527 1.61866,74.20626 m 2.60039,-17.90192 c 0.28509,23.27449 -0.26584,47.27424 -1.23908,71.80274 m 0.6063,-13.67149 c 0.0924,5.78011 0.14432,11.51477 0.16407,17.2095 -14.71567,20.05488 -30.0468,39.34614 -45.29963,58.33758 m 15.9991,-21.75216 c -14.43064,19.91389 -28.07694,39.2913 -41.39152,59.16527 M 247.1572,242.89652 c 0.80872,27.63329 0.30572,54.777 0.11225,81.89673 m -2.95601,-23.18445 c 0.85783,30.48403 0.11404,59.64135 -0.16278,88.60949 m -1.01696,-21.53225 c 0.49453,21.87944 0.66507,44.42488 1.14622,67.79864 -3.48117,5.37601 -6.93786,10.81731 -10.35603,16.32747 m 12.99841,-21.53493 c -0.0202,0.90597 -0.0399,1.81172 -0.0592,2.7173 -14.50565,19.72045 -28.69498,39.31779 -43.38026,59.82881 m 10.77916,-15.10536 c -11.84325,15.88609 -24.05906,32.1582 -36.56047,48.46259 m 67.76,-281.60427 c -0.30771,31.07551 0.62213,61.7279 2.02237,93.24771 m 0.3216,-25.36168 c 0.37995,32.83738 0.0459,63.66256 0.0892,93.59933 m -1.15958,-27.83205 c 0.0339,18.32093 0.13664,36.68018 0.34176,55.3064 -8.48235,12.22691 -16.89775,24.62841 -25.22848,37.32541 m 14.54276,-26.76713 c -16.13037,22.22534 -31.61895,43.84719 -46.26553,65.16957 m 6.51654,-12.5014 c -6.85876,9.50826 -13.73886,19.07862 -20.54401,28.64838 m 64.63999,-83.61143 -1.90482,2.59268 m -53.10706,72.28462 -1.69944,2.31313 m 19.54113,-26.59766 -1.76605,2.40379 m 44.67538,-208.06338 0,3.80313 m 0,106.68858 0,3.39063"
       id="path2985"
       inkscape:connector-curvature="0"
       transform="translate(0,308.2677)"
       inkscape:path-effect="#path-effect3763"
       inkscape:original-d="m 246.47722,236.9979 0,197.9899 -72.73098,98.99496"
       sodipodi:nodetypes="ccc" />
    <path
       style="fill:none;stroke:#000000;stroke-width:1px;stroke-linecap:butt;stroke-linejoin:miter;stroke-opacity:1"
       d="m 249.97114,445.10446 c 15.85745,21.58034 30.39043,44.03266 44.96598,66.28916 m -11.65998,-22.12735 c 6.57677,9.69183 13.33027,19.49441 20.20328,29.3637 m -56.64846,-74.39829 c 13.39782,20.25265 27.85775,40.41553 42.31545,60.07706 m -6.06876,-12.10306 c 8.81319,12.57429 17.33278,24.95317 25.80818,37.315 m -64.30305,-92.24149 c 15.45485,22.8959 32.72633,46.15201 50.73464,68.85204 M 282.829,492.22233 c 6.65257,10.25339 13.61917,20.14969 20.8093,29.77287 m -57.08614,-79.41283 c 13.62898,20.54703 28.48137,40.92607 43.81749,61.14247 m -6.5501,-16.18576 c 6.98833,9.91904 13.75408,20.0313 20.35336,30.31043 m -58.23705,-80.65523 c 17.85127,25.68877 34.53405,50.06477 51.33503,73.98817 M 284.8023,489.46448 c 7.43605,11.46527 15.12195,22.75893 22.97528,34.06717 m -22.71463,-29.24614 1.81773,2.65446 m 16.67609,24.35239 1.62174,2.36826 m -7.61974,-11.12724 1.68531,2.46108 m -45.42068,-66.32862 2.14878,3.13791 m 19.84386,28.97834 1.91572,2.79756"
       id="path2987"
       inkscape:connector-curvature="0"
       transform="translate(0,308.2677)"
       inkscape:path-effect="#path-effect3767"
       inkscape:original-d="m 244.45692,434.9878 63.6396,92.93404"
       sodipodi:nodetypes="cc" />
    <path
       style="fill:none;stroke:#000000;stroke-width:1px;stroke-linecap:butt;stroke-linejoin:miter;stroke-opacity:1"
       d="m 165.11069,273.70692 c 25.38114,9.95228 49.43781,20.77655 73.53705,31.40499 m -18.9445,-12.1555 c 8.46358,3.55293 17.03482,7.17435 25.68691,10.84266 14.68999,1.00196 29.57849,2.11904 44.56236,3.2681 m -18.62195,1.1787 c 24.15568,1.39196 49.37346,2.69415 74.58901,3.49499 M 166.68482,272.46361 c 27.19331,11.80866 53.30256,22.88904 80.09624,34.52426 3.03097,0.24103 6.06942,0.48811 9.11734,0.7427 m -29.37925,-11.64728 c 5.45174,2.27569 10.98658,4.56786 16.59393,6.86754 22.33511,1.23323 45.6502,2.56798 69.42066,3.55905 m -22.48262,2.38447 c 18.58781,1.57904 37.93956,2.29156 57.71117,2.45337 M 156.32785,267.81179 c 22.47274,9.74914 46.16889,19.3303 70.34877,28.74881 m -12.79946,-7.71662 c 11.16014,4.61426 22.10176,9.41808 32.88015,14.38521 11.19158,1.02917 22.23397,2.20759 33.17548,3.51231 m -14.15973,0.14579 c 29.03575,2.22081 57.05544,3.30109 85.10288,3.93665 M 165.78093,268.00877 c 26.54883,12.24755 54.26983,23.69425 82.33899,36.22618 1.13762,0.11366 2.27573,0.22884 3.41428,0.34565 m -25.21075,-7.5128 c 6.81984,2.87248 13.54956,5.71133 20.21836,8.52493 20.34226,1.34996 40.20168,2.4998 60.22963,3.63659 m -23.17576,-4.26388 c 21.10773,1.68647 41.46497,2.75073 61.73446,3.55745 M 163.37083,270.1544 c 26.27534,11.06221 52.01927,23.21682 78.56487,36.80486 m -17.1419,-12.33252 c 6.86378,3.21789 13.7639,6.41881 20.67278,9.63798 16.53079,1.61434 33.10412,3.31724 49.42499,5.48523 m -14.99851,-3.11425 c 24.54676,1.22359 48.54196,3.02117 72.13975,4.75078 m -70.96948,-4.34267 6.42021,0.42668 m 53.34613,3.54532 5.72798,0.38068 m -25.11166,-1.66889 5.95249,0.39559 m -142.21105,-31.08123 6.99954,2.97681 m 58.99319,23.03905 6.76633,0.44968"
       id="path2989"
       inkscape:connector-curvature="0"
       transform="translate(0,308.2677)"
       inkscape:path-effect="#path-effect3765"
       inkscape:original-d="m 157.5838,267.30248 87.88327,37.37565 110.27123,7.32849"
       sodipodi:nodetypes="ccc" />
    <path
       sodipodi:type="arc"
       style="fill:none;stroke:#000000;stroke-width:1;stroke-miterlimit:4;stroke-opacity:1;stroke-dasharray:none;stroke-dashoffset:0"
       id="path2991"
       sodipodi:cx="262.63965"
       sodipodi:cy="199.62225"
       sodipodi:rx="38.385796"
       sodipodi:ry="38.385796"
       d="m 302.30701,210.84924 c -1.14788,7.83514 -4.89702,14.91124 -10.37889,20.37267 -6.92832,6.9025 -16.62628,11.2284 -27.40427,11.28713 -9.49693,0.0517 -18.24912,-3.21894 -25.0894,-8.72025 m 16.66171,2.09195 c -7.807,-1.54271 -14.71908,-5.34285 -20.01471,-10.6735 -6.89674,-6.94236 -11.05334,-16.48063 -10.82489,-26.98011 0.13988,-6.42913 1.90959,-12.4726 4.92588,-17.75757 m -8.20781,18.15905 c 0.5358,-9.40261 4.549,-17.8678 10.77299,-24.23119 6.93914,-7.09455 16.63094,-11.5709 27.38263,-11.84156 6.15652,-0.15498 11.99356,1.08312 17.19058,3.39762 m -12.72525,-2.24707 c 10.55168,0.42502 19.95958,4.78065 26.80858,11.6222 7.03319,7.02554 11.35876,16.66546 11.40784,27.33351 0.0491,10.66805 -4.183,20.34854 -10.97668,27.44994 -1.25596,1.31285 -2.59946,2.53755 -4.01957,3.66412 m 9.32773,-26.73121 c -1.83758,6.75134 -5.40338,12.79853 -10.1669,17.56667 -6.83702,6.84365 -16.14747,11.0559 -26.26624,10.93778 -10.11878,-0.11812 -19.1202,-4.54906 -25.37924,-11.69227 -0.7904,-0.90206 -1.53703,-1.84736 -2.23658,-2.83271 m 17.22332,15.92485 c -5.84228,-1.80153 -11.00652,-5.005 -15.15209,-9.23774 -6.90036,-7.04545 -10.98453,-16.93404 -10.6007,-28.04516 0.36331,-10.51732 4.67147,-20.25489 11.50136,-27.79875 m -12.93158,17.54373 c 1.72001,-6.23891 5.06776,-11.82882 9.58242,-16.32778 7.00239,-6.97805 16.80694,-11.33001 27.77126,-11.421 9.18768,-0.0762 17.73735,2.84991 24.66212,7.80737 m -12.09104,-9.50028 c 7.24952,1.58946 13.6539,5.25188 18.61316,10.35572 6.86747,7.06768 10.9675,16.8942 10.64105,27.8671 -0.19852,6.6728 -2.01405,13.00483 -5.07206,18.62594 m 2.85998,-8.74022 c -1.49495,7.30769 -5.09663,13.76964 -10.14591,18.77081 -6.94072,6.87459 -16.61652,10.99234 -27.35826,10.69579 -10.74174,-0.29655 -20.51709,-4.95729 -27.64401,-12.32264 -2.45347,-2.53556 -4.59318,-5.39176 -6.35064,-8.50146 m 20.75136,15.76715 c -4.83839,-1.8045 -9.15936,-4.57049 -12.74233,-8.05776 -6.93471,-6.74948 -11.10941,-16.20472 -10.87559,-26.62888 0.23382,-10.42416 4.83621,-19.83568 12.13882,-26.50338 3.78768,-3.45837 8.30203,-6.17927 13.313,-7.91818 m -21.45276,16.49499 c 1.72129,-2.68934 3.75103,-5.16732 6.03824,-7.37878 7.13583,-6.89954 16.78057,-11.20306 27.34989,-11.25195 10.56932,-0.0489 20.06488,4.16595 26.9217,11.01981 2.87968,2.87844 5.29339,6.22215 7.12452,9.9103 m -16.27113,-17.99377 c 2.26553,1.48244 4.3622,3.17288 6.2608,5.04138 7.14103,7.02778 11.48396,16.5798 11.4396,27.02216 -0.0444,10.44236 -4.46518,19.7959 -11.53655,26.45247 -5.19362,4.88896 -11.8192,8.32253 -19.1967,9.65274 m 29.46924,-31.20365 c -0.19188,10.00367 -4.24907,19.15684 -10.69303,26.05803 -6.7963,7.27851 -16.25635,12.04302 -26.64934,12.7499 -8.55232,0.58168 -16.39842,-1.66219 -22.58193,-5.7838 m 21.55078,3.23871 c -9.22729,-0.65853 -17.46926,-4.47713 -23.68406,-10.28806 -7.11168,-6.64953 -11.56085,-15.92059 -11.78733,-26.03145 -0.12714,-5.67558 1.08718,-11.00751 3.33892,-15.68651 m -2.35235,11.99105 c 0.28752,-10.38495 4.47441,-19.67325 11.08267,-26.4271 6.8153,-6.96545 16.20787,-11.23052 26.50358,-11.18453 6.64651,0.0297 12.85389,1.85211 18.17733,5.01374 m -17.47315,-3.266 c 10.12047,0.42031 19.38841,4.78074 26.25286,11.63712 7.07597,7.06765 11.59789,16.78045 11.93545,27.55684 0.33755,10.77638 -3.56597,20.58243 -10.06961,27.8245 -0.47895,0.53333 -0.97201,1.05276 -1.4785,1.55766 m -52.15769,-59.55151 6.57189,-4.63675 m 53.34957,16.53952 2.58398,6.69439 m -18.05787,-23.06502 6.09313,4.29897 m -1.33883,59.71939 -8.15058,4.89555 m -54.20621,-33.02821 0.40915,-8.46668"
       transform="translate(-15.152288,307.25755)"
       inkscape:path-effect="#path-effect3761" />
    <path
       sodipodi:type="arc"
       style="fill:none;stroke:#000000;stroke-width:1;stroke-miterlimit:4;stroke-opacity:1;stroke-dasharray:none;stroke-dashoffset:0"
       id="path3769"
       sodipodi:cx="237.89093"
       sodipodi:cy="134.9725"
       sodipodi:rx="58.107887"
       sodipodi:ry="22.223129"
       d="m 285.60758,125.33646 c 3.01964,1.39938 5.46929,2.92951 7.36193,4.53985 3.052,2.59676 4.65703,5.4014 4.83526,8.22355 0.17823,2.82215 -1.07038,5.66155 -3.76247,8.35041 -2.69209,2.68885 -6.82974,5.22882 -12.44824,7.46302 -10.35151,4.11628 -23.94811,6.49037 -37.89797,6.98696 m 18.21079,-6.47313 c -7.31646,1.18193 -15.11224,1.80998 -22.87871,1.87739 -14.79235,0.1284 -29.47597,-1.77818 -40.73945,-5.88046 -2.21028,-0.80501 -4.20834,-1.66559 -5.99403,-2.57206 m 11.30704,7.39774 c -3.00425,-0.76634 -5.85715,-1.645 -8.52243,-2.63632 -5.6347,-2.09576 -9.93397,-4.51124 -12.92624,-7.09482 -2.99227,-2.58359 -4.67654,-5.33407 -5.04636,-8.11024 -0.36982,-2.77617 0.5758,-5.57937 2.86671,-8.28187 0.76714,-0.90497 1.68525,-1.79864 2.75565,-2.67624 m 103.52042,-2.57805 c 2.2269,1.25044 4.09658,2.55436 5.61381,3.89556 3.07378,2.71717 4.70174,5.58774 4.90473,8.46517 0.203,2.87743 -1.01796,5.76256 -3.66471,8.49435 -2.64674,2.73178 -6.72169,5.30844 -12.23876,7.56107 -11.03412,4.50525 -25.76375,6.85172 -40.46259,7.15773 -4.32901,0.0901 -8.65429,0.004 -12.88138,-0.25664 m 23.35554,-4.26957 c -4.66343,0.40662 -9.40461,0.60401 -14.11172,0.58884 -14.83491,-0.0478 -29.30557,-2.21487 -40.2713,-6.60935 -5.23963,-2.09977 -9.22126,-4.52149 -11.95491,-7.11212 -2.73366,-2.59064 -4.22133,-5.34855 -4.40867,-8.13278 -0.0986,-1.46545 0.16475,-2.93869 0.80445,-4.40163 m 9.87987,20.18665 c -2.56479,-1.24505 -4.69676,-2.59771 -6.40305,-4.01885 -3.01135,-2.50808 -4.69928,-5.22637 -5.06763,-7.98147 -0.36835,-2.75511 0.58356,-5.54814 2.89481,-8.25682 2.07337,-2.4299 5.24178,-4.793 9.55085,-7.02088 m 88.22705,-1.43607 c 3.4652,1.64056 6.26354,3.42788 8.36848,5.30461 2.9666,2.64497 4.55396,5.468 4.73208,8.30153 0.17812,2.83352 -1.05161,5.67712 -3.67458,8.35581 -2.62296,2.67869 -6.63804,5.19253 -12.00922,7.36274 -8.15153,3.29361 -18.23963,5.31959 -28.75435,6.0599 m 19.15345,-3.54279 c -8.32672,1.7643 -17.71236,2.76337 -27.26363,3.00177 -15.0613,0.37593 -30.5352,-1.13231 -42.63114,-4.79413 -0.22658,-0.0686 -0.45118,-0.13771 -0.67381,-0.20735 m 14.84867,5.08378 c -4.78074,-0.90212 -9.32107,-2.12148 -13.44691,-3.64693 -5.5045,-2.03518 -9.77935,-4.4338 -12.77165,-7.01092 -2.99231,-2.57712 -4.70249,-5.33236 -5.10439,-8.11569 -0.4019,-2.78332 0.50321,-5.5969 2.72374,-8.3185 1.02788,-1.25981 2.33752,-2.50001 3.92966,-3.7087 m 99.34298,-4.82533 c 2.14447,1.27504 3.95482,2.60189 5.42467,3.96472 2.96218,2.74651 4.53933,5.63906 4.70515,8.53797 0.16582,2.89892 -1.07905,5.80571 -3.72911,8.56858 -2.65007,2.76287 -6.70448,5.37928 -12.14034,7.69129 -10.87172,4.62403 -25.17972,7.15042 -39.47625,7.76105 -2.87189,0.12266 -5.74433,0.16804 -8.59061,0.1369 m 22.68324,0.35153 c -5.00249,0.64971 -10.2288,1.00307 -15.50966,1.05986 -14.67104,0.15775 -29.76258,-1.97628 -41.45585,-6.32126 -5.58726,-2.07612 -9.90194,-4.47403 -12.91515,-7.03956 -2.99668,-2.55145 -4.70739,-5.26871 -5.11797,-8.01089 m 11.21964,10.44276 c -3.68097,-1.60215 -6.65736,-3.40905 -8.89405,-5.33323 -2.91213,-2.50526 -4.57015,-5.20853 -4.9267,-7.94457 -0.35656,-2.73603 0.58853,-5.50534 2.85511,-8.17053 0.66329,-0.77993 1.43958,-1.55109 2.329,-2.31031 m 32.9635,32.23142 -6.33159,-1.14545 m -27.45027,-26.48278 4.30984,-3.79211 m -3.12057,19.0896 -3.48579,-4.84127 m 116.58209,-3.16487 -3.12753,6.93351 m -51.42303,14.93581 -6.78113,0.0394"
       transform="matrix(-0.99996799,-0.00800119,0.00800119,-0.99996799,481.7482,611.59626)"
       sodipodi:start="5.4763107"
       sodipodi:end="10.125558"
       sodipodi:open="true"
       inkscape:path-effect="#path-effect3771" />
    <path
       sodipodi:nodetypes="ccc"
       inkscape:original-d="m 637.40625,626.0778 0,197.9899 -72.73098,98.99496"
       inkscape:path-effect="#path-effect3786"
       inkscape:connector-curvature="0"
       id="path3776"
       d="m 638.92995,636.4527 c 0.70972,26.26972 0.095,53.41144 -0.47721,80.35733 m -1.08567,-23.96716 c -0.28571,23.67834 0.13799,47.808 0.81763,72.02349 m -3.2084,-13.24448 c -0.64259,24.45622 -0.2355,48.82372 0.17556,72.69811 -0.0838,0.11248 -0.16768,0.22495 -0.25152,0.33739 m 2.94368,-15.35802 c 0.14845,5.52415 0.25829,11.02237 0.34141,16.50327 -15.15504,21.49635 -30.93928,42.58503 -45.99469,64.25137 m 12.33138,-25.8115 c -12.55052,16.27409 -24.13964,32.74044 -35.18128,49.04299 m 67.66679,-277.5043 c -0.47816,25.95109 0.42474,50.33749 1.87147,73.92381 m -4.23865,-16.3063 c -0.4373,24.90163 0.34881,49.63527 1.61866,74.20626 m 2.60039,-17.90192 c 0.28509,23.27449 -0.26584,47.27424 -1.23908,71.80274 m 0.6063,-13.67149 c 0.0924,5.78011 0.14432,11.51477 0.16407,17.2095 -14.71567,20.05488 -30.0468,39.34614 -45.29963,58.33758 m 15.9991,-21.75216 c -14.43064,19.91389 -28.07694,39.2913 -41.39152,59.16527 m 70.38749,-288.81806 c 0.80872,27.63329 0.30572,54.777 0.11225,81.89673 m -2.95601,-23.18445 c 0.85783,30.48403 0.11404,59.64135 -0.16278,88.60949 m -1.01696,-21.53225 c 0.49453,21.87944 0.66507,44.42488 1.14622,67.79864 -3.48117,5.37601 -6.93786,10.81731 -10.35603,16.32747 m 12.99841,-21.53493 c -0.0202,0.90597 -0.0399,1.81172 -0.0592,2.7173 -14.50565,19.72045 -28.69498,39.31779 -43.38026,59.82881 m 10.77916,-15.10536 c -11.84325,15.88609 -24.05906,32.1582 -36.56047,48.46259 m 67.76,-281.60427 c -0.30771,31.07551 0.62213,61.7279 2.02237,93.24771 m 0.3216,-25.36168 c 0.37995,32.83738 0.0459,63.66256 0.0892,93.59933 m -1.15958,-27.83205 c 0.0339,18.32093 0.13664,36.68018 0.34176,55.3064 -8.48235,12.22691 -16.89775,24.62841 -25.22848,37.32541 m 14.54276,-26.76713 c -16.13037,22.22534 -31.61895,43.84719 -46.26553,65.16957 m 6.51654,-12.5014 c -6.85876,9.50826 -13.73886,19.07862 -20.54401,28.64838 m 64.63999,-83.61143 -1.90482,2.59268 m -53.10706,72.28462 -1.69944,2.31313 m 19.54113,-26.59766 -1.76605,2.40379 m 44.67538,-208.06338 0,3.80313 m 0,106.68858 0,3.39063"
       style="fill:none;stroke:#000000;stroke-width:1px;stroke-linecap:butt;stroke-linejoin:miter;stroke-opacity:1" />
    <path
       sodipodi:nodetypes="cc"
       inkscape:original-d="m 635.38595,824.0677 63.6396,92.93404"
       inkscape:path-effect="#path-effect3788"
       inkscape:connector-curvature="0"
       id="path3778"
       d="m 640.90017,834.18436 c 15.85745,21.58034 30.39043,44.03266 44.96598,66.28916 m -11.65998,-22.12735 c 6.57677,9.69183 13.33027,19.49441 20.20328,29.3637 m -56.64846,-74.39829 c 13.39782,20.25265 27.85775,40.41553 42.31545,60.07706 m -6.06876,-12.10306 c 8.81319,12.57429 17.33278,24.95317 25.80818,37.315 m -64.30305,-92.24149 c 15.45485,22.8959 32.72633,46.15201 50.73464,68.85204 m -12.48942,-13.9089 c 6.65257,10.25339 13.61917,20.14969 20.8093,29.77287 m -57.08614,-79.41283 c 13.62898,20.54703 28.48137,40.92607 43.81749,61.14247 m -6.5501,-16.18576 c 6.98833,9.91904 13.75408,20.0313 20.35336,30.31043 m -58.23705,-80.65523 c 17.85127,25.68877 34.53405,50.06477 51.33503,73.98817 m -12.46859,-21.71797 c 7.43605,11.46527 15.12195,22.75893 22.97528,34.06717 m -22.71463,-29.24614 1.81773,2.65446 m 16.67609,24.35239 1.62174,2.36826 m -7.61974,-11.12724 1.68531,2.46108 m -45.42068,-66.32862 2.14878,3.13791 m 19.84386,28.97834 1.91572,2.79756"
       style="fill:none;stroke:#000000;stroke-width:1px;stroke-linecap:butt;stroke-linejoin:miter;stroke-opacity:1" />
    <path
       inkscape:original-d="m 548.51283,656.38238 87.88327,37.37565 83.84266,-38.3858"
       inkscape:path-effect="#path-effect3790"
       inkscape:connector-curvature="0"
       id="path3780"
       d="m 556.03972,662.78682 c 25.38114,9.95228 49.43781,20.77655 73.53705,31.40499 m -18.9445,-12.1555 c 8.46358,3.55293 17.03482,7.17435 25.68691,10.84266 13.39689,-6.0444 26.9923,-11.97368 40.68308,-17.87098 m -17.2539,8.63353 c 16.02834,-7.74149 32.62152,-15.53224 49.36744,-23.5301 m -152.36467,1.06519 c 27.48945,11.93725 53.8711,23.13029 80.97185,34.90458 2.4786,-1.07854 4.96337,-2.15211 7.45575,-3.21964 m -28.59327,-8.06527 c 5.73368,2.39338 11.55927,4.80499 17.46447,7.22439 20.10847,-9.35012 41.16237,-18.60764 62.65893,-28.19924 m -20.57364,12.78701 c 13.78109,-6.18126 28.06956,-12.93863 42.67936,-20.10056 m -168.39439,1.72913 c 22.47274,9.74914 46.16889,19.3303 70.34877,28.7488 M 607.9695,679.2692 c 10.09175,4.17252 20.00482,8.50005 29.78008,12.96317 11.23087,-4.97585 22.27533,-9.76828 33.19769,-14.40784 m -12.84914,7.28745 c 18.95019,-8.29427 37.37933,-17.1704 55.67182,-26.37649 M 557.2851,657.33327 c 26.35961,12.16026 53.87473,23.53104 81.73886,35.95838 1.2381,-0.49493 2.4769,-0.98774 3.71633,-1.47824 m -24.91266,-5.42111 c 6.62197,2.78915 13.15898,5.54658 19.63775,8.27997 18.75329,-8.48813 37.00689,-17.1825 55.43251,-25.8902 m -21.38112,5.5155 c 12.90558,-5.51254 25.47617,-11.3032 37.90903,-17.26331 M 547.57783,656.3755 c 26.27534,11.06221 52.01926,23.21683 78.56486,36.80486 M 609.0008,680.84785 c 9.04854,4.24214 18.16023,8.45482 27.2719,12.71866 12.87095,-5.54953 25.74184,-10.99443 38.42795,-16.09891 m -13.56261,4.71029 c 18.91081,-8.96445 37.42679,-17.51955 55.6426,-26.05164 m -58.80351,27.75131 5.85038,-2.67849 m 43.80093,-20.05344 5.21959,-2.38969 m -21.32272,9.76221 5.42417,-2.48336 m -123.59625,0.9119 6.99954,2.97682 m 52.75946,22.43793 6.24035,2.65394"
       style="fill:none;stroke:#000000;stroke-width:1px;stroke-linecap:butt;stroke-linejoin:miter;stroke-opacity:1" />
    <path
       style="fill:none;stroke:#000000;stroke-width:0.46326292px;stroke-linecap:butt;stroke-linejoin:miter;stroke-opacity:1"
       d="m 79.186994,525.78182 c 0.776715,1.21984 1.770307,2.27622 3.020262,2.75241 1.314202,0.50066 2.912678,0.35934 4.843709,-0.91072 1.933466,-1.27167 2.806578,-3.11113 2.998701,-5.16178 0.192123,-2.05065 -0.297557,-4.31193 -1.094543,-6.4232 -0.796986,-2.11126 -1.901388,-4.07242 -2.93658,-5.52385 -0.517596,-0.72571 -1.017845,-1.32402 -1.453532,-1.75004 -0.435688,-0.42602 -0.806785,-0.67975 -1.066232,-0.71631 -0.518889,-0.0731 -1.528797,-0.13609 -2.775318,-0.0272 -1.24652,0.10895 -2.729657,0.38981 -4.194776,1.0041 -1.465119,0.6143 -2.912111,1.56198 -4.086958,3.00462 -1.174846,1.44264 -2.0775,3.38022 -2.455975,5.975 -0.756946,5.18956 -0.08653,10.33608 0.735992,15.12405 0.822523,4.78798 1.798136,9.21702 1.652087,12.97285 -0.02171,0.55841 -0.04658,1.10525 -0.07453,1.6407 m -2.246248,-22.80076 c 0.193017,1.56497 0.442682,3.10481 0.708596,4.60962 0.84205,4.76518 1.84732,9.17932 1.730032,12.92635 -0.250735,8.01023 -1.153527,13.64974 -2.509991,17.46395 -0.678232,1.90711 -1.469293,3.35826 -2.345799,4.42318 -0.876506,1.06492 -1.838416,1.74362 -2.857337,2.10635 -1.018921,0.36273 -2.094772,0.40954 -3.199157,0.21071 -0.851673,-0.15334 -1.720329,-0.45275 -2.593178,-0.86612 M 78.67325,526.17757 c 0.520951,0.53541 1.112133,0.96634 1.779421,1.22622 1.29319,0.50363 2.871728,0.36489 4.776858,-0.90363 1.907532,-1.27013 2.764719,-3.11012 2.942194,-5.16283 0.177475,-2.05271 -0.323936,-4.31803 -1.128028,-6.43536 -0.804092,-2.11734 -1.910734,-4.08663 -2.945505,-5.54559 -0.517386,-0.72948 -1.016844,-1.33135 -1.451699,-1.76027 -0.434856,-0.42892 -0.805125,-0.68482 -1.064051,-0.7227 -0.51785,-0.0758 -1.525569,-0.14392 -2.768026,-0.0421 -1.242457,0.10183 -2.719642,0.37366 -4.176734,0.97742 -1.457093,0.60377 -2.894184,1.53958 -4.056122,2.9679 -1.161937,1.42832 -2.048771,3.34919 -2.403734,5.92039 -0.709922,5.14241 0.01756,10.23509 0.898281,14.96644 0.709107,3.80941 1.517191,7.38511 1.753585,10.56787 m -0.76558,-15.50214 c 0.229436,1.98853 0.558995,3.93928 0.910458,5.83318 0.891684,4.80496 1.923997,9.24379 1.821841,13.00686 -0.218386,8.04455 -1.131851,13.6878 -2.496998,17.50448 -0.682574,1.90834 -1.478686,3.35963 -2.359946,4.42442 -0.881259,1.06479 -1.847688,1.74308 -2.871219,2.10527 -1.023531,0.36219 -2.104162,0.4083 -3.214059,0.20856 -1.109897,-0.19973 -2.24907,-0.64533 -3.389848,-1.26675 -1.859291,-1.01283 -3.722853,-2.49273 -5.471041,-4.1369 M 76.19018,521.02154 c 0.172914,0.36228 0.362258,0.72248 0.568939,1.07133 0.771443,1.30209 1.784691,2.44636 3.084327,2.94873 1.299635,0.50238 2.884745,0.36256 4.801838,-0.90664 1.919511,-1.2708 2.78689,-3.11061 2.976682,-5.16251 0.189792,-2.0519 -0.297228,-4.3156 -1.085756,-6.4305 -0.788527,-2.1149 -1.878538,-4.08091 -2.899354,-5.53685 -0.510408,-0.72796 -1.003599,-1.3284 -1.433471,-1.75615 -0.429872,-0.42776 -0.796546,-0.68279 -1.053277,-0.72014 -0.513458,-0.0747 -1.512693,-0.14077 -2.744112,-0.0361 -1.231419,0.10468 -2.695057,0.38013 -4.137007,0.98811 -1.44195,0.60797 -2.862475,1.54853 -4.005035,2.98256 -1.142559,1.43403 -2.00723,3.36155 -2.33172,5.9421 -0.648978,5.16111 0.145759,10.275 1.097813,15.02848 0.952053,4.75347 2.058968,9.14699 2.026487,12.87151 -0.01387,1.59099 -0.05583,3.08688 -0.124299,4.49225 m -1.578573,-20.00336 c 0.173648,1.32497 0.383659,2.62894 0.605751,3.90613 0.833777,4.79479 1.838334,9.21149 1.723649,12.94943 -0.245171,7.99082 -1.12951,13.56585 -2.471398,17.32953 -0.670944,1.88184 -1.455267,3.3097 -2.325754,4.35385 -0.870487,1.04414 -1.827066,1.70447 -2.840685,2.04897 -1.01362,0.3445 -2.084135,0.37298 -3.182491,0.15348 -1.098356,-0.21951 -2.224559,-0.68698 -3.350601,-1.33296 -0.205604,-0.11795 -0.411205,-0.24184 -0.616635,-0.37126 M 78.638197,525.8137 c 0.529655,0.551 1.131831,0.99494 1.812818,1.26184 1.297331,0.50847 2.880069,0.37452 4.792738,-0.88628 1.91508,-1.2624 2.77863,-3.0964 2.963769,-5.1423 0.185138,-2.04589 -0.307353,-4.30375 -1.101805,-6.41352 -0.794452,-2.10978 -1.890796,-4.07146 -2.91691,-5.52424 -0.513057,-0.72638 -1.008624,-1.32553 -1.440383,-1.7523 -0.431759,-0.42677 -0.799792,-0.68114 -1.057353,-0.71808 -0.515117,-0.0739 -1.517558,-0.13845 -2.753129,-0.032 -1.235571,0.10641 -2.70429,0.38379 -4.151885,0.99365 -1.447595,0.60987 -2.874268,1.55227 -4.02396,2.98822 -1.149692,1.43595 -2.022482,3.36548 -2.35798,5.94853 -0.670992,5.16609 0.1,10.2848 1.027546,15.04438 0.752843,3.86311 1.607897,7.48985 1.874037,10.71473 m -1.285781,-18.53387 c 0.219276,1.96252 0.537335,3.89059 0.877025,5.76512 0.86554,4.77637 1.871219,9.20533 1.744712,12.96724 -0.270443,8.04204 -1.230418,13.71543 -2.631441,17.55573 -0.700511,1.92015 -1.511999,3.38265 -2.406688,4.45751 -0.894689,1.07486 -1.872633,1.76213 -2.907449,2.13329 -1.034815,0.37115 -2.126619,0.42631 -3.248967,0.23681 -0.71348,-0.12046 -1.439285,-0.33982 -2.170433,-0.63998 m 16.571546,-47.32055 c 0.349569,1.04369 0.843092,2.26501 1.506293,3.37271 0.786366,1.31341 1.811181,2.46707 3.119935,2.97747 1.308754,0.51041 2.90198,0.37808 4.825641,-0.88218 1.926088,-1.26186 2.794215,-3.09683 2.981301,-5.14495 0.187087,-2.04811 -0.307326,-4.30979 -1.108211,-6.42495 -0.800884,-2.11516 -1.908277,-4.0838 -2.945459,-5.54291 -0.51859,-0.72955 -1.019597,-1.33167 -1.45584,-1.76085 -0.436244,-0.42917 -0.80769,-0.68533 -1.067346,-0.72337 -0.519309,-0.0761 -1.529987,-0.1449 -2.777226,-0.0443 -1.247238,0.10061 -2.73103,0.37066 -4.196547,0.97207 -1.465517,0.60141 -2.912673,1.53433 -4.087364,2.95896 -1.174691,1.42463 -2.076901,3.34099 -2.454232,5.90572 -0.754659,5.12943 -0.08008,10.20706 0.746988,14.92424 0.827066,4.71717 1.807427,9.07545 1.665139,12.77092 -0.136816,3.55333 -0.40621,6.62894 -0.788167,9.27857 m 0.153284,-24.97035 c 0.144183,0.98666 0.305023,1.9612 0.472379,2.92116 0.840211,4.81947 1.845023,9.27105 1.727981,13.04487 -0.250209,8.0675 -1.149741,13.72743 -2.503504,17.55679 -0.676881,1.91469 -1.466659,3.37125 -2.342006,4.4406 -0.875347,1.06936 -1.836216,1.75149 -2.854092,2.11743 -1.017876,0.36593 -2.092666,0.41572 -3.195839,0.22005 -1.103174,-0.19567 -2.234734,-0.63682 -3.366811,-1.25332 -1.494367,-0.81379 -2.989621,-1.93312 -4.422848,-3.19734 m 17.950315,-22.77254 0.232757,3.20876 m -14.193229,23.90303 -2.432493,-1.5237 m 12.759565,-1.14142 -1.829587,2.3558 m 22.498034,-43.47424 0.828504,-3.71178 m -20.576684,2.13885 0.240244,3.38211"
       id="path3794"
       inkscape:connector-curvature="0"
       sodipodi:nodetypes="cssssc"
       inkscape:path-effect="#path-effect3796"
       inkscape:original-d="m 75.993802,517.24195 c 0,0 2.392765,13.01802 10.078249,7.97179 7.685473,-5.04624 -1.5168,-19.23504 -3.589148,-19.52702 -2.072333,-0.29202 -11.987528,-0.42092 -13.447458,9.94078 -1.459926,10.36169 2.810252,20.54213 2.571634,28.0404 -1.020219,32.05895 -12.757578,25.98371 -21.069742,17.59779" />
    <path
       style="fill:none;stroke:#000000;stroke-width:0.72445184px;stroke-linecap:butt;stroke-linejoin:miter;stroke-opacity:1"
       d="m 145.50947,643.7272 c 0.14438,0.77165 0.28798,1.54381 0.43084,2.31645 -11.52278,-1.85158 -23.21232,-3.59402 -34.99025,-5.28852 6.2965,-4.62613 12.55405,-9.23112 18.79556,-13.8329 -3.7105,-5.15809 -7.4314,-10.31409 -11.15072,-15.47737 m 10.08482,11.72555 c 0.1121,-0.0837 0.22422,-0.16735 0.33635,-0.251 -5.19172,-7.37674 -10.31772,-14.71172 -15.39375,-22.01762 12.50608,1.48068 25.11043,3.01852 37.76961,4.57855 -1.08609,2.04562 -2.17029,4.09201 -3.25289,6.13893 m -5.5729,32.72486 c -11.74242,-1.76314 -23.32897,-3.53944 -34.83294,-5.35726 6.36676,-4.72563 12.77098,-9.47008 19.19028,-14.24203 -3.00947,-4.46722 -6.01198,-8.94714 -9.01456,-13.44248 m 10.88645,14.62167 c 0.18297,-0.12777 0.3659,-0.25558 0.54878,-0.38341 -4.96286,-7.20038 -9.9951,-14.44715 -15.06097,-21.71451 12.20642,1.49625 24.34998,2.95399 36.52205,4.4391 m -9.14566,26.22378 c 0.36886,2.36393 0.74661,4.72963 1.13279,7.09671 -11.76646,-1.80865 -23.33134,-3.58436 -34.7475,-5.37199 6.53666,-4.68795 13.13887,-9.38115 19.79114,-14.09273 -3.28222,-5.09544 -6.53378,-10.20214 -9.7621,-15.32638 m 7.85117,19.529 c 0.82573,-0.60123 1.65299,-1.20419 2.48174,-1.80884 -5.20832,-7.24711 -10.30663,-14.61949 -15.31886,-22.09527 12.59555,1.24245 25.36037,2.28157 38.2285,3.17769 -0.36968,0.67861 -0.73891,1.35661 -1.10772,2.03401 m -34.05594,-1.49611 -1.84493,-2.63562 m 34.14584,2.5832 2.85065,0.33537 m -15.93041,-1.87417 2.96238,0.34852 m -5.67213,36.27306 -3.76332,-0.54882 m -1.10467,-17.84811 -1.9444,-2.7777"
       id="path3798"
       inkscape:connector-curvature="0"
       inkscape:path-effect="#path-effect3800"
       inkscape:original-d="m 143.21808,634.13631 1.46361,8.78168 -35.12672,-5.12264 19.02698,-13.90433 -15.36795,-21.95421 37.32215,4.39084 -3.65903,6.58626" />
    <path
       style="fill:none;stroke:#000000;stroke-width:0.63459444px;stroke-linecap:butt;stroke-linejoin:miter;stroke-opacity:1"
       d="m 44.456479,654.36753 c 5.577149,0.50016 11.13535,1.01279 16.678654,1.53473 0,0 5e-6,-2e-5 1.4e-5,-6e-5 0.004,-0.0162 0.851069,-3.45142 0.169343,-6.95844 -0.340864,-1.7535 -1.063432,-3.52527 -2.462394,-4.89858 -1.398962,-1.37332 -3.473967,-2.34841 -6.523178,-2.50735 -3.048876,-0.15892 -5.469328,0.51756 -7.385296,1.62189 -1.915969,1.10434 -3.327763,2.63669 -4.359517,4.19013 -1.031755,1.55344 -1.683438,3.12796 -2.077694,4.31621 -0.197128,0.59413 -0.32988,1.09168 -0.413523,1.44173 -0.04182,0.17502 -0.07137,0.31317 -0.09054,0.40808 -0.0096,0.0475 -0.01658,0.0841 -0.02123,0.10913 -0.0046,0.025 -0.0069,0.0385 -0.0071,0.0395 -7e-6,4e-5 -1.1e-5,6e-5 -1.1e-5,6e-5 7.646299,0.76318 15.282707,1.52958 22.920141,2.29068 -10e-7,0 4e-6,-2e-5 1.3e-5,-6e-5 6.9e-4,-0.003 0.02744,-0.11547 0.06679,-0.31848 m -14.008165,-3.05192 c 4.55084,0.42881 9.110391,0.86316 13.677584,1.30218 0,0 5e-6,-2e-5 1.4e-5,-5e-5 0.004,-0.0162 0.840234,-3.44577 0.160656,-6.948 -0.339789,-1.75111 -1.058916,-3.52061 -2.45138,-4.89164 -1.392464,-1.37104 -3.458525,-2.34379 -6.488082,-2.49959 -3.029224,-0.15579 -5.4292,0.52303 -7.32452,1.62958 -1.895319,1.10654 -3.285702,2.64096 -4.296326,4.1964 -1.010624,1.55543 -1.641535,3.13186 -2.01988,4.32159 -0.189173,0.59486 -0.31523,1.09304 -0.394156,1.44353 -0.03946,0.17524 -0.06714,0.31357 -0.08504,0.40859 -0.0089,0.0475 -0.01545,0.0842 -0.01976,0.10928 -0.0043,0.0251 -0.0064,0.0385 -0.0066,0.0395 -6e-6,4e-5 -9e-6,6e-5 -9e-6,6e-5 5.926035,0.59101 11.85956,1.18559 17.798294,1.78193 m -10.507408,0.25026 c 4.837651,0.4576 9.689078,0.91404 14.551558,1.36826 -1e-6,0 4e-6,-2e-5 1.3e-5,-6e-5 0.0039,-0.0162 0.829382,-3.45592 0.139822,-6.97406 -0.34478,-1.75907 -1.068784,-3.53765 -2.466306,-4.9197 -1.397523,-1.38206 -3.468928,-2.36758 -6.505883,-2.54508 -3.036622,-0.17748 -5.442295,0.48168 -7.342934,1.56901 -1.90064,1.08733 -3.295962,2.60266 -4.31126,4.13952 -1.015297,1.53686 -1.650584,3.09533 -2.032255,4.27133 -0.190835,0.588 -0.318281,1.08042 -0.398184,1.42685 -0.03995,0.17321 -0.06802,0.30993 -0.08618,0.40386 -0.0091,0.047 -0.01568,0.0832 -0.02006,0.108 -0.0044,0.0248 -0.0065,0.0381 -0.0067,0.0391 -7e-6,4e-5 -1e-5,7e-5 -1e-5,6e-5 6.534714,0.57876 13.075826,1.14845 19.616886,1.70658"
       id="path3804"
       inkscape:connector-curvature="0"
       sodipodi:nodetypes="ccsc"
       inkscape:path-effect="#path-effect3808"
       inkscape:original-d="m 37.354092,652.15822 23.07734,2.24363 c 0,0 3.365445,-13.70216 -8.814262,-14.3432 -12.179707,-0.64104 -14.263078,12.09957 -14.263078,12.09957 z" />
    <path
       style="fill:none;stroke:#000000;stroke-width:0.63459444px;stroke-linecap:butt;stroke-linejoin:miter;stroke-opacity:1"
       d="m 38.291293,653.44016 c -0.321065,2.13716 -0.326616,4.10333 0.0883,5.84966 0.414919,1.74635 1.250426,3.27277 2.611032,4.5305 1.360606,1.25774 3.246454,2.24669 5.759216,2.91989 2.512741,0.6732 5.652322,1.03074 9.517127,1.02764 M 37.90054,651.37769 c -0.348962,2.14448 -0.374684,4.11648 0.02423,5.86785 0.398922,1.7514 1.222413,3.2821 2.572672,4.54422 1.35026,1.26213 3.227223,2.25562 5.735173,2.93384 2.507929,0.67822 5.646843,1.04119 9.523453,1.04376 m -18.879014,-13.1553 c -0.359171,2.14431 -0.393317,4.11472 -0.0019,5.8637 0.391458,1.74902 1.208424,3.27662 2.551778,4.53423 1.343354,1.25762 3.212956,2.24519 5.712294,2.91355 2.499316,0.66836 5.628424,1.01759 9.49383,0.99775 m -16.57617,-14.23881 c -0.320381,2.16642 -0.324573,4.15547 0.09209,5.92123 0.416666,1.7658 1.254267,3.30835 2.617789,4.58214 1.363521,1.27379 3.253103,2.27892 5.771929,2.96872 2.518804,0.68979 5.66673,1.06417 9.545049,1.07523 M 36.767707,651.22924 c -0.353382,2.14107 -0.38152,4.10956 0.01608,5.85734 0.39761,1.74781 1.220821,3.27487 2.571847,4.53252 1.351026,1.25765 3.229761,2.24581 5.742334,2.9163 2.512551,0.67048 5.658906,1.02336 9.549924,1.01083"
       id="path3806"
       inkscape:connector-curvature="0"
       sodipodi:nodetypes="cc"
       inkscape:path-effect="#path-effect3810"
       inkscape:original-d="m 37.681845,651.862 c -1.361211,8.60732 2.40389,14.42334 17.868912,14.42334" />
    <text
       xml:space="preserve"
       style="font-size:68.2108078px;font-style:normal;font-weight:normal;line-height:125%;letter-spacing:0px;word-spacing:0px;fill:#000000;fill-opacity:1;stroke:none;font-family:Sans"
       x="391.05716"
       y="646.73987"
       id="text3812"
       sodipodi:linespacing="125%"><tspan
         sodipodi:role="line"
         id="tspan3814"
         x="391.05716"
         y="646.73987"
         style="font-style:normal;font-variant:normal;font-weight:normal;font-stretch:normal;font-family:Andale Mono;-inkscape-font-specification:Andale Mono">Pi</tspan></text>
    <path
       transform="translate(375.77674,388.06975)"
       d="m 303.52593,214.00535 c -1.00468,7.72616 -4.69509,14.74952 -10.16739,20.18776 -6.91624,6.87319 -16.68187,11.21871 -27.57855,11.31659 -9.60152,0.0862 -18.48123,-3.14102 -25.44476,-8.61302 m 16.19835,-1.98476 c -7.86952,-1.59543 -14.79218,-5.41472 -20.06236,-10.74327 -6.86359,-6.93961 -10.92694,-16.4391 -10.54619,-26.87161 0.23314,-6.38812 2.10869,-12.3843 5.23992,-17.61917 m -10.79987,20.45067 c 0.3739,-9.46682 4.33014,-18.0005 10.54976,-24.45243 6.93426,-7.19329 16.68962,-11.78955 27.54247,-12.24064 6.21445,-0.25831 12.11578,0.86604 17.37586,3.0513 m -10.48741,-1.1396 c 10.73941,0.56302 20.2342,4.98803 27.13951,11.88092 7.091,7.07826 11.43597,16.74716 11.51776,27.46061 0.0818,10.71346 -4.10733,20.44996 -10.79916,27.65466 -1.23713,1.33194 -2.55978,2.57737 -3.95667,3.72653 m 6.06804,-30.29065 c -1.92252,6.68181 -5.49658,12.67637 -10.20927,17.39675 -6.76407,6.77512 -15.88384,10.93121 -25.68184,10.73434 -9.798,-0.19687 -18.40274,-4.71744 -24.2035,-11.99183 -0.73252,-0.91861 -1.42027,-1.88115 -2.05995,-2.88445 m 17.01641,18.5091 c -5.91769,-1.73368 -11.10494,-4.92826 -15.23204,-9.20064 -6.86962,-7.11144 -10.81225,-17.19479 -10.17254,-28.6467 0.60552,-10.83989 5.21944,-20.9796 12.4008,-28.99343 m -15.81985,19.13086 c 1.64384,-6.23789 4.97207,-11.83431 9.51076,-16.34685 7.03968,-6.99911 16.98297,-11.38806 28.19019,-11.53971 9.39124,-0.12708 18.18887,2.73858 25.39397,7.62432 m -10.15433,-11.08573 c 7.30914,1.56081 13.71763,5.24193 18.63886,10.40412 6.81482,7.1485 10.78388,17.12841 10.2398,28.34994 -0.33086,6.82399 -2.29751,13.32744 -5.52257,19.14028 m 2.45168,-8.27007 c -1.41517,7.36317 -4.98398,13.82912 -10.03047,18.79544 -6.93689,6.82667 -16.66559,10.82527 -27.50186,10.33102 -10.83628,-0.49426 -20.73089,-5.39783 -27.97811,-13.04245 -2.49489,-2.63169 -4.6762,-5.58842 -6.47459,-8.80306 m 22.03426,15.30069 c -4.87946,-1.70941 -9.21678,-4.39831 -12.7957,-7.81773 -6.92686,-6.61817 -11.02038,-15.97927 -10.63068,-26.28624 0.3897,-10.30696 5.19603,-19.59519 12.73607,-26.07706 3.91083,-3.36197 8.55751,-5.97011 13.70978,-7.57003 m -23.40367,16.90335 c 1.78361,-2.67104 3.86368,-5.13517 6.19135,-7.33661 7.26209,-6.86825 16.93902,-11.17647 27.48792,-11.25794 10.5489,-0.0815 19.9772,4.07892 26.77426,10.87105 2.85458,2.85252 5.24414,6.16889 7.05565,9.82903 m -18.25222,-20.003 c 2.3155,1.50987 4.4538,3.22091 6.38689,5.10382 7.27074,7.08199 11.64463,16.60439 11.57071,26.94169 -0.0739,10.3373 -4.57766,19.52892 -11.7323,25.99222 -5.25478,4.74701 -11.94318,8.02135 -19.36667,9.17797 m 29.01522,-28.09442 c -0.041,10.04107 -4.00032,19.31723 -10.34937,26.42831 -6.69618,7.49988 -16.0653,12.57642 -26.32033,13.75454 -8.43879,0.96946 -16.15355,-0.83074 -22.16199,-4.43257 m 23.08287,0.32522 c -9.3661,-0.48147 -17.70661,-4.14801 -24.01766,-9.78594 -7.22181,-6.45157 -11.77278,-15.50571 -12.15026,-25.29051 -0.21188,-5.49255 0.90944,-10.62316 3.05141,-15.07048 m -1.41501,9.55353 c 0.31143,-10.49669 4.46024,-19.82596 10.98372,-26.59208 6.72786,-6.97811 15.9845,-11.22224 26.07739,-11.14559 6.51557,0.0495 12.57807,1.89314 17.74144,5.07044 m -17.19971,-2.16519 c 10.05182,0.53533 19.34323,4.97279 26.29144,11.90755 7.16231,7.14845 11.83452,16.93881 12.39711,27.83283 0.5626,10.89402 -3.07895,20.8398 -9.28738,28.27893 -0.45721,0.54785 -0.92834,1.08211 -1.41273,1.60216 m 11.97038,-25.05062 c -0.96116,8.75367 -4.84248,16.37696 -10.62829,21.96162 -6.90383,6.66382 -16.52271,10.43178 -27.16567,9.60408 -10.64296,-0.8277 -20.2935,-6.11247 -27.25655,-14.20152 -2.80903,-3.26329 -5.18079,-6.98312 -7.00359,-11.05349 m 19.16595,19.57306 c -5.19768,-1.80833 -9.84907,-4.71444 -13.67,-8.4226 -6.87497,-6.67207 -11.06485,-15.95081 -10.89151,-26.06805 0.17333,-10.11723 4.6818,-19.14237 11.89686,-25.34015 5.14212,-4.41709 11.65801,-7.40181 18.96697,-8.29963 m -25.41174,9.49392 c 1.4223,-2.08738 3.05719,-4.03607 4.87686,-5.81746 7.07217,-6.92337 16.92414,-11.31332 27.98952,-11.53428 11.06539,-0.22097 21.26142,3.76452 28.97711,10.32724 3.72462,3.16804 6.87138,6.93628 9.26482,11.11842 m -24.39965,-6.41371 c 1.6785,1.13147 3.26086,2.38828 4.73429,3.75617 7.27453,6.75346 11.88578,16.21578 12.32667,26.67001 0.4409,10.45423 -3.35682,19.91456 -9.63108,26.66429 -5.01511,5.39515 -11.62008,9.06224 -18.87353,10.11161 m -46.05855,-55.26116 42.29537,-29.84119 m 27.5128,8.48054 18.53404,48.01679 m -44.13402,-56.49733 42.29536,29.84119 m -1.36758,36.09332 -44.2953,26.60547 m -37.18506,-22.12986 2.51158,-51.97329 m 19.29993,-14.78448 50.55046,9.99917 m -32.93302,-13.65494 42.98964,28.78056 m -5.73783,-10.34031 2.51158,51.97329 m -16.53263,16.06325 -51.7757,-3.76527 m 41.09395,8.12223 -48.85191,-16.12958 m -9.84056,-28.22627 28.78056,-42.98963 m 21.06065,88.97411 -44.90688,-25.49303"
       sodipodi:ry="38.385796"
       sodipodi:rx="38.385796"
       sodipodi:cy="199.62225"
       sodipodi:cx="262.63965"
       id="path3782"
       style="fill:none;stroke:#000000;stroke-width:1;stroke-miterlimit:4;stroke-opacity:1;stroke-dasharray:none;stroke-dashoffset:0"
       sodipodi:type="arc"
       inkscape:path-effect="#path-effect4498" />
  </g>
</svg>
