<?xml version="1.0" encoding="UTF-8" standalone="no"?>
<!-- Created with Inkscape (http://www.inkscape.org/) -->

<svg
   xmlns:dc="http://purl.org/dc/elements/1.1/"
   xmlns:cc="http://creativecommons.org/ns#"
   xmlns:rdf="http://www.w3.org/1999/02/22-rdf-syntax-ns#"
   xmlns:svg="http://www.w3.org/2000/svg"
   xmlns="http://www.w3.org/2000/svg"
   xmlns:sodipodi="http://sodipodi.sourceforge.net/DTD/sodipodi-0.dtd"
   xmlns:inkscape="http://www.inkscape.org/namespaces/inkscape"
   width="1052.3622"
   height="744.09448"
   id="svg2"
   version="1.1"
   inkscape:version="0.48.4 r9939"
   sodipodi:docname="one-connector.svg">
  <defs
     id="defs4">
    <inkscape:path-effect
       effect="sketch"
       id="path-effect3888"
       is_visible="true"
       nbiter_approxstrokes="5"
       strokelength="40"
       strokelength_rdm="0.3;1"
       strokeoverlap="0.3"
       strokeoverlap_rdm="0.3;1"
       ends_tolerance="0.1;1"
       parallel_offset="2;1"
       tremble_size="2;1"
       tremble_frequency="1"
       nbtangents="5"
       tgt_places_rdmness="1;1"
       tgtscale="10"
       tgtlength="10"
       tgtlength_rdm="0.3;1" />
    <inkscape:path-effect
       tgtlength_rdm="0.3;1"
       tgtlength="10"
       tgtscale="10"
       tgt_places_rdmness="1;1"
       nbtangents="5"
       tremble_frequency="1"
       tremble_size="3;1"
       parallel_offset="2;1"
       ends_tolerance="0.1;1"
       strokeoverlap_rdm="0.3;1"
       strokeoverlap="0.3"
       strokelength_rdm="0.3;1"
       strokelength="100"
       nbiter_approxstrokes="4"
       is_visible="true"
       id="path-effect3884"
       effect="sketch" />
    <inkscape:path-effect
       effect="sketch"
       id="path-effect3882"
       is_visible="true"
       nbiter_approxstrokes="4"
       strokelength="100"
       strokelength_rdm="0.3;1"
       strokeoverlap="0.3"
       strokeoverlap_rdm="0.3;1"
       ends_tolerance="0.1;1"
       parallel_offset="3;1"
       tremble_size="3;1"
       tremble_frequency="1"
       nbtangents="5"
       tgt_places_rdmness="1;1"
       tgtscale="10"
       tgtlength="15"
       tgtlength_rdm="0.3;1" />
    <inkscape:path-effect
       effect="sketch"
       id="path-effect3862"
       is_visible="true"
       nbiter_approxstrokes="4"
       strokelength="100"
       strokelength_rdm="0.3;1"
       strokeoverlap="0.3"
       strokeoverlap_rdm="0.3;1"
       ends_tolerance="0.1;1"
       parallel_offset="2;1"
       tremble_size="3;1"
       tremble_frequency="1"
       nbtangents="5"
       tgt_places_rdmness="1;1"
       tgtscale="10"
       tgtlength="10"
       tgtlength_rdm="0.3;1" />
    <inkscape:path-effect
       tgtlength_rdm="0.3;1"
       tgtlength="15"
       tgtscale="10"
       tgt_places_rdmness="1;1"
       nbtangents="5"
       tremble_frequency="1"
       tremble_size="3;1"
       parallel_offset="3;1"
       ends_tolerance="0.1;1"
       strokeoverlap_rdm="0.3;1"
       strokeoverlap="0.3"
       strokelength_rdm="0.3;1"
       strokelength="100"
       nbiter_approxstrokes="4"
       is_visible="true"
       id="path-effect3860"
       effect="sketch" />
    <inkscape:path-effect
       tgtlength_rdm="0.3;1"
       tgtlength="10"
       tgtscale="10"
       tgt_places_rdmness="1;1"
       nbtangents="5"
       tremble_frequency="1"
       tremble_size="3;1"
       parallel_offset="3;1"
       ends_tolerance="0.1;1"
       strokeoverlap_rdm="0.3;1"
       strokeoverlap="0.3"
       strokelength_rdm="0.3;1"
       strokelength="100"
       nbiter_approxstrokes="4"
       is_visible="true"
       id="path-effect3854"
       effect="sketch" />
    <inkscape:path-effect
       effect="sketch"
       id="path-effect3850"
       is_visible="true"
       nbiter_approxstrokes="4"
       strokelength="100"
       strokelength_rdm="0.3;1"
       strokeoverlap="0.3"
       strokeoverlap_rdm="0.3;1"
       ends_tolerance="0.1;1"
       parallel_offset="3;1"
       tremble_size="3;1"
       tremble_frequency="1"
       nbtangents="5"
       tgt_places_rdmness="1;1"
       tgtscale="10"
       tgtlength="10"
       tgtlength_rdm="0.3;1" />
    <inkscape:path-effect
       effect="sketch"
       id="path-effect3894"
       is_visible="true"
       nbiter_approxstrokes="3"
       strokelength="95"
       strokelength_rdm="0.3;1"
       strokeoverlap="0.3"
       strokeoverlap_rdm="0.3;1"
       ends_tolerance="0.1;1"
       parallel_offset="3.2;1"
       tremble_size="2.8;1"
       tremble_frequency="1"
       nbtangents="5"
       tgt_places_rdmness="1;1"
       tgtscale="4"
       tgtlength="5"
       tgtlength_rdm="0.3;1" />
    <inkscape:path-effect
       tgtlength_rdm="0.3;1"
       tgtlength="5"
       tgtscale="4"
       tgt_places_rdmness="1;1"
       nbtangents="5"
       tremble_frequency="1"
       tremble_size="3.4;1"
       parallel_offset="3.5;1"
       ends_tolerance="0.1;1"
       strokeoverlap_rdm="0.3;1"
       strokeoverlap="0.3"
       strokelength_rdm="0.3;1"
       strokelength="75"
       nbiter_approxstrokes="3"
       is_visible="true"
       id="path-effect3890"
       effect="sketch" />
    <inkscape:path-effect
       effect="sketch"
       id="path-effect3886"
       is_visible="true"
       nbiter_approxstrokes="3"
       strokelength="100"
       strokelength_rdm="0.3;1"
       strokeoverlap="0.3"
       strokeoverlap_rdm="0.3;1"
       ends_tolerance="0.1;1"
       parallel_offset="3;1"
       tremble_size="3;1"
       tremble_frequency="1"
       nbtangents="5"
       tgt_places_rdmness="1;1"
       tgtscale="4"
       tgtlength="5"
       tgtlength_rdm="0.3;1" />
    <inkscape:path-effect
       effect="sketch"
       id="path-effect4801"
       is_visible="true"
       nbiter_approxstrokes="5"
       strokelength="100"
       strokelength_rdm="0.3;1"
       strokeoverlap="0.3"
       strokeoverlap_rdm="0.3;1"
       ends_tolerance="0.1;1"
       parallel_offset="3;1"
       tremble_size="3;1"
       tremble_frequency="1"
       nbtangents="5"
       tgt_places_rdmness="1;1"
       tgtscale="10"
       tgtlength="20"
       tgtlength_rdm="0.3;1" />
    <inkscape:path-effect
       effect="sketch"
       id="path-effect4799"
       is_visible="true"
       nbiter_approxstrokes="5"
       strokelength="100"
       strokelength_rdm="0.3;1"
       strokeoverlap="0.3"
       strokeoverlap_rdm="0.3;1"
       ends_tolerance="0;1"
       parallel_offset="0.2;1"
       tremble_size="0.3;1"
       tremble_frequency="1"
       nbtangents="5"
       tgt_places_rdmness="1;1"
       tgtscale="10"
       tgtlength="1"
       tgtlength_rdm="0.3;1" />
    <inkscape:path-effect
       effect="sketch"
       id="path-effect4797"
       is_visible="true"
       nbiter_approxstrokes="6"
       strokelength="100"
       strokelength_rdm="0.3;1"
       strokeoverlap="0.3"
       strokeoverlap_rdm="0.3;1"
       ends_tolerance="0;1"
       parallel_offset="0.3;4057545297"
       tremble_size="0.3;1"
       tremble_frequency="1"
       nbtangents="5"
       tgt_places_rdmness="1;4023269620"
       tgtscale="10.1"
       tgtlength="3"
       tgtlength_rdm="0.3;1713976667" />
    <inkscape:path-effect
       effect="sketch"
       id="path-effect4793"
       is_visible="true"
       nbiter_approxstrokes="6"
       strokelength="100"
       strokelength_rdm="0.3;1"
       strokeoverlap="0.3"
       strokeoverlap_rdm="0.3;1"
       ends_tolerance="0;1"
       parallel_offset="0.3;1"
       tremble_size="0.35;1"
       tremble_frequency="3.5"
       nbtangents="5"
       tgt_places_rdmness="1;1"
       tgtscale="10"
       tgtlength="3.2"
       tgtlength_rdm="0.3;1" />
    <inkscape:path-effect
       effect="sketch"
       id="path-effect4791"
       is_visible="true"
       nbiter_approxstrokes="6"
       strokelength="100"
       strokelength_rdm="0.3;1"
       strokeoverlap="0.3"
       strokeoverlap_rdm="0.3;1"
       ends_tolerance="0;1"
       parallel_offset="0.2;1"
       tremble_size="0.4;1"
       tremble_frequency="1"
       nbtangents="5"
       tgt_places_rdmness="1;1"
       tgtscale="10"
       tgtlength="3"
       tgtlength_rdm="0.3;1" />
    <inkscape:path-effect
       effect="sketch"
       id="path-effect4785"
       is_visible="true"
       nbiter_approxstrokes="5"
       strokelength="100"
       strokelength_rdm="0.3;1"
       strokeoverlap="0.3"
       strokeoverlap_rdm="0.3;1"
       ends_tolerance="0;1"
       parallel_offset="0.2;1"
       tremble_size="0.3;1"
       tremble_frequency="1"
       nbtangents="5"
       tgt_places_rdmness="1;1"
       tgtscale="10"
       tgtlength="3"
       tgtlength_rdm="0.3;1" />
    <inkscape:path-effect
       effect="sketch"
       id="path-effect4783"
       is_visible="true"
       nbiter_approxstrokes="5"
       strokelength="100"
       strokelength_rdm="0.1;2477674555"
       strokeoverlap="0"
       strokeoverlap_rdm="0.3;1"
       ends_tolerance="0;1"
       parallel_offset="0.2;2533325973"
       tremble_size="0.3;798932740"
       tremble_frequency="1"
       nbtangents="5"
       tgt_places_rdmness="1;1"
       tgtscale="10"
       tgtlength="3"
       tgtlength_rdm="0.3;1" />
    <inkscape:path-effect
       effect="sketch"
       id="path-effect4760"
       is_visible="true"
       nbiter_approxstrokes="6"
       strokelength="40"
       strokelength_rdm="0.3;1"
       strokeoverlap="0.3"
       strokeoverlap_rdm="0.3;1"
       ends_tolerance="0;1"
       parallel_offset="0.4;1"
       tremble_size="0.1;1"
       tremble_frequency="1"
       nbtangents="5"
       tgt_places_rdmness="1;1"
       tgtscale="10"
       tgtlength="3"
       tgtlength_rdm="0.3;1" />
    <inkscape:path-effect
       effect="sketch"
       id="path-effect4737"
       is_visible="true"
       nbiter_approxstrokes="5"
       strokelength="100"
       strokelength_rdm="0.3;1"
       strokeoverlap="0.3"
       strokeoverlap_rdm="0.3;1"
       ends_tolerance="0.1;1"
       parallel_offset="0.2;1"
       tremble_size="0.2;1"
       tremble_frequency="2"
       nbtangents="5"
       tgt_places_rdmness="1;1"
       tgtscale="10"
       tgtlength="4"
       tgtlength_rdm="0.3;1" />
    <inkscape:path-effect
       effect="sketch"
       id="path-effect4726"
       is_visible="true"
       nbiter_approxstrokes="6"
       strokelength="49"
       strokelength_rdm="0.2;1265894308"
       strokeoverlap="0"
       strokeoverlap_rdm="0;1"
       ends_tolerance="0;1"
       parallel_offset="0.3;332923567"
       tremble_size="0.3;839300555"
       tremble_frequency="1.5"
       nbtangents="9"
       tgt_places_rdmness="1;1"
       tgtscale="10"
       tgtlength="3.1"
       tgtlength_rdm="0.3;1" />
    <inkscape:path-effect
       effect="sketch"
       id="path-effect4718"
       is_visible="true"
       nbiter_approxstrokes="6"
       strokelength="36"
       strokelength_rdm="0;1"
       strokeoverlap="0"
       strokeoverlap_rdm="0;1"
       ends_tolerance="0;1"
       parallel_offset="0.2;1"
       tremble_size="0.3;1"
       tremble_frequency="1"
       nbtangents="6"
       tgt_places_rdmness="1;1"
       tgtscale="5"
       tgtlength="3"
       tgtlength_rdm="0.3;1" />
    <inkscape:path-effect
       tgtlength_rdm="0.3;1"
       tgtlength="1"
       tgtscale="10"
       tgt_places_rdmness="1;1"
       nbtangents="5"
       tremble_frequency="2.5"
       tremble_size="1.4;578064669"
       parallel_offset="1.8;3984327984"
       ends_tolerance="0.1;1"
       strokeoverlap_rdm="0;1"
       strokeoverlap="0.1"
       strokelength_rdm="0;1"
       strokelength="64"
       nbiter_approxstrokes="5"
       is_visible="true"
       id="path-effect4688"
       effect="sketch" />
    <inkscape:path-effect
       effect="sketch"
       id="path-effect4686"
       is_visible="true"
       nbiter_approxstrokes="5"
       strokelength="64"
       strokelength_rdm="0;1"
       strokeoverlap="0.1"
       strokeoverlap_rdm="0;3558138778"
       ends_tolerance="0.1;3809433546"
       parallel_offset="1.7;425018534"
       tremble_size="1.9;3924171588"
       tremble_frequency="2.5"
       nbtangents="5"
       tgt_places_rdmness="1;1"
       tgtscale="10"
       tgtlength="1"
       tgtlength_rdm="0.3;1" />
    <inkscape:path-effect
       tgtlength_rdm="0.3;1"
       tgtlength="1"
       tgtscale="10"
       tgt_places_rdmness="1;1"
       nbtangents="5"
       tremble_frequency="2.5"
       tremble_size="1.6;3085800891"
       parallel_offset="1.7;685290624"
       ends_tolerance="0.1;3795377318"
       strokeoverlap_rdm="0;1"
       strokeoverlap="0.1"
       strokelength_rdm="0;1"
       strokelength="64"
       nbiter_approxstrokes="5"
       is_visible="true"
       id="path-effect4684"
       effect="sketch" />
    <inkscape:path-effect
       effect="sketch"
       id="path-effect4653"
       is_visible="true"
       nbiter_approxstrokes="5"
       strokelength="64"
       strokelength_rdm="0;1"
       strokeoverlap="0.1"
       strokeoverlap_rdm="0;1"
       ends_tolerance="0.1;1396551781"
       parallel_offset="1.7;2447244489"
       tremble_size="1.6;3085800891"
       tremble_frequency="2.5"
       nbtangents="5"
       tgt_places_rdmness="1;1"
       tgtscale="10"
       tgtlength="1"
       tgtlength_rdm="0.3;1" />
    <inkscape:path-effect
       tgtlength_rdm="0.3;1"
       tgtlength="1"
       tgtscale="10"
       tgt_places_rdmness="1;1"
       nbtangents="5"
       tremble_frequency="2.5"
       tremble_size="1.9;3924171588"
       parallel_offset="1.7;425018534"
       ends_tolerance="0.1;3809433546"
       strokeoverlap_rdm="0;3558138778"
       strokeoverlap="0.1"
       strokelength_rdm="0;1"
       strokelength="64"
       nbiter_approxstrokes="5"
       is_visible="true"
       id="path-effect4649"
       effect="sketch" />
    <inkscape:path-effect
       effect="sketch"
       id="path-effect4451"
       is_visible="true"
       nbiter_approxstrokes="5"
       strokelength="64"
       strokelength_rdm="0;1"
       strokeoverlap="0.1"
       strokeoverlap_rdm="0;1"
       ends_tolerance="0.1;1"
       parallel_offset="1.8;2530572275"
       tremble_size="1.4;578064669"
       tremble_frequency="2.5"
       nbtangents="5"
       tgt_places_rdmness="1;1"
       tgtscale="10"
       tgtlength="1"
       tgtlength_rdm="0.3;1" />
    <inkscape:path-effect
       effect="sketch"
       id="path-effect4273"
       is_visible="true"
       nbiter_approxstrokes="5"
       strokelength="100"
       strokelength_rdm="0.3;1"
       strokeoverlap="0.3"
       strokeoverlap_rdm="0.3;1"
       ends_tolerance="0.1;1"
       parallel_offset="5;1"
       tremble_size="5;1"
       tremble_frequency="1"
       nbtangents="5"
       tgt_places_rdmness="1;1"
       tgtscale="10"
       tgtlength="100"
       tgtlength_rdm="0.3;1" />
    <inkscape:path-effect
       tgtlength_rdm="0.3;1"
       tgtlength="4"
       tgtscale="10"
       tgt_places_rdmness="1;1"
       nbtangents="5"
       tremble_frequency="2.5"
       tremble_size="3.7;1"
       parallel_offset="3.3;1"
       ends_tolerance="0.1;1"
       strokeoverlap_rdm="0.3;1"
       strokeoverlap="0"
       strokelength_rdm="0;1"
       strokelength="70"
       nbiter_approxstrokes="8"
       is_visible="true"
       id="path-effect4271"
       effect="sketch" />
    <inkscape:path-effect
       effect="sketch"
       id="path-effect4267"
       is_visible="true"
       nbiter_approxstrokes="7"
       strokelength="70"
       strokelength_rdm="0;1"
       strokeoverlap="0"
       strokeoverlap_rdm="0.3;1"
       ends_tolerance="0.1;1"
       parallel_offset="2.9;1"
       tremble_size="2.6;1"
       tremble_frequency="1"
       nbtangents="5"
       tgt_places_rdmness="1;1"
       tgtscale="10"
       tgtlength="4"
       tgtlength_rdm="0.3;1" />
    <inkscape:path-effect
       effect="sketch"
       id="path-effect4264"
       is_visible="true"
       nbiter_approxstrokes="7"
       strokelength="100"
       strokelength_rdm="0;1"
       strokeoverlap="0.1"
       strokeoverlap_rdm="0.1;1"
       ends_tolerance="0.1;1"
       parallel_offset="3.1;11672949"
       tremble_size="3;1"
       tremble_frequency="2"
       nbtangents="5"
       tgt_places_rdmness="1;1"
       tgtscale="10"
       tgtlength="4"
       tgtlength_rdm="0.3;1" />
    <marker
       inkscape:stockid="Arrow2Mend"
       orient="auto"
       refY="0.0"
       refX="0.0"
       id="Arrow2Mend"
       style="overflow:visible;">
      <path
         id="path3849"
         style="fill-rule:evenodd;stroke-width:0.62500000;stroke-linejoin:round;"
         d="M 8.7185878,4.0337352 L -2.2072895,0.016013256 L 8.7185884,-4.0017078 C 6.9730900,-1.6296469 6.9831476,1.6157441 8.7185878,4.0337352 z "
         transform="scale(0.6) rotate(180) translate(0,0)" />
    </marker>
    <marker
       inkscape:stockid="Arrow2Mend"
       orient="auto"
       refY="0"
       refX="0"
       id="Arrow2Mend-1"
       style="overflow:visible">
      <path
         inkscape:connector-curvature="0"
         id="path3849-9"
         style="fill-rule:evenodd;stroke-width:0.625;stroke-linejoin:round"
         d="M 8.7185878,4.0337352 -2.2072895,0.01601326 8.7185884,-4.0017078 c -1.7454984,2.3720609 -1.7354408,5.6174519 -6e-7,8.035443 z"
         transform="scale(-0.6,-0.6)" />
    </marker>
    <marker
       inkscape:stockid="Arrow2Mend"
       orient="auto"
       refY="0"
       refX="0"
       id="marker4480"
       style="overflow:visible">
      <path
         inkscape:connector-curvature="0"
         id="path4482"
         style="fill-rule:evenodd;stroke-width:0.625;stroke-linejoin:round"
         d="M 8.7185878,4.0337352 -2.2072895,0.01601326 8.7185884,-4.0017078 c -1.7454984,2.3720609 -1.7354408,5.6174519 -6e-7,8.035443 z"
         transform="scale(-0.6,-0.6)" />
    </marker>
    <marker
       inkscape:stockid="Arrow2Mend"
       orient="auto"
       refY="0"
       refX="0"
       id="marker4484"
       style="overflow:visible">
      <path
         inkscape:connector-curvature="0"
         id="path4486"
         style="fill-rule:evenodd;stroke-width:0.625;stroke-linejoin:round"
         d="M 8.7185878,4.0337352 -2.2072895,0.01601326 8.7185884,-4.0017078 c -1.7454984,2.3720609 -1.7354408,5.6174519 -6e-7,8.035443 z"
         transform="scale(-0.6,-0.6)" />
    </marker>
    <marker
       inkscape:stockid="Arrow2Mend"
       orient="auto"
       refY="0"
       refX="0"
       id="marker4488"
       style="overflow:visible">
      <path
         inkscape:connector-curvature="0"
         id="path4490"
         style="fill-rule:evenodd;stroke-width:0.625;stroke-linejoin:round"
         d="M 8.7185878,4.0337352 -2.2072895,0.01601326 8.7185884,-4.0017078 c -1.7454984,2.3720609 -1.7354408,5.6174519 -6e-7,8.035443 z"
         transform="scale(-0.6,-0.6)" />
    </marker>
    <marker
       inkscape:stockid="Arrow2Mend"
       orient="auto"
       refY="0"
       refX="0"
       id="marker4492"
       style="overflow:visible">
      <path
         inkscape:connector-curvature="0"
         id="path4494"
         style="fill-rule:evenodd;stroke-width:0.625;stroke-linejoin:round"
         d="M 8.7185878,4.0337352 -2.2072895,0.01601326 8.7185884,-4.0017078 c -1.7454984,2.3720609 -1.7354408,5.6174519 -6e-7,8.035443 z"
         transform="scale(-0.6,-0.6)" />
    </marker>
    <marker
       inkscape:stockid="Arrow2Mend"
       orient="auto"
       refY="0"
       refX="0"
       id="marker4496"
       style="overflow:visible">
      <path
         inkscape:connector-curvature="0"
         id="path4498"
         style="fill-rule:evenodd;stroke-width:0.625;stroke-linejoin:round"
         d="M 8.7185878,4.0337352 -2.2072895,0.01601326 8.7185884,-4.0017078 c -1.7454984,2.3720609 -1.7354408,5.6174519 -6e-7,8.035443 z"
         transform="scale(-0.6,-0.6)" />
    </marker>
    <inkscape:path-effect
       effect="sketch"
       id="path-effect4718-3"
       is_visible="true"
       nbiter_approxstrokes="6"
       strokelength="36"
       strokelength_rdm="0;1"
       strokeoverlap="0"
       strokeoverlap_rdm="0;1"
       ends_tolerance="0;1"
       parallel_offset="0.2;1"
       tremble_size="0.3;1"
       tremble_frequency="1"
       nbtangents="6"
       tgt_places_rdmness="1;1"
       tgtscale="5"
       tgtlength="3"
       tgtlength_rdm="0.3;1" />
    <inkscape:path-effect
       effect="sketch"
       id="path-effect4760-6"
       is_visible="true"
       nbiter_approxstrokes="6"
       strokelength="40"
       strokelength_rdm="0.3;1"
       strokeoverlap="0.3"
       strokeoverlap_rdm="0.3;1"
       ends_tolerance="0;1"
       parallel_offset="0.4;1"
       tremble_size="0.1;1"
       tremble_frequency="1"
       nbtangents="5"
       tgt_places_rdmness="1;1"
       tgtscale="10"
       tgtlength="3"
       tgtlength_rdm="0.3;1" />
  </defs>
  <sodipodi:namedview
     id="base"
     pagecolor="#ffffff"
     bordercolor="#666666"
     borderopacity="1.0"
     inkscape:pageopacity="0.0"
     inkscape:pageshadow="2"
     inkscape:zoom="1.352444"
     inkscape:cx="222.34258"
     inkscape:cy="397.78052"
     inkscape:document-units="px"
     inkscape:current-layer="layer1"
     showgrid="false"
     inkscape:window-width="2556"
     inkscape:window-height="1564"
     inkscape:window-x="0"
     inkscape:window-y="16"
     inkscape:window-maximized="0" />
  <metadata
     id="metadata7">
    <rdf:RDF>
      <cc:Work
         rdf:about="">
        <dc:format>image/svg+xml</dc:format>
        <dc:type
           rdf:resource="http://purl.org/dc/dcmitype/StillImage" />
        <dc:title></dc:title>
      </cc:Work>
    </rdf:RDF>
  </metadata>
  <g
     inkscape:label="Layer 1"
     inkscape:groupmode="layer"
     id="layer1"
     transform="translate(0,-308.2677)">
    <path
       style="fill:none;stroke:#000000;stroke-width:1.29999995;stroke-linecap:butt;stroke-linejoin:miter;stroke-miterlimit:4;stroke-opacity:1;stroke-dasharray:31.2, 31.2;stroke-dashoffset:0"
       d="m 204.57697,333.34435 c 0.88182,15.99214 -0.28408,33.3291 -0.86771,49.96697 -0.58375,16.6412 -0.49617,32.82997 -1.47656,48.5 0,0 0,0 -1e-5,0 -1.9e-4,0.003 -3.9e-4,0.006 -5.8e-4,0.009 m 0.0587,-12.18086 c -0.86625,16.31959 0.17943,32.481 0.56302,47.4824 0,0 0,0 0,0 0.38367,15.0044 0.32945,33.82442 0.96094,51.45312 0,0 0,0 0,0 1.2e-4,0.004 2.5e-4,0.007 3.8e-4,0.0106 m -4.17809,-9.80322 c -0.60043,16.17145 1.32785,32.84247 4.00817,48.51374 10e-6,0 10e-6,0 10e-6,0 2.68085,15.6744 -1.1625,34.69833 -3.46876,54.07812 -4.6e-4,0.004 -9.2e-4,0.008 -0.001,0.0116 m 1.47838,-11.45709 c -0.58495,16.67102 1.02075,33.04014 3.04722,49.12281 0,0 0,0 0,0 2.02688,16.08588 0.19157,33.87825 0.5625,51.64061 0,1e-5 0,1e-5 0,1e-5 8e-5,0.004 1.5e-4,0.007 2.3e-4,0.0107 m 1.65947,-4.94106 c 0.53841,17.03764 -0.29786,32.52932 -0.86751,47.57571 0,0 0,10e-6 0,10e-6 -0.56977,15.0494 -0.32429,32.70973 -0.96094,48.10155 0,0 0,0 0,0 -1.2e-4,0.003 -2.5e-4,0.006 -3.8e-4,0.009 m -2.53731,-4.64281 c 0.9834,16.95205 0.024,33.17799 0.0463,49.52108 0,0 0,0 0,0 0.0223,16.34635 -0.9436,32.487 -2.85938,47.4453 0,0 0,10e-6 0,10e-6 -3.8e-4,0.003 -7.6e-4,0.006 -0.001,0.009 m 2.50942,-12.9887 c 0.75736,16.85142 0.75488,35.26582 2.27298,55.82582 1.12338,15.21414 0.80207,25.18425 0.89144,34.63163 m -4.48151,-628.67684 c -0.37439,17.09247 0.58757,33.02395 1.75804,49.09912 0,0 0,0 0,0 1.1707,16.07838 -0.78226,33.30333 -2.32031,49.92968 0,0 0,0 0,0 -3.1e-4,0.003 -6.2e-4,0.007 -9.2e-4,0.01 m 1.41632,-6.59271 c -0.37447,17.05371 0.40273,33.68228 1.19554,51.04445 0,0 0,10e-6 0,10e-6 0.79297,17.36565 0.0272,32.0359 0.0937,46.08593 0,0 0,0 0,0 1e-5,0.003 2e-5,0.006 4e-5,0.008 m -0.2755,-9.37982 c -0.7577,16.421 -1.60847,32.3751 -4.82767,47.13077 0,0 0,0 0,0 -3.21984,14.75862 1.17078,32.79974 3.53906,48.40625 4.8e-4,0.003 9.5e-4,0.006 0.001,0.009 m 3.52652,-6.05711 c -0.3124,16.77323 -0.54425,34.91865 -1.64044,54.77118 0,10e-6 0,10e-6 0,10e-6 -1.0964,19.8565 -0.16359,32.64332 -0.49218,47.91405 0,0 0,0 0,10e-6 -7e-5,0.003 -1.4e-4,0.006 -2e-4,0.009 m -1.27063,-10.9354 c -0.85886,17.45984 -0.85084,34.40904 -2.55417,53.24733 0,0 0,0 0,10e-6 -1.70368,18.84205 0.0298,31.52512 0.0703,44.58593 1e-5,0.003 1e-5,0.005 2e-5,0.008 m 2.34163,-5.70566 c 0.40597,16.66267 0.31824,31.6549 0.93726,44.95094 0.61914,13.2987 -0.21821,34.80958 -0.67969,54.45312 0,0 0,10e-6 0,10e-6 -9e-5,0.004 -1.9e-4,0.008 -2.8e-4,0.0118 m -0.37663,-7.64445 c -0.56964,17.1706 0.26135,33.21053 0.77378,49.66157 0.44775,14.37433 0.32339,28.95151 0.66369,43.32771 m 3.40071,-640.02841 c -0.74162,17.04567 -0.44411,33.09884 -1.33549,49.28664 -0.89156,16.19104 -1.06258,33.642 -3.1875,50.91406 0,0 0,0 0,0 -4.3e-4,0.003 -8.5e-4,0.007 -0.001,0.0104 m -3.06148,-18.62732 c -0.43691,16.01581 0.38689,33.99803 1.1487,52.00602 0,0 0,0 0,0 0.76195,18.01158 0.38023,34.13911 1.14843,52.39062 0,0 0,0 0,0 1.6e-4,0.004 3.1e-4,0.007 4.6e-4,0.0109 m 1.75201,-7.87897 c 0.2107,16.83511 -0.0782,33.5064 -0.21106,50.52896 0,0 0,0 0,0 -0.13289,17.02597 -0.66008,32.89568 -1.99219,48.6875 -2.6e-4,0.003 -5.3e-4,0.006 -8e-4,0.009 m -1.14001,-13.42148 c -0.31997,16.4449 0.0672,33.56073 0.18769,50.7167 0,0 0,0 0,0 0.12055,17.1594 1.31343,33.38966 3.91406,50.16405 0,10e-6 0,10e-6 0,10e-6 5.2e-4,0.003 0.001,0.007 0.002,0.0101 m -1.67982,-5.57719 c -0.21827,17.01455 0.63265,33.33904 1.87514,50.03666 0,0 0,0 0,10e-6 1.24273,16.70095 -0.43039,31.36309 -1.26563,44.11717 0,0 0,10e-6 0,10e-6 -1.7e-4,0.003 -3.3e-4,0.005 -5e-4,0.008 m 4.26882,-7.7962 c 0.57685,16.47583 -1.74168,32.85925 -5.25035,48.6073 0,0 0,0 0,0 -3.50937,15.7512 1.15562,34.49309 3.44531,53.46874 0,0 0,10e-6 0,10e-6 4.6e-4,0.004 9.2e-4,0.008 0.001,0.0114 m -2.79356,-10.33485 c 3.8e-4,16.86669 0.94459,34.41308 2.8125,53.27112 1.56483,15.79816 0.009,28.82064 -1.35893,42.92988 m 4.56954,-633.62658 c -0.54696,17.20176 -1.57592,33.09946 -4.71061,49.33342 0,0 0,0 0,0 -3.13531,16.23721 0.97875,34.2074 2.95313,52.64843 0,10e-6 0,10e-6 0,10e-6 3.9e-4,0.004 7.9e-4,0.007 0.001,0.0111 m 1.19953,-9.91303 c -0.10943,17.55277 -0.42244,32.55973 -1.24212,47.66916 0,0 0,0 0,0 -0.81984,15.11245 -0.3068,33.2688 -0.9375,49.83593 0,0 0,0 0,1e-5 -1.2e-4,0.003 -2.5e-4,0.007 -3.8e-4,0.01 m -1.47982,-10.07126 c 0.44459,17.59265 -0.70445,34.7394 -2.10964,54.20819 0,0 0,0 0,10e-6 -1.40547,19.47268 0.81679,32.69934 2.4375,48.07811 3.2e-4,0.003 6.5e-4,0.006 9.7e-4,0.009 m 1.78497,-11.42637 c 0.007,15.68761 -0.79142,32.99493 -2.39063,49.00621 0,0 0,0 0,0 -1.59953,16.01448 1.12117,33.33239 3.35156,50.02343 0,0 0,0 0,1e-5 4.5e-4,0.003 9e-4,0.007 0.001,0.01 m -8.56849,-13.20451 c 0.0631,16.99159 1.75191,34.45459 5.22653,53.38825 0,0 0,0 0,0 3.47531,18.93744 -0.87164,32.23004 -2.60156,46.67187 0,0 0,0 0,0 -3.5e-4,0.003 -7e-4,0.006 -0.001,0.009 m -0.68364,-9.70718 c 0.80409,16.8043 0.51808,34.54261 1.54639,53.62273 1.02852,19.08393 0.29766,32.32544 0.86719,46.99999 0,10e-6 0,10e-6 0,10e-6 1.2e-4,0.003 2.3e-4,0.006 3.4e-4,0.009 m 0.0937,-3.89246 c -0.76509,16.81134 -0.5928,32.62597 -1.78079,47.88053 -0.86702,11.13323 -0.0215,23.87557 1.15607,36.57452 M 201.11554,322.3134 c 0.0622,16.4915 -0.52923,32.99235 -1.59378,49.00573 0,0 0,1e-5 0,1e-5 -1.06477,16.01658 -0.29727,33.68122 -0.86719,51.03124 -1.1e-4,0.003 -2.3e-4,0.007 -3.4e-4,0.0104 m 3.51332,-6.71268 c -0.50686,15.74262 1.1249,33.93692 3.39874,51.84212 0,0 0,0 0,0 2.27429,17.90877 0.29734,32.7202 0.89062,48.17187 0,0 0,0 0,0 1.2e-4,0.003 2.4e-4,0.006 3.6e-4,0.009 m -8.82182,-9.27258 c 0.67955,16.87383 1.35803,32.74795 4.10115,48.2555 0,0 0,0 0,0 2.74367,15.51065 -0.71172,32.65693 -2.10937,47.98437 -2.8e-4,0.003 -5.6e-4,0.006 -8.4e-4,0.009 m 1.20972,-1.64138 c 0.48386,16.67085 -0.0774,32.61575 -0.23467,47.85718 0,10e-6 0,10e-6 0,10e-6 -0.15726,15.24447 0.20751,32.91895 0.63282,48.78124 0,0 0,0 0,0 8e-5,0.003 1.7e-4,0.006 2.5e-4,0.01 m 1.47911,-16.40269 c -0.53851,16.57753 0.0244,33.457 0.0706,50.38849 0,0 0,0 0,0 0.0463,16.93487 0.28023,34.47809 0.86718,53.42187 0,0 0,0 0,0 1.2e-4,0.004 2.4e-4,0.008 3.6e-4,0.0114 m -2.50204,-8.75054 c -0.20233,16.74954 1.48643,34.19596 4.47668,52.61495 1e-5,0 1e-5,1e-5 1e-5,1e-5 2.99085,18.42267 -0.11883,33.59895 -0.35157,50.8203 0,0 0,0 0,0 -4e-5,0.003 -9e-5,0.007 -1.4e-4,0.0103 m -2.40805,-12.22037 c 0.66295,15.82055 -1.11178,33.65222 -3.30509,50.97488 0,0 0,0 0,0 -2.19375,17.32612 0.39687,33.15372 1.17188,49.43749 0,1e-5 0,1e-5 0,1e-5 1.5e-4,0.003 3.1e-4,0.007 4.6e-4,0.01 m -3.83226,-644.00357 c 0.39803,16.85067 -0.0315,33.37604 -0.094,50.15395 -0.0625,16.78128 1.42329,33.59318 4.28907,50.77344 0,0 0,0 0,0 5.7e-4,0.003 0.001,0.007 0.002,0.0103 m -1.40384,-8.63963 c -0.92054,16.22615 1.03394,33.04345 3.09431,49.12307 0,0 0,0 0,0 2.06078,16.08284 -0.49211,34.9213 -1.47657,54.78125 0,0 0,0 0,0 -1.9e-4,0.004 -3.9e-4,0.008 -5.9e-4,0.0119 m 1.19642,-10.75603 c -0.44529,17.61545 -1.05609,33.19409 -3.14036,49.59099 0,0 0,0 0,0 -2.08469,16.40018 1.28758,32.66865 3.84375,48.03125 5.1e-4,0.003 0.001,0.006 0.002,0.009 m -3.28406,-7.44327 c -0.82719,16.16337 0.25053,32.18487 0.77394,46.56842 0,0 0,10e-6 0,10e-6 0.52351,14.38643 -0.0482,33.58793 -0.16406,50.74999 0,0 0,0 -1e-5,0 -2e-5,0.003 -4e-5,0.007 -6e-5,0.0103 m 1.08764,-9.94929 c 0.13324,17.04579 1.3965,33.39279 4.19524,50.17727 0,1e-5 0,1e-5 0,1e-5 2.79929,16.78783 -1.08703,33.22254 -3.23438,49.64843 0,0 0,0 0,0 -4.3e-4,0.003 -8.6e-4,0.007 -0.001,0.01 m 3.65432,-9.76 c -0.1565,16.68645 -1.02258,32.58073 -3.09365,47.76342 0,0 0,10e-6 0,10e-6 -2.07148,15.18572 -0.54625,33.43356 -1.64063,50.32811 0,0 0,10e-6 0,10e-6 -2.2e-4,0.003 -4.4e-4,0.007 -6.5e-4,0.0101 m 3.26676,-9.85817 c -0.49153,16.28128 0.39561,34.28564 1.17217,52.87304 0,0 0,0 0,0 0.77672,18.59112 -0.26351,32.39591 -0.82031,47.21093 0,0 0,0 0,1e-5 -1.1e-4,0.003 -2.2e-4,0.006 -3.3e-4,0.009 m -3.61892,-634.62581 c -0.82742,17.36528 -0.32651,32.13115 -0.98387,46.38021 0,0 0,0 0,0 -0.6575,14.2519 -0.008,33.96458 -0.0234,51.89843 0,0.004 -10e-6,0.007 -10e-6,0.0108 m -1.13802,-12.16582 c 0.4141,16.28851 1.13904,32.84795 3.44506,48.56053 0,0 0,0 0,0 2.30648,15.71573 -1.21586,33.04208 -3.63281,49.10937 0,0 0,10e-6 0,10e-6 -4.9e-4,0.003 -9.7e-4,0.006 -0.001,0.01 m 1.04591,-2.78828 c -0.10881,16.06236 1.13615,33.31444 3.42194,49.96692 2.28625,16.6558 -0.54874,33.22567 -1.61718,49.67187 0,0 0,0 0,0 -2.2e-4,0.003 -4.3e-4,0.007 -6.4e-4,0.01 m 2.81478,-11.89403 c 0.14002,17.27221 -1.15921,33.61266 -3.46883,50.83338 0,0 0,10e-6 0,10e-6 -2.31008,17.22416 0.33523,34.47879 1.00781,53.4453 0,0 0,0 0,10e-6 1.4e-4,0.004 2.7e-4,0.008 4e-4,0.0114 m -1.834,-14.21711 c -0.007,16.47589 1.08631,33.01087 3.28126,49.02917 0,0 0,10e-6 0,10e-6 2.19539,16.02151 -1.0007,32.67028 -2.97656,47.98436 0,0 0,10e-6 -1e-5,10e-6 -3.9e-4,0.003 -7.9e-4,0.006 -0.001,0.009 m 2.48668,-5.10342 c -0.7411,17.42807 0.86485,33.01037 2.602,49.0286 1e-5,0 1e-5,10e-6 1e-5,10e-6 1.73749,16.02143 0.49546,31.71474 1.47656,45.17187 1.9e-4,0.003 3.9e-4,0.005 5.9e-4,0.008 m -4.05424,-4.57661 c 0.43713,17.27183 0.1668,32.66001 0.51537,48.02088 0.30906,13.61982 -0.35111,29.24305 -1.25812,44.15004 m -0.0645,-222.54416 0,6.43437 m 0,180.88223 0,5.74062 m 0,-66.49195 0,5.96562 m 0,-448.94407 0,7.60625 m 0,215.14863 0,6.78125"
       id="path4652"
       inkscape:connector-curvature="0"
       inkscape:path-effect="#path-effect4264"
       inkscape:original-d="m 202.54832,322.07122 0,646.81419"
       sodipodi:nodetypes="cc" />
    <path
       style="fill:none;stroke:#000000;stroke-width:1;stroke-linecap:butt;stroke-miterlimit:4;stroke-opacity:1;stroke-dasharray:none;stroke-dashoffset:0"
       d="m 17.477076,660.70156 c 24.094488,-0.58188 46.416041,0.006 69.23811,-0.0201 0.0033,-10e-6 0.0065,-10e-6 0.0098,-10e-6 m 1.33644,-5.26032 c 23.992842,-0.38571 45.856572,-0.18695 67.613152,-0.54827 0.003,-5e-5 0.006,-10e-5 0.009,-1.5e-4 m -0.64977,2.66603 c 24.12171,0.58196 46.97305,0.31304 70.96466,0.93412 0.003,9e-5 0.007,1.8e-4 0.0103,2.7e-4 m 4.12126,-1.17341 c 22.55162,0.6837 45.65023,1.18513 66.98408,3.53408 0.003,3.4e-4 0.006,6.7e-4 0.009,0.001 m -5.26421,-7.09866 c 13.55502,0.004 27.78043,-0.084 42.3538,-0.26177 0.4903,9.35221 1.14326,18.66245 1.85582,27.93143 2.5e-4,0.003 5e-4,0.007 7.5e-4,0.01 m 0.0971,4.42662 c 0.50105,22.95113 1.30005,46.74608 3.87947,70.23391 3.7e-4,0.003 7.4e-4,0.007 0.001,0.0101 m -1.85751,-0.5427 c -0.21895,15.31809 0.0953,30.27142 0.67022,45.48213 -8.18824,0.22984 -16.29029,0.54483 -24.358,1.06335 -0.003,2e-4 -0.006,4e-4 -0.009,6e-4 m 0.19278,-2.37453 c -22.55215,0.67639 -47.47482,-0.73205 -72.46846,-2.21436 -0.004,-2.1e-4 -0.007,-4.2e-4 -0.0107,-6.3e-4 m -5.13807,-3.29461 c -22.67351,0.16286 -46.00632,1.679 -68.01997,5.05774 -0.003,4.9e-4 -0.006,9.7e-4 -0.009,0.001 m 1.80477,1.06981 c -23.65462,0.37205 -46.15045,-0.2643 -68.46642,-0.77204 -0.003,-7e-5 -0.006,-1.4e-4 -0.01,-2.2e-4 m -3.618528,-3.00035 c -23.62074,0.48731 -45.966921,0.53967 -67.897688,1.60448 -0.0031,1.5e-4 -0.0063,3e-4 -0.0094,4.6e-4 m 1.071124,-2.75019 c -6.959631,0.18493 -13.897579,0.27569 -20.840698,0.31976 -0.208854,-16.36792 -0.447568,-33.00543 -1.0886802,-49.25394 -1.298e-4,-0.003 -2.595e-4,-0.007 -3.891e-4,-0.01 m -2.255039,5.78274 c 0.095013,-23.17451 1.0116252,-47.12352 3.0671473,-71.37132 2.93e-4,-0.003 5.87e-4,-0.007 8.8e-4,-0.0104 m 0.632597,-0.92535 c -0.09066,-7.7792 -0.173371,-15.42517 -0.278993,-22.92693 15.309107,0.61449 30.527791,1.79825 45.414102,3.63751 0.0032,4e-4 0.0064,7.9e-4 0.0096,0.001 m -40.233763,-8.81483 c 22.829447,-0.8524 47.1169,0.40305 71.391777,1.17849 0.0035,1.1e-4 0.0069,2.3e-4 0.0104,3.4e-4 m -1.768138,1.28 c 23.878181,-0.304 47.129311,1.62299 71.411641,4.87513 0.003,4.7e-4 0.007,9.3e-4 0.0104,0.001 m 0.27715,-6.68311 c 23.8374,0.74462 46.47372,1.27645 69.40072,3.85906 0.003,3.7e-4 0.007,7.3e-4 0.01,0.001 m 0.30465,0.47877 c 22.83614,0.43976 46.88729,-0.10245 70.66052,-0.28456 0.003,-3e-5 0.007,-5e-5 0.0102,-8e-5 m 4.64563,-0.6904 c 12.81854,0.18729 25.92477,0.10074 38.97013,-0.0848 -0.10503,10.00538 -0.24612,19.9521 -0.58233,29.91993 -1.1e-4,0.003 -2.2e-4,0.007 -3.4e-4,0.01 m -5.58566,2.23322 c -0.12876,23.87119 -0.75036,46.34697 -2.23432,69.0757 -2.1e-4,0.003 -4.2e-4,0.006 -6.3e-4,0.01 m 3.35054,-0.28145 c -0.1352,14.60404 0.10095,28.71604 0.55743,42.84656 -8.89652,-0.004 -17.69985,-9e-5 -26.45152,0.15205 -0.003,6e-5 -0.006,1.1e-4 -0.01,1.7e-4 m 3.0086,1.96077 c -23.99999,0.007 -47.23046,-0.37947 -71.71627,-1.1375 -0.004,-1.1e-4 -0.007,-2.2e-4 -0.0105,-3.3e-4 m -1.19337,-4.22241 c -23.60739,-0.18939 -46.60019,0.19969 -69.82738,0.62977 -0.003,6e-5 -0.007,1.2e-4 -0.01,1.8e-4 m -2.03021,2.60891 c -22.62671,-0.66298 -47.96338,0.30264 -73.8903,0.89403 -0.0037,9e-5 -0.0074,1.7e-4 -0.01111,2.6e-4 m 0.30236,-5.55685 c -24.067484,-0.80513 -46.623587,0.0858 -69.847497,0.28472 -0.0033,3e-5 -0.0066,6e-5 -0.01,8e-5 m 0.190146,2.51374 c -5.966509,-0.14693 -11.976566,-0.1453 -17.9853415,-0.0263 0.4797471,-16.81824 0.9693521,-32.73347 2.4257765,-48.41203 2.83e-4,-0.003 5.66e-4,-0.006 8.49e-4,-0.009 m -0.6375674,-2.32969 c 2.342e-4,-23.15381 0.8203704,-45.72058 2.4375004,-67.14632 2.31e-4,-0.003 4.62e-4,-0.006 6.92e-4,-0.009 m -1.014958,-1.08812 c -0.144998,-6.99377 -0.329267,-14.0936 -0.592923,-21.25853 15.595179,-0.0643 30.781614,-0.46388 45.090619,-0.72012 0.0029,-5e-5 0.0059,-10e-5 0.0088,-1.5e-4 m -35.532104,2.15483 c 23.113491,-0.0338 46.672285,0.011 70.030718,10e-6 0.0033,0 0.0067,0 0.01001,0 m -3.384175,-3.89802 c 23.824003,-0.85259 46.960503,-0.26667 70.924163,-0.79182 0.003,-8e-5 0.007,-1.5e-4 0.0103,-2.3e-4 m -2.50967,6.20438 c 23.26254,0.56142 47.36971,-0.54739 72.10252,-1.66587 0.004,-1.6e-4 0.007,-3.2e-4 0.0106,-4.8e-4 m 3.76893,-3.12801 c 23.33657,-0.84583 45.97633,-0.28912 67.91812,-0.85276 0.003,-8e-5 0.006,-1.6e-4 0.009,-2.4e-4 m 3.01621,1.20721 c 13.39639,-0.0816 26.2928,-0.12847 38.68492,-0.22358 -0.7472,9.85899 -1.77127,19.69147 -3.07395,29.46362 -4.4e-4,0.003 -8.8e-4,0.007 -0.001,0.01 m 2.4574,-0.41446 c -0.38563,23.85775 0.11047,46.65756 0.34548,70.01009 3e-5,0.003 7e-5,0.007 10e-5,0.01 m -0.47109,-0.0788 c 0.14576,14.60085 0.21101,28.56762 0.35387,42.18621 -8.88531,-0.46062 -17.74029,-1.05732 -26.52629,-1.72025 -0.003,-2.5e-4 -0.007,-5e-4 -0.01,-7.4e-4 m -3.77237,8.57267 c -23.99321,0.12838 -47.17367,-0.60661 -71.53346,-1.82818 -0.003,-1.8e-4 -0.007,-3.5e-4 -0.0104,-5.3e-4 m 2.92468,-3.84954 c -23.276,-0.14893 -47.11777,-0.29203 -71.37127,-0.85306 -0.003,-8e-5 -0.007,-1.6e-4 -0.0104,-2.4e-4 m -2.07787,6.83566 c -23.66833,0.61545 -46.76773,-0.89213 -70.294546,-2.64089 -0.0034,-2.5e-4 -0.0067,-5e-4 -0.01008,-7.5e-4 m 8.02198,-0.29626 c -23.28985,-0.32452 -48.209728,0.88273 -74.641584,2.66108 -0.0038,2.5e-4 -0.0076,5e-4 -0.01133,7.6e-4 m 2.013484,-6.7078 c -6.621406,-0.006 -13.168238,-0.0524 -19.689728,-0.1413 -0.320106,-17.16463 -0.462908,-34.62374 -1.339456,-52.39417 -1.72e-4,-0.004 -3.45e-4,-0.007 -5.17e-4,-0.0105 m 1.194447,8.52628 c 0.419473,-23.32341 -0.06665,-47.27594 -0.203305,-71.83844 -1.9e-5,-0.004 -3.9e-5,-0.007 -5.8e-5,-0.0105 m 2.762198,-2.70636 c -0.264616,-7.24657 -0.481489,-14.61703 -0.728888,-22.07883 15.43737,-0.23128 30.730751,-0.89339 45.078304,-1.65288 0.003,-1.6e-4 0.006,-3.2e-4 0.009,-4.8e-4 m -46.516078,5.07876 c 22.565563,0.3587 47.082956,0.37941 71.290328,1.15765 0.0035,1.1e-4 0.0069,2.3e-4 0.01038,3.4e-4 m 1.593133,-1.13259 c 22.768391,-0.52092 46.556621,0.2276 69.685551,0.71116 0.003,7e-5 0.007,1.4e-4 0.01,2.1e-4 m -2.56998,-0.21302 c 23.90483,-0.73065 45.69319,0.2808 67.12569,0.85343 0.003,9e-5 0.006,1.7e-4 0.009,2.5e-4 m 3.49369,-3.2371 c 23.11307,-0.31814 45.17502,-0.47841 65.52135,-1.44205 0.003,-1.4e-4 0.006,-2.8e-4 0.009,-4.1e-4 m 3.02526,1.51533 c 14.63881,0.11301 29.37955,-0.0495 43.7721,-0.35523 -0.33516,8.16449 -0.77788,16.28472 -1.40544,24.38341 -2.5e-4,0.003 -5e-4,0.006 -7.5e-4,0.01 m 2.8516,-2.03076 c 0.14873,23.82431 -0.42665,48.03428 -1.27975,74.13354 -1.2e-4,0.004 -2.5e-4,0.007 -3.7e-4,0.0112 m -0.067,-0.51099 c -0.26385,16.51475 -0.59629,32.20437 -1.35644,47.85945 -7.73126,-0.13665 -15.55406,-0.28069 -23.50398,-0.35384 -0.004,-3e-5 -0.007,-6e-5 -0.0108,-10e-5 m -0.86654,-1.04451 c -23.62759,-0.19611 -46.25698,0.38672 -68.75081,1.17821 -0.003,1.1e-4 -0.006,2.2e-4 -0.01,3.4e-4 m 2.8616,-3.56189 c -22.7685,0.39919 -46.92727,-0.0171 -70.76211,-0.0408 -0.003,0 -0.007,0 -0.0102,-10e-6 m 5.88763,-0.47094 c -23.54002,0.33151 -47.60558,-0.0938 -72.79304,-0.30483 -0.004,-3e-5 -0.007,-6e-5 -0.0108,-9e-5 m 0.49137,0.15166 c -23.465575,0.0201 -47.542831,-0.64767 -72.671195,-1.92969 -0.0036,-1.9e-4 -0.0072,-3.7e-4 -0.01077,-5.5e-4 m -1.211524,8.2423 c -7.830908,0.27819 -15.802432,0.28715 -23.855809,0.12552 -0.1109626,-15.64447 -0.5230037,-31.91642 -0.8215822,-48.11993 -6.5e-5,-0.004 -1.298e-4,-0.007 -1.947e-4,-0.0106 m 0.9622818,-3.838 c 0.8590581,-23.9996 -0.782437,-45.8614 -2.3769309,-67.61315 -2.278e-4,-0.003 -4.556e-4,-0.006 -6.832e-4,-0.009 m 5.8436982,-0.99802 c 0.04153,-8.66737 0.05009,-17.47147 0.04414,-26.287 14.370074,0.21662 28.702693,0.40373 43.074398,1.0809 0.0033,1.5e-4 0.0067,3.1e-4 0.01,4.7e-4 m -42.57989,-0.84593 c 23.688879,-0.32488 47.643551,-0.4157 72.975784,-1.23892 0.0036,-1.2e-4 0.0072,-2.3e-4 0.01086,-3.5e-4 m 0.519492,-0.66618 c 23.41774,-0.29775 45.90683,-0.16309 67.73527,-0.46706 0.003,-5e-5 0.006,-9e-5 0.009,-1.3e-4 m -2.17393,-1.27871 c 22.49115,0.14884 47.14103,-0.0356 71.45286,-0.10163 0.003,-10e-6 0.007,-2e-5 0.0104,-3e-5 m 0.96824,0.51506 c 23.12033,0.43331 46.95044,0.99174 70.86352,2.98575 0.003,2.8e-4 0.007,5.7e-4 0.0103,8.5e-4 m -4.25181,-1.14389 c 14.18954,-0.0988 28.73123,-0.17809 43.62709,-0.35127 0.45212,9.02503 1.05099,18.01113 1.79715,26.92804 2.7e-4,0.003 5.5e-4,0.006 8.2e-4,0.01 m -0.95091,4.12883 c -0.20982,22.59266 -0.28,47.21838 -0.81241,71.63563 -7e-5,0.003 -1.5e-4,0.007 -2.3e-4,0.0105 m 4.64489,-7.73674 c 0.18441,14.63002 -0.10954,30.10971 -0.63928,45.77884 -8.46777,0.28127 -17.00432,0.61781 -25.57144,0.90559 -0.003,1.2e-4 -0.007,2.4e-4 -0.0105,3.5e-4 m 2.40655,1.32587 c -23.72933,-0.7984 -47.12367,-0.0487 -71.39139,-0.14184 -0.003,-2e-5 -0.007,-3e-5 -0.0104,-4e-5 m -1.33189,2.3362 c -23.93891,0.52094 -46.53532,-0.15387 -69.64443,-0.4471 -0.003,-4e-5 -0.007,-8e-5 -0.01,-1.3e-4 m -0.0252,-2.02416 c -23.50587,-0.17546 -46.5027,1.60221 -69.54305,4.77351 -0.003,4.5e-4 -0.007,9e-4 -0.01,0.001 m 0.58294,-4.47277 c -22.747964,-0.72377 -46.08583,0.64178 -68.284003,1.88938 -0.0032,1.8e-4 -0.0063,3.5e-4 -0.0095,5.3e-4 m -3.026611,0.70463 c -7.441735,-0.22109 -14.774867,-0.25294 -22.070111,-0.15811 -0.228379,-15.92383 -0.266103,-31.21021 -0.911417,-46.56534 -1.33e-4,-0.003 -2.66e-4,-0.006 -4e-4,-0.01 m 2.706598,-0.72754 c -0.121939,-22.65385 -0.529389,-48.23351 -1.604635,-74.70279 -1.54e-4,-0.004 -3.07e-4,-0.008 -4.61e-4,-0.0113 m -3.3810126,4.30978 c -0.1818438,-8.27585 -0.095539,-16.40869 0.1933557,-24.4437 15.7199799,0.21106 32.1432419,0.76175 48.8457669,1.35994 0.0037,1.3e-4 0.0073,2.6e-4 0.011,4e-4 m -39.39893,-4.31151 c 23.539873,-0.40601 47.103229,-0.17437 71.28991,-0.52795 0.0035,-5e-5 0.0069,-1e-4 0.01037,-1.5e-4 m 0.916484,3.10022 c 22.544943,0.15537 45.956743,-0.84715 67.877833,-2.53913 0.003,-2.5e-4 0.006,-4.9e-4 0.009,-7.3e-4 m -3.20752,3.5391 c 22.60574,0.2165 45.62718,-0.0368 66.90281,-0.14228 0.003,-2e-5 0.006,-3e-5 0.009,-5e-5 m 3.715,-1.09576 c 23.4519,0.66306 47.07453,-0.0174 71.22901,-0.0409 0.003,0 0.007,-10e-6 0.0104,-10e-6 m -0.8216,-6.27266 c 13.34333,-0.0196 27.22728,0.17394 41.43439,0.55566 0.46988,10.04976 1.10779,20.19739 1.83219,30.43355 2.5e-4,0.003 5e-4,0.007 7.4e-4,0.0105 m -2.75167,2.5733 c -0.35217,24.1079 -1.18189,45.99777 -3.53422,67.99904 -3.4e-4,0.003 -6.8e-4,0.006 -0.001,0.009 m -0.18606,4.17444 c -0.49654,13.99706 -0.33334,28.93491 -0.0869,44.21589 -8.66987,0.46842 -17.30899,1.06361 -26.0468,1.65137 -0.003,2.2e-4 -0.007,4.4e-4 -0.01,6.6e-4 m 4.71288,-4.07597 c -24.04072,-0.7104 -47.69815,0.10132 -73.07719,0.28468 -0.004,3e-5 -0.007,6e-5 -0.0109,8e-5 m 4.66762,-0.12277 c -22.54543,-0.095 -47.67093,-0.8153 -72.99659,-2.41715 -0.004,-2.3e-4 -0.007,-4.6e-4 -0.0108,-6.9e-4 m 1.0402,4.12848 c -22.66035,-0.79188 -47.29982,-0.87635 -71.879347,-2.64029 -0.0035,-2.5e-4 -0.007,-5e-4 -0.01054,-7.6e-4 m -1.365269,3.82611 c -23.749146,0.82501 -45.4472,-1.55595 -66.33357,-4.6316 -0.003,-4.4e-4 -0.006,-8.8e-4 -0.009,-0.001 m -0.290449,0.64352 c -6.777762,0.01 -13.342947,0.048 -19.747723,0.11715 0.385471,-16.59765 1.821291,-32.99447 3.433377,-49.16123 3.2e-4,-0.003 6.4e-4,-0.006 9.6e-4,-0.01 m -6.464462,2.29825 c -0.5142825,-22.91098 -0.2332394,-48.3081 -0.670092,-74.96674 -6.24e-5,-0.004 -1.248e-4,-0.008 -1.872e-4,-0.0114 m 4.9752012,5.59053 c 0.01088,-7.4798 -0.0011,-15.018 -0.03283,-22.60494 15.752902,-0.16152 31.418173,-0.53929 47.024843,-1.04307 0.0033,-1.1e-4 0.0066,-2.2e-4 0.0099,-3.2e-4 m -44.034968,-5.16681 c 22.477482,0.15584 46.653883,0.75617 69.970053,2.27494 0.0033,2.1e-4 0.0067,4.3e-4 0.01,6.5e-4 m 1.859114,-1.46313 c 22.707141,0.0475 45.320231,0.30688 65.988701,0.93435 0.003,9e-5 0.006,1.8e-4 0.009,2.7e-4 m 3.32063,1.31676 c 23.22197,-0.37932 47.4395,-1.48926 72.34629,-4.44828 0.004,-4.2e-4 0.007,-8.4e-4 0.0107,-0.001 m -3.12345,7.54659 c 23.05262,0.02 46.75503,-0.87138 70.25418,-2.64063 0.003,-2.5e-4 0.007,-5.1e-4 0.0101,-7.6e-4 m -1.72347,-0.97348 c 13.45641,-0.0311 27.06353,0.10204 40.86612,0.37073 0.29071,10.11913 0.6884,20.31248 1.21121,30.56849 1.8e-4,0.003 3.5e-4,0.007 5.3e-4,0.0103 m 1.15491,-1.3813 c -0.0607,24.02034 0.51553,47.36523 1.52347,72.08189 1.4e-4,0.004 2.8e-4,0.007 4.3e-4,0.0106 m -2.89541,-1.53356 c 0.48326,14.15231 0.40996,29.1515 0.32482,44.75088 -9.01864,0.77075 -18.0419,1.7753 -26.93731,2.95368 -0.003,4.4e-4 -0.007,8.7e-4 -0.01,0.001 m -2.84609,-5.43549 c -23.13395,0.46006 -47.2143,-0.11136 -71.67602,-0.30488 -0.004,-3e-5 -0.007,-6e-5 -0.0105,-9e-5 m 4.61548,-1.10146 c -22.97126,0.027 -46.18451,-0.0786 -68.56827,-0.22345 -0.003,-2e-5 -0.006,-5e-5 -0.01,-7e-5 m -0.51833,4.41411 c -23.22142,-0.0339 -45.53819,-0.0788 -66.63848,-0.24373 -0.003,-2e-5 -0.006,-5e-5 -0.009,-7e-5 m -1.73018,0.043 c -24.081303,-0.18282 -47.631383,-0.47614 -72.93499,-1.4218 -0.0036,-1.3e-4 -0.0072,-2.7e-4 -0.01084,-4e-4 m 3.417037,-1.64481 c -6.547191,0.0614 -13.06872,0.10621 -19.595432,0.14775 -0.309206,-16.81076 -0.654531,-33.64465 -1.603414,-50.2591 -1.87e-4,-0.003 -3.74e-4,-0.007 -5.61e-4,-0.01 m 1.410769,3.893 c 0.1216,-22.82251 -0.658461,-46.52253 -1.970364,-69.58396 -1.88e-4,-0.003 -3.75e-4,-0.007 -5.62e-4,-0.01 m -4.5540909,1.21914 c 0.025741,-7.56951 0.1581964,-15.05883 0.4048941,-22.52923 16.5003938,-0.22973 33.5377168,-0.37052 51.1886578,-1.04659 0.0037,-1.4e-4 0.0074,-2.8e-4 0.01106,-4.3e-4 m 139.336165,139.72278 -6.43438,0 m -180.019709,-85.03331 0,-5.74063 m 3.016655,90.77394 -5.9656251,0 M 161.3219,656.33384 l 7.60625,0 m 164.50409,142.86454 -6.78125,0"
       id="rect4654"
       inkscape:path-effect="#path-effect4267"
       inkscape:original-d="m 11.234461,656.33384 326.135279,0 0,142.86454 -326.135279,0 z"
       inkscape:connector-curvature="0"
       sodipodi:nodetypes="ccccc" />
    <path
       id="path4269"
       d="m 175.87102,661.5303 112.01097,3.69701 -10.35163,129.93046 -92.78651,0 z"
       style="fill:#fafafa;fill-opacity:1;stroke:none"
       inkscape:connector-curvature="0"
       sodipodi:nodetypes="ccccc" />
    <text
       xml:space="preserve"
       style="font-size:1464.55541992px;font-style:normal;font-variant:normal;font-weight:normal;font-stretch:normal;line-height:125%;letter-spacing:0px;word-spacing:0px;fill:#000000;fill-opacity:1;stroke:none;font-family:Serif;-inkscape-font-specification:Serif"
       x="264.34323"
       y="583.75018"
       id="text3067"
       sodipodi:linespacing="125%"><tspan
         sodipodi:role="line"
         id="tspan3069"
         x="264.34323"
         y="583.75018"
         style="font-size:146.45552063px;font-style:normal;font-variant:normal;font-weight:normal;font-stretch:normal;fill:#000000;fill-opacity:1;font-family:Sketch Block;-inkscape-font-specification:Sketch Block">F</tspan></text>
    <path
       style="opacity:0.98999999;fill:none;stroke:#000000;stroke-width:1.25;stroke-miterlimit:4;stroke-opacity:1"
       d="m 42.364428,688.13468 c 25.850024,-0.5074 50.53141,-0.2454 75.177192,-0.099 -0.0347,1.63598 -0.0696,3.27148 -0.10431,4.90626 m -15.22226,-10.99464 c 4.78457,-0.0488 9.59821,-0.079 14.43716,-0.0939 -0.0136,19.01851 0.36565,38.27703 0.9077,57.59015 m -3.88809,-12.01011 c -0.45179,17.19449 -0.38471,34.34513 -0.16218,51.31138 -7.38725,-0.17549 -14.745663,-0.38518 -22.104277,-0.64031 m 20.038957,1.6612 c -24.738247,0.51253 -50.328233,0.45288 -75.538325,0.71461 0.05546,-6.1928 0.133899,-12.36615 0.25367,-18.50676 m 3.45844,13.43242 c -2.832833,-0.0411 -5.648047,-0.0787 -8.446674,-0.11363 -0.146179,-25.79264 1.097648,-51.36585 2.940321,-77.39102 m -0.310376,25.43201 c -0.243829,-12.79461 -0.128533,-25.9961 0.234869,-39.50308 12.856056,-0.47374 25.941255,-1.22963 39.15706,-2.17766 m -32.438692,2.38071 c 23.794405,0.006 48.746677,-0.14771 74.175777,-0.45513 0.0338,0.66742 0.0679,1.33473 0.10236,2.00192 m -11.80157,-4.40622 c 4.96191,-0.0287 9.88717,-0.0256 14.77956,0.008 -0.0371,18.63428 -0.54254,37.69617 -1.31199,57.08855 m -0.61245,-14.09336 c 0.2865,17.92422 0.1839,35.41129 -0.0606,52.62651 -13.17033,-0.37362 -26.416867,-0.89328 -39.642261,-1.49391 m 27.398361,-0.69969 c -23.131064,0.63203 -45.545278,0.77428 -67.636725,1.3288 0.250441,-7.28632 0.535329,-14.52864 0.840925,-21.69551 m -0.49858,23.01496 c -0.785374,0.007 -1.571892,0.0136 -2.359513,0.0198 0.710991,-26.38381 0.231723,-53.21575 0.04398,-80.07026 m -2.971635,17.25051 c 0.327822,-11.28958 0.421742,-22.77291 0.397208,-34.3865 18.503784,-0.23285 36.697942,-0.80621 55.070357,-1.45179 m -47.834711,4.66385 c 25.08994,0.13822 49.767966,1.1232 74.943819,3.18764 0.0874,3.61268 0.18401,7.24527 0.29207,10.89836 m -8.66884,-14.36701 c 3.57171,0.10709 7.15171,0.21031 10.737,0.3135 -0.4013,21.43807 -0.63055,42.87511 -1.24608,65.02378 m 1.406,-19.86992 c 0.0556,15.59631 -0.11927,31.4329 -0.48331,47.33585 -10.72551,0.0308 -21.533705,0.0906 -32.412609,0.12919 m 19.144269,1.65123 c -23.350572,0.39004 -45.992946,0.53796 -68.259221,1.00242 0.274121,-7.29259 0.587218,-14.55238 0.928213,-21.76072 m 2.577969,21.43794 c -0.951777,0.012 -1.904185,0.0221 -2.857193,0.0306 0.326684,-31.02729 0.01862,-63.89753 0.05653,-97.60067 0.170686,-0.0131 0.341383,-0.0262 0.51209,-0.0393 m -1.467895,28.57511 c 0.01745,-9.16479 0.05314,-18.31942 0.111641,-27.43272 23.518611,0.4636 47.181384,1.1884 71.060942,2.66976 m -38.719124,92.83622 -8.042969,0 m -24.433946,-69.69379 0,-7.17578 m 0,40.31222 0,-7.45703 m 52.98878,-49.88969 9.507812,0 m 21.065677,93.90407 -8.47656,0"
       id="rect3883"
       inkscape:path-effect="#path-effect3886"
       inkscape:original-d="m 34.012501,683.40051 82.073639,0 0,93.90407 -82.073639,0 z"
       inkscape:connector-curvature="0" />
    <path
       inkscape:connector-curvature="0"
       inkscape:original-d="m 138.2682,683.40051 82.07364,0 0,93.90407 -82.07364,0 z"
       inkscape:path-effect="#path-effect3890"
       id="path3888"
       d="m 145.26362,688.85411 c 20.91164,-0.61211 40.32399,-0.23302 59.78224,-0.0802 m -15.30472,-7.08766 c 10.28231,-0.15936 20.83924,-0.14486 31.5677,-0.0384 0.18344,7.54414 0.45413,15.13507 0.77466,22.74309 m -4.47643,-7.56552 c -0.73245,18.35203 -0.2637,36.5996 0.20551,54.28229 M 221.686,740.5233 c 0.5477,13.62562 0.63058,26.93985 0.71519,40.27971 -10.47903,0.0932 -20.95696,0.20267 -31.19708,0.49947 m 14.68214,-6.18953 c -21.76867,-0.4727 -41.48141,-0.53467 -60.35469,-1.23081 m 15.88234,4.39848 c -8.00922,0.19836 -15.7594,0.10289 -23.31434,-0.22783 0.34078,-11.83388 1.09627,-24.16748 2.06885,-36.81946 m -4.91923,15.99851 c -0.49547,-18.66532 0.39677,-37.52028 1.83568,-56.56051 m 3.32181,9.73408 c 0.18134,-9.94476 0.0645,-19.63081 -0.26801,-29.09714 7.44115,0.30571 14.75062,0.74551 21.96771,1.30083 m -16.85931,0.75799 c 23.59969,0.3912 45.87225,-0.70263 68.28394,-2.31422 m -16.82307,-0.741 c 8.18531,0.34825 16.56307,0.56485 25.08156,0.76775 0.3159,14.75912 1.05227,29.47732 1.94202,44.76378 m -3.39938,-17.98 c 0.91642,20.81594 0.3491,41.07948 0.12857,61.3123 m -3.37077,-18.62453 c 0.32905,7.80037 0.45042,15.42858 0.45476,22.93453 -14.88157,-0.2223 -30.21002,-0.91151 -45.3088,-1.69543 m 17.50193,5.47299 c -17.91106,0.15801 -36.29709,1.28979 -54.10049,3.66884 0.0944,-2.04888 0.19808,-4.07773 0.31331,-6.086 m 11.29133,2.07455 c -2.99089,0.12796 -5.97136,0.25107 -8.94539,0.37442 -0.44707,-14.82736 -0.70927,-29.64773 -1.4001,-43.67785 m 1.61709,7.85349 c 0.1047,-20.24538 -0.51435,-39.74126 -1.63556,-59.38662 m 0.47988,16.03185 c -0.0729,-4.6719 -0.0845,-9.36472 -0.0428,-14.0651 18.2837,0.3544 37.33048,0.60062 56.71209,1.46022 m -48.43568,-1.08146 c 24.75673,0.456 48.70286,-1.36579 73.07942,-4.19953 m -22.367,0.78394 c 8.03641,0.17314 16.09983,0.36139 24.19841,0.61847 0.17467,17.01723 0.49818,34.32589 1.04155,52.39403 m -1.45748,-26.13059 c 0.10211,20.71402 0.92885,40.74338 2.71391,60.43442 m -8.21521,-8.77672 c 0.20139,6.40453 0.39034,12.8461 0.60843,19.29754 -15.46867,-0.20812 -30.76268,-0.35707 -45.27179,-0.84537 m 18.81555,0.219 c -17.24139,-0.18547 -34.86633,-0.49197 -52.56841,-1.19923 -0.0887,-6.42179 -0.18697,-12.8937 -0.28137,-19.4281 m 3.99187,19.39105 c -0.53866,-0.0234 -1.07648,-0.0456 -1.61348,-0.0666 -0.55188,-24.93672 0.61395,-47.40314 1.79848,-70.38439 m -2.05633,22.54902 c 0.036,-14.76021 0.0425,-29.94399 0.0501,-45.78263 9.15796,-0.82544 18.31635,-1.9108 27.48281,-3.31394 m 5.20411,97.31462 -8.04297,0 m -24.43395,-69.69379 0,-7.17578 m 0,40.31222 0,-7.45703 m 52.98878,-49.88969 9.50781,0 m 21.06568,93.90407 -8.47656,0"
       style="opacity:0.98999999;fill:none;stroke:#000000;stroke-width:1.25;stroke-miterlimit:4;stroke-opacity:1" />
    <path
       style="opacity:0.98999999;fill:none;stroke:#000000;stroke-width:1.25;stroke-miterlimit:4;stroke-opacity:1"
       d="m 245.37384,688.17219 c 25.94986,-0.50064 50.68093,-0.19834 75.44214,-0.07 -0.004,0.1782 -0.007,0.35641 -0.0112,0.5346 m -18.39712,-6.86142 c 5.89815,-0.0591 11.84198,-0.0891 17.82383,-0.0962 0.0384,16.73508 0.37638,33.65044 0.84408,50.60945 m -3.90101,-10.97303 c -0.49659,19.241 -0.32171,38.42499 -0.029,57.33814 -4.11311,-0.11274 -8.22077,-0.23799 -12.32849,-0.37786 m 15.92992,-1.60064 c 0.0298,1.12862 0.0579,2.25613 0.0845,3.38259 -26.70082,0.48819 -54.35349,0.34084 -81.28876,0.7682 0.0254,-1.61781 0.0534,-3.23354 0.0843,-4.84693 m 15.804,-0.60594 c -7.0674,-0.10071 -14.02134,-0.17891 -20.87925,-0.2494 0.24774,-20.10005 1.28384,-40.13688 2.69816,-60.45919 m -0.0239,24.12068 c -0.33553,-17.92732 0.0576,-36.68032 0.84727,-55.9555 6.27615,-0.34516 12.59549,-0.74718 18.94608,-1.19516 m -13.18425,2.66278 c 23.24291,0.005 47.62783,-0.14588 72.46403,-0.44909 m -13.0648,-2.7041 c 6.09707,-0.0346 12.1369,-0.0196 18.12715,0.0415 -0.0935,16.38023 -0.54617,33.09385 -1.20848,50.0699 m -1.05927,-13.56908 c 0.31397,19.99003 0.12708,39.41771 -0.18678,58.53248 -9.558,-0.31261 -19.14475,-0.69608 -28.71997,-1.12353 m 26.39959,-0.44371 c -26.32127,0.70671 -51.68192,0.75696 -76.71517,1.59935 0.10551,-2.7028 0.2148,-5.39646 0.32708,-8.07921 m 12.14946,8.74217 c -4.92263,0.0432 -9.8917,0.069 -14.89603,0.0807 0.27003,-20.90793 -0.0625,-42.05713 -0.20799,-63.22113 m -2.77995,16.40056 c 0.47067,-16.50359 0.42483,-33.43507 0.25457,-50.57882 11.631,-0.26761 23.20086,-0.63952 34.84464,-1.04147 m -27.69956,5.1029 c 25.22458,0.13659 50.01818,1.15876 75.38854,3.32476 0.0508,1.95557 0.10459,3.91721 0.16187,5.88503 m -12.31798,-9.56894 c 4.73155,0.13932 9.47814,0.27163 14.23218,0.40663 -0.33038,18.9534 -0.55284,37.94584 -1.08764,57.51377 m 1.40302,-19.46251 c 0.062,17.70654 -0.18324,35.73303 -0.66959,53.80291 -7.21751,0.0286 -14.47178,0.0639 -21.75886,0.0893 m 18.23357,1.97569 c -26.52255,0.43532 -52.10003,0.54764 -77.26214,1.22824 0.11606,-2.69738 0.23673,-5.38844 0.3614,-8.07215 m 15.10372,7.18136 c -5.15574,0.0636 -10.33057,0.0734 -15.51956,0.0344 0.13138,-25.78847 -0.0782,-52.75037 -0.0445,-80.28495 m -0.81143,27.66462 c 0.0271,-14.49229 0.10127,-28.95836 0.24229,-43.26404 16.49378,0.43689 33.07015,1.07192 49.75625,2.08931 m -17.44976,93.10426 -8.04297,0 m -24.43395,-69.69379 0,-7.17578 m 0,40.31222 0,-7.45703 m 52.98878,-49.88969 9.50781,0 m 21.06568,93.90407 -8.47656,0"
       id="path3892"
       inkscape:path-effect="#path-effect3894"
       inkscape:original-d="m 237.34809,683.40051 82.07364,0 0,93.90407 -82.07364,0 z"
       inkscape:connector-curvature="0" />
    <path
       style="fill:none;stroke:#000000;stroke-width:1px;stroke-linecap:butt;stroke-linejoin:miter;stroke-opacity:1"
       d="m 419.60711,523.75732 c 27.34938,-3.55655 53.37429,-6.2411 79.44179,-9.12148 m -19.97863,-3.93159 c 23.48169,-2.93209 47.67279,-5.41285 72.11983,-7.80778 m -19.23755,5.17544 c 8.79274,-1.11606 17.72742,-2.24412 26.75204,-3.40428 -11.24646,10.82354 -22.22202,21.55038 -33.19847,32.07543 m 15.24562,-10.0414 c -21.71756,22.87113 -44.75746,44.85392 -66.73717,67.67696 m 14.43768,-24.36358 c -11.71659,11.01171 -22.84999,22.14107 -33.59486,33.21824 M 419.50832,519.6942 c 24.88063,-2.44109 51.14233,-6.44688 77.94785,-11.25274 m -21.8062,4.35926 c 24.30047,-2.79524 49.82434,-5.75845 75.83195,-8.88433 m -13.72335,-0.49537 c 8.62006,-1.01437 17.12809,-1.93154 25.54439,-2.76117 -10.74909,10.64433 -21.77328,21.55121 -32.96719,32.67058 m 9.93403,-9.67601 c -21.39391,21.89272 -43.9563,42.47266 -66.4005,62.60001 m 20.07885,-18.56977 c -14.0247,14.11259 -27.53373,27.87201 -40.76931,41.82938 m -36.78909,-90.37507 c 28.0306,-2.84485 54.74949,-6.17927 81.77791,-9.53768 m -23.10732,-0.7339 c 28.66187,-2.71459 55.92592,-6.58706 83.47875,-10.68996 -1.42884,1.31835 -2.85624,2.63556 -4.28163,3.95194 m -14.74024,2.57837 c 6.23297,-0.65541 12.4402,-1.25791 18.6359,-1.80387 -15.12584,15.75544 -30.39646,32.221 -45.17945,49.55848 M 530.21198,533.386 c -18.02681,17.90833 -35.68072,35.64265 -53.86823,54.36 m 12.96094,-15.03018 c -11.05292,10.67799 -22.33028,21.58687 -33.79038,32.56325 m -36.6541,-86.18985 c 30.05815,-2.92269 61.35384,-6.26848 93.11994,-8.74686 m -25.3666,1.94862 c 25.54133,-2.54306 50.64464,-6.32061 75.83429,-10.79263 -5.02492,4.48494 -10.04323,8.9167 -15.04381,13.30673 m 6.80484,-13.28946 c 2.42743,-0.23947 4.85612,-0.47825 7.28614,-0.71576 -21.45574,21.66359 -42.70594,43.52097 -63.59342,66.64417 m 19.15059,-24.16552 c -19.43406,19.36578 -38.22633,38.12806 -56.17659,56.59088 m 7.33523,-8.69871 c -5.16523,5.1344 -10.33897,10.29291 -15.4979,15.46039 m 79.34041,-74.93605 -11.46392,11.28432 m -52.44344,51.62184 -10.22789,10.06766 m 30.9546,-30.46965 -10.62877,10.46224 m -26.3112,-69.5055 18.89488,-2.13944 m 93.17942,-12.77455 -12.08194,11.89265"
       id="path3038"
       inkscape:connector-curvature="0"
       inkscape:path-effect="#path-effect3850"
       inkscape:original-d="M 411.2966,519.75711 561.45398,502.75497 450.2031,612.26295" />
    <path
       inkscape:original-d="m 457.6312,504.80027 c -10.10309,43.25717 -3.27103,67.05272 25.1644,81.02013"
       inkscape:path-effect="#path-effect3854"
       inkscape:connector-curvature="0"
       id="path3852"
       d="m 458.06586,515.90712 c -1.45303,8.08591 -2.36906,15.51405 -2.61994,22.29825 -0.31397,8.49014 0.41354,15.97237 2.3233,22.55022 1.90976,6.57786 4.99775,12.2544 9.34577,17.16773 3.13515,3.54276 6.92395,6.68955 11.39634,9.49008 m -22.17222,-74.85676 c -1.42812,7.07251 -2.24553,13.60691 -2.46453,19.63064 -0.30994,8.52542 0.57707,16.02699 2.69076,22.6257 2.1137,6.59871 5.45607,12.29608 10.10508,17.2411 2.11384,2.24843 4.49829,4.34157 7.16198,6.29393 m -14.63938,-7.55631 c 1.10277,1.66041 2.33562,3.24029 3.69999,4.74375 2.73328,3.01193 5.99396,5.7173 9.80007,8.14773 m -14.30434,-74.82279 c -2.01503,10.37407 -3.23791,19.54195 -3.48021,27.71983 -0.25494,8.60433 0.57069,16.10906 2.59987,22.6995 2.02919,6.59045 5.25786,12.26371 9.78423,17.19089 3.53408,3.84703 7.85832,7.23866 13.03053,10.26539 m -27.08049,-76.19753 c -1.66589,7.64205 -2.56139,14.64385 -2.7376,21.04477 -0.23244,8.44346 0.78411,15.84221 3.04909,22.32269 2.26497,6.48048 5.78142,12.04477 10.64225,16.82288 4.69777,4.61783 10.65533,8.50256 17.9876,11.75252 m -26.85389,-25.15122 7.56069,14.19836 m 8.89168,8.08174 12.38444,7.2521 m -19.22381,-13.2346 11.62717,9.34014 m -20.44763,-72.53691 -2.86412,18.79869 m -0.40276,14.23333 3.4871,16.59062"
       style="fill:none;stroke:#000000;stroke-width:1px;stroke-linecap:butt;stroke-linejoin:miter;stroke-opacity:1"
       sodipodi:nodetypes="cc" />
    <path
       inkscape:original-d="m 431.01285,673.83371 148.73988,26.69755 -137.94504,73.07478"
       inkscape:path-effect="#path-effect3860"
       inkscape:connector-curvature="0"
       id="path3856"
       d="m 439.26217,679.72039 c 27.0979,4.19628 52.87133,9.26456 78.68734,14.13701 m -19.79658,-9.54361 c 23.25732,3.98484 47.22406,8.42101 71.44673,12.94301 m -19.09266,0.70835 c 8.70751,1.51162 17.55695,3.01124 26.49634,4.47877 -13.94315,7.14298 -27.61541,14.18927 -41.28856,21.03376 m 18.09829,-6.14795 c -27.13705,15.47439 -55.59644,30.06044 -82.99566,45.48675 m 19.07517,-18.03417 c -14.45856,7.26937 -28.33393,14.65639 -41.82076,21.99123 m -8.92677,-90.55148 c 24.64125,4.93898 50.66356,8.31326 77.22969,10.88747 m -21.64124,-0.72608 c 24.06694,4.40409 49.35728,8.64021 75.13136,12.71367 m -13.56637,-5.33468 c 8.53967,1.46393 16.96731,3.02504 25.30322,4.6737 -13.28698,7.18052 -26.84906,14.6236 -40.58086,22.27915 m 12.46461,-6.22217 c -26.64641,14.7239 -54.46131,28.13503 -82.15801,41.09356 m 24.43494,-12.62441 c -17.33439,9.59539 -34.15312,18.83761 -50.69839,28.27779 m -9.00563,-96.55598 c 27.77362,5.07743 54.23553,9.66528 81.00698,14.22915 m -22.91725,-6.59391 c 28.39887,5.39353 55.39992,9.62918 82.68974,13.6344 -1.76648,0.85752 -3.53153,1.7139 -5.29456,2.56945 m -13.55473,-1.3593 c 6.17544,1.11797 12.32515,2.28886 18.46332,3.51629 -18.84205,10.68341 -37.82889,22.07694 -56.32809,34.34239 m 20.82314,-14.18364 c -22.21724,12.18909 -44.06157,24.20416 -66.4395,37.20226 m 15.73349,-11.24609 c -13.71814,7.04039 -27.66072,14.31168 -41.78604,21.65045 m -9.95755,-92.83975 c 29.77148,5.91457 60.78052,11.40604 92.25997,17.76491 m -25.13008,-5.34315 c 25.30302,4.80351 50.16803,8.37254 75.11938,11.2471 -6.22704,2.84424 -12.44746,5.63531 -18.65017,8.38464 m 10.47982,-10.48271 c 2.40456,0.46564 4.81037,0.93198 7.21752,1.39958 -26.62527,14.60801 -53.045,29.40982 -79.10202,45.47745 m 24.07827,-17.44003 c -24.11878,12.97188 -47.59577,25.34028 -70.23076,37.4092 m 10.80046,-3.96923 c -6.4411,3.39304 -12.89072,6.81019 -19.32552,10.2363 m 100.83699,-52.32936 -21.32196,11.29505 m -58.30285,30.88526 -19.02303,10.07723 m 44.84729,-23.75733 -19.76863,10.4722 m -6.69578,-76.71406 28.07478,5.03918 m 92.00258,11.61231 -22.47142,11.90397"
       style="fill:none;stroke:#000000;stroke-width:1px;stroke-linecap:butt;stroke-linejoin:miter;stroke-opacity:1" />
    <path
       sodipodi:nodetypes="cc"
       style="fill:none;stroke:#000000;stroke-width:1px;stroke-linecap:butt;stroke-linejoin:miter;stroke-opacity:1"
       d="m 478.05391,682.32618 c -3.74635,7.26053 -6.76757,14.09116 -8.95905,20.51315 -2.74253,8.03685 -4.18582,15.43429 -4.23522,22.31045 -0.0494,6.87617 1.29106,13.23413 4.05704,19.22654 1.99441,4.32082 4.72852,8.45244 8.21495,12.45003 m -1.98406,-76.57345 c -3.41771,6.38942 -6.07974,12.41958 -8.01467,18.12303 -2.73851,8.07212 -4.0223,15.48891 -3.86776,22.38593 0.15453,6.89702 1.74938,13.2758 4.81634,19.2999 1.39451,2.73908 3.09383,5.40507 5.10228,8.01388 m -10.36232,-11.40847 c 0.57301,1.92093 1.29378,3.79994 2.16231,5.64158 1.73998,3.68945 4.07259,7.22911 7.00444,10.65421 m 7.32948,-77.29154 c -4.82856,9.28998 -8.59251,17.69415 -11.14301,25.4412 -2.68351,8.15103 -4.02867,15.57098 -3.95865,22.45973 0.07,6.88876 1.55117,13.24343 4.49549,19.24969 2.29886,4.68955 5.48876,9.16614 9.60554,13.52718 m -4.6564,-78.23562 c -3.82337,6.88119 -6.70809,13.32756 -8.72538,19.38485 -2.66101,7.99017 -3.81525,15.30413 -3.50943,22.08292 0.30582,6.77879 2.07473,13.02449 5.35351,18.88169 3.1688,5.66071 7.75196,10.95977 13.82274,16.00867 m -18.15543,-32.03147 3.17944,15.7686 m 6.20581,10.28904 9.7899,10.49405 m -14.63029,-18.18417 8.46655,12.2779 m 1.17456,-75.35469 -8.12604,17.1919 m -4.46072,13.52227 -1.40852,16.89451"
       id="path3858"
       inkscape:connector-curvature="0"
       inkscape:path-effect="#path-effect3862"
       inkscape:original-d="m 479.69001,672.76788 c -22.06416,38.55422 -22.33041,63.30971 0.91614,84.83318" />
    <path
       style="fill:none;stroke:#000000;stroke-width:1px;stroke-linecap:butt;stroke-linejoin:miter;stroke-opacity:1"
       d="m 408.65718,926.28189 c 27.37754,2.21619 53.43061,5.30438 79.52626,8.19674 m -19.99901,-8.11029 c 23.50681,2.21824 47.72304,4.88781 72.1952,7.6432 m -19.25378,1.84926 c 8.80228,0.8405 17.74651,1.66901 26.78067,2.46542 -11.35384,-11.19174 -22.43678,-22.48016 -33.52062,-33.97039 m 15.35921,13.24726 C 507.81175,896.2306 484.55605,873.96976 462.36052,852.54917 M 476.98287,866.045 C 465.1571,854.67187 453.91451,843.4164 443.06046,832.10873 m -34.50002,90.53058 c 24.90744,3.05409 51.19594,4.54348 78.02826,5.23281 m -21.82466,0.57273 c 24.32661,2.56536 49.87663,4.96275 75.91038,7.19748 m -13.74092,-4.09871 c 8.62906,0.83097 17.14609,1.75912 25.57139,2.77482 -10.85015,-10.07447 -21.9754,-19.88639 -33.27037,-29.48583 m 10.0348,10.98312 c -21.60307,-20.98761 -44.37461,-43.28799 -67.02797,-66.04097 m 20.25231,16.99244 c -14.15649,-12.90707 -27.79731,-26.1673 -41.16469,-39.22957 m -35.89066,93.8147 c 28.05937,3.05406 54.80703,5.61854 81.86422,8.15904 m -23.1286,-5.09725 c 28.69131,3.32269 55.98482,5.48751 83.56709,7.4219 -1.44228,-1.43811 -2.88313,-2.87737 -4.32196,-4.31745 m -14.71923,6.88638 c 6.23941,0.66505 12.45308,1.383 18.65522,2.15751 -15.27382,-14.58294 -30.69242,-28.45576 -45.62339,-41.45666 m 17.38105,10.18943 c -18.19367,-16.3014 -36.01444,-32.77682 -54.36882,-48.26921 m 13.07134,7.60438 C 466.65619,853.55007 455.2727,842.70064 443.70647,831.91871 m -35.79418,90.10721 c 30.09024,3.65751 61.41804,6.89192 93.21623,10.99374 m -25.39308,-3.48082 c 25.568,2.92718 50.698,4.61988 75.91433,5.6181 -5.07279,-5.32889 -10.13897,-10.71096 -15.18742,-16.13476 m 6.94077,14.57696 c 2.42999,0.28555 4.86124,0.5718 7.29382,0.85931 -21.66159,-20.53938 -43.11764,-40.88495 -64.21098,-59.96472 m 19.34681,16.063 C 486.21216,871.6774 467.23335,852.19458 449.09655,832.41229 m 7.47321,19.59072 c -5.21603,-5.28159 -10.44058,-10.53907 -15.65031,-15.78757 m 82.94825,74.33924 -17.36018,-16.75793 m -47.46975,-45.82296 -15.48842,-14.9511 m 36.51434,35.2476 -16.09547,-15.53709 m -27.67806,71.85962 28.37229,2.93253 m 91.62022,14.31977 -18.29606,-17.66134"
       id="path3878"
       inkscape:connector-curvature="0"
       inkscape:path-effect="#path-effect3882"
       inkscape:original-d="M 400.33982,920.87702 550.65591,936.41356 438.34206,827.99605" />
    <path
       inkscape:original-d="M 446.81812,935.38115 C 436.29353,892.2246 442.89314,868.36353 471.19096,854.1194"
       inkscape:path-effect="#path-effect3884"
       inkscape:connector-curvature="0"
       id="path3880"
       d="m 446.88599,932.87373 c -1.53348,-8.40862 -2.52261,-15.96703 -2.83999,-22.81537 -0.39718,-8.57041 0.25746,-16.02816 2.10321,-22.57146 1.84576,-6.5433 4.87862,-12.16909 9.17892,-17.04103 3.10073,-3.51291 6.85897,-6.63305 11.30408,-9.42382 m -21.89124,64.3876 c -1.49776,-7.20555 -2.37914,-13.78411 -2.65693,-19.8147 -0.39316,-8.53513 0.42098,-15.97353 2.47067,-22.49597 2.0497,-6.52245 5.33694,-12.12742 9.93822,-16.96767 2.09214,-2.2008 4.45641,-4.24326 7.10132,-6.14122 m -13.85193,13.30117 c 1.08631,-1.7137 2.30348,-3.34962 3.65288,-4.91295 2.70332,-3.13189 5.93695,-5.9723 9.71856,-8.56427 m -14.24118,75.44856 c -2.11407,-9.93116 -3.42539,-18.89384 -3.74678,-26.93096 -0.33816,-8.45622 0.4146,-15.89146 2.37979,-22.42217 1.96518,-6.53071 5.13872,-12.15979 9.61736,-17.01788 3.49682,-3.79309 7.7883,-7.11675 12.93157,-10.02412 m -25.22279,67.39317 c -1.74151,-7.86027 -2.70603,-15.01063 -2.94533,-21.54317 -0.31566,-8.61708 0.62802,-16.1583 2.829,-22.79898 2.20098,-6.64068 5.6623,-12.37872 10.47539,-17.38588 4.65164,-4.8392 10.56999,-8.9945 17.86863,-12.63997 m -27.05471,30.98362 7.42183,-14.27144 m 8.81242,-8.16809 12.31311,-7.37257 m -19.0938,13.4215 11.53551,-9.45311 m -19.73906,72.73292 -3.04736,-18.76986 m -0.5416,-14.22872 3.3251,-16.62385"
       style="fill:none;stroke:#000000;stroke-width:1px;stroke-linecap:butt;stroke-linejoin:miter;stroke-opacity:1"
       sodipodi:nodetypes="cc" />
  </g>
</svg>
