<?xml version="1.0" encoding="UTF-8" standalone="no"?>
<!-- Created with Inkscape (http://www.inkscape.org/) -->

<svg
   xmlns:dc="http://purl.org/dc/elements/1.1/"
   xmlns:cc="http://creativecommons.org/ns#"
   xmlns:rdf="http://www.w3.org/1999/02/22-rdf-syntax-ns#"
   xmlns:svg="http://www.w3.org/2000/svg"
   xmlns="http://www.w3.org/2000/svg"
   xmlns:sodipodi="http://sodipodi.sourceforge.net/DTD/sodipodi-0.dtd"
   xmlns:inkscape="http://www.inkscape.org/namespaces/inkscape"
   width="1052.3622"
   height="744.09448"
   id="svg2"
   version="1.1"
   inkscape:version="0.48.4 r9939"
   sodipodi:docname="levels-1.svg">
  <defs
     id="defs4">
    <inkscape:path-effect
       effect="sketch"
       id="path-effect4021"
       is_visible="true"
       nbiter_approxstrokes="2"
       strokelength="100"
       strokelength_rdm="0.3;1"
       strokeoverlap="0.3"
       strokeoverlap_rdm="0.3;1"
       ends_tolerance="0.1;1"
       parallel_offset="4.3;1"
       tremble_size="4.3;1"
       tremble_frequency="1"
       nbtangents="5"
       tgt_places_rdmness="1;1"
       tgtscale="10"
       tgtlength="1"
       tgtlength_rdm="0.3;1" />
    <inkscape:path-effect
       effect="sketch"
       id="path-effect4019"
       is_visible="true"
       nbiter_approxstrokes="5"
       strokelength="100"
       strokelength_rdm="0.3;1"
       strokeoverlap="0.3"
       strokeoverlap_rdm="0.3;1"
       ends_tolerance="0.1;1"
       parallel_offset="2;1"
       tremble_size="2;1"
       tremble_frequency="1"
       nbtangents="5"
       tgt_places_rdmness="1;1"
       tgtscale="10"
       tgtlength="1"
       tgtlength_rdm="0.3;1" />
    <inkscape:path-effect
       effect="sketch"
       id="path-effect4011"
       is_visible="true"
       nbiter_approxstrokes="12"
       strokelength="100"
       strokelength_rdm="0.3;1"
       strokeoverlap="0.3"
       strokeoverlap_rdm="0.3;1"
       ends_tolerance="0.1;1"
       parallel_offset="5;1"
       tremble_size="5;1"
       tremble_frequency="1"
       nbtangents="5"
       tgt_places_rdmness="1;1"
       tgtscale="10"
       tgtlength="1"
       tgtlength_rdm="0.3;1" />
    <inkscape:path-effect
       effect="sketch"
       id="path-effect4009"
       is_visible="true"
       nbiter_approxstrokes="14"
       strokelength="100"
       strokelength_rdm="0.3;1"
       strokeoverlap="0.3"
       strokeoverlap_rdm="0.3;1"
       ends_tolerance="0.1;1"
       parallel_offset="5.7;1"
       tremble_size="6;1"
       tremble_frequency="1"
       nbtangents="5"
       tgt_places_rdmness="1;1"
       tgtscale="10"
       tgtlength="1"
       tgtlength_rdm="0.3;1" />
    <inkscape:path-effect
       effect="sketch"
       id="path-effect4007"
       is_visible="true"
       nbiter_approxstrokes="5"
       strokelength="100"
       strokelength_rdm="0.3;1"
       strokeoverlap="0.3"
       strokeoverlap_rdm="0.3;1"
       ends_tolerance="0.1;1"
       parallel_offset="2;1"
       tremble_size="2;1"
       tremble_frequency="1"
       nbtangents="5"
       tgt_places_rdmness="1;1"
       tgtscale="10"
       tgtlength="2"
       tgtlength_rdm="0.3;1" />
    <inkscape:path-effect
       effect="sketch"
       id="path-effect4005"
       is_visible="true"
       nbiter_approxstrokes="5"
       strokelength="100"
       strokelength_rdm="0;1"
       strokeoverlap="0"
       strokeoverlap_rdm="0;1"
       ends_tolerance="0;1"
       parallel_offset="2;1"
       tremble_size="2;1"
       tremble_frequency="0.5"
       nbtangents="0"
       tgt_places_rdmness="1;1"
       tgtscale="10"
       tgtlength="2"
       tgtlength_rdm="0.3;1" />
    <inkscape:path-effect
       effect="sketch"
       id="path-effect3993"
       is_visible="true"
       nbiter_approxstrokes="5"
       strokelength="100"
       strokelength_rdm="0.1;1"
       strokeoverlap="0.3"
       strokeoverlap_rdm="0.1;1"
       ends_tolerance="0;1"
       parallel_offset="2.2;1"
       tremble_size="2.2;1"
       tremble_frequency="0.51"
       nbtangents="0"
       tgt_places_rdmness="1;1"
       tgtscale="10"
       tgtlength="2"
       tgtlength_rdm="0.3;1" />
    <inkscape:path-effect
       effect="sketch"
       id="path-effect3989"
       is_visible="true"
       nbiter_approxstrokes="6"
       strokelength="100"
       strokelength_rdm="0.3;1"
       strokeoverlap="0.3"
       strokeoverlap_rdm="0.3;1"
       ends_tolerance="0.1;1"
       parallel_offset="4.2;1"
       tremble_size="4.9;1"
       tremble_frequency="1"
       nbtangents="0"
       tgt_places_rdmness="1;1"
       tgtscale="10"
       tgtlength="1"
       tgtlength_rdm="0.3;1" />
    <inkscape:path-effect
       effect="sketch"
       id="path-effect3985"
       is_visible="true"
       nbiter_approxstrokes="5"
       strokelength="100"
       strokelength_rdm="0.1;1"
       strokeoverlap="0.3"
       strokeoverlap_rdm="0.1;1"
       ends_tolerance="0;1"
       parallel_offset="2.9;1"
       tremble_size="2.7;1"
       tremble_frequency="1.1"
       nbtangents="5"
       tgt_places_rdmness="1;1"
       tgtscale="10"
       tgtlength="2"
       tgtlength_rdm="0.3;1" />
    <inkscape:path-effect
       tgtlength_rdm="0.3;1"
       tgtlength="2"
       tgtscale="10"
       tgt_places_rdmness="1;1"
       nbtangents="2"
       tremble_frequency="1.1"
       tremble_size="2.7;1"
       parallel_offset="2.9;1"
       ends_tolerance="0;1"
       strokeoverlap_rdm="0.1;1"
       strokeoverlap="0.3"
       strokelength_rdm="0.1;1"
       strokelength="100"
       nbiter_approxstrokes="4"
       is_visible="true"
       id="path-effect3983"
       effect="sketch" />
    <inkscape:path-effect
       tgtlength_rdm="0.3;1"
       tgtlength="2"
       tgtscale="10"
       tgt_places_rdmness="1;1"
       nbtangents="0"
       tremble_frequency="1.1"
       tremble_size="2.7;1"
       parallel_offset="2.9;1"
       ends_tolerance="0;1"
       strokeoverlap_rdm="0.1;1"
       strokeoverlap="0.3"
       strokelength_rdm="0.1;1"
       strokelength="100"
       nbiter_approxstrokes="5"
       is_visible="true"
       id="path-effect3981"
       effect="sketch" />
    <inkscape:path-effect
       effect="sketch"
       id="path-effect3979"
       is_visible="true"
       nbiter_approxstrokes="5"
       strokelength="100"
       strokelength_rdm="0.1;1"
       strokeoverlap="0.3"
       strokeoverlap_rdm="0.1;1"
       ends_tolerance="0;1"
       parallel_offset="2.9;1"
       tremble_size="2.7;1"
       tremble_frequency="1.1"
       nbtangents="0"
       tgt_places_rdmness="1;1"
       tgtscale="10"
       tgtlength="2"
       tgtlength_rdm="0.3;1" />
    <inkscape:path-effect
       tgtlength_rdm="0.3;1"
       tgtlength="2"
       tgtscale="10"
       tgt_places_rdmness="1;1"
       nbtangents="0"
       tremble_frequency="1.1"
       tremble_size="2.7;1"
       parallel_offset="2.9;1"
       ends_tolerance="0;1"
       strokeoverlap_rdm="0.1;1"
       strokeoverlap="0.3"
       strokelength_rdm="0.1;1"
       strokelength="100"
       nbiter_approxstrokes="5"
       is_visible="true"
       id="path-effect3977"
       effect="sketch" />
    <inkscape:path-effect
       tgtlength_rdm="0.3;1"
       tgtlength="2"
       tgtscale="10"
       tgt_places_rdmness="1;1"
       nbtangents="5"
       tremble_frequency="1"
       tremble_size="2;1"
       parallel_offset="2;1"
       ends_tolerance="0.1;1"
       strokeoverlap_rdm="0.3;1"
       strokeoverlap="0.3"
       strokelength_rdm="0.3;1"
       strokelength="100"
       nbiter_approxstrokes="5"
       is_visible="true"
       id="path-effect3975"
       effect="sketch" />
    <inkscape:path-effect
       tgtlength_rdm="0.3;1"
       tgtlength="2"
       tgtscale="10"
       tgt_places_rdmness="1;1"
       nbtangents="5"
       tremble_frequency="1"
       tremble_size="2;1"
       parallel_offset="2;1"
       ends_tolerance="0.1;1"
       strokeoverlap_rdm="0.3;1"
       strokeoverlap="0.3"
       strokelength_rdm="0.3;1"
       strokelength="100"
       nbiter_approxstrokes="5"
       is_visible="true"
       id="path-effect3973"
       effect="sketch" />
    <inkscape:path-effect
       tgtlength_rdm="0.3;1"
       tgtlength="2"
       tgtscale="10"
       tgt_places_rdmness="1;1"
       nbtangents="5"
       tremble_frequency="1"
       tremble_size="1.7;1"
       parallel_offset="1.4;1"
       ends_tolerance="0.1;1"
       strokeoverlap_rdm="0.3;1"
       strokeoverlap="0.3"
       strokelength_rdm="0.3;1"
       strokelength="100"
       nbiter_approxstrokes="5"
       is_visible="true"
       id="path-effect3971"
       effect="sketch" />
    <inkscape:path-effect
       tgtlength_rdm="0.3;1"
       tgtlength="4"
       tgtscale="10"
       tgt_places_rdmness="1;1"
       nbtangents="5"
       tremble_frequency="1"
       tremble_size="1;1"
       parallel_offset="1;1"
       ends_tolerance="0.1;1"
       strokeoverlap_rdm="0.3;1"
       strokeoverlap="0.3"
       strokelength_rdm="0.3;1"
       strokelength="100"
       nbiter_approxstrokes="5"
       is_visible="true"
       id="path-effect3969"
       effect="sketch" />
    <inkscape:path-effect
       effect="sketch"
       id="path-effect3967"
       is_visible="true"
       nbiter_approxstrokes="5"
       strokelength="100"
       strokelength_rdm="0.3;1"
       strokeoverlap="0.3"
       strokeoverlap_rdm="0.3;1"
       ends_tolerance="0.1;1"
       parallel_offset="1;1"
       tremble_size="1;1"
       tremble_frequency="1"
       nbtangents="5"
       tgt_places_rdmness="1;1"
       tgtscale="10"
       tgtlength="4"
       tgtlength_rdm="0.3;1" />
    <inkscape:path-effect
       tgtlength_rdm="0.3;1"
       tgtlength="4"
       tgtscale="10"
       tgt_places_rdmness="1;1"
       nbtangents="5"
       tremble_frequency="1"
       tremble_size="3;1"
       parallel_offset="3;1"
       ends_tolerance="0.1;1"
       strokeoverlap_rdm="0.3;1"
       strokeoverlap="0.3"
       strokelength_rdm="0.3;1"
       strokelength="100"
       nbiter_approxstrokes="4"
       is_visible="true"
       id="path-effect3965"
       effect="sketch" />
    <inkscape:path-effect
       effect="sketch"
       id="path-effect3937"
       is_visible="true"
       nbiter_approxstrokes="5"
       strokelength="100"
       strokelength_rdm="0.3;1"
       strokeoverlap="0.3"
       strokeoverlap_rdm="0.3;1"
       ends_tolerance="0.1;1"
       parallel_offset="3;1"
       tremble_size="3;1"
       tremble_frequency="1"
       nbtangents="5"
       tgt_places_rdmness="1;1"
       tgtscale="10"
       tgtlength="2"
       tgtlength_rdm="0.3;1" />
    <inkscape:path-effect
       effect="sketch"
       id="path-effect3933"
       is_visible="true"
       nbiter_approxstrokes="4"
       strokelength="100"
       strokelength_rdm="0;1"
       strokeoverlap="0.1"
       strokeoverlap_rdm="0;1"
       ends_tolerance="0;1"
       parallel_offset="3.1;1"
       tremble_size="2;1"
       tremble_frequency="3.01"
       nbtangents="5"
       tgt_places_rdmness="1;1"
       tgtscale="10"
       tgtlength="1"
       tgtlength_rdm="0.3;1" />
    <inkscape:path-effect
       effect="sketch"
       id="path-effect3929"
       is_visible="true"
       nbiter_approxstrokes="5"
       strokelength="100"
       strokelength_rdm="0.1;1"
       strokeoverlap="0.1"
       strokeoverlap_rdm="0.3;1"
       ends_tolerance="0;1"
       parallel_offset="2.5;1"
       tremble_size="2.5;1"
       tremble_frequency="1"
       nbtangents="5"
       tgt_places_rdmness="1;1"
       tgtscale="10"
       tgtlength="2"
       tgtlength_rdm="0.3;1" />
    <inkscape:path-effect
       tgtlength_rdm="0.3;1"
       tgtlength="0"
       tgtscale="10"
       tgt_places_rdmness="1;1"
       nbtangents="0"
       tremble_frequency="1"
       tremble_size="0.6;1"
       parallel_offset="0.4;1"
       ends_tolerance="0.1;1"
       strokeoverlap_rdm="0.3;1"
       strokeoverlap="0.3"
       strokelength_rdm="0.3;1"
       strokelength="100"
       nbiter_approxstrokes="5"
       is_visible="true"
       id="path-effect3923"
       effect="sketch" />
    <inkscape:path-effect
       effect="sketch"
       id="path-effect3919"
       is_visible="true"
       nbiter_approxstrokes="5"
       strokelength="100"
       strokelength_rdm="0.3;1"
       strokeoverlap="0.3"
       strokeoverlap_rdm="0.3;1"
       ends_tolerance="0.1;1"
       parallel_offset="1;1"
       tremble_size="1;1"
       tremble_frequency="1"
       nbtangents="0"
       tgt_places_rdmness="1;1"
       tgtscale="10"
       tgtlength="0"
       tgtlength_rdm="0.3;1" />
    <inkscape:path-effect
       tgtlength_rdm="0.3;1"
       tgtlength="0"
       tgtscale="10"
       tgt_places_rdmness="1;1"
       nbtangents="0"
       tremble_frequency="1"
       tremble_size="1;1"
       parallel_offset="1;1"
       ends_tolerance="0.1;1"
       strokeoverlap_rdm="0.3;1"
       strokeoverlap="0.3"
       strokelength_rdm="0.3;1"
       strokelength="100"
       nbiter_approxstrokes="5"
       is_visible="true"
       id="path-effect3915"
       effect="sketch" />
    <inkscape:path-effect
       effect="sketch"
       id="path-effect3911"
       is_visible="true"
       nbiter_approxstrokes="5"
       strokelength="100"
       strokelength_rdm="0.3;1"
       strokeoverlap="0.3"
       strokeoverlap_rdm="0.3;1"
       ends_tolerance="0.1;1"
       parallel_offset="1;1"
       tremble_size="1;1"
       tremble_frequency="1"
       nbtangents="1"
       tgt_places_rdmness="1;1"
       tgtscale="10"
       tgtlength="2"
       tgtlength_rdm="0.3;1" />
    <inkscape:path-effect
       effect="sketch"
       id="path-effect3907"
       is_visible="true"
       nbiter_approxstrokes="5"
       strokelength="100"
       strokelength_rdm="0.1;1"
       strokeoverlap="0.3"
       strokeoverlap_rdm="0.1;1"
       ends_tolerance="0;1"
       parallel_offset="2.9;1"
       tremble_size="2.7;1"
       tremble_frequency="1.1"
       nbtangents="5"
       tgt_places_rdmness="1;1"
       tgtscale="10"
       tgtlength="2"
       tgtlength_rdm="0.3;1" />
    <inkscape:path-effect
       tgtlength_rdm="0.3;1"
       tgtlength="2"
       tgtscale="10"
       tgt_places_rdmness="1;1"
       nbtangents="2"
       tremble_frequency="1.1"
       tremble_size="2.7;1"
       parallel_offset="2.9;1"
       ends_tolerance="0;1"
       strokeoverlap_rdm="0.1;1"
       strokeoverlap="0.3"
       strokelength_rdm="0.1;1"
       strokelength="100"
       nbiter_approxstrokes="4"
       is_visible="true"
       id="path-effect3905"
       effect="sketch" />
    <inkscape:path-effect
       tgtlength_rdm="0.3;1"
       tgtlength="2"
       tgtscale="10"
       tgt_places_rdmness="1;1"
       nbtangents="0"
       tremble_frequency="1.1"
       tremble_size="2.7;1"
       parallel_offset="2.9;1"
       ends_tolerance="0;1"
       strokeoverlap_rdm="0.1;1"
       strokeoverlap="0.3"
       strokelength_rdm="0.1;1"
       strokelength="100"
       nbiter_approxstrokes="5"
       is_visible="true"
       id="path-effect3903"
       effect="sketch" />
    <inkscape:path-effect
       effect="sketch"
       id="path-effect3901"
       is_visible="true"
       nbiter_approxstrokes="5"
       strokelength="100"
       strokelength_rdm="0.1;1"
       strokeoverlap="0.3"
       strokeoverlap_rdm="0.1;1"
       ends_tolerance="0;1"
       parallel_offset="2.9;1"
       tremble_size="2.7;1"
       tremble_frequency="1.1"
       nbtangents="5"
       tgt_places_rdmness="1;1"
       tgtscale="10"
       tgtlength="2"
       tgtlength_rdm="0.3;1" />
    <inkscape:path-effect
       tgtlength_rdm="0.3;1"
       tgtlength="2"
       tgtscale="10"
       tgt_places_rdmness="1;1"
       nbtangents="2"
       tremble_frequency="1.1"
       tremble_size="2.7;1"
       parallel_offset="2.9;1"
       ends_tolerance="0;1"
       strokeoverlap_rdm="0.1;1"
       strokeoverlap="0.3"
       strokelength_rdm="0.1;1"
       strokelength="100"
       nbiter_approxstrokes="5"
       is_visible="true"
       id="path-effect3899"
       effect="sketch" />
    <inkscape:path-effect
       tgtlength_rdm="0.3;1"
       tgtlength="2"
       tgtscale="10"
       tgt_places_rdmness="1;1"
       nbtangents="5"
       tremble_frequency="1"
       tremble_size="2;1"
       parallel_offset="2;1"
       ends_tolerance="0.1;1"
       strokeoverlap_rdm="0.3;1"
       strokeoverlap="0.3"
       strokelength_rdm="0.3;1"
       strokelength="100"
       nbiter_approxstrokes="5"
       is_visible="true"
       id="path-effect3897"
       effect="sketch" />
    <inkscape:path-effect
       tgtlength_rdm="0.3;1"
       tgtlength="2"
       tgtscale="10"
       tgt_places_rdmness="1;1"
       nbtangents="5"
       tremble_frequency="1"
       tremble_size="2;1"
       parallel_offset="2;1"
       ends_tolerance="0.1;1"
       strokeoverlap_rdm="0.3;1"
       strokeoverlap="0.3"
       strokelength_rdm="0.3;1"
       strokelength="100"
       nbiter_approxstrokes="5"
       is_visible="true"
       id="path-effect3895"
       effect="sketch" />
    <inkscape:path-effect
       tgtlength_rdm="0.3;1"
       tgtlength="2"
       tgtscale="10"
       tgt_places_rdmness="1;1"
       nbtangents="1"
       tremble_frequency="1"
       tremble_size="2;1"
       parallel_offset="2;1"
       ends_tolerance="0.1;1"
       strokeoverlap_rdm="0.3;1"
       strokeoverlap="0.3"
       strokelength_rdm="0.3;1"
       strokelength="100"
       nbiter_approxstrokes="5"
       is_visible="true"
       id="path-effect3893"
       effect="sketch" />
    <inkscape:path-effect
       tgtlength_rdm="0.3;1"
       tgtlength="4"
       tgtscale="10"
       tgt_places_rdmness="1;1"
       nbtangents="5"
       tremble_frequency="1"
       tremble_size="1;1"
       parallel_offset="1;1"
       ends_tolerance="0.1;1"
       strokeoverlap_rdm="0.3;1"
       strokeoverlap="0.3"
       strokelength_rdm="0.3;1"
       strokelength="100"
       nbiter_approxstrokes="5"
       is_visible="true"
       id="path-effect3891"
       effect="sketch" />
    <inkscape:path-effect
       effect="sketch"
       id="path-effect3889"
       is_visible="true"
       nbiter_approxstrokes="5"
       strokelength="100"
       strokelength_rdm="0.3;1"
       strokeoverlap="0.3"
       strokeoverlap_rdm="0.3;1"
       ends_tolerance="0.1;1"
       parallel_offset="1;1"
       tremble_size="1;1"
       tremble_frequency="1"
       nbtangents="5"
       tgt_places_rdmness="1;1"
       tgtscale="10"
       tgtlength="4"
       tgtlength_rdm="0.3;1" />
    <inkscape:path-effect
       tgtlength_rdm="0.3;1"
       tgtlength="4"
       tgtscale="10"
       tgt_places_rdmness="1;1"
       nbtangents="5"
       tremble_frequency="1"
       tremble_size="3;1"
       parallel_offset="3;1"
       ends_tolerance="0.1;1"
       strokeoverlap_rdm="0.3;1"
       strokeoverlap="0.3"
       strokelength_rdm="0.3;1"
       strokelength="100"
       nbiter_approxstrokes="4"
       is_visible="true"
       id="path-effect3887"
       effect="sketch" />
    <inkscape:path-effect
       tgtlength_rdm="0.3;1"
       tgtlength="2"
       tgtscale="10"
       tgt_places_rdmness="1;1"
       nbtangents="5"
       tremble_frequency="1.1"
       tremble_size="2.7;1"
       parallel_offset="2.9;1"
       ends_tolerance="0;1"
       strokeoverlap_rdm="0.1;1"
       strokeoverlap="0.3"
       strokelength_rdm="0.1;1"
       strokelength="100"
       nbiter_approxstrokes="5"
       is_visible="true"
       id="path-effect3859"
       effect="sketch" />
    <inkscape:path-effect
       effect="sketch"
       id="path-effect3855"
       is_visible="true"
       nbiter_approxstrokes="4"
       strokelength="100"
       strokelength_rdm="0.1;1"
       strokeoverlap="0.3"
       strokeoverlap_rdm="0.1;1"
       ends_tolerance="0;1"
       parallel_offset="2.9;1"
       tremble_size="2.7;1"
       tremble_frequency="1.1"
       nbtangents="2"
       tgt_places_rdmness="1;1"
       tgtscale="10"
       tgtlength="2"
       tgtlength_rdm="0.3;1" />
    <inkscape:path-effect
       effect="sketch"
       id="path-effect3851"
       is_visible="true"
       nbiter_approxstrokes="5"
       strokelength="100"
       strokelength_rdm="0.1;1"
       strokeoverlap="0.3"
       strokeoverlap_rdm="0.1;1"
       ends_tolerance="0;1"
       parallel_offset="2.9;1"
       tremble_size="2.7;1"
       tremble_frequency="1.1"
       nbtangents="0"
       tgt_places_rdmness="1;1"
       tgtscale="10"
       tgtlength="2"
       tgtlength_rdm="0.3;1" />
    <inkscape:path-effect
       tgtlength_rdm="0.3;1"
       tgtlength="2"
       tgtscale="10"
       tgt_places_rdmness="1;1"
       nbtangents="5"
       tremble_frequency="1.1"
       tremble_size="2.7;1"
       parallel_offset="2.9;1"
       ends_tolerance="0;1"
       strokeoverlap_rdm="0.1;1"
       strokeoverlap="0.3"
       strokelength_rdm="0.1;1"
       strokelength="100"
       nbiter_approxstrokes="5"
       is_visible="true"
       id="path-effect3847"
       effect="sketch" />
    <inkscape:path-effect
       effect="sketch"
       id="path-effect3843"
       is_visible="true"
       nbiter_approxstrokes="5"
       strokelength="100"
       strokelength_rdm="0.1;1"
       strokeoverlap="0.3"
       strokeoverlap_rdm="0.1;1"
       ends_tolerance="0;1"
       parallel_offset="2.9;1"
       tremble_size="2.7;1"
       tremble_frequency="1.1"
       nbtangents="2"
       tgt_places_rdmness="1;1"
       tgtscale="10"
       tgtlength="2"
       tgtlength_rdm="0.3;1" />
    <inkscape:path-effect
       effect="sketch"
       id="path-effect3837"
       is_visible="true"
       nbiter_approxstrokes="2"
       strokelength="100"
       strokelength_rdm="0;1"
       strokeoverlap="0.3"
       strokeoverlap_rdm="0.3;1"
       ends_tolerance="0;1"
       parallel_offset="2.6;1"
       tremble_size="1;1"
       tremble_frequency="15"
       nbtangents="5"
       tgt_places_rdmness="1;1"
       tgtscale="10"
       tgtlength="6"
       tgtlength_rdm="0.3;1" />
    <inkscape:path-effect
       effect="sketch"
       id="path-effect3833"
       is_visible="true"
       nbiter_approxstrokes="2"
       strokelength="100"
       strokelength_rdm="0.3;1"
       strokeoverlap="0.3"
       strokeoverlap_rdm="0.3;1"
       ends_tolerance="0.1;1"
       parallel_offset="1;1"
       tremble_size="1;1"
       tremble_frequency="5"
       nbtangents="5"
       tgt_places_rdmness="1;1"
       tgtscale="10"
       tgtlength="2"
       tgtlength_rdm="0.3;1" />
    <inkscape:path-effect
       effect="sketch"
       id="path-effect3827"
       is_visible="true"
       nbiter_approxstrokes="5"
       strokelength="100"
       strokelength_rdm="0.3;1"
       strokeoverlap="0.3"
       strokeoverlap_rdm="0.3;1"
       ends_tolerance="0.1;1"
       parallel_offset="2;1"
       tremble_size="2;1"
       tremble_frequency="1"
       nbtangents="5"
       tgt_places_rdmness="1;1"
       tgtscale="10"
       tgtlength="2"
       tgtlength_rdm="0.3;1" />
    <inkscape:path-effect
       effect="sketch"
       id="path-effect3823"
       is_visible="true"
       nbiter_approxstrokes="5"
       strokelength="100"
       strokelength_rdm="0.3;1"
       strokeoverlap="0.3"
       strokeoverlap_rdm="0.3;1"
       ends_tolerance="0.1;1"
       parallel_offset="2;1"
       tremble_size="2;1"
       tremble_frequency="1"
       nbtangents="5"
       tgt_places_rdmness="1;1"
       tgtscale="10"
       tgtlength="2"
       tgtlength_rdm="0.3;1" />
    <inkscape:path-effect
       effect="sketch"
       id="path-effect3781"
       is_visible="true"
       nbiter_approxstrokes="5"
       strokelength="100"
       strokelength_rdm="0.3;1"
       strokeoverlap="0.3"
       strokeoverlap_rdm="0.3;1"
       ends_tolerance="0.1;1"
       parallel_offset="2;1"
       tremble_size="2;1"
       tremble_frequency="1"
       nbtangents="5"
       tgt_places_rdmness="1;1"
       tgtscale="10"
       tgtlength="2"
       tgtlength_rdm="0.3;1" />
    <inkscape:path-effect
       effect="sketch"
       id="path-effect3777"
       is_visible="true"
       nbiter_approxstrokes="5"
       strokelength="100"
       strokelength_rdm="0.3;1"
       strokeoverlap="0.3"
       strokeoverlap_rdm="0.3;1"
       ends_tolerance="0.1;1"
       parallel_offset="1;1"
       tremble_size="1;1"
       tremble_frequency="1"
       nbtangents="5"
       tgt_places_rdmness="1;1"
       tgtscale="10"
       tgtlength="4"
       tgtlength_rdm="0.3;1" />
    <inkscape:path-effect
       tgtlength_rdm="0.3;1"
       tgtlength="4"
       tgtscale="10"
       tgt_places_rdmness="1;1"
       nbtangents="5"
       tremble_frequency="1"
       tremble_size="1;1"
       parallel_offset="1;1"
       ends_tolerance="0.1;1"
       strokeoverlap_rdm="0.3;1"
       strokeoverlap="0.3"
       strokelength_rdm="0.3;1"
       strokelength="100"
       nbiter_approxstrokes="5"
       is_visible="true"
       id="path-effect3773"
       effect="sketch" />
    <inkscape:path-effect
       effect="sketch"
       id="path-effect3769"
       is_visible="true"
       nbiter_approxstrokes="4"
       strokelength="100"
       strokelength_rdm="0.3;1"
       strokeoverlap="0.3"
       strokeoverlap_rdm="0.3;1"
       ends_tolerance="0.1;1"
       parallel_offset="3;1"
       tremble_size="3;1"
       tremble_frequency="1"
       nbtangents="5"
       tgt_places_rdmness="1;1"
       tgtscale="10"
       tgtlength="4"
       tgtlength_rdm="0.3;1" />
    <inkscape:path-effect
       tgtlength_rdm="0.3;1"
       tgtlength="5"
       tgtscale="10"
       tgt_places_rdmness="0.9;1"
       nbtangents="2"
       tremble_frequency="1.5"
       tremble_size="2.5;1"
       parallel_offset="2.7;1"
       ends_tolerance="0;1"
       strokeoverlap_rdm="0;1"
       strokeoverlap="0.5"
       strokelength_rdm="0;1"
       strokelength="100"
       nbiter_approxstrokes="6"
       is_visible="true"
       id="path-effect3759"
       effect="sketch" />
    <inkscape:path-effect
       effect="sketch"
       id="path-effect3755"
       is_visible="true"
       nbiter_approxstrokes="6"
       strokelength="100"
       strokelength_rdm="0;1"
       strokeoverlap="0.5"
       strokeoverlap_rdm="0;1"
       ends_tolerance="0;1"
       parallel_offset="2.8;1"
       tremble_size="2.4;1"
       tremble_frequency="2"
       nbtangents="2"
       tgt_places_rdmness="0.9;1"
       tgtscale="10"
       tgtlength="5"
       tgtlength_rdm="0.3;1" />
  </defs>
  <sodipodi:namedview
     id="base"
     pagecolor="#ffffff"
     bordercolor="#666666"
     borderopacity="1.0"
     inkscape:pageopacity="0.0"
     inkscape:pageshadow="2"
     inkscape:zoom="0.79213845"
     inkscape:cx="1423.0161"
     inkscape:cy="186.3028"
     inkscape:document-units="px"
     inkscape:current-layer="layer1"
     showgrid="false"
     showguides="true"
     inkscape:guide-bbox="true"
     inkscape:window-width="3436"
     inkscape:window-height="1404"
     inkscape:window-x="1680"
     inkscape:window-y="16"
     inkscape:window-maximized="0" />
  <metadata
     id="metadata7">
    <rdf:RDF>
      <cc:Work
         rdf:about="">
        <dc:format>image/svg+xml</dc:format>
        <dc:type
           rdf:resource="http://purl.org/dc/dcmitype/StillImage" />
        <dc:title></dc:title>
      </cc:Work>
    </rdf:RDF>
  </metadata>
  <g
     inkscape:label="Layer 1"
     inkscape:groupmode="layer"
     id="layer1"
     transform="translate(0,-308.2677)">
    <path
       inkscape:original-d="m 142.03083,561.04879 c 0,0 -43.57143,-2.13134 -43.57143,42.14286 0,45.71429 48.57143,44.28571 48.57143,44.28571 0,0 48.52999,-1.49694 49.28571,-40 1.02936,-52.44493 -54.28571,-46.42857 -54.28571,-46.42857 z"
       inkscape:path-effect="#path-effect3887"
       sodipodi:nodetypes="cscsc"
       inkscape:connector-curvature="0"
       id="path3861"
       d="m 137.34919,566.10665 c -0.10037,0.01 -0.20164,0.0199 -0.30381,0.0305 -3.979,0.41133 -9.31725,1.44484 -14.70812,3.89374 -5.39087,2.44891 -10.82848,6.3098 -14.96362,12.3415 -4.13515,6.03171 -6.96746,14.23617 -7.18245,25.37058 -0.13646,7.06746 0.87968,13.01672 2.70621,18.0176 m -3.772291,-25.15213 c -0.01083,0.36951 -0.01836,0.74248 -0.02255,1.11896 -0.125847,11.31631 2.947952,19.80002 7.567642,26.11447 4.6197,6.31445 10.80351,10.47121 17.00774,13.20972 6.20423,2.73851 12.43017,4.05944 17.10991,4.69574 1.59135,0.21638 3.0037,0.35354 4.17505,0.4403 m -19.04274,0.63774 c 3.97549,1.24362 7.76948,1.92029 10.86768,2.2841 2.24548,0.26368 4.12525,0.36318 5.44388,0.39669 0.65931,0.0168 1.17837,0.017 1.53302,0.0131 0.17733,-0.002 0.31357,-0.005 0.40572,-0.008 0.0461,-0.001 0.0811,-0.002 0.1048,-0.003 0.0118,-4.2e-4 0.0208,-7.5e-4 0.0269,-9.9e-4 0.006,-2.4e-4 0.009,-3.8e-4 0.01,-3.9e-4 1e-5,0 1e-5,0 1e-5,0 0,0 10e-6,0 2e-5,0 0.008,-3.7e-4 3.02008,-0.13329 7.57884,-0.94571 4.55877,-0.81242 10.67061,-2.30555 16.84551,-5.03517 6.17491,-2.72963 12.408,-6.6931 17.17693,-12.45873 2.03361,-2.45862 3.80114,-5.24539 5.18577,-8.40925 m -6.74016,14.73832 c 1.88007,-1.42954 3.64542,-3.03675 5.24197,-4.84125 2.4049,-2.71814 4.4269,-5.88384 5.88132,-9.56361 1.45442,-3.67976 2.34125,-7.87362 2.47432,-12.64841 0.18127,-6.50402 -0.54483,-12.11383 -1.93581,-16.93843 -1.39098,-4.82461 -3.4483,-8.86501 -5.94618,-12.24122 -2.49788,-3.37621 -5.43668,-6.08843 -8.59431,-8.25922 -3.15764,-2.1708 -6.534,-3.80007 -9.90917,-5.0124 -2.9491,-1.05929 -5.89722,-1.80023 -8.70051,-2.30838 m 19.08159,6.48582 c -1.64257,-1.62221 -3.3811,-3.05252 -5.17974,-4.31375 -3.22137,-2.25888 -6.63541,-3.97554 -10.03219,-5.27852 -6.79356,-2.60595 -13.51119,-3.5586 -18.52141,-3.86592 -2.5051,-0.15366 -4.58498,-0.14554 -6.04036,-0.0991 -0.72769,0.0232 -1.29926,0.0561 -1.68952,0.0831 -0.19513,0.0136 -0.34493,0.0257 -0.4462,0.0344 -0.0506,0.004 -0.0891,0.008 -0.11512,0.0104 -0.013,0.001 -0.0228,0.002 -0.0295,0.003 -0.007,6.6e-4 -0.0101,0.001 -0.0104,0.001 -1e-5,0 -2e-5,0 -2e-5,0 0,0 0,0 -1e-5,0 -2.5e-4,-2e-5 -0.003,-1.9e-4 -0.008,-4.9e-4 -0.005,-3.1e-4 -0.0131,-7.5e-4 -0.0234,-0.001 -0.0206,-0.001 -0.051,-0.003 -0.091,-0.004 -0.08,-0.004 -0.19815,-0.008 -0.35195,-0.0122 -0.30759,-0.008 -0.75766,-0.0143 -1.32924,-0.006 -1.14316,0.0158 -2.77236,0.0875 -4.71846,0.31056 -3.89219,0.44608 -9.05088,1.49799 -14.13098,3.9083 -4.30632,2.04319 -8.56082,5.06369 -11.91673,9.50488 m 25.13056,-9.67497 c -3.74139,0.6799 -8.17137,1.83714 -12.55458,3.8335 -5.45204,2.48318 -10.8379,6.27239 -14.76352,12.07918 -3.92563,5.8068 -6.399874,13.64381 -5.897741,24.04312 0.299421,6.20108 1.611271,11.41865 3.630831,15.81305 m -7.074876,-14.89761 c -0.0021,0.0949 -0.0039,0.19001 -0.0056,0.28533 -0.19639,11.42672 2.906464,19.87799 7.574908,26.13469 4.66845,6.2567 10.93161,10.31488 17.22988,12.93734 6.29827,2.62247 12.63406,3.80867 17.40314,4.33661 2.38454,0.26397 4.37655,0.36368 5.7732,0.3974 0.69833,0.0169 1.24783,0.0172 1.62324,0.0134 0.18771,-0.002 0.33189,-0.005 0.42943,-0.007 0.0488,-0.001 0.0859,-0.002 0.11091,-0.003 0.0125,-4.2e-4 0.022,-7.5e-4 0.0285,-9.9e-4 0.006,-2.4e-4 0.01,-3.7e-4 0.0101,-3.8e-4 1e-5,0 1e-5,-10e-6 1e-5,-10e-6 1e-5,0 1e-5,0 2e-5,0 0.001,-5e-5 0.0842,-0.004 0.24189,-0.0126 m -13.63404,-4.57308 c 3.23524,0.84258 6.24283,1.36728 8.77447,1.69407 2.28544,0.29502 4.18322,0.42853 5.51132,0.48774 0.66405,0.0296 1.18567,0.0406 1.54189,0.0442 0.1781,0.002 0.31485,0.002 0.40734,0.001 0.0462,-2.8e-4 0.0814,-6.7e-4 0.10518,-9.9e-4 0.0119,-1.6e-4 0.0209,-3.1e-4 0.027,-4.1e-4 0.006,-1.1e-4 0.009,-1.8e-4 0.01,-1.8e-4 1e-5,0 2e-5,0 2e-5,0 0,0 0,0 1e-5,0 0.0166,-3.8e-4 12.1114,-0.29011 24.01633,-5.10803 5.95247,-2.40896 11.87033,-5.96085 16.25275,-11.20599 1.5194,-1.81849 2.85382,-3.84003 3.93817,-6.08447 m -9.89694,12.08703 c 1.84342,-1.44487 3.57317,-3.06869 5.13537,-4.89152 2.36496,-2.75952 4.34621,-5.97467 5.75521,-9.71823 1.409,-3.74357 2.24591,-8.01521 2.3167,-12.89696 0.0964,-6.64973 -0.71308,-12.41645 -2.18862,-17.402 -1.47553,-4.98554 -3.61842,-9.19131 -6.20609,-12.73989 -2.58768,-3.54857 -5.62074,-6.44079 -8.87995,-8.80292 -3.25922,-2.36213 -6.74466,-4.19439 -10.23565,-5.61878 -2.05904,-0.84013 -4.11996,-1.53825 -6.13731,-2.11857 m 23.94056,11.39637 c -1.87966,-1.88918 -3.91015,-3.51719 -6.03084,-4.91723 -3.20877,-2.11837 -6.62388,-3.71479 -10.03236,-4.90983 -6.81696,-2.39009 -13.60364,-3.17239 -18.68252,-3.34587 -2.53944,-0.0867 -4.65281,-0.022 -6.13279,0.0649 -0.74,0.0435 -1.32164,0.0924 -1.71886,0.13054 -0.19861,0.0191 -0.35111,0.0354 -0.45422,0.0471 -0.0515,0.006 -0.0908,0.0104 -0.1172,0.0136 -0.0132,0.002 -0.0232,0.003 -0.03,0.004 -0.007,8.5e-4 -0.0103,0.001 -0.0106,0.001 -1e-5,0 -2e-5,0 -2e-5,0 0,0 0,0 -1e-5,0 -2.6e-4,-10e-6 -0.003,-10e-5 -0.009,-2.6e-4 -0.005,-1.5e-4 -0.0134,-3.7e-4 -0.0238,-6.2e-4 -0.0209,-5.1e-4 -0.0519,-0.001 -0.0926,-0.002 -0.0814,-0.001 -0.20176,-0.002 -0.35838,-0.002 -0.31323,6.7e-4 -0.77161,0.007 -1.35407,0.032 -1.16492,0.049 -2.82613,0.16885 -4.81426,0.45327 -3.97628,0.56884 -9.25963,1.79469 -14.50057,4.44514 -5.24094,2.65046 -10.44468,6.71987 -14.2322,13.02743 -0.29196,0.48622 -0.57546,0.98581 -0.84987,1.49917 m 26.3148,-17.12537 c -3.73398,0.61388 -8.37276,1.7749 -13.04573,3.97442 -5.35467,2.52039 -10.75082,6.40606 -14.83134,12.40896 -4.08051,6.0029 -6.847199,14.12398 -6.945358,25.09543 -0.0771,8.61776 1.609208,15.53352 4.408188,21.08687 m -7.547098,-22.58514 c 0.591524,10.72563 3.608569,18.65514 7.953518,24.57923 4.57815,6.24207 10.6079,10.23884 16.62066,12.78322 6.01276,2.54439 12.00713,3.63456 16.50471,4.08608 2.24879,0.22577 4.1232,0.29233 5.43665,0.30262 0.65673,0.005 1.17319,-0.004 1.52599,-0.014 0.17639,-0.005 0.31188,-0.0105 0.40351,-0.0147 0.0458,-0.002 0.0807,-0.004 0.10421,-0.005 0.0118,-6.3e-4 0.0207,-0.001 0.0268,-0.001 0.006,-3.4e-4 0.009,-5.3e-4 0.01,-5.5e-4 1e-5,0 1e-5,0 1e-5,0 0,0 1e-5,0 2e-5,0 0.0132,-8.3e-4 7.74974,-0.48451 17.08684,-3.61946 m -24.68338,7.31553 c 1.92751,0.22561 3.54178,0.33809 4.71922,0.39349 0.67902,0.0319 1.21275,0.0449 1.57729,0.0498 0.18227,0.002 0.32224,0.003 0.41691,0.003 0.0473,-10e-5 0.0833,-3.6e-4 0.10766,-5.9e-4 0.0122,-1.2e-4 0.0214,-2.3e-4 0.0276,-3.1e-4 0.006,-9e-5 0.01,-1.4e-4 0.01,-1.5e-4 2e-5,0 2e-5,0 2e-5,0 0,0 1e-5,0 2e-5,0 0.017,-3.1e-4 12.37101,-0.25847 24.79491,-4.95205 6.21194,-2.34679 12.44978,-5.81287 17.23143,-10.93247 2.39082,-2.5598 4.41789,-5.53238 5.90224,-8.96723 1.48436,-3.43484 2.42542,-7.33244 2.65576,-11.7185 0.10886,-2.07281 0.11329,-4.03631 0.0222,-5.89668 m -0.38665,16.21285 c 0.17244,-0.41797 0.33724,-0.84307 0.49408,-1.27541 1.30937,-3.60933 2.06387,-7.72368 2.06972,-12.39859 0.008,-6.36797 -0.83495,-11.84393 -2.33266,-16.53607 -1.49771,-4.69214 -3.64917,-8.60136 -6.2459,-11.84323 -2.59672,-3.24187 -5.63853,-5.81623 -8.91267,-7.84193 -3.27415,-2.0257 -6.78072,-3.50247 -10.30296,-4.55632 -1.51704,-0.4539 -3.03693,-0.82946 -4.54204,-1.13734 m 16.07429,3.06245 c -0.0755,-0.0548 -0.15107,-0.10927 -0.22681,-0.16343 -3.17654,-2.27151 -6.59342,-3.99155 -10.02986,-5.29034 -6.87288,-2.59757 -13.82756,-3.50906 -19.07274,-3.77247 -2.62259,-0.1317 -4.81695,-0.10153 -6.35639,-0.0387 -0.76972,0.0314 -1.3757,0.071 -1.78972,0.10274 -0.20701,0.0159 -0.36604,0.0298 -0.47356,0.0398 -0.0538,0.005 -0.0947,0.009 -0.12224,0.0118 -0.0138,0.001 -0.0243,0.002 -0.0313,0.003 -0.007,7.4e-4 -0.0108,0.001 -0.011,0.001 -1e-5,0 -2e-5,0 -2e-5,0 0,0 0,0 -2e-5,0 -2.6e-4,-1e-5 -0.003,-1.5e-4 -0.009,-3.9e-4 -0.006,-2.4e-4 -0.0139,-5.8e-4 -0.0248,-0.001 -0.0218,-8.4e-4 -0.0542,-0.002 -0.0966,-0.003 -0.0849,-0.003 -0.21045,-0.006 -0.37387,-0.008 -0.32685,-0.004 -0.80529,-0.005 -1.41398,0.0104 -1.21737,0.0305 -2.95569,0.12413 -5.04491,0.37634 -4.17844,0.50444 -9.76092,1.64438 -15.38471,4.17303 -4.92844,2.216 -9.8857,5.49797 -13.9721,10.3475 m 33.96369,-13.10719 c -0.0787,0.003 -0.15998,0.006 -0.24371,0.009 -1.20545,0.0486 -2.92382,0.16674 -4.97845,0.44512 -4.10926,0.55676 -9.56057,1.75222 -14.96294,4.33058 -5.40237,2.57836 -10.76143,6.53923 -14.69226,12.65854 -3.93084,6.11932 -6.438868,14.38955 -6.043536,25.66633 0.354894,10.12328 2.985716,18.03162 6.894806,24.23039 m -6.191272,-25.0792 c 6e-4,0.19201 0.002,0.38482 0.0042,0.57845 0.13089,11.5581 3.190576,19.92726 7.755176,26.06005 4.56459,6.13279 10.62404,10.00111 16.68011,12.40217 6.05607,2.40105 12.10846,3.33207 16.65145,3.65328 2.27149,0.1606 4.16546,0.16998 5.49266,0.13944 0.66361,-0.0153 1.18551,-0.0405 1.54202,-0.0619 0.17826,-0.0107 0.31517,-0.0204 0.40777,-0.0276 0.0463,-0.004 0.0815,-0.006 0.10531,-0.008 0.0119,-0.001 0.0209,-0.002 0.027,-0.002 0.006,-5.4e-4 0.009,-8.4e-4 0.01,-8.6e-4 1e-5,0 1e-5,0 1e-5,0 0,0 1e-5,0 2e-5,-10e-6 0.0155,-0.001 10.59352,-0.97502 21.98184,-6.1973 m -28.78853,5.00798 c 1.50079,0.17199 2.77351,0.26581 3.74444,0.31682 0.66681,0.035 1.19128,0.0499 1.54955,0.0559 0.17914,0.003 0.31673,0.004 0.4098,0.004 0.0465,4e-5 0.0819,-1.2e-4 0.10583,-2.8e-4 0.012,-8e-5 0.021,-1.7e-4 0.0272,-2.3e-4 0.006,-7e-5 0.009,-1.1e-4 0.01,-1.2e-4 1e-5,0 1e-5,0 1e-5,0 0,0 1e-5,0 2e-5,0 0.0167,-2.7e-4 12.17678,-0.2173 24.49041,-5.12902 6.15681,-2.45587 12.35062,-6.08438 17.08273,-11.42152 2.36605,-2.66856 4.36679,-5.76393 5.81809,-9.34381 1.45131,-3.57987 2.35307,-7.64474 2.52578,-12.23797 0.23527,-6.25672 -0.40977,-11.59662 -1.71912,-16.15073 -0.40783,-1.4185 -0.88007,-2.76065 -1.41007,-4.0301 m 1.44527,24.37661 c 0.42431,-2.16474 0.68161,-4.476 0.74828,-6.94425 0.17674,-6.54247 -0.49705,-12.20477 -1.82053,-17.09203 -1.32347,-4.88725 -3.29602,-9.00028 -5.70286,-12.45905 -2.40684,-3.45877 -5.2473,-6.26383 -8.30262,-8.53975 -3.05532,-2.27591 -6.32516,-4.02289 -9.59442,-5.36428 -6.53852,-2.68278 -13.06783,-3.74564 -17.94713,-4.14291 -0.46365,-0.0377 -0.91247,-0.0695 -1.34511,-0.0959 m 12.75969,9.07808 c -6.55006,-2.49401 -13.10885,-3.41591 -18.05905,-3.71414 -2.53185,-0.15253 -4.6437,-0.14173 -6.12337,-0.093 -0.73984,0.0244 -1.32167,0.0583 -1.71906,0.0861 -0.19869,0.0139 -0.35128,0.0263 -0.45445,0.0353 -0.0516,0.004 -0.0908,0.008 -0.11727,0.0106 -0.0132,0.001 -0.0233,0.002 -0.0301,0.003 -0.007,6.7e-4 -0.0103,0.001 -0.0106,0.001 -1e-5,1e-5 -1e-5,1e-5 -1e-5,1e-5 0,0 -1e-5,0 -2e-5,-1e-5 -2.5e-4,-10e-6 -0.003,-1.8e-4 -0.009,-4.7e-4 -0.005,-3e-4 -0.0134,-7.2e-4 -0.0238,-0.001 -0.0209,-0.001 -0.052,-0.003 -0.0927,-0.004 -0.0815,-0.003 -0.2019,-0.008 -0.35864,-0.0115 -0.31349,-0.007 -0.77229,-0.0126 -1.35547,-0.003 -1.16636,0.0185 -2.83032,0.0945 -4.8234,0.32413 -3.98616,0.45924 -9.29001,1.53384 -14.54902,3.9814 -5.25901,2.44757 -10.47911,6.26963 -14.24458,12.20146 -3.05024,4.80511 -5.150129,10.99701 -5.445712,18.92586 m 92.231842,31.71797 3.52617,-5.38213 m -30.32398,-61.71203 -5.65601,-0.982 m 29.77971,14.02771 -4.33436,-4.09902 m -78.18002,8.71408 -3.07202,6.95828 m 50.24833,60.24355 6.69833,-1.05722"
       style="fill:none;stroke:#000000;stroke-width:1px;stroke-linecap:butt;stroke-linejoin:miter;stroke-opacity:1" />
    <path
       style="fill:none;stroke:#000000;stroke-width:0.31683266px;stroke-linecap:butt;stroke-linejoin:miter;stroke-opacity:1"
       d="m 145.38614,589.60236 c -0.023,-0.19514 -0.0503,-0.39193 -0.0823,-0.58997 -0.30407,-1.8826 -1.03227,-3.87705 -2.52742,-5.63009 -1.49514,-1.75304 -3.75653,-3.26512 -7.12864,-4.18247 -3.48221,-0.94732 -6.32147,-0.72026 -8.61871,0.15128 -2.29724,0.87153 -4.05315,2.38796 -5.37396,4.02335 -1.32081,1.6354 -2.20665,3.38987 -2.76297,4.73757 -0.27815,0.67385 -0.4739,1.246 -0.60034,1.65069 -0.0632,0.20234 -0.10912,0.36282 -0.13932,0.47322 -0.0151,0.0552 -0.0263,0.0979 -0.0338,0.12702 -0.004,0.0146 -0.007,0.0257 -0.008,0.0334 -0.002,0.008 -0.003,0.0118 -0.003,0.0123 -1e-5,3e-5 -2e-5,5e-5 -2e-5,5e-5 0,0 0,2e-5 -10e-6,5e-5 -1.2e-4,5.1e-4 -0.001,0.005 -0.003,0.0124 -0.002,0.008 -0.004,0.0189 -0.008,0.0336 -0.007,0.0294 -0.0161,0.0725 -0.0278,0.12854 -0.0236,0.11215 -0.0564,0.27613 -0.0939,0.48548 -0.075,0.4187 -0.16863,1.01887 -0.24443,1.74885 -0.1516,1.45995 -0.23182,3.43917 0.0523,5.52394 0.28407,2.08476 0.93264,4.27499 2.23811,6.15687 1.30547,1.88187 3.26802,3.45537 6.17574,4.30799 3.96116,1.1615 7.10008,0.94614 9.578,-0.0301 2.47791,-0.97626 4.29426,-2.71325 5.6131,-4.59597 0.42387,-0.60511 0.7964,-1.22528 1.12312,-1.84012 m -16.68523,4.46556 c 0.002,5e-4 0.003,9.9e-4 0.005,0.001 3.97112,1.13889 7.12496,0.91071 9.61792,-0.0758 2.49297,-0.98649 4.32581,-2.73085 5.66206,-4.61922 1.33625,-1.88837 2.17616,-3.92057 2.68261,-5.48262 0.25322,-0.78102 0.42304,-1.44452 0.52971,-1.91381 0.0533,-0.23464 0.0909,-0.42073 0.11516,-0.54867 0.0122,-0.064 0.021,-0.1134 0.0268,-0.1471 0.003,-0.0168 0.005,-0.0298 0.007,-0.0386 0.001,-0.009 0.002,-0.0136 0.002,-0.0141 0,-3e-5 0,-5e-5 0,-5e-5 8e-5,2e-5 1.6e-4,4e-5 2.4e-4,5e-5 0,0 10e-6,-10e-6 2e-5,-5e-5 1.6e-4,-5e-4 0.001,-0.004 0.003,-0.011 0.002,-0.007 0.005,-0.0167 0.009,-0.0297 0.008,-0.0259 0.0192,-0.0638 0.0334,-0.11322 0.0283,-0.0987 0.0676,-0.24313 0.11279,-0.42761 0.0903,-0.36896 0.2037,-0.89834 0.29736,-1.54394 0.18732,-1.2912 0.29574,-3.04726 -0.0173,-4.91479 -0.31307,-1.86753 -1.04785,-3.84663 -2.54565,-5.58354 -1.49779,-1.73691 -3.75874,-3.2317 -7.11958,-4.12853 -3.47058,-0.92611 -6.293,-0.68531 -8.57254,0.19811 -2.27954,0.88341 -4.0157,2.40968 -5.31577,4.05379 -1.30007,1.6441 -2.16419,3.40597 -2.70336,4.75901 -0.26959,0.67651 -0.45798,1.25081 -0.5792,1.65699 -0.0606,0.20309 -0.10443,0.36415 -0.13321,0.47495 -0.0144,0.0554 -0.025,0.0982 -0.0321,0.12747 -0.004,0.0146 -0.006,0.0258 -0.008,0.0335 -0.002,0.008 -0.003,0.0118 -0.003,0.0124 0,4e-5 -1e-5,5e-5 -1e-5,5e-5 0,0 0,2e-5 -10e-6,6e-5 -1.1e-4,5.1e-4 -0.001,0.005 -0.003,0.0124 -0.002,0.008 -0.004,0.019 -0.007,0.0337 -0.006,0.0295 -0.0151,0.0727 -0.0262,0.12901 -0.006,0.0318 -0.0132,0.0678 -0.0207,0.10776 m 25.45231,-2.84418 c -0.4393,-1.16579 -1.08544,-2.3224 -2.0163,-3.38986 -1.52592,-1.74984 -3.81744,-3.26002 -7.21595,-4.18054 -3.50949,-0.95057 -6.35833,-0.73039 -8.66111,0.13343 -2.30277,0.86381 -4.05883,2.37107 -5.37692,3.99648 -1.31808,1.6254 -2.19802,3.36902 -2.74878,4.708 -0.27538,0.66948 -0.46849,1.23784 -0.59301,1.63983 -0.0623,0.201 -0.10736,0.3604 -0.13703,0.47006 -0.0148,0.0548 -0.0258,0.0972 -0.0331,0.12616 -0.004,0.0145 -0.006,0.0256 -0.008,0.0332 -0.002,0.008 -0.003,0.0117 -0.003,0.0122 -1e-5,3e-5 -2e-5,5e-5 -2e-5,5e-5 0,0 0,2e-5 -1e-5,5e-5 -1.2e-4,5e-4 -0.001,0.005 -0.003,0.0123 -0.002,0.008 -0.004,0.0188 -0.007,0.0334 -0.006,0.0291 -0.0157,0.072 -0.0272,0.12768 -0.023,0.1114 -0.055,0.27429 -0.0914,0.48222 -0.0728,0.41587 -0.16327,1.01195 -0.23484,1.73677 -0.14313,1.44964 -0.21059,3.41428 0.0897,5.4819 0.30028,2.06762 0.96812,4.23843 2.29564,6.09872 1.32751,1.86028 3.31455,3.41029 6.25654,4.23011 4.00784,1.11683 7.18384,0.86571 9.69512,-0.14355 2.22379,-0.89372 3.92669,-2.38244 5.22361,-4.0404 m -13.95154,4.50242 c 0.0798,0.0249 0.16024,0.0493 0.24143,0.0731 4.02527,1.18049 7.20593,0.97434 9.71999,0.006 2.51406,-0.96859 4.36089,-2.70003 5.70747,-4.57794 1.34658,-1.87791 2.19251,-3.90257 2.70223,-5.45969 0.25485,-0.77856 0.42565,-1.44024 0.53292,-1.9083 0.0536,-0.23403 0.0914,-0.41965 0.11581,-0.54727 0.0122,-0.0638 0.0211,-0.11313 0.027,-0.14675 0.003,-0.0168 0.005,-0.0297 0.007,-0.0385 0.001,-0.009 0.002,-0.0135 0.002,-0.0141 0,-3e-5 1e-5,-4e-5 1e-5,-4e-5 1.1e-4,9e-5 2.2e-4,1.9e-4 3.3e-4,2.9e-4 0,0 1e-5,-2e-5 2e-5,-6e-5 1.6e-4,-4.9e-4 0.001,-0.004 0.004,-0.011 0.002,-0.007 0.005,-0.0167 0.009,-0.0296 0.008,-0.0258 0.0193,-0.0637 0.0335,-0.11294 0.0283,-0.0985 0.0679,-0.24254 0.11315,-0.4266 0.0906,-0.36811 0.20429,-0.89632 0.29807,-1.54067 0.18756,-1.2887 0.29532,-3.04202 -0.0204,-4.90765 -0.31572,-1.86563 -1.05491,-3.84359 -2.55988,-5.58039 -1.50497,-1.73679 -3.77569,-3.23238 -7.15381,-4.13222 -3.48844,-0.92922 -6.32718,-0.69204 -8.62205,0.18804 -2.29488,0.88008 -4.04593,2.40307 -5.36032,4.04418 -1.31439,1.64111 -2.19211,3.40033 -2.7415,4.75151 -0.2747,0.67558 -0.46733,1.24914 -0.59153,1.65482 -0.0621,0.20284 -0.10709,0.3637 -0.13667,0.47437 -0.0148,0.0553 -0.0257,0.0981 -0.033,0.12732 -0.004,0.0146 -0.006,0.0258 -0.008,0.0335 -0.002,0.008 -0.003,0.0118 -0.003,0.0123 -10e-6,3e-5 -2e-5,5e-5 -2e-5,5e-5 0,0 0,2e-5 -1e-5,5e-5 -1.2e-4,5.1e-4 -0.001,0.005 -0.003,0.0124 -0.002,0.008 -0.004,0.019 -0.007,0.0337 -0.006,0.0294 -0.0156,0.0726 -0.0271,0.12885 -0.0229,0.11241 -0.0548,0.27678 -0.0911,0.48662 -0.0725,0.41967 -0.16266,1.02124 -0.23387,1.7529 -0.14241,1.46332 -0.20919,3.44702 0.0917,5.53689 0.30088,2.08987 0.96928,4.28576 2.29786,6.17432 1.32858,1.88855 3.31697,3.46946 6.26282,4.33402 0.35389,0.10386 0.70134,0.19702 1.04245,0.27988 m 16.11265,-23.23317 c -0.42058,-1.46547 -1.13534,-2.94842 -2.29783,-4.29038 -1.51759,-1.75188 -3.799,-3.2636 -7.18092,-4.18365 -3.49235,-0.9501 -6.32598,-0.72759 -8.61393,0.13899 -2.28795,0.86658 -4.02919,2.37729 -5.33234,4.00654 -1.30315,1.62926 -2.16811,3.37715 -2.70717,4.71958 -0.26953,0.67122 -0.45765,1.24108 -0.57863,1.64415 -0.0605,0.20153 -0.1042,0.36136 -0.1329,0.47132 -0.0143,0.055 -0.025,0.0975 -0.032,0.1265 -0.004,0.0145 -0.006,0.0256 -0.008,0.0333 -0.002,0.008 -0.003,0.0118 -0.003,0.0123 -10e-6,3e-5 -10e-6,5e-5 -10e-6,5e-5 0,0 -1e-5,2e-5 -1e-5,5e-5 -1.2e-4,5.1e-4 -0.001,0.005 -0.003,0.0123 -0.002,0.008 -0.004,0.0188 -0.007,0.0335 -0.006,0.0292 -0.0151,0.0722 -0.0261,0.12803 -0.022,0.1117 -0.0526,0.27502 -0.0872,0.48352 -0.0692,0.417 -0.15438,1.01472 -0.21942,1.74161 -0.13009,1.45379 -0.17942,3.42431 0.14173,5.49889 0.32115,2.07458 1.01226,4.2533 2.36551,6.12242 1.35325,1.86912 3.3681,3.42875 6.34912,4.26205 4.061,1.13518 7.27999,0.89878 9.83145,-0.0969 2.55146,-0.99568 4.43707,-2.75104 5.82383,-4.65189 1.38676,-1.90085 2.27408,-3.94713 2.81637,-5.52079 0.27115,-0.78683 0.4559,-1.45546 0.57307,-1.92841 0.0322,-0.12975 0.0592,-0.24478 0.0816,-0.34347 m -14.62869,14.43421 c 2.14213,0.15634 3.98142,-0.15388 5.55683,-0.77136 2.48697,-0.97477 4.31646,-2.71548 5.65087,-4.60489 1.33441,-1.88941 2.17422,-3.92803 2.68122,-5.49699 0.2535,-0.78448 0.42374,-1.45147 0.53073,-1.92334 0.0535,-0.23594 0.0912,-0.4231 0.11559,-0.55178 0.0122,-0.0643 0.0211,-0.11407 0.0269,-0.14797 0.003,-0.017 0.005,-0.0299 0.007,-0.0388 0.001,-0.009 0.002,-0.0137 0.002,-0.0142 0,-3e-5 0,-5e-5 0,-5e-5 1.1e-4,-1.7e-4 2.2e-4,-3.5e-4 3.3e-4,-5.3e-4 0,0 0,-2e-5 2e-5,-6e-5 1.6e-4,-4.9e-4 0.001,-0.004 0.003,-0.011 0.002,-0.007 0.005,-0.0168 0.009,-0.0298 0.008,-0.026 0.0193,-0.0642 0.0335,-0.11392 0.0283,-0.0994 0.0679,-0.24464 0.1132,-0.43031 0.0907,-0.37134 0.20461,-0.90421 0.29908,-1.55447 0.18893,-1.30053 0.29999,-3.07063 -0.009,-4.95694 -0.30912,-1.8863 -1.03881,-3.88832 -2.52945,-5.65561 -1.49064,-1.76729 -3.74253,-3.29948 -7.08791,-4.25684 -3.45463,-0.98863 -6.2626,-0.80237 -8.52817,0.029 -2.26557,0.83138 -3.98783,2.30673 -5.27405,3.90068 -1.28621,1.59395 -2.13663,3.30682 -2.66519,4.62217 -0.26428,0.65767 -0.44818,1.21607 -0.56623,1.61104 -0.059,0.19748 -0.10158,0.3541 -0.1295,0.46186 -0.014,0.0539 -0.0242,0.0955 -0.0311,0.12396 -0.003,0.0142 -0.006,0.0251 -0.008,0.0326 -0.002,0.007 -0.003,0.0115 -0.003,0.012 0,4e-5 -10e-6,5e-5 -10e-6,5e-5 0,0 0,2e-5 -1e-5,5e-5 -1.1e-4,5e-4 -0.001,0.005 -0.003,0.0121 -0.002,0.008 -0.004,0.0185 -0.007,0.0328 -0.006,0.0287 -0.0146,0.0708 -0.0252,0.12549 -0.0212,0.10948 -0.0507,0.26956 -0.0838,0.47391 -0.0663,0.4087 -0.14749,0.9945 -0.2078,1.70672 -0.12063,1.42442 -0.15785,3.35458 0.17505,5.38402 0.0659,0.40192 0.14638,0.80772 0.2436,1.21424 m 25.85707,-4.41789 c 0.0278,-0.16588 0.0549,-0.34251 0.0804,-0.52881 0.17626,-1.29221 0.27062,-3.05013 -0.0564,-4.92077 -0.32701,-1.87064 -1.07558,-3.85394 -2.58711,-5.59697 -1.51153,-1.74303 -3.78666,-3.24569 -7.16207,-4.1562 -3.48563,-0.94023 -6.31578,-0.71233 -8.60114,0.15864 -2.28535,0.87098 -4.02503,2.38488 -5.32727,4.01671 -1.30224,1.63182 -2.16701,3.38159 -2.70617,4.72529 -0.26957,0.67185 -0.45781,1.24219 -0.57889,1.64559 -0.0605,0.2017 -0.10429,0.36166 -0.13302,0.4717 -0.0144,0.055 -0.025,0.0976 -0.0321,0.1266 -0.004,0.0145 -0.006,0.0257 -0.008,0.0333 -0.002,0.008 -0.003,0.0118 -0.003,0.0123 -1e-5,3e-5 -1e-5,5e-5 -1e-5,5e-5 0,0 -10e-6,2e-5 -2e-5,5e-5 -1.1e-4,5.1e-4 -0.001,0.005 -0.003,0.0123 -0.002,0.008 -0.004,0.0189 -0.007,0.0335 -0.006,0.0293 -0.0151,0.0722 -0.0261,0.12812 -0.0221,0.11179 -0.0527,0.27523 -0.0873,0.48388 -0.0693,0.4173 -0.15476,1.01544 -0.22019,1.7428 -0.13084,1.45471 -0.18151,3.42632 0.1375,5.50184 0.319,2.07553 1.00724,4.25509 2.35676,6.12502 1.34953,1.86993 3.35996,3.43034 6.33387,4.26489 3.5337,0.99163 6.42738,0.93978 8.79644,0.25097 m -14.04736,-5.57588 c 0.046,0.0681 0.0928,0.13575 0.14051,0.20305 1.3273,1.87339 3.31113,3.43958 6.24268,4.2869 3.99361,1.15428 7.15074,0.93963 9.64318,-0.0339 2.49243,-0.97353 4.31915,-2.70501 5.64587,-4.58014 1.32671,-1.87513 2.15326,-3.89381 2.64793,-5.44518 0.24734,-0.77569 0.41177,-1.43461 0.51453,-1.90064 0.0514,-0.23301 0.0873,-0.41781 0.11054,-0.54486 0.0116,-0.0635 0.02,-0.11262 0.0255,-0.14608 0.003,-0.0167 0.005,-0.0296 0.006,-0.0383 0.001,-0.009 0.002,-0.0135 0.002,-0.014 10e-6,-3e-5 10e-6,-5e-5 10e-6,-5e-5 -2.1e-4,2.5e-4 -4.1e-4,4.9e-4 -6.1e-4,7.4e-4 0,0 0,-2e-5 1e-5,-5e-5 1.6e-4,-5e-4 0.001,-0.004 0.003,-0.0109 0.002,-0.007 0.005,-0.0166 0.009,-0.0294 0.008,-0.0257 0.0187,-0.0634 0.0324,-0.11241 0.0274,-0.098 0.0655,-0.24138 0.10895,-0.42454 0.087,-0.36632 0.19549,-0.89191 0.28293,-1.53284 0.17488,-1.28185 0.26543,-3.02508 -0.0699,-4.87774 -0.33533,-1.85266 -1.09621,-3.81513 -2.62707,-5.53196 -1.53087,-1.71684 -3.83162,-3.18815 -7.25401,-4.05015 -3.53415,-0.89014 -6.4102,-0.61987 -8.74034,0.29133 -1.86993,0.73123 -3.3886,1.87555 -4.61217,3.16235 m 22.90922,8.75599 c -0.016,-0.64524 -0.0731,-1.32445 -0.18915,-2.01943 -0.31118,-1.86424 -1.04631,-3.84193 -2.54819,-5.5806 -1.50189,-1.73867 -3.77011,-3.23784 -7.14901,-4.14826 -3.48923,-0.94015 -6.33193,-0.71576 -8.63177,0.15089 -2.29985,0.86664 -4.05732,2.37491 -5.37914,4.00037 -1.32181,1.62547 -2.20804,3.3681 -2.76447,4.70601 -0.27822,0.66895 -0.47396,1.23677 -0.60038,1.63835 -0.0632,0.2008 -0.1091,0.36003 -0.1393,0.46958 -0.0151,0.0548 -0.0263,0.0971 -0.0338,0.12602 -0.004,0.0145 -0.007,0.0255 -0.008,0.0332 -0.002,0.008 -0.003,0.0117 -0.003,0.0122 0,4e-5 -10e-6,5e-5 -10e-6,5e-5 0,0 0,2e-5 -1e-5,6e-5 -1.2e-4,5e-4 -0.001,0.005 -0.003,0.0122 -0.002,0.008 -0.004,0.0188 -0.008,0.0333 -0.007,0.0291 -0.0161,0.0719 -0.0278,0.12755 -0.0236,0.11128 -0.0563,0.27399 -0.0938,0.48168 -0.0749,0.4154 -0.16849,1.01078 -0.24413,1.73464 -0.15127,1.44773 -0.23082,3.4094 0.0543,5.47316 0.28516,2.06376 0.9352,4.22994 2.24247,6.08494 1.30728,1.85501 3.27193,3.39916 6.18268,4.21103 3.96528,1.106 7.10752,0.84667 9.58835,-0.16969 2.48083,-1.01636 4.29978,-2.79075 5.621,-4.70983 1.32122,-1.91908 2.14491,-3.98246 2.63838,-5.56896 0.24673,-0.79324 0.41093,-1.46718 0.5136,-1.94387 0.0513,-0.23834 0.0873,-0.42736 0.11047,-0.55733 0.0116,-0.065 0.02,-0.11519 0.0255,-0.14942 0.003,-0.0171 0.005,-0.0302 0.006,-0.0392 0.001,-0.009 0.002,-0.0138 0.002,-0.0143 1e-5,-4e-5 1e-5,-5e-5 1e-5,-5e-5 -2e-4,-5e-4 -4.1e-4,-10e-4 -6.1e-4,-0.001 0,-10e-6 1e-5,-2e-5 2e-5,-6e-5 1.5e-4,-5.1e-4 0.001,-0.004 0.003,-0.0112 0.002,-0.007 0.005,-0.017 0.009,-0.0301 0.008,-0.0263 0.0187,-0.0649 0.0324,-0.11506 0.0274,-0.10035 0.0655,-0.24707 0.10901,-0.43454 0.087,-0.37494 0.19574,-0.91287 0.28359,-1.56897 0.053,-0.39559 0.0984,-0.83413 0.12686,-1.30583 m -14.47895,16.73401 c 2.11893,0.15308 3.93978,-0.14843 5.50134,-0.75037 2.49051,-0.96003 4.32155,-2.68397 5.65637,-4.55475 1.33482,-1.87079 2.17374,-3.88883 2.67957,-5.44094 0.25291,-0.77605 0.42252,-1.43564 0.52904,-1.90222 0.0533,-0.2333 0.0907,-0.41833 0.115,-0.54556 0.0121,-0.0636 0.0209,-0.11277 0.0268,-0.14629 0.003,-0.0167 0.005,-0.0296 0.007,-0.0384 0.001,-0.009 0.002,-0.0135 0.002,-0.014 1e-5,-3e-5 1e-5,-4e-5 1e-5,-4e-5 7e-5,2e-4 1.4e-4,4e-4 2.1e-4,6e-4 0,0 1e-5,-2e-5 2e-5,-6e-5 1.6e-4,-4.9e-4 0.001,-0.004 0.003,-0.0109 0.002,-0.007 0.005,-0.0166 0.009,-0.0295 0.008,-0.0257 0.0192,-0.0635 0.0333,-0.11258 0.0282,-0.0982 0.0676,-0.24177 0.11268,-0.42524 0.0902,-0.36695 0.20349,-0.8935 0.29703,-1.53585 0.1871,-1.28468 0.29533,-3.03263 -0.0177,-4.89231 -0.31302,-1.85968 -1.04755,-3.83118 -2.54472,-5.56044 -1.49717,-1.72926 -3.75717,-3.21624 -7.11588,-4.10368 -3.46838,-0.91641 -6.28848,-0.66895 -8.56565,0.22083 -2.27717,0.88979 -4.01083,2.42207 -5.3083,4.0723 -1.29747,1.65024 -2.15892,3.41834 -2.69597,4.77639 -0.26852,0.67902 -0.456,1.25548 -0.57658,1.66321 -0.0603,0.20386 -0.10384,0.36554 -0.13245,0.47676 -0.0143,0.0556 -0.0249,0.0986 -0.0319,0.12796 -0.004,0.0147 -0.006,0.0259 -0.008,0.0337 -0.002,0.008 -0.003,0.0119 -0.003,0.0124 -10e-6,4e-5 -10e-6,6e-5 -10e-6,6e-5 0,0 0,10e-6 -1e-5,5e-5 -1.2e-4,5.1e-4 -0.001,0.005 -0.003,0.0124 -0.002,0.008 -0.004,0.0191 -0.007,0.0339 -0.006,0.0296 -0.015,0.073 -0.026,0.1295 -0.0219,0.11297 -0.0524,0.27816 -0.0868,0.48905 -0.0689,0.42178 -0.15377,1.02637 -0.21864,1.76175 -0.12974,1.47078 -0.17945,3.46475 0.13953,5.56629 0.31899,2.10154 1.00631,4.31034 2.35382,6.21305 1.34751,1.90272 3.35506,3.49885 6.32343,4.38469 0.4766,0.14223 0.94152,0.26525 1.39502,0.37008 m -9.92321,-5.77781 4.31573,4.77238 m 19.07726,-4.19497 2.38916,-5.21984 m -9.23893,10.87516 5.0582,-3.16281 m 3.96272,-21.89526 -5.93268,-4.76008 m -20.28548,9.81893 -0.69912,6.74512"
       id="path3863"
       inkscape:connector-curvature="0"
       sodipodi:nodetypes="cscsc"
       inkscape:path-effect="#path-effect3889"
       inkscape:original-d="m 144.27262,594.4855 c 0,0 4.22524,-13.15969 -9.3243,-16.79028 -13.99026,-3.74867 -17.53603,11.23312 -17.53603,11.23312 0,0 -3.52146,14.97471 8.19992,18.36334 15.96568,4.61563 18.66041,-12.80618 18.66041,-12.80618 z" />
    <path
       inkscape:original-d="m 171.78433,584.47133 c 0,0 -6.31761,-12.293 -18.4658,-5.27925 -12.54331,7.2419 -4.45683,20.34286 -4.45683,20.34286 0,0 8.09867,13.07877 18.78306,7.18663 14.55319,-8.0257 4.13957,-22.25024 4.13957,-22.25024 z"
       inkscape:path-effect="#path-effect3891"
       sodipodi:nodetypes="cscsc"
       inkscape:connector-curvature="0"
       id="path3865"
       d="m 168.18146,581.12421 c -0.15282,-0.12088 -0.30985,-0.2399 -0.47107,-0.35649 -1.53264,-1.10832 -3.44488,-1.99632 -5.72945,-2.17202 -2.28456,-0.17569 -4.94075,0.36047 -7.96294,2.10099 -3.12087,1.79735 -4.96358,3.96635 -5.96886,6.20687 -1.00529,2.24051 -1.17383,4.55295 -0.95165,6.64115 0.22218,2.0882 0.83494,3.95228 1.39306,5.29612 0.27905,0.67192 0.54448,1.21377 0.74069,1.58852 0.0981,0.18738 0.17891,0.33298 0.23546,0.43218 0.0283,0.0496 0.0505,0.0876 0.0658,0.11342 0.008,0.0129 0.0135,0.0228 0.0176,0.0295 0.004,0.007 0.006,0.0104 0.007,0.0108 2e-5,3e-5 2e-5,4e-5 2e-5,4e-5 0,0 1e-5,2e-5 3e-5,5e-5 0.009,0.0142 2.02479,3.28467 5.36504,5.81938 1.67013,1.26735 3.6716,2.35058 5.91871,2.7504 2.24712,0.39983 4.74005,0.1162 7.38881,-1.34886 3.60837,-1.99584 5.66489,-4.38051 6.71727,-6.83462 1.05238,-2.45412 1.10005,-4.97752 0.69353,-7.25179 -0.13065,-0.73093 -0.30817,-1.43614 -0.51419,-2.10509 m -7.2672,14.195 c 0.002,-8.9e-4 0.003,-0.002 0.005,-0.003 3.61833,-2.01846 5.68978,-4.41593 6.7572,-6.88028 1.06743,-2.46434 1.13158,-4.99511 0.74248,-7.27503 -0.3891,-2.27992 -1.23122,-4.30881 -1.97702,-5.76929 -0.37289,-0.73024 -0.72174,-1.31839 -0.978,-1.72483 -0.12812,-0.20322 -0.2331,-0.36101 -0.30635,-0.46842 -0.0366,-0.0537 -0.0653,-0.0948 -0.085,-0.1227 -0.01,-0.014 -0.0174,-0.0246 -0.0227,-0.0318 -0.005,-0.007 -0.008,-0.0111 -0.008,-0.0116 -2e-5,-3e-5 -3e-5,-4e-5 -3e-5,-4e-5 0,0 0,-2e-5 -2e-5,-5e-5 -2.4e-4,-4.7e-4 -0.002,-0.004 -0.005,-0.0102 -0.003,-0.006 -0.008,-0.0155 -0.0145,-0.0274 -0.0127,-0.0238 -0.0315,-0.0586 -0.0564,-0.10343 -0.0498,-0.0896 -0.12402,-0.21927 -0.22248,-0.38128 -0.19694,-0.32401 -0.49095,-0.77742 -0.88107,-1.29869 -0.78026,-1.04254 -1.94498,-2.35651 -3.48665,-3.44978 -1.54168,-1.09327 -3.46054,-1.96595 -5.7478,-2.12554 -2.28725,-0.15958 -4.94304,0.39385 -7.95402,2.15487 -3.10929,1.81852 -4.93521,4.00125 -5.92282,6.25363 -0.98762,2.25238 -1.13643,4.57465 -0.89354,6.67155 0.24289,2.0969 0.87735,3.96836 1.45259,5.31753 0.28762,0.67458 0.5604,1.21858 0.76183,1.59482 0.10071,0.18812 0.18359,0.3343 0.24157,0.4339 0.029,0.0498 0.0517,0.0879 0.0674,0.11387 0.008,0.013 0.0139,0.0229 0.018,0.0296 0.004,0.007 0.006,0.0104 0.007,0.0109 2e-5,3e-5 3e-5,4e-5 3e-5,4e-5 0,0 1e-5,2e-5 3e-5,5e-5 0.002,0.003 0.0754,0.12003 0.21654,0.32576 m 14.74076,-20.67232 c -1.13511,-0.52255 -2.40968,-0.89216 -3.82212,-0.99738 -2.31534,-0.1725 -5.00166,0.36557 -8.05025,2.10292 -3.14814,1.79409 -5.00044,3.95622 -6.01125,6.18901 -1.01082,2.2328 -1.17952,4.53608 -0.95461,6.61429 0.2249,2.07821 0.84357,3.93142 1.40723,5.26654 0.28183,0.66756 0.5499,1.20562 0.74804,1.57768 0.0991,0.18602 0.18065,0.33055 0.23775,0.429 0.0285,0.0492 0.051,0.087 0.0664,0.11257 0.008,0.0128 0.0137,0.0226 0.0178,0.0293 0.004,0.007 0.006,0.0103 0.007,0.0107 2e-5,3e-5 3e-5,5e-5 3e-5,5e-5 0,0 10e-6,10e-6 3e-5,4e-5 0.009,0.0141 2.04273,3.26043 5.41541,5.76084 1.68633,1.25021 3.70707,2.31403 5.97623,2.69226 2.26916,0.37822 4.78658,0.0711 7.46961,-1.42675 3.65505,-2.04051 5.74865,-4.46094 6.8344,-6.94805 0.96144,-2.20236 1.13293,-4.45754 0.89773,-6.54571 m -6.74541,14.00227 c 0.0738,-0.0381 0.14781,-0.0771 0.2219,-0.11698 3.67249,-1.97685 5.77074,-4.35231 6.85927,-6.79875 1.08852,-2.44645 1.16667,-4.9643 0.78789,-7.23376 -0.37877,-2.26946 -1.21487,-4.29081 -1.9574,-5.74636 -0.37126,-0.72778 -0.71914,-1.31411 -0.97478,-1.71932 -0.12783,-0.20261 -0.2326,-0.35993 -0.30571,-0.46702 -0.0366,-0.0535 -0.0652,-0.0945 -0.0849,-0.12235 -0.01,-0.0139 -0.0174,-0.0245 -0.0226,-0.0317 -0.005,-0.007 -0.008,-0.0111 -0.008,-0.0115 -1e-5,-2e-5 -2e-5,-3e-5 -2e-5,-3e-5 0,0 -1e-5,-2e-5 -3e-5,-6e-5 -2.4e-4,-4.6e-4 -0.002,-0.004 -0.005,-0.0102 -0.003,-0.006 -0.008,-0.0154 -0.0144,-0.0273 -0.0127,-0.0238 -0.0315,-0.0585 -0.0563,-0.10316 -0.0497,-0.0894 -0.12379,-0.21868 -0.22212,-0.38025 -0.19664,-0.32315 -0.49031,-0.77538 -0.8803,-1.29539 -0.77997,-1.04002 -1.9453,-2.35121 -3.48958,-3.44255 -1.54427,-1.09134 -3.46747,-1.96285 -5.76185,-2.12229 -2.29437,-0.15943 -4.95987,0.39323 -7.98807,2.15126 -3.12708,1.81545 -4.96928,3.99456 -5.9722,6.24361 -1.00292,2.24905 -1.16661,4.56805 -0.93803,6.66196 0.22858,2.0939 0.84944,3.9627 1.41447,5.31 0.28251,0.67366 0.55105,1.21692 0.7495,1.59265 0.0992,0.18787 0.18093,0.33386 0.23811,0.43332 0.0286,0.0497 0.051,0.0878 0.0665,0.11372 0.008,0.013 0.0137,0.0228 0.0178,0.0296 0.004,0.007 0.006,0.0104 0.007,0.0109 2e-5,3e-5 3e-5,4e-5 3e-5,5e-5 0,0 10e-6,10e-6 3e-5,4e-5 0.009,0.0142 2.04491,3.293 5.41872,5.83786 1.68691,1.27243 3.70817,2.36131 5.97835,2.76777 2.27019,0.40646 4.78891,0.1302 7.47573,-1.32297 0.3537,-0.1913 0.69285,-0.38624 1.01793,-0.58452 m -4.33884,-29.44288 c -1.33103,-0.74747 -2.88206,-1.29846 -4.64925,-1.43216 -2.307,-0.17454 -4.98321,0.36199 -8.01522,2.09981 -3.13101,1.79457 -4.96809,3.95902 -5.96408,6.19458 -0.99599,2.23556 -1.14986,4.54228 -0.91002,6.62434 0.23983,2.08207 0.87348,3.93955 1.44885,5.27812 0.28768,0.66929 0.56073,1.20886 0.7624,1.58199 0.10084,0.18656 0.18383,0.33152 0.24189,0.43027 0.029,0.0494 0.0518,0.0872 0.0675,0.11291 0.008,0.0128 0.0139,0.0227 0.0181,0.0294 0.004,0.007 0.006,0.0103 0.007,0.0108 2e-5,3e-5 3e-5,5e-5 3e-5,5e-5 0,0 1e-5,10e-6 3e-5,5e-5 0.009,0.0141 2.07418,3.2701 5.48859,5.78443 1.70721,1.25717 3.75122,2.3289 6.04611,2.71596 2.29489,0.38706 4.84013,0.0896 7.56219,-1.39481 3.70822,-2.02216 5.8448,-4.42786 6.97073,-6.90139 1.12592,-2.47354 1.24285,-5.0153 0.90425,-7.3077 -0.3386,-2.2924 -1.1333,-4.33537 -1.84325,-5.80746 -0.35497,-0.73605 -0.68889,-1.32932 -0.93464,-1.73943 -0.0674,-0.11249 -0.12818,-0.2112 -0.18094,-0.2953 m -1.08155,20.85586 c 1.61274,-1.41015 2.68671,-2.93401 3.35909,-4.48768 1.06144,-2.45263 1.12224,-4.97974 0.7313,-7.2607 -0.39095,-2.28096 -1.23316,-4.31627 -1.9784,-5.78366 -0.37262,-0.73369 -0.72106,-1.32533 -0.97698,-1.73436 -0.12796,-0.20452 -0.23279,-0.36338 -0.30594,-0.47154 -0.0366,-0.0541 -0.0652,-0.0955 -0.0849,-0.12356 -0.01,-0.014 -0.0174,-0.0248 -0.0226,-0.0321 -0.005,-0.007 -0.008,-0.0112 -0.008,-0.0116 -2e-5,-2e-5 -3e-5,-4e-5 -3e-5,-4e-5 0,0 0,-2e-5 -2e-5,-5e-5 -2.4e-4,-4.7e-4 -0.002,-0.004 -0.005,-0.0103 -0.003,-0.006 -0.008,-0.0156 -0.0145,-0.0276 -0.0127,-0.024 -0.0315,-0.059 -0.0563,-0.10413 -0.0497,-0.0902 -0.1238,-0.22077 -0.22209,-0.38395 -0.19658,-0.32636 -0.49004,-0.78323 -0.87938,-1.30913 -0.77867,-1.05179 -1.94078,-2.37971 -3.47854,-3.49165 -1.53776,-1.11195 -3.45156,-2.00743 -5.7317,-2.19728 -2.28013,-0.18985 -4.9269,0.32631 -7.92248,2.02695 -3.09339,1.75619 -4.90489,3.88449 -5.87858,6.08493 -0.97368,2.20045 -1.10862,4.47189 -0.85191,6.51872 0.25672,2.04682 0.90486,3.86935 1.49069,5.18088 0.29292,0.65577 0.57018,1.1839 0.77478,1.54894 0.1023,0.18252 0.18643,0.32427 0.24527,0.42082 0.0294,0.0483 0.0525,0.0853 0.0684,0.11038 0.008,0.0126 0.0141,0.0222 0.0183,0.0287 0.004,0.007 0.007,0.0101 0.007,0.0105 2e-5,3e-5 3e-5,4e-5 3e-5,4e-5 0,0 1e-5,10e-6 3e-5,4e-5 0.009,0.0138 2.1001,3.19768 5.53794,5.62185 0.36697,0.25876 0.7493,0.50885 1.14613,0.74544 m 14.09167,-22.25043 c -0.0979,-0.13766 -0.20395,-0.28245 -0.31803,-0.4329 -0.79129,-1.04354 -1.97003,-2.35936 -3.52561,-3.45571 -1.55558,-1.09636 -3.48819,-1.97322 -5.78914,-2.1389 -2.30095,-0.16568 -4.97087,0.3799 -7.99637,2.12726 -3.12428,1.80443 -4.95789,3.97428 -5.95128,6.21423 -0.9934,2.23996 -1.14572,4.54988 -0.90497,6.63451 0.24075,2.08463 0.87459,3.94399 1.44986,5.28383 0.28763,0.66992 0.56057,1.20998 0.76214,1.58343 0.10079,0.18673 0.18374,0.33181 0.24176,0.43065 0.029,0.0494 0.0518,0.0873 0.0675,0.11301 0.008,0.0129 0.0139,0.0227 0.0181,0.0294 0.004,0.007 0.006,0.0103 0.007,0.0108 2e-5,3e-5 3e-5,4e-5 3e-5,4e-5 0,0 1e-5,2e-5 3e-5,5e-5 0.009,0.0141 2.07325,3.27283 5.48337,5.78907 1.70506,1.25811 3.7462,2.33067 6.03737,2.71855 2.29116,0.38787 4.83198,0.0912 7.54693,-1.39197 3.22597,-1.76229 5.25685,-3.81637 6.4645,-5.95253 m -13.03158,6.44273 c 0.0809,0.0158 0.16208,0.0307 0.2436,0.0448 2.26895,0.39133 4.78317,0.1004 7.45575,-1.36996 3.64082,-2.00306 5.71556,-4.38701 6.78245,-6.8384 1.06689,-2.45139 1.12494,-4.96927 0.7263,-7.23595 -0.39864,-2.26668 -1.25413,-4.28206 -2.01169,-5.73186 -0.37878,-0.7249 -0.73303,-1.30848 -0.99319,-1.71166 -0.13008,-0.20159 -0.23663,-0.35809 -0.31098,-0.46461 -0.0372,-0.0533 -0.0663,-0.094 -0.0863,-0.12168 -0.01,-0.0138 -0.0177,-0.0244 -0.023,-0.0316 -0.005,-0.007 -0.008,-0.011 -0.008,-0.0115 -2e-5,-3e-5 -3e-5,-4e-5 -3e-5,-4e-5 0,0 -1e-5,-2e-5 -3e-5,-5e-5 -2.4e-4,-4.6e-4 -0.002,-0.004 -0.005,-0.0101 -0.003,-0.006 -0.008,-0.0154 -0.0147,-0.0272 -0.0129,-0.0236 -0.0321,-0.0582 -0.0574,-0.10262 -0.0507,-0.0889 -0.12619,-0.21753 -0.22632,-0.37822 -0.20026,-0.32137 -0.4991,-0.771 -0.89542,-1.2876 -0.79264,-1.03321 -1.97515,-2.33438 -3.53902,-3.41281 -1.56386,-1.07843 -3.50873,-1.9345 -5.82896,-2.07404 -2.32023,-0.13954 -5.01572,0.43733 -8.08813,2.23312 -3.17272,1.85444 -5.05217,4.0666 -6.09032,6.34672 -0.84908,1.86488 -1.1357,3.77558 -1.1052,5.5713 m 22.1619,-10.18326 c -0.46829,-0.44172 -0.98959,-0.87845 -1.5636,-1.28478 -1.53975,-1.08996 -3.45892,-1.96121 -5.75022,-2.12253 -2.29131,-0.16133 -4.95432,0.38775 -7.98331,2.1352 -3.12789,1.80451 -4.97403,3.97085 -5.98192,6.20648 -1.00789,2.23562 -1.17799,4.5399 -0.95682,6.61818 0.22117,2.07827 0.83354,3.9305 1.39154,5.26454 0.279,0.66702 0.54443,1.20455 0.74066,1.5762 0.0981,0.18582 0.17893,0.33018 0.23549,0.42852 0.0283,0.0492 0.0505,0.0868 0.0658,0.11243 0.008,0.0128 0.0135,0.0226 0.0176,0.0293 0.004,0.007 0.006,0.0103 0.007,0.0107 2e-5,3e-5 3e-5,4e-5 3e-5,4e-5 0,0 1e-5,2e-5 3e-5,5e-5 0.009,0.014 2.02507,3.25654 5.3675,5.74924 1.67122,1.24635 3.67415,2.30553 5.92308,2.67848 2.24892,0.37295 4.74396,0.06 7.39574,-1.44583 3.61249,-2.05135 5.67234,-4.47998 6.72763,-6.97419 1.05529,-2.49421 1.10556,-5.05501 0.70142,-7.36564 -0.40414,-2.31063 -1.26247,-4.37071 -2.02125,-5.85563 -0.37938,-0.74246 -0.73385,-1.34105 -0.9941,-1.75489 -0.13013,-0.20692 -0.2367,-0.36765 -0.31105,-0.47708 -0.0372,-0.0547 -0.0663,-0.0966 -0.0863,-0.12503 -0.01,-0.0142 -0.0177,-0.0251 -0.023,-0.0325 -0.005,-0.007 -0.008,-0.0114 -0.008,-0.0118 -2e-5,-3e-5 -3e-5,-4e-5 -3e-5,-4e-5 0,0 -1e-5,-2e-5 -3e-5,-6e-5 -2.4e-4,-4.7e-4 -0.002,-0.004 -0.005,-0.0104 -0.003,-0.006 -0.008,-0.0158 -0.0147,-0.0279 -0.0129,-0.0242 -0.0321,-0.0597 -0.0574,-0.10527 -0.0507,-0.0912 -0.12617,-0.22321 -0.22627,-0.3882 -0.20019,-0.32997 -0.49888,-0.79192 -0.8948,-1.32368 -0.25572,-0.34345 -0.55199,-0.71602 -0.8885,-1.10099 m 2.01331,22.53127 c 1.5902,-1.39032 2.65214,-2.8903 3.31988,-4.41887 1.06498,-2.43788 1.12734,-4.94822 0.7368,-7.21056 -0.39053,-2.26233 -1.23365,-4.27707 -1.98006,-5.72761 -0.3732,-0.72527 -0.72227,-1.30951 -0.97867,-1.71324 -0.12819,-0.20187 -0.23322,-0.35862 -0.30651,-0.46531 -0.0366,-0.0533 -0.0653,-0.0942 -0.085,-0.12189 -0.01,-0.0138 -0.0175,-0.0244 -0.0227,-0.0316 -0.005,-0.007 -0.008,-0.0111 -0.008,-0.0115 -2e-5,-3e-5 -3e-5,-4e-5 -3e-5,-4e-5 0,0 -1e-5,-2e-5 -3e-5,-5e-5 -2.3e-4,-4.6e-4 -0.002,-0.004 -0.005,-0.0102 -0.003,-0.006 -0.008,-0.0154 -0.0145,-0.0272 -0.0127,-0.0237 -0.0315,-0.0583 -0.0565,-0.10279 -0.0498,-0.0891 -0.12409,-0.21791 -0.2226,-0.3789 -0.19703,-0.32199 -0.49116,-0.77256 -0.8814,-1.29056 -0.78049,-1.036 -1.94541,-2.34183 -3.48705,-3.42722 -1.54164,-1.08539 -3.46026,-1.95045 -5.7469,-2.10236 -2.28664,-0.15191 -4.94149,0.40935 -7.95035,2.17978 -3.1071,1.82824 -4.9307,4.01762 -5.91596,6.27636 -0.98526,2.25875 -1.13159,4.58702 -0.88611,6.69004 0.24548,2.10301 0.88261,3.98068 1.45997,5.33484 0.28868,0.67708 0.56236,1.22324 0.76444,1.60103 0.10104,0.18889 0.18417,0.33568 0.24232,0.4357 0.0291,0.05 0.0519,0.0883 0.0676,0.11437 0.008,0.013 0.0139,0.023 0.0181,0.0298 0.004,0.007 0.006,0.0105 0.007,0.0109 2e-5,4e-5 3e-5,5e-5 3e-5,5e-5 0,0 1e-5,2e-5 3e-5,5e-5 0.009,0.0143 2.07752,3.31118 5.48756,5.87935 1.70502,1.28408 3.74521,2.38584 6.03435,2.80643 2.28913,0.4206 4.82705,0.15954 7.53642,-1.27238 0.46672,-0.24667 0.90832,-0.49964 1.32593,-0.75827 m -11.69619,2.32532 6.42415,0.36271 m 10.6102,-16.37963 -1.97757,-5.38925 m 1.07178,14.21649 1.3827,-5.80317 m -12.66523,-18.36842 -7.56206,0.81869 m -7.44349,21.25035 4.26474,5.27232"
       style="fill:none;stroke:#000000;stroke-width:0.31683266px;stroke-linecap:butt;stroke-linejoin:miter;stroke-opacity:1" />
    <path
       inkscape:original-d="m 127.94959,616.61778 c 1.3181,4.87844 20.91907,12.23573 39.81648,2.68426"
       inkscape:path-effect="#path-effect3893"
       inkscape:connector-curvature="0"
       id="path3867"
       d="m 133.97833,623.94302 c 2.28406,1.04735 5.23812,1.94805 8.63246,2.48526 5.1732,0.81874 11.36791,0.79413 17.79224,-0.8579 m -25.41439,-4.97632 c 1.90621,0.73368 4.16027,1.35459 6.67211,1.76969 7.01016,1.15847 16.03002,0.71565 25.07147,-3.37473 m -36.86083,2.62439 c 0.1858,0.10782 0.37824,0.21467 0.57712,0.32034 2.27408,1.20838 5.39084,2.26335 9.06665,2.86147 5.46947,0.88999 12.17813,0.76933 19.16461,-1.3694 m -23.41476,-0.23636 c 1.96824,0.78152 4.28923,1.45033 6.86479,1.90738 5.05891,0.89773 11.09848,0.97737 17.39325,-0.49881 m -31.88538,-7.15647 c 0.6648,0.57984 1.53048,1.15624 2.57086,1.70132 2.29487,1.20233 5.44017,2.25248 9.15493,2.85102 6.71489,1.08194 15.29103,0.69083 24.03196,-2.9708 m -11.35578,4.78993 3.19237,-0.39888"
       style="fill:none;stroke:#000000;stroke-width:1px;stroke-linecap:butt;stroke-linejoin:miter;stroke-opacity:1"
       sodipodi:nodetypes="cc" />
    <path
       inkscape:original-d="M 122.58108,589.7752 91.26474,575.45916 85.89623,588.88045"
       inkscape:path-effect="#path-effect3895"
       inkscape:connector-curvature="0"
       id="path3869"
       d="m 117.86702,590.21909 c -8.29694,-3.9929 -16.69967,-7.91488 -25.170559,-11.79647 -0.625826,1.55769 -1.253875,3.1167 -1.883926,4.67684 m 24.496655,2.18267 c -7.93791,-3.65537 -15.813528,-7.2716 -23.641483,-10.86004 -1.566118,3.97032 -3.12062,7.94742 -4.665264,11.92992 m 29.350577,2.8118 c -9.06891,-4.13552 -18.028814,-8.2811 -26.922356,-12.45279 -0.821032,2.03241 -1.638666,4.06349 -2.453396,6.09304 m 28.680212,5.10389 c -7.72249,-3.48627 -15.51183,-7.01668 -23.334816,-10.56776 -0.551103,1.41198 -1.10323,2.82334 -1.656204,4.23419 m 27.70602,5.84693 c -9.77282,-4.51366 -19.375701,-8.9929 -28.84606,-13.47057 -1.35418,3.51823 -2.691206,7.03667 -4.012818,10.55377 m 9.525327,-7.32001 -2.92595,-1.33757 m -4.619873,9.04133 -1.066007,2.66501 m 2.789093,-6.97274 -1.107787,2.76948 m 28.907395,3.88106 -3.45884,-1.58118 m -12.01288,-5.4916 -3.083684,-1.40969"
       style="fill:none;stroke:#000000;stroke-width:1px;stroke-linecap:butt;stroke-linejoin:miter;stroke-opacity:1" />
    <path
       inkscape:original-d="m 170.00295,590.66996 32.21109,-16.10554 3.57901,17.00029"
       inkscape:path-effect="#path-effect3897"
       inkscape:connector-curvature="0"
       id="path3871"
       d="m 177.05671,590.90866 c 8.96556,-4.52808 17.81289,-8.97719 26.58649,-13.38315 0.54154,2.59335 1.07772,5.18983 1.60939,7.78876 m -27.23046,0.596 c 8.13668,-4.16653 16.34337,-8.28895 24.60267,-12.38088 1.10864,5.139 2.23444,10.28795 3.37419,15.44432 m -33.06349,0.92513 c 9.04424,-4.6824 18.2097,-9.37578 27.44631,-14.0991 0.66072,3.08386 1.32824,6.16487 2.00107,9.24245 m -24.08293,3.49512 c 8.38941,-3.98723 16.7038,-8.02415 24.98264,-12.08275 0.52717,2.44446 1.05175,4.88734 1.5745,7.32919 m -34.34141,4.45 c 9.82288,-5.08791 19.83314,-10.13801 29.98737,-15.18818 1.07141,4.65473 2.16945,9.30945 3.29068,13.96114 m -4.08019,-11.19204 2.87754,-1.43877 m 2.26189,12.72345 0.59132,2.80874 m -1.63398,-7.76137 0.6145,2.91883 m -28.2887,2.53783 3.40162,-1.70081 m 13.19689,-6.59844 3.03267,-1.51634"
       style="fill:none;stroke:#000000;stroke-width:1px;stroke-linecap:butt;stroke-linejoin:miter;stroke-opacity:1" />
    <path
       inkscape:connector-curvature="0"
       id="path3873"
       d="m 136.63928,586.07527 -16.49276,9.17858 19.50447,-3.7288 -12.33371,6.88393 10.46932,-2.00781 -4.58929,4.30246"
       style="fill:none;stroke:#000000;stroke-width:1.28227901px;stroke-linecap:butt;stroke-linejoin:miter;stroke-opacity:1" />
    <path
       style="fill:none;stroke:#000000;stroke-width:1.28227901px;stroke-linecap:butt;stroke-linejoin:miter;stroke-opacity:1"
       d="m 167.58196,587.02943 -17.61311,6.78497 19.83409,-0.96795 -13.17433,5.09374 10.64714,-0.52583 -5.14526,3.61927"
       id="path3875"
       inkscape:connector-curvature="0" />
    <path
       inkscape:original-d="m 147.10923,647.92265 0,163.86554"
       inkscape:path-effect="#path-effect3899"
       inkscape:connector-curvature="0"
       id="path3877"
       d="m 148.81574,652.36005 c 0.79404,29.69534 -0.25506,60.60204 -0.78073,90.8782 -0.0149,0.85849 -0.0293,1.71665 -0.0433,2.57449 m 1.38727,-31.49982 c 0.68613,29.79609 -0.82123,60.19604 -2.45129,90.02041 m -1.48201,-23.29894 c -0.26286,9.92003 -0.31272,20.08817 -0.24225,30.40289 m 4.06801,-160.13246 c -0.85041,30.42611 -0.45532,60.20805 -1.34972,89.7389 -0.0734,2.42366 -0.12672,4.85474 -0.16142,7.29196 m -2.72939,-30.52396 c -0.56197,30.80536 0.99654,59.20982 2.9955,86.74345 0.0798,1.09971 0.15066,2.20876 0.21284,3.3266 m -0.50178,-163.21128 c 0.39358,30.53873 0.17263,61.0897 0.50612,92.37557 0.005,0.44345 0.009,0.88669 0.0133,1.32975 m 1.3392,-19.15715 c 0.48483,30.63686 -0.26859,59.88266 -0.78063,88.72633 -0.004,0.21051 -0.007,0.42114 -0.0111,0.6319 m 1.97071,-28.14642 c 0.24731,9.96153 0.30151,20.18323 0.24423,30.5636 m -4.49577,-163.70859 c 0.80796,31.00227 -0.84946,59.83743 -2.57371,88.59964 -0.12298,2.05158 -0.22875,4.11609 -0.31918,6.19187 m 1.57566,-28.79192 c 0.68181,30.46874 0.67966,62.34488 2.04587,96.15138 0.0606,1.50017 0.11658,2.98337 0.16821,4.45051 m -3.70739,-166.26408 c -0.33719,30.68614 0.5287,60.32679 1.58215,90.0974 0.0367,1.03606 0.0699,2.07336 0.0999,3.11185 m -1.43203,-28.30326 c -0.30202,30.8058 0.72097,61.15847 2.17275,92.56533 0.087,1.88202 0.16487,3.75724 0.23455,5.62636 m 0.73889,-57.50984 0,3.21718 m 0,44.32364 0,2.87031"
       style="fill:none;stroke:#000000;stroke-width:1px;stroke-linecap:butt;stroke-linejoin:miter;stroke-opacity:1" />
    <path
       sodipodi:nodetypes="cc"
       style="fill:none;stroke:#000000;stroke-width:1px;stroke-linecap:butt;stroke-linejoin:miter;stroke-opacity:1"
       d="m 225.03649,683.97023 c -24.40784,11.05423 -50.35374,23.12066 -76.03423,34.79175 m 75.05729,-40.67134 c -25.46068,11.33035 -49.88758,23.31971 -74.11993,35.28754 m 71.22057,-31.70785 c -25.84599,11.32374 -50.25643,22.52721 -74.99507,32.92656 m 78.31513,-32.65204 c -24.38204,12.15865 -49.8639,23.57932 -74.54042,35.64171 m 70.82669,-39.84206 c -25.62748,11.20182 -49.35603,22.78034 -72.4018,33.70278 m 27.23892,-9.87464 -2.92079,1.3488 m -19.03202,8.78886 -2.60588,1.20337 m 9.72571,-4.49126 -2.70801,1.25054 m 54.62346,-25.22475 -3.45275,1.59446 m -22.65331,10.46114 -3.07825,1.42152"
       id="path3879"
       inkscape:connector-curvature="0"
       inkscape:path-effect="#path-effect3901"
       inkscape:original-d="m 223.33007,679.53289 -75.40016,34.81929" />
    <path
       inkscape:original-d="M 145.50976,713.06521 77.06914,679.55448"
       inkscape:path-effect="#path-effect3903"
       inkscape:connector-curvature="0"
       id="path3881"
       d="M 147.21618,717.50247 C 125.06837,705.8256 101.62605,695.00159 78.281414,683.94142 m 67.957826,27.68146 C 123.1254,700.19937 100.88242,689.33038 78.860694,678.49096 m 64.479186,36.7116 C 119.87249,703.77299 97.613106,692.24151 75.200731,680.0815 m 71.459209,35.39558 c -22.12413,-10.6635 -45.17486,-21.9482 -67.678828,-32.78856 m 63.965098,28.58822 C 119.67932,699.73529 98.010524,688.51154 77.001913,676.8063"
       style="fill:none;stroke:#000000;stroke-width:1px;stroke-linecap:butt;stroke-linejoin:miter;stroke-opacity:1"
       sodipodi:nodetypes="cc" />
    <path
       inkscape:original-d="m 177.14404,889.58446 -30.4795,-81.59483"
       inkscape:path-effect="#path-effect3905"
       inkscape:connector-curvature="0"
       id="path3883"
       d="m 178.85052,894.02167 c -9.39895,-27.77732 -20.48988,-54.44176 -31.19167,-81.61568 m 30.21472,75.73609 c -10.50312,-27.48773 -19.86954,-54.2504 -29.06631,-81.07365 m 26.16696,84.65333 C 164.06699,864.2271 154.73914,836.6006 144.95494,808.05213 m 33.33934,83.94415 c -9.37189,-26.61903 -19.95305,-54.04984 -29.54703,-80.7007 m 9.07657,26.56789 -1.12579,-3.01378 m -7.74538,-20.73469 -1.00441,-2.68884"
       style="fill:none;stroke:#000000;stroke-width:1px;stroke-linecap:butt;stroke-linejoin:miter;stroke-opacity:1"
       sodipodi:nodetypes="cc" />
    <path
       sodipodi:nodetypes="cc"
       style="fill:none;stroke:#000000;stroke-width:1px;stroke-linecap:butt;stroke-linejoin:miter;stroke-opacity:1"
       d="m 56.109649,854.79522 c 28.214703,-13.49539 54.586271,-25.77943 81.481261,-38.694 0.76262,-0.36619 1.52572,-0.73272 2.28927,-1.09957 m -22.33555,5.86639 c 11.37448,-5.37851 22.38524,-10.65828 33.17342,-15.91727 M 52.739598,850.2381 c 26.640691,-13.7553 55.138922,-25.33914 83.127092,-37.365 0.19224,-0.0826 0.38444,-0.16527 0.57661,-0.248 m -21.14266,11.70724 c 11.13403,-5.52309 22.65634,-10.96699 34.45611,-16.43012 m -97.431924,43.00899 c 26.858694,-12.38537 55.837874,-27.17162 85.257494,-42.82874 1.30198,-0.69291 2.59288,-1.37437 3.87323,-2.0451 m -24.98371,12.18383 c 11.06285,-5.03221 22.02945,-10.06295 32.97219,-15.04619 m -96.582909,51.53356 c 27.940988,-13.28455 56.189719,-25.69386 86.290729,-38.41985 0.21969,-0.0929 0.43907,-0.18581 0.65816,-0.2788 m -23.58088,3.30441 c 11.20443,-4.99379 22.64593,-10.15052 34.24405,-15.28872 m -96.697876,46.11677 c 28.30612,-12.63105 54.863406,-25.91559 82.303886,-39.09506 1.9573,-0.94008 3.91008,-1.88109 5.85835,-2.82337 m -25.59913,9.78477 c 10.85821,-4.85477 21.44138,-9.83258 31.86526,-14.87836 m -33.83198,19.03507 2.91149,-1.36875 m 24.46346,-11.50079 2.59758,-1.22117 m -11.47594,5.39508 2.69939,-1.26904 m -67.437453,31.70377 3.441758,-1.61805 m 29.112235,-13.68627 3.06846,-1.44255"
       id="path3885"
       inkscape:connector-curvature="0"
       inkscape:path-effect="#path-effect3907"
       inkscape:original-d="M 54.403046,850.35796 148.56259,806.09157" />
    <path
       style="fill:none;stroke:#000000;stroke-width:1px;stroke-linecap:butt;stroke-linejoin:miter;stroke-opacity:1"
       d="m 138.81068,627.5979 c 0.014,1.27721 0.0267,2.55458 0.038,3.83212 m -0.39075,-0.10935 c -0.003,0.65173 -0.005,1.30354 -0.007,1.95544 m -1.00913,-4.92832 c -0.002,0.26959 -0.005,0.5392 -0.007,0.80882 m 1.12047,-2.89745 c 0.0205,2.1107 0.0403,4.21971 0.0594,6.32724 m -1.28921,-7.27355 c -0.0129,2.14073 -0.0225,4.28232 -0.0289,6.42459 m 0.94304,-2.13785 0,3.21719"
       id="path3909"
       inkscape:connector-curvature="0"
       inkscape:path-effect="#path-effect3911"
       inkscape:original-d="m 138.23924,623.32842 0,12.07916"
       sodipodi:nodetypes="cc" />
    <path
       sodipodi:nodetypes="cc"
       inkscape:original-d="m 146.46415,623.9611 -0.47451,12.23733"
       inkscape:path-effect="#path-effect3915"
       inkscape:connector-curvature="0"
       id="path3913"
       d="m 146.92766,628.39466 c -0.0344,1.22089 -0.07,2.44194 -0.10681,3.66314 m -0.46643,-0.11081 c -0.0303,0.7068 -0.0604,1.41369 -0.0902,2.12069 m -0.77094,-4.92377 c -0.0103,0.21384 -0.0205,0.4277 -0.0307,0.64157 m 1.2288,-2.72664 c -0.0591,2.05282 -0.11877,4.10406 -0.1791,6.1539 m -1.06369,-7.26918 c -0.0988,2.19459 -0.19406,4.39007 -0.28595,6.58627"
       style="fill:none;stroke:#000000;stroke-width:1px;stroke-linecap:butt;stroke-linejoin:miter;stroke-opacity:1" />
    <path
       style="fill:none;stroke:#000000;stroke-width:1px;stroke-linecap:butt;stroke-linejoin:miter;stroke-opacity:1"
       d="m 155.65284,627.62291 c 0.10173,1.1571 0.20233,2.31434 0.30185,3.47172 m -0.24165,-0.11504 c 0.0558,0.76662 0.11195,1.53336 0.16836,2.30023 m -1.48228,-4.91049 c 0.0103,0.15203 0.0206,0.30407 0.031,0.45611 m 0.92784,-2.53445 c 0.17008,1.98624 0.33958,3.971 0.50848,5.95444 m -1.73353,-7.25657 c 0.15956,2.25107 0.32285,4.50308 0.4897,6.75584"
       id="path3917"
       inkscape:connector-curvature="0"
       inkscape:path-effect="#path-effect3919"
       inkscape:original-d="m 154.84723,623.01207 0.94903,12.3955"
       sodipodi:nodetypes="cc" />
    <path
       sodipodi:nodetypes="cc"
       inkscape:original-d="m 136.49935,630.44612 10.91383,3.85425"
       inkscape:path-effect="#path-effect3923"
       inkscape:connector-curvature="0"
       id="path3921"
       d="m 138.81489,631.95372 c 1.38118,0.47821 2.7613,0.95654 4.14042,1.43499 m 1.52908,-0.27615 c 0.4568,0.16075 0.91367,0.32152 1.37063,0.48232 m -6.28741,-1.55581 c 0.41129,0.14516 0.82267,0.29035 1.23415,0.43557 m -2.69534,-1.21351 c 2.14598,0.76448 4.29149,1.52778 6.43653,2.29004 m -6.02885,-2.53353 c 1.86274,0.6545 3.72717,1.30945 5.59323,1.96476"
       style="fill:none;stroke:#000000;stroke-width:1px;stroke-linecap:butt;stroke-linejoin:miter;stroke-opacity:1" />
    <path
       style="fill:none;stroke:#000000;stroke-width:1px;stroke-linecap:butt;stroke-linejoin:miter;stroke-opacity:1"
       d="m 148.30425,634.35388 c 1.07077,-0.11926 2.14097,-0.23846 3.21064,-0.35758 m 1.62927,-1.13608 c 0.86283,-0.0951 1.72589,-0.19007 2.58916,-0.28496 m -6.60798,1.1612 c 0.0539,-0.006 0.10789,-0.0119 0.16185,-0.0179 m -1.71822,0.17681 c 1.87757,-0.19234 3.75482,-0.38548 5.63175,-0.57934 m -6.32744,0.029 c 2.34512,-0.26096 4.69268,-0.52132 7.04257,-0.78119"
       id="path3925"
       inkscape:connector-curvature="0"
       inkscape:path-effect="#path-effect3923"
       inkscape:original-d="m 144.72426,633.92589 12.65372,-1.36541"
       sodipodi:nodetypes="cc" />
    <path
       style="fill:none;stroke:#000000;stroke-width:1px;stroke-linecap:butt;stroke-linejoin:miter;stroke-opacity:1"
       d="m 234.9846,669.10392 c 0.16283,7.25737 0.24196,14.56974 0.26119,21.91861 -7.55658,11.32819 -15.31912,22.78184 -23.13588,34.24285 1.63435,2.75873 3.2657,5.51786 4.89603,8.27587 6.74948,-0.0489 13.4943,-0.10286 20.25365,-0.17695 m -7.87242,-5.04242 c 12.79982,-0.2662 25.77209,-0.42233 38.85747,-0.51671 2.36342,-2.72405 4.73556,-5.44335 7.11516,-8.15891 -8.63991,-10.31027 -17.17175,-20.56647 -25.66576,-30.82572 m 0.49251,7.60897 c -2.31366,-2.65788 -4.61022,-5.31718 -6.89207,-7.97883 -0.0946,-7.66576 -0.11802,-15.34287 -0.0957,-23.04119 -3.99513,0.36549 -7.97737,0.72501 -11.95049,1.07709 0.0621,7.25362 0.15474,14.48227 0.2547,21.6769 -4.35772,6.49648 -8.70674,12.95248 -13.07731,19.35624 m 15.97295,-40.30999 c 0.16862,7.50524 0.27748,14.97033 0.35165,22.41346 -7.45468,11.50299 -15.02863,22.93048 -22.56198,34.3985 1.701,2.76038 3.40426,5.52301 5.11184,8.28938 8.55218,-0.0383 17.13452,-0.0505 25.78529,-0.009 m -13.48133,-4.38877 c 11.73315,-0.29182 23.73555,-0.53039 35.9396,-0.77282 2.40784,-2.77093 4.83401,-5.54221 7.27665,-8.3154 -9.18965,-11.51979 -18.09342,-23.07283 -26.84511,-34.77223 0.0746,-1.20042 0.15021,-2.40175 0.22666,-3.60403 m 2.03398,10.40268 c -1.00015,-1.12533 -1.99628,-2.25519 -2.98856,-3.38946 -0.0788,-7.53067 -0.0594,-15.17337 0.0398,-22.91136 -3.95435,0.34443 -7.8862,0.66203 -11.79832,0.95529 0.17383,7.14588 0.41392,14.21008 0.70335,21.20802 -5.26849,7.97303 -10.44237,15.819 -15.56647,23.57877 m 12.60853,-44.60689 c -0.10804,7.38272 -0.12651,14.75312 -0.0714,22.11132 -7.49011,11.3455 -14.72736,22.64906 -21.81399,33.91153 1.80608,2.71203 3.62048,5.42179 5.44189,8.12928 6.49277,-0.14211 13.01179,-0.2927 19.5474,-0.4517 m -5.18888,-1.69413 c 13.47532,-0.22772 26.72416,-0.259 39.81063,-0.12436 2.25161,-2.6616 4.49145,-5.31117 6.72077,-7.94932 -8.82085,-9.59017 -17.78151,-19.02844 -26.82139,-28.34365 m 4.35651,4.51266 c -2.52433,-2.98897 -5.06497,-5.99627 -7.61959,-9.02034 0.0444,-7.58815 0.0379,-15.23748 -0.004,-22.93715 -4.02897,0.36477 -8.06775,0.71536 -12.11393,1.05339 -0.0717,7.22789 -0.16829,14.41362 -0.27478,21.56717 -5.39696,7.59761 -10.81031,15.14209 -16.20853,22.65456 m 17.46158,-46.19247 c -0.0735,7.55137 -0.0847,15.06021 -0.0446,22.55181 -7.518,11.59288 -14.85986,23.12648 -22.096,34.76207 1.77091,2.79979 3.54767,5.60523 5.32936,8.4184 8.27877,0.0807 16.58834,0.20963 24.91441,0.41966 m -11.47062,0.4021 c 12.49188,-0.0606 24.76708,-0.20217 36.94489,-0.39032 2.31568,-2.75327 4.62292,-5.51057 6.92475,-8.27105 -9.77623,-11.46679 -19.64619,-22.9885 -29.38959,-34.50167 -0.002,-0.61481 -0.003,-1.2296 -0.005,-1.84437 m 1.40046,3.91015 c -1.22881,-1.47179 -2.46335,-2.94834 -3.70315,-4.42936 0.13844,-7.52857 0.19868,-15.12393 0.20864,-22.77071 -4.00172,0.39284 -8.0176,0.77119 -12.04347,1.13735 -0.0345,7.27942 -0.10262,14.51794 -0.17855,21.72965 -6.35986,9.10743 -12.738,18.15254 -19.0434,27.18535 m 18.20874,-46.16081 c 0.13982,7.41595 0.24857,14.89582 0.3469,22.44486 -7.40989,11.69938 -14.85562,23.63661 -22.20557,35.84522 1.74414,2.93457 3.49359,5.88414 5.25004,8.84917 7.37779,0.41314 14.79088,0.90405 22.2586,1.47766 m -6.31894,-4.48515 c 12.4618,0.15525 25.00726,0.27137 37.53094,0.48293 2.26861,-2.63804 4.53548,-5.26846 6.79823,-7.88822 -9.3631,-10.25016 -18.78966,-20.3361 -28.42356,-30.0742 m 6.03967,0.98369 c -2.00186,-2.40304 -4.01106,-4.79841 -6.02734,-7.1872 -0.0131,-7.6611 -0.0686,-15.28275 -0.16289,-22.88091 -4.05703,0.41865 -8.12496,0.84391 -12.20323,1.2734 -0.13055,7.39545 -0.29581,14.80511 -0.49235,22.21433 -5.17313,7.43791 -10.39172,14.87519 -15.64972,22.28614 m 55.29208,9.92184 -2.08624,-2.44906 m -24.87891,-50.02141 0,-2.87032 m 0,23.10773 0,-2.98281 m -18.27331,13.57225 -2.1096,3.16439 m 25.40067,29.42326 3.39037,-0.0413"
       id="path3927"
       inkscape:connector-curvature="0"
       sodipodi:nodetypes="ccccccccc"
       inkscape:path-effect="#path-effect3929"
       inkscape:original-d="m 233.46094,665.15868 0,22.14399 -22.77668,34.16501 5.06148,8.22491 51.88021,-0.63268 6.95954,-8.22491 -29.10353,-34.16502 0,-22.77667 z" />
    <path
       style="fill:none;stroke:#000000;stroke-width:1px;stroke-linecap:butt;stroke-linejoin:miter;stroke-opacity:1"
       d="m 236.91351,345.83341 c 3.37159,-2.4783 6.57214,-4.84355 9.6793,-7.15691 -3.00129,-1.68156 -6.07275,-3.32412 -9.16379,-4.96753 1.42545,-3.35074 2.82711,-6.70251 4.2727,-10.10862 1.06586,-2.51138 2.15977,-5.04111 3.26369,-7.59 -1.82847,-6.42821 -3.60072,-12.96402 -5.55687,-19.61828 m -1.70604,44.0282 c 3.34386,-2.4249 6.48203,-4.79344 9.48384,-7.14471 -3.09261,-1.71442 -6.2877,-3.41587 -9.5401,-5.1298 1.24764,-3.42846 2.42568,-6.87208 3.59454,-10.36494 0.86183,-2.57535 1.88141,-5.15149 3.00284,-7.74086 -1.78698,-6.52415 -3.00198,-13.12265 -4.38908,-19.96107 m -5.07148,53.04361 c 3.37905,-2.1613 6.63533,-4.4047 9.85145,-6.67069 -2.90683,-1.64048 -5.84383,-3.29794 -8.75718,-4.93359 1.62127,-3.34218 3.27128,-6.65789 5.02205,-9.89521 1.29087,-2.38694 2.49705,-4.85151 3.64262,-7.37121 -1.72977,-6.35902 -3.79992,-13.02765 -5.88993,-19.70635 m 0.63458,48.75993 c 2.95133,-2.13351 5.95532,-4.2845 8.93302,-6.38363 -3.11352,-1.49584 -6.24679,-2.95272 -9.45126,-4.32547 1.30046,-3.05247 2.51445,-6.00277 3.57316,-8.79046 0.78059,-2.05541 1.79816,-4.39988 2.98131,-6.94902 -1.64072,-6.4288 -2.35155,-14.00705 -3.08271,-21.61174 m 0.95812,18.91852 0.67739,-1.45901 m -3.61254,-15.55969 -0.36979,-1.3867 m 1.85406,6.95273 -0.38428,-1.44105 m 1.31877,35.06654 1.53343,-1.12451 m -4.75686,-12.99333 0.71392,-1.53766"
       id="path3931"
       inkscape:connector-curvature="0"
       transform="translate(0,308.2677)"
       sodipodi:nodetypes="ccccc"
       inkscape:path-effect="#path-effect3933"
       inkscape:original-d="m 235.35899,341.70653 9.49029,-6.95954 -8.8576,-5.06149 8.22491,-17.71519 -5.06149,-18.98056" />
    <path
       style="fill:none;stroke:#000000;stroke-width:1;stroke-linecap:butt;stroke-linejoin:miter;stroke-miterlimit:4;stroke-opacity:1;stroke-dasharray:none"
       d="m 134.70371,566.67376 c 0.83372,-0.48905 1.73606,-0.96503 2.69008,-1.39143 2.3745,-1.06127 5.06755,-1.81407 7.83747,-1.7095 2.76992,0.10458 5.62028,1.0643 8.30913,3.42434 1.98377,1.74118 3.56639,3.2623 4.83517,4.58091 m -24.13444,-14.83613 c 0.27105,-0.13845 0.54799,-0.27313 0.83036,-0.40295 2.23568,-1.02784 4.81301,-1.74953 7.49777,-1.61693 2.68477,0.13261 5.47423,1.11787 8.14186,3.50509 5.30823,4.75026 7.88893,7.84671 9.10875,9.73958 0.2559,0.3971 0.45262,0.74167 0.60361,1.03835 m -33.67954,-5.40993 c 1.04747,-0.73642 2.27738,-1.49079 3.63897,-2.13156 2.19483,-1.0329 4.7328,-1.76989 7.38041,-1.66526 2.64762,0.10463 5.40169,1.05179 8.02825,3.36775 2.53683,2.23684 4.44627,4.08371 5.87194,5.60088 m -16.68582,-6.77396 c 0.30261,-0.12882 0.61146,-0.2537 0.92596,-0.37342 2.38886,-0.90936 5.10159,-1.52282 7.89766,-1.29641 2.79607,0.22641 5.67776,1.29412 8.41797,3.75888 1.83864,1.65383 3.34458,3.10242 4.58151,4.3706 m -32.25724,-9.5407 c 0.0639,-0.0531 0.12929,-0.10687 0.19607,-0.16131 1.33093,-1.08501 3.22637,-2.42724 5.47482,-3.46845 2.24845,-1.04122 4.84864,-1.78116 7.56811,-1.67298 2.71947,0.10817 5.55325,1.06411 8.2973,3.40244 5.31433,4.52861 8.03194,7.50138 9.36446,9.35843 m -24.49397,-4.82224 c 0.89516,-0.53283 1.89861,-1.06003 2.98523,-1.52056 2.22458,-0.94282 4.79856,-1.60682 7.48962,-1.45157 2.69106,0.15525 5.49456,1.13523 8.19715,3.45217 4.99974,4.28633 7.65743,7.04827 9.01849,8.83945"
       id="path3987"
       inkscape:connector-curvature="0"
       inkscape:path-effect="#path-effect3989"
       inkscape:original-d="m 126.69384,563.42603 c 0,0 12.93544,-12.72594 23.57522,-3.12862 10.63975,9.59733 10.01376,12.30947 10.01376,12.30947" />
  </g>
</svg>
