<?xml version="1.0" encoding="UTF-8" standalone="no"?>
<!-- Created with Inkscape (http://www.inkscape.org/) -->

<svg
   xmlns:dc="http://purl.org/dc/elements/1.1/"
   xmlns:cc="http://creativecommons.org/ns#"
   xmlns:rdf="http://www.w3.org/1999/02/22-rdf-syntax-ns#"
   xmlns:svg="http://www.w3.org/2000/svg"
   xmlns="http://www.w3.org/2000/svg"
   xmlns:sodipodi="http://sodipodi.sourceforge.net/DTD/sodipodi-0.dtd"
   xmlns:inkscape="http://www.inkscape.org/namespaces/inkscape"
   width="1100"
   height="800"
   id="svg2"
   version="1.1"
   inkscape:version="0.48.4 r9939"
   sodipodi:docname="losering-1.svg">
  <defs
     id="defs4">
    <inkscape:path-effect
       effect="sketch"
       id="path-effect4749"
       is_visible="true"
       nbiter_approxstrokes="5"
       strokelength="100"
       strokelength_rdm="0;1"
       strokeoverlap="0"
       strokeoverlap_rdm="0.1;1"
       ends_tolerance="0;1"
       parallel_offset="1;1"
       tremble_size="1;1"
       tremble_frequency="1"
       nbtangents="0"
       tgt_places_rdmness="1;1"
       tgtscale="10"
       tgtlength="5"
       tgtlength_rdm="0.3;1" />
    <inkscape:path-effect
       effect="sketch"
       id="path-effect4747"
       is_visible="true"
       nbiter_approxstrokes="5"
       strokelength="100"
       strokelength_rdm="0;1"
       strokeoverlap="0"
       strokeoverlap_rdm="0;1"
       ends_tolerance="0;1"
       parallel_offset="1.1;1"
       tremble_size="1;1"
       tremble_frequency="1"
       nbtangents="0"
       tgt_places_rdmness="1;1"
       tgtscale="10"
       tgtlength="21"
       tgtlength_rdm="0.3;1" />
    <inkscape:path-effect
       effect="sketch"
       id="path-effect4745"
       is_visible="true"
       nbiter_approxstrokes="5"
       strokelength="100"
       strokelength_rdm="0.3;1"
       strokeoverlap="0.3"
       strokeoverlap_rdm="0.3;1"
       ends_tolerance="0.1;1"
       parallel_offset="1.1;1"
       tremble_size="2;1"
       tremble_frequency="1"
       nbtangents="4"
       tgt_places_rdmness="1;1"
       tgtscale="10"
       tgtlength="40"
       tgtlength_rdm="0.3;1" />
    <inkscape:path-effect
       effect="sketch"
       id="path-effect4737"
       is_visible="true"
       nbiter_approxstrokes="4"
       strokelength="100"
       strokelength_rdm="0.3;1"
       strokeoverlap="0.3"
       strokeoverlap_rdm="0.3;1"
       ends_tolerance="0.1;1"
       parallel_offset="2;1"
       tremble_size="2;1"
       tremble_frequency="1"
       nbtangents="5"
       tgt_places_rdmness="1;1"
       tgtscale="10"
       tgtlength="40"
       tgtlength_rdm="0.3;1" />
    <inkscape:path-effect
       effect="sketch"
       id="path-effect4715"
       is_visible="true"
       nbiter_approxstrokes="10"
       strokelength="100"
       strokelength_rdm="0.3;1"
       strokeoverlap="0.3"
       strokeoverlap_rdm="0.3;1"
       ends_tolerance="0.1;1"
       parallel_offset="1.5;1"
       tremble_size="1.8;1"
       tremble_frequency="2.5"
       nbtangents="0"
       tgt_places_rdmness="1;1"
       tgtscale="10"
       tgtlength="2"
       tgtlength_rdm="0.3;1" />
    <inkscape:path-effect
       effect="sketch"
       id="path-effect4709"
       is_visible="true"
       nbiter_approxstrokes="5"
       strokelength="100"
       strokelength_rdm="0;1"
       strokeoverlap="0"
       strokeoverlap_rdm="0;1"
       ends_tolerance="0;1"
       parallel_offset="1;1"
       tremble_size="1;1"
       tremble_frequency="2.5"
       nbtangents="0"
       tgt_places_rdmness="1;1"
       tgtscale="10"
       tgtlength="2"
       tgtlength_rdm="0.3;1" />
    <inkscape:path-effect
       effect="sketch"
       id="path-effect4341"
       is_visible="true"
       nbiter_approxstrokes="3"
       strokelength="100"
       strokelength_rdm="0;1"
       strokeoverlap="0"
       strokeoverlap_rdm="0;1"
       ends_tolerance="0;1"
       parallel_offset="1;1"
       tremble_size="2;1"
       tremble_frequency="1"
       nbtangents="0"
       tgt_places_rdmness="1;1"
       tgtscale="10"
       tgtlength="2"
       tgtlength_rdm="0.3;1" />
    <marker
       inkscape:stockid="Arrow1Lend"
       orient="auto"
       refY="0"
       refX="0"
       id="Arrow1Lend"
       style="overflow:visible">
      <path
         id="path3904"
         d="M 0,0 5,-5 -12.5,0 5,5 0,0 z"
         style="fill-rule:evenodd;stroke:#000000;stroke-width:1pt"
         transform="matrix(-0.8,0,0,-0.8,-10,0)"
         inkscape:connector-curvature="0" />
    </marker>
    <inkscape:path-effect
       effect="sketch"
       id="path-effect3895"
       is_visible="true"
       nbiter_approxstrokes="3"
       strokelength="100"
       strokelength_rdm="0;1"
       strokeoverlap="0"
       strokeoverlap_rdm="0;1"
       ends_tolerance="0;1"
       parallel_offset="1;1"
       tremble_size="1;1"
       tremble_frequency="1"
       nbtangents="0"
       tgt_places_rdmness="1;1"
       tgtscale="10"
       tgtlength="2"
       tgtlength_rdm="0.3;1" />
    <inkscape:path-effect
       tgtlength_rdm="1;1"
       tgtlength="5"
       tgtscale="10.4"
       tgt_places_rdmness="1;1"
       nbtangents="0"
       tremble_frequency="3.5"
       tremble_size="1.6;1"
       parallel_offset="1.6;1"
       ends_tolerance="0.1;1"
       strokeoverlap_rdm="0.3;1"
       strokeoverlap="0.3"
       strokelength_rdm="0.3;1"
       strokelength="100"
       nbiter_approxstrokes="5"
       is_visible="true"
       id="path-effect3885"
       effect="sketch" />
    <inkscape:path-effect
       tgtlength_rdm="1;1"
       tgtlength="5"
       tgtscale="10.4"
       tgt_places_rdmness="1;1"
       nbtangents="13"
       tremble_frequency="3.5"
       tremble_size="2;1"
       parallel_offset="2;1"
       ends_tolerance="0.1;1"
       strokeoverlap_rdm="0.3;1"
       strokeoverlap="0.3"
       strokelength_rdm="0.3;1"
       strokelength="100"
       nbiter_approxstrokes="5"
       is_visible="true"
       id="path-effect3877"
       effect="sketch" />
    <inkscape:path-effect
       effect="sketch"
       id="path-effect3869"
       is_visible="true"
       nbiter_approxstrokes="5"
       strokelength="100"
       strokelength_rdm="0.3;1"
       strokeoverlap="0.3"
       strokeoverlap_rdm="0.3;1"
       ends_tolerance="0.1;1"
       parallel_offset="2;1"
       tremble_size="2;1"
       tremble_frequency="3.5"
       nbtangents="13"
       tgt_places_rdmness="1;1"
       tgtscale="10.4"
       tgtlength="5"
       tgtlength_rdm="1;1" />
    <inkscape:path-effect
       effect="sketch"
       id="path-effect3864"
       is_visible="true"
       nbiter_approxstrokes="5"
       strokelength="100"
       strokelength_rdm="0.3;1"
       strokeoverlap="0.3"
       strokeoverlap_rdm="0.3;1"
       ends_tolerance="0.1;1"
       parallel_offset="5;1"
       tremble_size="5;1"
       tremble_frequency="1.5"
       nbtangents="5"
       tgt_places_rdmness="1;1"
       tgtscale="10"
       tgtlength="100"
       tgtlength_rdm="0.3;1" />
    <inkscape:path-effect
       effect="sketch"
       id="path-effect3862"
       is_visible="true"
       nbiter_approxstrokes="5"
       strokelength="100"
       strokelength_rdm="0.3;1"
       strokeoverlap="0.3"
       strokeoverlap_rdm="0.3;1"
       ends_tolerance="0.1;1"
       parallel_offset="2;1"
       tremble_size="2;1"
       tremble_frequency="1"
       nbtangents="0"
       tgt_places_rdmness="1;1"
       tgtscale="10"
       tgtlength="5"
       tgtlength_rdm="0.3;1" />
    <inkscape:path-effect
       effect="sketch"
       id="path-effect3860"
       is_visible="true"
       nbiter_approxstrokes="5"
       strokelength="100"
       strokelength_rdm="0.3;1"
       strokeoverlap="0.3"
       strokeoverlap_rdm="0.3;1"
       ends_tolerance="0.1;1"
       parallel_offset="5.4;1"
       tremble_size="5;1"
       tremble_frequency="1.5"
       nbtangents="5"
       tgt_places_rdmness="1;1"
       tgtscale="10"
       tgtlength="60"
       tgtlength_rdm="0.3;1" />
    <inkscape:path-effect
       effect="sketch"
       id="path-effect3858"
       is_visible="true"
       nbiter_approxstrokes="5"
       strokelength="100"
       strokelength_rdm="0.3;1"
       strokeoverlap="0.3"
       strokeoverlap_rdm="0.3;1"
       ends_tolerance="0.1;1"
       parallel_offset="3;1"
       tremble_size="2;1"
       tremble_frequency="1"
       nbtangents="0"
       tgt_places_rdmness="1;1"
       tgtscale="10"
       tgtlength="2"
       tgtlength_rdm="0.3;1" />
    <inkscape:path-effect
       effect="sketch"
       id="path-effect3856"
       is_visible="true"
       nbiter_approxstrokes="4"
       strokelength="100"
       strokelength_rdm="0.3;1"
       strokeoverlap="0.3"
       strokeoverlap_rdm="0.3;1"
       ends_tolerance="0.1;1"
       parallel_offset="3;1"
       tremble_size="3;1"
       tremble_frequency="1"
       nbtangents="0"
       tgt_places_rdmness="1;1"
       tgtscale="10"
       tgtlength="5"
       tgtlength_rdm="0.3;1" />
    <inkscape:path-effect
       effect="sketch"
       id="path-effect3854"
       is_visible="true"
       nbiter_approxstrokes="4"
       strokelength="100"
       strokelength_rdm="0.3;1"
       strokeoverlap="0.3"
       strokeoverlap_rdm="0.3;1"
       ends_tolerance="0.1;1"
       parallel_offset="2;1"
       tremble_size="2;1"
       tremble_frequency="1"
       nbtangents="0"
       tgt_places_rdmness="1;1"
       tgtscale="10"
       tgtlength="2"
       tgtlength_rdm="0.3;1" />
    <inkscape:path-effect
       effect="sketch"
       id="path-effect3846"
       is_visible="true"
       nbiter_approxstrokes="6"
       strokelength="100"
       strokelength_rdm="0.3;1"
       strokeoverlap="0.3"
       strokeoverlap_rdm="0.3;1"
       ends_tolerance="0.1;1"
       parallel_offset="5.7;1"
       tremble_size="5.6;1"
       tremble_frequency="1"
       nbtangents="0"
       tgt_places_rdmness="1;1"
       tgtscale="10"
       tgtlength="4"
       tgtlength_rdm="0.3;1" />
    <inkscape:path-effect
       effect="sketch"
       id="path-effect3842"
       is_visible="true"
       nbiter_approxstrokes="5"
       strokelength="100"
       strokelength_rdm="0.3;1"
       strokeoverlap="0.3"
       strokeoverlap_rdm="0.3;1"
       ends_tolerance="0.1;1"
       parallel_offset="5;1"
       tremble_size="5;1"
       tremble_frequency="1"
       nbtangents="5"
       tgt_places_rdmness="1;1"
       tgtscale="10"
       tgtlength="40"
       tgtlength_rdm="0.3;1" />
    <inkscape:path-effect
       effect="sketch"
       id="path-effect3840"
       is_visible="true"
       nbiter_approxstrokes="5"
       strokelength="100"
       strokelength_rdm="0.3;1"
       strokeoverlap="0.3"
       strokeoverlap_rdm="0.3;1"
       ends_tolerance="0.1;1"
       parallel_offset="5;1"
       tremble_size="5;1"
       tremble_frequency="1"
       nbtangents="5"
       tgt_places_rdmness="1;1"
       tgtscale="10"
       tgtlength="20"
       tgtlength_rdm="0.3;1" />
    <inkscape:path-effect
       effect="sketch"
       id="path-effect3826"
       is_visible="true"
       nbiter_approxstrokes="5"
       strokelength="100"
       strokelength_rdm="0.3;1"
       strokeoverlap="0.3"
       strokeoverlap_rdm="0.3;1"
       ends_tolerance="0.1;1"
       parallel_offset="5;1"
       tremble_size="5;1"
       tremble_frequency="1"
       nbtangents="0"
       tgt_places_rdmness="1;1"
       tgtscale="10"
       tgtlength="5"
       tgtlength_rdm="0.3;1" />
    <inkscape:path-effect
       effect="sketch"
       id="path-effect3814"
       is_visible="true"
       nbiter_approxstrokes="5"
       strokelength="100"
       strokelength_rdm="0.3;1"
       strokeoverlap="0.3"
       strokeoverlap_rdm="0.3;1"
       ends_tolerance="0.1;1"
       parallel_offset="4.4;1"
       tremble_size="5.2;1"
       tremble_frequency="1.5"
       nbtangents="5"
       tgt_places_rdmness="1;1"
       tgtscale="10"
       tgtlength="100"
       tgtlength_rdm="0.3;1" />
    <inkscape:path-effect
       effect="sketch"
       id="path-effect3808"
       is_visible="true"
       nbiter_approxstrokes="5"
       strokelength="100"
       strokelength_rdm="0.3;1"
       strokeoverlap="0.3"
       strokeoverlap_rdm="0.3;1"
       ends_tolerance="0.1;1"
       parallel_offset="2;1"
       tremble_size="2;1"
       tremble_frequency="1"
       nbtangents="5"
       tgt_places_rdmness="1;1"
       tgtscale="10"
       tgtlength="2"
       tgtlength_rdm="0.3;1" />
    <inkscape:path-effect
       effect="sketch"
       id="path-effect3806"
       is_visible="true"
       nbiter_approxstrokes="5"
       strokelength="100"
       strokelength_rdm="0.3;1"
       strokeoverlap="0.3"
       strokeoverlap_rdm="0.3;1"
       ends_tolerance="0.1;1"
       parallel_offset="2;1"
       tremble_size="2;1"
       tremble_frequency="1"
       nbtangents="5"
       tgt_places_rdmness="1;1"
       tgtscale="10"
       tgtlength="2"
       tgtlength_rdm="0.3;1" />
    <inkscape:path-effect
       effect="sketch"
       id="path-effect3804"
       is_visible="true"
       nbiter_approxstrokes="5"
       strokelength="100"
       strokelength_rdm="0.3;1"
       strokeoverlap="0.3"
       strokeoverlap_rdm="0.3;1"
       ends_tolerance="0.1;1"
       parallel_offset="2;1"
       tremble_size="2;1"
       tremble_frequency="1"
       nbtangents="5"
       tgt_places_rdmness="1;1"
       tgtscale="10"
       tgtlength="2"
       tgtlength_rdm="0.3;1" />
    <inkscape:path-effect
       effect="sketch"
       id="path-effect3775"
       is_visible="true"
       nbiter_approxstrokes="3"
       strokelength="100"
       strokelength_rdm="0.3;1"
       strokeoverlap="0.3"
       strokeoverlap_rdm="0.3;1"
       ends_tolerance="0.1;1"
       parallel_offset="1;1"
       tremble_size="1;1"
       tremble_frequency="1"
       nbtangents="5"
       tgt_places_rdmness="1;1"
       tgtscale="10"
       tgtlength="2"
       tgtlength_rdm="0.3;1" />
    <inkscape:path-effect
       effect="sketch"
       id="path-effect3773"
       is_visible="true"
       nbiter_approxstrokes="5"
       strokelength="100"
       strokelength_rdm="0.3;1"
       strokeoverlap="0.3"
       strokeoverlap_rdm="0.3;1"
       ends_tolerance="0;1"
       parallel_offset="1.2;1"
       tremble_size="1.3;1"
       tremble_frequency="1"
       nbtangents="0"
       tgt_places_rdmness="1;1"
       tgtscale="10"
       tgtlength="0"
       tgtlength_rdm="0.3;1" />
    <inkscape:path-effect
       effect="sketch"
       id="path-effect3771"
       is_visible="true"
       nbiter_approxstrokes="3"
       strokelength="100"
       strokelength_rdm="0.1;1"
       strokeoverlap="0"
       strokeoverlap_rdm="0;1"
       ends_tolerance="0;1"
       parallel_offset="0.7;1"
       tremble_size="0.9;1"
       tremble_frequency="1"
       nbtangents="0"
       tgt_places_rdmness="1;1"
       tgtscale="10"
       tgtlength="2"
       tgtlength_rdm="0.3;1" />
    <inkscape:path-effect
       effect="sketch"
       id="path-effect3763"
       is_visible="true"
       nbiter_approxstrokes="3"
       strokelength="100"
       strokelength_rdm="0.3;1"
       strokeoverlap="0.3"
       strokeoverlap_rdm="0.3;1"
       ends_tolerance="0.1;1"
       parallel_offset="2;1"
       tremble_size="2;1"
       tremble_frequency="1"
       nbtangents="0"
       tgt_places_rdmness="1;1"
       tgtscale="10"
       tgtlength="2"
       tgtlength_rdm="0.3;1" />
    <inkscape:path-effect
       effect="sketch"
       id="path-effect3761"
       is_visible="true"
       nbiter_approxstrokes="5"
       strokelength="100"
       strokelength_rdm="0.3;1"
       strokeoverlap="0.3"
       strokeoverlap_rdm="0.3;1"
       ends_tolerance="0.1;1"
       parallel_offset="1.9;1"
       tremble_size="2;1"
       tremble_frequency="1"
       nbtangents="3"
       tgt_places_rdmness="1;1"
       tgtscale="10"
       tgtlength="20"
       tgtlength_rdm="0.3;1" />
  </defs>
  <sodipodi:namedview
     id="base"
     pagecolor="#ffffff"
     bordercolor="#666666"
     borderopacity="1.0"
     inkscape:pageopacity="0.0"
     inkscape:pageshadow="2"
     inkscape:zoom="0.70710678"
     inkscape:cx="535.22062"
     inkscape:cy="392.73283"
     inkscape:document-units="px"
     inkscape:current-layer="layer1"
     showgrid="false"
     inkscape:window-width="1716"
     inkscape:window-height="1404"
     inkscape:window-x="3400"
     inkscape:window-y="16"
     inkscape:window-maximized="0" />
  <metadata
     id="metadata7">
    <rdf:RDF>
      <cc:Work
         rdf:about="">
        <dc:format>image/svg+xml</dc:format>
        <dc:type
           rdf:resource="http://purl.org/dc/dcmitype/StillImage" />
        <dc:title></dc:title>
      </cc:Work>
    </rdf:RDF>
  </metadata>
  <g
     inkscape:label="Layer 1"
     inkscape:groupmode="layer"
     id="layer1"
     transform="translate(0,-252.36221)">
    <path
       sodipodi:type="arc"
       style="fill:none;stroke:#000000;stroke-width:0.80000001;stroke-miterlimit:4;stroke-opacity:1;stroke-dasharray:none;stroke-dashoffset:0"
       id="path2989"
       sodipodi:cx="151.52289"
       sodipodi:cy="221.84561"
       sodipodi:rx="60.609154"
       sodipodi:ry="59.598999"
       d="m 213.15811,220.18725 c 1.40844,13.70534 -2.44198,27.06878 -10.06654,38.03317 -7.50594,10.79381 -18.67782,19.26948 -32.14202,23.4859 m 16.8171,-12.72551 c -7.07904,4.99478 -15.3194,8.61711 -24.37492,10.35242 -15.47711,2.96587 -30.56806,-0.11692 -42.77664,-7.59693 m 11.47099,8.58417 c -5.86429,-1.78944 -11.36793,-4.41325 -16.34851,-7.75948 -12.92623,-8.68457 -22.331992,-22.22703 -25.322341,-38.70824 -0.584611,-3.22207 -0.902529,-6.46686 -0.963061,-9.706 m 5.084108,17.48876 c -0.678667,-2.19747 -1.236213,-4.46332 -1.66275,-6.79093 -2.696949,-14.71725 0.320357,-29.95984 8.402384,-42.5649 m 108.96548,25.43441 c 0.50388,13.06299 -3.2328,25.64379 -10.14014,35.9905 -8.19823,12.28037 -20.86295,21.42342 -36.07158,24.48079 m 19.71967,-5.33817 c -6.30503,3.94238 -13.3608,6.74761 -20.96028,8.11056 -16.31985,2.92694 -32.0727,-1.33552 -44.37358,-10.60936 -1.72004,-1.29676 -3.37235,-2.69177 -4.94887,-4.17927 m 12.05713,10.73893 c -3.45937,-1.46691 -6.7519,-3.24069 -9.83772,-5.29343 -12.88157,-8.56899 -22.173473,-21.99599 -24.88914,-38.26821 -0.919021,-5.50675 -1.023575,-11.07329 -0.3592,-16.5492 m 2.850185,15.06736 c -0.01476,-0.0773 -0.02938,-0.15469 -0.04387,-0.23213 -3.273798,-17.50252 1.232895,-35.30138 12.286794,-48.55075 m 106.27032,32.5421 c 1.71822,14.51354 -2.15667,28.37085 -10.03918,39.49116 -8.7952,12.40789 -22.58777,21.40671 -39.2258,24.01486 -0.99604,0.15614 -1.99098,0.28757 -2.98414,0.39474 m 25.07881,-9.03311 c -6.25799,3.97668 -13.28716,6.87368 -20.88205,8.41115 -16.3592,3.31167 -32.25576,-0.29791 -44.74927,-8.5911 -5.64813,-3.74923 -10.59938,-8.45715 -14.5774,-13.91674 m 16.45053,16.81888 c -1.09534,-0.64003 -2.17117,-1.31581 -3.22556,-2.0261 -12.58606,-8.47858 -22.112535,-21.87176 -25.355991,-38.10892 -2.08892,-10.4574 -1.32381,-21.13196 2.069192,-30.97053 m -5.320741,17.87619 c 0.149688,-11.67842 3.704885,-23.28393 10.337207,-33.26677 m 110.253593,32.14519 c 0.87261,13.25674 -2.85272,26.13061 -9.91118,36.94512 -8.16204,12.50532 -20.79436,22.2447 -35.91675,26.76033 m 20.79921,-10.9096 c -6.45608,4.17678 -13.76774,7.23912 -21.72771,8.88705 -16.62478,3.44178 -32.94019,0.0734 -46.07193,-7.86713 -0.79561,-0.4811 -1.57952,-0.97898 -2.35108,-1.49315 m 15.11917,5.3229 c -4.17873,-1.66593 -8.16649,-3.76941 -11.88907,-6.26464 -12.89067,-8.64056 -22.593345,-21.97995 -26.079857,-38.09239 -1.327332,-6.13408 -1.663605,-12.33623 -1.06668,-18.39861 m 0.963739,19.74247 c -0.01302,-0.0625 -0.02594,-0.12496 -0.03876,-0.1875 -2.980989,-14.54566 -0.0099,-29.56103 8.055309,-42.00704 m 112.563975,22.4923 c 2.42121,15.39293 -1.40818,30.10777 -9.65396,41.70895 -8.70952,12.25361 -22.35429,21.03239 -38.78798,23.32324 -1.87979,0.26204 -3.75528,0.4333 -5.62183,0.51689 m 26.03447,-8.55299 c -6.23956,3.97656 -13.30963,6.88998 -20.99337,8.4464 -16.37448,3.31682 -32.4358,-0.1527 -45.12729,-8.28086 -7.5818,-4.85571 -13.96106,-11.37535 -18.481913,-19.09521 m 18.791583,18.00295 c -0.29981,-0.19131 -0.59782,-0.38529 -0.89397,-0.58192 -12.80447,-8.50126 -22.166576,-21.94173 -24.967124,-38.28491 -1.966636,-11.47671 -0.428336,-23.23485 4.267073,-33.91997 m -9.024191,23.38109 c 0.684886,-12.51009 5.28357,-24.61055 13.396052,-34.5842"
       transform="translate(-15.796949,339.2677)"
       sodipodi:start="6.0929057"
       sodipodi:end="10.139874"
       sodipodi:open="true"
       inkscape:path-effect="#path-effect3862" />
    <path
       style="fill:none;stroke:#000000;stroke-width:1px;stroke-linecap:butt;stroke-linejoin:miter;stroke-opacity:1"
       d="m 190.76555,509.45934 c -0.0532,-0.409 -0.11194,-0.83295 -0.17662,-1.27065 -0.69853,-4.72673 -2.10164,-11.05325 -4.877,-17.49212 -2.77535,-6.43886 -6.91929,-12.99232 -13.05259,-18.20741 -6.13329,-5.2151 -14.25437,-9.09135 -24.99504,-10.18342 -4.11907,-0.41882 -7.94008,-0.57134 -11.48177,-0.48935 m 18.77969,-2.07325 c -2.48669,-0.68539 -5.13932,-1.1991 -7.96851,-1.51306 -8.4651,-0.93939 -15.5997,-0.68442 -21.63283,0.46182 -6.03312,1.14624 -10.96295,3.18503 -14.98718,5.83367 -4.02423,2.64863 -7.14178,5.90777 -9.54041,9.50098 -2.266544,3.39536 -3.890829,7.0892 -5.032064,10.84821 m 4.744274,-11.19189 c -0.768923,0.87541 -1.483645,1.77856 -2.147742,2.70444 -2.532851,3.53127 -4.329703,7.39306 -5.583659,11.30907 -2.50791,7.83203 -2.840899,15.87777 -2.545623,21.95761 0.147639,3.03992 0.451791,5.58923 0.718698,7.3795 0.133454,0.89514 0.257617,1.60055 0.348476,2.08272 0.04543,0.24108 0.08254,0.42635 0.108337,0.5516 0.0129,0.0626 0.02297,0.11025 0.02985,0.14234 0.0034,0.016 0.0061,0.0282 0.0079,0.0364 0.0018,0.008 0.0027,0.0125 0.0028,0.0127 2e-6,1e-5 3e-6,1e-5 3e-6,1e-5 0,0 3e-6,0 8e-6,10e-6 0.0076,0.003 5.168046,2.39073 13.279574,5.74494 3.07121,1.26998 6.56517,2.6778 10.35883,4.14503 m -13.06908,-5.52384 c 1.54691,0.70588 3.2773,1.48654 5.16201,2.32335 8.15294,3.61991 19.17523,8.27789 30.83939,12.55955 11.66415,4.28167 23.99077,8.20206 34.84488,10.40358 5.42705,1.10075 10.48469,1.77067 14.89307,1.83014 1.96911,0.0266 3.80854,-0.0688 5.49301,-0.30222 m -30.07956,-6.37015 c 2.22455,0.52921 4.4153,1.0022 6.55329,1.40748 5.3674,1.01746 10.40232,1.60798 14.80137,1.59142 4.39904,-0.0166 8.1606,-0.63994 10.99183,-2.04883 2.83039,-1.40848 4.87133,-2.95469 6.2734,-4.5837 1.40207,-1.62901 2.16594,-3.34084 2.45068,-5.08045 0.56947,-3.47923 -0.77068,-7.07101 -2.78294,-10.32167 -2.01225,-3.25066 -4.69918,-6.1599 -6.87906,-8.26022 -1.08994,-1.05016 -2.05376,-1.89785 -2.74596,-2.48364 -0.34609,-0.29289 -0.62429,-0.52029 -0.81638,-0.67478 -0.0961,-0.0772 -0.17057,-0.13625 -0.22128,-0.17611 -0.0254,-0.0199 -0.0448,-0.0351 -0.0579,-0.0453 -0.0132,-0.0102 -0.0201,-0.0156 -0.0205,-0.0159 -2e-5,-10e-6 -2e-5,-2e-5 -2e-5,-2e-5 0,0 -1e-5,10e-6 -2e-5,10e-6 -0.009,0.004 -4.17304,1.67854 -10.2812,3.77355 m 18.10168,5.34423 c -1.19458,-1.23632 -2.39111,-2.35181 -3.4688,-3.29993 -1.16491,-1.02487 -2.19105,-1.85409 -2.92699,-2.42751 -0.36796,-0.28671 -0.66339,-0.50945 -0.86728,-0.66079 -0.10195,-0.0757 -0.18101,-0.13347 -0.2348,-0.17252 -0.0269,-0.0195 -0.0475,-0.0344 -0.0614,-0.0444 -0.014,-0.01 -0.0213,-0.0152 -0.0217,-0.0155 -1e-5,-10e-6 -2e-5,-10e-6 -2e-5,-10e-6 0,0 0,0 -2e-5,0 -0.008,0.003 -2.74159,1.08601 -7.03907,2.58789 -4.29749,1.50187 -10.15158,3.41453 -16.42097,5.09894 -6.26939,1.68441 -12.95512,3.14126 -18.97988,3.80745 -3.01238,0.3331 -5.86046,0.46971 -8.41179,0.34258 -2.55132,-0.12714 -4.80635,-0.51742 -6.62897,-1.24265 -0.34583,-2.03969 -0.6892,-4.08287 -1.03036,-6.12929 m 9.87941,8.14003 c -1.64756,0.14626 -3.22148,0.22174 -4.6987,0.21337 -2.65696,-0.015 -5.00114,-0.30133 -6.89845,-0.9349 -1.8784,-8.70733 -3.66234,-17.42877 -5.37451,-26.16429 m 65.07826,0.69681 c -0.76706,-4.60478 -2.20957,-10.58297 -4.89824,-16.64671 -2.82235,-6.36524 -7.01469,-12.82776 -13.2098,-17.91592 -6.19512,-5.08817 -14.38699,-8.8093 -25.26381,-9.62179 -1.07632,-0.0804 -2.13298,-0.14285 -3.17027,-0.18795 m 14.06602,3.31191 c -3.38127,-1.19847 -7.13369,-2.06393 -11.29812,-2.51076 -8.3933,-0.90058 -15.5656,-0.70151 -21.66197,0.36623 -6.09638,1.06774 -11.11888,3.00227 -15.24358,5.5389 -4.12469,2.53664 -7.35258,5.67414 -9.868662,9.13716 -2.516085,3.46301 -4.320654,7.25106 -5.598266,11.09098 -1.746768,5.24998 -2.508366,10.59639 -2.75251,15.35607 m 7.539229,-24.91048 c -1.602775,2.82567 -2.825919,5.78944 -3.748231,8.77959 -2.475627,8.02602 -2.779527,16.2437 -2.456646,22.46624 0.16144,3.11127 0.478573,5.72328 0.75516,7.55898 0.138294,0.91785 0.266445,1.64157 0.360069,2.13635 0.04681,0.24739 0.085,0.43755 0.111527,0.56611 0.01327,0.0643 0.02362,0.11317 0.03068,0.14611 0.0035,0.0165 0.0062,0.029 0.0081,0.0374 0.0018,0.008 0.0028,0.0128 0.0029,0.0131 2e-6,1e-5 3e-6,1e-5 3e-6,1e-5 0,0 3e-6,0 9e-6,0 0.0076,0.004 5.19492,2.52322 13.378999,6.15558 8.18408,3.63237 19.37654,8.38165 31.32618,12.9327 0.42344,0.16127 0.84782,0.32229 1.27304,0.483 m -25.07009,-8.64199 c 6.66569,2.77914 14.28097,5.81322 22.15521,8.66514 11.67254,4.22761 23.9197,8.05551 34.64848,10.12415 5.36439,1.03432 10.34991,1.62945 14.68792,1.6146 2.77098,-0.009 5.27754,-0.26789 7.44767,-0.82061 m -22.10497,-2.54127 c 4.67271,0.86729 9.00075,1.3631 12.81863,1.38485 4.40641,0.0251 8.13375,-0.58054 10.92182,-1.97972 2.78725,-1.39876 4.77712,-2.94387 6.13007,-4.57376 1.35294,-1.62989 2.06863,-3.34492 2.30188,-5.08899 0.46651,-3.48814 -0.9982,-7.0953 -3.16498,-10.36767 -2.16678,-3.27237 -5.0354,-6.20923 -7.36454,-8.33186 -1.16458,-1.06131 -2.19415,-1.91874 -2.93338,-2.51143 -0.36961,-0.29634 -0.66664,-0.52649 -0.87169,-0.68286 -0.10253,-0.0782 -0.18206,-0.13792 -0.23618,-0.17827 -0.0271,-0.0202 -0.0478,-0.0355 -0.0618,-0.0459 -0.014,-0.0104 -0.0214,-0.0158 -0.0219,-0.0161 -10e-6,-10e-6 -2e-5,-2e-5 -2e-5,-2e-5 0,0 0,0 -2e-5,10e-6 -0.0156,0.006 -10.9894,4.07542 -23.8233,7.42859 -0.25257,0.066 -0.50585,0.13171 -0.75977,0.19712 m 22.61871,-4.55991 c -3.20228,1.25332 -12.00903,4.61183 -22.02562,7.72051 -6.3052,1.95684 -13.08447,3.81348 -19.21864,4.91991 -3.06708,0.55322 -5.97294,0.91773 -8.57876,1.00805 -2.60581,0.0903 -4.91176,-0.0942 -6.77892,-0.63588 -1.59911,-7.60807 -3.17472,-15.14001 -4.70456,-22.59012 m 5.91851,17.58621 c -2.31697,-9.88842 -4.59031,-19.7969 -6.86472,-29.66833 m 64.67345,12.30231 c -0.1046,-0.82655 -0.23399,-1.73551 -0.39404,-2.71348 -0.77128,-4.71278 -2.25614,-11.02528 -5.09838,-17.4569 -2.84225,-6.43162 -7.03952,-12.98411 -13.22442,-18.2036 -6.18489,-5.21949 -14.35239,-9.10547 -25.18603,-10.21116 -3.04726,-0.311 -5.93553,-0.47854 -8.67216,-0.51509 m 18.75403,3.72793 c -3.07309,-0.94715 -6.41544,-1.628 -10.0493,-1.98291 -8.44144,-0.82443 -15.55228,-0.5168 -21.5619,0.66808 -6.00962,1.18489 -10.91624,3.24568 -14.9169,5.91416 -4.00066,2.66849 -7.09418,5.94446 -9.46714,9.55697 -2.372953,3.61252 -4.024875,7.56168 -5.144388,11.57413 -1.633903,5.85606 -2.132913,11.84833 -2.102143,17.10945 m 5.480334,-24.93103 c -1.267047,2.45977 -2.265794,5.00819 -3.046355,7.57167 -2.409823,7.91423 -2.740725,15.96505 -2.468228,22.02558 0.136249,3.03027 0.423509,5.56463 0.677186,7.34296 0.126838,0.88917 0.24527,1.58935 0.332121,2.06784 0.04343,0.23924 0.07896,0.42306 0.103684,0.54733 0.01236,0.0621 0.02203,0.10938 0.02863,0.14122 0.0033,0.0159 0.0058,0.028 0.0076,0.0361 0.0017,0.008 0.0026,0.0124 0.0027,0.0126 10e-7,10e-6 2e-6,10e-6 2e-6,10e-6 0,0 3e-6,0 8e-6,0 0.0075,0.003 5.122564,2.35206 13.128078,5.59757 8.00551,3.24552 18.8991,7.3686 30.51001,11.00651 2.76536,0.86644 5.57157,1.70622 8.38939,2.50249 m -27.21406,-9.55719 c 5.61449,2.363 11.81416,4.86328 18.23251,7.27139 11.6552,4.37293 24.03447,8.45054 34.91363,10.81543 5.43957,1.18245 10.50328,1.93453 14.90995,2.06837 4.40668,0.13385 8.15568,-0.35249 10.96953,-1.63867 2.81303,-1.2858 4.83218,-2.72793 6.213,-4.26457 1.38082,-1.53663 2.12352,-3.16714 2.38545,-4.82401 0.14789,-0.9355 0.14252,-1.87936 0.012,-2.82006 m -21.62243,11.83288 c 0.49258,0.0176 0.97784,0.028 1.4554,0.031 4.37511,0.027 8.10394,-0.57118 10.90335,-1.96215 2.79858,-1.39056 4.80944,-2.9269 6.18429,-4.54863 1.37486,-1.62172 2.11399,-3.32903 2.37336,-5.06503 0.51873,-3.47201 -0.87837,-7.0604 -2.95623,-10.31063 -2.07785,-3.25022 -4.83697,-6.16226 -7.0737,-8.26526 -1.11836,-1.05149 -2.10661,-1.90047 -2.81611,-2.48716 -0.35476,-0.29335 -0.63983,-0.52112 -0.83665,-0.67585 -0.0984,-0.0774 -0.17475,-0.13647 -0.2267,-0.17639 -0.026,-0.02 -0.0459,-0.0351 -0.0593,-0.0454 -0.0135,-0.0103 -0.0206,-0.0156 -0.021,-0.0159 -1e-5,-10e-6 -2e-5,-10e-6 -2e-5,-10e-6 0,0 0,0 -1e-5,0 -0.0151,0.006 -10.60264,4.15682 -22.87219,7.58315 -1.28183,0.35796 -2.58221,0.70815 -3.89124,1.04518 m 14.60825,-2.33747 c -4.10318,1.41894 -9.40371,3.15796 -15.08243,4.77244 -6.28463,1.78674 -13.03057,3.42005 -19.12684,4.2844 -3.04813,0.43218 -5.93413,0.67206 -8.5209,0.64299 -2.58677,-0.0291 -4.8746,-0.32702 -6.72558,-0.97048 -1.77234,-9.27674 -3.49672,-18.56492 -5.14221,-27.88474"
       id="path2991"
       inkscape:connector-curvature="0"
       sodipodi:nodetypes="ccscsc"
       inkscape:path-effect="#path-effect3763"
       inkscape:original-d="m 190.20238,512.79061 c 0,0 -1.21252,-48.99864 -43.59936,-53.54861 -67.48769,-7.24438 -53.37529,59.60952 -53.37529,59.60952 0,0 81.82236,39.39595 104.04572,28.28427 22.22335,-11.11167 -6.06092,-31.31472 -6.06092,-31.31472 0,0 -43.43656,17.17259 -58.58885,12.12183 l -7.55225,-35.295" />
    <path
       style="fill:none;stroke:#000000;stroke-width:1;stroke-linecap:butt;stroke-linejoin:miter;stroke-miterlimit:4;stroke-opacity:1;stroke-dasharray:none"
       d="m 139.87816,516.24471 c -1.23527,-5.17415 -2.48774,-10.33691 -3.75391,-15.49104 2.73559,2.24112 5.46509,4.48608 8.18952,6.73406 1.64436,-3.87718 3.28155,-7.75009 4.91332,-11.6201 1.16037,4.43824 2.3143,8.87992 3.46407,13.32323 m -13.67654,3.09635 c -1.1429,-4.5225 -2.27687,-9.03934 -3.40303,-13.5514 2.7237,2.24757 5.45193,4.4979 8.1842,6.75061 1.65369,-3.87155 3.31311,-7.73973 4.97742,-11.60522 1.87123,6.95256 3.75671,13.91299 5.65232,20.878 m -15.61174,2.05975 c -1.44871,-5.62589 -2.87833,-11.25344 -4.2933,-16.88435 2.71503,2.23627 5.43555,4.47128 8.16053,6.70464 1.64503,-3.89458 3.29639,-7.79149 4.95236,-11.6914 1.32486,4.91829 2.65657,9.83215 3.99203,14.74039 m -4.01333,-13.13377 1.25775,-2.96114 m 4.19845,17.91311 0.73503,2.77461 m -2.40157,-9.06555 0.76383,2.88336 m -13.59048,3.78766 -0.92061,-3.69002 m 6.03518,-2.40746 1.32556,-3.12077"
       id="path3765"
       inkscape:connector-curvature="0"
       inkscape:path-effect="#path-effect3775"
       inkscape:original-d="m 140.84783,520.99618 -5.42515,-21.74528 8.17508,6.75448 4.93522,-11.619 5.9354,22.40521" />
    <path
       style="fill:none;stroke:#000000;stroke-width:1;stroke-linecap:butt;stroke-linejoin:miter;stroke-miterlimit:4;stroke-opacity:1;stroke-dasharray:none"
       d="m 159.0279,495.57271 c 1.9855,6.40935 3.93506,12.84325 5.85787,19.29395 m -6.40491,-21.81969 c 1.87324,6.43879 3.77139,12.89285 5.68976,19.35879 m -6.95232,-17.87754 c 1.83215,6.43809 3.69762,12.8727 5.58754,19.30064 m -4.1209,-19.25129 c 1.98825,6.52711 3.9499,13.03689 5.8953,19.5365 m -7.45487,-21.28743 c 1.85544,6.42508 3.75513,12.85959 5.69307,19.29779"
       id="path3767"
       inkscape:connector-curvature="0"
       inkscape:path-effect="#path-effect3773"
       inkscape:original-d="m 158.26604,493.60942 5.72448,19.40487" />
    <path
       style="fill:none;stroke:#000000;stroke-width:1;stroke-linecap:butt;stroke-linejoin:miter;stroke-miterlimit:4;stroke-opacity:1;stroke-dasharray:none"
       d="m 162.22961,497.19458 c 6.72436,-2.26406 13.42148,-4.51002 20.09869,-6.74374 -3.00767,0.89922 -6.01932,1.80088 -9.03429,2.70448 1.68566,5.3683 3.36067,10.74278 5.02879,16.12044 M 161.79981,495.6493 c 6.64335,-2.24282 13.30515,-4.47398 19.98191,-6.69625 -3.00788,0.90433 -6.01276,1.81045 -9.01496,2.7181 1.70853,5.37555 3.42565,10.75603 5.14956,16.14 m -16.90171,-11.29779 c 6.61371,-2.24332 13.2528,-4.4889 19.91012,-6.73945 -3.01657,0.89168 -6.02949,1.78237 -9.0394,2.67181 1.69472,5.34296 3.39908,10.68194 5.10939,16.01554"
       id="path3769"
       inkscape:connector-curvature="0"
       inkscape:path-effect="#path-effect3771"
       inkscape:original-d="m 161.74194,495.95092 20.00571,-6.66475 -9.03465,2.71394 5.07541,16.11064"
       sodipodi:nodetypes="cccc" />
    <path
       style="fill:none;stroke:#000000;stroke-width:1px;stroke-linecap:butt;stroke-linejoin:miter;stroke-opacity:1"
       d="m 133.66657,629.85444 c -5.9066,25.67965 -12.69618,51.94063 -19.45737,78.07106 m 4.15472,-22.92603 c -5.88235,23.07155 -11.29177,46.44399 -16.53056,69.87365 m 1.08388,-12.71218 c -6.345893,23.97184 -11.983722,47.88383 -17.623031,71.46159 m 6.207576,-15.09552 c -1.769961,7.93354 -3.596892,15.82881 -5.4547,23.70474 9.773716,21.74731 19.281695,43.32817 29.182785,65.2206 m -14.27398,-28.3416 c 11.13586,25.54186 23.48282,51.32386 36.32099,76.73514 m -5.65785,-305.74611 c -6.39176,25.07457 -11.86282,49.10601 -16.97133,72.60406 m 1.29641,-15.49315 c -6.2158,24.18455 -11.616,48.25711 -16.693698,72.22123 m 5.918938,-17.83942 c -5.380988,22.64764 -11.319312,45.77879 -17.539182,69.26243 m 3.113209,-13.90334 c -1.827732,7.87426 -3.708902,15.68848 -5.628099,23.45297 9.194142,20.57764 18.086312,40.76034 27.021402,60.77866 m -9.06307,-23.7449 c 12.07489,28.27081 24.99093,55.96693 38.13464,84.49257 m -9.19393,-313.36674 c -5.98003,26.76718 -12.83454,53.20797 -19.48269,79.63277 m 2.84107,-21.69148 c -6.57008,29.46488 -14.20791,58.0453 -21.534422,86.49959 m 5.333485,-20.51323 c -5.18382,22.68482 -10.614626,45.87736 -15.775094,69.70995 1.942064,4.44661 3.894692,8.91823 5.861877,13.41588 m -2.365663,-22.48225 c -0.605088,2.36711 -1.207814,4.73313 -1.808736,7.09875 8.68218,20.6281 17.518863,41.22296 26.065793,62.35161 m -5.64765,-17.25373 c 10.75978,23.78285 21.09537,48.00776 31.13343,72.14319 m -3.57309,-315.33181 c -7.47725,30.02578 -14.12946,59.76949 -20.46806,90.09148 m 5.79286,-25.08342 c -7.46498,31.77151 -15.40593,62.20155 -23.095394,92.03931 m 6.121584,-27.13404 c -5.437258,22.52913 -10.80029,45.09957 -16.04313,68.02482 4.033472,9.12301 8.088374,18.30929 12.168166,27.58243 M 84.911097,818.69729 c 11.186534,25.13299 22.800933,49.86365 34.976673,74.39466 M 106.91996,878.252 c 9.87788,21.29592 19.70245,42.75068 29.95518,64.04975 M 131.0472,628.52844 c -7.32795,30.44494 -15.06944,60.75832 -22.7771,90.53518 m 7.74362,-25.57123 c -8.15157,31.08797 -15.22324,63.73184 -22.287017,96.0629 m 5.634743,-27.39037 c -4.832545,19.67219 -9.684881,39.06832 -14.534992,58.02889 4.540682,9.74233 9.082032,19.35401 13.627665,28.80883 M 85.103068,827.44186 c 13.215431,30.14215 27.246782,60.52105 41.364482,90.72218 m -11.56146,-30.7984 c 7.39319,16.47245 14.52669,32.89805 21.57106,49.53842 m -44.673709,-101.23414 1.306623,2.93991 m 39.125616,88.03263 1.16575,2.62293 m -14.27891,-32.12753 1.21144,2.72572 m 0.69639,-226.56406 -0.905,3.69388 m -27.266673,111.29255 -0.80684,3.29322"
       id="path3798"
       inkscape:connector-curvature="0"
       inkscape:path-effect="#path-effect3804"
       inkscape:original-d="m 134,620.36218 -49,200 56,126" />
    <path
       style="fill:none;stroke:#000000;stroke-width:1px;stroke-linecap:butt;stroke-linejoin:miter;stroke-opacity:1"
       d="m 81.958968,827.16889 c -12.924364,22.86223 -26.731709,46.30579 -40.510665,69.6188 M 50.682957,875.9011 C 38.539485,896.459 26.86896,917.31779 15.369058,938.2338 m 5.127428,-11.08882 c -2.897677,4.81571 -5.760114,9.62754 -8.595063,14.43277 M 80.514204,827.3453 C 65.255843,855.22282 49.115923,882.5081 33.68279,910.35356 m 10.29256,-27.05 C 31.69225,903.85791 20.282457,924.58613 9.3060828,945.11251 M 81.321547,823.35473 c -13.072103,22.39261 -25.223501,43.7421 -37.012347,64.5582 m 5.899573,-13.64512 c -12.732536,21.56828 -24.64947,43.02456 -36.243912,64.37241 m 10.299404,-16.08079 c -3.320393,5.82405 -6.68662,11.68792 -10.092396,17.58872 M 79.78365,825.70203 C 64.765091,852.5381 48.967542,878.49898 33.248788,904.15813 M 47.261625,881.62645 C 36.253439,900.80773 25.676288,919.69402 15.303961,938.80093 M 82.72353,820.59804 c -13.151171,23.88818 -27.176818,47.44998 -40.996106,70.99578 m 8.145464,-19.56192 c -13.223969,24.11803 -27.34477,47.49305 -41.3010827,70.70874 m 27.3062637,-40.96711 -1.607701,2.78668 m -20.158657,34.94167 -1.43436,2.48622 m 8.493719,-14.72244 -1.490578,2.58367 m 52.965074,-91.80613 -1.900507,3.29421 m -23.983811,41.57194 -1.694371,2.93691"
       id="path3800"
       inkscape:connector-curvature="0"
       inkscape:path-effect="#path-effect3808"
       inkscape:original-d="m 84,818.36218 -75,130" />
    <path
       style="fill:none;stroke:#000000;stroke-width:1px;stroke-linecap:butt;stroke-linejoin:miter;stroke-opacity:1"
       d="m 35.421495,716.49723 c 25.963945,-8.6661 51.044909,-16.75088 76.154265,-24.96621 m -18.915319,1.93574 c 8.189819,-2.74946 16.442019,-5.45925 24.742099,-8.14102 7.28643,13.4326 14.72015,26.95135 22.22306,40.4933 m -9.90809,-11.31362 c 11.34136,21.72139 23.39077,43.38294 35.43871,64.71025 m -5.66291,-13.58517 c 3.73832,6.79577 7.42486,13.55765 11.08226,20.30142 M 34.231351,711.4703 c 26.525343,-9.03185 54.261773,-17.82354 82.489419,-26.98597 m -20.701973,9.26242 c 6.855553,-2.18145 13.786573,-4.4484 20.779963,-6.78888 8.74257,15.85049 17.87274,31.24395 27.18758,46.36572 m -11.21681,-13.90102 c 11.49924,21.93056 23.81409,43.74913 36.45143,65.45927 M 30.794455,713.36945 c 22.449633,-7.34443 44.341926,-14.20535 65.952673,-20.71378 m -14.478785,5.05493 c 11.708464,-3.68112 23.294517,-7.49977 34.811587,-11.42022 8.68889,16.10321 17.21786,31.9704 25.77554,47.72766 m -10.7817,-22.90238 c 13.21337,25.51549 27.16354,50.52743 41.34713,76.18723 M 35.459653,712.91056 c 26.587054,-8.32922 52.299631,-16.98482 78.218567,-25.65641 m -21.248404,4.26888 c 7.716734,-2.3818 15.358424,-4.82575 22.950774,-7.31774 10.52147,19.35121 20.66373,38.33333 30.97412,57.24733 m -11.97259,-18.31128 c 11.4154,20.65821 22.58171,41.82763 34.02269,63.64309 M 37.621144,712.02282 c 22.924341,-7.11339 46.097286,-14.3428 68.914496,-20.91684 m -14.478568,2.58564 c 8.381768,-2.82058 16.716258,-5.59189 25.008178,-8.33371 8.17225,15.41986 16.17502,30.95715 24.04577,46.45472 m -8.59912,-15.39902 c 13.04629,24.92465 26.78218,49.61365 40.81715,74.72425 m -35.31959,-65.70545 1.52368,2.8335 m 27.84974,51.79075 1.35939,2.528 m -10.8859,-20.24397 1.41267,2.62707 m -99.701474,-59.89164 3.616005,-1.17825 m 60.139179,-5.77759 1.60582,2.98625"
       id="path3802"
       inkscape:connector-curvature="0"
       inkscape:path-effect="#path-effect3806"
       inkscape:original-d="m 28,715.36218 89,-29 57,106" />
  </g>
</svg>
