<?xml version="1.0" encoding="UTF-8" standalone="no"?>
<!-- Created with Inkscape (http://www.inkscape.org/) -->

<svg
   xmlns:dc="http://purl.org/dc/elements/1.1/"
   xmlns:cc="http://creativecommons.org/ns#"
   xmlns:rdf="http://www.w3.org/1999/02/22-rdf-syntax-ns#"
   xmlns:svg="http://www.w3.org/2000/svg"
   xmlns="http://www.w3.org/2000/svg"
   xmlns:sodipodi="http://sodipodi.sourceforge.net/DTD/sodipodi-0.dtd"
   xmlns:inkscape="http://www.inkscape.org/namespaces/inkscape"
   width="1100"
   height="800"
   id="svg2"
   version="1.1"
   inkscape:version="0.48.4 r9939"
   sodipodi:docname="losering-2.svg">
  <defs
     id="defs4">
    <inkscape:path-effect
       effect="sketch"
       id="path-effect4749"
       is_visible="true"
       nbiter_approxstrokes="5"
       strokelength="100"
       strokelength_rdm="0;1"
       strokeoverlap="0"
       strokeoverlap_rdm="0.1;1"
       ends_tolerance="0;1"
       parallel_offset="1;1"
       tremble_size="1;1"
       tremble_frequency="1"
       nbtangents="0"
       tgt_places_rdmness="1;1"
       tgtscale="10"
       tgtlength="5"
       tgtlength_rdm="0.3;1" />
    <inkscape:path-effect
       effect="sketch"
       id="path-effect4747"
       is_visible="true"
       nbiter_approxstrokes="5"
       strokelength="100"
       strokelength_rdm="0;1"
       strokeoverlap="0"
       strokeoverlap_rdm="0;1"
       ends_tolerance="0;1"
       parallel_offset="1.1;1"
       tremble_size="1;1"
       tremble_frequency="1"
       nbtangents="0"
       tgt_places_rdmness="1;1"
       tgtscale="10"
       tgtlength="21"
       tgtlength_rdm="0.3;1" />
    <inkscape:path-effect
       effect="sketch"
       id="path-effect4745"
       is_visible="true"
       nbiter_approxstrokes="5"
       strokelength="100"
       strokelength_rdm="0.3;1"
       strokeoverlap="0.3"
       strokeoverlap_rdm="0.3;1"
       ends_tolerance="0.1;1"
       parallel_offset="1.1;1"
       tremble_size="2;1"
       tremble_frequency="1"
       nbtangents="4"
       tgt_places_rdmness="1;1"
       tgtscale="10"
       tgtlength="40"
       tgtlength_rdm="0.3;1" />
    <inkscape:path-effect
       effect="sketch"
       id="path-effect4737"
       is_visible="true"
       nbiter_approxstrokes="4"
       strokelength="100"
       strokelength_rdm="0.3;1"
       strokeoverlap="0.3"
       strokeoverlap_rdm="0.3;1"
       ends_tolerance="0.1;1"
       parallel_offset="2;1"
       tremble_size="2;1"
       tremble_frequency="1"
       nbtangents="5"
       tgt_places_rdmness="1;1"
       tgtscale="10"
       tgtlength="40"
       tgtlength_rdm="0.3;1" />
    <inkscape:path-effect
       effect="sketch"
       id="path-effect4715"
       is_visible="true"
       nbiter_approxstrokes="10"
       strokelength="100"
       strokelength_rdm="0.3;1"
       strokeoverlap="0.3"
       strokeoverlap_rdm="0.3;1"
       ends_tolerance="0.1;1"
       parallel_offset="1.5;1"
       tremble_size="1.8;1"
       tremble_frequency="2.5"
       nbtangents="0"
       tgt_places_rdmness="1;1"
       tgtscale="10"
       tgtlength="2"
       tgtlength_rdm="0.3;1" />
    <inkscape:path-effect
       effect="sketch"
       id="path-effect4709"
       is_visible="true"
       nbiter_approxstrokes="5"
       strokelength="100"
       strokelength_rdm="0;1"
       strokeoverlap="0"
       strokeoverlap_rdm="0;1"
       ends_tolerance="0;1"
       parallel_offset="1;1"
       tremble_size="1;1"
       tremble_frequency="2.5"
       nbtangents="0"
       tgt_places_rdmness="1;1"
       tgtscale="10"
       tgtlength="2"
       tgtlength_rdm="0.3;1" />
    <inkscape:path-effect
       effect="sketch"
       id="path-effect4341"
       is_visible="true"
       nbiter_approxstrokes="3"
       strokelength="100"
       strokelength_rdm="0;1"
       strokeoverlap="0"
       strokeoverlap_rdm="0;1"
       ends_tolerance="0;1"
       parallel_offset="1;1"
       tremble_size="2;1"
       tremble_frequency="1"
       nbtangents="0"
       tgt_places_rdmness="1;1"
       tgtscale="10"
       tgtlength="2"
       tgtlength_rdm="0.3;1" />
    <marker
       inkscape:stockid="Arrow1Lend"
       orient="auto"
       refY="0"
       refX="0"
       id="Arrow1Lend"
       style="overflow:visible">
      <path
         id="path3904"
         d="M 0,0 5,-5 -12.5,0 5,5 0,0 z"
         style="fill-rule:evenodd;stroke:#000000;stroke-width:1pt"
         transform="matrix(-0.8,0,0,-0.8,-10,0)"
         inkscape:connector-curvature="0" />
    </marker>
    <inkscape:path-effect
       effect="sketch"
       id="path-effect3895"
       is_visible="true"
       nbiter_approxstrokes="3"
       strokelength="100"
       strokelength_rdm="0;1"
       strokeoverlap="0"
       strokeoverlap_rdm="0;1"
       ends_tolerance="0;1"
       parallel_offset="1;1"
       tremble_size="1;1"
       tremble_frequency="1"
       nbtangents="0"
       tgt_places_rdmness="1;1"
       tgtscale="10"
       tgtlength="2"
       tgtlength_rdm="0.3;1" />
    <inkscape:path-effect
       tgtlength_rdm="1;1"
       tgtlength="5"
       tgtscale="10.4"
       tgt_places_rdmness="1;1"
       nbtangents="0"
       tremble_frequency="3.5"
       tremble_size="1.6;1"
       parallel_offset="1.6;1"
       ends_tolerance="0.1;1"
       strokeoverlap_rdm="0.3;1"
       strokeoverlap="0.3"
       strokelength_rdm="0.3;1"
       strokelength="100"
       nbiter_approxstrokes="5"
       is_visible="true"
       id="path-effect3885"
       effect="sketch" />
    <inkscape:path-effect
       tgtlength_rdm="1;1"
       tgtlength="5"
       tgtscale="10.4"
       tgt_places_rdmness="1;1"
       nbtangents="13"
       tremble_frequency="3.5"
       tremble_size="2;1"
       parallel_offset="2;1"
       ends_tolerance="0.1;1"
       strokeoverlap_rdm="0.3;1"
       strokeoverlap="0.3"
       strokelength_rdm="0.3;1"
       strokelength="100"
       nbiter_approxstrokes="5"
       is_visible="true"
       id="path-effect3877"
       effect="sketch" />
    <inkscape:path-effect
       effect="sketch"
       id="path-effect3869"
       is_visible="true"
       nbiter_approxstrokes="5"
       strokelength="100"
       strokelength_rdm="0.3;1"
       strokeoverlap="0.3"
       strokeoverlap_rdm="0.3;1"
       ends_tolerance="0.1;1"
       parallel_offset="2;1"
       tremble_size="2;1"
       tremble_frequency="3.5"
       nbtangents="13"
       tgt_places_rdmness="1;1"
       tgtscale="10.4"
       tgtlength="5"
       tgtlength_rdm="1;1" />
    <inkscape:path-effect
       effect="sketch"
       id="path-effect3864"
       is_visible="true"
       nbiter_approxstrokes="5"
       strokelength="100"
       strokelength_rdm="0.3;1"
       strokeoverlap="0.3"
       strokeoverlap_rdm="0.3;1"
       ends_tolerance="0.1;1"
       parallel_offset="5;1"
       tremble_size="5;1"
       tremble_frequency="1.5"
       nbtangents="5"
       tgt_places_rdmness="1;1"
       tgtscale="10"
       tgtlength="100"
       tgtlength_rdm="0.3;1" />
    <inkscape:path-effect
       effect="sketch"
       id="path-effect3862"
       is_visible="true"
       nbiter_approxstrokes="5"
       strokelength="100"
       strokelength_rdm="0.3;1"
       strokeoverlap="0.3"
       strokeoverlap_rdm="0.3;1"
       ends_tolerance="0.1;1"
       parallel_offset="2;1"
       tremble_size="2;1"
       tremble_frequency="1"
       nbtangents="0"
       tgt_places_rdmness="1;1"
       tgtscale="10"
       tgtlength="5"
       tgtlength_rdm="0.3;1" />
    <inkscape:path-effect
       effect="sketch"
       id="path-effect3860"
       is_visible="true"
       nbiter_approxstrokes="5"
       strokelength="100"
       strokelength_rdm="0.3;1"
       strokeoverlap="0.3"
       strokeoverlap_rdm="0.3;1"
       ends_tolerance="0.1;1"
       parallel_offset="5.4;1"
       tremble_size="5;1"
       tremble_frequency="1.5"
       nbtangents="5"
       tgt_places_rdmness="1;1"
       tgtscale="10"
       tgtlength="60"
       tgtlength_rdm="0.3;1" />
    <inkscape:path-effect
       effect="sketch"
       id="path-effect3858"
       is_visible="true"
       nbiter_approxstrokes="5"
       strokelength="100"
       strokelength_rdm="0.3;1"
       strokeoverlap="0.3"
       strokeoverlap_rdm="0.3;1"
       ends_tolerance="0.1;1"
       parallel_offset="3;1"
       tremble_size="2;1"
       tremble_frequency="1"
       nbtangents="0"
       tgt_places_rdmness="1;1"
       tgtscale="10"
       tgtlength="2"
       tgtlength_rdm="0.3;1" />
    <inkscape:path-effect
       effect="sketch"
       id="path-effect3856"
       is_visible="true"
       nbiter_approxstrokes="4"
       strokelength="100"
       strokelength_rdm="0.3;1"
       strokeoverlap="0.3"
       strokeoverlap_rdm="0.3;1"
       ends_tolerance="0.1;1"
       parallel_offset="3;1"
       tremble_size="3;1"
       tremble_frequency="1"
       nbtangents="0"
       tgt_places_rdmness="1;1"
       tgtscale="10"
       tgtlength="5"
       tgtlength_rdm="0.3;1" />
    <inkscape:path-effect
       effect="sketch"
       id="path-effect3854"
       is_visible="true"
       nbiter_approxstrokes="4"
       strokelength="100"
       strokelength_rdm="0.3;1"
       strokeoverlap="0.3"
       strokeoverlap_rdm="0.3;1"
       ends_tolerance="0.1;1"
       parallel_offset="2;1"
       tremble_size="2;1"
       tremble_frequency="1"
       nbtangents="0"
       tgt_places_rdmness="1;1"
       tgtscale="10"
       tgtlength="2"
       tgtlength_rdm="0.3;1" />
    <inkscape:path-effect
       effect="sketch"
       id="path-effect3846"
       is_visible="true"
       nbiter_approxstrokes="6"
       strokelength="100"
       strokelength_rdm="0.3;1"
       strokeoverlap="0.3"
       strokeoverlap_rdm="0.3;1"
       ends_tolerance="0.1;1"
       parallel_offset="5.7;1"
       tremble_size="5.6;1"
       tremble_frequency="1"
       nbtangents="0"
       tgt_places_rdmness="1;1"
       tgtscale="10"
       tgtlength="4"
       tgtlength_rdm="0.3;1" />
    <inkscape:path-effect
       effect="sketch"
       id="path-effect3842"
       is_visible="true"
       nbiter_approxstrokes="5"
       strokelength="100"
       strokelength_rdm="0.3;1"
       strokeoverlap="0.3"
       strokeoverlap_rdm="0.3;1"
       ends_tolerance="0.1;1"
       parallel_offset="5;1"
       tremble_size="5;1"
       tremble_frequency="1"
       nbtangents="5"
       tgt_places_rdmness="1;1"
       tgtscale="10"
       tgtlength="40"
       tgtlength_rdm="0.3;1" />
    <inkscape:path-effect
       effect="sketch"
       id="path-effect3840"
       is_visible="true"
       nbiter_approxstrokes="5"
       strokelength="100"
       strokelength_rdm="0.3;1"
       strokeoverlap="0.3"
       strokeoverlap_rdm="0.3;1"
       ends_tolerance="0.1;1"
       parallel_offset="5;1"
       tremble_size="5;1"
       tremble_frequency="1"
       nbtangents="5"
       tgt_places_rdmness="1;1"
       tgtscale="10"
       tgtlength="20"
       tgtlength_rdm="0.3;1" />
    <inkscape:path-effect
       effect="sketch"
       id="path-effect3826"
       is_visible="true"
       nbiter_approxstrokes="5"
       strokelength="100"
       strokelength_rdm="0.3;1"
       strokeoverlap="0.3"
       strokeoverlap_rdm="0.3;1"
       ends_tolerance="0.1;1"
       parallel_offset="5;1"
       tremble_size="5;1"
       tremble_frequency="1"
       nbtangents="0"
       tgt_places_rdmness="1;1"
       tgtscale="10"
       tgtlength="5"
       tgtlength_rdm="0.3;1" />
    <inkscape:path-effect
       effect="sketch"
       id="path-effect3814"
       is_visible="true"
       nbiter_approxstrokes="5"
       strokelength="100"
       strokelength_rdm="0.3;1"
       strokeoverlap="0.3"
       strokeoverlap_rdm="0.3;1"
       ends_tolerance="0.1;1"
       parallel_offset="4.4;1"
       tremble_size="5.2;1"
       tremble_frequency="1.5"
       nbtangents="5"
       tgt_places_rdmness="1;1"
       tgtscale="10"
       tgtlength="100"
       tgtlength_rdm="0.3;1" />
    <inkscape:path-effect
       effect="sketch"
       id="path-effect3808"
       is_visible="true"
       nbiter_approxstrokes="5"
       strokelength="100"
       strokelength_rdm="0.3;1"
       strokeoverlap="0.3"
       strokeoverlap_rdm="0.3;1"
       ends_tolerance="0.1;1"
       parallel_offset="2;1"
       tremble_size="2;1"
       tremble_frequency="1"
       nbtangents="5"
       tgt_places_rdmness="1;1"
       tgtscale="10"
       tgtlength="2"
       tgtlength_rdm="0.3;1" />
    <inkscape:path-effect
       effect="sketch"
       id="path-effect3806"
       is_visible="true"
       nbiter_approxstrokes="5"
       strokelength="100"
       strokelength_rdm="0.3;1"
       strokeoverlap="0.3"
       strokeoverlap_rdm="0.3;1"
       ends_tolerance="0.1;1"
       parallel_offset="2;1"
       tremble_size="2;1"
       tremble_frequency="1"
       nbtangents="5"
       tgt_places_rdmness="1;1"
       tgtscale="10"
       tgtlength="2"
       tgtlength_rdm="0.3;1" />
    <inkscape:path-effect
       effect="sketch"
       id="path-effect3804"
       is_visible="true"
       nbiter_approxstrokes="5"
       strokelength="100"
       strokelength_rdm="0.3;1"
       strokeoverlap="0.3"
       strokeoverlap_rdm="0.3;1"
       ends_tolerance="0.1;1"
       parallel_offset="2;1"
       tremble_size="2;1"
       tremble_frequency="1"
       nbtangents="5"
       tgt_places_rdmness="1;1"
       tgtscale="10"
       tgtlength="2"
       tgtlength_rdm="0.3;1" />
    <inkscape:path-effect
       effect="sketch"
       id="path-effect3775"
       is_visible="true"
       nbiter_approxstrokes="3"
       strokelength="100"
       strokelength_rdm="0.3;1"
       strokeoverlap="0.3"
       strokeoverlap_rdm="0.3;1"
       ends_tolerance="0.1;1"
       parallel_offset="1;1"
       tremble_size="1;1"
       tremble_frequency="1"
       nbtangents="5"
       tgt_places_rdmness="1;1"
       tgtscale="10"
       tgtlength="2"
       tgtlength_rdm="0.3;1" />
    <inkscape:path-effect
       effect="sketch"
       id="path-effect3773"
       is_visible="true"
       nbiter_approxstrokes="5"
       strokelength="100"
       strokelength_rdm="0.3;1"
       strokeoverlap="0.3"
       strokeoverlap_rdm="0.3;1"
       ends_tolerance="0;1"
       parallel_offset="1.2;1"
       tremble_size="1.3;1"
       tremble_frequency="1"
       nbtangents="0"
       tgt_places_rdmness="1;1"
       tgtscale="10"
       tgtlength="0"
       tgtlength_rdm="0.3;1" />
    <inkscape:path-effect
       effect="sketch"
       id="path-effect3771"
       is_visible="true"
       nbiter_approxstrokes="3"
       strokelength="100"
       strokelength_rdm="0.1;1"
       strokeoverlap="0"
       strokeoverlap_rdm="0;1"
       ends_tolerance="0;1"
       parallel_offset="0.7;1"
       tremble_size="0.9;1"
       tremble_frequency="1"
       nbtangents="0"
       tgt_places_rdmness="1;1"
       tgtscale="10"
       tgtlength="2"
       tgtlength_rdm="0.3;1" />
    <inkscape:path-effect
       effect="sketch"
       id="path-effect3763"
       is_visible="true"
       nbiter_approxstrokes="3"
       strokelength="100"
       strokelength_rdm="0.3;1"
       strokeoverlap="0.3"
       strokeoverlap_rdm="0.3;1"
       ends_tolerance="0.1;1"
       parallel_offset="2;1"
       tremble_size="2;1"
       tremble_frequency="1"
       nbtangents="0"
       tgt_places_rdmness="1;1"
       tgtscale="10"
       tgtlength="2"
       tgtlength_rdm="0.3;1" />
    <inkscape:path-effect
       effect="sketch"
       id="path-effect3761"
       is_visible="true"
       nbiter_approxstrokes="5"
       strokelength="100"
       strokelength_rdm="0.3;1"
       strokeoverlap="0.3"
       strokeoverlap_rdm="0.3;1"
       ends_tolerance="0.1;1"
       parallel_offset="1.9;1"
       tremble_size="2;1"
       tremble_frequency="1"
       nbtangents="3"
       tgt_places_rdmness="1;1"
       tgtscale="10"
       tgtlength="20"
       tgtlength_rdm="0.3;1" />
  </defs>
  <sodipodi:namedview
     id="base"
     pagecolor="#ffffff"
     bordercolor="#666666"
     borderopacity="1.0"
     inkscape:pageopacity="0.0"
     inkscape:pageshadow="2"
     inkscape:zoom="0.70710678"
     inkscape:cx="535.22062"
     inkscape:cy="392.73283"
     inkscape:document-units="px"
     inkscape:current-layer="layer1"
     showgrid="false"
     inkscape:window-width="1716"
     inkscape:window-height="1404"
     inkscape:window-x="3400"
     inkscape:window-y="16"
     inkscape:window-maximized="0" />
  <metadata
     id="metadata7">
    <rdf:RDF>
      <cc:Work
         rdf:about="">
        <dc:format>image/svg+xml</dc:format>
        <dc:type
           rdf:resource="http://purl.org/dc/dcmitype/StillImage" />
        <dc:title></dc:title>
      </cc:Work>
    </rdf:RDF>
  </metadata>
  <g
     inkscape:label="Layer 1"
     inkscape:groupmode="layer"
     id="layer1"
     transform="translate(0,-252.36221)">
    <path
       sodipodi:type="arc"
       style="fill:none;stroke:#000000;stroke-width:0.80000001;stroke-miterlimit:4;stroke-opacity:1;stroke-dasharray:none;stroke-dashoffset:0"
       id="path2989"
       sodipodi:cx="151.52289"
       sodipodi:cy="221.84561"
       sodipodi:rx="60.609154"
       sodipodi:ry="59.598999"
       d="m 213.15811,220.18725 c 1.40844,13.70534 -2.44198,27.06878 -10.06654,38.03317 -7.50594,10.79381 -18.67782,19.26948 -32.14202,23.4859 m 16.8171,-12.72551 c -7.07904,4.99478 -15.3194,8.61711 -24.37492,10.35242 -15.47711,2.96587 -30.56806,-0.11692 -42.77664,-7.59693 m 11.47099,8.58417 c -5.86429,-1.78944 -11.36793,-4.41325 -16.34851,-7.75948 -12.92623,-8.68457 -22.331992,-22.22703 -25.322341,-38.70824 -0.584611,-3.22207 -0.902529,-6.46686 -0.963061,-9.706 m 5.084108,17.48876 c -0.678667,-2.19747 -1.236213,-4.46332 -1.66275,-6.79093 -2.696949,-14.71725 0.320357,-29.95984 8.402384,-42.5649 m 108.96548,25.43441 c 0.50388,13.06299 -3.2328,25.64379 -10.14014,35.9905 -8.19823,12.28037 -20.86295,21.42342 -36.07158,24.48079 m 19.71967,-5.33817 c -6.30503,3.94238 -13.3608,6.74761 -20.96028,8.11056 -16.31985,2.92694 -32.0727,-1.33552 -44.37358,-10.60936 -1.72004,-1.29676 -3.37235,-2.69177 -4.94887,-4.17927 m 12.05713,10.73893 c -3.45937,-1.46691 -6.7519,-3.24069 -9.83772,-5.29343 -12.88157,-8.56899 -22.173473,-21.99599 -24.88914,-38.26821 -0.919021,-5.50675 -1.023575,-11.07329 -0.3592,-16.5492 m 2.850185,15.06736 c -0.01476,-0.0773 -0.02938,-0.15469 -0.04387,-0.23213 -3.273798,-17.50252 1.232895,-35.30138 12.286794,-48.55075 m 106.27032,32.5421 c 1.71822,14.51354 -2.15667,28.37085 -10.03918,39.49116 -8.7952,12.40789 -22.58777,21.40671 -39.2258,24.01486 -0.99604,0.15614 -1.99098,0.28757 -2.98414,0.39474 m 25.07881,-9.03311 c -6.25799,3.97668 -13.28716,6.87368 -20.88205,8.41115 -16.3592,3.31167 -32.25576,-0.29791 -44.74927,-8.5911 -5.64813,-3.74923 -10.59938,-8.45715 -14.5774,-13.91674 m 16.45053,16.81888 c -1.09534,-0.64003 -2.17117,-1.31581 -3.22556,-2.0261 -12.58606,-8.47858 -22.112535,-21.87176 -25.355991,-38.10892 -2.08892,-10.4574 -1.32381,-21.13196 2.069192,-30.97053 m -5.320741,17.87619 c 0.149688,-11.67842 3.704885,-23.28393 10.337207,-33.26677 m 110.253593,32.14519 c 0.87261,13.25674 -2.85272,26.13061 -9.91118,36.94512 -8.16204,12.50532 -20.79436,22.2447 -35.91675,26.76033 m 20.79921,-10.9096 c -6.45608,4.17678 -13.76774,7.23912 -21.72771,8.88705 -16.62478,3.44178 -32.94019,0.0734 -46.07193,-7.86713 -0.79561,-0.4811 -1.57952,-0.97898 -2.35108,-1.49315 m 15.11917,5.3229 c -4.17873,-1.66593 -8.16649,-3.76941 -11.88907,-6.26464 -12.89067,-8.64056 -22.593345,-21.97995 -26.079857,-38.09239 -1.327332,-6.13408 -1.663605,-12.33623 -1.06668,-18.39861 m 0.963739,19.74247 c -0.01302,-0.0625 -0.02594,-0.12496 -0.03876,-0.1875 -2.980989,-14.54566 -0.0099,-29.56103 8.055309,-42.00704 m 112.563975,22.4923 c 2.42121,15.39293 -1.40818,30.10777 -9.65396,41.70895 -8.70952,12.25361 -22.35429,21.03239 -38.78798,23.32324 -1.87979,0.26204 -3.75528,0.4333 -5.62183,0.51689 m 26.03447,-8.55299 c -6.23956,3.97656 -13.30963,6.88998 -20.99337,8.4464 -16.37448,3.31682 -32.4358,-0.1527 -45.12729,-8.28086 -7.5818,-4.85571 -13.96106,-11.37535 -18.481913,-19.09521 m 18.791583,18.00295 c -0.29981,-0.19131 -0.59782,-0.38529 -0.89397,-0.58192 -12.80447,-8.50126 -22.166576,-21.94173 -24.967124,-38.28491 -1.966636,-11.47671 -0.428336,-23.23485 4.267073,-33.91997 m -9.024191,23.38109 c 0.684886,-12.51009 5.28357,-24.61055 13.396052,-34.5842"
       transform="translate(-15.796949,339.2677)"
       sodipodi:start="6.0929057"
       sodipodi:end="10.139874"
       sodipodi:open="true"
       inkscape:path-effect="#path-effect3862" />
    <path
       style="fill:none;stroke:#000000;stroke-width:1px;stroke-linecap:butt;stroke-linejoin:miter;stroke-opacity:1"
       d="m 190.76555,509.45934 c -0.0532,-0.409 -0.11194,-0.83295 -0.17662,-1.27065 -0.69853,-4.72673 -2.10164,-11.05325 -4.877,-17.49212 -2.77535,-6.43886 -6.91929,-12.99232 -13.05259,-18.20741 -6.13329,-5.2151 -14.25437,-9.09135 -24.99504,-10.18342 -4.11907,-0.41882 -7.94008,-0.57134 -11.48177,-0.48935 m 18.77969,-2.07325 c -2.48669,-0.68539 -5.13932,-1.1991 -7.96851,-1.51306 -8.4651,-0.93939 -15.5997,-0.68442 -21.63283,0.46182 -6.03312,1.14624 -10.96295,3.18503 -14.98718,5.83367 -4.02423,2.64863 -7.14178,5.90777 -9.54041,9.50098 -2.266544,3.39536 -3.890829,7.0892 -5.032064,10.84821 m 4.744274,-11.19189 c -0.768923,0.87541 -1.483645,1.77856 -2.147742,2.70444 -2.532851,3.53127 -4.329703,7.39306 -5.583659,11.30907 -2.50791,7.83203 -2.840899,15.87777 -2.545623,21.95761 0.147639,3.03992 0.451791,5.58923 0.718698,7.3795 0.133454,0.89514 0.257617,1.60055 0.348476,2.08272 0.04543,0.24108 0.08254,0.42635 0.108337,0.5516 0.0129,0.0626 0.02297,0.11025 0.02985,0.14234 0.0034,0.016 0.0061,0.0282 0.0079,0.0364 0.0018,0.008 0.0027,0.0125 0.0028,0.0127 2e-6,1e-5 3e-6,1e-5 3e-6,1e-5 0,0 3e-6,0 8e-6,10e-6 0.0076,0.003 5.168046,2.39073 13.279574,5.74494 3.07121,1.26998 6.56517,2.6778 10.35883,4.14503 m -13.06908,-5.52384 c 1.54691,0.70588 3.2773,1.48654 5.16201,2.32335 8.15294,3.61991 19.17523,8.27789 30.83939,12.55955 11.66415,4.28167 23.99077,8.20206 34.84488,10.40358 5.42705,1.10075 10.48469,1.77067 14.89307,1.83014 1.96911,0.0266 3.80854,-0.0688 5.49301,-0.30222 m -30.07956,-6.37015 c 2.22455,0.52921 4.4153,1.0022 6.55329,1.40748 5.3674,1.01746 10.40232,1.60798 14.80137,1.59142 4.39904,-0.0166 8.1606,-0.63994 10.99183,-2.04883 2.83039,-1.40848 4.87133,-2.95469 6.2734,-4.5837 1.40207,-1.62901 2.16594,-3.34084 2.45068,-5.08045 0.56947,-3.47923 -0.77068,-7.07101 -2.78294,-10.32167 -2.01225,-3.25066 -4.69918,-6.1599 -6.87906,-8.26022 -1.08994,-1.05016 -2.05376,-1.89785 -2.74596,-2.48364 -0.34609,-0.29289 -0.62429,-0.52029 -0.81638,-0.67478 -0.0961,-0.0772 -0.17057,-0.13625 -0.22128,-0.17611 -0.0254,-0.0199 -0.0448,-0.0351 -0.0579,-0.0453 -0.0132,-0.0102 -0.0201,-0.0156 -0.0205,-0.0159 -2e-5,-10e-6 -2e-5,-2e-5 -2e-5,-2e-5 0,0 -1e-5,10e-6 -2e-5,10e-6 -0.009,0.004 -4.17304,1.67854 -10.2812,3.77355 m 18.10168,5.34423 c -1.19458,-1.23632 -2.39111,-2.35181 -3.4688,-3.29993 -1.16491,-1.02487 -2.19105,-1.85409 -2.92699,-2.42751 -0.36796,-0.28671 -0.66339,-0.50945 -0.86728,-0.66079 -0.10195,-0.0757 -0.18101,-0.13347 -0.2348,-0.17252 -0.0269,-0.0195 -0.0475,-0.0344 -0.0614,-0.0444 -0.014,-0.01 -0.0213,-0.0152 -0.0217,-0.0155 -1e-5,-10e-6 -2e-5,-10e-6 -2e-5,-10e-6 0,0 0,0 -2e-5,0 -0.008,0.003 -2.74159,1.08601 -7.03907,2.58789 -4.29749,1.50187 -10.15158,3.41453 -16.42097,5.09894 -6.26939,1.68441 -12.95512,3.14126 -18.97988,3.80745 -3.01238,0.3331 -5.86046,0.46971 -8.41179,0.34258 -2.55132,-0.12714 -4.80635,-0.51742 -6.62897,-1.24265 -0.34583,-2.03969 -0.6892,-4.08287 -1.03036,-6.12929 m 9.87941,8.14003 c -1.64756,0.14626 -3.22148,0.22174 -4.6987,0.21337 -2.65696,-0.015 -5.00114,-0.30133 -6.89845,-0.9349 -1.8784,-8.70733 -3.66234,-17.42877 -5.37451,-26.16429 m 65.07826,0.69681 c -0.76706,-4.60478 -2.20957,-10.58297 -4.89824,-16.64671 -2.82235,-6.36524 -7.01469,-12.82776 -13.2098,-17.91592 -6.19512,-5.08817 -14.38699,-8.8093 -25.26381,-9.62179 -1.07632,-0.0804 -2.13298,-0.14285 -3.17027,-0.18795 m 14.06602,3.31191 c -3.38127,-1.19847 -7.13369,-2.06393 -11.29812,-2.51076 -8.3933,-0.90058 -15.5656,-0.70151 -21.66197,0.36623 -6.09638,1.06774 -11.11888,3.00227 -15.24358,5.5389 -4.12469,2.53664 -7.35258,5.67414 -9.868662,9.13716 -2.516085,3.46301 -4.320654,7.25106 -5.598266,11.09098 -1.746768,5.24998 -2.508366,10.59639 -2.75251,15.35607 m 7.539229,-24.91048 c -1.602775,2.82567 -2.825919,5.78944 -3.748231,8.77959 -2.475627,8.02602 -2.779527,16.2437 -2.456646,22.46624 0.16144,3.11127 0.478573,5.72328 0.75516,7.55898 0.138294,0.91785 0.266445,1.64157 0.360069,2.13635 0.04681,0.24739 0.085,0.43755 0.111527,0.56611 0.01327,0.0643 0.02362,0.11317 0.03068,0.14611 0.0035,0.0165 0.0062,0.029 0.0081,0.0374 0.0018,0.008 0.0028,0.0128 0.0029,0.0131 2e-6,1e-5 3e-6,1e-5 3e-6,1e-5 0,0 3e-6,0 9e-6,0 0.0076,0.004 5.19492,2.52322 13.378999,6.15558 8.18408,3.63237 19.37654,8.38165 31.32618,12.9327 0.42344,0.16127 0.84782,0.32229 1.27304,0.483 m -25.07009,-8.64199 c 6.66569,2.77914 14.28097,5.81322 22.15521,8.66514 11.67254,4.22761 23.9197,8.05551 34.64848,10.12415 5.36439,1.03432 10.34991,1.62945 14.68792,1.6146 2.77098,-0.009 5.27754,-0.26789 7.44767,-0.82061 m -22.10497,-2.54127 c 4.67271,0.86729 9.00075,1.3631 12.81863,1.38485 4.40641,0.0251 8.13375,-0.58054 10.92182,-1.97972 2.78725,-1.39876 4.77712,-2.94387 6.13007,-4.57376 1.35294,-1.62989 2.06863,-3.34492 2.30188,-5.08899 0.46651,-3.48814 -0.9982,-7.0953 -3.16498,-10.36767 -2.16678,-3.27237 -5.0354,-6.20923 -7.36454,-8.33186 -1.16458,-1.06131 -2.19415,-1.91874 -2.93338,-2.51143 -0.36961,-0.29634 -0.66664,-0.52649 -0.87169,-0.68286 -0.10253,-0.0782 -0.18206,-0.13792 -0.23618,-0.17827 -0.0271,-0.0202 -0.0478,-0.0355 -0.0618,-0.0459 -0.014,-0.0104 -0.0214,-0.0158 -0.0219,-0.0161 -10e-6,-10e-6 -2e-5,-2e-5 -2e-5,-2e-5 0,0 0,0 -2e-5,10e-6 -0.0156,0.006 -10.9894,4.07542 -23.8233,7.42859 -0.25257,0.066 -0.50585,0.13171 -0.75977,0.19712 m 22.61871,-4.55991 c -3.20228,1.25332 -12.00903,4.61183 -22.02562,7.72051 -6.3052,1.95684 -13.08447,3.81348 -19.21864,4.91991 -3.06708,0.55322 -5.97294,0.91773 -8.57876,1.00805 -2.60581,0.0903 -4.91176,-0.0942 -6.77892,-0.63588 -1.59911,-7.60807 -3.17472,-15.14001 -4.70456,-22.59012 m 5.91851,17.58621 c -2.31697,-9.88842 -4.59031,-19.7969 -6.86472,-29.66833 m 64.67345,12.30231 c -0.1046,-0.82655 -0.23399,-1.73551 -0.39404,-2.71348 -0.77128,-4.71278 -2.25614,-11.02528 -5.09838,-17.4569 -2.84225,-6.43162 -7.03952,-12.98411 -13.22442,-18.2036 -6.18489,-5.21949 -14.35239,-9.10547 -25.18603,-10.21116 -3.04726,-0.311 -5.93553,-0.47854 -8.67216,-0.51509 m 18.75403,3.72793 c -3.07309,-0.94715 -6.41544,-1.628 -10.0493,-1.98291 -8.44144,-0.82443 -15.55228,-0.5168 -21.5619,0.66808 -6.00962,1.18489 -10.91624,3.24568 -14.9169,5.91416 -4.00066,2.66849 -7.09418,5.94446 -9.46714,9.55697 -2.372953,3.61252 -4.024875,7.56168 -5.144388,11.57413 -1.633903,5.85606 -2.132913,11.84833 -2.102143,17.10945 m 5.480334,-24.93103 c -1.267047,2.45977 -2.265794,5.00819 -3.046355,7.57167 -2.409823,7.91423 -2.740725,15.96505 -2.468228,22.02558 0.136249,3.03027 0.423509,5.56463 0.677186,7.34296 0.126838,0.88917 0.24527,1.58935 0.332121,2.06784 0.04343,0.23924 0.07896,0.42306 0.103684,0.54733 0.01236,0.0621 0.02203,0.10938 0.02863,0.14122 0.0033,0.0159 0.0058,0.028 0.0076,0.0361 0.0017,0.008 0.0026,0.0124 0.0027,0.0126 10e-7,10e-6 2e-6,10e-6 2e-6,10e-6 0,0 3e-6,0 8e-6,0 0.0075,0.003 5.122564,2.35206 13.128078,5.59757 8.00551,3.24552 18.8991,7.3686 30.51001,11.00651 2.76536,0.86644 5.57157,1.70622 8.38939,2.50249 m -27.21406,-9.55719 c 5.61449,2.363 11.81416,4.86328 18.23251,7.27139 11.6552,4.37293 24.03447,8.45054 34.91363,10.81543 5.43957,1.18245 10.50328,1.93453 14.90995,2.06837 4.40668,0.13385 8.15568,-0.35249 10.96953,-1.63867 2.81303,-1.2858 4.83218,-2.72793 6.213,-4.26457 1.38082,-1.53663 2.12352,-3.16714 2.38545,-4.82401 0.14789,-0.9355 0.14252,-1.87936 0.012,-2.82006 m -21.62243,11.83288 c 0.49258,0.0176 0.97784,0.028 1.4554,0.031 4.37511,0.027 8.10394,-0.57118 10.90335,-1.96215 2.79858,-1.39056 4.80944,-2.9269 6.18429,-4.54863 1.37486,-1.62172 2.11399,-3.32903 2.37336,-5.06503 0.51873,-3.47201 -0.87837,-7.0604 -2.95623,-10.31063 -2.07785,-3.25022 -4.83697,-6.16226 -7.0737,-8.26526 -1.11836,-1.05149 -2.10661,-1.90047 -2.81611,-2.48716 -0.35476,-0.29335 -0.63983,-0.52112 -0.83665,-0.67585 -0.0984,-0.0774 -0.17475,-0.13647 -0.2267,-0.17639 -0.026,-0.02 -0.0459,-0.0351 -0.0593,-0.0454 -0.0135,-0.0103 -0.0206,-0.0156 -0.021,-0.0159 -1e-5,-10e-6 -2e-5,-10e-6 -2e-5,-10e-6 0,0 0,0 -1e-5,0 -0.0151,0.006 -10.60264,4.15682 -22.87219,7.58315 -1.28183,0.35796 -2.58221,0.70815 -3.89124,1.04518 m 14.60825,-2.33747 c -4.10318,1.41894 -9.40371,3.15796 -15.08243,4.77244 -6.28463,1.78674 -13.03057,3.42005 -19.12684,4.2844 -3.04813,0.43218 -5.93413,0.67206 -8.5209,0.64299 -2.58677,-0.0291 -4.8746,-0.32702 -6.72558,-0.97048 -1.77234,-9.27674 -3.49672,-18.56492 -5.14221,-27.88474"
       id="path2991"
       inkscape:connector-curvature="0"
       sodipodi:nodetypes="ccscsc"
       inkscape:path-effect="#path-effect3763"
       inkscape:original-d="m 190.20238,512.79061 c 0,0 -1.21252,-48.99864 -43.59936,-53.54861 -67.48769,-7.24438 -53.37529,59.60952 -53.37529,59.60952 0,0 81.82236,39.39595 104.04572,28.28427 22.22335,-11.11167 -6.06092,-31.31472 -6.06092,-31.31472 0,0 -43.43656,17.17259 -58.58885,12.12183 l -7.55225,-35.295" />
    <path
       style="fill:none;stroke:#000000;stroke-width:1;stroke-linecap:butt;stroke-linejoin:miter;stroke-miterlimit:4;stroke-opacity:1;stroke-dasharray:none"
       d="m 139.87816,516.24471 c -1.23527,-5.17415 -2.48774,-10.33691 -3.75391,-15.49104 2.73559,2.24112 5.46509,4.48608 8.18952,6.73406 1.64436,-3.87718 3.28155,-7.75009 4.91332,-11.6201 1.16037,4.43824 2.3143,8.87992 3.46407,13.32323 m -13.67654,3.09635 c -1.1429,-4.5225 -2.27687,-9.03934 -3.40303,-13.5514 2.7237,2.24757 5.45193,4.4979 8.1842,6.75061 1.65369,-3.87155 3.31311,-7.73973 4.97742,-11.60522 1.87123,6.95256 3.75671,13.91299 5.65232,20.878 m -15.61174,2.05975 c -1.44871,-5.62589 -2.87833,-11.25344 -4.2933,-16.88435 2.71503,2.23627 5.43555,4.47128 8.16053,6.70464 1.64503,-3.89458 3.29639,-7.79149 4.95236,-11.6914 1.32486,4.91829 2.65657,9.83215 3.99203,14.74039 m -4.01333,-13.13377 1.25775,-2.96114 m 4.19845,17.91311 0.73503,2.77461 m -2.40157,-9.06555 0.76383,2.88336 m -13.59048,3.78766 -0.92061,-3.69002 m 6.03518,-2.40746 1.32556,-3.12077"
       id="path3765"
       inkscape:connector-curvature="0"
       inkscape:path-effect="#path-effect3775"
       inkscape:original-d="m 140.84783,520.99618 -5.42515,-21.74528 8.17508,6.75448 4.93522,-11.619 5.9354,22.40521" />
    <path
       style="fill:none;stroke:#000000;stroke-width:1;stroke-linecap:butt;stroke-linejoin:miter;stroke-miterlimit:4;stroke-opacity:1;stroke-dasharray:none"
       d="m 159.0279,495.57271 c 1.9855,6.40935 3.93506,12.84325 5.85787,19.29395 m -6.40491,-21.81969 c 1.87324,6.43879 3.77139,12.89285 5.68976,19.35879 m -6.95232,-17.87754 c 1.83215,6.43809 3.69762,12.8727 5.58754,19.30064 m -4.1209,-19.25129 c 1.98825,6.52711 3.9499,13.03689 5.8953,19.5365 m -7.45487,-21.28743 c 1.85544,6.42508 3.75513,12.85959 5.69307,19.29779"
       id="path3767"
       inkscape:connector-curvature="0"
       inkscape:path-effect="#path-effect3773"
       inkscape:original-d="m 158.26604,493.60942 5.72448,19.40487" />
    <path
       style="fill:none;stroke:#000000;stroke-width:1;stroke-linecap:butt;stroke-linejoin:miter;stroke-miterlimit:4;stroke-opacity:1;stroke-dasharray:none"
       d="m 162.22961,497.19458 c 6.72436,-2.26406 13.42148,-4.51002 20.09869,-6.74374 -3.00767,0.89922 -6.01932,1.80088 -9.03429,2.70448 1.68566,5.3683 3.36067,10.74278 5.02879,16.12044 M 161.79981,495.6493 c 6.64335,-2.24282 13.30515,-4.47398 19.98191,-6.69625 -3.00788,0.90433 -6.01276,1.81045 -9.01496,2.7181 1.70853,5.37555 3.42565,10.75603 5.14956,16.14 m -16.90171,-11.29779 c 6.61371,-2.24332 13.2528,-4.4889 19.91012,-6.73945 -3.01657,0.89168 -6.02949,1.78237 -9.0394,2.67181 1.69472,5.34296 3.39908,10.68194 5.10939,16.01554"
       id="path3769"
       inkscape:connector-curvature="0"
       inkscape:path-effect="#path-effect3771"
       inkscape:original-d="m 161.74194,495.95092 20.00571,-6.66475 -9.03465,2.71394 5.07541,16.11064"
       sodipodi:nodetypes="cccc" />
    <path
       style="fill:none;stroke:#000000;stroke-width:1px;stroke-linecap:butt;stroke-linejoin:miter;stroke-opacity:1"
       d="m 133.66657,629.85444 c -5.9066,25.67965 -12.69618,51.94063 -19.45737,78.07106 m 4.15472,-22.92603 c -5.88235,23.07155 -11.29177,46.44399 -16.53056,69.87365 m 1.08388,-12.71218 c -6.345893,23.97184 -11.983722,47.88383 -17.623031,71.46159 m 6.207576,-15.09552 c -1.769961,7.93354 -3.596892,15.82881 -5.4547,23.70474 9.773716,21.74731 19.281695,43.32817 29.182785,65.2206 m -14.27398,-28.3416 c 11.13586,25.54186 23.48282,51.32386 36.32099,76.73514 m -5.65785,-305.74611 c -6.39176,25.07457 -11.86282,49.10601 -16.97133,72.60406 m 1.29641,-15.49315 c -6.2158,24.18455 -11.616,48.25711 -16.693698,72.22123 m 5.918938,-17.83942 c -5.380988,22.64764 -11.319312,45.77879 -17.539182,69.26243 m 3.113209,-13.90334 c -1.827732,7.87426 -3.708902,15.68848 -5.628099,23.45297 9.194142,20.57764 18.086312,40.76034 27.021402,60.77866 m -9.06307,-23.7449 c 12.07489,28.27081 24.99093,55.96693 38.13464,84.49257 m -9.19393,-313.36674 c -5.98003,26.76718 -12.83454,53.20797 -19.48269,79.63277 m 2.84107,-21.69148 c -6.57008,29.46488 -14.20791,58.0453 -21.534422,86.49959 m 5.333485,-20.51323 c -5.18382,22.68482 -10.614626,45.87736 -15.775094,69.70995 1.942064,4.44661 3.894692,8.91823 5.861877,13.41588 m -2.365663,-22.48225 c -0.605088,2.36711 -1.207814,4.73313 -1.808736,7.09875 8.68218,20.6281 17.518863,41.22296 26.065793,62.35161 m -5.64765,-17.25373 c 10.75978,23.78285 21.09537,48.00776 31.13343,72.14319 m -3.57309,-315.33181 c -7.47725,30.02578 -14.12946,59.76949 -20.46806,90.09148 m 5.79286,-25.08342 c -7.46498,31.77151 -15.40593,62.20155 -23.095394,92.03931 m 6.121584,-27.13404 c -5.437258,22.52913 -10.80029,45.09957 -16.04313,68.02482 4.033472,9.12301 8.088374,18.30929 12.168166,27.58243 M 84.911097,818.69729 c 11.186534,25.13299 22.800933,49.86365 34.976673,74.39466 M 106.91996,878.252 c 9.87788,21.29592 19.70245,42.75068 29.95518,64.04975 M 131.0472,628.52844 c -7.32795,30.44494 -15.06944,60.75832 -22.7771,90.53518 m 7.74362,-25.57123 c -8.15157,31.08797 -15.22324,63.73184 -22.287017,96.0629 m 5.634743,-27.39037 c -4.832545,19.67219 -9.684881,39.06832 -14.534992,58.02889 4.540682,9.74233 9.082032,19.35401 13.627665,28.80883 M 85.103068,827.44186 c 13.215431,30.14215 27.246782,60.52105 41.364482,90.72218 m -11.56146,-30.7984 c 7.39319,16.47245 14.52669,32.89805 21.57106,49.53842 m -44.673709,-101.23414 1.306623,2.93991 m 39.125616,88.03263 1.16575,2.62293 m -14.27891,-32.12753 1.21144,2.72572 m 0.69639,-226.56406 -0.905,3.69388 m -27.266673,111.29255 -0.80684,3.29322"
       id="path3798"
       inkscape:connector-curvature="0"
       inkscape:path-effect="#path-effect3804"
       inkscape:original-d="m 134,620.36218 -49,200 56,126" />
    <path
       style="fill:none;stroke:#000000;stroke-width:1px;stroke-linecap:butt;stroke-linejoin:miter;stroke-opacity:1"
       d="m 81.958968,827.16889 c -12.924364,22.86223 -26.731709,46.30579 -40.510665,69.6188 M 50.682957,875.9011 C 38.539485,896.459 26.86896,917.31779 15.369058,938.2338 m 5.127428,-11.08882 c -2.897677,4.81571 -5.760114,9.62754 -8.595063,14.43277 M 80.514204,827.3453 C 65.255843,855.22282 49.115923,882.5081 33.68279,910.35356 m 10.29256,-27.05 C 31.69225,903.85791 20.282457,924.58613 9.3060828,945.11251 M 81.321547,823.35473 c -13.072103,22.39261 -25.223501,43.7421 -37.012347,64.5582 m 5.899573,-13.64512 c -12.732536,21.56828 -24.64947,43.02456 -36.243912,64.37241 m 10.299404,-16.08079 c -3.320393,5.82405 -6.68662,11.68792 -10.092396,17.58872 M 79.78365,825.70203 C 64.765091,852.5381 48.967542,878.49898 33.248788,904.15813 M 47.261625,881.62645 C 36.253439,900.80773 25.676288,919.69402 15.303961,938.80093 M 82.72353,820.59804 c -13.151171,23.88818 -27.176818,47.44998 -40.996106,70.99578 m 8.145464,-19.56192 c -13.223969,24.11803 -27.34477,47.49305 -41.3010827,70.70874 m 27.3062637,-40.96711 -1.607701,2.78668 m -20.158657,34.94167 -1.43436,2.48622 m 8.493719,-14.72244 -1.490578,2.58367 m 52.965074,-91.80613 -1.900507,3.29421 m -23.983811,41.57194 -1.694371,2.93691"
       id="path3800"
       inkscape:connector-curvature="0"
       inkscape:path-effect="#path-effect3808"
       inkscape:original-d="m 84,818.36218 -75,130" />
    <path
       style="fill:none;stroke:#000000;stroke-width:1px;stroke-linecap:butt;stroke-linejoin:miter;stroke-opacity:1"
       d="m 35.421495,716.49723 c 25.963945,-8.6661 51.044909,-16.75088 76.154265,-24.96621 m -18.915319,1.93574 c 8.189819,-2.74946 16.442019,-5.45925 24.742099,-8.14102 7.28643,13.4326 14.72015,26.95135 22.22306,40.4933 m -9.90809,-11.31362 c 11.34136,21.72139 23.39077,43.38294 35.43871,64.71025 m -5.66291,-13.58517 c 3.73832,6.79577 7.42486,13.55765 11.08226,20.30142 M 34.231351,711.4703 c 26.525343,-9.03185 54.261773,-17.82354 82.489419,-26.98597 m -20.701973,9.26242 c 6.855553,-2.18145 13.786573,-4.4484 20.779963,-6.78888 8.74257,15.85049 17.87274,31.24395 27.18758,46.36572 m -11.21681,-13.90102 c 11.49924,21.93056 23.81409,43.74913 36.45143,65.45927 M 30.794455,713.36945 c 22.449633,-7.34443 44.341926,-14.20535 65.952673,-20.71378 m -14.478785,5.05493 c 11.708464,-3.68112 23.294517,-7.49977 34.811587,-11.42022 8.68889,16.10321 17.21786,31.9704 25.77554,47.72766 m -10.7817,-22.90238 c 13.21337,25.51549 27.16354,50.52743 41.34713,76.18723 M 35.459653,712.91056 c 26.587054,-8.32922 52.299631,-16.98482 78.218567,-25.65641 m -21.248404,4.26888 c 7.716734,-2.3818 15.358424,-4.82575 22.950774,-7.31774 10.52147,19.35121 20.66373,38.33333 30.97412,57.24733 m -11.97259,-18.31128 c 11.4154,20.65821 22.58171,41.82763 34.02269,63.64309 M 37.621144,712.02282 c 22.924341,-7.11339 46.097286,-14.3428 68.914496,-20.91684 m -14.478568,2.58564 c 8.381768,-2.82058 16.716258,-5.59189 25.008178,-8.33371 8.17225,15.41986 16.17502,30.95715 24.04577,46.45472 m -8.59912,-15.39902 c 13.04629,24.92465 26.78218,49.61365 40.81715,74.72425 m -35.31959,-65.70545 1.52368,2.8335 m 27.84974,51.79075 1.35939,2.528 m -10.8859,-20.24397 1.41267,2.62707 m -99.701474,-59.89164 3.616005,-1.17825 m 60.139179,-5.77759 1.60582,2.98625"
       id="path3802"
       inkscape:connector-curvature="0"
       inkscape:path-effect="#path-effect3806"
       inkscape:original-d="m 28,715.36218 89,-29 57,106" />
    <path
       sodipodi:type="arc"
       style="fill:none;stroke:#000000;stroke-width:1.23064888;stroke-miterlimit:4;stroke-opacity:1;stroke-dasharray:none;stroke-dashoffset:0"
       id="path3812"
       sodipodi:cx="764.5"
       sodipodi:cy="226.59448"
       sodipodi:rx="72.5"
       sodipodi:ry="72.5"
       d="m 839.68767,227.22445 c 1.4643,8.25962 0.79706,16.72908 -1.48161,24.85797 -2.27866,8.12889 -6.17636,15.92275 -11.24765,22.88221 -3.31663,4.55151 -7.13614,8.74675 -11.33542,12.44604 -3.53215,3.11159 -7.32618,5.89016 -11.37091,8.27975 m 17.67336,-21.50595 c -9.29285,10.60945 -23.96858,18.68818 -41.74023,21.57706 -7.62215,1.23903 -15.31159,1.43546 -22.80979,0.63794 -1.93298,-0.20559 -3.81479,-0.47099 -5.64784,-0.79536 m 15.12511,5.39026 c -7.53252,0.84667 -15.23521,0.10106 -22.60606,-1.88738 -7.37084,-1.98844 -14.41457,-5.22306 -20.67195,-9.38376 -5.30323,-3.52627 -10.04305,-7.71876 -13.93645,-12.37943 -1.55387,-1.86009 -3.05077,-3.86215 -4.47493,-5.99401 m 18.08738,9.81123 c -6.00273,-4.6253 -11.12958,-10.16062 -15.32169,-16.28438 -4.19211,-6.12377 -7.44436,-12.84104 -9.75204,-19.77138 -2.0228,-6.07478 -3.19284,-11.90017 -3.72804,-17.2229 -0.7669,-7.6272 2.16392,-17.02921 7.47544,-26.55408 m -16.79582,12.40746 c 0.80078,-11.80002 5.52523,-23.08051 13.09175,-32.94379 6.83649,-8.91167 16.00293,-16.66634 26.78762,-22.62087 5.99939,-3.31243 11.99024,-5.8314 18.06564,-7.48389 m -21.17365,17.80159 c 8.18971,-5.492 17.61471,-9.27148 28.26439,-11.03504 14.07142,-2.33018 28.61337,-0.86573 43.01114,3.3284 3.86746,1.1266 7.41802,2.42111 10.68355,3.87397 m -21.57707,-7.67248 c 7.56458,2.3532 15.06773,5.75344 22.1181,10.2444 6.27268,3.99559 12.18807,8.85224 17.48471,14.59902 5.29664,5.74679 9.97487,12.38043 13.77992,19.96532 1.37585,2.74259 2.55639,5.50492 3.54088,8.2927 m 2.98337,13.38066 c 1.0577,8.66524 0.0866,16.62048 -2.46333,23.82831 -2.5499,7.20783 -6.68493,13.66268 -12.02755,19.26345 -4.35459,4.565 -9.51278,8.56142 -15.27811,11.92743 -1.07236,0.62608 -2.14728,1.24431 -3.22551,1.8525 m 1.93486,-15.91044 c -4.70246,6.19004 -10.58185,11.88635 -17.26329,16.87438 -6.68144,4.98804 -14.17033,9.26247 -22.0421,12.69369 -5.50894,2.40129 -10.88712,4.25753 -15.97756,5.64129 -7.64915,2.07931 -15.68468,0.18055 -23.29851,-4.21617 m 26.17111,5.97338 c -13.75906,-0.26545 -26.02328,-4.93928 -35.98122,-12.68824 -6.95915,-5.4154 -12.78493,-12.33988 -17.16591,-20.34258 -3.78513,-6.91427 -7.19991,-14.41925 -9.75632,-22.44849 m 3.56099,17.40054 c -5.82271,-7.62936 -9.63263,-16.68714 -10.98407,-26.56343 -1.64715,-12.03733 0.54269,-23.82199 5.64402,-34.0032 2.23747,-4.4655 4.73761,-8.9211 7.55562,-13.20616 m -6.80104,12.51853 c 1.82455,-7.73165 5.13358,-15.29759 9.58934,-22.16145 7.29808,-11.24229 17.69095,-20.62198 29.62943,-25.7831 4.25424,-1.83915 8.9931,-3.18805 14.1273,-3.95051 2.61096,-0.38774 5.26008,-0.61352 7.92726,-0.68043 m -27.44706,15.04331 c 4.94675,-2.09001 10.30317,-3.75177 16.03883,-4.90316 18.02054,-3.61746 36.86158,-1.55068 54.13292,5.05232 1.32395,0.50616 2.60068,1.05367 3.83125,1.64084 4.29566,2.04969 8.02924,4.58239 11.24062,7.52786 m -17.51848,-12.65295 c 2.28279,1.14783 4.50454,2.45125 6.65245,3.9048 6.19082,4.1895 11.76873,9.62435 16.42524,16.18885 4.65651,6.56451 8.39329,14.25625 10.88343,23.00199 m 3.72732,6.57542 c 1.65449,9.9358 1.26519,19.14934 -0.85241,27.50479 -2.11759,8.35545 -5.9647,15.8431 -11.23973,22.22701 -2.20973,2.67426 -4.67012,5.15435 -7.35924,7.42164 -2.91562,2.45824 -6.02112,4.91294 -9.29983,7.27188 m 12.53652,1.01361 c -5.1694,6.4354 -11.52691,11.71775 -18.82683,15.38093 -7.29992,3.66317 -15.5426,5.71469 -24.47997,5.58641 -4.90021,-0.0703 -9.77746,-0.79674 -14.57292,-2.15162 -8.47689,-2.39502 -16.60219,-4.057 -24.05999,-5.89994 m 26.32308,11.25341 c -14.08705,-0.1253 -27.83271,-5.79198 -39.13617,-15.87566 -6.49769,-5.79652 -12.19267,-13.05803 -16.68629,-21.61804 -5.51436,-10.50445 -9.94235,-19.64869 -12.5007,-28.34489 m 13.02004,32.42675 c -5.97247,-8.13538 -10.27829,-17.39833 -12.57563,-27.40567 -2.73532,-11.91519 -2.31412,-23.47102 0.38143,-33.81414 1.60102,-6.14331 4.51396,-12.25561 8.45107,-17.9956 2.0023,-2.9192 4.26997,-5.74252 6.76686,-8.42656 m -6.04562,20.70075 c 1.81195,-6.20082 4.50676,-11.81359 7.9394,-16.81698 8.97213,-13.07769 22.99426,-21.97064 39.55474,-26.18781 2.79086,-0.7107 5.62252,-1.31437 8.49034,-1.79564 2.33255,-0.39145 4.63895,-0.69299 6.9171,-0.90335 m -35.53378,13.06518 c 4.05569,-1.45524 8.35932,-2.69889 12.88794,-3.68776 9.35981,-2.0438 18.87927,-2.80695 28.15015,-2.34184 9.27088,0.4651 18.29475,2.15191 26.68886,4.93349 0.21583,0.0715 0.43048,0.14476 0.64395,0.21971 7.23035,2.5384 13.11557,7.02927 17.67953,12.79471 m -19.12134,-18.938 c 0.46103,0.25941 0.9189,0.52454 1.37355,0.79533 14.06349,8.37622 25.02748,22.13259 31.26988,39.69087 m 12.35096,27.01472 c 0.86051,8.80973 0.15286,17.02411 -1.85507,24.52736 -2.00793,7.50325 -5.31745,14.29055 -9.67042,20.19137 -3.14965,4.26962 -6.84579,8.07437 -10.98926,11.345 -7.24981,5.7226 -16.39209,11.01868 -26.80256,14.60184 m 22.31516,-18.24797 c -8.80081,7.69991 -20.46715,13.62418 -34.17311,16.90381 -10.99294,2.63044 -22.22629,3.30935 -33.01491,2.34469 -10.20972,-0.91291 -18.77471,-4.8235 -25.94937,-10.86437 -0.23392,-0.19695 -0.46636,-0.39619 -0.6973,-0.59767 m 18.22174,3.93501 c -8.21865,-2.60098 -15.83928,-6.27389 -22.364,-11.03438 -10.11215,-7.37789 -17.6204,-17.34868 -20.50147,-29.92829 -1.10965,-4.84506 -2.20529,-9.91764 -3.06528,-15.14266 -0.86526,-5.25703 -1.43868,-10.38944 -1.54987,-15.31805 m -5.09086,34.15274 c -1.64485,-3.92556 -2.88126,-8.09202 -3.67011,-12.46116 -1.64754,-9.12505 -1.2029,-18.3187 0.97436,-27.07295 2.17727,-8.75426 6.09096,-17.0727 11.42192,-24.47529 0.71846,-0.99765 1.44738,-1.98986 2.18707,-2.97568 4.09874,-5.46249 8.52948,-10.72711 13.33826,-15.6411 m -15.77885,13.27157 c 0.67496,-1.41356 1.41704,-2.7837 2.22326,-4.10964 4.8626,-7.99715 12.05262,-14.38978 20.95944,-18.97686 8.90683,-4.58707 19.53443,-7.36384 31.31597,-8.11694 2.01227,-0.12863 4.02666,-0.19612 6.03892,-0.20542 1.85373,-0.009 3.64462,0.003 5.37735,0.0383 m -15.86254,7.62249 c 1.86053,-0.4308 3.74096,-0.80505 5.64095,-1.1191 9.67153,-1.59863 19.02541,-1.48635 27.94208,0.22414 8.91668,1.71048 17.38899,5.01564 25.24508,9.77573 2.10524,1.27558 4.16621,2.65563 6.17973,4.1375 5.86833,4.31885 10.71369,9.10603 14.44297,14.26696 M 803.7353,170.53946 c 11.45249,7.0814 19.64463,18.26615 23.79122,31.99523 m 14.53456,22.57063 c 0.11054,8.42147 -1.24813,16.38746 -4.01141,23.78681 -2.76327,7.39936 -6.92984,14.22878 -12.43799,20.34254 -4.65627,5.16821 -10.27046,9.82416 -16.81929,13.87789 -5.72725,3.54517 -11.12873,6.78432 -16.37382,9.58532 m 24.39038,-11.76917 c -9.93861,9.13648 -22.21474,15.76127 -36.18104,18.48673 -8.56874,1.67215 -17.06505,1.7366 -25.24545,0.39005 -10.44337,-1.71905 -20.4639,-5.99593 -29.39139,-12.39425 -0.31938,-0.2289 -0.63736,-0.46053 -0.95393,-0.69485 m 21.87528,12.26658 c -8.95773,-2.64295 -17.61657,-6.60169 -25.26529,-11.95415 -10.26183,-7.18109 -18.72154,-16.84654 -23.64177,-29.17944 -1.90958,-4.78647 -3.47701,-9.75255 -4.59855,-14.88138 m 11.38438,21.67007 c -3.80301,-6.28573 -6.41999,-13.65672 -7.59651,-21.86383 -1.09915,-7.66751 -0.86253,-15.51379 0.54924,-23.21238 1.41178,-7.69859 3.99979,-15.25252 7.61954,-22.36849 2.37636,-4.67166 4.88403,-8.99407 7.56059,-12.97152 0.47912,-0.71199 0.96364,-1.41292 1.45374,-2.10279 m -11.36378,23.67706 c 2.06201,-6.15973 4.72973,-11.82129 7.91954,-16.96178 4.20339,-6.77392 9.31412,-12.64123 15.12752,-17.53947 5.81341,-4.89824 12.33109,-8.82193 19.31967,-11.75282 2.31945,-0.97274 4.82413,-1.76923 7.49761,-2.38359 5.25854,-1.20839 10.89537,-1.64937 16.67027,-1.4334 m -18.46414,-0.0543 c 2.7249,-0.90521 5.4822,-1.65556 8.2602,-2.24137 8.9476,-1.88681 17.34452,-1.8983 24.84734,-0.34137 7.50283,1.55693 14.10768,4.68359 19.40624,9.07936 0.7863,0.65233 1.54375,1.3326 2.27095,2.03982 5.03103,4.89282 11.53565,11.72483 17.95711,20.11472 M 809.1768,158.75783 c 11.89011,9.55807 21.83949,22.07985 27.12307,37.29146 m -150.68265,10.86888 48.2356,-55.67352 m 67.36716,2.88813 43.41261,59.02458 m -89.36437,-67.35399 68.91279,25.62824 m 16.42193,83.64778 -54.05917,49.79185 M 699.92136,276.2332 686.47141,203.18954"
       transform="matrix(0,-0.8125795,0.8125795,0,739.86826,1179.6046)"
       sodipodi:start="6.0929057"
       sodipodi:end="12.295934"
       sodipodi:open="true"
       inkscape:path-effect="#path-effect3864" />
    <path
       style="fill:none;stroke:#000000;stroke-width:1px;stroke-linecap:butt;stroke-linejoin:miter;stroke-opacity:1"
       d="m 1001.2021,627.04602 c 4.5587,-12.93357 5.026,-25.43947 3.1268,-37.18109 -2.2093,-13.65947 -7.64718,-26.27022 -13.79204,-37.13946 -0.59752,-1.05692 -1.2018,-2.09728 -1.8106,-3.12035 m 7.03319,7.38491 c -2.04865,-5.16397 -4.3131,-10.04381 -6.65896,-14.5868 -5.69918,-11.03703 -11.87869,-20.08859 -16.65263,-26.40061 -2.38698,-3.15602 -4.42277,-5.62657 -5.86509,-7.31041 -0.72115,-0.84191 -1.29381,-1.48705 -1.68673,-1.92218 -0.19646,-0.21756 -0.34797,-0.38261 -0.45056,-0.49346 -0.0513,-0.0554 -0.0903,-0.0973 -0.11667,-0.12541 -0.0132,-0.014 -0.0231,-0.0247 -0.0299,-0.0318 -0.007,-0.007 -0.0102,-0.0108 -0.0104,-0.011 0,0 0,-10e-6 0,-10e-6 0,0 0,10e-6 10e-6,10e-6 0.006,0.004 3.52975,2.48673 9.10099,6.91605 m -12.04257,2.37141 c -0.22913,-0.25097 -0.44762,-0.4889 -0.65499,-0.71356 -0.81388,-0.88171 -1.45651,-1.5588 -1.89663,-2.01581 -0.22007,-0.2285 -0.38948,-0.40198 -0.5041,-0.51852 -0.0573,-0.0583 -0.10093,-0.10231 -0.13032,-0.13187 -0.0147,-0.0148 -0.0258,-0.0259 -0.0333,-0.0335 -0.008,-0.008 -0.0114,-0.0114 -0.0116,-0.0116 0,0 -1e-5,-10e-6 -1e-5,-10e-6 0,0 1e-5,10e-6 1e-5,10e-6 0.006,0.005 4.05345,2.97177 10.3667,8.14346 6.31325,5.1717 14.94209,12.54518 23.85713,21.26905 5.4204,5.30418 10.93365,11.10534 16.00765,17.21652 m -4.902,-10.19049 c 7.4638,8.27293 14.482,17.31826 20.0632,26.82478 5.1545,8.77993 9.0934,17.96 11.0577,27.30894 m -40.41314,11.57983 c 3.07737,-12.16648 3.59162,-24.11788 2.48398,-35.48411 -1.35619,-13.91671 -5.10343,-26.95803 -9.45065,-38.30583 -1.19166,-3.11065 -2.42957,-6.09295 -3.6791,-8.92684 m 9.26565,25.64778 c -1.66795,-3.56784 -3.41028,-7.05809 -5.17648,-10.43107 -5.76504,-11.00978 -11.77899,-20.78176 -16.3756,-27.79061 -2.29831,-3.50442 -4.2436,-6.31523 -5.61966,-8.24533 -0.68804,-0.96505 -1.23356,-1.71013 -1.60781,-2.21384 -0.18712,-0.25186 -0.33141,-0.4434 -0.4291,-0.57215 -0.0489,-0.0644 -0.0861,-0.11306 -0.11113,-0.14574 -0.0125,-0.0163 -0.022,-0.0287 -0.0285,-0.037 -0.006,-0.008 -0.01,-0.0126 -0.01,-0.0128 -10e-6,0 -10e-6,-10e-6 -10e-6,-10e-6 0,0 10e-6,0 10e-6,10e-6 0.007,0.004 4.62411,2.58588 11.7837,6.95742 1.65137,1.00831 3.4384,2.11111 5.33525,3.29887 m -20.84114,-7.15012 c 1.76678,1.38554 4.77751,3.79351 8.66252,7.0408 6.37472,5.32831 15.1444,12.91207 24.42972,21.95676 7.23873,7.05117 14.77493,14.9911 21.51363,23.47013 m -5.1833,-17.35487 c 5.5411,6.4332 10.6221,13.54449 14.7329,21.12558 6.1725,11.38333 10.1752,23.80988 10.3377,36.52065 m -36.48261,17.13618 c 4.76591,-12.69881 5.27041,-25.77954 3.30011,-38.38296 -2.21103,-14.14403 -7.559,-27.71573 -13.63903,-39.55078 -2.37729,-4.62749 -4.86667,-8.98809 -7.32802,-13.00838 m 15.05501,21.35203 c -1.61528,-3.47526 -3.32439,-6.83631 -5.07351,-10.04809 -5.74097,-10.54173 -11.9096,-19.45098 -16.65941,-25.65273 -2.37491,-3.10088 -4.39592,-5.53072 -5.82693,-7.18457 -0.7155,-0.82692 -1.28336,-1.46008 -1.67295,-1.88696 -0.1948,-0.21343 -0.34501,-0.3753 -0.44672,-0.484 -0.0508,-0.0543 -0.0896,-0.0954 -0.11567,-0.12296 -0.0131,-0.0138 -0.0229,-0.0242 -0.0296,-0.0312 -0.007,-0.007 -0.0101,-0.0106 -0.0103,-0.0108 -10e-6,-10e-6 -10e-6,-10e-6 -10e-6,-10e-6 0,0 0,0 10e-6,10e-6 0.007,0.005 4.4978,3.20448 11.39582,8.90852 4.68562,3.87458 10.48756,8.91126 16.73151,14.96825 m -23.46238,-15.43284 c 1.04206,0.81017 2.16216,1.6946 3.3466,2.64835 6.76827,5.45009 15.58738,13.14744 24.21516,22.27085 8.62783,9.12341 17.09683,19.6819 23.62293,31.0211 0.9579,1.6643 1.8741,3.34551 2.7429,5.04162 m -15.6461,-22.21385 c 3.0478,4.01756 5.8655,8.11526 8.3707,12.26667 5.5473,9.19251 9.5663,18.65131 11.1915,28.11676 m -35.14541,23.93869 c 3.92746,-11.75907 4.51031,-23.09199 3.1455,-33.5163 -1.66931,-12.74999 -6.2495,-24.10134 -11.3965,-33.31768 -1.23222,-2.20643 -2.49824,-4.29258 -3.76903,-6.2527 m 13.23191,11.43428 c -1.76935,-3.68029 -3.66823,-7.21559 -5.63156,-10.56733 -6.09375,-10.40305 -12.8305,-19.00237 -18.1081,-24.91324 -2.6388,-2.95544 -4.90749,-5.2473 -6.51808,-6.80116 -0.8053,-0.77693 -1.44587,-1.36958 -1.88539,-1.76866 -0.21975,-0.19953 -0.38925,-0.35066 -0.50398,-0.4521 -0.0574,-0.0507 -0.10104,-0.089 -0.13047,-0.11472 -0.0147,-0.0129 -0.0259,-0.0226 -0.0334,-0.0291 -0.008,-0.007 -0.0114,-0.01 -0.0116,-0.0101 0,0 -10e-6,0 -10e-6,0 0,0 10e-6,0 10e-6,0 0.006,0.006 4.09701,3.42948 10.12774,9.61256 0.60173,0.61693 1.22257,1.26168 1.86025,1.93379 m -10.3164,-16.16397 c -2.7e-4,-2.9e-4 -5.4e-4,-5.8e-4 -8e-4,-8.6e-4 -0.007,-0.008 -0.0108,-0.0115 -0.0109,-0.0117 -10e-6,-10e-6 -10e-6,-10e-6 -10e-6,-10e-6 0,0 0,0 10e-6,0 0.007,0.005 4.31644,2.89837 10.67363,8.13175 6.35719,5.23338 14.73624,12.83584 22.925,22.09693 6.79833,7.68855 13.47023,16.50687 18.86243,25.92732 m -10.4409,-12.30942 c 5.2183,6.74339 10.3159,13.95457 14.7319,21.4783 5.1098,8.70586 9.301,17.83241 11.674,27.14115 m -32.73513,25.79098 c 5.44043,-13.42785 6.18293,-27.51546 4.25793,-41.17763 -2.0387,-14.4696 -7.08024,-28.50849 -12.818,-40.87028 -2.71249,-5.84396 -5.5814,-11.30954 -8.37312,-16.24988 m 11.803,26.13838 c -1.54866,-3.63962 -3.22981,-7.13031 -4.97863,-10.44199 -5.62876,-10.65902 -11.95259,-19.44253 -16.86015,-25.51424 -2.45378,-3.03585 -4.55491,-5.39886 -6.0439,-7.00431 -0.74449,-0.80273 -1.33596,-1.41617 -1.74175,-1.82952 -0.20289,-0.20667 -0.35937,-0.3633 -0.4653,-0.46847 -0.053,-0.0526 -0.0933,-0.0923 -0.12048,-0.11894 -0.0136,-0.0133 -0.0239,-0.0234 -0.0308,-0.0302 -0.007,-0.007 -0.0105,-0.0103 -0.0107,-0.0104 -10e-6,-10e-6 -10e-6,-10e-6 -10e-6,-10e-6 0,0 0,0 10e-6,10e-6 0.007,0.005 4.36153,3.31882 10.99088,9.24676 5.75441,5.14558 13.22815,12.27512 21.08053,21.02557 m -23.53841,-26.0522 c 0.32473,0.27002 0.65591,0.54622 0.9933,0.82848 6.47731,5.41902 15.24616,13.0536 24.40321,22.03028 9.15708,8.97667 18.70878,19.30041 26.55858,30.29926 1.7082,2.39351 3.3351,4.81944 4.8581,7.27129 m -22.165,-8.21983 c 2.3476,3.0894 4.5744,6.27389 6.6349,9.53253 6.5833,10.41129 11.4705,21.57808 13.1728,32.81357 m -58.86861,-96.10227 45.83551,45.15774 m 9.4844,9.90266 15.7435,55.20526 m -32.2979,-75.0761 29.913,51.61474 m -29.9738,25.99085 -9.36634,-75.48361 m -46.92068,-47.76841 25.63033,18.4479"
       id="path3836"
       inkscape:connector-curvature="0"
       inkscape:path-effect="#path-effect3842"
       inkscape:original-d="m 995.91434,625.28042 c 24.09326,-58.17657 -33.59733,-116.97957 -33.59733,-116.97957 0,0 68.08709,48.8073 70.44549,98.48061" />
    <path
       style="fill:none;stroke:#000000;stroke-width:1px;stroke-linecap:butt;stroke-linejoin:miter;stroke-opacity:1"
       d="m 848.77845,558.93333 c 0.1436,-0.34965 0.29393,-0.71049 0.45104,-1.08173 1.92001,-4.53681 4.84239,-10.61983 8.93082,-16.87161 4.08842,-6.25177 9.34696,-12.67493 16.06909,-17.98712 4.64415,-3.67007 9.98959,-6.8115 16.14351,-9.01404 m -42.8371,32.82315 c 1.64141,-4.37388 4.20884,-10.04356 8.01745,-15.87801 4.04175,-6.19158 9.47911,-12.56996 16.61808,-17.83492 6.76613,-4.98998 15.05472,-8.98256 25.14058,-10.87515 m -56.10457,53.93506 c 0.22966,-0.74746 0.49443,-1.566 0.79785,-2.44572 1.54129,-4.46877 4.0901,-10.51425 8.04839,-16.85342 3.95828,-6.33917 9.32229,-12.97127 16.37171,-18.63936 5.25216,-4.223 11.43725,-7.90948 18.65583,-10.5686 m -36.77803,45.72029 c 1.94526,-4.14511 4.81768,-9.58762 8.78597,-15.28456 4.19939,-6.0287 9.62759,-12.34136 16.60402,-17.61741 4.69912,-3.5538 10.10236,-6.63616 16.32898,-8.82656 m -50.15631,39.93013 c 0.35424,-1.24805 0.86708,-2.90062 1.57815,-4.84762 1.64002,-4.49058 4.3443,-10.54314 8.54837,-16.83886 4.20408,-6.29572 9.90234,-12.8353 17.42176,-18.35507 6.79539,-4.98827 15.0675,-9.14086 25.10769,-11.57763 m -33.70648,24.64811 25.72361,-19.32162 m -6.31792,3.41158 27.71873,-7.45259 m -34.6887,11.72079 27.61958,-11.26392 m -58.60649,60.68236 15.92037,-34.53865 m -4.62612,7.06251 23.25281,-24.67672"
       id="path3838"
       inkscape:connector-curvature="0"
       inkscape:path-effect="#path-effect3840"
       inkscape:original-d="m 843.69147,557.23676 c 0,0 11.45203,-45.45164 52.90325,-53.31273" />
    <path
       style="fill:none;stroke:#000000;stroke-width:1px;stroke-linecap:butt;stroke-linejoin:miter;stroke-opacity:1"
       d="m 935.11394,629.49197 c 5.99297,25.744 10.66146,52.36 15.37254,78.78017 m -4.51942,-25.1413 c 4.4279,23.2093 9.56523,46.86992 14.95848,70.61638 m -6.93224,-11.7072 c 4.25199,24.11299 9.56606,48.13622 14.87792,71.65808 m 0.0693,-14.69386 c 1.58896,7.08233 3.11195,14.12034 4.59553,21.1333 -8.7178,23.1543 -17.91223,46.00565 -26.46718,69.36383 m 5.05527,-30.56951 c -10.87074,25.86978 -19.92487,52.09979 -28.24216,77.7737 m 7.59414,-16.17765 c -3.586,8.81242 -6.98889,17.41616 -10.24886,25.84888 m 9.77112,-319.07135 c 4.46876,24.41343 10.16093,48.65889 16.33684,72.74169 m -0.39272,-18.78471 c 4.89863,22.81541 8.96125,46.35608 12.60156,70.4255 m -3.52872,-13.80317 c 5.76531,26.81207 10.6252,52.60691 15.45729,77.97125 -1.41615,3.26602 -2.83282,6.52407 -4.24779,9.77564 m 3.12463,-25.12192 c 0.89108,4.85224 1.81395,9.68275 2.76492,14.49997 -9.34256,24.25461 -17.89553,48.13573 -26.2068,72.89749 m 6.17893,-22.48794 c -9.23741,25.72484 -19.78654,50.96011 -30.02612,76.1714 m 4.45935,-21.86655 c -3.60534,10.08742 -7.41126,20.00813 -11.32651,29.81241 m 13.15146,-326.31281 c 6.12445,27.47518 11.71748,56.04276 18.11219,86.04377 m -1.83306,-24.9229 c 4.26633,24.74255 8.90556,49.31109 13.01119,74.86266 m -1.78911,-19.55197 c 5.2129,25.05414 9.80634,50.75383 13.96287,76.33318 -0.1418,0.328 -0.28367,0.65597 -0.42563,0.98392 m -2.6878,-16.6628 c 1.10206,5.87745 2.25016,11.73917 3.43877,17.59441 -8.93132,23.2712 -17.15278,46.42889 -25.06778,70.15169 m 8.93538,-24.34731 c -11.51402,30.57791 -23.74198,59.14361 -35.59272,86.82091 m 14.15402,-326.57003 c 6.49922,32.49575 13.22367,65.11683 20.3717,99.21616 m -7.06475,-32.20213 c 5.48877,27.00616 11.61934,53.40882 18.59191,79.51202 m -11.09988,-14.3502 c 4.64286,20.64725 9.22028,41.49047 14.27086,62.17762 -2.84711,7.9949 -5.61565,15.96387 -8.26915,23.88309 m 9.36557,-22.36772 c -11.29932,29.08172 -23.21895,57.9661 -35.08782,86.0457 m 11.87683,-24.25189 c -8.88357,20.83791 -16.95675,42.84754 -24.78675,65.03044"
       id="path3848"
       inkscape:connector-curvature="0"
       inkscape:path-effect="#path-effect3856"
       inkscape:original-d="m 932,618.36218 40,199 -54,137"
       sodipodi:nodetypes="ccc" />
    <path
       style="fill:none;stroke:#000000;stroke-width:1px;stroke-linecap:butt;stroke-linejoin:miter;stroke-opacity:1"
       d="m 975.14222,824.82902 c 15.3446,21.94707 29.80618,44.47546 44.29618,66.87331 m -10.8377,-21.77882 c 13.0776,19.74141 26.6281,39.78371 40.3492,59.88323 M 973.62811,825.25767 c 13.35714,20.51118 27.42229,40.96251 41.48609,61.07961 m -6.3439,-12.35108 c 12.3834,18.27303 24.3556,36.27085 36.4228,54.35854 M 968.6053,815.06318 c 15.33351,23.23168 31.8781,46.7035 48.9139,69.8046 m -11.4997,-15.28862 c 12.7758,19.87003 26.3363,38.85072 40.2426,57.34358 M 972.64603,823.05016 c 13.5182,20.71844 27.85197,41.3249 42.50827,61.82293 m -7.0413,-16.72049 c 13.1764,19.3882 25.7955,39.25991 38.133,59.48411 M 973.86013,821.54683 c 17.36925,25.78755 33.95947,50.69993 50.62857,75.31057 m -11.8397,-21.13867 c 10.1296,15.75733 20.5745,31.29877 31.1926,46.94684"
       id="path3850"
       inkscape:connector-curvature="0"
       inkscape:path-effect="#path-effect3858"
       inkscape:original-d="m 970,815.36218 78,117"
       sodipodi:nodetypes="cc" />
    <path
       style="fill:none;stroke:#000000;stroke-width:1px;stroke-linecap:butt;stroke-linejoin:miter;stroke-opacity:1"
       d="m 885.35691,754.47512 c 17.47911,-21.08613 34.07523,-41.59093 50.69975,-62.22628 m -12.77342,10.92618 c 6.96287,-8.66853 14.02789,-17.27208 21.16472,-25.8351 12.08068,4.54502 24.2566,9.14379 36.4814,13.75895 m -17.04965,-3.1494 c 22.8329,8.58429 46.37389,17.10875 69.91339,25.29896 M 886.72174,750.7251 c 19.9001,-23.16441 38.98408,-46.8771 58.66676,-70.11154 1.1353,0.43559 2.27153,0.87192 3.40877,1.30905 m -21.5467,13.35904 c 4.87947,-6.1389 9.85221,-12.25931 14.90283,-18.37428 19.30607,7.05179 39.14004,14.14044 59.2304,21.03558 m -20.38113,-5.0082 c 15.76119,6.2037 31.93393,11.94035 48.35163,17.36317 m -150.09493,45.21774 c 15.50031,-19.24245 31.81623,-38.59688 48.45463,-58.05975 m -8.67836,11.35166 c 8.84471,-10.69696 17.49667,-21.22672 26.01198,-31.61592 8.87351,3.57484 17.67996,7.21865 26.43863,10.92228 m -14.25853,-4.74229 c 25.29445,9.61128 49.99888,18.5609 74.67928,27.22498 m -146.15454,37.92916 c 18.99451,-22.88486 38.83017,-46.34441 58.89351,-68.97443 m -17.70113,19.60394 c 5.87224,-6.88955 11.65054,-13.81416 17.37296,-20.7629 17.29173,6.47189 34.34835,12.84226 51.49822,19.2054 m -20.9468,-9.14686 c 17.80836,6.76345 35.20558,13.18595 52.52068,19.44855"
       id="path3852"
       inkscape:connector-curvature="0"
       sodipodi:nodetypes="ccc"
       inkscape:path-effect="#path-effect3854"
       inkscape:original-d="m 880,756.36218 64,-78 93,35" />
  </g>
</svg>
