<?xml version="1.0" encoding="UTF-8" standalone="no"?>
<!-- Created with Inkscape (http://www.inkscape.org/) -->

<svg
   xmlns:dc="http://purl.org/dc/elements/1.1/"
   xmlns:cc="http://creativecommons.org/ns#"
   xmlns:rdf="http://www.w3.org/1999/02/22-rdf-syntax-ns#"
   xmlns:svg="http://www.w3.org/2000/svg"
   xmlns="http://www.w3.org/2000/svg"
   xmlns:sodipodi="http://sodipodi.sourceforge.net/DTD/sodipodi-0.dtd"
   xmlns:inkscape="http://www.inkscape.org/namespaces/inkscape"
   width="1052.3622"
   height="744.09448"
   id="svg2"
   version="1.1"
   inkscape:version="0.48.4 r9939"
   sodipodi:docname="one-reactor.svg">
  <defs
     id="defs4">
    <inkscape:path-effect
       effect="sketch"
       id="path-effect4304"
       is_visible="true"
       nbiter_approxstrokes="4"
       strokelength="20"
       strokelength_rdm="0.3;1"
       strokeoverlap="0.3"
       strokeoverlap_rdm="0.3;1"
       ends_tolerance="0.1;1"
       parallel_offset="2;1"
       tremble_size="3;1"
       tremble_frequency="1"
       nbtangents="5"
       tgt_places_rdmness="1;1"
       tgtscale="10"
       tgtlength="10"
       tgtlength_rdm="0.3;1" />
    <inkscape:path-effect
       tgtlength_rdm="0.3;1"
       tgtlength="10"
       tgtscale="10"
       tgt_places_rdmness="1;1"
       nbtangents="5"
       tremble_frequency="1"
       tremble_size="3;1"
       parallel_offset="2;1"
       ends_tolerance="0.1;1"
       strokeoverlap_rdm="0.3;1"
       strokeoverlap="0.3"
       strokelength_rdm="0.3;1"
       strokelength="20"
       nbiter_approxstrokes="4"
       is_visible="true"
       id="path-effect4300"
       effect="sketch" />
    <inkscape:path-effect
       effect="sketch"
       id="path-effect4296"
       is_visible="true"
       nbiter_approxstrokes="4"
       strokelength="20"
       strokelength_rdm="0.3;1"
       strokeoverlap="0.3"
       strokeoverlap_rdm="0.3;1"
       ends_tolerance="0.1;1"
       parallel_offset="2;1"
       tremble_size="3;1"
       tremble_frequency="1"
       nbtangents="5"
       tgt_places_rdmness="1;1"
       tgtscale="10"
       tgtlength="10"
       tgtlength_rdm="0.3;1" />
    <marker
       inkscape:stockid="Arrow1Mend"
       orient="auto"
       refY="0.0"
       refX="0.0"
       id="Arrow1Mend"
       style="overflow:visible;">
      <path
         id="path3863"
         d="M 0.0,0.0 L 5.0,-5.0 L -12.5,0.0 L 5.0,5.0 L 0.0,0.0 z "
         style="fill-rule:evenodd;stroke:#000000;stroke-width:1.0pt;"
         transform="scale(0.4) rotate(180) translate(10,0)" />
    </marker>
    <inkscape:path-effect
       effect="sketch"
       id="path-effect3064"
       is_visible="true"
       nbiter_approxstrokes="5"
       strokelength="60"
       strokelength_rdm="0;1"
       strokeoverlap="0"
       strokeoverlap_rdm="0.1;1"
       ends_tolerance="0;1429194784"
       parallel_offset="1.9;1"
       tremble_size="1.8;1"
       tremble_frequency="1"
       nbtangents="5"
       tgt_places_rdmness="1;1"
       tgtscale="10"
       tgtlength="4"
       tgtlength_rdm="0.3;1" />
    <inkscape:path-effect
       tgtlength_rdm="0.3;1"
       tgtlength="0"
       tgtscale="10"
       tgt_places_rdmness="1;1"
       nbtangents="5"
       tremble_frequency="1"
       tremble_size="2.5;1"
       parallel_offset="2.7;1"
       ends_tolerance="0.1;78838508"
       strokeoverlap_rdm="0.3;676846516"
       strokeoverlap="0.3"
       strokelength_rdm="0;3540803433"
       strokelength="40"
       nbiter_approxstrokes="3"
       is_visible="true"
       id="path-effect3062"
       effect="sketch" />
    <inkscape:path-effect
       tgtlength_rdm="0.3;1"
       tgtlength="4"
       tgtscale="10"
       tgt_places_rdmness="1;1"
       nbtangents="5"
       tremble_frequency="1"
       tremble_size="1.8;1"
       parallel_offset="1.9;1"
       ends_tolerance="0;1429194784"
       strokeoverlap_rdm="0.1;1"
       strokeoverlap="0"
       strokelength_rdm="0;1"
       strokelength="60"
       nbiter_approxstrokes="5"
       is_visible="true"
       id="path-effect3060"
       effect="sketch" />
    <inkscape:path-effect
       effect="sketch"
       id="path-effect3781"
       is_visible="true"
       nbiter_approxstrokes="3"
       strokelength="40"
       strokelength_rdm="0;3540803433"
       strokeoverlap="0.3"
       strokeoverlap_rdm="0.3;676846516"
       ends_tolerance="0.1;78838508"
       parallel_offset="2.7;1"
       tremble_size="2.5;1"
       tremble_frequency="1"
       nbtangents="5"
       tgt_places_rdmness="1;1"
       tgtscale="10"
       tgtlength="0"
       tgtlength_rdm="0.3;1" />
    <inkscape:path-effect
       tgtlength_rdm="0.3;1"
       tgtlength="4"
       tgtscale="10"
       tgt_places_rdmness="1;1"
       nbtangents="5"
       tremble_frequency="1"
       tremble_size="1.8;1"
       parallel_offset="1.9;1"
       ends_tolerance="0;1429194784"
       strokeoverlap_rdm="0.1;1"
       strokeoverlap="0"
       strokelength_rdm="0;1"
       strokelength="60"
       nbiter_approxstrokes="5"
       is_visible="true"
       id="path-effect3778"
       effect="sketch" />
    <inkscape:path-effect
       effect="sketch"
       id="path-effect3774"
       is_visible="true"
       nbiter_approxstrokes="5"
       strokelength="60"
       strokelength_rdm="0;1"
       strokeoverlap="0"
       strokeoverlap_rdm="0.1;1"
       ends_tolerance="0;1429194784"
       parallel_offset="1.9;1"
       tremble_size="1.8;1"
       tremble_frequency="1"
       nbtangents="5"
       tgt_places_rdmness="1;1"
       tgtscale="10"
       tgtlength="4"
       tgtlength_rdm="0.3;1" />
    <inkscape:path-effect
       tgtlength_rdm="0.3;1"
       tgtlength="5"
       tgtscale="9.8"
       tgt_places_rdmness="1;1"
       nbtangents="5"
       tremble_frequency="5"
       tremble_size="2.7;1"
       parallel_offset="2.7;1"
       ends_tolerance="0.1;4044545397"
       strokeoverlap_rdm="0.3;1"
       strokeoverlap="0"
       strokelength_rdm="0;1"
       strokelength="100"
       nbiter_approxstrokes="7"
       is_visible="true"
       id="path-effect3772"
       effect="sketch" />
    <inkscape:path-effect
       effect="sketch"
       id="path-effect2994"
       is_visible="true"
       nbiter_approxstrokes="8"
       strokelength="100"
       strokelength_rdm="0;1"
       strokeoverlap="0"
       strokeoverlap_rdm="0.1;2173367531"
       ends_tolerance="0.1;1"
       parallel_offset="2.6;1"
       tremble_size="2.6;1"
       tremble_frequency="3.5"
       nbtangents="5"
       tgt_places_rdmness="1;1"
       tgtscale="9.8"
       tgtlength="5"
       tgtlength_rdm="0.3;1" />
    <marker
       inkscape:stockid="Arrow2Mend"
       orient="auto"
       refY="0.0"
       refX="0.0"
       id="Arrow2Mend"
       style="overflow:visible;">
      <path
         id="path3849"
         style="fill-rule:evenodd;stroke-width:0.62500000;stroke-linejoin:round;"
         d="M 8.7185878,4.0337352 L -2.2072895,0.016013256 L 8.7185884,-4.0017078 C 6.9730900,-1.6296469 6.9831476,1.6157441 8.7185878,4.0337352 z "
         transform="scale(0.6) rotate(180) translate(0,0)" />
    </marker>
    <inkscape:path-effect
       tgtlength_rdm="0.3;1"
       tgtlength="4"
       tgtscale="10"
       tgt_places_rdmness="1;1"
       nbtangents="5"
       tremble_frequency="1"
       tremble_size="1.8;1"
       parallel_offset="1.9;1"
       ends_tolerance="0;1429194784"
       strokeoverlap_rdm="0.1;1"
       strokeoverlap="0"
       strokelength_rdm="0;1"
       strokelength="60"
       nbiter_approxstrokes="5"
       is_visible="true"
       id="path-effect3778-4"
       effect="sketch" />
    <inkscape:path-effect
       effect="sketch"
       id="path-effect3781-7"
       is_visible="true"
       nbiter_approxstrokes="3"
       strokelength="40"
       strokelength_rdm="0;2147483646"
       strokeoverlap="0.3"
       strokeoverlap_rdm="0.3;676846516"
       ends_tolerance="0.1;78838508"
       parallel_offset="2.7;1"
       tremble_size="2.5;1"
       tremble_frequency="1"
       nbtangents="5"
       tgt_places_rdmness="1;1"
       tgtscale="10"
       tgtlength="0"
       tgtlength_rdm="0.3;1" />
    <inkscape:path-effect
       effect="sketch"
       id="path-effect3774-2"
       is_visible="true"
       nbiter_approxstrokes="5"
       strokelength="60"
       strokelength_rdm="0;1"
       strokeoverlap="0"
       strokeoverlap_rdm="0.1;1"
       ends_tolerance="0;1429194784"
       parallel_offset="1.9;1"
       tremble_size="1.8;1"
       tremble_frequency="1"
       nbtangents="5"
       tgt_places_rdmness="1;1"
       tgtscale="10"
       tgtlength="4"
       tgtlength_rdm="0.3;1" />
  </defs>
  <sodipodi:namedview
     id="base"
     pagecolor="#ffffff"
     bordercolor="#666666"
     borderopacity="1.0"
     inkscape:pageopacity="0.0"
     inkscape:pageshadow="2"
     inkscape:zoom="1"
     inkscape:cx="476.12734"
     inkscape:cy="559.82132"
     inkscape:document-units="px"
     inkscape:current-layer="layer1"
     showgrid="false"
     inkscape:window-width="2556"
     inkscape:window-height="1564"
     inkscape:window-x="0"
     inkscape:window-y="16"
     inkscape:window-maximized="0" />
  <metadata
     id="metadata7">
    <rdf:RDF>
      <cc:Work
         rdf:about="">
        <dc:format>image/svg+xml</dc:format>
        <dc:type
           rdf:resource="http://purl.org/dc/dcmitype/StillImage" />
        <dc:title />
      </cc:Work>
    </rdf:RDF>
  </metadata>
  <g
     inkscape:label="Layer 1"
     inkscape:groupmode="layer"
     id="layer1"
     transform="translate(0,-308.2677)">
    <path
       style="fill:none;stroke:#000000;stroke-width:1;stroke-linecap:butt;stroke-linejoin:miter;stroke-miterlimit:4;stroke-opacity:1;stroke-dasharray:24, 24;stroke-dashoffset:0"
       d="m 21.125196,970.31117 c 16.031789,-13.03355 30.83706,-25.25617 45.98722,-37.90614 0.0025,-0.002 0.0051,-0.004 0.0076,-0.006 m 0.883219,-3.47434 c 15.961405,-12.89777 30.44768,-25.39143 44.862259,-38.27183 0.002,-0.002 0.005,-0.004 0.007,-0.006 m -0.37652,1.71282 c 16.05065,-12.2279 31.22055,-25.04462 47.18252,-37.2456 0.003,-0.002 0.005,-0.004 0.008,-0.006 m 2.78075,-0.85779 c 14.96376,-12.15744 30.30524,-24.44023 44.42682,-35.44564 0.002,-0.002 0.005,-0.004 0.007,-0.005 m -3.51901,-4.76566 c 9.79098,-8.15905 20.1326,-16.39271 30.73493,-24.70049 M 20.747709,966.20975 c 15.74597,-12.74763 30.476302,-24.61405 44.904551,-35.93753 0.0024,-0.002 0.0048,-0.004 0.0072,-0.006 m 1.987786,0.81287 c 15.001389,-12.15784 30.809215,-25.63236 45.931489,-39.03158 0.003,-0.002 0.005,-0.004 0.008,-0.007 m 1.36689,0.23094 c 16.09274,-12.4575 31.02326,-25.34758 46.53563,-38.17362 0.003,-0.002 0.005,-0.004 0.008,-0.006 m -4.17166,-3.40292 c 15.96149,-12.41536 30.689,-25.38167 45.53726,-38.25802 0.002,-0.002 0.005,-0.004 0.007,-0.006 m 4.01025,1.26213 c 9.72113,-7.78351 19.61389,-15.64632 29.31129,-23.11969 M 18.809341,966.67683 c 15.572696,-12.95861 30.532122,-25.28198 45.115575,-37.9343 0.0024,-0.002 0.0049,-0.004 0.0073,-0.006 m 1.953472,-0.0514 c 15.277867,-12.39651 31.248357,-25.04649 47.225099,-37.25959 0.003,-0.002 0.005,-0.004 0.008,-0.006 m -0.24788,1.55149 c 15.54014,-12.34484 31.21799,-24.6123 47.16872,-35.93773 0.003,-0.002 0.005,-0.004 0.008,-0.006 m -0.4919,-3.13275 c 14.96844,-12.77121 30.33703,-25.06896 44.48306,-37.30159 0.002,-0.002 0.005,-0.004 0.007,-0.006 m 1.61247,-0.94949 c 10.12072,-8.25293 20.06763,-16.55921 29.96909,-25.03926 M 19.215383,966.43998 c 15.156118,-13.2208 31.320327,-24.98129 47.478283,-37.07636 0.0027,-0.002 0.0054,-0.004 0.0081,-0.006 m -2.693107,-2.70428 c 15.882079,-12.84115 31.329573,-24.13815 47.491981,-34.51718 0.003,-0.002 0.005,-0.003 0.008,-0.005 m 1.84829,-2.92899 c 15.85382,-12.11527 30.87739,-24.37898 46.09981,-35.22067 0.003,-0.002 0.005,-0.004 0.008,-0.005 m 1.95544,-0.66012 c 15.16075,-12.32635 31.16299,-25.33333 46.97203,-38.0893 0.003,-0.002 0.005,-0.004 0.008,-0.006 m -2.14569,3.54393 c 9.73026,-8.01378 19.72128,-16.27353 29.61158,-24.60202 M 18.368679,967.79821 c 15.49806,-12.39216 31.4398,-26.05253 47.815612,-40.28302 0.0027,-0.002 0.0055,-0.005 0.0082,-0.007 m 0.834049,2.83358 c 15.722803,-12.70085 31.232275,-24.7743 47.196751,-36.45787 0.003,-0.002 0.005,-0.004 0.008,-0.006 m 2.00452,-2.47151 c 15.62904,-12.52769 30.9552,-25.15365 46.38117,-37.5689 0.003,-0.002 0.005,-0.004 0.008,-0.006 m -6.22283,0.32036 c 15.08581,-12.31258 31.14288,-26.17823 46.92988,-40.63463 0.003,-0.002 0.005,-0.005 0.008,-0.007 m 2.31262,0.20878 c 10.3568,-8.09835 20.24933,-15.99811 30.09221,-23.61006 m -77.25926,64.44099 4.98831,-4.06423 m 57.7516,-47.05318 4.45048,-3.62603 m -24.79855,20.20465 4.6249,-3.76815 m -152.996318,124.65393 5.896815,-4.80444 m 68.712813,-55.98384 5.25722,-4.28333"
       id="path3796"
       inkscape:connector-curvature="0"
       sodipodi:nodetypes="cc"
       inkscape:path-effect="#path-effect3774"
       inkscape:original-d="M 19.99751,967.38253 236.11338,791.30188" />
    <text
       xml:space="preserve"
       style="font-size:40px;font-style:normal;font-variant:normal;font-weight:normal;font-stretch:normal;line-height:125%;letter-spacing:0px;word-spacing:0px;fill:#000000;fill-opacity:1;stroke:none;font-family:Serif;-inkscape-font-specification:Serif"
       x="446.53107"
       y="638.02386"
       id="text4456"
       sodipodi:linespacing="125%"><tspan
         sodipodi:role="line"
         id="tspan4458"
         x="446.53107"
         y="638.02386" /></text>
    <text
       xml:space="preserve"
       style="font-size:40px;font-style:normal;font-variant:normal;font-weight:normal;font-stretch:normal;line-height:125%;letter-spacing:0px;word-spacing:0px;fill:#000000;fill-opacity:1;stroke:none;font-family:Serif;-inkscape-font-specification:Serif"
       x="445.57141"
       y="633.47821"
       id="text4460"
       sodipodi:linespacing="125%"><tspan
         sodipodi:role="line"
         id="tspan4462"
         x="445.57141"
         y="633.47821" /></text>
    <path
       style="fill:#ffffff;fill-opacity:1;stroke:#000000;stroke-width:1.50600004;stroke-linecap:butt;stroke-miterlimit:4;stroke-opacity:1;stroke-dasharray:none;stroke-dashoffset:0"
       d="m 232.47846,786.70044 c 9.25147,-0.36783 17.76776,-0.24553 26.16655,-0.12828 -0.19221,4.62277 -0.41622,9.24417 -0.58506,13.79447 -1.2e-4,0.003 -2.5e-4,0.007 -3.7e-4,0.01 m 1.25085,-16.51275 c 0.63683,12.95928 -0.78063,26.47725 -2.28564,39.46293 -3.7e-4,0.003 -7.5e-4,0.006 -0.001,0.01 m -0.56392,-8.18136 c 0.62854,11.47313 0.4182,22.38908 0.68928,33.68894 -2.26183,0.0608 -4.50232,0.13866 -6.70911,0.24232 -0.003,1.5e-4 -0.006,3e-4 -0.01,4.5e-4 m 10.86962,-4.60976 c -0.0644,1.20467 -0.12503,2.40808 -0.18317,3.61147 -9.72119,0.44588 -19.28335,0.8902 -29.42402,1.98043 -0.28115,-2.58415 -0.62027,-5.10356 -1.04079,-7.53768 -4.8e-4,-0.003 -9.6e-4,-0.006 -0.001,-0.008 m -2.30464,2.09387 c -0.91689,4.3e-4 -1.82571,-2.4e-4 -2.72691,-0.002 -0.2342,-12.47024 1.04119,-25.1567 2.61268,-38.057 4.2e-4,-0.003 8.4e-4,-0.007 0.001,-0.0104 m 0.0343,14.11337 c 0.44598,-12.67587 1.14161,-24.65394 3.20565,-36.81958 1.15694,0.0139 2.3227,0.0266 3.49788,0.0376 0.004,4e-5 0.008,7e-5 0.0119,1.1e-4 m -1.04324,-0.61907 c 7.81386,0.46143 16.08991,0.60546 24.60092,0.94536 0.33044,5.54252 0.76432,11.17129 1.23527,17.03625 3e-4,0.004 5.9e-4,0.007 8.9e-4,0.011 m 0.15827,-11.92632 c 0.74737,13.97987 -0.77539,25.96041 -2.38338,37.8606 -4e-4,0.003 -8e-4,0.006 -0.001,0.009 m -4.83192,-13.18944 c 0.44734,9.56082 0.57519,19.77278 1.06335,30.81596 -3.67992,0.65437 -7.29909,1.44891 -10.81042,2.39607 -0.003,8.2e-4 -0.006,0.002 -0.009,0.002 m 12.16913,0.98142 c -9.08442,0.23807 -17.67442,0.0441 -26.04881,-0.25472 0.25202,-4.60319 0.55831,-9.2328 0.88366,-13.84751 2.4e-4,-0.003 4.9e-4,-0.007 7.3e-4,-0.0104 m -3.40719,8.00853 c -0.27927,-12.86158 0.66331,-26.13764 2.01193,-38.44739 3.4e-4,-0.003 6.7e-4,-0.006 0.001,-0.009 m 1.03077,8.73094 c -0.28212,-10.61061 -0.39611,-21.94693 -0.93258,-32.97398 2.10818,0.0175 4.19958,0.0473 6.26953,0.0976 0.003,7e-5 0.006,1.5e-4 0.009,2.2e-4 m -6.97791,5.39442 c 8.68684,0.0967 17.70123,-0.11945 27.13234,-0.52262 0.43794,4.48265 0.99967,8.90972 1.69963,13.30156 4.9e-4,0.003 9.9e-4,0.006 0.001,0.009 m 0.59441,-12.65708 c -0.26032,13.42169 -0.45023,27.98384 -1.36699,43.97431 -2.3e-4,0.004 -4.6e-4,0.008 -6.9e-4,0.012 m -0.26686,-19.60261 c -0.40219,10.46207 0.1703,22.34591 0.90431,34.18444 -2.03924,0.13543 -4.07229,0.26911 -6.10524,0.39004 -0.003,1.9e-4 -0.006,3.7e-4 -0.009,5.6e-4 m 4.84694,-1.53636 c 0.0352,0.87076 0.0677,1.75107 0.0979,2.64068 -8.93811,-0.007 -18.11654,0.99141 -26.99895,2.70463 0.12753,-2.59699 0.29019,-5.10911 0.50988,-7.54819 2.3e-4,-0.003 4.6e-4,-0.005 6.9e-4,-0.008 m 2.55412,3.21016 c -0.71672,0.04 -1.43701,0.0792 -2.16062,0.11826 0.34364,-11.926 -0.26506,-23.93128 -0.63794,-34.16608 -1e-4,-0.003 -1.9e-4,-0.005 -2.9e-4,-0.008 m 0.27494,11.35314 c -0.44662,-12.1474 0.14343,-25.13553 0.56753,-37.87566 0.81142,-0.0122 1.62219,-0.0234 2.43202,-0.0334 0.003,-4e-5 0.007,-8e-5 0.0103,-1.2e-4 m -2.61108,63.89538 z m 0,-53.33686 z m 0,17.29844 z m 27.75792,-25.59561 z m -1.44154,61.98607 z"
       id="rect4721"
       inkscape:path-effect="#path-effect3781"
       inkscape:original-d="m 229.44031,782.57898 27.75792,0 0,64.50042 -27.75792,0 z"
       inkscape:connector-curvature="0"
       sodipodi:nodetypes="ccccc" />
    <path
       inkscape:original-d="m 244.16981,480.48053 334.76112,0 0,431.8338 -334.76112,0 z"
       inkscape:path-effect="#path-effect3772"
       id="path3770"
       d="m 249.25391,484.74056 c 7.45563,-0.60317 13.07012,0.003 19.20834,-0.0202 6.1413,-0.0229 12.88678,-0.45302 18.6711,-1.35 5.78431,-0.89697 13.8535,0.18584 21.53984,0.56953 7.68634,0.3837 12.50288,-0.19293 17.53203,-0.56953 0,0 10e-6,0 10e-6,0 5.02915,-0.37659 13.49427,-0.76099 20.50624,-2.25703 0.004,-7.5e-4 0.007,-0.001 0.0105,-0.002 m 2.93024,-1.9171 c 5.81422,0.12586 12.87208,-0.39172 18.64127,-1.16035 5.77208,-0.769 14.52759,-0.43586 23.60703,-1.3289 0,0 0,0 10e-6,0 9.07943,-0.89304 12.28708,1.2285 16.87812,3.67031 4.59104,2.44181 14.32959,-1.38888 22.99531,-4.15547 8.66572,-2.76658 11.67572,0.31648 15.04297,0.94922 0.002,3.2e-4 0.003,6.3e-4 0.005,9.5e-4 m 1.41877,4.02769 c 7.02725,-0.17436 12.52895,0.97465 17.58477,2.9323 5.05833,1.95862 14.68115,0.0877 24.0289,0.25312 9.34775,0.16538 13.06566,-0.71711 19.21953,-2.17265 6.15388,-1.45554 13.04147,-0.56124 19.13516,-1.7086 6.09369,-1.14735 13.98752,0.72261 21.94062,2.19375 0.004,7.4e-4 0.008,0.001 0.0119,0.002 m 1.09616,2.31916 c 7.46906,0.70061 12.47536,-0.76352 17.41535,-2.30027 2.80078,-0.87128 6.68854,-0.92565 10.71827,-1.00425 0.19261,2.82873 0.46824,5.64329 0.40431,8.0676 -0.14751,5.59468 -0.47833,13.15221 -1.45546,19.45156 0,0 0,0 -1e-5,0 -0.97713,6.29936 0.67986,15.07878 2.0461,25.25235 0,0 0,0 0,0 1.36624,10.17357 0.35873,11.72493 1.09687,15.14844 3.7e-4,0.002 7.4e-4,0.003 0.001,0.005 m -3.81892,-0.14354 c 0.1045,6.17235 -0.70488,13.30039 -2.08844,19.92746 -1.38424,6.63038 0.26417,12.84621 0.80157,18.52344 0.53739,5.67723 0.72084,13.89231 2.17265,21.6664 1.45181,7.77409 0.36211,13.65347 1.07578,20.94922 0.71368,7.29575 0.0245,12.16565 0.0844,16.47734 3e-5,0.002 6e-5,0.004 9e-5,0.006 m 1.36998,3.61023 c -0.68177,6.44505 -1.44788,12.46994 -4.34429,17.41689 -2.89786,4.94942 1.0537,12.8531 3.18516,18.56562 2.13145,5.71253 -1.00639,13.62464 -3.0375,20.88594 -2.03112,7.2613 1.08,12.96166 3.24843,18.88203 2.16844,5.92037 -0.48979,14.7656 -1.47656,24.30313 -4.9e-4,0.005 -9.9e-4,0.01 -0.001,0.0143 m -1.20164,-1.31344 c -0.51854,5.78002 0.47869,13.74338 1.45625,21.21476 0.97804,7.47512 -0.76592,14.30752 -2.29922,22.93203 -1.53331,8.62452 0.0268,11.70595 0.0633,15.12735 0.0365,3.42139 0.48888,15.01893 1.47656,25.0625 0.98768,10.04356 0.45366,13.27708 1.35,19.83125 4.5e-4,0.003 9e-4,0.007 0.001,0.01 m 1.05448,-3.7978 c 0.75081,5.93353 0.34734,12.95445 1.05356,18.87312 0.70657,5.92164 -0.45514,13.76681 -1.35,21.28672 -0.89487,7.51991 0.23463,13.22949 0.69609,19.70469 0.0731,1.02545 0.12924,2.05694 0.17403,3.09228 -5.37284,-0.10859 -11.06666,-0.10826 -16.24734,-0.32574 -6.15549,-0.2584 -13.12204,0.30579 -19.34609,0.90703 0,0 0,0 0,0 -0.003,3e-4 -0.006,6e-4 -0.009,9e-4 m -7.36239,-0.94958 c -6.66969,0.35651 -12.67343,-1.19143 -18.02827,-3.58648 -5.35752,-2.39625 -14.11071,-0.32224 -22.32031,-0.94922 -8.20961,-0.62697 -12.9855,0.60364 -18.96641,1.81407 -5.98091,1.21043 -12.99112,0.7252 -18.9664,2.15156 -5.97529,1.42636 -12.74763,0.20869 -18.24922,0.61172 -0.003,2e-4 -0.005,4e-4 -0.008,6e-4 m 3.16128,-0.12715 c -7.35829,0.007 -13.9203,-0.3943 -21.78193,-1.18126 -7.86556,-0.78736 -14.18334,0.72196 -22.53125,2.15156 -8.34791,1.42959 -13.12528,-1.37306 -19.36719,-4.11328 -6.24191,-2.74022 -13.27307,0.21044 -19.83125,0.6539 0,0 0,0 0,0 -6.55817,0.44346 -12.15124,0.0507 -16.47734,0.14766 -0.002,5e-5 -0.004,10e-5 -0.006,1.5e-4 m -6.60615,2.59486 c -6.85915,0.31562 -12.75677,0.0109 -18.3022,0.0417 -5.54821,0.0309 -13.72068,-1.77321 -21.13906,-5.29453 0,0 0,0 -10e-6,0 -7.41838,-3.52132 -13.29234,0.0916 -19.85234,0.29531 0,0 0,0 0,0 -6.56001,0.20369 -12.11876,0.68738 -16.37187,2.06719 -3.81259,1.23689 -12.76295,-0.0818 -21.65358,-0.9617 -0.33676,-0.7922 -0.67272,-1.57853 -0.99986,-2.35439 -0.002,-0.004 -0.003,-0.007 -0.005,-0.0112 m 4.0756,3.22973 c -0.15545,-5.9002 -1.14701,-14.68438 -3.43805,-24.06224 -2.29219,-9.38256 0.8493,-12.35529 2.53125,-17.04688 1.68194,-4.69159 -0.64006,-12.94331 -1.89844,-18.83984 -1.25838,-5.89654 1.15524,-13.91911 3.48047,-21.77188 2.32523,-7.85276 -1.41806,-13.53745 -4.23985,-20.59062 -0.001,-0.004 -0.003,-0.007 -0.004,-0.0106 m 5.10858,6.87709 c -0.22443,-6.6984 0.0134,-13.31861 0.0425,-19.98995 0.0291,-6.67468 -0.38011,-14.02282 -1.11797,-22.08828 -0.73786,-8.06546 -0.27612,-13.39141 -0.84375,-20.14766 -0.56763,-6.75624 0.31557,-13.60966 0.97031,-20.82265 0.65475,-7.213 0.14464,-13.2195 0.42188,-19.6836 1.4e-4,-0.003 2.8e-4,-0.006 4.1e-4,-0.01 m 0.69626,1.41387 c 0.38536,-6.06747 -0.39423,-13.62324 -1.18183,-20.87683 -0.78799,-7.25723 0.2321,-13.11009 0.6961,-19.30391 0.46399,-6.19382 -0.71199,-13.6323 -2.15157,-20.88594 -1.43957,-7.25363 1.00906,-13.33417 3.01641,-19.9789 2.00735,-6.64473 0.007,-13.90434 0.0211,-21.7086 1e-5,-0.004 2e-5,-0.008 2e-5,-0.0117 m 0.54964,-1.87634 c 0.81281,-7.12723 -0.78647,-14.31992 -2.34263,-22.98461 -1.55693,-8.66903 0.11602,-13.33284 0.3586,-19.97891 0.24258,-6.64607 -0.26698,-13.23363 -0.82266,-19.70469 -0.55568,-6.47105 0.46653,-12.23934 1.39219,-16.73047 0,0 0,0 0,0 0.92566,-4.49113 0.26789,-14.24043 0.78047,-22.7 2.6e-4,-0.004 5.1e-4,-0.008 7.7e-4,-0.0127 m -2.19555,6.94273 c -0.68788,-6.53071 -0.53332,-13.95814 -1.6021,-21.88864 -0.52194,-3.87291 -0.35411,-7.0982 0.13143,-10.12056 3.92177,0.24301 8.19297,0.70919 12.38446,0.88566 8.1883,0.34475 13.45343,-0.31795 20.35859,-0.94922 6.90517,-0.63126 12.85725,-0.30086 18.56563,-0.88593 0,0 0,0 0,0 5.70838,-0.58507 13.06579,0.3131 19.21953,0.92812 0.003,3.1e-4 0.006,6.2e-4 0.009,9.2e-4 m -70.79758,-2.5545 c 6.20846,-0.82707 14.34011,0.55031 23.04928,1.66764 8.71353,1.1179 13.60094,-0.55181 20.80156,-1.64531 0,0 0,0 0,0 7.20062,-1.0935 11.7241,0.91772 15.16954,2.76328 3.44544,1.84557 13.48007,-0.0192 20.42187,-0.0633 6.9418,-0.0441 14.55544,-0.52052 23.69141,-1.56094 0.005,-5.2e-4 0.009,-0.001 0.0137,-0.002 m -3.69463,2.21512 c 6.97975,-0.8489 14.13291,-0.24499 22.39421,-0.737 8.26543,-0.49226 13.26393,-0.63956 19.78906,-1.91953 0,0 0,0 0,0 6.52513,-1.27997 13.52009,-0.37294 20.56953,-1.09688 7.04945,-0.72394 13.88712,0.13015 21.6875,0.37969 0,0 10e-6,0 10e-6,0 7.80038,0.24954 12.09098,-0.57734 16.28749,-1.72969 0.002,-5.7e-4 0.004,-0.001 0.006,-0.002 m 3.90486,2.3437 c 5.87122,0.37212 13.77043,0.39591 21.34119,1.20178 7.57454,0.80627 12.50885,-1.06094 17.53203,-3.18516 5.02318,-2.12421 14.67046,0.78209 24.0289,2.3625 9.35844,1.58042 13.22639,0.23907 19.6836,0.73829 6.4572,0.49921 12.90801,0.0732 18.71328,0.21093 0.003,7e-5 0.006,1.4e-4 0.009,2.1e-4 m -5.77966,4.49233 c 5.82205,-0.28772 13.68546,-0.16139 21.04595,-0.50582 5.23745,-0.24508 10.13447,-0.40641 15.44624,-0.85231 0.23161,1.74422 0.53161,3.44152 0.95056,5.06723 1.45069,5.62935 -1.54329,12.8358 -4.64062,18.50234 0,0 0,0 -10e-6,0 -3.09733,5.66655 -0.0281,13.37785 -0.0844,20.14766 -0.0562,6.76981 1.28095,13.56719 3.86016,20.69609 0.001,0.004 0.003,0.007 0.004,0.0107 m -0.13167,-4.93722 c -0.82668,6.27031 0.93184,13.07197 2.78562,19.21012 1.8547,6.14122 -0.4429,14.7625 -1.32891,24.30312 -0.88601,9.54062 0.35199,12.7875 1.05469,18.35469 0.7027,5.56719 -0.22198,13.31378 -0.65391,19.91563 -0.43193,6.60184 -0.95034,13.21457 -2.82656,19.6414 -9.4e-4,0.003 -0.002,0.006 -0.003,0.01 m 1.64766,3.83912 c -0.30818,6.46034 0.42235,13.73069 1.28718,21.21374 0.86527,7.48679 0.22493,12.30586 0.6961,16.92031 0.47116,4.61446 -0.0434,13.56248 -0.14766,20.675 -0.10427,7.11252 -0.27422,13.31681 -0.80156,19.95782 -0.52735,6.641 -0.36443,13.47037 -1.09688,20.40078 -3.6e-4,0.003 -7.3e-4,0.007 -0.001,0.0104 m 1.45536,-2.31984 c -0.79865,7.23835 0.91119,13.22106 2.74339,19.65163 1.83311,6.4338 -0.008,13.67105 -0.0211,21.01251 -0.0127,7.34145 -0.92005,12.66227 -2.78438,17.99609 -1.86433,5.33382 -0.49163,13.42354 -1.47656,20.29531 -0.98494,6.87177 1.14405,14.34724 3.41719,23.01641 0.001,0.004 0.002,0.009 0.003,0.013 m -4.41139,0.0599 c 0.40656,6.43104 -0.23803,12.4825 -0.73889,17.48019 0,0 0,0 0,0 -0.50112,5.00019 -0.81513,14.16028 -2.46797,22.46797 -1.65283,8.30769 0.90661,13.26935 2.74219,19.78906 0.55599,1.97481 0.74817,3.87793 0.72949,5.69649 -4.69036,-0.46202 -10.49762,-1.37197 -15.55748,-2.88698 -7.25842,-2.17329 -13.34086,0.56813 -20.0211,1.70859 0,0 0,0 0,0 -0.003,5.8e-4 -0.007,0.001 -0.01,0.002 m -0.86426,-0.40299 c -6.29059,-0.33709 -12.30124,-0.4308 -16.88978,-1.28622 -4.59083,-0.85584 -14.42761,-0.26212 -23.26953,-0.80156 -8.84193,-0.53943 -12.58008,0.70003 -17.74297,2.10938 -5.16289,1.40934 -14.11479,-0.16713 -22.34141,-0.48516 0,0 0,0 0,0 -8.22662,-0.31802 -12.31127,-0.0113 -16.92031,-0.0211 -0.002,-10e-6 -0.005,-10e-6 -0.007,-2e-5 m 1.2196,1.20218 c -7.16821,-0.11953 -13.21907,-0.29698 -19.67284,-0.90685 -6.45699,-0.61017 -14.37613,0.25762 -23.12187,0.75937 -8.74574,0.50176 -13.03162,1.03093 -19.09297,3.10079 -6.06135,2.06986 -12.92826,-0.72992 -18.79765,-2.21485 -1e-5,0 -1e-5,0 -1e-5,0 -5.86939,-1.48492 -14.2334,0.0194 -22.69999,0.0633 -0.004,3e-5 -0.008,5e-5 -0.0127,7e-5 m 1.8578,-1.51762 c -7.42769,0.79367 -13.18693,1.12431 -19.56698,3.3949 -6.38324,2.27172 -13.62126,0.57642 -20.84375,1.70859 -7.22249,1.13217 -12.55568,-0.28413 -17.65859,-0.86484 -5.10292,-0.58071 -12.88742,-1.45674 -18.6711,-4.34532 -5.78368,-2.88857 -13.91798,0.43278 -21.72968,1.28672 -0.004,4.3e-4 -0.008,8.6e-4 -0.0117,0.001 m -0.56844,-1.39471 c -0.28645,-0.0335 -0.57234,-0.0644 -0.85775,-0.0928 -0.3726,-7.06697 -0.47316,-12.74768 -1.40616,-19.23459 -0.97284,-6.7639 0.57635,-11.75369 1.75078,-15.27499 1.17443,-3.52131 -1.2157,-14.09433 -3.62812,-22.29922 -2.41243,-8.2049 0.12628,-13.4914 0.35859,-20.46407 0.23231,-6.97266 -0.378,-13.7088 -1.11797,-21.11797 -3.7e-4,-0.004 -7.4e-4,-0.007 -0.001,-0.0111 m 3.86216,4.28429 c 0.59636,-5.89969 0.1957,-14.18529 0.61083,-22.56458 0.41533,-8.38349 0.16073,-13.20726 0.46406,-19.59922 0.30333,-6.39196 0.59463,-12.67099 1.77187,-18.03828 1.17725,-5.36729 -0.0334,-14.3561 -0.12656,-23.07969 0,0 0,0 0,-1e-5 -0.0932,-8.72358 0.13929,-13.20718 0.44297,-19.59921 1.5e-4,-0.003 3e-4,-0.006 4.5e-4,-0.01 m -5.71712,-3.69099 c -0.17408,-6.11457 1.26589,-11.63128 3.79714,-14.92832 2.53251,-3.2987 -0.55139,-14.96599 -1.66641,-24.89375 -1.11501,-9.92776 -0.29925,-12.81506 -0.88594,-18.46016 -0.58668,-5.6451 -0.44135,-12.77463 -1.30781,-18.3125 -0.86646,-5.53787 1.2034,-12.87103 3.62813,-18.58672 0.001,-0.003 0.002,-0.006 0.004,-0.009 m -2.7244,1.32685 c 0.21788,-7.08434 0.45729,-13.50791 1.34967,-20.53781 0.89283,-7.03342 -1.27195,-12.76647 -3.83906,-18.3125 -2.56711,-5.54603 1.30669,-13.33875 3.94453,-20.02109 2.63784,-6.68235 -0.73069,-14.21259 -2.19375,-22.63672 -1.46306,-8.42413 -0.52657,-12.9682 -1.56093,-18.92422 -5.2e-4,-0.003 -0.001,-0.006 -0.002,-0.009 m 4.66286,-1.34989 c -0.26519,-5.8853 1.33135,-13.81333 4.00822,-21.42555 1.69434,-4.81822 0.84856,-8.8625 -0.50388,-12.85921 1.66372,0.12828 3.15661,0.27259 4.87679,0.29072 4.68259,0.0494 13.7633,-0.0167 21.28672,-0.0422 7.52343,-0.0255 12.48298,0.13226 17.44766,0.42187 0,0 0,0 0,0 4.96468,0.28962 13.65297,-1.23785 20.97031,-3.7125 0.004,-0.001 0.007,-0.002 0.011,-0.004 m -63.70111,2.93521 c 6.57919,-0.35698 13.35129,0.71948 20.0745,2.131 6.72657,1.41223 12.10729,-0.68773 16.32969,-2.06719 0,0 0,0 0,0 4.22239,-1.37946 14.26821,0.10709 22.82656,0.29532 8.55835,0.18822 12.67113,0.42033 18.03828,1.28672 0,0 10e-6,0 10e-6,0 5.36715,0.86638 13.4459,0.81028 20.33749,2.42578 0.003,8e-4 0.007,0.002 0.0103,0.002 m 3.01496,-1.29025 c 5.92582,-0.73633 12.25142,0.10414 16.78486,0.29642 4.5357,0.19238 13.52767,-1.00533 20.59062,-2.99531 0,0 0,0 0,0 7.06295,-1.98999 14.23446,0.82167 22.67891,2.46797 8.44445,1.64629 12.28673,-0.84354 16.87812,-2.51016 4.5914,-1.66662 14.67799,0.32147 24.02891,0.94922 0.005,3.1e-4 0.009,6.3e-4 0.014,9.4e-4 m -3.04257,-3.94506 c 5.96139,0.27346 12.75248,-0.068 18.26136,-0.19026 5.51165,-0.12234 13.04069,1.23905 19.13516,3.69141 0,0 0,0 0,0 6.09446,2.45236 14.59425,-1.61142 23.79687,-4.80937 9.20263,-3.19796 13.27371,0.31478 19.81016,0.92812 6.53645,0.61334 12.08058,0.4152 16.26641,1.24453 0.002,4.2e-4 0.004,8.3e-4 0.006,0.001 m -0.24888,3.30937 c 7.01398,-0.73511 13.29265,1.32162 19.9051,3.94564 4.39506,1.74409 8.72946,0.41426 12.96478,-1.68759 -0.0978,1.17577 -0.22089,2.15446 -0.37423,3.23298 -0.45682,3.21306 0.4924,13.46854 1.49765,20.40078 0,0 0,0 10e-6,0 1.00525,6.93224 0.54878,14.64916 1.64531,23.94453 0,0 0,0 0,0 1.09652,9.29537 -0.15968,12.94535 -0.48516,18.83984 -1.6e-4,0.003 -3.2e-4,0.006 -4.9e-4,0.009 m 0.37885,-5.22985 c -0.88373,6.82543 -0.005,14.11302 -0.0198,22.35225 -0.0143,8.24336 -0.29692,13.7261 -0.88593,21.20235 -0.58901,7.47624 0.96384,12.8346 2.91094,18.50234 1.94709,5.66774 -1.38938,13.6534 -4.15547,20.97031 -2.7661,7.31692 -0.1549,13.11108 -0.44297,19.325 -1.5e-4,0.003 -2.9e-4,0.006 -4.3e-4,0.009 m 2.5521,0.61172 c -0.45041,6.21431 -1.53044,13.18524 -4.59777,19.5688 -3.06885,6.38675 0.56665,14.42339 1.7086,23.26953 1.14194,8.84614 0.0964,12.42588 0.27422,17.25781 0.17782,4.83193 0.8076,14.67778 2.40468,24.02891 1.59708,9.35113 -0.66009,12.39761 -1.98281,17.19453 -6.6e-4,0.002 -0.001,0.005 -0.002,0.007 m 1.18427,-0.92572 c 0.69451,6.40439 0.15317,13.88321 0.46302,21.63571 0.31001,7.75637 0.53283,14.06331 1.58203,22.17265 1.04921,8.10934 -0.59821,13.12247 -1.79296,19.36719 -1.19475,6.24472 1.40737,12.02194 4.19765,16.07656 2.79029,4.05463 0.10364,14.93463 0.29531,24.78828 10e-5,0.005 2e-4,0.01 2.9e-4,0.0148 m -4.74607,-7.47125 c 0.20282,7.14015 -0.57872,13.21342 -1.75109,19.67288 -1.17295,6.46269 1.41722,13.97346 4.26094,21.91953 2.84372,7.94607 -0.37596,12.32815 -1.13906,16.9836 -0.19538,1.19189 -0.25837,2.64219 -0.22747,4.24978 -4.87005,-0.28835 -8.94719,0.75152 -13.17553,0.63863 0,0 0,0 0,0 -5.68341,-0.15174 -13.34486,0.58317 -20.02109,1.75078 0,0 0,0 0,0 -0.003,5.8e-4 -0.007,0.001 -0.01,0.002 m 0.0427,7.36023 c -6.34747,0.17532 -13.08327,-0.0233 -19.27329,-0.0635 -6.19311,-0.0403 -13.35519,-0.58549 -20.04218,-1.75078 0,0 0,0 0,0 -6.68699,-1.16529 -14.34535,-0.49374 -23.0586,-1.47657 -8.71325,-0.98282 -13.68349,0.3941 -21.03359,1.16016 -7.35011,0.76606 -12.57213,-0.54612 -17.70078,-1.64531 -0.003,-5.5e-4 -0.005,-0.001 -0.008,-0.002 m 0.50454,1.66789 c -6.2703,-0.11242 -13.05854,-0.19164 -19.18903,-0.59046 -6.13356,-0.39902 -14.01642,0.14224 -22.04609,0.42187 -8.02968,0.27964 -13.73581,-0.58373 -21.22344,-1.77187 -7.48764,-1.18814 -13.26218,0.73153 -19.78906,2.21484 -1e-5,0 -1e-5,0 -1e-5,0 -6.52688,1.48331 -12.05259,-0.51363 -16.16093,-1.53984 -0.002,-5.1e-4 -0.004,-0.001 -0.006,-0.002 m -1.8401,-1.70679 c -7.40764,0.17597 -14.17657,0.63416 -22.56232,1.89817 -8.38996,1.26464 -11.83287,0.92067 -15.50704,2.76328 -3.67416,1.84261 -13.67653,-0.60061 -21.05468,-1.79296 -7.37816,-1.19236 -14.59721,-0.73126 -23.81797,-2.21485 -9.16617,-1.47481 -12.18059,0.1898 -16.58827,0.62517 0.0132,-0.0369 0.0264,-0.0738 0.0395,-0.11079 0.001,-0.003 0.002,-0.006 0.003,-0.009 m -0.6153,1.22168 c -0.17582,-7.41314 -0.47751,-12.66402 -1.4552,-18.02715 -0.97819,-5.36582 -0.0861,-14.21991 -0.27422,-22.65782 -0.18809,-8.43791 0.92897,-13.69488 2.76328,-21.07578 1.83431,-7.3809 0.24715,-12.84951 0.71719,-18.52344 0.47004,-5.67392 -0.977,-13.7391 -2.95313,-21.20234 -9.9e-4,-0.004 -0.002,-0.007 -0.003,-0.0112 m 0.10776,2.97488 c -0.44995,-7.01378 -1.07231,-13.08937 -3.20558,-19.27228 -2.13434,-6.18601 0.82969,-14.77263 2.51016,-24.30313 1.68046,-9.53049 0.18155,-12.41414 0.56953,-17.23672 0.38798,-4.82258 -0.44909,-14.00531 -1.35,-22.025 -0.90092,-8.01969 -0.26557,-12.98824 -0.82266,-18.9664 -2.8e-4,-0.003 -5.5e-4,-0.006 -8.3e-4,-0.009 m -0.92674,1.53997 c 0.36595,-5.89308 1.24762,-14.58296 3.75413,-23.74585 2.50777,-9.16747 -0.864,-13.65761 -2.59453,-20.9914 -1.73053,-7.33379 0.99001,-12.88305 2.99532,-18.62891 2.00531,-5.74586 -0.0276,-12.80416 -0.10547,-18.43906 -0.0778,-5.6349 -0.54816,-14.01881 -1.64531,-22.06719 -5.5e-4,-0.004 -0.001,-0.008 -0.002,-0.0121 m 0.90771,4.66399 c -0.64596,-6.53152 -0.69752,-14.77712 -2.10841,-24.35661 -1.41159,-9.58428 -0.40845,-13.19242 -1.24453,-19.55703 -0.83608,-6.3646 1.02558,-12.88678 3.07969,-18.65 2.05411,-5.76322 0.26683,-12.43235 0.80156,-17.32109 0,0 0,0 0,-10e-6 0.53473,-4.88874 -1.46313,-14.01852 -4.36641,-22.04609 -0.001,-0.004 -0.003,-0.008 -0.004,-0.012 m -0.22875,-0.79997 c -0.71465,-6.96556 0.74817,-13.96535 2.21592,-21.88799 0.86018,-4.64315 0.64732,-8.21317 0.24292,-11.46732 2.47557,0.46034 4.85535,1.07864 7.45109,1.58711 6.26638,1.22752 12.83516,0.57678 18.48125,1.72969 5.64608,1.15292 14.57498,-1.06446 23.73359,-3.20625 9.15861,-2.14179 12.8969,0.75368 18.69219,2.27813 0.003,7.6e-4 0.006,0.002 0.009,0.002 m -59.72044,-0.76138 c 6.2283,0.18177 13.14776,-0.58538 19.44221,-1.77215 6.2976,-1.18737 13.41208,-0.0667 20.21093,-0.18985 10e-6,0 10e-6,0 10e-6,0 6.79886,-0.12318 11.90191,1.0561 15.71797,3.14297 3.81606,2.08688 14.73135,-0.52087 24.17656,-1.53984 0,0 10e-6,0 10e-6,0 9.4452,-1.01897 12.82497,0.33012 18.46015,1.0125 0.003,3.4e-4 0.006,6.8e-4 0.008,0.001 m -1.53964,-3.10053 c 5.76607,0.84863 13.81681,-0.0318 21.44681,-0.10674 7.63382,-0.075 13.22316,-0.26473 19.6836,-0.80156 6.46044,-0.53684 13.777,0.47376 21.30781,1.41328 7.53081,0.93951 13.6252,0.10371 20.86484,0.3375 0,0 10e-6,0 10e-6,0 7.23964,0.23379 13.32812,0.96293 19.9789,2.91094 0.003,9.7e-4 0.007,0.002 0.01,0.003 m -0.71594,-3.44218 c 7.477,-0.65179 13.40506,0.48438 20.24191,1.45645 6.84026,0.97256 13.87558,0.29285 21.64531,0.88594 7.76973,0.59309 13.63244,-1.03205 20.90703,-3.12188 7.27459,-2.08982 12.09232,-0.0249 16.2875,-0.0633 4.19518,-0.0384 14.02415,0.70643 22.04609,2.13047 0.004,7.1e-4 0.008,0.001 0.012,0.002 m 0.8211,-4.93903 c 6.97941,-0.63792 13.78755,0.33175 21.36062,0.99236 2.44381,0.21318 4.71067,0.29802 6.89221,0.32138 0.0657,4.56548 -0.24491,8.85971 -0.0829,13.50213 0.23913,6.85264 -0.4145,14.14938 -1.22344,22.44688 0,0 0,0 0,0 -0.80895,8.29749 0.0829,13.33038 0.27422,19.9789 0,0 0,10e-6 0,10e-6 0.19131,6.64852 0.0905,13.8516 0.29531,21.56093 10e-5,0.004 2e-4,0.008 3.1e-4,0.0116 m -1.09703,-3.98838 c 0.10514,6.5929 -0.0684,13.03601 -0.19,19.10417 -0.12164,6.07119 0.087,14.03821 0.27422,22.08828 0.18717,8.05006 0.61221,12.87904 1.85625,18.6289 1.24404,5.74987 -0.81014,13.70881 -2.44688,21.13906 -1.63673,7.43026 0.88608,12.65538 2.67891,17.95391 9e-4,0.003 0.002,0.005 0.003,0.008 m -3.41947,7.36286 c 0.27353,6.05939 -0.0102,12.55807 -0.0215,17.6706 -0.0113,5.11508 -1.22527,14.74689 -3.64922,24.21875 -2.42395,9.47185 0.19357,13.06572 0.59062,19.21953 0.39706,6.1538 -0.28258,13.24741 -0.82265,19.72578 -0.54007,6.47837 1.07269,13.65487 3.22734,20.94922 0.001,0.004 0.002,0.007 0.003,0.0109 m 1.89425,-6.70963 c -0.63813,6.08108 0.1173,13.20902 0.33846,19.63228 0.22127,6.42648 -1.63258,13.64946 -4.87266,20.97032 -3.24007,7.32085 0.61896,13.01685 1.85625,19.02968 1.23729,6.01283 0.6042,14.18728 1.83516,22.55235 1.23096,8.36506 -0.71874,12.08662 -2.17266,16.2664 -7.2e-4,0.002 -0.001,0.004 -0.002,0.006 m 3.06207,3.52545 c 0.8629,6.04579 0.21091,12.98963 0.63152,18.99952 0,0 0,0 0,10e-6 0.42082,6.01289 0.34727,14.0593 1.03359,22.17265 0,0 0,0 0,0 0.62746,7.41743 0.4817,13.03533 1.14166,20.18144 -0.50991,0.0986 -1.01273,0.21072 -1.50715,0.339 0,0 0,0 0,0 -5.76421,1.49562 -14.11915,-1.54673 -22.38359,-4.64062 -8.26445,-3.09389 -13.00913,-0.1613 -19.05078,-0.48516 0,0 0,0 0,0 -0.003,-1.6e-4 -0.006,-3.2e-4 -0.009,-4.8e-4 m -1.66654,1.83548 c -6.12963,-0.10587 -12.66355,-0.66968 -18.00799,-2.02484 -5.34711,-1.35584 -14.51381,0.79467 -23.56484,2.38359 -9.05103,1.58892 -12.0668,-0.95976 -16.20313,-2.88984 -4.13633,-1.93008 -14.89434,0.54626 -24.68281,1.62422 0,0 0,0 -10e-6,0 -9.78846,1.07796 -12.62387,-0.14899 -17.86952,-0.42188 -0.003,-1.3e-4 -0.005,-2.7e-4 -0.008,-4.1e-4 m 1.20089,-0.65465 c -6.21478,-0.77086 -13.65004,0.65268 -20.93989,1.94178 -7.29351,1.28974 -12.27893,0.0989 -16.81485,0.31641 0,0 0,0 0,0 -4.53592,0.21754 -14.62743,-0.71164 -23.88125,-2.13047 -9.25381,-1.41884 -13.15544,0.6326 -19.45156,1.91953 -6.29612,1.28693 -13.77173,-0.73223 -21.30781,-2.17266 -0.004,-7.2e-4 -0.008,-0.001 -0.0113,-0.002 m 0.25326,1.43732 c -7.44293,0.52511 -14.40834,-0.91991 -23.23727,-2.74298 -8.83334,-1.82398 -12.81259,0.30797 -18.43905,0.90703 -10e-6,0 -10e-6,0 -10e-6,0 -5.62646,0.59907 -13.22287,-0.16488 -19.68359,-0.50625 0,0 -10e-6,0 -10e-6,0 -6.46072,-0.34136 -13.08041,0.0735 -19.24062,0.21094 -4.01818,0.0896 -8.61931,0.11734 -13.37703,0.19527 -0.21813,-2.27658 -0.48075,-4.53889 -0.72328,-6.76996 -3.5e-4,-0.003 -7e-4,-0.006 -0.001,-0.01 m 1.3297,-2.42599 c -0.16731,-6.54937 1.01701,-11.58177 3.05885,-14.78001 2.04286,-3.19984 0.19575,-13.65501 0.59062,-20.9914 0,0 0,0 0,-10e-6 0.39488,-7.33639 -0.4218,-13.813 -1.28672,-21.45547 -0.86491,-7.64246 -0.82624,-12.76359 -2.46796,-18.2914 -1e-5,0 -1e-5,0 -1e-5,-10e-6 -1.64172,-5.52781 0.92054,-14.66898 2.74219,-24.0078 9.1e-4,-0.005 0.002,-0.009 0.003,-0.014 m -3.03927,1.67127 c 0.6384,-6.09511 0.15453,-13.20835 0.4842,-19.61117 0.32983,-6.40602 -0.46941,-13.5153 -1.43438,-20.52734 0,0 0,0 0,0 -0.96496,-7.01205 0.55146,-13.00343 1.64532,-18.9875 1.09385,-5.98408 -0.22908,-13.20699 -0.675,-19.62032 -0.44593,-6.41333 0.92594,-13.06241 2.78437,-19.17734 9.3e-4,-0.003 0.002,-0.006 0.003,-0.009 m -0.95283,2.02534 c -0.54744,-5.88434 -0.37003,-12.85564 -1.11715,-18.57789 -0.74749,-5.72511 -0.31464,-13.59236 -0.92812,-20.78047 -0.61348,-7.1881 -0.36155,-14.14931 -1.07578,-22.46797 -0.71424,-8.31865 1.43676,-12.38446 4.32422,-17.17343 2.88745,-4.78897 -0.70678,-13.88839 -2.10938,-21.6875 -7e-4,-0.004 -0.001,-0.008 -0.002,-0.0117 m 0.46724,-1.72901 c 0.71541,-7.34308 0.011,-12.74478 0.0411,-18.25929 0.0301,-5.51727 1.11016,-13.21296 3.31172,-19.62032 2.20156,-6.40735 -0.1395,-14.04454 -0.44297,-22.10937 -0.30347,-8.06483 -1.07599,-13.04062 -3.24844,-19.11406 -2.17244,-6.07344 0.64203,-13.44759 1.91953,-20.31641 6.4e-4,-0.003 0.001,-0.007 0.002,-0.0103 m 2.06394,0.97143 c -0.88499,-6.11612 -1.26738,-13.18412 -3.79554,-19.56894 -0.61711,-1.5585 -0.87584,-3.16634 -0.88602,-4.81149 5.00862,-0.0579 12.40395,-0.4741 18.91753,-0.8906 8.61551,-0.55089 12.74081,0.1073 18.22812,0.31641 0,0 0,0 0,0 5.48732,0.20911 14.15782,-0.63401 22.44688,-1.89844 0,0 0,0 0,0 8.28906,-1.26443 13.22519,-0.0457 19.6625,-0.14765 0.003,-5e-5 0.006,-1.1e-4 0.01,-1.6e-4 m -71.40705,2.29906 c 6.94441,-0.2112 13.85377,-0.79317 21.57161,-2.36219 7.72171,-1.56979 13.01932,1.29249 19.07188,3.86016 0,0 0,0 0,0 6.05255,2.56767 13.86208,0.15954 21.56094,0.46406 7.69885,0.30453 12.04844,-0.33525 16.16093,-0.9914 0,0 0,0 10e-6,0 4.11249,-0.65616 13.40652,0.2804 20.21093,0.84375 0.003,2.8e-4 0.007,5.6e-4 0.0102,8.4e-4 m 1.83555,0.50552 c 7.0632,0.0755 13.41565,-1.65307 20.24252,-4.97824 6.83028,-3.32683 12.94169,1.5525 18.83984,4.64063 0,0 0,0 0,0 5.89816,3.08812 13.32167,-1.0485 19.97891,-3.14297 6.65725,-2.09447 13.64193,-0.0217 20.90703,-0.0633 7.2651,-0.0416 12.7894,1.05975 18.37578,3.18515 0.003,0.001 0.006,0.002 0.008,0.003 m 2.53166,-5.99247 c 5.86334,0.89068 12.89051,-0.0536 18.68339,-0.17009 5.79578,-0.11658 13.86384,1.31892 21.58203,3.96562 7.71819,2.64671 13.17766,-1.4812 19.53594,-4.45078 6.35828,-2.96958 13.46868,0.0125 20.40078,0.0633 6.9321,0.0508 13.21978,0.30558 19.6625,0.90704 0.003,3e-4 0.006,6e-4 0.01,9e-4 m -1.68774,5.5458 c 6.28319,-0.63208 11.91952,-0.84752 15.79291,-2.55139 1.91601,-0.84284 5.17613,-0.93201 8.76817,-0.88712 0.30267,3.41651 0.95245,6.9732 0.86692,10.0075 -0.16917,6.00152 0.64062,14.57681 1.94062,23.7336 1.30001,9.15678 -0.36576,13.72567 -1.11797,21.16015 0,10e-6 0,10e-6 0,10e-6 -0.7522,7.43448 -0.0372,12.5793 -0.12656,17.72187 -4e-5,0.003 -9e-5,0.005 -1.3e-4,0.008 m 4.72602,-1.17776 c 0.58882,7.46987 -0.32283,13.289 -0.9923,19.88332 -0.66979,6.59762 -0.43073,13.9054 -1.30781,21.70859 -0.87707,7.8032 -0.53718,13.03859 -1.60312,19.13516 -1.06594,6.09657 0.32948,12.83425 0.97031,18.48125 0.64083,5.647 1.2041,13.60165 3.62812,20.80156 0.001,0.004 0.002,0.007 0.004,0.0108 m -2.261,-0.99095 c -0.22567,7.49821 -1.22461,13.57428 -3.66998,20.72703 -2.44659,7.15632 1.24938,13.9106 3.73359,21.72969 2.48422,7.81908 -0.99189,13.13033 -2.95312,19.36718 -1.96123,6.23685 0.43755,13.29424 1.30781,19.89453 0.87026,6.60029 -0.31577,13.73883 -0.97031,21.20235 -3.3e-4,0.004 -6.5e-4,0.007 -9.8e-4,0.0112 m 0.93033,-3.29065 c 0.81419,7.44101 0.59978,12.47942 1.81284,17.43649 1.21366,4.95955 -0.61017,14.26764 -1.83516,22.78437 -1.22498,8.51673 0.75558,12.36338 2.27813,17.08907 1.52254,4.72569 -0.64477,14.43527 -1.94063,23.31171 -1.29586,8.87645 0.94395,12.9308 2.82656,18.79766 9.5e-4,0.003 0.002,0.006 0.003,0.009 m -0.42368,1.2469 c 0.67985,7.441 -0.48158,12.47366 -1.4143,17.43649 0,0 0,0 0,0 -0.93319,4.96532 1.09329,14.20858 3.26953,22.61562 2.17624,8.40704 -1.12844,13.60601 -3.375,20.82266 0,0 0,0 0,0 -0.19343,0.62136 -0.34506,1.22902 -0.4592,1.82404 -7.30421,0.22305 -10.38501,-0.97892 -14.40161,-2.35906 0,0 0,0 0,0 -4.39501,-1.51017 -13.07711,0.68407 -19.21953,2.06718 0,0 0,0 0,0 -0.003,7e-4 -0.006,0.001 -0.009,0.002 m -6.41462,-0.97257 c -7.54815,-0.11863 -14.41895,0.59887 -23.27929,1.81424 -8.86478,1.21599 -13.29234,-1.07275 -19.85235,-3.20625 -6.56,-2.13349 -13.24966,1.13056 -19.74687,3.41719 -6.49721,2.28663 -13.34683,-0.26325 -20.02109,-0.80156 -10e-6,0 -10e-6,0 -10e-6,0 -6.67426,-0.53831 -12.70277,-0.28406 -18.12265,-0.84375 -0.003,-2.8e-4 -0.005,-5.6e-4 -0.008,-8.4e-4 m 5.06103,-1.68747 c -6.39679,-0.53974 -13.29946,0.31899 -19.88493,0.92893 -6.58876,0.61025 -13.74761,1.02727 -21.24453,3.07969 0,0 0,0 0,0 -7.49692,2.05242 -13.05891,-1.49189 -19.15625,-4.49297 -6.09735,-3.00107 -13.42397,1.06453 -20.27422,3.20625 -6.85025,2.14172 -14.37769,-0.77899 -23.12188,-2.32031 -0.004,-7.7e-4 -0.009,-0.002 -0.0131,-0.002 m 2.82916,-0.54512 c -7.00723,0.67349 -13.55298,0.17438 -20.64339,0.50524 -7.09396,0.33104 -13.12908,0.1684 -19.38828,0.52735 -6.25921,0.35894 -13.73482,-0.96954 -21.20235,-2.93204 -7.46752,-1.96249 -13.68735,0.82329 -21.05468,2.44688 -6.07184,1.33809 -10.58946,0.41715 -14.71929,-0.0458 0.29115,-1.27105 0.59994,-2.52126 0.91506,-3.72423 9e-4,-0.003 0.002,-0.007 0.003,-0.0103 m -4.89551,-0.61132 c 0.618,-6.57251 0.78855,-13.67858 2.34048,-21.04482 1.55271,-7.36994 -0.94071,-12.37526 -2.84766,-17.11016 -1.90694,-4.7349 0.0402,-13.70297 0.14766,-21.11797 0.10744,-7.415 0.95808,-12.87665 2.86875,-18.60781 1.91067,-5.73116 -0.33588,-13.02895 -1.03359,-19.09297 -3.5e-4,-0.003 -7e-4,-0.006 -0.001,-0.009 m 1.0334,1.51883 c -0.82853,-6.01221 -0.91556,-14.47424 -2.74095,-23.40817 -1.82629,-8.93839 -0.24721,-12.44134 -0.73828,-17.3 -0.49106,-4.85865 0.61074,-14.065 1.81406,-22.17265 1.20333,-8.10766 -0.7387,-12.7977 -2.21484,-18.37578 0,-10e-6 0,-10e-6 0,-10e-6 -1.47614,-5.57809 -0.14744,-12.88495 -0.42187,-18.6289 -1.4e-4,-0.003 -2.8e-4,-0.006 -4.1e-4,-0.009 m 5.29572,-5.02234 c 0.51932,-7.09039 0.30539,-12.54618 0.92734,-17.64795 0.62227,-5.10432 -1.15158,-13.6811 -3.48047,-21.05468 -2.32889,-7.37359 -0.0825,-14.24698 -0.25312,-22.7211 -0.17065,-8.47412 1.35119,-11.98284 4.05,-15.92891 2.6988,-3.94606 -0.82835,-14.19002 -2.46797,-22.59453 -8.2e-4,-0.004 -0.002,-0.008 -0.002,-0.0126 m 2.74452,-0.54541 c -0.0844,-6.38229 -0.20223,-12.82855 -0.61159,-18.47167 -0.40957,-5.64595 0.63295,-12.84382 1.89844,-18.54453 1.26548,-5.70072 -0.18598,-13.2503 -0.54844,-19.76797 -0.36246,-6.51768 -1.33038,-14.49898 -3.96563,-23.48047 -2.63524,-8.9815 1.1892,-12.99689 3.54375,-18.96641 0.001,-0.003 0.002,-0.006 0.004,-0.009 m -4.36868,4.04826 c 0.83472,-7.12728 0.0866,-14.36602 0.27297,-23.11118 0.0775,-3.63847 0.21168,-6.36893 0.44327,-8.64121 4.21969,0.70241 8.63167,2.30893 13.34917,3.57272 8.0758,2.16344 12.22324,-1.23905 16.66719,-3.7125 0,0 0,0 0,0 4.44395,-2.47346 13.21444,1.22217 19.64141,3.64921 0,10e-6 0,10e-6 0,10e-6 6.42697,2.42704 13.09989,-0.7186 19.3039,-2.13047 0.003,-7.1e-4 0.006,-0.001 0.009,-0.002 m -68.65876,2.63837 c 6.09698,-0.30959 15.08414,-0.98645 25.26429,-2.97375 10.18525,-1.9883 12.04282,0.0228 16.11875,0.0422 4.07594,0.0194 13.31471,0.80227 19.95782,2.42579 6.64311,1.62351 14.64888,-0.97855 23.96562,-2.95313 0,0 10e-6,0 10e-6,0 9.31674,-1.97458 13.11824,1.06165 19.34609,3.20625 0.003,0.001 0.006,0.002 0.009,0.003 m 1.20292,-1.41767 c 6.61343,-0.78635 12.51214,-0.81892 17.5643,-2.4457 5.05468,-1.62759 13.35935,0.20595 20.08437,0.63282 6.72503,0.42686 13.85273,0.74918 21.56094,2.23593 7.70821,1.48676 13.95201,-0.93157 21.83516,-2.80547 0,0 0,0 0,0 7.88314,-1.87389 12.64729,1.01159 17.9539,3.01641 0.003,10e-4 0.005,0.002 0.008,0.003 m -4.09119,0.0387 c 5.96967,-0.30272 14.01486,-1.13889 22.05823,-3.39564 8.0474,-2.25787 13.66732,0.33729 20.99141,0.99141 7.32409,0.65412 12.46167,0.37505 17.36328,1.13906 4.90161,0.76402 13.81772,-0.90499 21.47656,-2.7 7.65885,-1.79501 12.93516,1.72364 18.79766,5.14688 0.003,0.002 0.006,0.003 0.009,0.005 m 1.16155,0.354 c 6.78936,0.35704 13.09893,-0.6618 19.29372,-2.00444 3.91167,-0.84781 8.59413,-0.63555 13.69982,-0.37314 0.52494,2.6125 1.19446,5.24214 1.93917,7.68727 2.01888,6.6287 0.37976,13.84865 1.16016,21.53984 0,0 0,0 0,10e-6 0.78039,7.69119 -0.61566,12.47081 -1.85625,17.42656 0,0 0,0 0,0 -1.2406,4.95575 0.53662,13.08386 1.60312,19.24062 5.3e-4,0.003 0.001,0.006 0.002,0.009 m -1.69028,-0.77949 c -0.78643,6.80362 -0.90296,13.34707 -2.71991,20.05307 -1.81786,6.70934 0.29003,14.13433 0.84375,22.38359 0.55371,8.24926 0.57649,11.82738 1.72969,15.46484 1.15319,3.63747 -1.44893,13.75606 -4.34532,21.26563 -2.89638,7.50957 1.04063,14.11654 3.14297,22.3625 0.001,0.004 0.002,0.008 0.003,0.0124 m 0.27211,-2.15412 c 0.69346,6.53741 -0.89975,13.65588 -2.67995,20.9605 -1.78108,7.30827 0.0976,12.21628 0.27422,16.625 0.17663,4.40872 0.0989,14.74218 0.31641,24.23984 0.21754,9.49766 -0.45098,12.00295 -1.32891,15.99219 0,0 0,0 0,0 -0.87792,3.98924 0.39586,13.95194 1.20235,21.85625 4e-4,0.004 8e-4,0.008 0.001,0.0118 m 3.28942,0.2929 c 0.007,6.29074 -0.2046,12.45288 -0.59063,17.39603 -0.38623,4.94563 0.58204,13.51052 1.77187,20.50625 1.18983,6.99573 -0.90555,14.77797 -2.7,24.32422 -1.79445,9.54625 0.43671,12.55062 1.30781,17.65859 0.87111,5.10798 -0.57044,12.65665 -1.72968,17.975 -5.8e-4,0.003 -0.001,0.005 -0.002,0.008 m -0.0824,8.08168 c 0.16067,7.15997 -0.64908,11.9871 -1.91977,15.98144 0,0 0,0 0,0 -1.27132,3.99634 0.74658,14.30751 2.21484,22.91093 1.46827,8.60343 -0.33293,12.89262 -1.0125,18.69219 -0.15142,1.29226 -0.23591,2.71564 -0.27589,4.24138 -5.32065,0.14049 -10.0998,1.52619 -15.28882,2.9361 -6.67672,1.81413 -13.00926,-1.36969 -19.05078,-4.09219 0,0 0,0 0,0 -0.003,-0.001 -0.006,-0.003 -0.009,-0.004 m 0.0211,0.55148 c -6.04638,-0.69485 -13.58084,-0.48987 -20.77139,-1.45443 -7.19415,-0.96504 -14.15107,-0.16446 -22.46797,-0.50625 0,0 0,0 0,0 -8.3169,-0.34179 -13.00716,0.20974 -19.0086,0.63281 -6.00144,0.42307 -12.57909,1.06151 -17.72187,3.16406 -5.14279,2.10256 -14.03997,-0.50231 -22.10938,-1.51875 -0.004,-5e-4 -0.008,-0.001 -0.0121,-0.002 m 5.73999,-1.34772 c -6.40385,0.50482 -13.35752,-0.16994 -20.07476,-0.48591 -6.7206,-0.31613 -12.53986,0.37983 -17.6375,1.13906 -5.09764,0.75924 -13.3346,-0.15314 -20,-0.46406 -6.6654,-0.31092 -14.80301,0.077 -24.42969,0.23203 -9.62668,0.15504 -12.48009,-0.19287 -17.44765,-0.59063 -0.002,-1.9e-4 -0.005,-3.9e-4 -0.007,-5.9e-4 m -3.46192,0.2735 c -6.66389,-0.87555 -13.88473,1.16651 -21.65641,3.50288 -7.77556,2.33753 -14.10564,-0.0266 -22.3203,-0.0633 0,0 -10e-6,0 -10e-6,0 -8.21467,-0.0367 -12.17915,-0.0765 -16.51953,-0.23204 -4.34038,-0.15553 -12.94486,0.38588 -18.86094,1.18125 -5.68461,0.76426 -13.02977,-0.48362 -20.05109,-1.61349 -0.0251,-0.30684 -0.0496,-0.61348 -0.0734,-0.91978 -3.1e-4,-0.004 -6.1e-4,-0.008 -9.2e-4,-0.0118 m -2.4678,-4.80888 c -0.49853,-7.49716 -0.56148,-12.5161 -1.70784,-17.58406 -1.14694,-5.0705 0.6255,-12.73603 1.87734,-18.22813 1.25184,-5.49209 0.5362,-14.48252 1.62422,-23.45937 1.08801,-8.97686 -1.03767,-12.2295 -3.12188,-16.68828 0,0 0,-10e-6 0,-10e-6 -2.0842,-4.45878 1.39985,-13.44737 4.17657,-20.3164 0.001,-0.003 0.003,-0.007 0.004,-0.0103 m 0.35474,-0.76025 c 0.20278,-7.44867 -0.61378,-13.1227 -1.85656,-19.35601 -1.2434,-6.23643 1.1037,-14.14741 3.33281,-22.42578 0,0 0,0 0,0 2.22912,-8.27837 -1.36413,-12.82863 -4.11328,-18.48125 -2.74915,-5.65262 -0.0602,-13.18392 -0.16875,-19.55703 0,-1e-5 0,-1e-5 0,-1e-5 -0.10856,-6.37311 1.12753,-13.78727 3.375,-21.37109 0.001,-0.004 0.002,-0.008 0.003,-0.0114 m 2.27567,1.75313 c 0.61016,-6.01185 -0.0385,-14.11537 -0.10638,-22.35348 -0.0679,-8.24223 -0.47243,-13.92726 -1.41328,-21.77187 -0.94086,-7.84462 -0.0639,-11.59198 -0.21094,-14.76875 -0.14702,-3.17678 1.28784,-13.4393 3.86016,-20.31641 0,0 0,0 0,0 2.57231,-6.87711 -0.31226,-14.80469 -0.94922,-24.3875 -3.2e-4,-0.005 -6.4e-4,-0.01 -9.6e-4,-0.0144 m -2.86884,3.29619 c -0.69463,-5.87117 -0.28253,-13.7066 -0.8638,-21.15135 -0.58155,-7.44847 0.28596,-13.02811 0.84375,-19.09297 0.55779,-6.06486 -0.68519,-12.25741 -2.06718,-16.77266 -1.382,-4.51524 -0.44558,-14.43196 -1.35,-23.31171 -1e-5,-1e-5 -1e-5,-1e-5 -1e-5,-1e-5 -0.90442,-8.87975 1.59751,-13.46566 4.80938,-20.37968 0.002,-0.003 0.003,-0.007 0.005,-0.0104 m 1.32278,-0.40002 c -0.87713,-6.40359 -0.42118,-13.08987 -1.24322,-19.27321 -0.45445,-3.4184 -0.18452,-7.18236 0.39182,-11.05109 3.44958,-0.14977 7.10007,-0.36824 10.72954,-0.52755 8.11173,-0.35606 12.25361,0.5284 16.75156,1.56094 0,0 0,0 0,0 4.49795,1.03254 12.95336,-0.76768 18.83984,-2.29922 10e-6,0 10e-6,0 10e-6,0 5.88648,-1.53155 13.83269,-0.26663 21.51874,-0.78047 0.004,-2.6e-4 0.008,-5.1e-4 0.0115,-7.7e-4 m -67.90003,0.99268 c 7.14096,0.33789 14.02085,1.22838 22.09866,3.6909 8.08184,2.46375 13.27518,-0.64652 19.81015,-1.91953 0,0 0,0 0,0 6.53498,-1.27301 12.75305,-0.35227 18.27032,-1.05469 5.51726,-0.70242 12.54773,0.45499 17.6164,1.35 0,0 10e-6,0 10e-6,0 5.06867,0.89501 14.43506,0.48207 23.31171,1.45547 0.004,4.9e-4 0.009,9.7e-4 0.0133,0.001 m -7.04905,-0.94989 c 6.37659,0.52628 14.14755,0.25345 22.4584,0.77968 8.315,0.5265 13.34254,0.16931 20.02109,0.48516 0,0 0,0 0,0 6.67855,0.31584 12.79784,-0.32182 18.41797,-0.94922 5.62013,-0.6274 13.3995,0.43854 20.21094,1.32891 6.81144,0.89036 13.79022,-0.79243 21.35,-2.3836 0.004,-7.9e-4 0.008,-0.002 0.0113,-0.002 m 4.09023,1.71046 c 6.25579,-0.34405 12.57136,-0.38097 17.71249,-1.15964 5.1437,-0.77906 14.47198,-0.64575 23.43828,-1.94063 8.96631,-1.29487 12.83053,1.21901 18.48125,3.67032 5.65072,2.4513 13.49266,0.34024 20.46406,1.0125 6.97141,0.67225 12.52903,-0.37519 17.59532,-1.11797 0.003,-3.7e-4 0.005,-7.5e-4 0.008,-0.001 m 2.80824,-5.12484 c 6.91585,-0.11984 13.34566,-0.60097 20.074,-1.81389 4.45894,-0.80381 8.92232,-0.55467 13.45335,-0.30532 0.0587,2.3779 0.13498,4.75586 0.2372,6.99446 0.30277,6.63052 -0.8242,14.51233 -2.48906,23.52265 0,0 0,0 0,1e-5 -1.66486,9.01032 -0.19301,13.00377 -0.59063,18.9875 0,0 0,0 0,0 -0.39761,5.98372 0.64301,13.07585 1.91954,19.21953 6.3e-4,0.003 0.001,0.006 0.002,0.009 m 0.20934,0.63316 c 0.20936,6.36922 -1.04621,13.79134 -3.14329,21.36153 -2.09812,7.57398 0.36014,13.14342 1.07578,19.43047 0.71565,6.28705 0.9931,13.1655 2.97422,19.51485 1.98113,6.34934 0.0292,13.57844 0.10547,20.73828 0.0763,7.15984 -1.36483,13.92818 -4.11328,21.79297 -0.001,0.004 -0.003,0.008 -0.004,0.0118 m 2.66221,-0.21253 c 0.1827,6.7965 0.34931,13.23657 1.03332,19.69449 0.68435,6.46114 -0.56609,12.24707 -1.6875,16.73047 -1.12142,4.48339 -0.927,14.08989 -2.78438,22.27812 -1.85737,8.18823 0.8936,14.0932 2.65781,22.29922 1.76422,8.20602 -0.57592,12.08163 -1.72968,16.24531 -5.8e-4,0.002 -0.001,0.004 -0.002,0.006 m 2.97544,1.39696 c -0.33791,7.34288 -1.25731,12.54524 -3.77528,17.64757 -2.51922,5.10489 0.64027,14.32657 1.91954,22.95313 1.27926,8.62656 0.45379,13.01137 1.37109,19.02969 0.9173,6.01831 -0.87335,12.3427 -2.61563,17.02578 -1.74227,4.68308 1.22372,14.07084 3.67032,22.21484 0.001,0.004 0.002,0.008 0.004,0.0122 m -3.27308,1.0723 c 0.0782,5.81576 1.0481,14.41183 3.14285,23.23971 2.09581,8.83229 0.44508,13.62935 1.32891,20.90703 0.88383,7.27768 -1.31055,12.15567 -3.94453,16.45625 0,0 0,0 0,0 -0.66921,1.09264 -1.00404,2.53337 -1.13425,4.20545 -5.35516,-0.0638 -8.94662,1.86673 -14.05859,2.83765 -6.85313,1.30163 -12.19244,-0.66979 -16.6039,-2.0039 0,0 0,0 0,-10e-6 -0.002,-6.6e-4 -0.004,-0.001 -0.007,-0.002 m -4.328,2.99785 c -6.92875,0.36357 -12.21627,-1.15315 -16.67788,-3.48101 -4.46385,-2.32903 -14.36398,0.10484 -23.07969,0.3375 -8.71571,0.23266 -12.57993,0.0999 -17.72188,0.3164 -5.14194,0.2165 -13.36223,-0.32512 -20.06328,-0.9914 0,0 0,0 0,0 -6.70105,-0.66628 -13.83825,1.1674 -21.53984,3.48047 -0.004,0.001 -0.008,0.002 -0.0115,0.003 m 4.07289,-5.06643 c -6.50335,-0.30828 -14.65122,0.32254 -23.93478,0.97078 -9.2882,0.64856 -12.89339,0.0965 -18.69218,0.29531 -5.7988,0.19878 -12.39783,0.5502 -17.19454,1.62422 -4.7967,1.07403 -13.38466,-1.65227 -20.14765,-4.93594 -6.763,-3.28366 -14.7109,1.36006 -24.13438,4.0711 -0.005,0.001 -0.009,0.003 -0.0141,0.004 m 0.50981,-3.75939 c -7.04201,-0.42766 -13.26987,0.18257 -19.84177,0.52798 -6.57519,0.34559 -12.01996,0.61918 -16.03437,1.87735 0,0 -1e-5,0 -1e-5,0 -4.01441,1.25817 -15.02941,-0.47018 -25.08359,-1.39219 -10.05418,-0.92201 -12.99618,1.10517 -18.9875,3.33281 -5.94413,2.2101 -12.3681,-0.38404 -17.30919,-1.24544 0.0133,-0.0593 0.0267,-0.11857 0.0401,-0.17768 8.6e-4,-0.004 0.002,-0.008 0.003,-0.0113 m -3.77742,-4.28057 c 0.61817,-6.52945 0.96607,-12.69785 2.91001,-18.09176 1.94491,-5.39662 -0.64469,-12.53592 -1.94062,-17.61641 -1.29593,-5.08049 -0.36064,-14.31616 -1.07579,-22.97422 -0.71514,-8.65805 1.64496,-13.68342 4.91485,-21.05469 0,0 0,0 0,0 3.26988,-7.37127 -1.54659,-13.08667 -4.61953,-19.26172 -0.002,-0.003 -0.003,-0.006 -0.005,-0.009 m 4.26681,2.93175 c 0.84186,-6.36196 0.22001,-13.54356 0.65264,-20.66545 0.43285,-7.12546 -0.37716,-13.09146 -1.13906,-19.28281 0,0 0,0 0,-10e-6 -0.76191,-6.19135 0.18949,-13.53498 0.59062,-20.59062 0.40114,-7.05564 -0.333,-12.74798 -0.9914,-18.27031 0,-10e-6 0,-10e-6 0,-10e-6 -0.65841,-5.52233 -0.92981,-13.22969 -2.76328,-19.68359 -9.2e-4,-0.003 -0.002,-0.006 -0.003,-0.01 m 0.99542,2.31965 c 0.84235,-6.89527 0.71339,-13.80557 2.1292,-21.44512 1.41652,-7.64338 -0.52397,-14.2846 -1.56094,-22.86875 -1.03697,-8.58416 1.09491,-12.73202 3.31172,-18.18594 2.21681,-5.45392 -0.0919,-13.04119 -0.25312,-19.13516 0,0 0,0 0,0 -0.16123,-6.09397 -0.63042,-13.04836 -1.87735,-19.15625 -6.2e-4,-0.003 -0.001,-0.006 -0.002,-0.009 m -1.89711,0.50543 c -0.35711,-6.64924 0.59329,-13.25997 1.75132,-19.80017 1.15861,-6.54348 -1.24348,-15.06366 -3.7125,-25.16797 -2.46903,-10.10432 0.87806,-12.31612 2.65781,-16.94141 1.77975,-4.62528 0.26656,-14.08673 0.82266,-22.25703 0.5561,-8.1703 -0.37273,-12.82842 -1.13907,-18.46016 -3.8e-4,-0.003 -7.6e-4,-0.006 -0.001,-0.008 m 3.08056,1.4333 c -0.18247,-6.34698 -0.11256,-12.58867 -0.35832,-17.75453 -0.14355,-3.01742 -0.34896,-7.17631 -0.76405,-11.58589 2.47866,-0.3689 4.85076,-0.8652 7.06275,-1.1662 5.3149,-0.72323 12.72871,-0.0437 18.20702,-0.10547 10e-6,0 10e-6,0 10e-6,0 5.47831,-0.0617 12.9857,-0.5054 18.94531,-1.49765 0,0 0,0 0,0 5.95961,-0.99225 14.08744,0.33574 22.27812,0.9914 0.004,3.3e-4 0.008,6.6e-4 0.0123,9.9e-4 m 35.71457,429.95547 -8.04296,0 m -97.16775,-338.41057 0,-7.17578 m 0,151.05296 0,-7.45704 m 246.78505,-229.84337 9.50781,0 m 70.7285,431.8338 -8.47657,0"
       style="fill:#d40000;fill-opacity:0;stroke:#000000;stroke-width:1.07929373;stroke-miterlimit:4;stroke-opacity:1;stroke-dasharray:25.90304902, 25.90304902;stroke-dashoffset:0"
       inkscape:connector-curvature="0" />
    <path
       inkscape:original-d="M 232.49751,844.98051 17.61338,1024.8999"
       inkscape:path-effect="#path-effect3778"
       sodipodi:nodetypes="cc"
       inkscape:connector-curvature="0"
       id="path3776"
       d="m 233.62504,847.90928 c -14.80283,12.43449 -30.83218,25.67991 -46.51664,38.49798 -0.003,0.002 -0.005,0.004 -0.008,0.006 m 0.88321,-3.47434 c -14.87321,12.57027 -31.22156,25.54465 -47.6416,38.13229 -0.003,0.002 -0.005,0.004 -0.008,0.006 m -0.37653,1.71283 c -14.78397,13.24014 -30.44869,25.89146 -45.321339,39.15852 -0.0025,0.002 -0.005,0.004 -0.0074,0.007 m 2.780751,-0.85779 c -15.870868,13.3106 -31.364002,26.49585 -48.077046,40.9585 -0.0028,0 -0.0056,0 -0.0084,0.01 m -3.519017,-4.76564 c -10.52529,8.61854 -20.456764,17.15644 -30.118979,25.61464 M 233.24756,843.80786 c -15.08866,12.72041 -31.19294,26.32203 -47.59932,40.46659 -0.003,0.002 -0.005,0.005 -0.008,0.007 m 1.98779,0.81287 c -15.83324,13.3102 -30.86003,25.30372 -46.57238,37.37254 -0.003,0.002 -0.005,0.004 -0.008,0.006 m 1.36689,0.23094 c -14.74188,13.01054 -30.64598,25.5885 -45.968233,38.2305 -0.0026,0.002 -0.0051,0.004 -0.0077,0.006 m -4.171651,-3.40291 C 77.3938,970.5905 61.28669,983.09223 45.300327,995.68393 c -0.0027,0.002 -0.0053,0.004 -0.008,0.006 m 4.010253,1.26214 C 38.70475,1005.9609 28.292138,1014.8838 17.653444,1024.2463 M 231.30919,844.27494 c -15.26193,12.50942 -31.13712,25.6541 -47.38829,38.46982 -0.003,0.002 -0.005,0.004 -0.008,0.006 m 1.95347,-0.0514 c -15.55675,13.07153 -30.42088,25.88959 -45.27876,39.14453 -0.002,0.002 -0.005,0.004 -0.007,0.007 m -0.24788,1.5515 c -15.29448,13.1232 -30.45125,26.32378 -45.335142,40.46639 -0.0025,0.002 -0.005,0.005 -0.0074,0.007 m -0.491897,-3.13275 c -15.866175,12.69683 -31.332208,25.86712 -48.020798,39.10253 -0.0028,0.002 -0.0056,0.004 -0.0083,0.007 m 1.612477,-0.94948 C 37.898188,1007.4238 27.527863,1015.8871 17.11387,1024.1582 M 231.71523,844.03809 c -15.6785,12.24724 -30.34892,25.95479 -45.02558,39.32777 -0.002,0.002 -0.005,0.004 -0.007,0.007 m -2.69311,-2.70428 c -14.95254,12.6269 -30.33967,26.79794 -45.01188,41.88695 -0.002,0.003 -0.005,0.005 -0.007,0.008 m 1.84828,-2.929 c -14.9808,13.35278 -30.79185,26.55711 -46.404054,41.18347 -0.0026,0.002 -0.0052,0.005 -0.0078,0.007 m 1.955438,-0.66012 c -15.673871,13.14169 -30.506244,25.60275 -45.531831,38.31482 -0.0025,0.002 -0.005,0.004 -0.0075,0.006 m -2.145688,3.5439 c -10.588352,8.7694 -20.89547,17.2733 -31.326241,25.7106 M 230.86852,845.39632 c -15.33656,13.07588 -30.22944,24.88355 -44.68825,36.1211 -0.002,0.002 -0.005,0.004 -0.007,0.006 m 0.83405,2.83357 c -15.11181,12.76719 -30.43696,26.16179 -45.30711,39.94626 -0.002,0.002 -0.005,0.005 -0.007,0.007 m 2.00452,-2.47151 c -15.20558,12.94035 -30.71404,25.78243 -46.122688,38.83523 -0.0026,0.002 -0.0051,0.004 -0.0077,0.007 m -6.222826,0.32037 c -15.748816,13.15546 -30.526365,24.75785 -45.573982,35.76949 -0.0025,0.002 -0.005,0.004 -0.0075,0.006 m 2.31262,0.20878 c -9.93765,8.68155 -20.376274,17.57755 -30.850991,26.78745 m 77.561939,-63.48714 -4.933421,4.13068 m -57.447482,48.09996 -4.401502,3.6853 m 24.633147,-20.62497 -4.574017,3.82975 m 152.096424,-127.34814 -5.83193,4.88299 m -68.35077,57.22911 -5.19938,4.35337"
       style="fill:none;stroke:#000000;stroke-width:1;stroke-linecap:butt;stroke-linejoin:miter;stroke-miterlimit:4;stroke-opacity:1;stroke-dasharray:24, 24;stroke-dashoffset:0" />
    <rect
       style="opacity:0.97000002;fill:#ffffff;fill-opacity:1;stroke:none"
       id="rect3783"
       width="22.667465"
       height="49.722179"
       x="231.94537"
       y="791.69464" />
    <path
       style="fill:none;stroke:#000000;stroke-width:1;stroke-linecap:butt;stroke-linejoin:miter;stroke-miterlimit:4;stroke-opacity:1;stroke-dasharray:24, 24;stroke-dashoffset:0"
       d="m 20.505686,403.35165 c 16.031789,12.22797 30.83706,25.26687 45.98722,37.87842 0.0025,0.002 0.0051,0.004 0.0076,0.006 m 0.883219,-3.47434 c 15.961405,12.36375 30.44768,25.13161 44.862259,37.51273 0.002,0.002 0.005,0.004 0.007,0.006 m -0.37652,1.71283 c 16.05065,13.03362 31.22055,25.47842 47.18252,38.53895 0.003,0.002 0.005,0.004 0.008,0.007 m 2.78075,-0.85779 c 14.96376,13.10408 30.30524,26.0828 44.42682,40.33892 0.002,0.002 0.005,0.005 0.007,0.007 m -3.51901,-4.76566 c 9.79098,8.16504 20.1326,16.25548 30.73493,24.27179 M 20.128199,399.25023 c 15.74597,12.51388 30.476302,25.90898 44.904551,39.84702 0.0024,0.002 0.0048,0.005 0.0072,0.007 m 1.987786,0.81287 c 15.001389,13.10368 30.809215,24.89068 45.931489,36.75298 0.003,0.002 0.005,0.004 0.008,0.006 m 1.36689,0.23094 c 16.09274,12.80403 31.02326,25.17546 46.53563,37.61095 0.003,0.002 0.005,0.004 0.008,0.006 m -4.17166,-3.40291 c 15.96149,12.84616 30.689,25.14137 45.53726,37.52654 0.002,0.002 0.005,0.004 0.007,0.006 m 4.01025,1.26213 c 9.72113,8.54058 19.61389,17.00187 29.31129,25.85258 M 18.189831,399.71731 c 15.572696,12.3029 30.532122,25.24106 45.115575,37.85026 0.0024,0.002 0.0049,0.004 0.0073,0.006 m 1.953472,-0.0514 c 15.277867,12.86501 31.248357,25.47655 47.225099,38.52497 0.003,0.002 0.005,0.004 0.008,0.007 m -0.24788,1.5515 c 15.54014,12.91667 31.21799,25.91073 47.16872,39.84682 0.003,0.002 0.005,0.005 0.008,0.007 m -0.4919,-3.13275 c 14.96844,12.49031 30.33703,25.45408 44.48306,38.48297 0.002,0.002 0.005,0.004 0.007,0.007 m 1.61247,-0.94949 c 10.12072,8.07116 20.06763,16.08897 29.96909,23.93301 M 18.595873,399.48046 c 15.156118,12.04072 31.320327,25.54175 47.478283,38.7082 0.0027,0.002 0.0054,0.004 0.0081,0.007 m -2.693107,-2.70428 c 15.882079,12.42037 31.329573,26.38489 47.491981,41.26738 0.003,0.002 0.005,0.005 0.008,0.007 m 1.84829,-2.92899 c 15.85382,13.14625 30.87739,26.14406 46.09981,40.5639 0.003,0.002 0.005,0.005 0.008,0.007 m 1.95544,-0.66012 c 15.16075,12.93517 31.16299,25.18971 46.97203,37.69526 0.003,0.002 0.005,0.004 0.008,0.006 m -2.14569,3.54393 c 9.73026,8.31032 19.72128,16.37466 29.61158,24.37026 M 17.749169,400.83869 c 15.49806,12.86936 31.4398,24.4705 47.815612,35.50153 0.0027,0.002 0.0055,0.004 0.0082,0.006 m 0.834049,2.83358 c 15.722803,12.56067 31.232275,25.74874 47.196751,39.32669 0.003,0.002 0.005,0.005 0.008,0.007 m 2.00452,-2.47152 c 15.62904,12.73384 30.9552,25.3694 46.38117,38.21567 0.003,0.002 0.005,0.004 0.008,0.006 m -6.22283,0.32037 c 15.08581,12.94894 31.14288,24.3448 46.92988,35.14993 0.003,0.002 0.005,0.004 0.008,0.005 m 2.31262,0.20878 c 10.3568,8.22575 20.24933,16.65008 30.09221,25.36222 m -77.25926,-62.05419 4.98831,4.06423 m 57.7516,47.05318 4.45048,3.62603 m -24.79855,-20.20465 4.6249,3.76815 M 51.886102,426.90889 l 5.896815,4.80444 m 68.712813,55.98384 5.25722,4.28333"
       id="path3796-8"
       inkscape:connector-curvature="0"
       sodipodi:nodetypes="cc"
       inkscape:path-effect="#path-effect3774-2"
       inkscape:original-d="M 19.378,400.42288 235.49387,576.50353" />
    <path
       style="fill:#ffffff;fill-opacity:1;stroke:#000000;stroke-width:1.50600004;stroke-linecap:butt;stroke-miterlimit:4;stroke-opacity:1;stroke-dasharray:none;stroke-dashoffset:0"
       d="m 231.85895,589.34789 c 9.25147,-0.36783 17.76776,-0.24553 26.16655,-0.12828 -0.19221,-4.50077 -0.41622,-9.00291 -0.58506,-13.57614 -1.2e-4,-0.003 -2.5e-4,-0.007 -3.7e-4,-0.01 m 1.25085,6.67163 c 0.63683,-13.70073 -0.78063,-26.84275 -2.28564,-40.51707 -3.7e-4,-0.003 -7.5e-4,-0.007 -0.001,-0.0103 m -0.56392,13.09052 c 0.62854,-10.54903 0.4182,-21.65524 0.68928,-32.37754 -2.26183,0.0608 -4.50232,0.13866 -6.70911,0.24232 -0.003,1.5e-4 -0.006,3e-4 -0.01,4.5e-4 m 10.86962,2.2786 c -0.0644,-1.09145 -0.12503,-2.18416 -0.18317,-3.27689 -9.72119,0.44588 -19.28335,0.8902 -29.42402,1.98043 -0.28115,3.27445 -0.62027,6.61365 -1.04079,10.03813 -4.8e-4,0.004 -9.6e-4,0.008 -0.001,0.0117 m -2.30464,-15.50194 c -0.91689,4.3e-4 -1.82571,-2.4e-4 -2.72691,-0.002 -0.2342,12.42066 1.04119,24.62509 2.61268,36.61568 4.2e-4,0.003 8.4e-4,0.006 0.001,0.01 m 0.0342,-5.61163 c 0.44598,12.00185 1.14161,24.7015 3.20565,37.21358 1.15694,0.0139 2.3227,0.0266 3.49788,0.0376 0.004,4e-5 0.008,7e-5 0.0119,1.1e-4 m -1.04324,-0.61907 c 7.81386,0.46143 16.08991,0.60546 24.60092,0.94536 0.33044,-5.09143 0.76432,-10.09662 1.23527,-14.86561 3e-4,-0.003 5.9e-4,-0.006 8.9e-4,-0.009 m 0.15827,7.57368 c 0.74737,-12.68013 -0.77539,-27.35959 -2.38338,-42.1194 -4e-4,-0.004 -8e-4,-0.007 -0.001,-0.0111 m -4.83192,6.92931 c 0.44734,-9.33842 0.57519,-18.0257 1.06335,-25.88177 -3.67992,0.65437 -7.29909,1.44891 -10.81042,2.39607 -0.003,8.2e-4 -0.006,0.002 -0.009,0.002 m 12.16913,0.98142 c -9.08442,0.23807 -17.67442,0.0441 -26.04881,-0.25472 0.25202,4.30332 0.55831,8.58024 0.88366,12.87205 2.4e-4,0.003 4.9e-4,0.006 7.3e-4,0.01 m -3.40719,-13.68522 c -0.27927,13.79843 0.66331,27.18236 2.01193,41.53262 3.4e-4,0.004 6.7e-4,0.007 0.001,0.0108 m 1.03077,-14.00343 c -0.28212,11.61919 -0.39611,22.51267 -0.93258,33.71543 2.10818,0.0175 4.19958,0.0473 6.26953,0.0976 0.003,7e-5 0.006,1.5e-4 0.009,2.2e-4 m -6.97791,5.39442 c 8.68684,0.0966 17.70123,-0.11945 27.13234,-0.52262 0.43794,-4.92214 0.99967,-9.89986 1.69963,-14.9128 4.9e-4,-0.004 9.9e-4,-0.007 0.001,-0.0107 m 0.59441,10.92104 c -0.26032,-13.2383 -0.45023,-25.33615 -1.367,-36.00569 -2.2e-4,-0.003 -4.5e-4,-0.005 -6.8e-4,-0.008 m -0.26686,2.93489 c -0.40219,-11.83197 0.1703,-22.24216 0.90431,-32.69767 -2.03924,0.13543 -4.07229,0.26911 -6.10524,0.39004 -0.003,1.9e-4 -0.006,3.7e-4 -0.009,5.6e-4 m 4.84694,3.80512 c 0.0352,-0.90974 0.0677,-1.80992 0.0979,-2.7008 -8.93811,-0.007 -18.11654,0.99141 -26.99895,2.70463 0.12753,3.77724 0.29019,7.63934 0.50988,11.57449 2.3e-4,0.004 4.6e-4,0.008 6.9e-4,0.0123 m 2.55412,-15.93252 c -0.71672,0.0399 -1.43701,0.0792 -2.16062,0.11826 0.34364,13.24614 -0.26506,26.41301 -0.63794,41.35035 -1e-4,0.004 -1.9e-4,0.008 -2.9e-4,0.0119 m 0.27494,-10.45311 c -0.44662,12.94282 0.14343,25.04491 0.56753,37.395 0.81142,-0.0122 1.62219,-0.0234 2.43202,-0.0334 0.003,-4e-5 0.007,-8e-5 0.0103,-1.2e-4 m -2.61108,-64.40138 z m 0,53.33686 z m 0,-17.29844 z m 27.75792,25.59561 z m -1.44154,-61.98607 z"
       id="rect4721-6"
       inkscape:path-effect="#path-effect3781-7"
       inkscape:original-d="m 228.8208,585.22643 27.75792,0 0,-64.50042 -27.75792,0 z"
       inkscape:connector-curvature="0"
       sodipodi:nodetypes="ccccc" />
    <path
       inkscape:original-d="M 231.878,522.8249 16.99387,342.90555"
       inkscape:path-effect="#path-effect3778-4"
       sodipodi:nodetypes="cc"
       inkscape:connector-curvature="0"
       id="path3776-9"
       d="m 233.00553,525.75354 c -14.80283,-13.24007 -30.83218,-25.66921 -46.51664,-38.5257 -0.003,-0.002 -0.005,-0.004 -0.008,-0.006 m 0.88322,-3.47434 c -14.87322,-13.10429 -31.22156,-25.80447 -47.64161,-38.89139 -0.003,-0.002 -0.005,-0.004 -0.008,-0.007 m -0.37653,1.71283 c -14.78397,-12.43442 -30.44869,-25.45766 -45.321342,-37.86517 -0.0025,-0.002 -0.005,-0.004 -0.0074,-0.006 m 2.780751,-0.85779 c -15.870869,-12.36396 -31.364005,-24.85328 -48.07705,-36.0652 -0.0028,-0.002 -0.0056,-0.004 -0.0084,-0.006 m -3.519017,-4.76565 C 34.660173,358.38405 24.728704,349.69122 15.066493,340.91853 M 232.62805,521.65212 c -15.08866,-12.95415 -31.19295,-25.02709 -47.59932,-36.55709 -0.003,-0.002 -0.005,-0.004 -0.008,-0.006 m 1.98779,0.81287 c -15.83323,-12.36436 -30.86003,-26.0454 -46.57238,-39.65114 -0.003,-0.002 -0.005,-0.005 -0.008,-0.007 m 1.36689,0.23093 c -14.74188,-12.66401 -30.64598,-25.76061 -45.968236,-38.79317 -0.0026,-0.002 -0.0051,-0.004 -0.0077,-0.007 m -4.17165,-3.40292 C 76.774276,391.65064 60.667165,378.4778 44.6808,365.39494 c -0.0027,-0.002 -0.0053,-0.004 -0.008,-0.007 m 4.010254,1.26213 C 38.085229,358.42827 27.672623,350.12037 17.033934,342.25211 M 230.68968,522.1192 c -15.26193,-13.16513 -31.13713,-25.69502 -47.38829,-38.55386 -0.003,-0.002 -0.005,-0.004 -0.008,-0.006 m 1.95347,-0.0514 c -15.55675,-12.60303 -30.42089,-25.45953 -45.27877,-37.87915 -0.002,-0.002 -0.005,-0.004 -0.007,-0.006 m -0.24787,1.5515 c -15.29449,-12.55137 -30.45126,-25.02534 -45.335154,-36.5573 -0.0025,-0.002 -0.005,-0.004 -0.0074,-0.006 m -0.491897,-3.13276 c -15.866176,-12.97772 -31.332211,-25.482 -48.020802,-37.92114 -0.0028,-0.002 -0.0056,-0.004 -0.0083,-0.006 m 1.612477,-0.94949 C 37.278666,359.89117 26.908348,351.1237 16.49436,342.16393 m 214.60136,179.71842 c -15.67851,-13.42732 -30.34892,-25.39433 -45.02558,-37.69592 -0.002,-0.002 -0.005,-0.004 -0.007,-0.006 m -2.69311,-2.70428 c -14.95254,-13.04766 -30.33967,-24.55118 -45.01189,-35.13673 -0.002,-0.002 -0.005,-0.004 -0.007,-0.005 m 1.84828,-2.929 c -14.9808,-12.32179 -30.79185,-24.79201 -46.404057,-35.84022 -0.0026,-0.002 -0.0052,-0.004 -0.0078,-0.006 m 1.955438,-0.66012 C 80.068451,394.36625 65.236077,381.15275 50.210488,368.19025 c -0.0025,-0.002 -0.005,-0.004 -0.0075,-0.006 m -2.145689,3.54393 C 37.468939,363.26629 27.161827,354.5394 16.731061,345.74591 M 230.24901,523.24058 C 214.91245,510.6419 200.01957,496.77501 185.56076,482.338 c -0.002,-0.002 -0.005,-0.005 -0.007,-0.007 m 0.83405,2.83358 c -15.11182,-12.90738 -30.43697,-25.18734 -45.30712,-37.07743 -0.002,-0.002 -0.005,-0.004 -0.007,-0.006 m 2.00452,-2.47152 c -15.20558,-12.7342 -30.71404,-25.56668 -46.122691,-38.18845 -0.0026,-0.002 -0.0051,-0.004 -0.0077,-0.006 m -6.222827,0.32036 C 74.9755,395.21596 60.19795,381.14379 45.150331,366.48088 c -0.0025,-0.002 -0.005,-0.005 -0.0075,-0.007 m 2.312621,0.20877 C 37.517782,358.13308 27.079164,349.79824 16.604453,341.77734 m 77.561939,65.74364 -4.933422,-4.13068 m -57.447481,-48.09994 -4.401504,-3.68532 m 24.633148,20.62498 -4.574017,-3.82976 m 152.096424,127.34812 -5.83193,-4.88299 m -68.35077,-57.2291 -5.19938,-4.35337"
       style="fill:none;stroke:#000000;stroke-width:1;stroke-linecap:butt;stroke-linejoin:miter;stroke-miterlimit:4;stroke-opacity:1;stroke-dasharray:24, 24;stroke-dashoffset:0" />
    <rect
       style="opacity:0.97000002;fill:#ffffff;fill-opacity:1;stroke:none"
       id="rect3783-8"
       width="22.667465"
       height="49.722179"
       x="231.32587"
       y="-576.11078"
       transform="scale(1,-1)" />
    <path
       inkscape:original-d="M 31.99751,693.38253 236.11338,662.30188"
       inkscape:path-effect="#path-effect3060"
       sodipodi:nodetypes="cc"
       inkscape:connector-curvature="0"
       id="path3052"
       d="m 33.125217,696.31122 c 20.29799,-3.41298 39.369462,-6.01503 58.785823,-9.04443 0.0032,-5e-4 0.0065,-0.001 0.0097,-0.002 m 0.883219,-3.47434 c 20.227602,-3.2772 38.980082,-6.15029 57.660862,-9.41012 0.003,-5.4e-4 0.006,-0.001 0.009,-0.002 m -0.37653,1.71283 c 20.31685,-2.60733 39.75295,-5.80348 59.98113,-8.3839 0.003,-4.3e-4 0.007,-8.6e-4 0.0101,-0.001 m 2.78075,-0.85779 c 8.48453,-1.1193 17.04105,-2.26162 25.53437,-3.30831 M 32.62488,690.99411 c 19.623239,-3.25835 38.429886,-5.80917 56.001785,-8.39763 0.0029,-4.3e-4 0.0059,-8.6e-4 0.0088,-0.001 m 3.428564,0.58254 c 20.012174,-3.12706 39.008704,-5.37291 57.703154,-7.07582 0.003,-2.8e-4 0.006,-5.7e-4 0.009,-8.5e-4 m 1.98778,0.81287 c 19.26759,-2.53727 39.34162,-6.39122 58.73009,-10.16987 0.003,-6.3e-4 0.006,-0.001 0.01,-0.002 m 1.36689,0.23094 c 8.98265,-1.25169 17.74126,-2.58566 26.42271,-3.96182 M 29.918988,691.45377 c 20.340186,-2.69651 39.498076,-6.37331 59.165489,-10.09948 0.0033,-6.2e-4 0.0066,-0.001 0.0098,-0.002 m 2.308572,4.13065 c 19.623686,-3.3665 39.773856,-7.08892 60.037726,-12.26476 0.003,-8.6e-4 0.007,-0.002 0.0101,-0.003 m -2.00881,1.39701 c 19.8389,-3.33804 39.06453,-6.04084 57.91418,-9.07258 0.003,-5.1e-4 0.006,-0.001 0.009,-0.002 m 1.95347,-0.0514 c 8.62312,-1.22479 17.38203,-2.49789 26.21651,-3.76138 M 32.781862,694.43039 c 19.525148,-2.57458 39.224179,-5.90329 58.364334,-8.69328 0.0032,-4.7e-4 0.0064,-9.3e-4 0.0096,-0.001 m -1.95356,-0.22115 c 19.834602,-2.90257 40.236712,-6.34163 61.429802,-9.98687 0.004,-6e-4 0.007,-0.001 0.0106,-0.002 m 0.57029,-3.22699 c 19.58135,-2.9443 39.21211,-5.06619 58.32212,-6.16185 0.003,-1.8e-4 0.006,-3.6e-4 0.01,-5.5e-4 m -0.38031,-0.79266 c 8.5694,-1.58847 17.33293,-2.8907 26.20626,-4.06345 M 29.45075,693.80038 c 19.801592,-3.22131 39.557976,-7.10696 59.348571,-12.2789 0.0033,-8.6e-4 0.0066,-0.002 0.0099,-0.003 m 2.270423,3.47139 c 20.012409,-3.01052 39.730899,-7.01994 59.868779,-12.054 0.003,-8.4e-4 0.007,-0.002 0.0101,-0.003 m 2.44736,1.15569 c 19.5392,-3.02882 39.23191,-5.72926 58.40651,-8.17274 0.003,-4.1e-4 0.006,-8.2e-4 0.01,-0.001 m -2.11705,2.74161 c 8.57763,-1.58642 17.30796,-2.90392 26.11079,-4.10566 m -73.84499,9.04011 6.36105,-0.9686 m 52.98411,-8.06787 5.67521,-0.86416 m -24.92229,3.79491 5.89765,-0.89803 m -146.240948,22.26805 7.519575,-1.145 m 63.053053,-9.60107 6.70398,-1.02081"
       style="fill:none;stroke:#000000;stroke-width:1;stroke-linecap:butt;stroke-linejoin:miter;stroke-miterlimit:4;stroke-opacity:1;stroke-dasharray:24, 24;stroke-dashoffset:0" />
    <path
       sodipodi:nodetypes="ccccc"
       inkscape:connector-curvature="0"
       inkscape:original-d="m 229.44031,653.57898 27.75792,0 0,64.50042 -27.75792,0 z"
       inkscape:path-effect="#path-effect3062"
       id="path3054"
       d="m 232.47846,657.70044 c 9.25147,-0.36783 17.76776,-0.24553 26.16655,-0.12828 -0.19221,4.62277 -0.41622,9.24417 -0.58506,13.79447 -1.2e-4,0.003 -2.5e-4,0.007 -3.7e-4,0.01 m 1.25085,-16.51275 c 0.63683,12.95928 -0.78063,26.47725 -2.28564,39.46294 -3.7e-4,0.003 -7.5e-4,0.006 -0.001,0.01 m -0.56392,-8.18136 c 0.62854,11.47313 0.4182,22.38908 0.68928,33.68894 -2.26183,0.0608 -4.50232,0.13866 -6.70911,0.24232 -0.003,1.5e-4 -0.006,3e-4 -0.01,4.5e-4 m 10.86962,-4.60976 c -0.0644,1.20467 -0.12503,2.40808 -0.18317,3.61147 -9.72119,0.44588 -19.28335,0.8902 -29.42402,1.98043 -0.28115,-2.58415 -0.62027,-5.10356 -1.04079,-7.53768 -4.8e-4,-0.003 -9.6e-4,-0.006 -0.001,-0.008 m -2.30464,2.09387 c -0.91689,4.3e-4 -1.82571,-2.4e-4 -2.72691,-0.002 -0.2342,-12.47024 1.04119,-25.1567 2.61268,-38.057 4.2e-4,-0.003 8.4e-4,-0.007 0.001,-0.0104 m 0.0343,14.11337 c 0.44598,-12.67587 1.14161,-24.65394 3.20565,-36.81958 1.15694,0.0139 2.3227,0.0266 3.49788,0.0376 0.004,4e-5 0.008,7e-5 0.0119,1.1e-4 m -1.04324,-0.61907 c 7.81386,0.46143 16.08991,0.60546 24.60092,0.94536 0.33044,5.54252 0.76432,11.17129 1.23527,17.03625 3e-4,0.004 5.9e-4,0.007 8.9e-4,0.011 m 0.15827,-11.92632 c 0.74737,13.97987 -0.77539,25.96041 -2.38338,37.8606 -4e-4,0.003 -8e-4,0.006 -0.001,0.009 m -4.83192,-13.18944 c 0.44734,9.56082 0.57519,19.77278 1.06335,30.81596 -3.67992,0.65437 -7.29909,1.44891 -10.81042,2.39607 -0.003,8.2e-4 -0.006,0.002 -0.009,0.002 m 12.16913,0.98142 c -9.08442,0.23807 -17.67442,0.0441 -26.04881,-0.25472 0.25202,-4.60319 0.55831,-9.2328 0.88366,-13.84751 2.4e-4,-0.003 4.9e-4,-0.007 7.3e-4,-0.0104 m -3.40719,8.00853 c -0.27927,-12.86158 0.66331,-26.13764 2.01193,-38.44739 3.4e-4,-0.003 6.7e-4,-0.006 0.001,-0.009 m 1.03077,8.73094 c -0.28212,-10.61061 -0.39611,-21.94693 -0.93258,-32.97398 2.10818,0.0175 4.19958,0.0473 6.26953,0.0976 0.003,7e-5 0.006,1.5e-4 0.009,2.2e-4 m -6.97791,5.39442 c 8.68684,0.0967 17.70123,-0.11945 27.13234,-0.52262 0.43794,4.48265 0.99967,8.90972 1.69963,13.30156 4.9e-4,0.003 9.9e-4,0.006 0.001,0.009 m 0.59441,-12.65708 c -0.26032,13.42169 -0.45023,27.98384 -1.36699,43.97431 -2.3e-4,0.004 -4.6e-4,0.008 -6.9e-4,0.012 m -0.26686,-19.60261 c -0.40219,10.46207 0.1703,22.34591 0.90431,34.18444 -2.03924,0.13543 -4.07229,0.26911 -6.10524,0.39004 -0.003,1.9e-4 -0.006,3.7e-4 -0.009,5.6e-4 m 4.84694,-1.53636 c 0.0352,0.87076 0.0677,1.75107 0.0979,2.64068 -8.93811,-0.007 -18.11654,0.99141 -26.99895,2.70463 0.12753,-2.59699 0.29019,-5.10911 0.50988,-7.54819 2.3e-4,-0.003 4.6e-4,-0.005 6.9e-4,-0.008 m 2.55412,3.21016 c -0.71672,0.04 -1.43701,0.0792 -2.16062,0.11826 0.34364,-11.926 -0.26506,-23.93128 -0.63794,-34.16608 -1e-4,-0.003 -1.9e-4,-0.005 -2.9e-4,-0.008 m 0.27494,11.35314 c -0.44662,-12.1474 0.14343,-25.13553 0.56753,-37.87566 0.81142,-0.0122 1.62219,-0.0234 2.43202,-0.0334 0.003,-4e-5 0.007,-8e-5 0.0103,-1.2e-4 m -2.61108,63.89538 z m 0,-53.33686 z m 0,17.29844 z m 27.75792,-25.59561 z m -1.44154,61.98607 z"
       style="fill:#ffffff;fill-opacity:1;stroke:#000000;stroke-width:1.50600004;stroke-linecap:butt;stroke-miterlimit:4;stroke-opacity:1;stroke-dasharray:none;stroke-dashoffset:0" />
    <path
       style="fill:none;stroke:#000000;stroke-width:1;stroke-linecap:butt;stroke-linejoin:miter;stroke-miterlimit:4;stroke-opacity:1;stroke-dasharray:24, 24;stroke-dashoffset:0"
       d="m 233.62502,718.90923 c -19.31547,2.05813 -39.85746,4.92719 -60.05456,7.36889 -0.003,4.1e-4 -0.007,8.2e-4 -0.0101,0.001 m 0.88322,-3.47434 c -19.38586,2.19391 -40.24684,4.79193 -61.17953,7.0032 -0.003,3.7e-4 -0.007,7.4e-4 -0.0105,0.001 m -0.37653,1.71283 c -19.296608,2.86378 -39.473968,5.13873 -58.859256,8.02943 -0.0032,4.8e-4 -0.0065,9.6e-4 -0.0097,0.001 m 2.780751,-0.85779 c -4.879737,0.70245 -9.738962,1.39873 -14.598778,2.10736 M 233.12468,713.59212 c -19.99022,2.21276 -40.79703,5.13304 -62.83859,8.01569 -0.004,4.8e-4 -0.007,9.6e-4 -0.011,0.001 m 3.42857,0.58254 c -19.60129,2.34405 -40.21822,5.56931 -61.13723,9.33751 -0.003,6.3e-4 -0.007,0.001 -0.0105,0.002 m 1.98778,0.81287 c -20.345868,2.93383 -39.885301,4.551 -60.110291,6.24345 -0.0034,2.8e-4 -0.0067,5.7e-4 -0.01011,8.5e-4 m 1.366892,0.23094 c -4.609459,0.63061 -9.283892,1.23786 -14.000545,1.82752 M 230.41879,714.05177 c -19.27327,2.77461 -39.72885,4.56891 -59.67489,6.31385 -0.003,2.9e-4 -0.007,5.8e-4 -0.01,8.8e-4 m 2.30857,4.13064 c -19.98977,2.10461 -39.45307,3.8533 -58.80265,4.14856 -0.003,5e-5 -0.006,10e-5 -0.01,1.5e-4 m -2.00881,1.39701 c -19.774562,2.13306 -40.162395,4.90138 -60.926202,7.34074 -0.0035,4e-4 -0.0069,8.1e-4 -0.01038,0.001 m 1.953472,-0.0514 c -4.804537,0.64522 -9.56867,1.27666 -14.302325,1.90325 M 233.28166,717.0284 c -20.08831,2.89653 -40.00274,5.03892 -60.47604,7.72003 -0.003,4.5e-4 -0.007,9e-4 -0.0102,0.001 m -1.95356,-0.22115 c -19.77886,2.56853 -38.99021,4.60058 -57.41058,6.42645 -0.003,3e-4 -0.006,6.1e-4 -0.009,9.1e-4 m 0.57029,-3.22699 c -20.032115,2.5268 -40.014809,5.87603 -60.518266,10.25147 -0.0034,7.3e-4 -0.0068,0.001 -0.01025,0.002 M 53.083488,737.19 c -4.833686,0.44788 -9.611159,0.98091 -14.345214,1.5734 M 229.95055,716.39839 c -19.81187,2.24979 -39.66894,3.83525 -59.49181,4.13442 -0.003,5e-5 -0.007,10e-5 -0.01,1.5e-4 m 2.27042,3.47139 c -19.60105,2.46059 -39.49602,3.92228 -58.9716,4.35932 -0.003,7e-5 -0.006,1.5e-4 -0.01,2.2e-4 m 2.44736,1.15569 c -20.074263,2.44228 -39.995011,5.21296 -60.433872,8.24058 -0.0034,5e-4 -0.0068,0.001 -0.01022,0.002 m -2.117054,2.74161 c -4.829216,0.449 -9.614291,0.97758 -14.36745,1.56099 m 70.606817,-10.87602 -6.38547,0.79185 m -49.714342,6.16503 -5.696987,0.70648 m 23.891519,-2.96276 -5.920277,0.73416 m 138.588737,-17.18626 -7.54843,0.93607 m -59.16485,7.33698 -6.7297,0.83455"
       id="path3056"
       inkscape:connector-curvature="0"
       sodipodi:nodetypes="cc"
       inkscape:path-effect="#path-effect3064"
       inkscape:original-d="M 232.49751,715.98051 39.61338,739.8999" />
    <rect
       y="662.69464"
       x="231.94537"
       height="49.722179"
       width="22.667465"
       id="rect3058"
       style="opacity:0.97000002;fill:#ffffff;fill-opacity:1;stroke:none" />
    <path
       style="fill:none;stroke:#000000;stroke-width:1px;stroke-linecap:butt;stroke-linejoin:miter;stroke-opacity:1;marker-end:url(#Arrow1Mend)"
       d="m 455.84205,605.32463 c -0.87035,1.72578 -1.7677,3.50858 -2.55065,5.23668 -0.78294,1.7281 -1.45584,3.40513 -1.97256,4.99338 -0.54927,1.68829 -0.9246,3.27836 -1.12505,4.76428 m -0.62505,-8.42704 c -0.82668,2.88874 -0.66801,5.6141 0.0346,8.15675 0.58202,2.10618 1.5523,4.0963 2.75077,6.01546 m -4.46639,-0.61583 c 0.34962,1.47415 0.98503,2.85285 1.79678,4.15967 1.29575,2.08601 3.04608,3.98843 4.81753,5.80426 0.4199,0.43042 0.84085,0.85601 1.25688,1.27809 m 0.79247,-1.47049 c 0.33572,0.43076 0.66469,0.85716 0.98632,1.28068 1.84645,2.43132 3.45005,4.76642 4.71951,7.29443 1.26947,2.52802 2.1924,5.23963 2.74577,8.47843 0.0585,0.34256 0.11317,0.6912 0.16413,1.0465 m -4.69497,-9.28002 c 0.30178,1.26776 0.59587,2.63028 0.84961,4.09181 0.49443,2.84783 0.82157,6.10346 0.96149,9.61076 0.0241,0.60395 0.043,1.214 0.0568,1.827 m 0.28771,-0.31927 c -0.22405,0.73622 -0.45285,1.46132 -0.68546,2.17262 -1.14428,3.4991 -2.35358,6.65182 -3.60113,9.12692 m -2.46962,-1.7496 c -0.91742,1.41924 -1.81328,2.87946 -2.67928,4.37737 -1.75841,3.04148 -2.62216,5.7116 -3.10055,8.1053 m 4.09007,-4.16391 c -1.24688,2.58172 -2.4781,5.21435 -3.5072,7.74655 -0.98517,2.42412 -1.79275,4.76085 -2.39447,6.97797 m 1.137,-1.7713 c -0.38997,2.56923 -0.59698,4.65869 -0.56423,6.47725 0.0454,2.52235 0.5394,4.51477 1.32346,6.23324 0.46896,1.02787 1.03858,1.95413 1.66754,2.82432 m -1.45501,-5.72557 c 0.0901,0.29584 0.18739,0.58682 0.29134,0.87352 0.89633,2.47217 2.28343,4.62912 3.83688,6.79344 1.55345,2.16432 3.27367,4.33232 4.84481,6.83271 0.64616,1.02834 1.26732,2.11314 1.84335,3.28176 m -4.32501,-3.29599 c 0.42366,0.57862 0.81876,1.16014 1.1826,1.74859 1.36627,2.20971 2.29315,4.51922 2.62306,7.12777 0.25152,1.98864 0.14653,4.14875 -0.33078,6.56687 m -2.69217,-6.97149 c 0.31291,2.11971 0.22366,4.30262 -0.34872,6.55769 -0.37132,1.46289 -0.94721,2.95485 -1.72555,4.48179 -0.77835,1.52694 -1.76254,3.08715 -2.8888,4.71029 m 0.99641,-1.63684 c -0.42443,1.53381 -0.99604,3.23284 -1.6968,5.16832 m 2.56232,-141.37878 c -1.36389,2.20625 -2.42707,4.24664 -3.29493,6.21123 -0.86786,1.96459 -1.53754,3.84989 -2.06428,5.69359 -0.44711,1.56501 -0.79002,3.09875 -1.05196,4.61593 m 1.68172,-5.2546 c -0.6621,2.91997 -0.82102,5.71356 -0.58,8.29186 0.2274,2.43268 0.79586,4.69246 1.50812,6.82437 m -1.30314,-2.80626 c 0.46601,1.53492 1.142,2.97794 1.96433,4.37832 1.44079,2.45359 3.33428,4.77497 5.34472,7.22596 1.43065,1.74417 2.91919,3.55396 4.34096,5.52571 m -2.42326,-4.37817 c 1.54991,2.16769 2.9494,4.09744 4.04668,5.95495 1.20838,2.04558 2.04768,4.01712 2.32435,6.01912 0.10473,0.75786 0.1292,1.51777 0.0677,2.27697 m -1.54217,-5.07819 c 0.14259,0.72658 0.2573,1.47319 0.34097,2.2443 0.17537,1.61618 0.21389,3.3384 0.0914,5.22101 -0.12245,1.88261 -0.40637,3.92364 -0.86408,6.21498 -0.4874,2.43997 -1.17322,5.15826 -2.045,8.36502 m -0.2725,-8.84999 c -0.58146,1.81481 -1.27218,3.66665 -2.03272,5.54562 -0.76053,1.87897 -1.59227,3.78414 -2.40874,5.71038 -0.32208,0.75985 -0.58815,1.48821 -0.80387,2.19022 m -3.32613,0.39314 c -0.1444,0.26403 -0.29269,0.53124 -0.44467,0.80154 -1.2963,2.30554 -2.34887,4.51436 -3.08686,6.54646 -0.738,2.0321 -1.16812,3.89208 -1.3151,5.57675 -0.0676,0.77484 -0.076,1.51324 -0.0297,2.21709 m 1.5186,-2.8846 c -0.27302,0.71743 -0.525,1.41123 -0.75438,2.08216 -1.19539,3.49639 -1.74692,6.36766 -1.73307,8.79173 0.0126,2.20066 0.47445,4.0354 1.21294,5.61191 m -0.25375,-5.67096 c 0.0868,1.79495 0.6841,3.62778 1.56781,5.45308 1.09024,2.25187 2.62618,4.50753 4.27502,6.81564 1.47977,2.07144 3.05028,4.1855 4.47104,6.3739 m -5.13118,-3.17047 c 1.21991,1.67279 2.44196,3.23962 3.47349,4.79064 1.14218,1.71741 2.05074,3.43299 2.46448,5.13055 0.22807,0.93577 0.30576,1.86265 0.18979,2.7176 m -2.14638,-0.62771 c 0.0227,0.1765 0.0439,0.3549 0.0638,0.53526 0.2876,2.61297 0.26496,5.64069 -0.24834,9.23435 -0.39237,2.74703 -1.05655,5.83227 -2.1418,9.23331 m 3.06416,-10.86005 c -0.65265,2.91946 -1.85327,6.04681 -3.68451,9.79567 m 1.54639,-139.73135 c -2.70049,3.99121 -4.33209,7.74506 -5.32747,11.16615 -0.27412,0.94217 -0.49781,1.86079 -0.67687,2.75704 m 1.88941,-1.76613 c -0.0348,0.14399 -0.068,0.28776 -0.0996,0.43128 -0.67927,3.07945 -0.62661,6.00228 -0.008,8.66383 0.61791,2.65728 1.78954,5.07945 3.29694,7.31852 m -2.83363,-3.52239 c 0.37579,1.52548 0.9499,2.93055 1.63708,4.25882 1.18133,2.28342 2.6996,4.33748 4.1271,6.37835 0.4131,0.59061 0.81849,1.18022 1.20563,1.77426 m -3.46931,-1.94971 c 0.19534,0.29664 0.39267,0.58824 0.59143,0.87523 1.58381,2.28683 3.2581,4.28145 4.74388,6.20191 1.34605,1.73985 2.5322,3.42698 3.39912,5.13956 m -3.96146,-7.57754 c 0.42516,1.39107 0.77525,2.98565 0.98527,4.80758 0.35738,3.10018 0.31811,6.86743 -0.42566,11.47234 -0.25391,1.57207 -0.59099,3.2408 -1.03385,5.00029 m 2.34562,-1.60123 c -0.13977,0.53542 -0.28715,1.07197 -0.44219,1.61004 -0.61493,2.13404 -1.35056,4.28651 -2.20731,6.51751 -0.85674,2.231 -1.83231,4.53184 -2.94297,7.10066 -0.016,0.0371 -0.032,0.0742 -0.0479,0.11126 m 6.3739,-7.59385 c -0.57895,1.1132 -1.23245,2.25477 -1.96283,3.42933 -2.68689,4.3209 -4.76082,8.07653 -6.12956,11.47512 m -0.3159,-2.96811 c -0.82993,1.93856 -1.6511,3.82977 -2.37614,5.64725 -0.78688,1.97248 -1.4625,3.8584 -1.99408,5.65179 -0.53159,1.79338 -0.92122,3.49484 -1.179,5.11749 -0.17654,1.11122 -0.29202,2.18586 -0.35505,3.23113 m 0.0797,-9.52774 c -0.0922,0.77757 -0.12521,1.53405 -0.1083,2.27023 0.0621,2.70353 0.78794,5.12592 1.83298,7.39936 1.04504,2.27343 2.41623,4.40375 3.8038,6.55417 0.35183,0.54525 0.70468,1.09177 1.05348,1.6422 m 0.32821,-6.60222 c 0.7541,1.02145 1.49239,2.04331 2.1966,3.09093 1.43808,2.13935 2.73369,4.3844 3.73096,6.95973 0.9234,2.38457 1.58818,5.04368 1.87888,8.23684 m -6.88368,0.53348 c 0.60415,1.65327 1.12946,3.37464 1.49703,5.23542 0.53602,2.71361 0.73323,5.71253 0.4352,9.26366 -0.0949,1.13078 -0.23945,2.31887 -0.43895,3.58028 m 0.59544,-13.19596 c -0.13906,0.37364 -0.2834,0.76256 -0.43331,1.1674 -0.57149,1.54322 -1.22155,3.32043 -1.98227,5.35016 -0.76073,2.02973 -1.62721,4.31743 -2.70144,6.80469 m 2.61502,-136.77193 c -0.94099,1.84673 -1.99016,3.57141 -2.99548,5.18328 -1.00532,1.61186 -1.96982,3.11143 -2.83169,4.51318 -1.8019,2.93063 -3.13008,5.43753 -4.04353,7.63661 m 6.13834,-2.58419 c -0.0364,2.40242 0.17627,4.53266 0.64425,6.50262 0.64504,2.7153 1.76319,5.12082 3.2151,7.43365 0.88795,1.41445 1.90013,2.79383 3.00559,4.18793 m -8.05272,-12.68914 c 0.10222,0.18894 0.20714,0.37771 0.31462,0.56642 1.35662,2.38189 3.12211,4.75478 5.01335,7.33049 1.38857,1.89111 2.84396,3.89083 4.25157,6.08228 m -1.74461,3.96824 c 0.77708,1.58799 1.70499,3.11926 2.6608,4.65635 1.44799,2.3286 2.94674,4.67759 4.17839,7.20796 0.50697,1.04155 0.97129,2.11248 1.37761,3.21974 m -3.6104,-7.2075 c 0.0165,0.2419 0.0313,0.49076 0.0443,0.74672 0.1377,2.72651 0.0422,6.24796 -0.37616,10.84521 -0.23795,2.6147 -0.57236,5.58609 -1.03407,8.90448 m 3.8267,-3.99725 c -1.36568,3.27484 -3.21014,6.94847 -5.75857,11.05034 -0.47937,0.77159 -0.93198,1.52443 -1.36052,2.25873 m 0.68829,-5.47421 c -0.16602,0.24206 -0.33247,0.4833 -0.49941,0.72374 -1.91202,2.75391 -3.28918,5.02345 -4.40913,7.08734 -1.11996,2.06389 -1.97359,3.91351 -2.67157,5.66083 -0.0114,0.0285 -0.0227,0.0569 -0.034,0.0853 m 0.0885,-3.97956 c -0.64194,1.06511 -1.1428,2.10676 -1.54002,3.11837 -0.71542,1.822 -1.09865,3.5452 -1.27763,5.16134 -0.17898,1.61613 -0.15029,3.12636 0.0167,4.54198 0.055,0.46618 0.12526,0.9222 0.20893,1.36866 m -1.59987,0.41473 c -0.0333,0.67925 -0.0297,1.32153 0.007,1.93288 0.17062,2.86644 1.05013,5.07796 2.32371,6.98984 1.27357,1.91189 2.9499,3.50602 4.75911,5.04138 0.31759,0.26951 0.63926,0.53724 0.96352,0.80461 m -3.79496,-4.88833 c 0.6067,0.98195 1.25626,1.94825 1.9194,2.92064 1.36668,2.00405 2.79068,4.03363 4.01768,6.28135 1.22699,2.24772 2.25408,4.71038 2.85176,7.60793 0.1039,0.50371 0.19496,1.02071 0.27219,1.55239 m -4.41441,-7.44526 c 0.6182,1.23255 1.12858,2.57896 1.50834,4.06667 0.33728,1.32124 0.57081,2.75423 0.70028,4.31854 0.12947,1.5643 0.15308,3.26075 0.10554,5.10131 -0.0354,1.36962 -0.1099,2.81915 -0.18462,4.34477 m 1.64569,-5.86905 c -0.0387,0.17303 -0.0806,0.34747 -0.12582,0.52333 -0.40431,1.57394 -1.06811,3.26293 -2.08842,5.07318 -1.02031,1.81025 -2.39646,3.74267 -4.26589,5.78605 m -5.25482,-55.94017 -0.65766,16.07249 m 12.6483,27.29815 -4.85491,13.50545 m 2.71956,-28.45151 2.77602,14.65343 m -13.80144,-113.24037 7.14771,17.62112 m 6.4685,32.66988 -9.11644,14.29331"
       id="path3074"
       inkscape:connector-curvature="0"
       sodipodi:nodetypes="csc"
       inkscape:path-effect="#path-effect4296"
       inkscape:original-d="m 455,600.36218 c -22,35 26.80551,32.75365 1,73 -25.46286,39.71194 19,32 -2,71" />
    <path
       inkscape:original-d="m 475,733.36218 c -14.32465,15.62605 -16.59457,13.54428 -21.12132,19.93934"
       inkscape:path-effect="#path-effect4300"
       sodipodi:nodetypes="cc"
       inkscape:connector-curvature="0"
       id="path4298"
       d="m 475.64012,738.17184 c -1.07955,1.24533 -2.24258,2.46457 -3.3789,3.59009 -1.13631,1.12552 -2.24862,2.15959 -3.29288,3.08645 -2.08852,1.85372 -3.89415,3.27201 -5.40892,4.38232 m 1.86294,-7.09093 c -2.05244,1.5673 -3.50498,2.77536 -4.70297,3.77682 -1.36764,1.14327 -2.38743,2.02766 -3.30172,3.04403 -0.70604,0.78486 -1.34476,1.65115 -1.98682,2.80007 m 15.85962,-15.32926 c -1.44119,1.20544 -2.6426,2.2692 -3.70224,3.20676 -1.05965,0.93756 -1.97586,1.74934 -2.80224,2.45685 -1.65276,1.41502 -2.95502,2.41485 -4.088,3.1779 m 5.23933,-0.90635 c -1.5659,1.97125 -3.01116,3.25725 -4.23732,4.30449 -1.39092,1.18797 -2.52825,2.04981 -3.57337,3.04084 -0.71969,0.68245 -1.3999,1.42345 -2.09408,2.3733 m 16.47895,-21.982 c -1.6055,1.38698 -2.83572,2.66277 -3.85464,3.79919 -1.01892,1.13641 -1.82399,2.13533 -2.50723,3.00526 -1.36647,1.73985 -2.26334,2.96296 -2.99647,3.88078 m 2.31072,1.00036 c -1.17683,1.06227 -2.12386,1.84718 -2.93544,2.47631 -0.81158,0.62912 -1.48593,1.10058 -2.07642,1.49036 -1.26074,0.83221 -2.15172,1.30764 -2.91483,1.84379 -0.64946,0.4563 -1.19911,0.94901 -1.69161,1.59795 m 15.69978,-17.22074 c -1.34077,1.28518 -2.43433,2.42516 -3.37651,3.44446 -0.94218,1.0193 -1.73174,1.91789 -2.42588,2.71779 -1.38826,1.59981 -2.40584,2.80643 -3.26424,3.77317 m 5.10786,-3.3765 c -2.03793,1.93407 -3.91007,3.48822 -5.50576,4.78202 -1.63389,1.32478 -3.00321,2.3946 -4.32616,3.62783 -0.70154,0.65395 -1.39313,1.35679 -2.12446,2.18964 m 2.71597,-0.92259 c -0.13624,0.13882 -0.27178,0.27763 -0.40704,0.41758 -0.69864,0.72286 -1.3868,1.48002 -2.14922,2.40665 m 11.81396,-11.52537 -12.72845,9.83585 m 4.56711,-4.96776 -9.06792,11.12386 m 11.89214,-12.59652 -10.97958,10.09346 m 27.0422,-24.99824 -13.20088,13.68689 m 5.78461,-5.46448 -12.82705,11.08491"
       style="fill:none;stroke:#000000;stroke-width:1px;stroke-linecap:butt;stroke-linejoin:miter;stroke-opacity:1;marker-end:url(#Arrow1Mend)" />
    <path
       style="fill:none;stroke:#000000;stroke-width:1px;stroke-linecap:butt;stroke-linejoin:miter;stroke-opacity:1;marker-end:url(#Arrow1Mend)"
       d="m 443.03239,736.15367 c 1.40182,1.07523 2.44979,2.14734 3.28728,3.16469 0.83749,1.01736 1.4614,1.98246 1.95431,2.88932 1.10704,2.03674 1.56307,3.77486 1.92268,5.40748 0.16242,0.73738 0.30204,1.45516 0.46236,2.17465 m -2.35935,-8.24891 c 0.17517,0.50434 0.33536,0.999 0.49301,1.49015 0.49113,1.53012 0.94772,3.02062 1.85217,4.71997 0.70359,1.32197 1.68159,2.77256 3.21544,4.49621 m -14.51667,-17.97198 c 0.89128,1.10007 1.73027,2.09585 2.47225,3.00633 0.74199,0.91049 1.38932,1.73612 1.94507,2.49817 1.29795,1.77977 2.08567,3.21786 2.75499,4.54532 0.19586,0.38845 0.38286,0.76702 0.57274,1.1404 m 1.60217,-1.88484 c 0.3368,0.67783 0.6168,1.3193 0.87093,1.94203 0.69652,1.70676 1.20385,3.27569 2.05434,5.00357 0.81925,1.66441 1.93268,3.45952 3.88924,5.7107 m -16.46293,-25.64451 c 1.07059,1.16348 2.11903,2.25999 3.06879,3.27396 0.94976,1.01398 1.8039,1.94725 2.55653,2.81131 1.64445,1.8879 2.78795,3.44715 3.8454,4.89268 0.60087,0.82139 1.18053,1.60686 1.84585,2.39139 m -2.36521,-0.27345 c 0.1385,0.52786 0.2716,1.02427 0.40744,1.49961 0.46336,1.6214 0.94094,3.01902 1.93092,4.4009 0.80954,1.13002 1.96493,2.24734 3.87127,3.29318 m -15.20063,-20.43225 c 0.96086,1.18657 1.88189,2.25493 2.71238,3.23412 0.83049,0.97919 1.57259,1.86911 2.22537,2.69423 1.52331,1.9255 2.54396,3.50122 3.46901,4.98345 0.27365,0.43847 0.54072,0.86846 0.81496,1.29595 m 1.48312,-4.33122 c 0.28562,0.59065 0.51617,1.17264 0.71964,1.75451 0.55911,1.59889 0.92571,3.185 1.54786,5.05491 0.47602,1.43069 1.09957,3.0278 1.98807,5.0192 m -6.91755,-13.40416 5.35285,15.16919 m -3.34425,-6.34859 9.0334,11.15191 m -10.14274,-13.84935 8.22579,12.44048 m -18.66138,-29.94473 12.20085,14.58538 m -4.26544,-7.26744 6.01329,15.85083"
       id="path4302"
       inkscape:connector-curvature="0"
       sodipodi:nodetypes="cc"
       inkscape:path-effect="#path-effect4304"
       inkscape:original-d="m 440.60372,731.36218 c 11.46286,11.71194 6,14 14,23" />
    <text
       xml:space="preserve"
       style="font-size:60px;font-style:normal;font-weight:normal;line-height:125%;letter-spacing:0px;word-spacing:0px;fill:#000000;fill-opacity:1;stroke:none;font-family:Sans"
       x="500"
       y="739.36218"
       id="text4306"
       sodipodi:linespacing="125%"><tspan
         sodipodi:role="line"
         id="tspan4308"
         x="500"
         y="739.36218"
         style="font-size:60px;font-style:normal;font-variant:normal;font-weight:normal;font-stretch:normal;font-family:Sketch Block;-inkscape-font-specification:Sketch Block">t</tspan></text>
    <text
       sodipodi:linespacing="125%"
       id="text4310"
       y="572.36218"
       x="271"
       style="font-size:60px;font-style:normal;font-weight:normal;line-height:125%;letter-spacing:0px;word-spacing:0px;fill:#000000;fill-opacity:1;stroke:none;font-family:Sans"
       xml:space="preserve"><tspan
         style="font-size:60px;font-style:normal;font-variant:normal;font-weight:normal;font-stretch:normal;font-family:Sketch Block;-inkscape-font-specification:Sketch Block"
         y="572.36218"
         x="271"
         id="tspan4312"
         sodipodi:role="line">C</tspan></text>
    <text
       xml:space="preserve"
       style="font-size:60px;font-style:normal;font-weight:normal;line-height:125%;letter-spacing:0px;word-spacing:0px;fill:#000000;fill-opacity:1;stroke:none;font-family:Sans"
       x="289"
       y="705.36218"
       id="text4314"
       sodipodi:linespacing="125%"><tspan
         sodipodi:role="line"
         id="tspan4316"
         x="289"
         y="705.36218"
         style="font-size:60px;font-style:normal;font-variant:normal;font-weight:normal;font-stretch:normal;font-family:Sketch Block;-inkscape-font-specification:Sketch Block">C</tspan></text>
    <text
       sodipodi:linespacing="125%"
       id="text4318"
       y="823.36218"
       x="282"
       style="font-size:60px;font-style:normal;font-weight:normal;line-height:125%;letter-spacing:0px;word-spacing:0px;fill:#000000;fill-opacity:1;stroke:none;font-family:Sans"
       xml:space="preserve"><tspan
         style="font-size:60px;font-style:normal;font-variant:normal;font-weight:normal;font-stretch:normal;font-family:Sketch Block;-inkscape-font-specification:Sketch Block"
         y="823.36218"
         x="282"
         id="tspan4320"
         sodipodi:role="line">C</tspan></text>
  </g>
</svg>
