<?xml version="1.0" encoding="UTF-8" standalone="no"?>
<!-- Created with Inkscape (http://www.inkscape.org/) -->

<svg
   xmlns:dc="http://purl.org/dc/elements/1.1/"
   xmlns:cc="http://creativecommons.org/ns#"
   xmlns:rdf="http://www.w3.org/1999/02/22-rdf-syntax-ns#"
   xmlns:svg="http://www.w3.org/2000/svg"
   xmlns="http://www.w3.org/2000/svg"
   xmlns:sodipodi="http://sodipodi.sourceforge.net/DTD/sodipodi-0.dtd"
   xmlns:inkscape="http://www.inkscape.org/namespaces/inkscape"
   width="1052.3622"
   height="744.09448"
   id="svg2"
   version="1.1"
   inkscape:version="0.48.4 r9939"
   sodipodi:docname="pipe.svg">
  <defs
     id="defs4">
    <inkscape:path-effect
       tgtlength_rdm="0.3;1"
       tgtlength="4"
       tgtscale="10"
       tgt_places_rdmness="1;1"
       nbtangents="5"
       tremble_frequency="1"
       tremble_size="1.8;1"
       parallel_offset="1.9;1"
       ends_tolerance="0;1429194784"
       strokeoverlap_rdm="0.1;1"
       strokeoverlap="0"
       strokelength_rdm="0;1"
       strokelength="60"
       nbiter_approxstrokes="5"
       is_visible="true"
       id="path-effect5184"
       effect="sketch" />
    <inkscape:path-effect
       tgtlength_rdm="0.3;1"
       tgtlength="4"
       tgtscale="10"
       tgt_places_rdmness="1;1"
       nbtangents="5"
       tremble_frequency="1"
       tremble_size="1.8;1"
       parallel_offset="1.9;1"
       ends_tolerance="0;1429194784"
       strokeoverlap_rdm="0.1;1"
       strokeoverlap="0"
       strokelength_rdm="0;1"
       strokelength="60"
       nbiter_approxstrokes="5"
       is_visible="true"
       id="path-effect5182"
       effect="sketch" />
    <inkscape:path-effect
       effect="sketch"
       id="path-effect5180"
       is_visible="true"
       nbiter_approxstrokes="5"
       strokelength="60"
       strokelength_rdm="0;1"
       strokeoverlap="0"
       strokeoverlap_rdm="0.1;1"
       ends_tolerance="0;1429194784"
       parallel_offset="1.9;1"
       tremble_size="1.8;1"
       tremble_frequency="1"
       nbtangents="5"
       tgt_places_rdmness="1;1"
       tgtscale="10"
       tgtlength="4"
       tgtlength_rdm="0.3;1" />
    <inkscape:path-effect
       effect="sketch"
       id="path-effect5172"
       is_visible="true"
       nbiter_approxstrokes="5"
       strokelength="60"
       strokelength_rdm="0;1"
       strokeoverlap="0"
       strokeoverlap_rdm="0.1;1"
       ends_tolerance="0;1429194784"
       parallel_offset="1.9;1"
       tremble_size="1.8;1"
       tremble_frequency="1"
       nbtangents="5"
       tgt_places_rdmness="1;1"
       tgtscale="10"
       tgtlength="4"
       tgtlength_rdm="0.3;1" />
    <inkscape:path-effect
       effect="sketch"
       id="path-effect5170"
       is_visible="true"
       nbiter_approxstrokes="5"
       strokelength="60"
       strokelength_rdm="0;1"
       strokeoverlap="0"
       strokeoverlap_rdm="0.1;1"
       ends_tolerance="0;1429194784"
       parallel_offset="1.9;1"
       tremble_size="1.8;1"
       tremble_frequency="1"
       nbtangents="5"
       tgt_places_rdmness="1;1"
       tgtscale="10"
       tgtlength="4"
       tgtlength_rdm="0.3;1" />
    <inkscape:path-effect
       tgtlength_rdm="0.3;1"
       tgtlength="4"
       tgtscale="10"
       tgt_places_rdmness="1;1"
       nbtangents="5"
       tremble_frequency="1"
       tremble_size="1.8;1"
       parallel_offset="1.9;1"
       ends_tolerance="0;1429194784"
       strokeoverlap_rdm="0.1;1"
       strokeoverlap="0"
       strokelength_rdm="0;1"
       strokelength="60"
       nbiter_approxstrokes="5"
       is_visible="true"
       id="path-effect5168"
       effect="sketch" />
    <inkscape:path-effect
       tgtlength_rdm="0.3;1"
       tgtlength="4"
       tgtscale="10"
       tgt_places_rdmness="1;1"
       nbtangents="5"
       tremble_frequency="1"
       tremble_size="1.8;1"
       parallel_offset="1.9;1"
       ends_tolerance="0;1429194784"
       strokeoverlap_rdm="0.1;1"
       strokeoverlap="0"
       strokelength_rdm="0;1"
       strokelength="60"
       nbiter_approxstrokes="5"
       is_visible="true"
       id="path-effect5154"
       effect="sketch" />
    <inkscape:path-effect
       effect="sketch"
       id="path-effect5148"
       is_visible="true"
       nbiter_approxstrokes="5"
       strokelength="60"
       strokelength_rdm="0;1"
       strokeoverlap="0"
       strokeoverlap_rdm="0.1;1"
       ends_tolerance="0;1429194784"
       parallel_offset="1.9;1"
       tremble_size="1.8;1"
       tremble_frequency="1"
       nbtangents="5"
       tgt_places_rdmness="1;1"
       tgtscale="10"
       tgtlength="4"
       tgtlength_rdm="0.3;1" />
    <inkscape:path-effect
       tgtlength_rdm="0.3;1"
       tgtlength="5"
       tgtscale="9.8"
       tgt_places_rdmness="1;1"
       nbtangents="5"
       tremble_frequency="3.5"
       tremble_size="2.6;1"
       parallel_offset="2.6;1"
       ends_tolerance="0.1;1"
       strokeoverlap_rdm="0.1;2173367531"
       strokeoverlap="0"
       strokelength_rdm="0;1"
       strokelength="100"
       nbiter_approxstrokes="8"
       is_visible="true"
       id="path-effect4910"
       effect="sketch" />
    <inkscape:path-effect
       tgtlength_rdm="0.3;1"
       tgtlength="4"
       tgtscale="10"
       tgt_places_rdmness="1;1"
       nbtangents="5"
       tremble_frequency="1"
       tremble_size="1.8;1"
       parallel_offset="1.9;1"
       ends_tolerance="0;1429194784"
       strokeoverlap_rdm="0.1;1"
       strokeoverlap="0"
       strokelength_rdm="0;1"
       strokelength="60"
       nbiter_approxstrokes="5"
       is_visible="true"
       id="path-effect4906"
       effect="sketch" />
    <inkscape:path-effect
       effect="sketch"
       id="path-effect3781"
       is_visible="true"
       nbiter_approxstrokes="3"
       strokelength="40"
       strokelength_rdm="0;3540803433"
       strokeoverlap="0.3"
       strokeoverlap_rdm="0.3;676846516"
       ends_tolerance="0.1;78838508"
       parallel_offset="2.7;1"
       tremble_size="2.5;1"
       tremble_frequency="1"
       nbtangents="5"
       tgt_places_rdmness="1;1"
       tgtscale="10"
       tgtlength="0"
       tgtlength_rdm="0.3;1" />
    <inkscape:path-effect
       tgtlength_rdm="0.3;1"
       tgtlength="4"
       tgtscale="10"
       tgt_places_rdmness="1;1"
       nbtangents="5"
       tremble_frequency="1"
       tremble_size="1.8;1"
       parallel_offset="1.9;1"
       ends_tolerance="0;1429194784"
       strokeoverlap_rdm="0.1;1"
       strokeoverlap="0"
       strokelength_rdm="0;1"
       strokelength="60"
       nbiter_approxstrokes="5"
       is_visible="true"
       id="path-effect3778"
       effect="sketch" />
    <inkscape:path-effect
       effect="sketch"
       id="path-effect3774"
       is_visible="true"
       nbiter_approxstrokes="5"
       strokelength="60"
       strokelength_rdm="0;1"
       strokeoverlap="0"
       strokeoverlap_rdm="0.1;1"
       ends_tolerance="0;1429194784"
       parallel_offset="1.9;1"
       tremble_size="1.8;1"
       tremble_frequency="1"
       nbtangents="5"
       tgt_places_rdmness="1;1"
       tgtscale="10"
       tgtlength="4"
       tgtlength_rdm="0.3;1" />
    <inkscape:path-effect
       tgtlength_rdm="0.3;1"
       tgtlength="5"
       tgtscale="9.8"
       tgt_places_rdmness="1;1"
       nbtangents="5"
       tremble_frequency="5"
       tremble_size="2.7;1"
       parallel_offset="2.7;1"
       ends_tolerance="0.1;4044545397"
       strokeoverlap_rdm="0.3;1"
       strokeoverlap="0"
       strokelength_rdm="0;1"
       strokelength="100"
       nbiter_approxstrokes="7"
       is_visible="true"
       id="path-effect3772"
       effect="sketch" />
    <inkscape:path-effect
       effect="sketch"
       id="path-effect2994"
       is_visible="true"
       nbiter_approxstrokes="8"
       strokelength="100"
       strokelength_rdm="0;1"
       strokeoverlap="0"
       strokeoverlap_rdm="0.1;2173367531"
       ends_tolerance="0.1;1"
       parallel_offset="2.6;1"
       tremble_size="2.6;1"
       tremble_frequency="3.5"
       nbtangents="5"
       tgt_places_rdmness="1;1"
       tgtscale="9.8"
       tgtlength="5"
       tgtlength_rdm="0.3;1" />
    <marker
       inkscape:stockid="Arrow2Mend"
       orient="auto"
       refY="0.0"
       refX="0.0"
       id="Arrow2Mend"
       style="overflow:visible;">
      <path
         id="path3849"
         style="fill-rule:evenodd;stroke-width:0.62500000;stroke-linejoin:round;"
         d="M 8.7185878,4.0337352 L -2.2072895,0.016013256 L 8.7185884,-4.0017078 C 6.9730900,-1.6296469 6.9831476,1.6157441 8.7185878,4.0337352 z "
         transform="scale(0.6) rotate(180) translate(0,0)" />
    </marker>
    <inkscape:path-effect
       tgtlength_rdm="0.3;1"
       tgtlength="5"
       tgtscale="9.8"
       tgt_places_rdmness="1;1"
       nbtangents="5"
       tremble_frequency="3.5"
       tremble_size="2.6;1"
       parallel_offset="2.6;1"
       ends_tolerance="0.1;1"
       strokeoverlap_rdm="0.1;2147483646"
       strokeoverlap="0"
       strokelength_rdm="0;1"
       strokelength="100"
       nbiter_approxstrokes="8"
       is_visible="true"
       id="path-effect4910-9"
       effect="sketch" />
    <inkscape:path-effect
       tgtlength_rdm="0.3;1"
       tgtlength="4"
       tgtscale="10"
       tgt_places_rdmness="1;1"
       nbtangents="5"
       tremble_frequency="1"
       tremble_size="1.8;1"
       parallel_offset="1.9;1"
       ends_tolerance="0;1429194784"
       strokeoverlap_rdm="0.1;1"
       strokeoverlap="0"
       strokelength_rdm="0;1"
       strokelength="60"
       nbiter_approxstrokes="5"
       is_visible="true"
       id="path-effect4906-7"
       effect="sketch" />
    <inkscape:path-effect
       tgtlength_rdm="0.3;1"
       tgtlength="4"
       tgtscale="10"
       tgt_places_rdmness="1;1"
       nbtangents="5"
       tremble_frequency="1"
       tremble_size="1.8;1"
       parallel_offset="1.9;1"
       ends_tolerance="0;1429194784"
       strokeoverlap_rdm="0.1;1"
       strokeoverlap="0"
       strokelength_rdm="0;1"
       strokelength="60"
       nbiter_approxstrokes="5"
       is_visible="true"
       id="path-effect3778-6"
       effect="sketch" />
    <inkscape:path-effect
       effect="sketch"
       id="path-effect3774-0"
       is_visible="true"
       nbiter_approxstrokes="5"
       strokelength="60"
       strokelength_rdm="0;1"
       strokeoverlap="0"
       strokeoverlap_rdm="0.1;1"
       ends_tolerance="0;1429194784"
       parallel_offset="1.9;1"
       tremble_size="1.8;1"
       tremble_frequency="1"
       nbtangents="5"
       tgt_places_rdmness="1;1"
       tgtscale="10"
       tgtlength="4"
       tgtlength_rdm="0.3;1" />
    <inkscape:path-effect
       tgtlength_rdm="0.3;1"
       tgtlength="4"
       tgtscale="10"
       tgt_places_rdmness="1;1"
       nbtangents="5"
       tremble_frequency="1"
       tremble_size="1.8;1"
       parallel_offset="1.9;1"
       ends_tolerance="0;1429194784"
       strokeoverlap_rdm="0.1;1"
       strokeoverlap="0"
       strokelength_rdm="0;1"
       strokelength="60"
       nbiter_approxstrokes="5"
       is_visible="true"
       id="path-effect4906-7-7"
       effect="sketch" />
    <inkscape:path-effect
       tgtlength_rdm="0.3;1"
       tgtlength="4"
       tgtscale="10"
       tgt_places_rdmness="1;1"
       nbtangents="5"
       tremble_frequency="1"
       tremble_size="1.8;1"
       parallel_offset="1.9;1"
       ends_tolerance="0;1429194784"
       strokeoverlap_rdm="0.1;1"
       strokeoverlap="0"
       strokelength_rdm="0;1"
       strokelength="60"
       nbiter_approxstrokes="5"
       is_visible="true"
       id="path-effect3778-6-4"
       effect="sketch" />
    <inkscape:path-effect
       effect="sketch"
       id="path-effect3774-0-4"
       is_visible="true"
       nbiter_approxstrokes="5"
       strokelength="60"
       strokelength_rdm="0;1"
       strokeoverlap="0"
       strokeoverlap_rdm="0.1;1"
       ends_tolerance="0;1429194784"
       parallel_offset="1.9;1"
       tremble_size="1.8;1"
       tremble_frequency="1"
       nbtangents="5"
       tgt_places_rdmness="1;1"
       tgtscale="10"
       tgtlength="4"
       tgtlength_rdm="0.3;1" />
    <inkscape:path-effect
       tgtlength_rdm="0.3;1"
       tgtlength="4"
       tgtscale="10"
       tgt_places_rdmness="1;1"
       nbtangents="5"
       tremble_frequency="1"
       tremble_size="1.8;1"
       parallel_offset="1.9;1"
       ends_tolerance="0;1429194784"
       strokeoverlap_rdm="0.1;1"
       strokeoverlap="0"
       strokelength_rdm="0;1"
       strokelength="60"
       nbiter_approxstrokes="5"
       is_visible="true"
       id="path-effect4906-7-2"
       effect="sketch" />
    <inkscape:path-effect
       tgtlength_rdm="0.3;1"
       tgtlength="4"
       tgtscale="10"
       tgt_places_rdmness="1;1"
       nbtangents="5"
       tremble_frequency="1"
       tremble_size="1.8;1"
       parallel_offset="1.9;1"
       ends_tolerance="0;1429194784"
       strokeoverlap_rdm="0.1;1"
       strokeoverlap="0"
       strokelength_rdm="0;1"
       strokelength="60"
       nbiter_approxstrokes="5"
       is_visible="true"
       id="path-effect3778-6-3"
       effect="sketch" />
    <inkscape:path-effect
       effect="sketch"
       id="path-effect3774-0-1"
       is_visible="true"
       nbiter_approxstrokes="5"
       strokelength="60"
       strokelength_rdm="0;1"
       strokeoverlap="0"
       strokeoverlap_rdm="0.1;1"
       ends_tolerance="0;1429194784"
       parallel_offset="1.9;1"
       tremble_size="1.8;1"
       tremble_frequency="1"
       nbtangents="5"
       tgt_places_rdmness="1;1"
       tgtscale="10"
       tgtlength="4"
       tgtlength_rdm="0.3;1" />
  </defs>
  <sodipodi:namedview
     id="base"
     pagecolor="#ffffff"
     bordercolor="#666666"
     borderopacity="1.0"
     inkscape:pageopacity="0.0"
     inkscape:pageshadow="2"
     inkscape:zoom="0.70710678"
     inkscape:cx="547.71658"
     inkscape:cy="321.7072"
     inkscape:document-units="px"
     inkscape:current-layer="layer1"
     showgrid="false"
     inkscape:window-width="1596"
     inkscape:window-height="864"
     inkscape:window-x="0"
     inkscape:window-y="16"
     inkscape:window-maximized="0" />
  <metadata
     id="metadata7">
    <rdf:RDF>
      <cc:Work
         rdf:about="">
        <dc:format>image/svg+xml</dc:format>
        <dc:type
           rdf:resource="http://purl.org/dc/dcmitype/StillImage" />
        <dc:title></dc:title>
      </cc:Work>
    </rdf:RDF>
  </metadata>
  <g
     inkscape:label="Layer 1"
     inkscape:groupmode="layer"
     id="layer1"
     transform="translate(0,-308.2677)">
    <text
       xml:space="preserve"
       style="font-size:40px;font-style:normal;font-variant:normal;font-weight:normal;font-stretch:normal;line-height:125%;letter-spacing:0px;word-spacing:0px;fill:#000000;fill-opacity:1;stroke:none;font-family:Serif;-inkscape-font-specification:Serif"
       x="555.53107"
       y="529.33044"
       id="text4456"
       sodipodi:linespacing="125%"><tspan
         sodipodi:role="line"
         id="tspan4458"
         x="555.53107"
         y="529.33044" /></text>
    <text
       xml:space="preserve"
       style="font-size:40px;font-style:normal;font-variant:normal;font-weight:normal;font-stretch:normal;line-height:125%;letter-spacing:0px;word-spacing:0px;fill:#000000;fill-opacity:1;stroke:none;font-family:Serif;-inkscape-font-specification:Serif"
       x="554.57141"
       y="524.78479"
       id="text4460"
       sodipodi:linespacing="125%"><tspan
         sodipodi:role="line"
         id="tspan4462"
         x="554.57141"
         y="524.78479" /></text>
    <text
       sodipodi:linespacing="125%"
       id="text4487"
       y="309.78726"
       x="533.98816"
       style="font-size:79.81760406px;font-style:normal;font-variant:normal;font-weight:normal;font-stretch:normal;line-height:125%;letter-spacing:0px;word-spacing:0px;fill:#000000;fill-opacity:1;stroke:none;font-family:Serif;-inkscape-font-specification:Serif"
       xml:space="preserve"
       transform="matrix(0.5,0.8660254,-0.8660254,0.5,0,0)"><tspan
         style="font-style:normal;font-variant:normal;font-weight:normal;font-stretch:normal;font-family:Sketch Block;-inkscape-font-specification:Sketch Block"
         y="309.78726"
         x="533.98816"
         sodipodi:role="line"
         id="tspan4914">channel</tspan></text>
    <path
       style="fill:none;stroke:#000000;stroke-width:1;stroke-linecap:butt;stroke-linejoin:miter;stroke-miterlimit:4;stroke-opacity:1;stroke-dasharray:24, 24;stroke-dashoffset:0"
       d="m 236.86582,740.83382 c -9.65321,-6.26136 -19.72083,-12.24543 -29.8951,-18.2008 m 29.23066,14.33293 c -10.10033,-6.14408 -19.91825,-12.11129 -29.60304,-18.01638 m 27.69274,20.3617 c -10.26399,-6.14694 -20.14234,-12.32968 -29.93417,-18.66052 m 32.12533,18.82957 c -9.64223,-5.79229 -19.58532,-11.78385 -29.4951,-17.73752 m 27.05793,14.98326 c -10.17114,-6.1987 -19.83131,-12.29278 -29.18499,-18.46504 m 14.13609,9.51474 -5.50519,-3.33078 m -3.42998,-2.07522 -4.91162,-2.97165 m 7.80952,4.72495 -5.10413,-3.08813 m 26.23458,15.87258 -6.50783,-3.9374 m -4.11777,-2.49135 -5.80197,-3.51034"
       id="path3796"
       inkscape:connector-curvature="0"
       sodipodi:nodetypes="cc"
       inkscape:path-effect="#path-effect3774-0-4"
       inkscape:original-d="M 235.7383,737.90517 205.85417,719.82452" />
    <path
       inkscape:original-d="m 253.75211,755.88792 496.02835,3.67671"
       inkscape:path-effect="#path-effect3778-6-4"
       sodipodi:nodetypes="cc"
       inkscape:connector-curvature="0"
       id="path3776"
       d="m 254.87982,758.81663 c 20.52531,-0.25457 39.8241,0.30178 59.46777,0.43079 0.003,2e-5 0.007,4e-5 0.01,6e-5 m 0.88322,-3.47434 c 20.45492,-0.11879 39.43471,0.16653 58.34281,0.0651 0.003,-2e-5 0.006,-4e-5 0.009,-6e-5 m -0.37652,1.71283 c 20.54417,0.55108 40.20758,0.51334 60.66307,1.09133 0.003,9e-5 0.007,1.9e-4 0.0102,2.9e-4 m 2.78075,-0.8578 c 19.45727,0.62154 39.29228,1.11772 57.90737,2.89129 0.003,3e-4 0.006,6e-4 0.009,8.9e-4 m -3.51901,-4.76565 c 19.64505,0.15284 40.60636,0.12559 61.81665,-0.0757 0.004,-3e-5 0.007,-6e-5 0.0106,-10e-5 m -0.004,3.05786 c 20.343,-0.11404 40.89306,0.35658 62.67411,0.61353 0.004,4e-5 0.007,9e-5 0.0109,1.3e-4 m -1.27602,-0.49431 c 19.7574,0.70104 40.43187,0.77422 61.28223,1.90688 0.003,1.9e-4 0.007,3.7e-4 0.0104,5.6e-4 m 0.10063,-1.51354 c 20.53454,0.61641 39.42942,-0.20967 58.27245,-1.08839 0.003,-1.5e-4 0.006,-2.9e-4 0.009,-4.4e-4 m -3.42576,-2.23537 c 5.46864,0.0698 10.90414,0.20536 16.3331,0.41442 m -492.31022,-2.71027 c 19.53696,0.73399 39.48699,1.27576 58.4839,3.36936 0.003,3.5e-4 0.006,7e-4 0.01,0.001 m -1.89586,-1.57227 c 19.46693,-0.24531 40.16732,-0.026 60.52299,-0.53952 0.003,-9e-5 0.007,-1.7e-4 0.0102,-2.6e-4 m 2.13587,1.56608 c 20.23031,0.39619 40.00682,-0.4795 60.04449,-1.90391 0.003,-2.4e-4 0.007,-4.7e-4 0.01,-7.1e-4 m 0.35678,5.8554 c 19.54149,0.003 39.02761,-0.27376 57.09171,-1.2709 0.003,-1.7e-4 0.006,-3.3e-4 0.009,-5e-4 m 0.38164,-0.82534 c 20.40383,-0.11883 40.71102,0.0491 62.15377,-0.30053 0.004,-6e-5 0.007,-1.2e-4 0.0107,-1.7e-4 m -0.84993,-1.45507 c 20.02418,0.46652 39.8739,-0.24811 59.65084,-1.15863 0.003,-1.5e-4 0.007,-3e-4 0.01,-4.5e-4 m -0.31003,4.83401 c 20.02891,-0.0629 40.01261,-0.79014 60.03052,-2.80368 0.003,-3.3e-4 0.007,-6.7e-4 0.01,-10e-4 m 0.68214,1.85342 c 20.23973,0.14789 40.18553,-0.70312 60.55073,-2.57878 0.003,-3.2e-4 0.007,-6.3e-4 0.0102,-9.4e-4 m 0.68095,2.13538 c 5.28571,0.0346 10.58129,0.0938 15.87478,0.17521 m -494.14499,-3.84413 c 20.16947,-0.21245 40.15549,0.19776 60.49452,0.17765 0.003,-1e-5 0.007,-1e-5 0.0102,-1e-5 m -3.45327,3.38935 c 20.05211,0.56043 39.35441,0.48308 58.07582,0.99288 0.003,9e-5 0.006,1.7e-4 0.009,2.6e-4 m 0.65206,-5.71053 c 19.73392,-0.24039 40.2258,0.69871 60.67755,1.65422 0.003,1.6e-4 0.007,3.1e-4 0.0102,4.7e-4 m 3.54828,4.0982 c 20.13667,0.46655 40.13494,-0.15216 60.41015,-0.90551 0.003,-1.3e-4 0.007,-2.5e-4 0.0101,-3.8e-4 m -0.90627,-1.99252 c 20.23479,0.13901 39.42248,0.78003 58.30074,1.87903 0.003,1.8e-4 0.006,3.7e-4 0.009,5.5e-4 m -2.80478,-2.63354 c 20.26335,-0.35291 40.78392,0.33115 62.33666,0.54334 0.004,4e-5 0.007,7e-5 0.0108,1.1e-4 m -3.07428,2.34538 c 19.86511,0.35898 40.37469,0.30267 61.11342,0.47268 0.003,2e-5 0.007,5e-5 0.0104,8e-5 m 0.15482,-2.20493 c 19.44841,-0.30593 40.80481,0.75432 62.40738,1.82301 0.004,1.8e-4 0.007,3.5e-4 0.0108,5.3e-4 m 0.0299,2.06762 c 5.46236,0.096 10.8787,0.16982 16.27412,0.23174 M 250.8694,754.95829 c 19.9963,0.27021 40.56109,0.94582 61.67585,2.41334 0.004,2.5e-4 0.007,4.9e-4 0.0106,7.4e-4 m 3.07271,-0.14112 c 19.66795,0.47133 39.04459,0.15693 57.16196,0.0507 0.003,-2e-5 0.006,-4e-5 0.009,-6e-5 m 1.81961,0.0665 c 19.84625,0.12481 40.0006,0.30535 60.01655,0.44467 0.003,2e-5 0.007,4e-5 0.01,7e-5 m -2.02015,-0.0214 c 20.33809,-0.44197 40.19902,0.11152 60.63506,-0.10349 0.003,-3e-5 0.007,-7e-5 0.0102,-1.1e-4 m 1.79116,0.81288 c 19.94945,0.53683 40.48422,-0.0816 61.45088,-0.70867 0.003,-1e-4 0.007,-2.1e-4 0.0105,-3.1e-4 m -0.26454,1.729 c 20.00064,-0.4373 39.51972,0.0957 58.55397,-0.14568 0.003,-4e-5 0.006,-8e-5 0.01,-1.2e-4 m 2.14423,-1.43657 c 19.99108,0.0498 38.93313,0.17315 56.81023,0.065 0.003,-2e-5 0.006,-4e-5 0.009,-6e-5 m 0.90795,-2.25828 c 19.72918,0.51354 40.06818,0.29368 60.22755,0.45853 0.003,3e-5 0.007,6e-5 0.0101,9e-5 m -0.48125,5.46419 c 5.39097,0.11347 10.77318,0.14242 16.15419,0.10439 m -497.37961,-7.63448 c 19.495,-0.39479 40.08799,1.16097 60.29797,3.03242 0.003,3.1e-4 0.007,6.2e-4 0.0101,9.4e-4 m -1.00489,1.59389 c 19.80412,0.60246 40.07267,0.0835 60.22751,-0.18838 0.003,-5e-5 0.007,-1e-4 0.0101,-1.4e-4 m 1.34342,-0.17935 c 19.50441,0.39661 40.1949,0.79107 60.60735,1.90702 0.003,1.9e-4 0.007,3.8e-4 0.0102,5.6e-4 m 0.55109,-4.08743 c 19.4763,-0.31558 40.17115,-0.0728 60.52299,-0.65199 0.003,-10e-5 0.007,-2e-4 0.0102,-2.9e-4 m -2.19685,5.49652 c 20.40386,0.27456 40.80332,-0.0509 62.44909,-0.59604 0.004,-9e-5 0.007,-1.8e-4 0.0108,-2.7e-4 m -2.44134,-0.0413 c 20.20705,-0.41855 40.53152,0.13268 61.59137,-0.0472 0.004,-3e-5 0.007,-6e-5 0.0105,-9e-5 m -0.11782,-0.8532 c 19.79016,-0.33885 40.35778,0.38506 61.11345,0.69802 0.003,5e-5 0.007,10e-5 0.0104,1.5e-4 m -2.3738,-1.13687 c 20.03364,-0.006 40.15689,0.98525 60.50865,2.49785 0.003,2.5e-4 0.007,5e-4 0.0102,7.6e-4 m -2.61587,-0.99597 c 5.31463,0.0534 10.70894,0.13546 16.17735,0.25027 m -173.83078,-2.55535 6.4342,0.0477 m 137.29587,1.01768 5.74046,0.0426 m -52.35562,-0.38807 5.96546,0.0442 m -345.86763,-2.56368 7.60604,0.0564 m 163.31619,1.21055 6.78107,0.0503"
       style="fill:none;stroke:#000000;stroke-width:1;stroke-linecap:butt;stroke-linejoin:miter;stroke-miterlimit:4;stroke-opacity:1;stroke-dasharray:24, 24;stroke-dashoffset:0" />
    <path
       inkscape:original-d="m 234.7383,738.90517 -29.88413,15.91935"
       inkscape:path-effect="#path-effect4906-7-7"
       sodipodi:nodetypes="cc"
       inkscape:connector-curvature="0"
       id="path4904"
       d="m 235.86582,741.83392 c -9.66263,5.07908 -19.71461,10.41891 -29.87574,15.79275 m 29.21129,-19.66062 c -10.09607,5.19277 -19.92662,10.55169 -29.62785,15.97232 m 27.71756,-13.62701 c -10.25473,5.19001 -20.14721,10.3462 -29.94967,15.36656 m 32.14083,-15.1975 c -9.65199,5.5338 -19.58688,10.88037 -29.49996,16.2557 m 27.06278,-19.00996 c -10.16472,5.13983 -19.8494,10.3781 -29.24007,15.54806 m 14.27802,-5.49674 -5.67887,3.02515 m -3.26565,1.73962 -5.06659,2.69899 m 7.96751,-4.24432 -5.26516,2.80477 m 26.41776,-14.07281 -6.71315,3.57612 m -3.92358,2.0901 -5.98503,3.18823"
       style="fill:none;stroke:#000000;stroke-width:1;stroke-linecap:butt;stroke-linejoin:miter;stroke-miterlimit:4;stroke-opacity:1;stroke-dasharray:24, 24;stroke-dashoffset:0" />
    <path
       style="fill:none;stroke:#000000;stroke-width:1;stroke-linecap:butt;stroke-linejoin:miter;stroke-miterlimit:4;stroke-opacity:1;stroke-dasharray:24, 24;stroke-dashoffset:0"
       d="m 849.72031,741.29675 c -9.65321,-6.26136 -19.72083,-12.24543 -29.8951,-18.2008 m 29.23066,14.33293 C 838.95554,731.2848 829.13762,725.31759 819.45283,719.4125 m 27.69274,20.3617 c -10.26399,-6.14694 -20.14234,-12.32968 -29.93417,-18.66052 m 32.12533,18.82957 c -9.64223,-5.79229 -19.58532,-11.78385 -29.4951,-17.73752 m 27.05793,14.98326 c -10.17114,-6.1987 -19.83131,-12.29278 -29.18499,-18.46504 m 14.13609,9.51474 -5.50519,-3.33078 m -3.42998,-2.07522 -4.91162,-2.97165 m 7.80952,4.72495 -5.10413,-3.08813 m 26.23458,15.87258 -6.50783,-3.9374 m -4.11777,-2.49135 -5.80197,-3.51034"
       id="path3796-3"
       inkscape:connector-curvature="0"
       sodipodi:nodetypes="cc"
       inkscape:path-effect="#path-effect3774-0-1"
       inkscape:original-d="M 848.59279,738.3681 818.70866,720.28745" />
    <path
       inkscape:original-d="M 747.92627,719.5813 250.4837,723.25801"
       inkscape:path-effect="#path-effect3778-6-3"
       sodipodi:nodetypes="cc"
       inkscape:connector-curvature="0"
       id="path3776-1"
       d="m 749.05378,722.51001 c -19.46693,-0.255 -40.16038,0.30094 -60.50894,0.42952 -0.003,2e-5 -0.007,4e-5 -0.0102,7e-5 m 0.88322,-3.47435 c -19.53731,-0.11921 -40.54976,0.16569 -61.6339,0.0638 -0.004,-2e-5 -0.007,-4e-5 -0.0105,-5e-5 m -0.37653,1.71282 c -19.44807,0.55066 -39.77689,0.5125 -59.31364,1.09006 -0.003,1e-4 -0.007,2e-4 -0.01,2.9e-4 m 2.78075,-0.85779 c -20.53496,0.62111 -40.6922,1.11688 -62.06934,2.89003 -0.004,2.9e-4 -0.007,5.9e-4 -0.0107,8.8e-4 m -3.51901,-4.76565 c -20.34719,0.15242 -39.37812,0.12475 -58.16006,-0.0769 -0.003,-3e-5 -0.006,-6e-5 -0.009,-10e-5 m -0.004,3.05786 c -19.64923,-0.11447 -39.09141,0.35574 -57.30259,0.61227 -0.003,4e-5 -0.006,8e-5 -0.009,1.2e-4 m -1.27601,-0.4943 c -20.23484,0.70061 -39.55261,0.77337 -58.6945,1.90561 -0.003,1.9e-4 -0.006,3.7e-4 -0.01,5.6e-4 m 0.10063,-1.51354 c -19.4577,0.61599 -40.55505,-0.21052 -61.70426,-1.08966 -0.004,-1.4e-4 -0.007,-2.9e-4 -0.0106,-4.4e-4 m -3.42576,-2.23536 c -5.68625,0.0758 -11.41168,0.22968 -17.14207,0.47138 m 501.13866,-2.75712 c -20.45528,0.73357 -40.49749,1.27492 -61.49282,3.3681 -0.004,3.4e-4 -0.007,6.9e-4 -0.0105,0.001 m -1.89585,-1.57226 c -20.52531,-0.24573 -39.81715,-0.0268 -59.45373,-0.54079 -0.003,-9e-5 -0.007,-1.7e-4 -0.01,-2.6e-4 m 2.13588,1.56608 c -19.76194,0.39577 -39.97766,-0.48034 -59.93223,-1.90517 -0.003,-2.4e-4 -0.007,-4.8e-4 -0.01,-7.2e-4 m 0.35678,5.85541 c -20.45075,0.002 -40.95686,-0.27461 -62.885,-1.27217 -0.004,-1.7e-4 -0.007,-3.3e-4 -0.011,-5e-4 m 0.38164,-0.82534 c -19.58841,-0.11925 -39.27345,0.0483 -57.82294,-0.30179 -0.003,-6e-5 -0.006,-1.2e-4 -0.009,-1.8e-4 m -0.84993,-1.45506 c -19.96806,0.4661 -40.11057,-0.24896 -60.32587,-1.15989 -0.003,-1.6e-4 -0.007,-3.1e-4 -0.0101,-4.6e-4 m -0.31003,4.83402 c -19.96333,-0.0633 -39.97187,-0.79099 -59.94619,-2.80495 -0.003,-3.3e-4 -0.007,-6.7e-4 -0.01,-10e-4 m 0.68214,1.85342 c -19.75251,0.14746 -39.79894,-0.70397 -59.42598,-2.58005 -0.003,-3.1e-4 -0.007,-6.2e-4 -0.01,-9.4e-4 m 0.68095,2.13538 c -5.8853,0.0376 -11.75878,0.10402 -17.63596,0.19663 m 499.33946,-3.85543 c -19.82277,-0.21287 -39.82899,0.19692 -59.4822,0.17638 -0.003,0 -0.007,0 -0.01,-10e-6 m -3.45326,3.38935 c -19.94013,0.56002 -40.63006,0.48225 -61.90089,0.99162 -0.004,9e-5 -0.007,1.7e-4 -0.0106,2.6e-4 m 0.65207,-5.71053 c -20.25833,-0.24081 -39.75868,0.69787 -59.29917,1.65295 -0.003,1.6e-4 -0.007,3.2e-4 -0.01,4.8e-4 m 3.54828,4.09819 c -19.85557,0.46614 -39.84953,-0.153 -59.56656,-0.90677 -0.003,-1.2e-4 -0.007,-2.5e-4 -0.01,-3.7e-4 m -0.90627,-1.99253 c -19.75745,0.13859 -40.562,0.77919 -61.67598,1.87777 -0.004,1.8e-4 -0.007,3.7e-4 -0.0106,5.5e-4 m -2.80477,-2.63354 c -19.7289,-0.35334 -39.20056,0.33031 -57.64006,0.54208 -0.003,3e-5 -0.006,7e-5 -0.009,1e-4 m -3.07429,2.34539 c -20.12713,0.35856 -39.60978,0.30182 -58.86329,0.47141 -0.003,2e-5 -0.006,5e-5 -0.01,8e-5 m 0.15482,-2.20493 c -20.54383,-0.30636 -39.17967,0.75348 -57.56933,1.82174 -0.003,1.8e-4 -0.006,3.6e-4 -0.009,5.4e-4 m 0.0299,2.06761 c -5.69309,0.10435 -11.44062,0.18221 -17.2103,0.24701 m 493.91729,-6.59631 c -19.99593,0.26979 -39.42339,0.94498 -58.30086,2.41208 -0.003,2.5e-4 -0.006,4.9e-4 -0.009,7.3e-4 m 3.07271,-0.14112 c -20.32429,0.47092 -40.93989,0.15609 -62.81476,0.0495 -0.004,-2e-5 -0.007,-4e-5 -0.0109,-6e-5 m 1.81962,0.0665 c -20.146,0.12438 -39.98389,0.3045 -59.96017,0.44339 -0.003,3e-5 -0.007,5e-5 -0.01,7e-5 m -2.02015,-0.0214 c -19.65415,-0.4424 -39.78546,0.11067 -59.34165,-0.10476 -0.003,-3e-5 -0.007,-7e-5 -0.01,-10e-5 m 1.79116,0.81287 c -20.04279,0.53641 -39.50026,-0.0825 -58.52584,-0.70993 -0.003,-10e-5 -0.006,-2.1e-4 -0.01,-3.1e-4 m -0.26455,1.729 c -19.99159,-0.43772 -40.46475,0.0949 -61.42274,-0.14695 -0.003,-4e-5 -0.007,-8e-5 -0.0105,-1.2e-4 m 2.14423,-1.43657 c -20.00116,0.0494 -41.05134,0.17232 -63.16648,0.0638 -0.004,-2e-5 -0.007,-4e-5 -0.0111,-6e-5 m 0.90795,-2.25828 c -20.26306,0.51312 -39.91629,0.29284 -59.74916,0.45727 -0.003,3e-5 -0.007,5e-5 -0.01,8e-5 m -0.48125,5.46419 c -5.77077,0.12336 -11.55214,0.14683 -17.33415,0.0928 m 496.08243,-7.61282 c -20.49724,-0.39522 -39.89649,1.16013 -59.67874,3.03116 -0.003,3.1e-4 -0.007,6.2e-4 -0.01,9.3e-4 m -1.00489,1.5939 c -20.18812,0.60203 -39.91181,0.0826 -59.74921,-0.18965 -0.003,-5e-5 -0.007,-9e-5 -0.01,-1.4e-4 m 1.34343,-0.17935 c -20.48783,0.39619 -39.78958,0.79023 -59.36937,1.90576 -0.003,1.9e-4 -0.007,3.7e-4 -0.01,5.6e-4 m 0.5511,-4.08744 c -20.51594,-0.316 -39.81333,-0.0737 -59.45373,-0.65325 -0.003,-10e-5 -0.007,-1.9e-4 -0.01,-2.9e-4 m -2.19685,5.49652 c -19.58838,0.27414 -39.18115,-0.0517 -57.52763,-0.5973 -0.003,-9e-5 -0.006,-1.8e-4 -0.009,-2.7e-4 m -2.44135,-0.0414 c -19.78518,-0.41897 -39.45295,0.13184 -58.38534,-0.0485 -0.003,-3e-5 -0.006,-6e-5 -0.009,-9e-5 m -0.11782,-0.85321 c -20.20208,-0.33927 -39.6267,0.38422 -58.86326,0.69676 -0.003,5e-5 -0.006,10e-5 -0.01,1.5e-4 m -2.3738,-1.13687 c -19.95859,-0.007 -39.82759,0.98441 -59.46807,2.49659 -0.003,2.5e-4 -0.007,5e-4 -0.01,7.5e-4 m -2.61586,-0.99597 c -5.85384,0.058 -11.61316,0.15006 -17.28532,0.28136 m 177.95545,-2.57625 -6.4342,0.0476 m -137.70466,1.0178 -5.74047,0.0424 m 52.48821,-0.38795 -5.96546,0.0441 m 346.83438,-2.56353 -7.60604,0.0562 m -163.80233,1.2107 -6.78107,0.0501"
       style="fill:none;stroke:#000000;stroke-width:1;stroke-linecap:butt;stroke-linejoin:miter;stroke-miterlimit:4;stroke-opacity:1;stroke-dasharray:24, 24;stroke-dashoffset:0" />
    <path
       inkscape:original-d="m 847.59279,739.3681 -29.88413,15.91935"
       inkscape:path-effect="#path-effect4906-7-2"
       sodipodi:nodetypes="cc"
       inkscape:connector-curvature="0"
       id="path4904-8"
       d="m 848.72031,742.29685 c -9.66263,5.07908 -19.71461,10.41891 -29.87574,15.79275 m 29.21129,-19.66062 c -10.09607,5.19277 -19.92662,10.55169 -29.62785,15.97232 m 27.71756,-13.62701 c -10.25473,5.19001 -20.14721,10.3462 -29.94967,15.36656 m 32.14083,-15.1975 c -9.65199,5.5338 -19.58688,10.88037 -29.49996,16.2557 m 27.06278,-19.00996 c -10.16472,5.13983 -19.8494,10.3781 -29.24007,15.54806 m 14.27802,-5.49674 -5.67887,3.02515 m -3.26565,1.73962 -5.06659,2.69899 m 7.96751,-4.24432 -5.26516,2.80477 m 26.41776,-14.07281 -6.71315,3.57612 m -3.92358,2.0901 -5.98503,3.18823"
       style="fill:none;stroke:#000000;stroke-width:1;stroke-linecap:butt;stroke-linejoin:miter;stroke-miterlimit:4;stroke-opacity:1;stroke-dasharray:24, 24;stroke-dashoffset:0" />
    <text
       xml:space="preserve"
       style="font-size:79.81760406px;font-style:normal;font-variant:normal;font-weight:normal;font-stretch:normal;line-height:125%;letter-spacing:0px;word-spacing:0px;fill:#000000;fill-opacity:1;stroke:none;font-family:Serif;-inkscape-font-specification:Serif"
       x="753.47009"
       y="-419.28699"
       id="text5123"
       sodipodi:linespacing="125%"
       transform="matrix(0.5,0.8660254,-0.8660254,0.5,0,0)"><tspan
         id="tspan5125"
         sodipodi:role="line"
         x="753.47009"
         y="-419.28699"
         style="font-style:normal;font-variant:normal;font-weight:normal;font-stretch:normal;font-family:Sketch Block;-inkscape-font-specification:Sketch Block">event stream</tspan></text>
    <path
       style="fill:none;stroke:#000000;stroke-width:1;stroke-linecap:butt;stroke-linejoin:miter;stroke-miterlimit:4;stroke-opacity:1;stroke-dasharray:24, 24;stroke-dashoffset:0"
       d="m 831.07817,740.89478 c -19.45412,0.32803 -40.13475,1.467 -60.4705,2.17861 -0.003,1.2e-4 -0.007,2.3e-4 -0.0102,3.5e-4 m 0.88322,-3.47434 c -0.62032,0.0147 -1.24239,0.0298 -1.86614,0.0451 m 59.22635,-1.77715 c -20.50312,0.15484 -39.76497,1.75937 -59.3731,3.06463 -0.003,2.2e-4 -0.007,4.4e-4 -0.01,6.5e-4 m 1.05119,0.67457 c -0.64634,0.0138 -1.29143,0.0282 -1.93527,0.0431 m 60.0069,-3.30205 c -20.35777,1.06774 -39.303,0.5336 -57.95286,-0.57801 -0.003,-1.8e-4 -0.006,-3.7e-4 -0.009,-5.5e-4 m -0.21537,0.23225 c -0.62656,0.0283 -1.2534,0.0565 -1.88052,0.0847 m 60.39672,2.75427 c -19.63642,0.46856 -39.06579,1.5218 -57.26415,2.36135 -0.003,1.4e-4 -0.006,2.8e-4 -0.009,4.2e-4 m -0.51898,-4.88806 c -0.64247,0.0408 -1.28377,0.0806 -1.92394,0.11965 m 60.35615,-0.58298 c -19.39317,0.90408 -39.94855,1.37558 -59.92209,1.91113 -0.003,9e-5 -0.007,1.8e-4 -0.01,2.7e-4 m 0.0588,-1.60683 c -0.62031,0.0301 -1.24164,0.0596 -1.86396,0.0887 m 24.98636,1.07982 -6.43008,0.23516 m -11.79936,0.43152 -5.73678,0.2098 m 11.64903,-0.42602 -5.96164,0.21803 m 49.07179,-1.79464 -7.60117,0.27799 m -14.07707,0.51482 -6.77672,0.24783"
       id="path5146"
       inkscape:connector-curvature="0"
       sodipodi:nodetypes="cc"
       inkscape:path-effect="#path-effect5148"
       inkscape:original-d="m 829.95066,737.96607 -61.86479,2.2625" />
    <path
       inkscape:original-d="m 227.49568,736.55186 -61.86479,2.2625"
       inkscape:path-effect="#path-effect5154"
       sodipodi:nodetypes="cc"
       inkscape:connector-curvature="0"
       id="path5150"
       d="m 228.62319,739.48057 c -19.45412,0.32803 -40.13475,1.467 -60.4705,2.17861 -0.003,1.2e-4 -0.007,2.3e-4 -0.0102,3.5e-4 m 0.88322,-3.47434 c -0.62032,0.0147 -1.24239,0.0298 -1.86614,0.0451 m 59.22635,-1.77715 c -20.50312,0.15484 -39.76497,1.75937 -59.3731,3.06463 -0.003,2.2e-4 -0.007,4.4e-4 -0.01,6.5e-4 m 1.05119,0.67457 c -0.64634,0.0138 -1.29143,0.0282 -1.93527,0.0431 m 60.0069,-3.30205 c -20.35777,1.06774 -39.303,0.5336 -57.95286,-0.57801 -0.003,-1.8e-4 -0.006,-3.7e-4 -0.009,-5.5e-4 m -0.21537,0.23225 c -0.62656,0.0283 -1.2534,0.0565 -1.88052,0.0847 m 60.39672,2.75427 c -19.63642,0.46856 -39.06579,1.5218 -57.26415,2.36135 -0.003,1.4e-4 -0.006,2.8e-4 -0.009,4.2e-4 m -0.51898,-4.88806 c -0.64247,0.0408 -1.28377,0.0806 -1.92394,0.11965 m 60.35615,-0.58298 c -19.39317,0.90408 -39.94855,1.37558 -59.92209,1.91113 -0.003,9e-5 -0.007,1.8e-4 -0.01,2.7e-4 m 0.0588,-1.60683 c -0.62031,0.0301 -1.24164,0.0596 -1.86396,0.0887 m 24.98636,1.07982 -6.43008,0.23516 m -11.79936,0.43152 -5.73678,0.2098 m 11.64903,-0.42602 -5.96164,0.21803 m 49.07179,-1.79464 -7.60117,0.27799 m -14.07707,0.51482 -6.77672,0.24783"
       style="fill:none;stroke:#000000;stroke-width:1;stroke-linecap:butt;stroke-linejoin:miter;stroke-miterlimit:4;stroke-opacity:1;stroke-dasharray:24, 24;stroke-dashoffset:0" />
    <path
       inkscape:original-d="m 231.46338,707.30689 -8.34632,-33.91621"
       inkscape:path-effect="#path-effect5168"
       sodipodi:nodetypes="cc"
       inkscape:connector-curvature="0"
       id="path5156"
       d="m 232.59096,710.2355 c -2.47398,-11.53985 -5.36237,-22.80242 -8.35741,-34.03627 m 7.69297,30.1684 c -2.9211,-11.42257 -5.5598,-22.66827 -8.06536,-33.85186 m 6.15506,36.19717 c -3.08476,-11.42542 -5.78388,-22.88665 -8.39649,-34.49598 m 10.58765,34.66503 c -2.463,-11.07078 -5.22686,-22.34082 -7.95741,-33.57298 m 5.52024,30.81873 c -2.99191,-11.47719 -5.47285,-22.84977 -7.6473,-34.30052 m 4.66457,16.47863 -1.53754,-6.24797 m -0.95796,-3.89276 -1.37176,-5.57432 m 2.18111,8.8632 -1.42553,-5.7928 m 7.32705,29.77426 -1.81757,-7.3859 m -1.15005,-4.67335 -1.62043,-6.58479"
       style="fill:none;stroke:#000000;stroke-width:1;stroke-linecap:butt;stroke-linejoin:miter;stroke-miterlimit:4;stroke-opacity:1;stroke-dasharray:24, 24;stroke-dashoffset:0" />
    <path
       style="fill:none;stroke:#000000;stroke-width:1;stroke-linecap:butt;stroke-linejoin:miter;stroke-miterlimit:4;stroke-opacity:1;stroke-dasharray:24, 24;stroke-dashoffset:0"
       d="m 231.17668,710.23558 c -10.49723,-3.51886 -21.38381,-6.77696 -32.37954,-10.00105 m 31.7151,6.13318 c -10.93068,-3.40517 -21.59583,-6.64418 -32.13167,-9.82148 m 30.22137,12.16679 c -11.08933,-3.40793 -21.81641,-6.84967 -32.45347,-10.42725 m 34.64463,10.5963 c -10.48659,-3.06413 -21.25608,-6.31549 -32.00376,-9.53809 m 29.56659,6.78384 c -10.99933,-3.45811 -21.51861,-6.81777 -31.74388,-10.24574 m 15.38638,5.92142 -6.15468,-1.87647 m -3.53926,-1.07907 -5.49108,-1.67414 m 8.63506,2.6327 -5.7063,-1.73977 m 28.63116,8.72921 -7.27561,-2.21822 m -4.25232,-1.29647 -6.48647,-1.97763"
       id="path5158"
       inkscape:connector-curvature="0"
       sodipodi:nodetypes="cc"
       inkscape:path-effect="#path-effect5170"
       inkscape:original-d="m 230.04917,707.3069 -32.38795,-9.8746" />
    <path
       style="fill:none;stroke:#000000;stroke-width:1;stroke-linecap:butt;stroke-linejoin:miter;stroke-miterlimit:4;stroke-opacity:1;stroke-dasharray:24, 24;stroke-dashoffset:0"
       d="m 227.71944,703.45019 c -14.11792,-14.01635 -29.46235,-27.22178 -44.46189,-40.85455 -0.002,-0.002 -0.005,-0.005 -0.008,-0.007 m 0.88322,-3.47434 c -0.45078,-0.441 -0.90331,-0.8817 -1.35753,-1.32211 m 42.70645,42.63039 c -15.16691,-14.18955 -29.09256,-26.9294 -43.36448,-39.96853 -0.002,-0.002 -0.005,-0.004 -0.007,-0.007 m 1.05119,0.67457 c -0.4768,-0.44189 -0.95235,-0.88324 -1.42666,-1.32409 m 43.48701,41.10549 c -15.02157,-13.27665 -28.63059,-28.15517 -41.94425,-43.61116 -0.002,-0.003 -0.004,-0.005 -0.007,-0.008 m -0.21537,0.23225 c -0.45702,-0.42746 -0.91433,-0.85496 -1.37191,-1.2825 m 43.87683,47.16181 c -14.30022,-13.87582 -28.39338,-27.16697 -41.25554,-40.6718 -0.002,-0.002 -0.004,-0.005 -0.006,-0.007 m -0.51898,-4.88806 c -0.47293,-0.41495 -0.94469,-0.83083 -1.41533,-1.24756 m 43.83626,43.82455 c -14.05697,-13.44029 -29.27615,-27.31318 -43.91348,-41.12202 -0.002,-0.002 -0.005,-0.005 -0.007,-0.007 m 0.0588,-1.60683 c -0.45078,-0.42567 -0.90256,-0.85184 -1.35534,-1.2785 m 18.38459,18.82617 -4.71303,-4.38047 m -8.64854,-8.03827 -4.20487,-3.90817 m 8.53836,7.93587 -4.36969,-4.06135 m 35.96799,33.42999 -5.5714,-5.17827 m -10.31803,-9.58996 -4.96711,-4.61662"
       id="path5160"
       inkscape:connector-curvature="0"
       sodipodi:nodetypes="cc"
       inkscape:path-effect="#path-effect5172"
       inkscape:original-d="M 226.5919,700.52155 181.24706,658.37637" />
    <path
       style="fill:none;stroke:#000000;stroke-width:1;stroke-linecap:butt;stroke-linejoin:miter;stroke-miterlimit:4;stroke-opacity:1;stroke-dasharray:24, 24;stroke-dashoffset:0"
       d="m 241.44737,773.247 c -10.99723,2.54758 -22.40887,5.37244 -33.92716,8.22602 m 33.26271,-12.09389 c -11.44434,2.66486 -22.60628,5.50659 -33.63509,8.41043 m 31.7248,-6.06512 c -11.60801,2.66201 -22.83038,5.28821 -33.96623,7.76631 m 36.15739,-7.59725 c -10.98625,3.01664 -22.27336,5.83403 -33.52716,8.6893 m 31.08998,-11.44356 c -11.51516,2.61024 -22.51934,5.32509 -33.21704,7.96177 m 15.90925,-2.10684 -6.24797,1.53754 m -3.89276,0.95796 -5.57432,1.37176 m 8.8632,-2.18111 -5.7928,1.42553 m 29.77426,-7.32705 -7.3859,1.81757 m -4.67335,1.15005 -6.58479,1.62043"
       id="path5174"
       inkscape:connector-curvature="0"
       sodipodi:nodetypes="cc"
       inkscape:path-effect="#path-effect5180"
       inkscape:original-d="m 240.31986,770.31827 -33.91621,8.34632" />
    <path
       inkscape:original-d="m 240.31986,771.73247 -9.87459,32.38796"
       inkscape:path-effect="#path-effect5182"
       sodipodi:nodetypes="cc"
       inkscape:connector-curvature="0"
       id="path5176"
       d="m 241.44744,774.66127 c -2.99282,10.56858 -6.375,21.39792 -9.86632,32.26127 m 9.20187,-36.12914 c -3.42626,10.68228 -6.587,21.53069 -9.61843,32.44084 m 7.70814,-30.09553 c -3.58493,10.67951 -6.80759,21.32521 -9.94025,31.83507 m 12.1314,-31.66601 c -2.98217,11.0233 -6.24726,21.85937 -9.49052,32.72421 m 7.05335,-35.47847 c -3.49491,10.62933 -6.50979,21.35711 -9.23064,32.01658 m 5.42043,-12.78688 -1.87647,6.15468 m -1.07907,3.53927 -1.67414,5.49108 m 2.63269,-8.63507 -1.73976,5.70631 m 8.7292,-28.63117 -2.21822,7.27562 m -1.29647,4.25231 -1.97762,6.48648"
       style="fill:none;stroke:#000000;stroke-width:1;stroke-linecap:butt;stroke-linejoin:miter;stroke-miterlimit:4;stroke-opacity:1;stroke-dasharray:24, 24;stroke-dashoffset:0" />
    <path
       inkscape:original-d="m 233.53451,775.18974 -42.14518,45.34485"
       inkscape:path-effect="#path-effect5184"
       sodipodi:nodetypes="cc"
       inkscape:connector-curvature="0"
       id="path5178"
       d="m 234.66205,778.11852 c -13.08437,14.24431 -27.39526,29.29956 -41.36126,43.92745 -0.002,0.002 -0.005,0.005 -0.007,0.007 m 0.88322,-3.47434 c -0.41795,0.45687 -0.83764,0.91405 -1.25902,1.37151 m 39.5068,-44.85936 c -14.13338,14.07112 -27.02548,29.59193 -40.26386,44.81347 -0.002,0.003 -0.004,0.005 -0.007,0.008 m 1.05119,0.67456 c -0.44397,0.45598 -0.88668,0.91251 -1.32815,1.36953 m 40.28735,-46.38426 c -13.98802,14.98402 -26.5635,28.36616 -38.84361,41.17083 -0.002,0.002 -0.004,0.004 -0.006,0.006 m -0.21538,0.23225 c -0.42418,0.47042 -0.84865,0.94078 -1.2734,1.41112 m 40.67719,-40.32794 c -13.26668,14.38484 -26.3263,29.35436 -38.15492,44.1102 -0.002,0.002 -0.004,0.005 -0.006,0.007 m -0.51898,-4.88805 c -0.4401,0.48291 -0.87902,0.9649 -1.31683,1.44605 m 40.63661,-43.66519 c -13.02342,14.82036 -27.20906,29.20815 -40.81285,43.65997 -0.002,0.002 -0.005,0.005 -0.007,0.007 m 0.0588,-1.60683 c -0.41794,0.4722 -0.83689,0.9439 -1.25684,1.41512 m 17.10594,-16.1369 -4.38047,4.71304 m -8.03827,8.64854 -3.90817,4.20487 m 7.93587,-8.53836 -4.06135,4.36969 m 33.42999,-35.968 -5.17827,5.5714 m -9.58996,10.31804 -4.61662,4.96711"
       style="fill:none;stroke:#000000;stroke-width:1;stroke-linecap:butt;stroke-linejoin:miter;stroke-miterlimit:4;stroke-opacity:1;stroke-dasharray:24, 24;stroke-dashoffset:0" />
  </g>
</svg>
