<?xml version="1.0" encoding="UTF-8" standalone="no"?>
<!-- Created with Inkscape (http://www.inkscape.org/) -->

<svg
   xmlns:dc="http://purl.org/dc/elements/1.1/"
   xmlns:cc="http://creativecommons.org/ns#"
   xmlns:rdf="http://www.w3.org/1999/02/22-rdf-syntax-ns#"
   xmlns:svg="http://www.w3.org/2000/svg"
   xmlns="http://www.w3.org/2000/svg"
   xmlns:sodipodi="http://sodipodi.sourceforge.net/DTD/sodipodi-0.dtd"
   xmlns:inkscape="http://www.inkscape.org/namespaces/inkscape"
   width="1052.3622"
   height="744.09448"
   id="svg2"
   version="1.1"
   inkscape:version="0.48.4 r9939"
   sodipodi:docname="reactors-cpu2.svg">
  <defs
     id="defs4">
    <inkscape:path-effect
       effect="sketch"
       id="path-effect3781"
       is_visible="true"
       nbiter_approxstrokes="3"
       strokelength="40"
       strokelength_rdm="0;3540803433"
       strokeoverlap="0.3"
       strokeoverlap_rdm="0.3;676846516"
       ends_tolerance="0.1;78838508"
       parallel_offset="2.7;1"
       tremble_size="2.5;1"
       tremble_frequency="1"
       nbtangents="5"
       tgt_places_rdmness="1;1"
       tgtscale="10"
       tgtlength="0"
       tgtlength_rdm="0.3;1" />
    <inkscape:path-effect
       tgtlength_rdm="0.3;1"
       tgtlength="4"
       tgtscale="10"
       tgt_places_rdmness="1;1"
       nbtangents="5"
       tremble_frequency="1"
       tremble_size="1.8;1"
       parallel_offset="1.9;1"
       ends_tolerance="0;1429194784"
       strokeoverlap_rdm="0.1;1"
       strokeoverlap="0"
       strokelength_rdm="0;1"
       strokelength="60"
       nbiter_approxstrokes="5"
       is_visible="true"
       id="path-effect3778"
       effect="sketch" />
    <inkscape:path-effect
       effect="sketch"
       id="path-effect3774"
       is_visible="true"
       nbiter_approxstrokes="5"
       strokelength="60"
       strokelength_rdm="0;1"
       strokeoverlap="0"
       strokeoverlap_rdm="0.1;1"
       ends_tolerance="0;1429194784"
       parallel_offset="1.9;1"
       tremble_size="1.8;1"
       tremble_frequency="1"
       nbtangents="5"
       tgt_places_rdmness="1;1"
       tgtscale="10"
       tgtlength="4"
       tgtlength_rdm="0.3;1" />
    <inkscape:path-effect
       tgtlength_rdm="0.3;1"
       tgtlength="5"
       tgtscale="9.8"
       tgt_places_rdmness="1;1"
       nbtangents="5"
       tremble_frequency="5"
       tremble_size="2.7;1"
       parallel_offset="2.7;1"
       ends_tolerance="0.1;4044545397"
       strokeoverlap_rdm="0.3;1"
       strokeoverlap="0"
       strokelength_rdm="0;1"
       strokelength="100"
       nbiter_approxstrokes="7"
       is_visible="true"
       id="path-effect3772"
       effect="sketch" />
    <inkscape:path-effect
       effect="sketch"
       id="path-effect2994"
       is_visible="true"
       nbiter_approxstrokes="8"
       strokelength="100"
       strokelength_rdm="0;1"
       strokeoverlap="0"
       strokeoverlap_rdm="0.1;2173367531"
       ends_tolerance="0.1;1"
       parallel_offset="2.6;1"
       tremble_size="2.6;1"
       tremble_frequency="3.5"
       nbtangents="5"
       tgt_places_rdmness="1;1"
       tgtscale="9.8"
       tgtlength="5"
       tgtlength_rdm="0.3;1" />
    <marker
       inkscape:stockid="Arrow2Mend"
       orient="auto"
       refY="0.0"
       refX="0.0"
       id="Arrow2Mend"
       style="overflow:visible;">
      <path
         id="path3849"
         style="fill-rule:evenodd;stroke-width:0.62500000;stroke-linejoin:round;"
         d="M 8.7185878,4.0337352 L -2.2072895,0.016013256 L 8.7185884,-4.0017078 C 6.9730900,-1.6296469 6.9831476,1.6157441 8.7185878,4.0337352 z "
         transform="scale(0.6) rotate(180) translate(0,0)" />
    </marker>
  </defs>
  <sodipodi:namedview
     id="base"
     pagecolor="#ffffff"
     bordercolor="#666666"
     borderopacity="1.0"
     inkscape:pageopacity="0.0"
     inkscape:pageshadow="2"
     inkscape:zoom="1"
     inkscape:cx="634.67939"
     inkscape:cy="446.60028"
     inkscape:document-units="px"
     inkscape:current-layer="layer1"
     showgrid="false"
     inkscape:window-width="1596"
     inkscape:window-height="864"
     inkscape:window-x="0"
     inkscape:window-y="16"
     inkscape:window-maximized="0" />
  <metadata
     id="metadata7">
    <rdf:RDF>
      <cc:Work
         rdf:about="">
        <dc:format>image/svg+xml</dc:format>
        <dc:type
           rdf:resource="http://purl.org/dc/dcmitype/StillImage" />
        <dc:title></dc:title>
      </cc:Work>
    </rdf:RDF>
  </metadata>
  <g
     inkscape:label="Layer 1"
     inkscape:groupmode="layer"
     id="layer1"
     transform="translate(0,-308.2677)">
    <path
       style="fill:#d40000;fill-opacity:0;stroke:#000000;stroke-width:1;stroke-miterlimit:4;stroke-dasharray:24,24;stroke-dashoffset:0;stroke-opacity:1"
       d="m 83.231281,631.36624 c 10.28407,-0.58127 18.794329,0.002 27.809059,-0.0197 9.0179,-0.0221 18.61761,-0.43624 27.29175,-1.3 8.67413,-0.86375 19.54852,0.17896 30.05423,0.54844 0,0 0,0 10e-6,0 5.25653,0.18487 9.82122,0.13823 14.06588,4e-5 m -0.64439,-6.76498 c 8.77042,-0.83105 19.32745,0.42678 29.39502,1.26025 1e-5,0 1e-5,0 1e-5,0 10.0711,0.83376 19.36442,0.31268 29.54642,0.93438 10.182,0.6217 18.60907,-0.37666 27.27143,-1.11719 0,0 0,0 0,0 4.33421,-0.37052 9.38766,-0.47534 14.83955,-0.59531 m -1.8444,6.05988 c 8.98043,0.48571 20.00155,-1.33888 31.44637,-4.00207 0,0 0,0 10e-6,0 11.44882,-2.66412 17.45139,0.30476 23.79798,0.91406 6.34659,0.60931 19.93161,-0.24822 31.21205,-0.75156 0,0 0,0 0,0 5.64417,-0.25185 10.45036,-0.13344 15.07736,0.16671 m -0.86237,5.17508 c 1.27836,-0.0483 2.56153,-0.0829 3.85261,-0.10611 0.52418,8.14698 1.4182,16.82345 3.66986,25.26838 0,0 0,0 0,0 2.58179,9.68306 -0.25776,18.35706 -0.75156,26.47924 -0.4938,8.12218 -0.28106,18.50717 -0.83281,26.92612 -0.27607,4.21242 -0.11817,9.15225 0.26372,14.40742 m -2.15189,-0.0505 c 0.85165,9.77047 0.0204,18.91195 0.0397,28.15492 0,0 0,0 0,0 0.0193,9.24621 -0.81778,18.31413 -2.47813,26.35736 -1.66034,8.04323 -0.0611,18.53615 -0.20312,27.02768 0,0 0,0 0,0 -0.0711,4.24874 -0.18634,8.97067 -0.40165,13.77728 m 2.69674,5.21008 c -0.20928,9.00571 0.34592,17.49157 1.05647,23.8901 0,0 0,0 0,0 0.7108,6.40077 -0.72773,20.45967 -2.17344,32.79643 -1.4457,12.33675 0.50883,18.78558 1.52344,27.79954 0,1e-5 0,1e-5 0,1e-5 0.50766,4.51014 0.33758,9.26904 -0.12609,14.08727 m -1.35703,1.59021 c -0.29015,10.0075 0.69495,19.57909 2.0925,30.1656 1.39804,10.59022 0.34869,19.35589 1.03594,29.48549 0.68724,10.1296 0.0236,17.92322 0.0812,25.17922 0,0 0,0 1e-5,0 0.0289,3.6306 -0.0846,8.4383 -0.3189,13.5695 m 0.70414,0.8885 c -0.0862,1.2228 -0.17386,2.4386 -0.26735,3.6459 -8.88848,-0.2843 -18.03338,-0.9368 -28.72668,-2.3727 -1e-5,0 -1e-5,0 -1e-5,0 -12.31434,-1.6537 -18.03294,-0.4625 -25.50424,-1.3813 -7.4713,-0.9188 -20.01672,0.2806 -31.49642,0.8532 0,0 0,0 0,0 -5.74387,0.2865 -10.24806,0.1967 -14.24655,-0.055 m -1.51143,2.0247 c -9.29077,-0.2032 -19.18307,-0.5982 -28.98823,-1.8076 -9.80859,-1.2098 -19.21513,-0.7804 -29.05893,-2.3157 -9.8438,-1.5352 -18.58787,0.3997 -27.16986,1.1782 0,0 0,0 0,0 -4.294,0.3895 -9.24421,0.6241 -14.4969,0.9974 m 0.66894,-1.5056 c -8.97266,-0.303 -18.57041,1.6247 -27.14012,4.8754 -1e-5,0 -1e-5,0 -1e-5,0 -8.57271,3.2518 -18.61076,-0.054 -27.27142,-0.1626 -8.66066,-0.1083 -18.77171,-1.4482 -27.75893,-4.3671 0,0 0,0 0,0 -4.49676,-1.4605 -9.309527,-1.1392 -14.23939,-0.1303 m -1.762924,1.5521 c -4.800845,-0.013 -9.548317,0.086 -14.355752,0.2857 -0.176894,-4.6709 -0.420167,-9.23 -0.86182,-13.6901 -0.861725,-8.7022 0.225942,-19.14763 0.670312,-28.85581 0.44437,-9.70818 0.239011,-19.18473 0.73125,-28.95737 0.246292,-4.88974 0.297057,-9.58117 0.339689,-14.16905 m -0.908354,-0.10572 c 0.08046,-8.9255 -0.921631,-18.77388 -2.762585,-27.76987 0,0 -10e-7,0 -10e-7,-10e-6 -1.841597,-8.99913 0.628403,-20.19324 1.889064,-32.02454 1.26066,-11.83131 -0.748582,-19.35793 -2.234375,-29.48549 0,0 0,0 0,-10e-6 -0.743417,-5.06732 -0.659041,-9.68683 -0.306412,-14.08501 m 3.17024,8.48386 c -0.222652,-8.74981 0.564637,-18.84067 1.686171,-27.97318 10e-7,0 10e-7,0 10e-7,0 1.121927,-9.1357 0.204952,-19.69613 0.609374,-30.52142 0.404423,-10.8253 -0.06764,-18.89182 -0.182812,-28.10424 0,0 0,0 0,-10e-6 -0.05763,-4.60943 -0.200804,-9.46973 -0.474109,-14.46384 m -3.304648,0.4733 c -0.60141,-9.06179 0.201125,-20.36457 0.610007,-32.52285 0,0 0,0 0,0 0.409025,-12.16254 0.05803,-18.84497 0.1625,-27.94174 0.104475,-9.09677 1.138311,-18.9988 3.392186,-28.42924 10e-7,0 10e-7,0 10e-7,0 1.127728,-4.71852 1.101579,-9.23797 0.76589,-13.52077 m -4.402026,-1.11994 c -0.09275,-4.52586 0.03788,-9.19587 0.322356,-13.90095 5.140071,-0.0309 10.445391,-0.0996 15.838581,-0.0844 2e-6,0 3e-6,0 5e-6,0 10.600845,0.0297 18.674611,-1.70754 27.474551,-5.09844 8.79993,-3.3909 19.08709,0.0882 28.71361,0.28437 0,0 0,0 0,1e-5 4.81663,0.0981 9.87464,0.26378 15.21075,0.57124 m -78.185264,3.0438 c 10.332256,-0.55354 20.042334,1.00641 31.546514,3.00683 0,0 0,0 0,0 11.50821,2.00112 19.37113,0.12248 29.54643,0.34531 10.1753,0.22283 17.94397,-1.30501 25.26049,-3.92031 0,0 0,0 0,0 3.66082,-1.30857 8.63158,-1.07186 14.08079,-0.2704 m -0.82175,2.30198 c 8.82508,0.31728 20.15492,-0.56481 31.91373,-1.70658 11.76292,-1.14217 17.68208,-0.19656 24.48861,-0.56875 6.80654,-0.37219 19.89587,0.75752 31.1308,2.29531 0,0 0,0 1e-5,0 5.6214,0.76944 10.50923,0.72305 15.30734,0.43884 m 1.03983,-0.70209 c 9.4256,0.77006 18.67478,-0.66523 27.48497,-2.01175 0,0 0,0 0,0 8.81328,-1.34699 18.78173,-0.0559 27.75893,-0.14218 8.9772,-0.0863 19.35149,-0.2661 29.5058,-0.79219 0,0 0,0 0,0 5.08071,-0.26323 9.88059,-0.23561 14.63514,-0.11785 m 1.18394,3.02312 c 0.24913,0.0148 0.49884,0.0284 0.74913,0.0409 -0.0222,9.73077 0.74901,17.91846 2.11613,26.10167 0,0 0,0 0,0 1.4046,8.40764 -0.3787,18.76317 -1.1375,27.7183 -0.75881,8.95513 0.2235,19.26259 0.67031,29.24174 0,0 0,0 0,0 0.22356,4.99307 0.0518,9.68607 -0.34938,14.25145 m -3.04245,3.59816 c 0.34472,8.76308 0.006,18.4915 0.0199,26.91691 0.0136,8.42836 -1.52966,18.86765 -4.59062,28.02299 -3.06096,9.15534 1.51775,20.02492 4.52969,31.51674 1.50702,5.74993 1.31684,10.2751 0.56277,14.31308 m -1.25376,-6.55865 c -0.33812,8.89196 -0.25692,19.13769 -0.79183,28.84646 0,10e-6 0,10e-6 0,10e-6 -0.53509,9.71217 0.44925,20.10109 1.34063,31.71986 0.89138,11.61877 0.25796,18.17411 0.75156,25.97143 0,0 0,0 0,0 0.24697,3.90138 0.003,8.67543 -0.54494,13.6763 m 0.40206,7.56642 c -0.66274,9.64848 -0.51371,18.43312 -1.54306,26.73317 0,0 0,0 0,10e-6 -1.02971,8.30296 0.72848,19.22345 2.19375,29.07923 1.46528,9.85579 0.11565,18.74141 0.34531,27.65741 0,0 0,0 0,0 0.11492,4.461 6e-5,9.154 -0.25899,13.8523 m -1.30581,-1.6078 c -0.0214,0.2976 -0.0412,0.5952 -0.0595,0.8929 -9.82345,0.3484 -18.09427,0.7202 -26.74696,2.0797 -1e-5,0 -1e-5,0 -1e-5,0 -8.92459,1.4021 -19.15358,-0.8882 -28.87611,-2.6407 -9.72253,-1.7524 -18.07336,0.5282 -25.62611,1.6047 0,0 -1e-5,0 -1e-5,0 -3.77902,0.5386 -8.48043,0.4052 -13.36369,0.01 m -9.38193,0.6238 c -9.43251,-0.3245 -18.89964,-0.018 -28.15527,-0.061 -9.25887,-0.043 -17.87078,-0.5013 -25.01674,-1.5031 -7.14596,-1.0019 -19.66444,-0.5863 -30.39955,-1.7469 0,0 0,0 0,0 -5.37132,-0.5808 -10.32352,-0.2824 -15.31296,0.462 m 0.87549,1.9755 c -9.10146,0.01 -19.10826,-0.6163 -28.76499,-1.8485 -9.66011,-1.2325 -18.86778,-0.3591 -28.02299,-1.0562 -9.1552,-0.6971 -18.51434,0.1253 -26.946425,0.3656 -10e-7,0 -3e-6,0 -4e-6,0 -4.218992,0.1202 -9.284116,-0.019 -14.783358,-0.3272 m -1.909175,0.5504 c -3.654822,-0.086 -7.289595,0.043 -10.893654,0.3463 0.114016,-5.3619 0.305683,-10.281 0.617864,-14.9146 10e-7,0 10e-7,0 10e-7,0 0.508691,-7.5503 0.425751,-18.66618 1.3,-27.41357 0.874248,-8.7474 -0.793948,-20.06927 -2.376562,-31.63861 -10e-7,-10e-6 -10e-7,-10e-6 -10e-7,-10e-6 -0.791861,-5.78872 -0.468954,-10.3647 0.376107,-14.49466 m 4.722181,4.30136 c -0.142225,-10.19633 -0.409709,-18.96971 -1.238913,-28.35759 -0.829494,-9.39117 0.513567,-19.35962 1.523437,-29.48549 1.009871,-10.12588 -0.96281,-18.76602 -2.864061,-27.7183 0,0 -10e-7,-10e-6 -10e-7,-10e-6 -0.951291,-4.47927 -0.864516,-9.28368 -0.456176,-14.20102 m 1.288761,-2.53253 c -0.217328,-9.83848 -1.486947,-19.52006 -4.468523,-30.00328 0,0 -10e-7,0 -10e-7,0 -2.982617,-10.48689 -0.02708,-19.00476 -0.08125,-28.42924 -0.05417,-9.42448 1.233511,-18.82242 3.717186,-27.90111 0,0 10e-7,0 10e-7,-10e-6 1.242707,-4.54252 1.024935,-9.38753 0.277372,-14.37038 m 1.143665,-0.63666 c -0.796934,-9.89916 0.896702,-19.28632 2.682088,-29.3126 0,0 10e-7,0 10e-7,0 1.786009,-10.02979 -0.426496,-17.67138 -1.279688,-24.42768 -0.853193,-6.7563 0.338947,-19.57323 1.015624,-30.15579 0,-10e-6 0,-10e-6 0,-10e-6 0.338576,-5.29499 0.284825,-10.06457 0.09449,-14.70971 m -4.787497,-1.57655 c -0.305365,-3.68286 -0.202776,-7.47583 0.167317,-11.36438 6.387982,-0.27679 13.43114,-0.78769 20.59112,-1.47701 2e-6,-10e-6 4e-6,-10e-6 6e-6,-10e-6 11.73916,-1.13018 17.69047,0.76992 24.50892,2.31563 6.81846,1.54571 19.45347,0.38838 29.81049,1.17813 5.18214,0.39515 10.00131,0.14717 14.7732,-0.44683 m -81.312039,0.14256 c 10.081287,0.39877 18.776119,-0.0163 27.788959,-0.041 1e-5,0 1e-5,0 1e-5,0 9.01599,-0.0247 18.69668,0.13197 27.51517,0.38594 8.81849,0.25397 20.2575,0.0575 32.20736,0.1625 1e-5,0 1e-5,0 1e-5,0 5.97911,0.0525 10.50765,0.0285 14.50019,-0.0348 m 3.43096,-3.23468 c 9.04058,0.75724 19.03332,0.32464 28.54162,0.97421 9.51162,0.64979 18.16165,-0.64621 25.89018,-1.92969 7.72852,-1.28348 18.57419,0.0869 27.14954,0.28437 1e-5,0 1e-5,0 1e-5,0 4.29068,0.0988 9.33205,0.34319 14.7659,0.80425 m 2.21062,2.64853 c 9.0949,-0.33061 19.3841,0.83151 29.5775,2.49879 10.19696,1.66786 18.81923,-0.81243 27.86049,-2.41719 9.04125,-1.60476 18.26267,0.79632 26.19486,2.37656 0,0 0,0 0,0 3.96888,0.79068 8.95324,0.7747 14.35767,0.54361 m 1.88816,-4.30065 c 0.5698,0.0436 1.13881,0.084 1.7071,0.12158 0.0779,9.55459 -0.0251,18.40425 -0.0373,28.39421 -0.0131,10.62204 -0.52833,19.05507 -1.56407,28.61205 -1.03573,9.55699 0.31505,19.05114 0.93438,28.59174 0,0 0,0 0,0 0.30988,4.77364 0.55676,9.435 0.97649,13.9911 m -2.0535,-4.85424 c -0.42531,10.00759 0.72631,19.71502 2.17389,30.59216 0,0 0,10e-6 0,10e-6 1.44807,10.88095 -0.75252,18.88667 -2.25469,28.10423 -1.50218,9.21757 0.98421,19.03672 2.96562,28.55111 0,10e-6 0,10e-6 0,10e-6 0.9914,4.76053 0.87165,9.50241 0.38848,14.22155 m -1.50618,3.91311 c -0.48657,9.40537 0.10337,18.755 0.3052,27.68811 0,0 0,0 0,0 0.20191,8.93624 -1.00418,19.2957 -3.00625,29.30268 -2.00207,10.00697 0.29054,20.04035 0.87344,31.55736 0,0 0,0 0,0 0.29165,5.76254 0.3891,10.35111 0.50984,14.51171 m -1.60672,-5.37554 c -0.006,9.35807 0.94175,18.76725 2.84376,27.72879 1.90267,8.96467 -0.86728,18.47297 -2.57969,26.82455 -1.71242,8.35158 0.13331,20.13034 0.40625,31.84172 0,0 0,0 0,0 0.13656,5.8598 0.067,10.7633 -0.10355,15.5299 m -0.44517,3.0116 c -0.017,0.6243 -0.0302,1.24 -0.0397,1.8472 -9.06281,0.1178 -17.31915,-1.6285 -25.44383,-4.2341 -8.67353,-2.7816 -19.61061,0.4168 -30.23705,1.2391 -10.62644,0.8223 -18.61727,0.2761 -27.29174,0.8125 -4.34028,0.2684 -9.06952,0.1238 -13.86706,-0.2292 m 2.47628,-1.9037 c -9.27676,-0.1139 -18.4858,1.5223 -26.87574,4.5501 -8.39288,3.0288 -20.2183,-0.7328 -32.06518,-2.2141 -11.84688,-1.4812 -18.92601,-0.1522 -28.22611,-0.4469 0,0 -1e-5,0 -1e-5,0 -4.6533,-0.1474 -9.50975,-0.2378 -14.48333,-0.3809 m -2.12819,-6.3224 c -9.6961,-0.1746 -18.88595,1.5998 -28.11437,4.7736 -9.23165,3.175 -18.85851,-0.8248 -27.98237,-2.4781 -9.12385,-1.6532 -18.89283,0.1214 -28.12454,0.386 -1e-5,0 -1e-5,0 -1e-5,0 -4.619088,0.1323 -9.241075,0.2919 -13.757647,0.5751 m 2.062822,3.4065 c -3.634296,0.1529 -7.541757,0.199 -11.534145,0.2203 -0.0057,-5.5026 -0.174844,-11.0528 -0.005,-16.4314 0,0 0,0 0,0 0.29243,-9.2593 -0.468068,-18.48982 -1.401563,-26.88547 -0.933495,-8.39566 -0.922526,-20.26786 -2.762499,-32.24799 0,0 -1e-6,0 -1e-6,-10e-6 -0.920631,-5.99425 -0.615178,-10.35012 0.225378,-13.99319 m 2.354721,-1.94797 c 0.39182,-9.65531 -0.288775,-18.54139 -0.853536,-27.07848 -10e-7,0 -10e-7,0 -10e-7,0 -0.564959,-8.54008 -0.425004,-18.50961 -1.259375,-26.94643 -0.83437,-8.43682 1.158829,-18.60243 3.493749,-27.21048 10e-7,0 10e-7,-10e-6 2e-6,-10e-6 1.168277,-4.30704 1.217955,-9.11177 1.02446,-14.06978 m -3.157053,0.62677 c 0.209837,-9.92614 0.440319,-19.21561 1.29978,-29.08913 0,0 0,0 0,-10e-6 0.859761,-9.87697 -1.224846,-18.50175 -3.696875,-26.94642 -2.472029,-8.44467 1.258292,-19.05283 3.798436,-28.59174 10e-7,0 10e-7,0 10e-7,0 1.270962,-4.77279 1.093919,-9.75 0.423226,-14.93715 m -3.958232,-1.16572 c -0.600674,-8.89154 1.253647,-18.54483 3.778757,-27.07927 0,0 0,-10e-6 10e-7,-10e-6 2.525991,-8.53743 -1.031741,-19.0875 -3.087501,-28.71361 -2.055761,-9.62611 1.280364,-19.51467 3.859373,-29.95267 10e-7,0 10e-7,-10e-6 2e-6,-10e-6 1.290407,-5.22266 1.050802,-9.97913 0.249889,-14.61547 m -4.434158,0.807 c 0.04261,-4.12986 -0.09722,-8.14757 -0.396612,-12.108 5.08738,0.0871 9.877122,0.28099 14.427556,0.44194 7.884862,0.27889 19.355421,-1.192 29.505801,-3.575 10.15038,-2.38299 19.91713,0.5611 31.17143,1.66563 5.63109,0.55265 10.34636,0.43613 14.79642,0.0668 m -86.950284,-0.51287 c 9.168183,0.77682 17.859869,-0.66354 25.027424,-1.99144 0,0 0,0 0,0 7.17007,-1.32837 19.94787,0.10312 31.2933,0.28437 11.34543,0.18126 18.40994,0.40476 26.68236,1.23906 1e-5,0 1e-5,0 1e-5,0 4.13911,0.41745 8.93192,0.6125 13.90816,0.89806 m 3.10886,-0.53212 c 8.9797,0.29104 18.96666,0.58883 28.35887,1.78719 9.3955,1.19877 18.01216,0.0991 25.48393,0.28437 7.47177,0.18526 19.23476,-0.96809 29.14017,-2.88437 10e-6,0 10e-6,0 10e-6,0 4.95617,-0.95881 9.93852,-0.76005 15.08749,-0.12349 m -2.21425,-0.97407 c 8.94686,-0.65541 20.33731,0.31046 32.44171,0.91475 10e-6,0 10e-6,0 10e-6,0 12.10864,0.6045 19.01369,0.65562 28.44955,1.99062 9.43585,1.33501 18.41116,-0.87756 26.68236,-2.64062 0,0 0,0 0,0 4.1385,-0.88215 8.76564,-0.8978 13.41002,-0.70798 m -2.01943,5.11666 c 2.7172,0.24583 5.61725,0.20644 8.66705,-0.0517 0.48821,6.07187 1.80332,10.93591 3.51576,15.45488 2.44204,6.4443 -0.0574,19.35075 -0.18281,29.46518 -0.1254,10.11443 -1.20636,19.44743 -3.59531,29.76986 0,0 0,0 0,0 -1.19532,5.16483 -0.9162,10.03792 -0.0583,14.91737 m 0.87113,-3.14115 c 0.33793,8.81167 -0.0326,20.31293 -0.0816,32.36061 -1e-5,10e-6 -1e-5,10e-6 -1e-5,10e-6 -0.049,12.0519 -0.23041,17.39675 -0.67031,23.59486 -0.4399,6.19811 0.47416,19.17782 1.44219,28.95736 0,0 0,10e-6 0,10e-6 0.48435,4.89319 0.61631,9.97556 0.75953,15.34284 m 2.45005,0.51681 c 0.19647,9.39836 0.65207,18.40471 1.92948,26.65218 1.27786,8.25035 -0.64499,19.03563 -1.90937,28.5308 -1.26439,9.49517 -0.007,19.80432 -0.0203,30.84642 0,1e-5 0,1e-5 0,1e-5 -0.007,5.52491 -0.0785,10.38431 -0.21932,15.15164 m 5.13429,-2.05431 c -0.62277,9.568 -1.3382,19.34933 -4.00091,29.49575 -2.66365,10.14998 -0.14916,18.83359 -0.42657,27.92143 -0.2774,9.08783 0.69632,19.57872 2.09219,30.17608 0,0 0,0 0,0 0.69843,5.3024 0.89348,9.695 1.11135,13.5828 m -5.09227,-4.5887 c 0.0941,2.8393 0.18118,5.798 0.28725,8.8654 -6.39771,0.4371 -12.69426,1.4532 -18.5698,2.917 -8.42416,2.0988 -18.9548,-0.8738 -28.30737,-2.6406 -9.35257,-1.7668 -18.26992,1.2946 -26.2558,3.8797 0,0 0,0 0,0 -3.99574,1.2934 -8.92065,1.0669 -14.19711,0.2921 m -2.92185,2.7138 c -9.33905,-0.2843 -20.55895,-0.5984 -33.13194,-1.7872 -12.57738,-1.1891 -18.89927,0.5351 -28.12455,1.5844 -9.22528,1.0493 -18.53452,0.7029 -27.04799,2.0922 0,0 0,0 0,0 -4.25971,0.6951 -9.16952,0.6438 -14.34955,0.3681 m 2.95935,-8.27 c -8.73637,-0.3437 -18.94192,1.5434 -28.27788,4.6113 0,0 -1e-5,0 -1e-5,0 -9.33923,3.0689 -19.06441,-0.4339 -28.63236,-1.3 -9.56795,-0.8662 -19.96648,-0.422 -31.33392,-1.2797 0,0 0,0 -1e-5,0 -5.68769,-0.4292 -10.591589,-0.456 -15.406579,-0.4002 m 7.16368,4.0361 c -6.46284,0.017 -12.824584,-0.4078 -19.342949,-1.2527 -0.130547,-3.6922 -0.303308,-7.4975 -0.554346,-11.4127 -0.734838,-11.4605 0.475041,-19.12491 1.421875,-28.79484 0.946833,-9.66992 -0.0111,-18.48604 -0.02031,-26.88548 0,-10e-6 0,-10e-6 0,-10e-6 -0.0046,-4.20266 -0.365386,-8.77853 -1.086201,-13.30495 m -2.00098,0.22817 c 0.304319,-9.35152 0.234449,-19.06329 0.690305,-28.62255 10e-7,0 10e-7,0 10e-7,0 0.456016,-9.56261 -0.02106,-19.61143 -0.04062,-30.25736 -0.01957,-10.64594 -0.974528,-19.52307 -2.945312,-29.9933 0,0 -10e-7,-1e-5 -10e-7,-1e-5 -0.986082,-5.23878 -1.069807,-9.90868 -0.989736,-14.36802 m 3.548585,-2.12121 c -0.500627,-9.29727 -0.660223,-18.81638 -1.969786,-27.91166 -10e-7,0 -10e-7,0 -10e-7,-10e-6 -1.31002,-9.09846 0.647021,-18.12786 1.929688,-25.80892 1.282667,-7.68106 0.258511,-19.23212 0.771875,-29.14017 0,0 0,-10e-6 0,-10e-6 0.256862,-4.95749 0.09201,-9.6883 -0.301272,-14.33741 m -6.198188,-2.13104 c 0.513731,-8.85761 0.06803,-18.33671 0.202585,-26.42932 0,0 0,0 0,0 0.134605,-8.09544 1.233308,-19.54223 3.696875,-30.05424 2.463567,-10.51201 -1.17027,-18.55273 -3.514061,-27.08861 -10e-7,0 -10e-7,0 -10e-7,0 -1.172717,-4.27093 -0.987233,-9.42935 -0.321623,-15.10464 m 3.369272,-1.48629 c 0.488407,-6.23978 0.96351,-12.17425 2.064704,-17.72063 3.77981,0.38617 7.72279,0.87349 11.91401,1.47297 12.405478,1.77436 18.717128,-0.57837 27.555808,-1.72657 8.83866,-1.1482 17.83055,-0.70417 24.89486,-2.13281 0,0 0,0 0,0 3.53463,-0.71482 8.57002,-0.66376 14.17973,-0.38324 m -76.54794,4.46668 c 8.898804,0.60128 19.263508,-0.39408 29.23239,-1.15844 10e-6,0 10e-6,0 10e-6,0 9.97237,-0.76463 18.58801,0.63639 27.16986,1.88906 8.58185,1.25268 18.96467,-0.85373 28.30736,-2.55937 0,0 10e-6,0 10e-6,0 4.67461,-0.85342 9.66387,-0.93998 14.89685,-0.89958 m 3.84812,3.62061 c 10.2971,-0.8046 18.09866,-0.39017 25.71686,-1.15697 7.62087,-0.76707 20.12404,0.24043 31.82143,0.71094 11.69737,0.4705 18.84693,0.56536 27.98236,1.70625 0,0 0,0 0,0 4.57092,0.57084 9.07788,0.62746 13.37608,0.59951 m 1.24393,-6.49063 c 8.8447,-0.47251 19.21661,0.88627 29.11057,2.66143 9.89742,1.77579 18.61517,-0.64709 27.27143,-1.95 8.65626,-1.30291 18.79188,0.33231 27.77924,0.99531 0,0 0,0 0,0 4.49683,0.33173 9.39471,0.41495 14.48915,0.49567 m -0.82275,4.09574 c 1.75897,0.13231 3.53371,0.1791 5.33026,0.15302 0.46284,7.70398 1.38967,13.85755 3.37361,19.70338 0,0 0,0 0,10e-6 2.41489,7.11562 -0.832,18.73534 -2.49844,27.61673 -1.66643,8.8814 0.95334,19.48122 2.88438,29.89174 0,0 0,0 0,0 0.9662,5.20891 0.95886,10.1014 0.70092,15.00751 m -1.96027,-1.19893 c 0.0269,9.86549 -0.25689,19.47701 -0.7719,29.88138 0,0 0,0 0,10e-6 -0.51519,10.408 0.72502,19.89525 2.19375,31.11048 1.46873,11.21523 -0.67194,17.65249 -2.03125,24.36674 0,0 0,0 0,0 -0.68013,3.35948 -0.77812,8.15967 -0.8071,13.34722 m 3.06169,2.73565 c -0.0944,9.18989 0.25723,19.90951 0.77197,31.14146 0.51492,11.23589 -1.40894,18.3878 -4.20469,26.60112 -2.79574,8.21331 1.05328,19.4261 3.16875,29.68861 0,0 0,0 10e-6,0 1.05847,5.13485 0.85599,9.8296 0.19009,14.36295 m -0.85959,-4.86156 c 0.77716,8.97341 -0.18424,19.62708 -0.56957,30.32919 -0.38546,10.70587 -0.47971,19.60304 -1.4625,30.23706 -0.98278,10.63402 1.19566,18.02258 3.59531,25.48388 0,0 0,0 10e-6,0 1.20066,3.7333 1.09461,8.681 0.58377,14.07 m -6.04828,4.1253 c -0.0762,1.6546 -0.1041,3.3317 -0.0913,5.0235 -7.73087,-0.1814 -14.63843,-0.065 -21.40453,-0.3548 0,0 0,0 0,0 -8.27378,-0.3538 -19.22034,-0.5628 -29.09955,-1.7062 -9.87921,-1.1434 -18.97178,-0.064 -28.3683,-0.1828 0,0 0,0 0,0 -4.70155,-0.059 -9.81192,0.1953 -15.28179,0.7163 m 2.5101,-0.8999 c -8.95982,-0.7298 -19.53142,0.3189 -30.04483,0.9758 -10.51709,0.6571 -19.86161,-0.3782 -31.02924,-1.1375 -11.16763,-0.7594 -18.69066,-0.1137 -27.47455,-0.3657 0,0 -1e-5,0 -1e-5,0 -4.39502,-0.126 -9.04279,-0.1333 -13.66641,-0.1181 m -0.6704,0.3215 c -9.97303,0.2369 -18.61295,0.4563 -27.30158,1.3607 -8.69167,0.9047 -18.76656,0.1 -27.73862,0.325 -8.97205,0.2251 -19.05263,0.9273 -28.59174,2.8031 -4.77289,0.9386 -9.645626,0.6913 -14.622882,-0.036 m -0.36263,-5.3682 c -4.699311,-0.3379 -9.830424,-0.1775 -15.02483,0.1887 -0.06299,-4.0848 -0.172699,-8.0179 -0.09548,-11.9846 0.167171,-8.5873 0.522168,-18.76566 1.584375,-27.71835 1.062207,-8.95269 0.288032,-20.04144 0.873437,-31.57768 0.292908,-5.77215 -0.0065,-10.54269 -0.676898,-15.06647 m -0.195651,4.10163 c 0.845204,-9.87919 0.470898,-19.74137 1.420987,-30.65324 0,0 0,0 0,0 0.950421,-10.91569 -1.195392,-19.63607 -3.595312,-30.3183 -2.399922,-10.68223 0.443827,-18.72939 1.320312,-27.61674 0.438549,-4.44679 0.467042,-9.19098 0.414875,-13.99225 m -6.163987,3.23095 c -0.642049,-9.47992 0.08057,-19.04385 0.264737,-28.58178 0,0 0,-10e-6 0,-10e-6 0.184233,-9.54127 0.08714,-18.54854 0.284375,-27.0683 0.197233,-8.51976 0.365288,-19.03996 1.117187,-28.55111 0,0 0,0 0,0 0.376213,-4.75891 0.354168,-9.80909 0.216038,-15.14555 m 1.77409,-3.23249 c -0.47307,-9.05363 0.08438,-18.3622 0.26456,-26.55098 0,0 0,0 0,0 0.180239,-8.19165 0.589538,-19.48509 1.7875,-29.89174 1.197962,-10.40666 -0.780136,-18.68605 -2.356249,-27.47455 0,0 -10e-7,0 -10e-7,-1e-5 -0.788608,-4.39732 -0.574442,-9.32626 0.05271,-14.51196 m 0.41522,-1.57062 c 0.381042,-4.83121 0.566536,-10.05702 0.890616,-15.38763 4.637689,-0.1469 9.374597,-0.36883 14.413133,-0.49025 0,0 10e-7,0 2e-6,0 10.997206,-0.26501 19.038206,-0.74026 28.551116,-2.23438 9.5129,-1.49412 17.86773,1.36121 25.05736,4.0625 0,0 0,0 0,0 3.59734,1.35159 8.41006,1.28613 13.56221,0.82143 m -78.218109,-0.13025 c 8.716879,0.52742 20.075483,0.30929 31.670089,0.91351 11.59866,0.60443 18.32104,-0.34287 26.39799,-1.01563 8.07695,-0.67275 20.17895,-0.64884 31.98392,-1.92968 0,0 0,0 1e-5,0 5.90661,-0.64087 10.69907,-0.66897 15.23326,-0.56602 m -6.21964,3.5309 c 8.71657,-0.70314 19.63825,-0.30423 30.34977,-0.93363 0,0 0,0 10e-6,0 10.71527,-0.62962 19.62943,0.82231 30.33861,2.45781 10.70917,1.6355 18.3555,-1.20054 26.47923,-3.59531 0,0 1e-5,0 1e-5,0 4.06471,-1.19823 8.78776,-0.98734 13.64601,-0.26705 m 1.72714,-1.35858 c 10.35197,-0.59502 19.24436,-0.32473 29.16993,-0.95406 0,0 0,0 0,0 9.92904,-0.62955 19.38203,0.69909 29.56674,2.09219 10.18471,1.3931 19.47858,0.7129 29.87142,2.15312 0,0 0,0 10e-6,0 5.20006,0.72062 9.77555,0.34723 14.04989,-0.57899 m 0.2263,-4.01159 c 0.84659,0.003 1.68347,0.01 2.51191,0.02 0.48636,8.84679 -0.0738,18.10759 0.065,27.8934 0,0 0,1e-5 0,1e-5 0.15126,10.66862 0.0999,19.33774 0.28438,29.44486 0.18443,10.10711 0.63869,18.40323 1.90937,26.62142 0,0 0,1e-5 0,1e-5 0.63579,4.11197 0.35075,9.06924 -0.38041,14.38113 m -1.83356,0.52431 c 0.0868,9.8588 -1.50434,19.56699 -4.50947,30.12514 -3.00618,10.56184 0.68318,18.90414 2.05157,28.16518 1.36838,9.26103 0.27983,18.84902 0.83281,27.96204 0,10e-6 0,10e-6 0,10e-6 0.27668,4.5597 0.19282,9.46561 -0.0454,14.56614 m -0.86925,3.71123 c -0.5738,9.9058 1.01668,19.13582 3.06779,28.86571 2.05183,9.7333 -1.24617,18.36234 -3.7375,26.51987 -2.49133,8.15752 0.1713,19.65678 0.52813,30.41986 0,0 0,0 0,0 0.17853,5.38531 0.0727,9.97358 -0.18246,14.23344 m 6.60106,-3.83685 c -0.14217,10.35248 -0.32582,19.96663 -0.95454,31.32305 -0.62894,11.3604 -1.04169,18.16342 -3.12813,25.93081 -2.08643,7.76738 0.50145,19.34418 1.50313,29.44488 0,0 0,0 0,0 0.50119,5.0539 0.52747,9.7791 0.45345,14.3912 m -2.97222,0.3517 c -0.002,0.8475 -0.006,1.6913 -0.0121,2.5319 -8.76662,0.2121 -17.78957,0.075 -27.10293,0.2954 0,0 0,0 0,0 -10.19548,0.2411 -18.98039,-0.7368 -28.3683,-2.214 -9.38792,-1.4773 -19.78727,-0.2359 -30.78549,-0.711 -5.50297,-0.2377 -10.02282,0.1828 -14.11225,1.0804 m 5.07736,4.2424 c -9.62891,0.8445 -19.44732,-0.4631 -29.80038,-1.4025 -10.35669,-0.9396 -19.84326,0.5487 -30.94799,1.6453 -11.10473,1.0967 -18.16118,-1.2861 -25.9308,-3.8593 0,0 -1e-5,0 -1e-5,0 -3.88753,-1.2875 -8.59614,-1.3124 -13.46349,-1.0386 m -3.4722,-1.0734 c -8.9053,0.5476 -18.89192,0.1142 -28.09489,0.3651 0,0 0,0 0,0 -9.20619,0.251 -19.49964,-0.1752 -29.95268,-0.5078 -10.45303,-0.3326 -18.51658,0.3177 -26.98704,0.975 -1e-5,0 -1e-5,0 -1e-5,0 -4.238199,0.3289 -9.059032,0.3591 -14.065189,0.3378 m 1.719255,-0.2366 c -4.302549,-0.1404 -8.702133,-0.1424 -13.254321,-0.09 -0.432186,-5.2443 -1.107263,-10.4014 -2.136816,-15.6395 -1.84627,-9.3933 0.24524,-19.23647 0.751562,-29.1605 0.506322,-9.92403 -0.356756,-18.59336 -1.076562,-27.21049 -0.360156,-4.31158 -0.435758,-9.13958 -0.495395,-14.14369 m 0.04822,-2.95447 c -0.28291,-8.87774 1.384824,-18.12728 4.16436,-25.84023 0,0 10e-7,-10e-6 10e-7,-10e-6 2.780507,-7.71565 -0.680605,-19.5821 -2.031251,-30.19642 -1.350646,-10.61432 -0.393926,-19.52726 -1.157812,-29.9933 0,0 0,0 0,-10e-6 -0.382211,-5.23668 -0.329363,-9.82016 -0.131109,-14.10206 m 0.476222,7.97235 c -0.188503,-9.16217 1.069987,-18.92532 3.189262,-28.19618 0,0 0,0 1e-6,0 2.120015,-9.2741 -0.134336,-19.73249 -0.426564,-30.60268 -0.292228,-10.87019 -1.036142,-18.76574 -3.128124,-27.7183 0,0 -1e-6,0 -1e-6,0 -1.046724,-4.47941 -0.891213,-9.27239 -0.3204,-14.1611 m -1.954251,-3.77107 c 0.332023,-10.0138 1.190401,-18.91997 3.594963,-28.2156 10e-7,0 10e-7,0 2e-6,0 2.405402,-9.29888 -1.220512,-18.9097 -3.656251,-28.16518 -2.43574,-9.25548 0.926453,-19.30931 2.803124,-29.36361 0,0 0,0 10e-7,0 0.938991,-5.03067 0.79549,-9.76986 0.275412,-14.41757 m 5.108295,-2.45796 c 0.379743,-4.29679 0.3999,-8.55661 0.286083,-12.81094 5.133519,-0.0109 10.060218,-0.0134 15.212823,-0.0677 1e-6,0 2e-6,0 4e-6,0 9.302944,-0.0982 18.244324,0.62813 26.154234,1.90937 7.90992,1.28125 19.34147,0.0995 29.44486,0.30469 1e-5,0 1e-5,0 1e-5,0 5.05523,0.10265 9.94731,-0.0885 14.89417,-0.49454 m -83.466885,4.49669 c 9.074739,0.55434 19.550935,0.15315 30.065025,0.44629 0,0 0,0 0,0 10.51777,0.29325 17.81032,-0.32283 24.87455,-0.95469 7.06424,-0.63185 19.1181,0.27002 28.77455,0.8125 0,0 0,0 0,0 4.83161,0.27143 9.5619,0.30104 14.24222,0.29121 m 1.31328,-2.42394 c 9.9058,0.0732 19.12679,-1.59133 28.80477,-4.79383 9.68137,-3.20362 18.67049,1.495 27.45424,4.46875 8.78376,2.97375 19.03638,-1.00967 28.55111,-3.02656 1e-5,0 1e-5,0 1e-5,0 4.7607,-1.00916 9.60034,-1.01367 14.51324,-0.77127 m 0.53378,3.73669 c 9.27813,-0.18973 20.43859,-0.68448 32.72575,-2.07167 0,0 0,0 0,0 12.29146,-1.38768 18.5998,-0.51276 27.25111,-1.56406 8.65132,-1.05131 18.62688,-0.0503 27.31205,-0.1625 0,0 1e-5,0 1e-5,0 4.34562,-0.0562 9.23905,0.26183 14.36398,0.91288 m 4.44101,-0.97358 c 0.57069,0.0139 1.14255,0.0262 1.71552,0.037 -0.0534,9.11148 0.15972,17.86588 0.39976,26.85591 0,0 0,0 0,0 0.2556,9.57276 -0.10935,19.34188 -0.325,29.44487 -0.21565,10.10298 -0.67404,19.0944 -2.03125,28.69329 0,10e-6 0,10e-6 0,10e-6 -0.67908,4.80281 -0.39645,9.75634 0.33926,14.89111 m -3.12279,0.8268 c -0.68272,9.82441 -0.0802,18.72624 -0.24303,27.60642 -10e-6,0 -10e-6,0 -10e-6,0 -0.1629,8.88329 0.6169,20.24504 1.86876,32.16674 1.25185,11.9217 -0.35222,19.42543 -1.07657,29.68861 0,0 0,0 0,10e-6 -0.36242,5.13518 -0.37114,9.71838 -0.30014,14.02551 m 4.36256,-0.52271 c -0.0809,8.83063 0.24291,18.42611 0.71102,26.6934 0.46827,8.27019 -0.3097,19.01255 -0.95469,28.46987 -0.64499,9.45732 -0.41478,19.59849 -1.25937,30.21673 0,10e-6 0,10e-6 0,10e-6 -0.42259,5.31284 -0.5518,10.00664 -0.704,14.49501 m -1.06258,-0.97045 c 0.58209,10.21008 1.15971,19.29879 3.49314,29.33258 2.33424,10.03731 -0.65643,19.05195 -1.95,28.59174 -1.29357,9.53979 0.30252,18.37181 0.91406,26.51991 0,0 0,0 0,0 0.30599,4.0768 0.0108,8.9025 -0.65576,13.959 m -2.49219,3.4242 c 0.03,0.6167 0.0521,1.232 0.0668,1.846 -8.69409,0.024 -18.96082,-0.2312 -29.63546,-0.6184 0,0 0,0 -10e-6,0 -11.41239,-0.4139 -18.62626,-0.038 -27.31204,-0.1015 -8.68579,-0.064 -19.3517,0.3904 -29.50581,1.1578 -5.0806,0.3839 -9.80641,0.3479 -14.41207,0.178 m 1.53906,-0.1976 c -8.73603,0.7497 -18.46321,-0.8152 -26.81538,-2.4586 0,0 0,0 0,0 -8.3551,-1.6439 -19.63519,0.8997 -30.33862,2.6813 -10.70342,1.7815 -18.32002,-0.934 -26.37767,-2.8031 0,0 0,0 0,0 -4.03165,-0.9352 -8.95284,-0.6689 -14.21338,0.097 m 2.01003,-2.3521 c -9.35137,-0.1689 -18.84491,0.098 -27.97255,0.2846 -9.13083,0.1869 -19.61657,-0.1347 -30.29799,-0.4266 -10.68141,-0.2919 -19.50992,-0.8195 -29.93236,-2.4578 0,0 0,0 0,0 -5.21487,-0.8198 -9.716226,-0.6082 -13.843011,0.018 m -0.778055,4.4101 c -4.140155,-0.063 -7.968536,-0.1998 -11.560341,-0.4456 0.56482,-5.8582 1.579754,-11.9233 2.847455,-18.2852 2.187523,-10.97806 0.24673,-18.38889 0.751563,-26.58081 0.504833,-8.19192 -0.977302,-19.63783 -2.925,-30.33862 -0.974531,-5.35413 -0.836988,-10.12603 -0.316087,-14.75754 m -2.039723,3.04085 c 0.419086,-10.15655 0.03907,-20.07403 0.141747,-31.64826 10e-7,-10e-6 10e-7,-10e-6 10e-7,-10e-6 0.102711,-11.57828 0.08057,-17.95893 0.24375,-25.2808 0.163176,-7.32186 -0.013,-19.30111 -0.02031,-29.34329 0,-10e-6 0,-10e-6 0,-10e-6 -0.0037,-5.02461 0.148358,-9.85814 0.451573,-14.69439 m -1.080933,-0.92214 c 0.311948,-10.001 1.479319,-19.94681 4.427798,-31.26249 0,0 10e-7,0 10e-7,0 2.949508,-11.31964 0.02654,-18.74151 0.101561,-27.67768 0.07502,-8.93616 -0.398937,-18.05839 -1.198437,-25.6058 0,0 0,0 0,0 -0.40003,-3.77634 -0.333591,-8.90194 -0.09866,-14.63615 m 2.33311,1.90407 c 0.07364,-9.92654 -1.006449,-19.79118 -3.006327,-30.79538 -10e-7,0 -10e-7,0 -2e-6,0 -2.000576,-11.00804 0.761518,-19.17647 2.295314,-28.95736 1.533796,-9.7809 -0.07103,-18.16091 -0.203125,-25.9308 0,0 0,0 0,-10e-6 -0.0661,-3.88766 -0.120682,-8.61127 -0.21027,-13.51407 m -0.845945,-0.35582 c 0.01422,-4.33844 -0.0532,-8.58927 -0.194362,-12.91669 5.291545,-0.39416 10.44706,-0.92959 15.486315,-2.01763 8.752611,-1.88981 18.706711,0.79279 27.555801,2.35625 8.8491,1.56345 19.90163,-0.0758 31.15112,-0.24375 5.62868,-0.0841 10.21955,-0.21194 14.4224,-0.44811 m -80.062771,-4.16274 c 10.115799,0.0876 19.800331,-0.33873 30.815491,-1.01572 0,0 0,0 0,0 11.01902,-0.67721 18.14175,0.9226 25.82924,2.78282 7.68749,1.86021 19.08635,-0.35595 28.71361,-1.07656 0,0 1e-5,0 1e-5,0 4.817,-0.36057 9.81317,-0.25022 15.02673,0.0629 m 1.03704,2.29354 c 10.35239,0.19569 19.83825,-0.45517 30.97774,-1.34083 11.1434,-0.88597 18.87036,0.14848 28.06362,0.42656 9.19325,0.27808 18.16565,-1.10303 25.9308,-3.29062 0,0 0,0 0,0 3.8853,-1.09456 8.59155,-0.87876 13.45829,-0.17176 m 1.48804,-0.43837 c 10.10125,-0.71609 18.3285,0.51692 26.428,1.56481 10e-6,10e-6 10e-6,10e-6 10e-6,10e-6 8.10234,1.04825 18.90563,0.43177 28.16517,1.32031 9.25954,0.88853 20.57803,0.51898 33.18236,1.54375 0,0 1e-5,0 1e-5,0 6.30658,0.51274 10.9652,0.22318 15.13161,-0.48202 m -0.20656,-0.10719 c 0.0787,-0.001 0.1574,-0.002 0.23606,-0.003 -0.34324,9.30347 -1.11977,18.54038 -3.3424,27.30457 0,0 0,0 0,0 -2.24264,8.84307 -0.0794,18.16782 -0.24375,25.95112 -0.16433,7.78329 1.30115,20.34809 3.9,32.49173 0,0 0,0 0,1e-5 1.30033,6.07607 1.09972,10.63386 0.37685,14.65492 m -1.14888,1.63215 c -0.14205,10.22285 -0.1565,18.22986 -0.46703,26.12319 -10e-6,10e-6 -10e-6,10e-6 -10e-6,10e-6 -0.31064,7.8961 -0.19466,19.5272 -0.58906,30.03392 -0.3944,10.50673 0.60951,19.519 1.82813,29.97299 0,0 0,0 0,0 0.60973,5.23066 0.56447,10.01559 0.3233,14.70229 m -5.68666,-4.28681 c -0.81704,8.9935 1.1468,19.36572 3.41336,29.55729 0,0 0,10e-6 0,10e-6 2.26735,10.19513 -1.16486,20.18931 -3.51406,32.00423 -2.34921,11.81492 0.59034,18.83326 1.74687,27.94174 0,0 0,0 0,0 0.57867,4.55744 0.59942,9.07234 0.49818,13.38805 m 2.20309,2.57351 c -0.27787,9.72917 -1.06944,17.84675 -3.20908,24.98621 -2.1404,7.14197 -0.1145,20.22453 -0.34531,32.08549 -0.23082,11.86097 -0.2248,18.35561 -0.67032,26.51991 0,0 0,0 0,0 -0.22291,4.0849 -0.12014,8.7545 0.13954,13.4944 m -3.47136,1.126 c -0.007,0.1138 -0.0131,0.2276 -0.019,0.3414 -9.87482,-0.3031 -17.05345,-0.9622 -23.11112,-2.8526 -6.13555,-1.9146 -20.29034,0.022 -32.30893,0.041 -12.01859,0.019 -19.06556,0.7725 -28.61205,2.3359 -4.77659,0.7823 -9.22467,0.5458 -13.35048,-0.124 m 6.20505,1.4233 c -9.24334,-0.6833 -19.0201,-0.8693 -28.50078,-2.5993 -9.484,-1.7306 -19.72518,0.8388 -30.60268,2.5391 -10.8775,1.7003 -19.83127,-0.789 -30.90736,-2.3563 0,0 0,0 0,0 -5.54193,-0.7842 -10.30035,-0.734 -14.85784,-0.4366 m 0.0745,1.7776 c -9.60793,0.3712 -18.44469,-0.898 -26.79415,-2.7019 0,0 0,0 0,0 -8.35239,-1.8045 -19.70825,0.9741 -30.54174,2.9047 -10.83349,1.9305 -19.40525,-0.8343 -29.668299,-2.4985 -2e-6,0 -3e-6,0 -5e-6,0 -5.135116,-0.8326 -9.842445,-0.6819 -14.397266,-0.1721 m 1.421601,0.7199 c -3.598519,-0.2189 -7.085558,-0.2324 -10.499132,-0.1307 0.159367,-5.8394 0.534834,-11.3397 0.9346,-16.9559 0,0 0,0 0,0 0.633073,-8.8939 -0.839382,-18.68645 -2.539063,-27.47454 -1.699681,-8.78809 0.466444,-19.91909 1.421875,-31.17143 0.47805,-5.6301 0.381723,-9.9792 0.06912,-13.69976 m 0.235101,-2.16003 c -0.446779,-9.53332 -0.98077,-18.0889 -2.944843,-25.71766 0,0 -10e-7,0 -10e-7,0 -1.964759,-7.63143 -0.218901,-19.68374 -0.670312,-30.50112 -0.45141,-10.81737 0.96058,-19.07199 2.904688,-28.63236 0.972734,-4.78354 1.063605,-9.42453 1.005703,-13.93746 m -1.73664,-1.90248 c 0.297757,-9.9735 0.516796,-19.28088 1.543437,-29.29221 0,0 0,0 1e-6,0 1.026999,-10.01483 -0.277942,-17.95778 -0.812501,-25.2808 -0.534559,-7.32302 0.466376,-19.4322 1.421874,-29.72923 10e-7,-1e-5 10e-7,-1e-5 10e-7,-1e-5 0.478084,-5.15212 0.259999,-9.91212 -0.296563,-14.57039 m -0.454111,5.2722 c 0.845262,-8.89966 0.554641,-20.4928 1.664737,-32.92927 0,0 0,0 0,0 1.110483,-12.44082 -1.395267,-18.64055 -4.184376,-27.35267 -2.789108,-8.71212 1.002084,-18.29342 3.026562,-26.29643 0,0 10e-7,0 10e-7,0 1.012947,-4.00431 1.098722,-8.81044 1.02059,-13.84484 m 0.01605,-2.726 c 0.248751,-3.58761 0.192513,-7.09772 -0.06451,-10.54992 5.544313,0.15223 10.516813,0.46935 15.418297,0.85717 1e-6,0 2e-6,0 3e-6,0 7.808689,0.61783 19.141595,-1.07569 28.835485,-3.25 9.6939,-2.17432 19.14282,1.35667 28.87611,4.08281 1e-5,0 1e-5,0 1e-5,0 4.87005,1.36402 9.5265,1.04234 14.05095,0.0574 m 9.5423,398.03943 -8.04297,0 m -89.733564,-313.28457 0,-7.17578 m 0,140.49289 0,-7.45703 m 228.304954,-212.68328 9.50781,0 m 65.49432,400.10777 -8.47656,0"
       id="rect3763"
       inkscape:path-effect="#path-effect2994"
       inkscape:original-d="m 75.122566,627.26373 310.166844,0 0,400.10777 -310.166844,0 z" />
    <path
       style="fill:none;stroke:#000000;stroke-width:1;stroke-linecap:butt;stroke-linejoin:miter;stroke-miterlimit:4;stroke-opacity:1;stroke-dasharray:24,24;stroke-dashoffset:0"
       d="m 394.1252,768.31117 c 16.03179,-13.03355 30.83706,-25.25617 45.98722,-37.90614 0.003,-0.002 0.005,-0.004 0.008,-0.006 m 0.88322,-3.47434 c 15.96141,-12.89777 30.44768,-25.39143 44.86226,-38.27183 0.002,-0.002 0.005,-0.004 0.007,-0.006 m -0.37652,1.71282 c 16.05065,-12.2279 31.22055,-25.04462 47.18252,-37.2456 0.003,-0.002 0.005,-0.004 0.008,-0.006 m 2.78075,-0.85779 c 14.96376,-12.15744 30.30524,-24.44023 44.42682,-35.44564 0.002,-0.002 0.005,-0.004 0.007,-0.005 m -3.51901,-4.76566 c 9.79098,-8.15905 20.1326,-16.39271 30.73493,-24.70049 M 393.74771,764.20975 c 15.74597,-12.74763 30.4763,-24.61405 44.90455,-35.93753 0.002,-0.002 0.005,-0.004 0.007,-0.006 m 1.98778,0.81287 c 15.00139,-12.15784 30.80922,-25.63236 45.93149,-39.03158 0.003,-0.002 0.005,-0.004 0.008,-0.007 m 1.36689,0.23094 c 16.09274,-12.4575 31.02326,-25.34758 46.53563,-38.17362 0.003,-0.002 0.005,-0.004 0.008,-0.006 m -4.17166,-3.40292 c 15.96149,-12.41536 30.689,-25.38167 45.53726,-38.25802 0.002,-0.002 0.005,-0.004 0.007,-0.006 m 4.01025,1.26213 c 9.72113,-7.78351 19.61389,-15.64632 29.31129,-23.11969 M 391.80934,764.67683 c 15.5727,-12.95861 30.53212,-25.28198 45.11558,-37.9343 0.002,-0.002 0.005,-0.004 0.007,-0.006 m 1.95347,-0.0514 c 15.27787,-12.39651 31.24836,-25.04649 47.2251,-37.25959 0.003,-0.002 0.005,-0.004 0.008,-0.006 m -0.24788,1.55149 c 15.54014,-12.34484 31.21799,-24.6123 47.16872,-35.93773 0.003,-0.002 0.005,-0.004 0.008,-0.006 m -0.4919,-3.13275 c 14.96844,-12.77121 30.33703,-25.06896 44.48306,-37.30159 0.002,-0.002 0.005,-0.004 0.007,-0.006 m 1.61247,-0.94949 c 10.12072,-8.25293 20.06763,-16.55921 29.96909,-25.03926 M 392.21538,764.43998 c 15.15612,-13.2208 31.32033,-24.98129 47.47829,-37.07636 0.003,-0.002 0.005,-0.004 0.008,-0.006 m -2.69311,-2.70428 c 15.88208,-12.84115 31.32957,-24.13815 47.49198,-34.51718 0.003,-0.002 0.005,-0.003 0.008,-0.005 m 1.84829,-2.92899 c 15.85382,-12.11527 30.87739,-24.37898 46.09981,-35.22067 0.003,-0.002 0.005,-0.004 0.008,-0.005 m 1.95544,-0.66012 c 15.16075,-12.32635 31.16299,-25.33333 46.97203,-38.0893 0.003,-0.002 0.005,-0.004 0.008,-0.006 m -2.14569,3.54393 c 9.73026,-8.01378 19.72128,-16.27353 29.61158,-24.60202 M 391.36868,765.79821 c 15.49806,-12.39216 31.4398,-26.05253 47.81561,-40.28302 0.003,-0.002 0.005,-0.005 0.008,-0.007 m 0.83405,2.83358 c 15.7228,-12.70085 31.23227,-24.7743 47.19675,-36.45787 0.003,-0.002 0.005,-0.004 0.008,-0.006 m 2.00452,-2.47151 c 15.62904,-12.52769 30.9552,-25.15365 46.38117,-37.5689 0.003,-0.002 0.005,-0.004 0.008,-0.006 m -6.22283,0.32036 c 15.08581,-12.31258 31.14288,-26.17823 46.92988,-40.63463 0.003,-0.002 0.005,-0.005 0.008,-0.007 m 2.31262,0.20878 c 10.3568,-8.09835 20.24933,-15.99811 30.09221,-23.61006 m -77.25926,64.44099 4.98831,-4.06423 m 57.7516,-47.05318 4.45048,-3.62603 m -24.79855,20.20465 4.6249,-3.76815 m -152.99632,124.65393 5.89682,-4.80444 m 68.71281,-55.98384 5.25722,-4.28333"
       id="path3796"
       inkscape:connector-curvature="0"
       sodipodi:nodetypes="cc"
       inkscape:path-effect="#path-effect3774"
       inkscape:original-d="M 392.99751,765.38253 609.11338,589.30188" />
    <text
       xml:space="preserve"
       style="font-size:40px;font-style:normal;font-variant:normal;font-weight:normal;font-stretch:normal;line-height:125%;letter-spacing:0px;word-spacing:0px;fill:#000000;fill-opacity:1;stroke:none;font-family:Serif;-inkscape-font-specification:Serif"
       x="584.53107"
       y="349.7562"
       id="text4456"
       sodipodi:linespacing="125%"
       transform="translate(0,308.2677)"><tspan
         sodipodi:role="line"
         id="tspan4458"
         x="584.53107"
         y="349.7562" /></text>
    <text
       xml:space="preserve"
       style="font-size:40px;font-style:normal;font-variant:normal;font-weight:normal;font-stretch:normal;line-height:125%;letter-spacing:0px;word-spacing:0px;fill:#000000;fill-opacity:1;stroke:none;font-family:Serif;-inkscape-font-specification:Serif"
       x="583.57141"
       y="345.21054"
       id="text4460"
       sodipodi:linespacing="125%"
       transform="translate(0,308.2677)"><tspan
         sodipodi:role="line"
         id="tspan4462"
         x="583.57141"
         y="345.21054" /></text>
    <path
       style="fill:#ffffff;fill-opacity:1;stroke:#000000;stroke-width:1.50600004;stroke-linecap:butt;stroke-miterlimit:4;stroke-opacity:1;stroke-dasharray:none;stroke-dashoffset:0"
       d="m 605.47846,554.70044 c 9.25147,-0.36783 17.76776,-0.24553 26.16655,-0.12828 -0.19221,4.62277 -0.41622,9.24417 -0.58506,13.79447 -1.2e-4,0.003 -2.5e-4,0.007 -3.7e-4,0.01 m 1.25085,-16.51275 c 0.63683,12.95928 -0.78063,26.47725 -2.28564,39.46293 -3.7e-4,0.003 -7.5e-4,0.006 -0.001,0.01 m -0.56392,-8.18136 c 0.76091,13.88935 0.2924,26.96214 0.93693,40.88802 1.6e-4,0.003 3.2e-4,0.007 4.8e-4,0.0104 m 3.90286,-11.57652 c -0.74825,13.9873 -0.97647,27.8046 -2.89006,43.38795 -4.8e-4,0.004 -9.6e-4,0.008 -0.001,0.0117 m -4.9583,-18.1556 c -0.48725,13.33639 0.85625,26.42452 2.53943,39.26734 4.2e-4,0.003 8.4e-4,0.006 0.001,0.01 m 0.0343,-5.61163 c 0.20191,5.43351 0.45498,11.01004 0.86303,16.64743 -7.17825,0.0711 -14.05866,0.25925 -20.36468,0.34546 -0.003,4e-5 -0.005,7e-5 -0.008,1.1e-4 m 7.4932,-0.61907 c -4.71024,0.26466 -9.26843,0.4249 -13.71745,0.57758 0.27934,-8.44386 0.95293,-16.91503 1.72654,-24.74887 3e-4,-0.003 5.9e-4,-0.006 8.9e-4,-0.009 m 0.15827,7.57368 c 0.74737,-12.68012 -0.77539,-27.35958 -2.38338,-42.11939 -4e-4,-0.004 -8e-4,-0.007 -0.001,-0.0111 m -4.83192,6.92932 c 0.63104,-13.17314 0.62632,-25.05057 1.89406,-35.12684 3.2e-4,-0.003 6.4e-4,-0.005 9.5e-4,-0.008 m 1.64569,11.50486 c -0.31186,-12.9725 0.4912,-26.91917 1.46508,-40.73245 2.4e-4,-0.003 4.9e-4,-0.007 7.3e-4,-0.0104 m -3.40719,8.00853 c -0.21975,-10.12078 0.31707,-20.49821 1.21297,-30.45949 3.08324,0.14301 6.19281,0.31655 9.32082,0.53397 0.004,2.5e-4 0.007,5.1e-4 0.011,7.6e-4 m -3.78224,-2.63625 c 7.80964,0.36356 15.70666,0.34994 23.46976,0.34694 -0.16583,5.31499 -0.39063,10.63465 -0.73903,16.07229 -2.2e-4,0.003 -4.4e-4,0.007 -6.6e-4,0.0102 m -2.19771,-5.97277 c 0.0915,13.47933 0.96495,26.21208 2.94915,38.66177 4.9e-4,0.003 9.9e-4,0.006 0.001,0.009 m 0.59441,-12.65709 c -0.26032,13.4217 -0.45023,27.98384 -1.367,43.97431 -2.2e-4,0.004 -4.5e-4,0.008 -6.8e-4,0.012 m -0.26686,-19.60261 c -0.48096,12.51091 0.43191,27.055 1.34801,41.12343 2.3e-4,0.004 4.6e-4,0.007 6.9e-4,0.0106 m -1.71201,-8.09531 c 0.52691,13.03818 0.44792,28.21911 1.36679,44.67772 2.3e-4,0.004 4.6e-4,0.008 6.9e-4,0.0123 m 0.32233,-18.16431 c 0.19505,5.6188 0.20655,11.20374 0.12485,16.89551 -8.12009,0.53892 -16.44981,1.31812 -24.68431,2.81219 -0.003,6.2e-4 -0.007,0.001 -0.0103,0.002 m 11.17806,0.45001 c -5.06006,0.1549 -9.96287,0.18227 -14.77947,0.14642 0.12013,-8.50583 0.49771,-17.20043 0.76601,-25.75183 1.1e-4,-0.003 2.2e-4,-0.007 3.2e-4,-0.0101 m 4.36641,9.82536 c -0.6179,-13.01148 -0.36887,-26.84134 -1.11282,-40.57618 -1.9e-4,-0.003 -3.7e-4,-0.007 -5.6e-4,-0.0103 m -5.22688,11.59366 c -0.1239,-12.80997 -0.72552,-26.967 -2.14834,-40.86929 -3.6e-4,-0.003 -7.1e-4,-0.007 -0.001,-0.0104 m 3.1806,10.51895 c -0.21431,-12.58864 0.54567,-26.4606 1.62125,-39.42415 2.7e-4,-0.003 5.4e-4,-0.006 8.1e-4,-0.01 m 2.81355,12.16301 c -0.51942,-10.74626 -0.55542,-21.73825 -1.13483,-32.96522 2.43968,-0.11407 4.84809,-0.24166 7.21108,-0.38262 0.003,-1.8e-4 0.006,-3.6e-4 0.009,-5.4e-4 m -7.03737,-3.98866 c 8.45508,-0.11777 17.15928,-0.006 25.88813,0.2021 0.0552,4.81567 0.11767,9.6598 0.15114,14.51069 2e-5,0.003 5e-5,0.007 7e-5,0.0103 m -1.79644,-7.11408 c 0.67561,12.69292 -1.25568,26.9544 -3.75051,40.84985 -6.2e-4,0.003 -0.001,0.007 -0.002,0.0104 m 0.29822,-17.11741 c -0.70874,12.55626 0.0271,26.73599 0.13725,40.26401 3e-5,0.003 5e-5,0.007 8e-5,0.0101 m 0.14504,-8.41226 c 0.78076,12.79729 0.97188,27.63174 2.8705,42.88102 4.8e-4,0.004 9.5e-4,0.008 0.001,0.0114 m -0.66549,-10.80522 c 4e-4,13.49951 0.79449,27.55715 2.34375,42.72425 3.9e-4,0.004 7.8e-4,0.008 0.001,0.0114 m -0.89916,-12.59557 c -0.16729,5.05695 -0.38959,9.9662 -0.73278,14.79679 -9.02958,-0.10647 -18.41877,-0.4469 -28.50567,-0.66702 -0.004,-8e-5 -0.008,-1.7e-4 -0.012,-2.6e-4 m 16.80258,2.05961 c -4.22501,-0.0101 -8.40843,-0.0121 -12.56903,-0.0107 -0.001,-9.16667 0.10855,-18.31641 0.12802,-27.49909 10e-6,-0.003 2e-5,-0.007 3e-5,-0.01 m -3.20826,6.46268 c 0.4748,-14.14942 0.28105,-26.9183 0.89808,-40.75111 1.5e-4,-0.003 3.1e-4,-0.007 4.6e-4,-0.0104 m -2.3802,14.43828 c -0.0647,-12.79057 0.68642,-27.1807 2.0313,-41.59197 3.4e-4,-0.004 6.7e-4,-0.007 0.001,-0.0108 m 3.49431,6.63536 c 0.006,-14.14293 -0.65237,-26.94142 -1.99219,-40.8097 -3.4e-4,-0.003 -6.7e-4,-0.007 -0.001,-0.0104 m 2.89788,12.30108 c -0.005,-9.58349 -0.74784,-19.11414 -2.2365,-28.74705 3.24055,-0.0594 6.35863,-0.13564 9.35367,-0.23896 0.003,-8e-5 0.005,-1.7e-4 0.008,-2.6e-4 m -11.48824,115.15802 z m 0,-94.96186 z m 0,30.79844 z m 27.75792,-23.90811 z m -2.56654,110.36107 z"
       id="rect4721"
       inkscape:path-effect="#path-effect3781"
       inkscape:original-d="m 602.44031,550.57898 27.75792,0 0,136.50042 -27.75792,0 z"
       inkscape:connector-curvature="0"
       sodipodi:nodetypes="ccccc" />
    <path
       inkscape:original-d="m 617.16981,391.48053 334.76112,0 0,431.8338 -334.76112,0 z"
       inkscape:path-effect="#path-effect3772"
       id="path3770"
       d="m 622.25391,395.74056 c 7.45563,-0.60317 13.07012,0.003 19.20834,-0.0202 6.1413,-0.0229 12.88678,-0.45302 18.6711,-1.35 5.78431,-0.89697 13.8535,0.18584 21.53984,0.56953 7.68634,0.3837 12.50288,-0.19293 17.53203,-0.56953 0,0 10e-6,0 10e-6,0 5.02915,-0.37659 13.49427,-0.76099 20.50624,-2.25703 0.004,-7.5e-4 0.007,-0.001 0.0105,-0.002 m 2.93024,-1.9171 c 5.81422,0.12586 12.87208,-0.39172 18.64127,-1.16035 5.77208,-0.769 14.52759,-0.43586 23.60703,-1.3289 0,0 0,0 10e-6,0 9.07943,-0.89304 12.28708,1.2285 16.87812,3.67031 4.59104,2.44181 14.32959,-1.38888 22.99531,-4.15547 8.66572,-2.76658 11.67572,0.31648 15.04297,0.94922 0.002,3.2e-4 0.003,6.3e-4 0.005,9.5e-4 m 1.41877,4.02769 c 7.02725,-0.17436 12.52895,0.97465 17.58477,2.9323 5.05833,1.95862 14.68115,0.0877 24.0289,0.25312 9.34775,0.16538 13.06566,-0.71711 19.21953,-2.17265 6.15388,-1.45554 13.04147,-0.56124 19.13516,-1.7086 6.09369,-1.14735 13.98752,0.72261 21.94062,2.19375 0.004,7.4e-4 0.008,0.001 0.0119,0.002 m 1.09616,2.31916 c 7.46906,0.70061 12.47536,-0.76352 17.41535,-2.30027 2.80078,-0.87128 6.68854,-0.92565 10.71827,-1.00425 0.19261,2.82873 0.46824,5.64329 0.40431,8.0676 -0.14751,5.59468 -0.47833,13.15221 -1.45546,19.45156 0,0 0,0 -1e-5,10e-6 -0.97713,6.29935 0.67986,15.07877 2.0461,25.25234 0,0 0,0 0,0 1.36624,10.17357 0.35873,11.72493 1.09687,15.14844 3.7e-4,0.002 7.4e-4,0.003 0.001,0.005 m -3.81892,-0.14354 c 0.1045,6.17235 -0.70488,13.30039 -2.08844,19.92746 -1.38424,6.63038 0.26417,12.84621 0.80157,18.52344 0.53739,5.67723 0.72084,13.89231 2.17265,21.6664 1.45181,7.77409 0.36211,13.65347 1.07578,20.94922 0.71368,7.29575 0.0245,12.16565 0.0844,16.47734 3e-5,0.002 6e-5,0.004 9e-5,0.006 m 1.36998,3.61023 c -0.68177,6.44505 -1.44788,12.46994 -4.34429,17.41689 -2.89786,4.94942 1.0537,12.8531 3.18516,18.56562 2.13145,5.71253 -1.00639,13.62464 -3.0375,20.88594 -2.03112,7.2613 1.08,12.96166 3.24843,18.88203 2.16844,5.92037 -0.48979,14.7656 -1.47656,24.30313 -4.9e-4,0.005 -9.9e-4,0.01 -0.001,0.0143 m -1.20164,-1.31344 c -0.51854,5.78002 0.47869,13.74338 1.45625,21.21476 0.97804,7.47512 -0.76592,14.30752 -2.29922,22.93203 -1.53331,8.62452 0.0268,11.70595 0.0633,15.12735 0.0365,3.42139 0.48888,15.01893 1.47656,25.0625 0.98768,10.04356 0.45366,13.27708 1.35,19.83125 4.5e-4,0.003 9e-4,0.007 0.001,0.01 m 1.05448,-3.7978 c 0.75081,5.93353 0.34734,12.95445 1.05356,18.87312 0.70657,5.92164 -0.45514,13.76681 -1.35,21.28672 -0.89487,7.51991 0.23463,13.22949 0.69609,19.70469 0.0731,1.02545 0.12924,2.05694 0.17403,3.09228 -5.37284,-0.10859 -11.06666,-0.10826 -16.24734,-0.32574 -6.15549,-0.2584 -13.12204,0.30579 -19.34609,0.90703 0,0 0,0 0,0 -0.003,3e-4 -0.006,6e-4 -0.009,9e-4 m -7.36239,-0.94958 c -6.66969,0.35651 -12.67343,-1.19143 -18.02827,-3.58648 -5.35752,-2.39625 -14.11071,-0.32224 -22.32031,-0.94922 -8.20961,-0.62697 -12.9855,0.60364 -18.96641,1.81407 -5.98091,1.21043 -12.99112,0.7252 -18.9664,2.15156 -5.97529,1.42636 -12.74763,0.20869 -18.24922,0.61172 -0.003,2e-4 -0.005,4e-4 -0.008,6e-4 m 3.16128,-0.12715 c -7.35829,0.007 -13.9203,-0.3943 -21.78193,-1.18126 -7.86556,-0.78736 -14.18334,0.72196 -22.53125,2.15156 -8.34791,1.42959 -13.12528,-1.37306 -19.36719,-4.11328 -6.24191,-2.74022 -13.27307,0.21044 -19.83125,0.6539 0,0 0,0 0,0 -6.55817,0.44346 -12.15124,0.0507 -16.47734,0.14766 -0.002,5e-5 -0.004,10e-5 -0.006,1.5e-4 m -6.60615,2.59486 c -6.85915,0.31562 -12.75677,0.0109 -18.3022,0.0417 -5.54821,0.0309 -13.72068,-1.77321 -21.13906,-5.29453 0,0 0,0 -1e-5,0 -7.41838,-3.52132 -13.29234,0.0916 -19.85234,0.29531 0,0 0,0 0,0 -6.56001,0.20369 -12.11876,0.68738 -16.37187,2.06719 -3.81259,1.23689 -12.76295,-0.0818 -21.65358,-0.9617 -0.33676,-0.7922 -0.67272,-1.57853 -0.99986,-2.35439 -0.002,-0.004 -0.003,-0.007 -0.005,-0.0112 m 4.0756,3.22973 c -0.15545,-5.9002 -1.14701,-14.68438 -3.43805,-24.06224 -2.29219,-9.38256 0.8493,-12.35529 2.53125,-17.04688 1.68194,-4.69159 -0.64006,-12.94331 -1.89844,-18.83984 -1.25838,-5.89654 1.15524,-13.91911 3.48047,-21.77188 2.32523,-7.85276 -1.41806,-13.53745 -4.23985,-20.59062 -0.001,-0.004 -0.003,-0.007 -0.004,-0.0106 m 5.10858,6.87709 c -0.22443,-6.6984 0.0134,-13.31861 0.0425,-19.98995 0.0291,-6.67468 -0.38011,-14.02282 -1.11797,-22.08828 -0.73786,-8.06546 -0.27612,-13.39141 -0.84375,-20.14766 -0.56763,-6.75624 0.31557,-13.60966 0.97031,-20.82265 0.65475,-7.213 0.14464,-13.2195 0.42188,-19.6836 1.4e-4,-0.003 2.8e-4,-0.006 4.1e-4,-0.01 m 0.69626,1.41387 c 0.38536,-6.06747 -0.39423,-13.62324 -1.18183,-20.87683 -0.78799,-7.25723 0.2321,-13.11009 0.6961,-19.30391 0.46399,-6.19382 -0.71199,-13.6323 -2.15157,-20.88594 -1.43957,-7.25363 1.00906,-13.33417 3.01641,-19.9789 2.00735,-6.64473 0.007,-13.90434 0.0211,-21.7086 10e-6,-0.004 2e-5,-0.008 2e-5,-0.0117 m 0.54964,-1.87634 c 0.81281,-7.12723 -0.78647,-14.31992 -2.34263,-22.98461 -1.55693,-8.66903 0.11602,-13.33284 0.3586,-19.97891 0.24258,-6.64607 -0.26698,-13.23363 -0.82266,-19.70469 -0.55568,-6.47105 0.46653,-12.23934 1.39219,-16.73047 0,0 0,0 0,0 0.92566,-4.49113 0.26789,-14.24043 0.78047,-22.7 2.6e-4,-0.004 5.1e-4,-0.008 7.7e-4,-0.0127 m -2.19555,6.94273 c -0.68788,-6.53071 -0.53332,-13.95814 -1.6021,-21.88864 -0.52194,-3.87291 -0.35411,-7.0982 0.13143,-10.12056 3.92177,0.24301 8.19297,0.70919 12.38446,0.88566 8.1883,0.34475 13.45343,-0.31795 20.35859,-0.94922 6.90517,-0.63126 12.85725,-0.30086 18.56563,-0.88593 0,0 0,0 0,0 5.70838,-0.58507 13.06579,0.3131 19.21953,0.92812 0.003,3.1e-4 0.006,6.2e-4 0.009,9.2e-4 m -70.79758,-2.5545 c 6.20846,-0.82707 14.34011,0.55031 23.04928,1.66764 8.71353,1.1179 13.60094,-0.55181 20.80156,-1.64531 0,0 0,0 1e-5,0 7.20061,-1.0935 11.72409,0.91772 15.16953,2.76328 3.44544,1.84557 13.48007,-0.0192 20.42187,-0.0633 6.9418,-0.0441 14.55544,-0.52052 23.69141,-1.56094 0.005,-5.2e-4 0.009,-0.001 0.0137,-0.002 m -3.69463,2.21512 c 6.97975,-0.8489 14.13291,-0.24499 22.39421,-0.737 8.26543,-0.49226 13.26393,-0.63956 19.78906,-1.91953 0,0 0,0 0,0 6.52513,-1.27997 13.52009,-0.37294 20.56953,-1.09688 7.04945,-0.72394 13.88712,0.13015 21.6875,0.37969 0,0 1e-5,0 1e-5,0 7.80038,0.24954 12.09098,-0.57734 16.28749,-1.72969 0.002,-5.7e-4 0.004,-0.001 0.006,-0.002 m 3.90486,2.3437 c 5.87122,0.37212 13.77043,0.39591 21.34119,1.20178 7.57454,0.80627 12.50885,-1.06094 17.53203,-3.18516 5.02318,-2.12421 14.67046,0.78209 24.0289,2.3625 9.35844,1.58042 13.22639,0.23907 19.6836,0.73829 6.4572,0.49921 12.90801,0.0732 18.71328,0.21093 0.003,7e-5 0.006,1.4e-4 0.009,2.1e-4 m -5.77966,4.49233 c 5.82205,-0.28772 13.68546,-0.16139 21.04595,-0.50582 5.23745,-0.24508 10.13447,-0.40641 15.44624,-0.85231 0.23161,1.74422 0.53161,3.44152 0.95056,5.06723 1.45069,5.62935 -1.54329,12.8358 -4.64062,18.50234 0,0 0,0 -10e-6,0 -3.09733,5.66655 -0.0281,13.37785 -0.0844,20.14766 -0.0562,6.76981 1.28095,13.56719 3.86016,20.69609 0.001,0.004 0.003,0.007 0.004,0.0107 m -0.13167,-4.93722 c -0.82668,6.27031 0.93184,13.07197 2.78562,19.21012 1.8547,6.14122 -0.4429,14.7625 -1.32891,24.30312 -0.88601,9.54062 0.35199,12.7875 1.05469,18.35469 0.7027,5.56719 -0.22198,13.31378 -0.65391,19.91563 -0.43193,6.60184 -0.95034,13.21457 -2.82656,19.6414 -9.4e-4,0.003 -0.002,0.006 -0.003,0.01 m 1.64766,3.83912 c -0.30818,6.46034 0.42235,13.73069 1.28718,21.21374 0.86527,7.48679 0.22493,12.30586 0.6961,16.92031 0.47116,4.61446 -0.0434,13.56248 -0.14766,20.675 -0.10427,7.11252 -0.27422,13.31681 -0.80156,19.95782 -0.52735,6.641 -0.36443,13.47037 -1.09688,20.40078 -3.6e-4,0.003 -7.3e-4,0.007 -0.001,0.0104 m 1.45536,-2.31984 c -0.79865,7.23835 0.91119,13.22106 2.74339,19.65163 1.83311,6.4338 -0.008,13.67105 -0.0211,21.0125 -0.0127,7.34146 -0.92005,12.66228 -2.78438,17.9961 -1.86433,5.33382 -0.49163,13.42354 -1.47656,20.29531 -0.98494,6.87177 1.14405,14.34724 3.41719,23.01641 0.001,0.004 0.002,0.009 0.003,0.013 m -4.41139,0.0599 c 0.40656,6.43104 -0.23803,12.4825 -0.73889,17.48019 0,0 0,0 0,0 -0.50112,5.00019 -0.81513,14.16028 -2.46797,22.46797 -1.65283,8.30769 0.90661,13.26935 2.74219,19.78906 0.55599,1.97481 0.74817,3.87793 0.72949,5.69649 -4.69036,-0.46202 -10.49762,-1.37197 -15.55748,-2.88698 -7.25842,-2.17329 -13.34086,0.56813 -20.0211,1.70859 0,0 0,0 0,0 -0.003,5.8e-4 -0.007,0.001 -0.01,0.002 m -0.86426,-0.40299 c -6.29059,-0.33709 -12.30124,-0.4308 -16.88978,-1.28622 -4.59083,-0.85584 -14.42761,-0.26212 -23.26953,-0.80156 -8.84193,-0.53943 -12.58008,0.70003 -17.74297,2.10938 -5.16289,1.40934 -14.11479,-0.16713 -22.34141,-0.48516 0,0 0,0 0,0 -8.22662,-0.31802 -12.31127,-0.0113 -16.92031,-0.0211 -0.002,-10e-6 -0.005,-10e-6 -0.007,-2e-5 m 1.2196,1.20218 c -7.16821,-0.11953 -13.21907,-0.29698 -19.67284,-0.90685 -6.45699,-0.61017 -14.37613,0.25762 -23.12187,0.75937 -8.74574,0.50176 -13.03162,1.03093 -19.09297,3.10079 -6.06135,2.06986 -12.92826,-0.72992 -18.79766,-2.21485 0,0 0,0 0,0 -5.86939,-1.48492 -14.2334,0.0194 -22.69999,0.0633 -0.004,3e-5 -0.008,5e-5 -0.0127,7e-5 m 1.8578,-1.51762 c -7.42769,0.79367 -13.18693,1.12431 -19.56698,3.3949 -6.38324,2.27172 -13.62126,0.57642 -20.84375,1.70859 -7.22249,1.13217 -12.55568,-0.28413 -17.65859,-0.86484 -5.10292,-0.58071 -12.88742,-1.45674 -18.6711,-4.34532 -5.78368,-2.88857 -13.91798,0.43278 -21.72968,1.28672 -0.004,4.3e-4 -0.008,8.6e-4 -0.0117,0.001 m -0.56844,-1.39471 c -0.28645,-0.0335 -0.57234,-0.0644 -0.85775,-0.0928 -0.3726,-7.06697 -0.47316,-12.74768 -1.40616,-19.23458 -0.97284,-6.76391 0.57635,-11.7537 1.75078,-15.275 1.17443,-3.52131 -1.2157,-14.09433 -3.62812,-22.29922 -2.41243,-8.2049 0.12628,-13.4914 0.35859,-20.46407 0.23231,-6.97266 -0.378,-13.7088 -1.11797,-21.11797 -3.7e-4,-0.004 -7.4e-4,-0.007 -0.001,-0.0111 m 3.86216,4.28429 c 0.59636,-5.89969 0.1957,-14.18529 0.61083,-22.56458 0.41533,-8.38349 0.16073,-13.20726 0.46406,-19.59922 0.30333,-6.39196 0.59463,-12.67099 1.77187,-18.03828 1.17725,-5.36729 -0.0334,-14.3561 -0.12656,-23.07969 0,0 0,0 0,-1e-5 -0.0932,-8.72358 0.13929,-13.20718 0.44297,-19.59921 1.5e-4,-0.003 3e-4,-0.006 4.5e-4,-0.01 m -5.71712,-3.69099 c -0.17408,-6.11457 1.26589,-11.63128 3.79714,-14.92832 2.53251,-3.2987 -0.55139,-14.96599 -1.66641,-24.89375 -1.11501,-9.92776 -0.29925,-12.81506 -0.88594,-18.46016 -0.58668,-5.6451 -0.44135,-12.77463 -1.30781,-18.3125 -0.86646,-5.53787 1.2034,-12.87103 3.62813,-18.58672 0.001,-0.003 0.002,-0.006 0.004,-0.009 m -2.7244,1.32685 c 0.21788,-7.08434 0.45729,-13.50791 1.34967,-20.53781 0.89283,-7.03342 -1.27195,-12.76647 -3.83906,-18.3125 -2.56711,-5.54603 1.30669,-13.33875 3.94453,-20.02109 2.63784,-6.68235 -0.73069,-14.21259 -2.19375,-22.63672 -1.46306,-8.42413 -0.52657,-12.9682 -1.56094,-18.92422 -5.1e-4,-0.003 -0.001,-0.006 -0.002,-0.009 m 4.66286,-1.34989 c -0.26519,-5.8853 1.33135,-13.81333 4.00822,-21.42555 1.69434,-4.81822 0.84856,-8.8625 -0.50388,-12.85921 1.66372,0.12828 3.15661,0.27259 4.87679,0.29072 4.68259,0.0494 13.7633,-0.0167 21.28672,-0.0422 7.52343,-0.0255 12.48298,0.13226 17.44766,0.42187 0,0 0,0 0,0 4.96468,0.28962 13.65297,-1.23785 20.97031,-3.7125 0.004,-0.001 0.007,-0.002 0.011,-0.004 m -63.70111,2.93521 c 6.57919,-0.35698 13.35129,0.71948 20.0745,2.131 6.72657,1.41223 12.10729,-0.68773 16.32969,-2.06719 0,0 0,0 0,0 4.22239,-1.37946 14.26821,0.10709 22.82656,0.29532 8.55835,0.18822 12.67113,0.42033 18.03828,1.28672 0,0 10e-6,0 10e-6,0 5.36715,0.86638 13.4459,0.81028 20.33749,2.42578 0.003,8e-4 0.007,0.002 0.0103,0.002 m 3.01496,-1.29025 c 5.92582,-0.73633 12.25142,0.10414 16.78486,0.29642 4.5357,0.19238 13.52767,-1.00533 20.59062,-2.99531 0,0 0,0 0,0 7.06295,-1.98999 14.23446,0.82167 22.67891,2.46797 8.44445,1.64629 12.28673,-0.84354 16.87812,-2.51016 4.5914,-1.66662 14.67799,0.32147 24.02891,0.94922 0.005,3.1e-4 0.009,6.3e-4 0.014,9.4e-4 m -3.04257,-3.94506 c 5.96139,0.27346 12.75248,-0.068 18.26136,-0.19026 5.51165,-0.12234 13.04069,1.23905 19.13516,3.69141 0,0 0,0 0,0 6.09446,2.45236 14.59425,-1.61142 23.79687,-4.80937 9.20263,-3.19796 13.27371,0.31478 19.81016,0.92812 6.53645,0.61334 12.08058,0.4152 16.26641,1.24453 0.002,4.2e-4 0.004,8.3e-4 0.006,0.001 m -0.24888,3.30937 c 7.01398,-0.73511 13.29265,1.32162 19.9051,3.94564 4.39506,1.74409 8.72946,0.41426 12.96478,-1.68759 -0.0978,1.17577 -0.22089,2.15446 -0.37423,3.23298 -0.45682,3.21306 0.4924,13.46854 1.49765,20.40078 0,0 0,0 10e-6,0 1.00525,6.93224 0.54878,14.64916 1.64531,23.94453 0,0 0,0 0,0 1.09652,9.29537 -0.15968,12.94535 -0.48516,18.83984 -1.6e-4,0.003 -3.2e-4,0.006 -4.9e-4,0.009 m 0.37885,-5.22985 c -0.88373,6.82543 -0.005,14.11302 -0.0198,22.35225 -0.0143,8.24336 -0.29692,13.7261 -0.88593,21.20235 -0.58901,7.47624 0.96384,12.8346 2.91094,18.50234 1.94709,5.66774 -1.38938,13.6534 -4.15547,20.97031 -2.7661,7.31692 -0.1549,13.11108 -0.44297,19.325 -1.5e-4,0.003 -2.9e-4,0.006 -4.3e-4,0.009 m 2.5521,0.61172 c -0.45041,6.21431 -1.53044,13.18524 -4.59777,19.5688 -3.06885,6.38675 0.56665,14.42339 1.7086,23.26953 1.14194,8.84614 0.0964,12.42588 0.27422,17.25781 0.17782,4.83193 0.8076,14.67778 2.40468,24.02891 1.59708,9.35113 -0.66009,12.39761 -1.98281,17.19453 -6.6e-4,0.002 -0.001,0.005 -0.002,0.007 m 1.18427,-0.92572 c 0.69451,6.40439 0.15317,13.88321 0.46302,21.63571 0.31001,7.75637 0.53283,14.06331 1.58203,22.17265 1.04921,8.10934 -0.59821,13.12247 -1.79296,19.36719 -1.19475,6.24472 1.40737,12.02194 4.19765,16.07656 2.79029,4.05463 0.10364,14.93463 0.29531,24.78828 10e-5,0.005 2e-4,0.01 2.9e-4,0.0148 m -4.74607,-7.47125 c 0.20282,7.14015 -0.57872,13.21342 -1.75109,19.67288 -1.17295,6.46269 1.41722,13.97346 4.26094,21.91953 2.84372,7.94607 -0.37596,12.32815 -1.13906,16.9836 -0.19538,1.19189 -0.25837,2.64219 -0.22747,4.24978 -4.87005,-0.28835 -8.94719,0.75152 -13.17553,0.63863 0,0 0,0 0,0 -5.68341,-0.15174 -13.34486,0.58317 -20.02109,1.75078 0,0 0,0 0,0 -0.003,5.8e-4 -0.007,0.001 -0.01,0.002 m 0.0427,7.36023 c -6.34747,0.17532 -13.08327,-0.0233 -19.27329,-0.0635 -6.19311,-0.0403 -13.35519,-0.58549 -20.04218,-1.75078 0,0 0,0 0,0 -6.68699,-1.16529 -14.34535,-0.49374 -23.0586,-1.47657 -8.71325,-0.98282 -13.68349,0.3941 -21.03359,1.16016 -7.35011,0.76606 -12.57213,-0.54612 -17.70078,-1.64531 -0.003,-5.5e-4 -0.005,-0.001 -0.008,-0.002 m 0.50454,1.66789 c -6.2703,-0.11242 -13.05854,-0.19164 -19.18903,-0.59046 -6.13356,-0.39902 -14.01642,0.14224 -22.04609,0.42187 -8.02968,0.27964 -13.73581,-0.58373 -21.22344,-1.77187 -7.48764,-1.18814 -13.26218,0.73153 -19.78906,2.21484 -10e-6,0 -10e-6,0 -10e-6,0 -6.52688,1.48331 -12.05259,-0.51363 -16.16093,-1.53984 -0.002,-5.1e-4 -0.004,-0.001 -0.006,-0.002 m -1.8401,-1.70679 c -7.40764,0.17597 -14.17657,0.63416 -22.56232,1.89817 -8.38996,1.26464 -11.83287,0.92067 -15.50704,2.76328 -3.67416,1.84261 -13.67653,-0.60061 -21.05468,-1.79296 -7.37816,-1.19236 -14.59721,-0.73126 -23.81797,-2.21485 -9.16617,-1.47481 -12.18059,0.1898 -16.58827,0.62517 0.0132,-0.0369 0.0264,-0.0738 0.0395,-0.11079 0.001,-0.003 0.002,-0.006 0.003,-0.009 m -0.6153,1.22168 c -0.17582,-7.41314 -0.47751,-12.66402 -1.4552,-18.02716 -0.97819,-5.36581 -0.0861,-14.2199 -0.27422,-22.65781 -0.18809,-8.43791 0.92897,-13.69488 2.76328,-21.07578 1.83431,-7.3809 0.24715,-12.84951 0.71719,-18.52344 0.47004,-5.67392 -0.977,-13.7391 -2.95313,-21.20234 -9.9e-4,-0.004 -0.002,-0.007 -0.003,-0.0112 m 0.10776,2.97488 c -0.44995,-7.01378 -1.07231,-13.08937 -3.20558,-19.27228 -2.13434,-6.18601 0.82969,-14.77263 2.51016,-24.30313 1.68046,-9.53049 0.18155,-12.41414 0.56953,-17.23672 0.38798,-4.82258 -0.44909,-14.00531 -1.35,-22.025 -0.90092,-8.01969 -0.26557,-12.98824 -0.82266,-18.9664 -2.8e-4,-0.003 -5.5e-4,-0.006 -8.3e-4,-0.009 m -0.92674,1.53997 c 0.36595,-5.89308 1.24762,-14.58296 3.75413,-23.74585 2.50777,-9.16747 -0.864,-13.65761 -2.59453,-20.9914 -1.73053,-7.33379 0.99001,-12.88305 2.99532,-18.62891 2.00531,-5.74586 -0.0276,-12.80416 -0.10547,-18.43906 -0.0778,-5.6349 -0.54816,-14.01881 -1.64532,-22.06719 -5.4e-4,-0.004 -0.001,-0.008 -0.002,-0.0121 m 0.90771,4.66399 c -0.64596,-6.53152 -0.69752,-14.77712 -2.10841,-24.35661 -1.41159,-9.58428 -0.40845,-13.19242 -1.24453,-19.55703 -0.83608,-6.3646 1.02558,-12.88678 3.07969,-18.65 2.05411,-5.76322 0.26683,-12.43235 0.80156,-17.32109 0,0 0,0 0,-10e-6 0.53473,-4.88874 -1.46313,-14.01852 -4.36641,-22.04609 -0.001,-0.004 -0.003,-0.008 -0.004,-0.012 m -0.22875,-0.79997 c -0.71465,-6.96556 0.74817,-13.96535 2.21592,-21.88799 0.86018,-4.64315 0.64732,-8.21317 0.24292,-11.46732 2.47557,0.46034 4.85535,1.07864 7.45109,1.58711 6.26638,1.22752 12.83516,0.57678 18.48125,1.72969 5.64608,1.15292 14.57498,-1.06446 23.73359,-3.20625 9.15861,-2.14179 12.8969,0.75368 18.69219,2.27813 0.003,7.6e-4 0.006,0.002 0.009,0.002 m -59.72044,-0.76138 c 6.2283,0.18177 13.14776,-0.58538 19.44221,-1.77215 6.2976,-1.18737 13.41208,-0.0667 20.21093,-0.18985 1e-5,0 1e-5,0 1e-5,0 6.79886,-0.12318 11.90191,1.0561 15.71797,3.14297 3.81606,2.08688 14.73135,-0.52087 24.17656,-1.53984 0,0 1e-5,0 1e-5,0 9.4452,-1.01897 12.82497,0.33012 18.46015,1.0125 0.003,3.4e-4 0.006,6.8e-4 0.008,0.001 m -1.53964,-3.10053 c 5.76607,0.84863 13.81681,-0.0318 21.44681,-0.10674 7.63382,-0.075 13.22316,-0.26473 19.6836,-0.80156 6.46044,-0.53684 13.777,0.47376 21.30781,1.41328 7.53081,0.93951 13.6252,0.10371 20.86484,0.3375 0,0 1e-5,0 1e-5,0 7.23964,0.23379 13.32812,0.96293 19.9789,2.91094 0.003,9.7e-4 0.007,0.002 0.01,0.003 m -0.71594,-3.44218 c 7.477,-0.65179 13.40506,0.48438 20.24191,1.45645 6.84026,0.97256 13.87558,0.29285 21.64531,0.88594 7.76973,0.59309 13.63244,-1.03205 20.90703,-3.12188 7.27459,-2.08982 12.09232,-0.0249 16.2875,-0.0633 4.19518,-0.0384 14.02415,0.70643 22.04609,2.13047 0.004,7.1e-4 0.008,0.001 0.012,0.002 m 0.8211,-4.93903 c 6.97941,-0.63792 13.78755,0.33175 21.36062,0.99236 2.44381,0.21318 4.71067,0.29802 6.89221,0.32138 0.0657,4.56548 -0.24491,8.85971 -0.0829,13.50213 0.23913,6.85264 -0.4145,14.14938 -1.22344,22.44688 0,0 0,0 0,0 -0.80895,8.29749 0.0829,13.33038 0.27422,19.9789 0,0 0,1e-5 0,1e-5 0.19131,6.64852 0.0905,13.8516 0.29531,21.56093 10e-5,0.004 2e-4,0.008 3.1e-4,0.0116 m -1.09703,-3.98838 c 0.10514,6.5929 -0.0684,13.03601 -0.19,19.10417 -0.12164,6.07119 0.087,14.03821 0.27422,22.08828 0.18717,8.05006 0.61221,12.87904 1.85625,18.6289 1.24404,5.74987 -0.81014,13.70881 -2.44688,21.13906 -1.63673,7.43026 0.88608,12.65538 2.67891,17.95391 9e-4,0.003 0.002,0.005 0.003,0.008 m -3.41947,7.36286 c 0.27353,6.05939 -0.0102,12.55807 -0.0215,17.6706 -0.0113,5.11508 -1.22527,14.74689 -3.64922,24.21875 -2.42395,9.47185 0.19357,13.06572 0.59062,19.21953 0.39706,6.1538 -0.28258,13.24741 -0.82265,19.72578 -0.54007,6.47837 1.07269,13.65487 3.22734,20.94922 0.001,0.004 0.002,0.007 0.003,0.0109 m 1.89425,-6.70963 c -0.63813,6.08108 0.1173,13.20902 0.33846,19.63228 0.22127,6.42648 -1.63258,13.64946 -4.87266,20.97032 -3.24007,7.32085 0.61896,13.01685 1.85625,19.02968 1.23729,6.01283 0.6042,14.18728 1.83516,22.55235 1.23096,8.36506 -0.71874,12.08662 -2.17266,16.2664 -7.2e-4,0.002 -0.001,0.004 -0.002,0.006 m 3.06207,3.52545 c 0.8629,6.04579 0.21091,12.98963 0.63152,18.99952 0,0 0,0 0,10e-6 0.42082,6.01289 0.34727,14.0593 1.03359,22.17265 0,0 0,0 0,0 0.62746,7.41743 0.4817,13.03533 1.14166,20.18144 -0.50991,0.0986 -1.01273,0.21072 -1.50715,0.339 0,0 0,0 0,0 -5.76421,1.49562 -14.11915,-1.54673 -22.38359,-4.64062 -8.26445,-3.09389 -13.00913,-0.1613 -19.05078,-0.48516 0,0 0,0 0,0 -0.003,-1.6e-4 -0.006,-3.2e-4 -0.009,-4.8e-4 m -1.66654,1.83548 c -6.12963,-0.10587 -12.66355,-0.66968 -18.00799,-2.02484 -5.34711,-1.35584 -14.51381,0.79467 -23.56484,2.38359 -9.05103,1.58892 -12.0668,-0.95976 -16.20313,-2.88984 -4.13633,-1.93008 -14.89434,0.54626 -24.68281,1.62422 0,0 0,0 -1e-5,0 -9.78846,1.07796 -12.62387,-0.14899 -17.86952,-0.42188 -0.003,-1.3e-4 -0.005,-2.7e-4 -0.008,-4.1e-4 m 1.20089,-0.65465 c -6.21478,-0.77086 -13.65004,0.65268 -20.93989,1.94178 -7.29351,1.28974 -12.27893,0.0989 -16.81485,0.31641 0,0 0,0 0,0 -4.53592,0.21754 -14.62743,-0.71164 -23.88125,-2.13047 -9.25381,-1.41884 -13.15544,0.6326 -19.45156,1.91953 -6.29612,1.28693 -13.77173,-0.73223 -21.30781,-2.17266 -0.004,-7.2e-4 -0.008,-0.001 -0.0113,-0.002 m 0.25326,1.43732 c -7.44293,0.52511 -14.40834,-0.91991 -23.23727,-2.74298 -8.83334,-1.82398 -12.81259,0.30797 -18.43905,0.90703 -10e-6,0 -10e-6,0 -10e-6,0 -5.62646,0.59907 -13.22287,-0.16488 -19.68359,-0.50625 0,0 -1e-5,0 -1e-5,0 -6.46072,-0.34136 -13.08041,0.0735 -19.24062,0.21094 -4.01818,0.0896 -8.61931,0.11734 -13.37703,0.19527 -0.21813,-2.27658 -0.48075,-4.53889 -0.72328,-6.76996 -3.5e-4,-0.003 -7e-4,-0.006 -0.001,-0.01 m 1.3297,-2.42599 c -0.16731,-6.54937 1.01701,-11.58177 3.05885,-14.78001 2.04286,-3.19984 0.19575,-13.65501 0.59062,-20.9914 0,0 0,0 0,-10e-6 0.39488,-7.33639 -0.4218,-13.813 -1.28672,-21.45547 -0.86491,-7.64246 -0.82624,-12.76359 -2.46796,-18.2914 -10e-6,0 -10e-6,0 -10e-6,-10e-6 -1.64172,-5.52781 0.92054,-14.66898 2.74219,-24.0078 9.1e-4,-0.005 0.002,-0.009 0.003,-0.014 m -3.03927,1.67127 c 0.6384,-6.09511 0.15453,-13.20835 0.4842,-19.61117 0.32983,-6.40602 -0.46941,-13.5153 -1.43438,-20.52734 0,0 0,0 0,0 -0.96496,-7.01205 0.55146,-13.00343 1.64532,-18.9875 1.09385,-5.98408 -0.22908,-13.20699 -0.675,-19.62032 -0.44593,-6.41333 0.92594,-13.06241 2.78437,-19.17734 9.3e-4,-0.003 0.002,-0.006 0.003,-0.009 m -0.95283,2.02534 c -0.54744,-5.88434 -0.37003,-12.85564 -1.11715,-18.57789 -0.74749,-5.72511 -0.31464,-13.59236 -0.92812,-20.78047 -0.61348,-7.1881 -0.36155,-14.14931 -1.07578,-22.46797 -0.71424,-8.31865 1.43676,-12.38446 4.32422,-17.17343 2.88745,-4.78897 -0.70678,-13.88839 -2.10938,-21.6875 -7e-4,-0.004 -0.001,-0.008 -0.002,-0.0117 m 0.46724,-1.72901 c 0.71541,-7.34308 0.011,-12.74478 0.0411,-18.25929 0.0301,-5.51727 1.11016,-13.21296 3.31172,-19.62032 2.20156,-6.40735 -0.1395,-14.04454 -0.44297,-22.10937 -0.30347,-8.06483 -1.07599,-13.04062 -3.24844,-19.11406 -2.17244,-6.07344 0.64203,-13.44759 1.91953,-20.31641 6.4e-4,-0.003 0.001,-0.007 0.002,-0.0103 m 2.06394,0.97143 c -0.88499,-6.11612 -1.26738,-13.18412 -3.79554,-19.56894 -0.61711,-1.5585 -0.87584,-3.16634 -0.88602,-4.81149 5.00862,-0.0579 12.40395,-0.4741 18.91753,-0.8906 8.61551,-0.55089 12.74081,0.1073 18.22812,0.31641 0,0 0,0 0,0 5.48732,0.20911 14.15782,-0.63401 22.44688,-1.89844 0,0 0,0 0,0 8.28906,-1.26443 13.22519,-0.0457 19.6625,-0.14765 0.003,-5e-5 0.006,-1.1e-4 0.01,-1.6e-4 m -71.40705,2.29906 c 6.94441,-0.2112 13.85377,-0.79317 21.57161,-2.36219 7.72171,-1.56979 13.01932,1.29249 19.07188,3.86016 0,0 0,0 0,0 6.05255,2.56767 13.86208,0.15954 21.56094,0.46406 7.69885,0.30453 12.04844,-0.33525 16.16093,-0.9914 0,0 0,0 1e-5,0 4.11249,-0.65616 13.40652,0.2804 20.21093,0.84375 0.003,2.8e-4 0.007,5.6e-4 0.0102,8.4e-4 m 1.83555,0.50552 c 7.0632,0.0755 13.41565,-1.65307 20.24252,-4.97824 6.83028,-3.32683 12.94169,1.5525 18.83984,4.64063 0,0 0,0 0,0 5.89816,3.08812 13.32167,-1.0485 19.97891,-3.14297 6.65725,-2.09447 13.64193,-0.0217 20.90703,-0.0633 7.2651,-0.0416 12.7894,1.05975 18.37578,3.18515 0.003,0.001 0.006,0.002 0.008,0.003 m 2.53166,-5.99247 c 5.86334,0.89068 12.89051,-0.0536 18.68339,-0.17009 5.79578,-0.11658 13.86384,1.31892 21.58203,3.96562 7.71819,2.64671 13.17766,-1.4812 19.53594,-4.45078 6.35828,-2.96958 13.46868,0.0125 20.40078,0.0633 6.9321,0.0508 13.21978,0.30558 19.6625,0.90704 0.003,3e-4 0.006,6e-4 0.01,9e-4 m -1.68774,5.5458 c 6.28319,-0.63208 11.91952,-0.84752 15.79291,-2.55139 1.91601,-0.84284 5.17613,-0.93201 8.76817,-0.88712 0.30267,3.41651 0.95245,6.9732 0.86692,10.0075 -0.16917,6.00152 0.64062,14.57681 1.94062,23.7336 1.30001,9.15678 -0.36576,13.72567 -1.11797,21.16015 0,1e-5 0,1e-5 0,1e-5 -0.7522,7.43448 -0.0372,12.5793 -0.12656,17.72187 -4e-5,0.003 -9e-5,0.005 -1.3e-4,0.008 m 4.72602,-1.17776 c 0.58882,7.46987 -0.32283,13.289 -0.9923,19.88332 -0.66979,6.59762 -0.43073,13.9054 -1.30781,21.70859 -0.87707,7.8032 -0.53718,13.03859 -1.60312,19.13516 -1.06594,6.09657 0.32948,12.83425 0.97031,18.48125 0.64083,5.647 1.2041,13.60165 3.62812,20.80156 0.001,0.004 0.002,0.007 0.004,0.0108 m -2.261,-0.99095 c -0.22567,7.49821 -1.22461,13.57428 -3.66998,20.72703 -2.44659,7.15632 1.24938,13.9106 3.73359,21.72968 2.48422,7.81909 -0.99189,13.13034 -2.95312,19.36719 -1.96123,6.23685 0.43755,13.29424 1.30781,19.89453 0.87026,6.60029 -0.31577,13.73883 -0.97031,21.20235 -3.3e-4,0.004 -6.5e-4,0.007 -9.8e-4,0.0112 m 0.93033,-3.29065 c 0.81419,7.44101 0.59978,12.47942 1.81284,17.43649 1.21366,4.95955 -0.61017,14.26764 -1.83516,22.78437 -1.22498,8.51673 0.75558,12.36338 2.27813,17.08907 1.52254,4.72569 -0.64477,14.43527 -1.94063,23.31171 -1.29586,8.87645 0.94395,12.9308 2.82656,18.79766 9.5e-4,0.003 0.002,0.006 0.003,0.009 m -0.42368,1.2469 c 0.67985,7.441 -0.48158,12.47366 -1.4143,17.43649 0,0 0,0 0,0 -0.93319,4.96532 1.09329,14.20858 3.26953,22.61562 2.17624,8.40704 -1.12844,13.60601 -3.375,20.82266 0,0 0,0 0,0 -0.19343,0.62136 -0.34506,1.22902 -0.4592,1.82404 -7.30421,0.22305 -10.38501,-0.97892 -14.40161,-2.35906 0,0 0,0 0,0 -4.39501,-1.51017 -13.07711,0.68407 -19.21953,2.06718 0,0 0,0 0,0 -0.003,7e-4 -0.006,0.001 -0.009,0.002 m -6.41462,-0.97257 c -7.54815,-0.11863 -14.41895,0.59887 -23.27929,1.81424 -8.86478,1.21599 -13.29234,-1.07275 -19.85235,-3.20625 -6.56,-2.13349 -13.24966,1.13056 -19.74687,3.41719 -6.49721,2.28663 -13.34683,-0.26325 -20.02109,-0.80156 -10e-6,0 -10e-6,0 -10e-6,0 -6.67426,-0.53831 -12.70277,-0.28406 -18.12265,-0.84375 -0.003,-2.8e-4 -0.005,-5.6e-4 -0.008,-8.4e-4 m 5.06103,-1.68747 c -6.39679,-0.53974 -13.29946,0.31899 -19.88493,0.92893 -6.58876,0.61025 -13.74761,1.02727 -21.24453,3.07969 0,0 0,0 0,0 -7.49692,2.05242 -13.05891,-1.49189 -19.15625,-4.49297 -6.09735,-3.00107 -13.42397,1.06453 -20.27422,3.20625 -6.85025,2.14172 -14.37769,-0.77899 -23.12188,-2.32031 -0.004,-7.7e-4 -0.009,-0.002 -0.0131,-0.002 m 2.82916,-0.54512 c -7.00723,0.67349 -13.55298,0.17438 -20.64339,0.50524 -7.09396,0.33104 -13.12908,0.1684 -19.38828,0.52735 -6.25921,0.35894 -13.73482,-0.96954 -21.20235,-2.93204 -7.46752,-1.96249 -13.68735,0.82329 -21.05468,2.44688 -6.07184,1.33809 -10.58946,0.41715 -14.71929,-0.0458 0.29115,-1.27105 0.59994,-2.52126 0.91506,-3.72423 9e-4,-0.003 0.002,-0.007 0.003,-0.0103 m -4.89551,-0.61132 c 0.618,-6.57251 0.78855,-13.67858 2.34048,-21.04482 1.55271,-7.36994 -0.94071,-12.37526 -2.84766,-17.11016 -1.90694,-4.7349 0.0402,-13.70297 0.14766,-21.11797 0.10744,-7.415 0.95808,-12.87665 2.86875,-18.60781 1.91067,-5.73116 -0.33588,-13.02895 -1.03359,-19.09297 -3.5e-4,-0.003 -7e-4,-0.006 -0.001,-0.009 m 1.0334,1.51883 c -0.82853,-6.01221 -0.91556,-14.47424 -2.74095,-23.40817 -1.82629,-8.93839 -0.24721,-12.44134 -0.73828,-17.3 -0.49106,-4.85865 0.61074,-14.065 1.81406,-22.17265 1.20333,-8.10766 -0.7387,-12.7977 -2.21484,-18.37578 0,-10e-6 0,-10e-6 0,-10e-6 -1.47614,-5.57809 -0.14744,-12.88495 -0.42187,-18.6289 -1.4e-4,-0.003 -2.8e-4,-0.006 -4.1e-4,-0.009 m 5.29572,-5.02234 c 0.51932,-7.09039 0.30539,-12.54618 0.92734,-17.64795 0.62227,-5.10432 -1.15158,-13.6811 -3.48047,-21.05468 -2.32889,-7.37359 -0.0825,-14.24698 -0.25312,-22.7211 -0.17065,-8.47412 1.35119,-11.98284 4.05,-15.9289 2.6988,-3.94607 -0.82835,-14.19003 -2.46797,-22.59454 -8.2e-4,-0.004 -0.002,-0.008 -0.002,-0.0126 m 2.74452,-0.54541 c -0.0844,-6.38229 -0.20223,-12.82855 -0.61159,-18.47167 -0.40957,-5.64595 0.63295,-12.84382 1.89844,-18.54453 1.26548,-5.70072 -0.18598,-13.2503 -0.54844,-19.76797 -0.36246,-6.51768 -1.33038,-14.49898 -3.96563,-23.48047 -2.63524,-8.9815 1.1892,-12.99689 3.54375,-18.96641 0.001,-0.003 0.002,-0.006 0.004,-0.009 m -4.36868,4.04826 c 0.83472,-7.12728 0.0866,-14.36602 0.27297,-23.11118 0.0775,-3.63847 0.21168,-6.36893 0.44327,-8.64121 4.21969,0.70241 8.63167,2.30893 13.34917,3.57272 8.0758,2.16344 12.22324,-1.23905 16.66719,-3.7125 0,0 0,0 0,0 4.44395,-2.47346 13.21444,1.22217 19.64141,3.64921 0,10e-6 0,10e-6 0,10e-6 6.42697,2.42704 13.09989,-0.7186 19.3039,-2.13047 0.003,-7.1e-4 0.006,-0.001 0.009,-0.002 m -68.65876,2.63837 c 6.09698,-0.30959 15.08414,-0.98645 25.26429,-2.97375 10.18525,-1.9883 12.04282,0.0228 16.11875,0.0422 4.07594,0.0194 13.31471,0.80227 19.95782,2.42579 6.64311,1.62351 14.64888,-0.97855 23.96562,-2.95313 0,0 10e-6,0 10e-6,0 9.31674,-1.97458 13.11824,1.06165 19.34609,3.20625 0.003,0.001 0.006,0.002 0.009,0.003 m 1.20292,-1.41767 c 6.61343,-0.78635 12.51214,-0.81892 17.5643,-2.4457 5.05468,-1.62759 13.35935,0.20595 20.08437,0.63282 6.72503,0.42686 13.85273,0.74918 21.56094,2.23593 7.70821,1.48676 13.95201,-0.93157 21.83516,-2.80547 0,0 0,0 0,0 7.88314,-1.87389 12.64729,1.01159 17.9539,3.01641 0.003,10e-4 0.005,0.002 0.008,0.003 m -4.09119,0.0387 c 5.96967,-0.30272 14.01486,-1.13889 22.05823,-3.39564 8.0474,-2.25787 13.66732,0.33729 20.99141,0.99141 7.32409,0.65412 12.46167,0.37505 17.36328,1.13906 4.90161,0.76402 13.81772,-0.90499 21.47656,-2.7 7.65885,-1.79501 12.93516,1.72364 18.79766,5.14688 0.003,0.002 0.006,0.003 0.009,0.005 m 1.16155,0.354 c 6.78936,0.35704 13.09893,-0.6618 19.29372,-2.00444 3.91167,-0.84781 8.59413,-0.63555 13.69982,-0.37314 0.52494,2.6125 1.19446,5.24214 1.93917,7.68727 2.01888,6.6287 0.37976,13.84865 1.16016,21.53984 0,0 0,0 0,10e-6 0.78039,7.69119 -0.61566,12.47081 -1.85625,17.42656 0,0 0,0 0,0 -1.2406,4.95575 0.53662,13.08386 1.60312,19.24062 5.3e-4,0.003 0.001,0.006 0.002,0.009 m -1.69028,-0.77949 c -0.78643,6.80362 -0.90296,13.34707 -2.71991,20.05307 -1.81786,6.70934 0.29003,14.13433 0.84375,22.38359 0.55371,8.24926 0.57649,11.82738 1.72969,15.46484 1.15319,3.63747 -1.44893,13.75606 -4.34532,21.26563 -2.89638,7.50957 1.04063,14.11654 3.14297,22.3625 0.001,0.004 0.002,0.008 0.003,0.0124 m 0.27211,-2.15412 c 0.69346,6.53741 -0.89975,13.65588 -2.67995,20.9605 -1.78108,7.30827 0.0976,12.21628 0.27422,16.625 0.17663,4.40872 0.0989,14.74218 0.31641,24.23984 0.21754,9.49766 -0.45098,12.00295 -1.32891,15.99219 0,0 0,0 0,0 -0.87792,3.98924 0.39586,13.95194 1.20235,21.85625 4e-4,0.004 8e-4,0.008 0.001,0.0118 m 3.28942,0.2929 c 0.007,6.29074 -0.2046,12.45288 -0.59063,17.39603 -0.38623,4.94563 0.58204,13.51052 1.77187,20.50625 1.18983,6.99573 -0.90555,14.77797 -2.7,24.32422 -1.79445,9.54625 0.43671,12.55062 1.30781,17.65859 0.87111,5.10798 -0.57044,12.65665 -1.72968,17.975 -5.8e-4,0.003 -0.001,0.005 -0.002,0.008 m -0.0824,8.08168 c 0.16067,7.15997 -0.64908,11.9871 -1.91977,15.98144 0,0 0,0 0,0 -1.27132,3.99634 0.74658,14.30751 2.21484,22.91093 1.46827,8.60343 -0.33293,12.89262 -1.0125,18.69219 -0.15142,1.29226 -0.23591,2.71564 -0.27589,4.24138 -5.32065,0.14049 -10.0998,1.52619 -15.28882,2.9361 -6.67672,1.81413 -13.00926,-1.36969 -19.05078,-4.09219 0,0 0,0 0,0 -0.003,-0.001 -0.006,-0.003 -0.009,-0.004 m 0.0211,0.55148 c -6.04638,-0.69485 -13.58084,-0.48987 -20.77139,-1.45443 -7.19415,-0.96504 -14.15107,-0.16446 -22.46797,-0.50625 0,0 0,0 0,0 -8.3169,-0.34179 -13.00716,0.20974 -19.0086,0.63281 -6.00144,0.42307 -12.57909,1.06151 -17.72187,3.16406 -5.14279,2.10256 -14.03997,-0.50231 -22.10938,-1.51875 -0.004,-5e-4 -0.008,-0.001 -0.0121,-0.002 m 5.73999,-1.34772 c -6.40385,0.50482 -13.35752,-0.16994 -20.07476,-0.48591 -6.7206,-0.31613 -12.53986,0.37983 -17.6375,1.13906 -5.09764,0.75924 -13.3346,-0.15314 -20,-0.46406 -6.6654,-0.31092 -14.80301,0.077 -24.42969,0.23203 -9.62668,0.15504 -12.48009,-0.19287 -17.44765,-0.59063 -0.002,-1.9e-4 -0.005,-3.9e-4 -0.007,-5.9e-4 m -3.46192,0.2735 c -6.66389,-0.87555 -13.88473,1.16651 -21.65641,3.50288 -7.77556,2.33753 -14.10564,-0.0266 -22.3203,-0.0633 0,0 -1e-5,0 -1e-5,0 -8.21467,-0.0367 -12.17915,-0.0765 -16.51953,-0.23204 -4.34038,-0.15553 -12.94486,0.38588 -18.86094,1.18125 -5.68461,0.76426 -13.02977,-0.48362 -20.05109,-1.61349 -0.0251,-0.30684 -0.0496,-0.61348 -0.0734,-0.91978 -3.1e-4,-0.004 -6.1e-4,-0.008 -9.2e-4,-0.0118 m -2.4678,-4.80888 c -0.49853,-7.49716 -0.56148,-12.5161 -1.70784,-17.58406 -1.14694,-5.0705 0.6255,-12.73603 1.87734,-18.22813 1.25184,-5.49209 0.5362,-14.48252 1.62422,-23.45937 1.08801,-8.97686 -1.03767,-12.2295 -3.12188,-16.68828 0,0 0,-10e-6 0,-10e-6 -2.0842,-4.45878 1.39985,-13.44737 4.17657,-20.3164 0.001,-0.003 0.003,-0.007 0.004,-0.0103 m 0.35474,-0.76025 c 0.20278,-7.44867 -0.61378,-13.1227 -1.85656,-19.35601 -1.2434,-6.23643 1.1037,-14.14741 3.33281,-22.42578 0,0 0,0 0,0 2.22912,-8.27837 -1.36413,-12.82863 -4.11328,-18.48125 -2.74915,-5.65262 -0.0602,-13.18392 -0.16875,-19.55703 0,-1e-5 0,-1e-5 0,-1e-5 -0.10856,-6.37311 1.12753,-13.78727 3.375,-21.37109 0.001,-0.004 0.002,-0.008 0.003,-0.0114 m 2.27567,1.75313 c 0.61016,-6.01185 -0.0385,-14.11537 -0.10638,-22.35348 -0.0679,-8.24223 -0.47243,-13.92726 -1.41328,-21.77187 -0.94086,-7.84462 -0.0639,-11.59198 -0.21094,-14.76875 -0.14702,-3.17678 1.28784,-13.4393 3.86015,-20.31641 10e-6,0 10e-6,0 10e-6,0 2.57231,-6.87711 -0.31226,-14.80469 -0.94922,-24.3875 -3.2e-4,-0.005 -6.4e-4,-0.01 -9.6e-4,-0.0144 m -2.86884,3.29619 c -0.69463,-5.87117 -0.28253,-13.7066 -0.8638,-21.15135 -0.58155,-7.44847 0.28596,-13.02811 0.84375,-19.09297 0.55779,-6.06486 -0.68519,-12.25741 -2.06718,-16.77266 -1.382,-4.51524 -0.44558,-14.43196 -1.35001,-23.31171 0,-10e-6 0,-10e-6 0,-10e-6 -0.90442,-8.87975 1.59751,-13.46566 4.80938,-20.37968 0.002,-0.003 0.003,-0.007 0.005,-0.0104 m 1.32278,-0.40002 c -0.87713,-6.40359 -0.42118,-13.08987 -1.24322,-19.27321 -0.45445,-3.4184 -0.18452,-7.18236 0.39182,-11.05109 3.44958,-0.14977 7.10007,-0.36824 10.72954,-0.52755 8.11173,-0.35606 12.25361,0.5284 16.75156,1.56094 0,0 0,0 0,0 4.49795,1.03254 12.95336,-0.76768 18.83984,-2.29922 10e-6,0 10e-6,0 10e-6,0 5.88648,-1.53155 13.83269,-0.26663 21.51874,-0.78047 0.004,-2.6e-4 0.008,-5.1e-4 0.0115,-7.7e-4 m -67.90003,0.99268 c 7.14096,0.33789 14.02085,1.22838 22.09866,3.6909 8.08184,2.46375 13.27518,-0.64652 19.81015,-1.91953 0,0 0,0 0,0 6.53498,-1.27301 12.75305,-0.35227 18.27032,-1.05469 5.51726,-0.70242 12.54773,0.45499 17.6164,1.35 0,0 10e-6,0 10e-6,0 5.06867,0.89501 14.43506,0.48207 23.31171,1.45547 0.004,4.9e-4 0.009,9.7e-4 0.0133,0.001 m -7.04905,-0.94989 c 6.37659,0.52628 14.14755,0.25345 22.4584,0.77968 8.315,0.5265 13.34254,0.16931 20.02109,0.48516 0,0 0,0 0,0 6.67855,0.31584 12.79784,-0.32182 18.41797,-0.94922 5.62013,-0.6274 13.3995,0.43854 20.21094,1.32891 6.81144,0.89036 13.79022,-0.79243 21.35,-2.3836 0.004,-7.9e-4 0.008,-0.002 0.0113,-0.002 m 4.09023,1.71046 c 6.25579,-0.34405 12.57136,-0.38097 17.71249,-1.15964 5.1437,-0.77906 14.47198,-0.64575 23.43828,-1.94063 8.96631,-1.29487 12.83053,1.21901 18.48125,3.67032 5.65072,2.4513 13.49266,0.34024 20.46406,1.0125 6.97141,0.67225 12.52903,-0.37519 17.59532,-1.11797 0.003,-3.7e-4 0.005,-7.5e-4 0.008,-0.001 m 2.80824,-5.12484 c 6.91585,-0.11984 13.34566,-0.60097 20.074,-1.81389 4.45894,-0.80381 8.92232,-0.55467 13.45335,-0.30532 0.0587,2.3779 0.13498,4.75586 0.2372,6.99446 0.30277,6.63052 -0.8242,14.51233 -2.48906,23.52265 0,0 0,0 0,1e-5 -1.66486,9.01032 -0.19301,13.00377 -0.59063,18.9875 0,0 0,0 0,0 -0.39761,5.98372 0.64301,13.07585 1.91954,19.21953 6.3e-4,0.003 0.001,0.006 0.002,0.009 m 0.20934,0.63316 c 0.20936,6.36922 -1.04621,13.79134 -3.14329,21.36153 -2.09812,7.57398 0.36014,13.14342 1.07578,19.43047 0.71565,6.28705 0.9931,13.1655 2.97422,19.51485 1.98113,6.34934 0.0292,13.57844 0.10547,20.73828 0.0763,7.15984 -1.36483,13.92818 -4.11328,21.79297 -0.001,0.004 -0.003,0.008 -0.004,0.0118 m 2.66221,-0.21253 c 0.1827,6.7965 0.34931,13.23657 1.03332,19.69449 0.68435,6.46114 -0.56609,12.24707 -1.6875,16.73046 -1.12142,4.4834 -0.927,14.0899 -2.78438,22.27813 -1.85737,8.18823 0.8936,14.0932 2.65781,22.29922 1.76422,8.20602 -0.57592,12.08163 -1.72968,16.24531 -5.8e-4,0.002 -0.001,0.004 -0.002,0.006 m 2.97544,1.39696 c -0.33791,7.34288 -1.25731,12.54524 -3.77528,17.64757 -2.51922,5.10489 0.64027,14.32657 1.91954,22.95313 1.27926,8.62656 0.45379,13.01137 1.37109,19.02969 0.9173,6.01831 -0.87335,12.3427 -2.61563,17.02578 -1.74227,4.68308 1.22372,14.07084 3.67032,22.21484 0.001,0.004 0.002,0.008 0.004,0.0122 m -3.27308,1.0723 c 0.0782,5.81576 1.0481,14.41183 3.14285,23.23971 2.09581,8.83229 0.44508,13.62935 1.32891,20.90703 0.88383,7.27768 -1.31055,12.15567 -3.94453,16.45625 0,0 0,0 0,0 -0.66921,1.09264 -1.00404,2.53337 -1.13425,4.20545 -5.35516,-0.0638 -8.94662,1.86673 -14.05859,2.83765 -6.85313,1.30163 -12.19244,-0.66979 -16.6039,-2.0039 0,0 0,0 0,-10e-6 -0.002,-6.6e-4 -0.004,-0.001 -0.007,-0.002 m -4.328,2.99785 c -6.92875,0.36357 -12.21627,-1.15315 -16.67788,-3.48101 -4.46385,-2.32903 -14.36398,0.10484 -23.07969,0.3375 -8.71571,0.23266 -12.57993,0.0999 -17.72188,0.3164 -5.14194,0.2165 -13.36223,-0.32512 -20.06328,-0.9914 0,0 0,0 0,0 -6.70105,-0.66628 -13.83825,1.1674 -21.53984,3.48047 -0.004,0.001 -0.008,0.002 -0.0115,0.003 m 4.07289,-5.06643 c -6.50335,-0.30828 -14.65122,0.32254 -23.93478,0.97078 -9.2882,0.64856 -12.89339,0.0965 -18.69218,0.29531 -5.7988,0.19878 -12.39783,0.5502 -17.19454,1.62422 -4.7967,1.07403 -13.38466,-1.65227 -20.14765,-4.93594 -6.763,-3.28366 -14.7109,1.36006 -24.13438,4.0711 -0.005,0.001 -0.009,0.003 -0.0141,0.004 m 0.50981,-3.75939 c -7.04201,-0.42766 -13.26987,0.18257 -19.84177,0.52798 -6.57519,0.34559 -12.01996,0.61918 -16.03437,1.87735 0,0 -10e-6,0 -10e-6,0 -4.01441,1.25817 -15.02941,-0.47018 -25.08359,-1.39219 -10.05418,-0.92201 -12.99618,1.10517 -18.9875,3.33281 -5.94413,2.2101 -12.3681,-0.38404 -17.30919,-1.24544 0.0133,-0.0593 0.0267,-0.11857 0.0401,-0.17768 8.6e-4,-0.004 0.002,-0.008 0.003,-0.0113 m -3.77742,-4.28057 c 0.61817,-6.52945 0.96607,-12.69785 2.91001,-18.09176 1.94491,-5.39662 -0.64469,-12.53592 -1.94062,-17.61641 -1.29593,-5.08049 -0.36064,-14.31616 -1.07578,-22.97422 -0.71515,-8.65805 1.64495,-13.68342 4.91484,-21.05469 0,0 0,0 0,0 3.26988,-7.37127 -1.54659,-13.08667 -4.61953,-19.26172 -0.002,-0.003 -0.003,-0.006 -0.005,-0.009 m 4.26681,2.93175 c 0.84186,-6.36196 0.22001,-13.54356 0.65264,-20.66545 0.43285,-7.12546 -0.37716,-13.09146 -1.13906,-19.28281 0,0 0,0 0,-10e-6 -0.76191,-6.19135 0.18949,-13.53498 0.59062,-20.59062 0.40114,-7.05564 -0.333,-12.74798 -0.9914,-18.27031 0,-10e-6 0,-10e-6 0,-10e-6 -0.65841,-5.52233 -0.92981,-13.22969 -2.76328,-19.68359 -9.2e-4,-0.003 -0.002,-0.006 -0.003,-0.01 m 0.99542,2.31965 c 0.84235,-6.89527 0.71339,-13.80557 2.1292,-21.44512 1.41652,-7.64338 -0.52397,-14.2846 -1.56094,-22.86875 -1.03697,-8.58416 1.09491,-12.73202 3.31172,-18.18594 2.21681,-5.45392 -0.0919,-13.04119 -0.25312,-19.13516 0,0 0,0 0,0 -0.16123,-6.09397 -0.63042,-13.04836 -1.87735,-19.15625 -6.2e-4,-0.003 -0.001,-0.006 -0.002,-0.009 m -1.89711,0.50543 c -0.35711,-6.64924 0.59329,-13.25997 1.75132,-19.80017 1.15861,-6.54348 -1.24348,-15.06366 -3.7125,-25.16797 -2.46903,-10.10432 0.87806,-12.31612 2.65781,-16.94141 1.77975,-4.62528 0.26656,-14.08673 0.82266,-22.25703 0.5561,-8.1703 -0.37273,-12.82842 -1.13907,-18.46016 -3.8e-4,-0.003 -7.6e-4,-0.006 -0.001,-0.008 m 3.08056,1.4333 c -0.18247,-6.34698 -0.11256,-12.58867 -0.35832,-17.75453 -0.14355,-3.01742 -0.34896,-7.17631 -0.76405,-11.58589 2.47866,-0.3689 4.85076,-0.8652 7.06274,-1.1662 5.31491,-0.72323 12.72872,-0.0437 18.20703,-0.10547 1e-5,0 1e-5,0 1e-5,0 5.47831,-0.0617 12.9857,-0.5054 18.94531,-1.49765 0,0 0,0 0,0 5.95961,-0.99225 14.08744,0.33574 22.27812,0.9914 0.004,3.3e-4 0.008,6.6e-4 0.0123,9.9e-4 m 35.71457,429.95547 -8.04296,0 m -97.16775,-338.41057 0,-7.17578 m 0,151.05296 0,-7.45704 m 246.78505,-229.84337 9.50781,0 m 70.7285,431.8338 -8.47657,0"
       style="fill:#d40000;fill-opacity:0;stroke:#000000;stroke-width:1.07929373;stroke-miterlimit:4;stroke-opacity:1;stroke-dasharray:25.90304902, 25.90304902;stroke-dashoffset:0"
       inkscape:connector-curvature="0" />
    <path
       inkscape:original-d="M 605.49751,642.98051 390.61338,822.89986"
       inkscape:path-effect="#path-effect3778"
       sodipodi:nodetypes="cc"
       inkscape:connector-curvature="0"
       id="path3776"
       d="m 606.62504,645.90928 c -14.80283,12.43449 -30.83218,25.67991 -46.51664,38.49798 -0.003,0.002 -0.005,0.004 -0.008,0.006 m 0.88322,-3.47435 c -14.87322,12.57028 -31.22156,25.54466 -47.64161,38.13229 -0.003,0.002 -0.005,0.004 -0.008,0.006 m -0.37653,1.71283 c -14.78397,13.24014 -30.44869,25.89146 -45.32134,39.15851 -0.002,0.002 -0.005,0.004 -0.007,0.007 m 2.78075,-0.85779 c -15.87087,13.31059 -31.364,26.49584 -48.07705,40.95847 -0.003,0.002 -0.006,0.005 -0.008,0.007 m -3.51901,-4.76565 c -10.52529,8.6185 -20.45676,17.15647 -30.11897,25.61458 M 606.24756,641.80786 c -15.08866,12.7204 -31.19295,26.32202 -47.59932,40.46658 -0.003,0.002 -0.005,0.005 -0.008,0.007 m 1.98779,0.81286 c -15.83323,13.3102 -30.86003,25.30372 -46.57238,37.37254 -0.003,0.002 -0.005,0.004 -0.008,0.006 m 1.36689,0.23094 c -14.74188,13.01054 -30.64598,25.5885 -45.96824,38.2305 -0.003,0.002 -0.005,0.004 -0.008,0.006 m -4.17165,-3.40292 c -14.87313,13.05269 -30.98025,25.55441 -46.96661,38.14611 -0.003,0.002 -0.005,0.004 -0.008,0.006 m 4.01025,1.26214 c -10.59783,9.00852 -21.01044,17.93141 -31.64913,27.29396 M 604.30919,642.27494 c -15.26193,12.50942 -31.13713,25.6541 -47.38829,38.46982 -0.003,0.002 -0.005,0.004 -0.008,0.006 m 1.95347,-0.0514 c -15.55675,13.07153 -30.42089,25.88959 -45.27877,39.14453 -0.002,0.002 -0.005,0.004 -0.007,0.007 m -0.24787,1.5515 c -15.29449,13.12319 -30.45126,26.32377 -45.33515,40.46638 -0.002,0.002 -0.005,0.005 -0.007,0.007 m -0.4919,-3.13275 c -15.86617,12.69684 -31.33221,25.86712 -48.0208,39.10253 -0.003,0.002 -0.006,0.004 -0.008,0.007 m 1.61247,-0.94948 c -10.18282,8.521 -20.55314,16.98433 -30.96713,25.25535 M 604.71523,642.03809 c -15.67851,12.24724 -30.34892,25.95479 -45.02558,39.32776 -0.002,0.002 -0.005,0.004 -0.007,0.007 m -2.69311,-2.70428 c -14.95254,12.62689 -30.33967,26.79793 -45.01189,41.88694 -0.002,0.003 -0.005,0.005 -0.007,0.008 m 1.84828,-2.929 c -14.9808,13.35277 -30.79185,26.55711 -46.40406,41.18346 -0.003,0.002 -0.005,0.005 -0.008,0.007 m 1.95543,-0.66011 c -15.67387,13.14169 -30.50624,25.60274 -45.53183,38.31481 -0.003,0.002 -0.005,0.004 -0.008,0.006 m -2.14568,3.54392 c -10.58835,8.76939 -20.89546,17.27328 -31.32623,25.71059 M 603.86852,643.39632 c -15.33656,13.07588 -30.22944,24.88354 -44.68825,36.12109 -0.002,0.002 -0.005,0.004 -0.007,0.006 m 0.83405,2.83358 c -15.11182,12.76719 -30.43697,26.16178 -45.30712,39.94625 -0.002,0.002 -0.005,0.005 -0.007,0.007 m 2.00452,-2.47151 c -15.20558,12.94035 -30.71404,25.78243 -46.12269,38.83522 -0.003,0.002 -0.005,0.004 -0.008,0.007 m -6.22282,0.32036 c -15.74882,13.15546 -30.52637,24.75785 -45.57399,35.76949 -0.003,0.002 -0.005,0.004 -0.008,0.006 m 2.31262,0.20877 c -9.93765,8.68156 -20.37627,17.57751 -30.85098,26.7874 m 77.56194,-63.48709 -4.93342,4.13068 m -57.44748,48.09994 -4.4015,3.68532 m 24.63314,-20.62498 -4.57401,3.82976 m 152.09642,-127.34812 -5.83193,4.88299 m -68.35077,57.2291 -5.19938,4.35337"
       style="fill:none;stroke:#000000;stroke-width:1;stroke-linecap:butt;stroke-linejoin:miter;stroke-miterlimit:4;stroke-opacity:1;stroke-dasharray:24, 24;stroke-dashoffset:0" />
    <rect
       style="opacity:0.97000002;fill:#ffffff;fill-opacity:1;stroke:none"
       id="rect3783"
       width="22.66748"
       height="133.16075"
       x="604.94537"
       y="551.51086" />
    <text
       xml:space="preserve"
       style="font-size:79.81760406px;font-style:normal;font-variant:normal;font-weight:normal;font-stretch:normal;line-height:125%;letter-spacing:0px;word-spacing:0px;fill:#000000;fill-opacity:1;stroke:none;font-family:Serif;-inkscape-font-specification:Serif"
       x="123.17664"
       y="869.72955"
       id="text4435"
       sodipodi:linespacing="125%"><tspan
         sodipodi:role="line"
         id="tspan4437"
         x="123.17664"
         y="869.72955"
         style="font-style:normal;font-variant:normal;font-weight:normal;font-stretch:normal;font-family:Sketch Block;-inkscape-font-specification:Sketch Block">CPU0</tspan></text>
    <rect
       style="fill:#ffffff;fill-opacity:1;stroke:#000000;stroke-width:9.19100475;stroke-linecap:butt;stroke-miterlimit:4;stroke-opacity:1;stroke-dasharray:none;stroke-dashoffset:0"
       id="rect4458"
       width="8.8089952"
       height="13.808995"
       x="612.09552"
       y="664.4577" />
    <rect
       y="635.4577"
       x="612.09552"
       height="13.808995"
       width="8.8089952"
       id="rect4460"
       style="fill:#ffffff;fill-opacity:1;stroke:#000000;stroke-width:9.19100475;stroke-linecap:butt;stroke-miterlimit:4;stroke-opacity:1;stroke-dasharray:none;stroke-dashoffset:0" />
    <rect
       style="fill:#ffffff;fill-opacity:1;stroke:#000000;stroke-width:9.19100475;stroke-linecap:butt;stroke-miterlimit:4;stroke-opacity:1;stroke-dasharray:none;stroke-dashoffset:0"
       id="rect4462"
       width="8.8089952"
       height="13.808995"
       x="612.09552"
       y="606.4577" />
    <text
       sodipodi:linespacing="125%"
       id="text4487"
       y="662.72955"
       x="687.17664"
       style="font-size:79.81760406px;font-style:normal;font-variant:normal;font-weight:normal;font-stretch:normal;line-height:125%;letter-spacing:0px;word-spacing:0px;fill:#000000;fill-opacity:1;stroke:none;font-family:Serif;-inkscape-font-specification:Serif"
       xml:space="preserve"><tspan
         style="font-style:normal;font-variant:normal;font-weight:normal;font-stretch:normal;font-family:Sketch Block;-inkscape-font-specification:Sketch Block"
         y="662.72955"
         x="687.17664"
         id="tspan4489"
         sodipodi:role="line">CPU1</tspan></text>
  </g>
</svg>
