<?xml version="1.0" encoding="UTF-8" standalone="no"?>
<!-- Created with Inkscape (http://www.inkscape.org/) -->

<svg
   xmlns:dc="http://purl.org/dc/elements/1.1/"
   xmlns:cc="http://creativecommons.org/ns#"
   xmlns:rdf="http://www.w3.org/1999/02/22-rdf-syntax-ns#"
   xmlns:svg="http://www.w3.org/2000/svg"
   xmlns="http://www.w3.org/2000/svg"
   xmlns:sodipodi="http://sodipodi.sourceforge.net/DTD/sodipodi-0.dtd"
   xmlns:inkscape="http://www.inkscape.org/namespaces/inkscape"
   width="1052.3622"
   height="744.09448"
   id="svg2"
   version="1.1"
   inkscape:version="0.48.4 r9939"
   sodipodi:docname="reactors-3.svg">
  <defs
     id="defs4">
    <inkscape:path-effect
       effect="sketch"
       id="path-effect6405"
       is_visible="true"
       nbiter_approxstrokes="8"
       strokelength="100"
       strokelength_rdm="0.3;1"
       strokeoverlap="0.3"
       strokeoverlap_rdm="0.5;1"
       ends_tolerance="0.2;1"
       parallel_offset="0.5;1"
       tremble_size="0.4;1"
       tremble_frequency="1"
       nbtangents="5"
       tgt_places_rdmness="1;1"
       tgtscale="10"
       tgtlength="2"
       tgtlength_rdm="0.3;1" />
    <inkscape:path-effect
       effect="sketch"
       id="path-effect6403"
       is_visible="true"
       nbiter_approxstrokes="8"
       strokelength="100"
       strokelength_rdm="0.3;1"
       strokeoverlap="0.3"
       strokeoverlap_rdm="0.5;1"
       ends_tolerance="0.2;1"
       parallel_offset="0.3;1"
       tremble_size="0.4;1"
       tremble_frequency="1"
       nbtangents="5"
       tgt_places_rdmness="1;1"
       tgtscale="10"
       tgtlength="2"
       tgtlength_rdm="0.3;1" />
    <inkscape:path-effect
       effect="sketch"
       id="path-effect6401"
       is_visible="true"
       nbiter_approxstrokes="8"
       strokelength="100"
       strokelength_rdm="0.3;1"
       strokeoverlap="0.3"
       strokeoverlap_rdm="0.8;1"
       ends_tolerance="0.3;1"
       parallel_offset="0.3;1"
       tremble_size="0.3;1"
       tremble_frequency="1"
       nbtangents="5"
       tgt_places_rdmness="1;1"
       tgtscale="10"
       tgtlength="3"
       tgtlength_rdm="0.3;1" />
    <inkscape:path-effect
       effect="sketch"
       id="path-effect6399"
       is_visible="true"
       nbiter_approxstrokes="5"
       strokelength="100"
       strokelength_rdm="0.4;1"
       strokeoverlap="0.3"
       strokeoverlap_rdm="0.3;1"
       ends_tolerance="0;1"
       parallel_offset="0.3;1"
       tremble_size="0.3;1"
       tremble_frequency="1"
       nbtangents="5"
       tgt_places_rdmness="1;1"
       tgtscale="10"
       tgtlength="2"
       tgtlength_rdm="0.3;1" />
    <inkscape:path-effect
       effect="sketch"
       id="path-effect6376"
       is_visible="true"
       nbiter_approxstrokes="4"
       strokelength="56"
       strokelength_rdm="0.2;1"
       strokeoverlap="0.2"
       strokeoverlap_rdm="0.2;1"
       ends_tolerance="0;1"
       parallel_offset="1.7;1"
       tremble_size="1.7;1"
       tremble_frequency="2.5"
       nbtangents="5"
       tgt_places_rdmness="1;1"
       tgtscale="10"
       tgtlength="2"
       tgtlength_rdm="0.2;1" />
    <inkscape:path-effect
       tgtlength_rdm="0.2;1"
       tgtlength="2"
       tgtscale="10"
       tgt_places_rdmness="1;1"
       nbtangents="5"
       tremble_frequency="2.5"
       tremble_size="1.4;1"
       parallel_offset="1.3;1"
       ends_tolerance="0;1"
       strokeoverlap_rdm="0.2;1"
       strokeoverlap="0.2"
       strokelength_rdm="0.2;1"
       strokelength="50"
       nbiter_approxstrokes="3"
       is_visible="true"
       id="path-effect6372"
       effect="sketch" />
    <inkscape:path-effect
       effect="sketch"
       id="path-effect6368"
       is_visible="true"
       nbiter_approxstrokes="5"
       strokelength="50"
       strokelength_rdm="0.2;1"
       strokeoverlap="0.2"
       strokeoverlap_rdm="0.2;1"
       ends_tolerance="0;1"
       parallel_offset="2;1"
       tremble_size="2;1"
       tremble_frequency="2.5"
       nbtangents="5"
       tgt_places_rdmness="1;1"
       tgtscale="10"
       tgtlength="2"
       tgtlength_rdm="0.2;1" />
    <inkscape:path-effect
       effect="sketch"
       id="path-effect5535"
       is_visible="true"
       nbiter_approxstrokes="5"
       strokelength="100"
       strokelength_rdm="0.3;1"
       strokeoverlap="0.3"
       strokeoverlap_rdm="0.3;1"
       ends_tolerance="0;1"
       parallel_offset="3;1"
       tremble_size="3;1"
       tremble_frequency="1"
       nbtangents="5"
       tgt_places_rdmness="1;1"
       tgtscale="10"
       tgtlength="4"
       tgtlength_rdm="0.3;1" />
    <inkscape:path-effect
       effect="sketch"
       id="path-effect5532"
       is_visible="true"
       nbiter_approxstrokes="7"
       strokelength="79"
       strokelength_rdm="0;1297114862"
       strokeoverlap="0"
       strokeoverlap_rdm="0.1;3116779752"
       ends_tolerance="0.1;468025825"
       parallel_offset="2.9;1"
       tremble_size="3;349010162"
       tremble_frequency="2"
       nbtangents="8"
       tgt_places_rdmness="1;1215162598"
       tgtscale="10.7"
       tgtlength="4"
       tgtlength_rdm="0.3;1459301102" />
    <marker
       inkscape:stockid="Arrow2Mend"
       orient="auto"
       refY="0.0"
       refX="0.0"
       id="Arrow2Mend"
       style="overflow:visible;">
      <path
         id="path3849"
         style="fill-rule:evenodd;stroke-width:0.62500000;stroke-linejoin:round;"
         d="M 8.7185878,4.0337352 L -2.2072895,0.016013256 L 8.7185884,-4.0017078 C 6.9730900,-1.6296469 6.9831476,1.6157441 8.7185878,4.0337352 z "
         transform="scale(0.6) rotate(180) translate(0,0)" />
    </marker>
    <marker
       inkscape:stockid="Arrow2Mend"
       orient="auto"
       refY="0"
       refX="0"
       id="Arrow2Mend-1"
       style="overflow:visible">
      <path
         inkscape:connector-curvature="0"
         id="path3849-9"
         style="fill-rule:evenodd;stroke-width:0.625;stroke-linejoin:round"
         d="M 8.7185878,4.0337352 -2.2072895,0.01601326 8.7185884,-4.0017078 c -1.7454984,2.3720609 -1.7354408,5.6174519 -6e-7,8.035443 z"
         transform="scale(-0.6,-0.6)" />
    </marker>
    <marker
       inkscape:stockid="Arrow2Mend"
       orient="auto"
       refY="0"
       refX="0"
       id="marker4480"
       style="overflow:visible">
      <path
         inkscape:connector-curvature="0"
         id="path4482"
         style="fill-rule:evenodd;stroke-width:0.625;stroke-linejoin:round"
         d="M 8.7185878,4.0337352 -2.2072895,0.01601326 8.7185884,-4.0017078 c -1.7454984,2.3720609 -1.7354408,5.6174519 -6e-7,8.035443 z"
         transform="scale(-0.6,-0.6)" />
    </marker>
    <marker
       inkscape:stockid="Arrow2Mend"
       orient="auto"
       refY="0"
       refX="0"
       id="marker4484"
       style="overflow:visible">
      <path
         inkscape:connector-curvature="0"
         id="path4486"
         style="fill-rule:evenodd;stroke-width:0.625;stroke-linejoin:round"
         d="M 8.7185878,4.0337352 -2.2072895,0.01601326 8.7185884,-4.0017078 c -1.7454984,2.3720609 -1.7354408,5.6174519 -6e-7,8.035443 z"
         transform="scale(-0.6,-0.6)" />
    </marker>
    <marker
       inkscape:stockid="Arrow2Mend"
       orient="auto"
       refY="0"
       refX="0"
       id="marker4488"
       style="overflow:visible">
      <path
         inkscape:connector-curvature="0"
         id="path4490"
         style="fill-rule:evenodd;stroke-width:0.625;stroke-linejoin:round"
         d="M 8.7185878,4.0337352 -2.2072895,0.01601326 8.7185884,-4.0017078 c -1.7454984,2.3720609 -1.7354408,5.6174519 -6e-7,8.035443 z"
         transform="scale(-0.6,-0.6)" />
    </marker>
    <marker
       inkscape:stockid="Arrow2Mend"
       orient="auto"
       refY="0"
       refX="0"
       id="marker4492"
       style="overflow:visible">
      <path
         inkscape:connector-curvature="0"
         id="path4494"
         style="fill-rule:evenodd;stroke-width:0.625;stroke-linejoin:round"
         d="M 8.7185878,4.0337352 -2.2072895,0.01601326 8.7185884,-4.0017078 c -1.7454984,2.3720609 -1.7354408,5.6174519 -6e-7,8.035443 z"
         transform="scale(-0.6,-0.6)" />
    </marker>
    <marker
       inkscape:stockid="Arrow2Mend"
       orient="auto"
       refY="0"
       refX="0"
       id="marker4496"
       style="overflow:visible">
      <path
         inkscape:connector-curvature="0"
         id="path4498"
         style="fill-rule:evenodd;stroke-width:0.625;stroke-linejoin:round"
         d="M 8.7185878,4.0337352 -2.2072895,0.01601326 8.7185884,-4.0017078 c -1.7454984,2.3720609 -1.7354408,5.6174519 -6e-7,8.035443 z"
         transform="scale(-0.6,-0.6)" />
    </marker>
  </defs>
  <sodipodi:namedview
     id="base"
     pagecolor="#ffffff"
     bordercolor="#666666"
     borderopacity="1.0"
     inkscape:pageopacity="0.0"
     inkscape:pageshadow="2"
     inkscape:zoom="0.98994949"
     inkscape:cx="866.91086"
     inkscape:cy="276.23583"
     inkscape:document-units="px"
     inkscape:current-layer="layer1"
     showgrid="false"
     inkscape:window-width="3436"
     inkscape:window-height="1404"
     inkscape:window-x="1680"
     inkscape:window-y="16"
     inkscape:window-maximized="0" />
  <metadata
     id="metadata7">
    <rdf:RDF>
      <cc:Work
         rdf:about="">
        <dc:format>image/svg+xml</dc:format>
        <dc:type
           rdf:resource="http://purl.org/dc/dcmitype/StillImage" />
        <dc:title />
      </cc:Work>
    </rdf:RDF>
  </metadata>
  <g
     inkscape:label="Layer 1"
     inkscape:groupmode="layer"
     id="layer1"
     transform="translate(0,-308.2677)">
    <path
       sodipodi:type="arc"
       style="fill:#d40000;fill-opacity:0;stroke:#000000;stroke-width:0.1013116;stroke-linecap:butt;stroke-miterlimit:4;stroke-opacity:1;stroke-dasharray:none;stroke-dashoffset:0"
       id="path3804"
       sodipodi:cx="572.89856"
       sodipodi:cy="359.93661"
       sodipodi:rx="4.56147"
       sodipodi:ry="4.56147"
       d="m 577.64287,360.41013 c 0.007,2.51411 -2.03091,4.55264 -4.54554,4.54896 -2.51467,-0.004 -4.55391,-2.04847 -4.55125,-4.57014 0.003,-2.52168 2.04637,-4.56549 4.56656,-4.56686 2.52019,-0.001 4.56255,2.04012 4.562,4.55889 -3.4e-4,1.60163 -0.8267,3.01059 -2.07661,3.82435 m 1.92761,-4.41394 c -0.003,2.51665 -2.04718,4.55709 -4.56793,4.55546 -2.52079,-0.002 -4.56374,-2.04488 -4.56394,-4.56492 -1.9e-4,-2.52003 2.04243,-4.56261 4.56273,-4.56266 2.52029,-5e-5 4.56395,2.04245 4.56617,4.56231 0.002,2.22332 -1.58579,4.07546 -3.68768,4.48142 m 3.38361,-4.1013 c -0.007,2.51659 -2.05349,4.5565 -4.57728,4.55367 -2.52383,-0.003 -4.56916,-2.04756 -4.572,-4.56993 -0.003,-2.52236 2.03771,-4.56738 4.55567,-4.57089 2.51795,-0.004 4.55974,2.0356 4.55983,4.55087 4e-5,1.13281 -0.41403,2.16896 -1.09925,2.96532 m 1.48699,-2.90791 c 0.007,2.52426 -2.03022,4.57028 -4.544,4.57437 -2.51382,0.004 -4.55208,-2.03507 -4.54794,-4.55104 0.004,-2.51597 2.04937,-4.55577 4.57169,-4.55318 2.52231,0.003 4.56675,2.04676 4.569,4.56807 0.002,2.21242 -1.56908,4.05717 -3.65508,4.47712 m 3.21956,-4.95131 c -0.005,2.51546 -2.0495,4.55475 -4.57059,4.55153 -2.52112,-0.003 -4.56386,-2.04799 -4.56324,-4.57005 6.3e-4,-2.52207 2.04444,-4.56657 4.56668,-4.56915 2.52224,-0.003 4.568,2.03758 4.57327,4.55437 7.2e-4,0.34755 -0.0375,0.68602 -0.11052,1.01127 m -8.12391,-3.59059 2.62875,-1.85472 m 5.05249,1.67612 1.03361,2.67775 m -3.36569,-4.28631 2.43724,1.7196 m 0.13016,5.80394 -3.26022,1.95824 m -5.35316,-3.42277 0.16366,-3.38667"
       transform="matrix(9.8705378,0,0,9.8705378,-5122.0848,-2814.8105)"
       inkscape:path-effect="#path-effect6399" />
    <path
       transform="matrix(9.8705378,0,0,9.8705378,-4955.3078,-2814.8105)"
       d="m 571.20966,356.24904 c 0.57276,-0.25856 1.20797,-0.40297 1.87662,-0.40421 2.52531,-0.005 4.57178,2.03422 4.57582,4.55014 0.004,2.51591 -2.03562,4.5559 -4.55265,4.55378 -2.5133,-0.002 -4.55211,-2.03961 -4.55761,-4.55476 m 8.95451,-1.02508 c 0.0126,0.13894 0.019,0.27969 0.0188,0.42196 -0.003,2.51675 -2.04698,4.55728 -4.56766,4.55569 -2.52068,-0.002 -4.56355,-2.04481 -4.56364,-4.56482 -6e-5,-1.65256 0.87841,-3.09977 2.19395,-3.90033 m 5.53108,1.30965 c 0.68275,0.79702 1.09444,1.83376 1.09189,2.96714 -0.006,2.51652 -2.05186,4.55636 -4.57492,4.55335 -1.29869,-0.002 -2.47061,-0.5441 -3.30253,-1.41433 m 5.83271,0.90688 c -0.63976,0.34608 -1.37157,0.54301 -2.149,0.54448 -2.51281,0.005 -4.55029,-2.03391 -4.54529,-4.54933 0.005,-2.51541 2.0509,-4.5548 4.57392,-4.55176 2.52302,0.003 4.568,2.04754 4.57081,4.56918 0.003,2.52164 -2.03743,4.56568 -4.55462,4.56762 -2.51719,0.002 -4.55799,-2.03882 -4.55649,-4.55643 9.6e-4,-1.61745 0.84467,-3.03818 2.11624,-3.84695 m -2.47075,2.46977 c 0.41251,-2.0933 2.25451,-3.67119 4.46508,-3.67405 2.51699,-0.003 4.55844,2.03643 4.55873,4.55281 2e-4,1.74654 -0.98288,3.26359 -2.4259,4.02748 m 0.01,-7.88805 c 1.5776,0.71939 2.67474,2.31328 2.67261,4.16346 -0.003,2.52139 -2.04656,4.56426 -4.56633,4.56368 -2.03313,-4.7e-4 -3.75498,-1.33127 -4.34339,-3.17026 m 7.49432,-4.4843 c 0.72971,0.80909 1.17361,1.88174 1.17206,3.05843 -0.003,2.51914 -2.04737,4.56118 -4.56766,4.56077 -1.63398,-2.6e-4 -3.06694,-0.85897 -3.8725,-2.14962 m 8.76664,-1.60712 c -0.48613,1.99172 -2.28262,3.46969 -4.42486,3.46955 -2.51765,-1.6e-4 -4.5593,-2.04189 -4.55941,-4.55977 -2e-5,-0.38009 0.0465,-0.7493 0.13413,-1.10224 m -0.36372,-1.01353 3.94312,-2.78208 m 4.1369,1.47037 1.55041,4.01662 m -4.2334,-5.38565 3.65586,2.5794 m 0.3359,4.88448 -4.89033,2.93737 m -4.57902,-3.06567 0.24549,-5.08001"
       sodipodi:ry="4.56147"
       sodipodi:rx="4.56147"
       sodipodi:cy="359.93661"
       sodipodi:cx="572.89856"
       id="path3806"
       style="fill:#d40000;fill-opacity:0;stroke:#000000;stroke-width:0.1013116;stroke-linecap:butt;stroke-miterlimit:4;stroke-opacity:1;stroke-dasharray:none;stroke-dashoffset:0"
       sodipodi:type="arc"
       inkscape:path-effect="#path-effect6401" />
    <path
       sodipodi:type="arc"
       style="fill:#d40000;fill-opacity:0;stroke:#000000;stroke-width:0.1013116;stroke-linecap:butt;stroke-miterlimit:4;stroke-opacity:1;stroke-dasharray:none;stroke-dashoffset:0"
       id="path3808"
       sodipodi:cx="572.89856"
       sodipodi:cy="359.93661"
       sodipodi:rx="4.56147"
       sodipodi:ry="4.56147"
       d="m 568.79015,361.92499 c -0.11494,-0.40394 -0.17586,-0.8308 -0.1744,-1.27223 0.008,-2.52565 2.05645,-4.57248 4.5813,-4.57705 2.52485,-0.005 4.57072,2.03453 4.57385,4.5508 0.003,2.51627 -2.03746,4.55665 -4.55578,4.55508 -0.43957,-2.7e-4 -0.86465,-0.0627 -1.26691,-0.17908 m -1.41322,-9.12924 c 0.72074,-0.48081 1.58607,-0.76134 2.51673,-0.76242 2.51596,-0.003 4.55628,2.03735 4.55492,4.55482 -0.001,2.51746 -2.04396,4.55868 -4.56277,4.55797 -1.48601,-4.1e-4 -2.80573,-0.71143 -3.63777,-1.81172 m -0.65778,-4.59775 c 0.80776,-1.25558 2.21483,-2.08688 3.81565,-2.08922 2.51216,-0.004 4.54951,2.03533 4.54486,4.5505 -0.004,2.21513 -1.59092,4.06061 -3.69211,4.46631 m 3.1323,-1.37337 c -0.83143,0.95736 -2.0546,1.56287 -3.41834,1.56615 -2.51114,0.006 -4.54739,-2.03167 -4.54113,-4.54607 0.006,-2.5144 2.05307,-4.55303 4.57703,-4.54919 2.52395,0.004 4.56958,2.04894 4.57306,4.57123 0.003,2.52228 -2.03631,4.56681 -4.55302,4.56929 -1.46375,0.001 -2.76641,-0.68817 -3.59983,-1.76067 m 0.11829,0.0411 c -1.08656,-0.83668 -1.78728,-2.14899 -1.78961,-3.62446 -0.004,-2.52377 2.03637,-4.56956 4.55503,-4.57351 2.51867,-0.004 4.56184,2.03516 4.56451,4.55086 9.6e-4,0.90202 -0.26049,1.74282 -0.71218,2.45017 m -7.81444,-3.3169 c 0.54685,-1.89407 2.29571,-3.27861 4.36929,-3.27651 2.51565,0.003 4.55624,2.04536 4.5558,4.5635 -4.4e-4,2.51814 -2.04176,4.55795 -4.55848,4.5534 -0.13621,-2.4e-4 -0.27101,-0.006 -0.40417,-0.0184 m -3.79101,-6.88355 c 0.80219,-1.29023 2.2321,-2.14868 3.86288,-2.1488 2.51535,-2e-4 4.55561,2.0417 4.55471,4.56032 -8.7e-4,2.41858 -1.88368,4.39723 -4.26242,4.54967 m -1.2689,-9.3165 c 0.50407,-0.19153 1.05068,-0.29654 1.62171,-0.29687 2.52277,-0.001 4.56698,2.04039 4.56819,4.56019 0.001,2.51981 -2.04097,4.5634 -4.56121,4.56598 -0.68812,7e-4 -1.34076,-0.1508 -1.92603,-0.42264 m -2.31127,-6.60189 2.62875,-1.85472 m 5.05249,1.67612 1.03361,2.67775 m -3.36569,-4.28631 2.43724,1.7196 m 0.13016,5.80394 -3.26022,1.95824 m -5.35316,-3.42277 0.16366,-3.38667"
       transform="matrix(9.8705378,0,0,9.8705378,-4782.4524,-2810.7699)"
       inkscape:path-effect="#path-effect6405" />
    <path
       style="fill:none;stroke:#000000;stroke-width:1.29999995;stroke-linecap:butt;stroke-linejoin:miter;stroke-miterlimit:4;stroke-opacity:1;stroke-dasharray:31.19999886,31.19999886;stroke-dashoffset:0"
       d="m 387.86331,326.6517 c -0.92062,12.22642 0.1779,25.14165 0.51633,35.92821 0,0 0,0 0,0 0.33851,10.78929 -0.54688,26.34292 -1.61719,39.52343 0,10e-6 0,10e-6 0,10e-6 -2.7e-4,0.003 -5.4e-4,0.007 -8.1e-4,0.01 m 3.54718,-3.47686 c -0.66317,13.81922 0.0991,27.23526 0.28175,42.23169 0.18266,15.00023 -1.13706,26.49492 -3.42187,39.96875 0,0 0,0 0,0 -5.8e-4,0.003 -0.001,0.007 -0.002,0.0102 m 0.98388,1.65688 c 0.14764,12.24224 -1.20266,25.56502 -3.60949,37.21727 -2.40743,11.65519 -0.056,27.38129 -0.18749,42.61718 0,0 0,0 -10e-6,0 -3e-5,0.004 -6e-5,0.008 -9e-5,0.0116 m 1.99603,-0.95757 c 0.81982,13.49116 1.08577,26.55517 3.28063,40.146 2.19541,13.59428 0.32713,26.64237 0.96093,40.39063 0,0 0,0 0,0 1.7e-4,0.003 3.3e-4,0.007 4.9e-4,0.0104 m -7.52397,-5.95602 c 0.96755,13.02362 0.0385,27.77312 0.11645,43.82605 0.0779,16.05699 1.61858,25.67896 4.875,37.55468 0,0 0,0 0,10e-6 8.3e-4,0.003 0.002,0.006 0.002,0.009 m -2.9988,1.42442 c -0.29576,13.17857 1.45251,25.59428 4.3596,37.26343 1e-5,0 1e-5,0 1e-5,0 2.90783,11.67211 0.0609,26.57048 0.18749,40.22656 4e-5,0.003 7e-5,0.007 1e-4,0.0104 m -1.44343,3.14785 c 0.54629,13.89692 0.21974,26.61167 0.67927,40.38006 0,10e-6 0,10e-6 0,10e-6 0.45965,13.77188 0.11304,25.25916 0.35156,36.31249 7e-5,0.003 1.3e-4,0.006 1.9e-4,0.008 m 0.0393,-1.72952 c -0.51492,12.29735 0.10111,26.54618 0.28164,40.12347 0.18058,13.58073 -0.91584,26.69883 -2.71875,40.57812 0,0 0,0 0,0 -4.6e-4,0.004 -9.1e-4,0.007 -0.001,0.0105 m -5.17353,-2.74762 c 0.13318,12.89071 1.06838,27.24584 3.21084,42.20896 2.14299,14.96695 0.28639,24.82195 0.86718,34.95315 0,0 0,0 0,0 1.5e-4,0 3e-4,0.01 4.4e-4,0.01 m 1.21117,2.2006 c -0.033,3.1429 -0.001,6.2389 0.0911,9.3158 m -4.74341,-713.22284 c -0.17118,14.03705 0.95019,25.96566 2.88294,38.41121 1.93325,12.44871 0.69769,26.95547 2.08594,41.39844 0,0 0,0 0,0 3.5e-4,0.004 7e-4,0.007 0.001,0.011 m -5.01526,-0.20198 c -0.19416,13.88919 1.79506,26.73939 5.36733,40.7082 0,0 0,0 0,0 3.57318,13.97235 -1.76147,24.47178 -5.25,33.92187 -8.8e-4,0.002 -0.002,0.005 -0.003,0.007 m 2.89828,10.83128 c -0.60055,13.6 0.49032,25.78038 1.47702,37.87248 0,0 0,0 0,0 0.98695,12.09517 -0.58366,26.87378 -1.75781,41.14062 0,0 0,0 0,1e-5 -3e-4,0.004 -6e-4,0.007 -8.9e-4,0.0108 m 4.06449,-4.75856 c 0.42049,12.25073 -1.68037,26.91658 -5.06282,41.29538 -3.38331,14.38245 0.13726,26.07058 0.39844,38.70312 0,0 0,10e-6 0,10e-6 6e-5,0.003 1.3e-4,0.006 1.9e-4,0.01 m 3.61043,-6.89273 c 0.6087,12.94528 0.20701,27.144 0.60891,41.95111 0.402,14.81085 -1.4999,26.58778 -4.5,40.29687 0,0 0,0 0,0 -7.6e-4,0.003 -0.002,0.007 -0.002,0.0104 m 3.12965,3.12485 c 0.0395,12.47652 0.93033,25.96832 2.78903,38.38896 0,0 0,0 0,0 1.85918,12.42379 -1.81873,25.69251 -5.48437,37.57812 -9.3e-4,0.003 -0.002,0.006 -0.003,0.009 m 2.1057,-1.98783 c 0.76428,12.4689 -0.74472,26.32551 -2.22714,39.49052 0,0 0,0 0,1e-5 -1.48279,13.16834 0.65922,27.13119 1.96875,41.86718 0,0 0,0 0,0 3.3e-4,0.004 6.6e-4,0.007 9.9e-4,0.0112 m 0.93996,2.82359 c 0.42096,12.87401 -0.73666,25.07803 -2.22689,35.71678 -1.4906,10.64145 1.0978,26.06662 3.25781,38.67969 0,0 0,0 0,0 5.5e-4,0.003 0.001,0.006 0.002,0.01 m 1.68928,2.40823 c -0.63984,13.15484 -0.0501,24.95769 -0.16357,35.365 -0.11353,10.40993 0.71529,26.71403 2.13281,40.62503 0,0 0,0 0,0 3.6e-4,0 7.2e-4,0.01 0.001,0.011 m -6.70572,-706.64054 c 0.062,13.45244 -0.92863,27.13767 -2.81255,41.90384 -1.88439,14.76991 0.5715,25.87002 1.73438,38.14062 0,0 0,1e-5 0,1e-5 2.9e-4,0.003 5.9e-4,0.006 8.8e-4,0.009 m 4.31177,-2.08408 c 0.19415,13.69415 -1.79518,26.7907 -5.41421,40.87241 -3.61996,14.08528 1.0082,25.48286 3.02343,36.92187 0,10e-6 0,10e-6 0,10e-6 5.1e-4,0.003 0.001,0.006 0.002,0.009 m 2.53446,5.36749 c 0.0703,13.89613 0.0737,25.0454 0.21089,35.64569 0.13726,10.60298 -0.11412,26.7559 -0.35156,40.74219 0,0 0,0 0,0 -6e-5,0.004 -1.2e-4,0.007 -1.8e-4,0.0106 m -1.82699,-3.99762 c -0.78813,14.02172 -0.13861,26.52627 -0.42127,40.07528 -0.28273,13.55245 0.18542,26.02785 0.5625,38.5625 0,0 0,0 0,0 9e-5,0.003 1.9e-4,0.006 2.9e-4,0.01 m -4.44099,2.2201 c 0.9366,12.25057 0.54972,26.60934 1.68679,40.31101 1.13736,13.70513 0.13548,25.88653 0.375,38.14062 0,0 0,0 0,0 6e-5,0.003 1.2e-4,0.006 1.8e-4,0.009 m -1.86767,1.89357 c -0.40523,14.07549 1.01586,24.83777 3.07062,34.98931 2.05528,10.15411 0.0238,26.8179 0.0703,40.95312 0,0 0,0 0,0 1e-5,0.004 2e-5,0.007 4e-5,0.0107 m -1.09783,2.68147 c -0.17115,12.36759 0.98946,26.57443 2.95326,40.21717 1.9643,13.64619 -0.12095,26.65839 -0.39844,40.46093 0,0 0,0 0,10e-6 -7e-5,0.003 -1.4e-4,0.007 -2.1e-4,0.0105 m -0.0812,2.58198 c 0.78809,13.73293 0.0561,26.34346 0.14002,39.55988 0.084,13.21977 0.0895,24.81761 0.25782,34.92968 0,10e-6 0,10e-6 0,10e-6 4e-5,0.003 8e-5,0.005 1.3e-4,0.008 m -5.2565,-1.38657 c -0.15551,13.39759 1.07513,26.66903 3.23449,40.52108 2.15991,13.8555 0.55469,27.5751 1.64063,43.2031 0,0 0,0 0,0 2.7e-4,0 5.5e-4,0.01 8.2e-4,0.012 m -1.91153,-718.69632 c 0.3047,13.79497 0.78487,25.58788 2.32008,37.28639 1.53561,11.70148 -0.86897,27.15642 -2.625,41.98437 0,10e-6 0,10e-6 0,10e-6 -4.4e-4,0.004 -8.9e-4,0.008 -0.001,0.0113 m 0.94298,0.34031 c -0.70974,13.38131 0.58084,25.33956 1.73491,36.56015 10e-6,0 10e-6,0 10e-6,0 1.15437,11.22343 -0.32853,25.63347 -0.98438,37.41406 -1.7e-4,0.003 -3.3e-4,0.006 -5e-4,0.009 m -0.0559,7.30694 c -0.18744,13.7166 -0.34585,24.90444 -1.00767,35.22395 -0.66199,10.32213 0.59543,26.86903 1.75781,41.07031 0,0 0,0 0,10e-6 2.9e-4,0.004 5.9e-4,0.007 8.8e-4,0.0108 m 2.43147,-3.06388 c 0.41318,12.37535 -0.70824,26.48704 -2.08626,39.93591 -1.37836,13.45227 0.0539,26.34707 0.16407,39.52343 0,0 0,0 0,10e-6 2e-5,0.003 5e-5,0.007 8e-5,0.01 m -1.57327,1.70645 c 0.32854,12.39869 1.63952,26.36583 4.89819,39.60776 0,1e-5 0,1e-5 0,1e-5 3.25949,13.24528 0.12846,25.63109 0.35156,37.39062 0,0 0,0 0,0 6e-5,0.003 1.1e-4,0.006 1.7e-4,0.009 m 0.11018,0.62615 c -0.77277,12.23524 -0.61028,27.17213 -1.82754,41.99851 -1.21756,14.83014 0.17465,26.28992 0.53906,39.33594 0,0 0,0 0,0 10e-5,0.003 1.9e-4,0.007 2.8e-4,0.01 m -1.55925,-1.66052 c -0.49937,12.57023 -0.009,26.10481 -0.0231,38.85764 0,0 0,0 0,0 -0.0141,12.75606 -0.59652,25.50007 -1.78125,37.01562 0,0 0,1e-5 0,1e-5 -3e-4,0.003 -6e-4,0.006 -9e-4,0.009 m 1.10158,7.7376 c 0.88962,13.70106 0.23769,25.02328 0.74932,35.55209 0.51177,10.53149 0.0458,27.1131 0.14063,41.82031 0,0 0,10e-6 0,10e-6 2e-5,0.004 5e-5,0.007 7e-5,0.0112 m -2.45131,-1.61641 c -0.60115,13.67818 -0.67828,26.06824 -2.01517,38.73961 -1.33722,12.67461 1.87955,26.35681 5.60156,39.59371 0,0 0,0 0,0 9.5e-4,0 0.002,0.01 0.003,0.01 m -6.04279,3.1957 c 0.18657,2.7202 0.29664,5.4661 0.35461,8.2273 m 3.43384,-719.4112 c 0.063,13.34195 1.11761,24.66171 3.37495,34.47424 0,0 0,0 0,0 2.25791,9.81501 -1.5624,27.43677 -4.71094,42.80468 0,0 0,0 0,0 -7.9e-4,0.004 -0.002,0.008 -0.002,0.0117 m 3.37446,-6.64423 c 0.25748,13.70192 -0.0231,26.73449 -0.0939,40.68491 0,0 0,0 0,0 -0.0709,13.95395 -0.51117,26.2198 -1.5,39.14843 -2.5e-4,0.003 -5e-4,0.007 -7.5e-4,0.01 m 1.36857,3.7899 c 0.83469,13.00003 -0.3683,27.41664 -1.1022,42.74794 -0.73407,15.33518 0.67762,25.94468 2.0625,38.32812 0,0 0,0 0,10e-6 3.5e-4,0.003 7e-4,0.006 0.001,0.009 m 0.33089,-1.31263 c 0.89729,13.24109 -0.005,25.78261 -0.0476,37.82588 -0.0426,12.04632 -0.39725,27.15137 -1.19531,41.96093 0,1e-5 0,1e-5 0,1e-5 -2.1e-4,0.004 -4.1e-4,0.007 -6.1e-4,0.0113 m 0.0187,-2.82822 c -0.89003,12.63366 -1.04644,28.09705 -3.16339,44.78728 0,0 0,1e-5 0,1e-5 -2.11748,16.69445 1.02463,25.7105 3.04688,37.64843 5.1e-4,0.003 0.001,0.006 0.002,0.009 m -1.19967,-1.58175 c 0.39007,12.30511 -0.11951,26.45743 -0.32842,39.88909 -0.20897,13.43505 -0.56398,25.8001 -1.66407,37.92968 0,0 0,0 0,0 -2.7e-4,0.003 -5.5e-4,0.006 -8.3e-4,0.009 m -1.63545,3.19481 c -0.45213,13.52216 0.83116,26.14929 2.46128,38.9741 0,0 0,0 0,0 1.63054,12.82806 -0.11293,25.59026 -0.30468,37.27344 -5e-5,0.003 -10e-5,0.006 -1.5e-4,0.009 m -1.60679,-1.52638 c 0.12515,12.94488 0.6076,26.36729 1.80459,39.60735 1.19729,13.24341 -1.19422,27.32611 -3.60937,42.47656 0,0 0,0 0,0 -6.1e-4,0.004 -0.001,0.008 -0.002,0.0115 m 2.31923,0.60772 c -0.7567,13.99812 0.30344,26.13457 0.91464,38.87999 0.61135,12.74869 0.38054,26.66729 1.14844,40.50779 0,0 0,0 0,0 1.9e-4,0 3.8e-4,0.01 5.8e-4,0.011 m -4.46207,-1.7645 c 0.0907,3.9187 0.13573,7.8338 0.15924,11.7509 m 1.23862,-721.94401 c -0.45221,13.02315 0.66978,26.86285 1.99253,41.13073 1.32309,14.27149 -1.79658,25.84045 -5.39062,37.99999 0,0 0,10e-6 0,10e-6 -9.1e-4,0.003 -0.002,0.006 -0.003,0.009 m 3.42945,-1.81675 c 0.21065,13.76455 -0.0428,27.13834 -0.16422,41.95049 -0.12144,14.81589 -0.97914,24.77538 -2.95313,34.85937 0,0 0,0 0,0 -5e-4,0.003 -0.001,0.005 -0.002,0.008 m 2.26545,-0.70533 c 0.88197,12.32121 0.5255,27.42556 1.54621,42.74845 0,0 0,0 0,0 1.02097,15.32678 0.81546,26.99671 2.4375,41.51562 0,0 0,10e-6 0,10e-6 4.1e-4,0.004 8.2e-4,0.007 0.001,0.011 m 1.94758,-5.80233 c 0.4914,12.46925 -0.32442,27.02423 -1.00819,41.55303 -0.68393,14.53247 -0.59019,26.19053 -1.75781,39.10155 0,10e-6 0,10e-6 0,10e-6 -2.9e-4,0.003 -5.9e-4,0.007 -8.8e-4,0.01 m -1.87146,0.15739 c -0.61609,12.3442 0.62439,26.61907 1.85203,40.38125 1.22795,13.76565 0.58099,25.65186 1.71094,37.46093 0,0 0,0 0,0 2.8e-4,0.003 5.7e-4,0.006 8.5e-4,0.009 m -4.51214,5.19324 c -0.46019,12.16442 0.32546,25.9649 0.93785,38.3892 0.61254,12.42745 0.39992,26.04506 1.19531,38.63281 0,0 0,0 0,0 2e-4,0.003 4e-4,0.006 6.1e-4,0.01 m -0.84431,1.40192 c -0.9673,14.07594 0.44559,25.74131 1.36011,37.70805 0.91475,11.96978 -0.23151,25.3989 -0.70313,36.71094 0,0 0,0 0,0 -1.2e-4,0.003 -2.4e-4,0.006 -3.6e-4,0.009 m 5.25119,3.46012 c 0.0619,13.31188 -0.95139,26.91229 -2.88286,41.2477 -1.93196,14.33903 0.68137,26.26895 2.03906,39.33593 0,0 0,0 0,0 3.5e-4,0.003 6.9e-4,0.007 0.001,0.01 m -6.27064,-0.15562 c 0.92123,13.88914 1.02207,26.65877 3.06961,40.52069 2.04806,13.86545 -0.7946,25.68865 -2.39062,37.60155 0,0 0,0 0,0 -4.1e-4,0 -8.1e-4,0.01 -0.001,0.01 m 3.23094,-2.7923 c 0.0135,3.1599 0.002,6.3708 -0.0352,9.614 m -6.23434,-722.59818 c -0.0155,12.57827 0.20444,26.58367 0.63283,40.26388 0.4285,13.68368 0.0165,26.85776 0.0703,41.07031 0,0 0,0 0,0 10e-6,0.004 3e-5,0.007 4e-5,0.0108 m 5.33452,-2.5315 c 0.24978,12.85095 0.19027,25.77549 0.53888,37.82617 0.34869,12.05373 0.40832,27.23019 1.19531,42.19531 0,0 0,0 0,0 2e-4,0.004 4e-4,0.008 6e-4,0.0114 m -2.90333,-2.25975 c 0.51479,13.43734 -0.35559,28.13058 -1.05508,44.92729 -0.69967,16.80096 0.3213,24.87922 0.98437,35.14062 0,0 0,10e-6 0,10e-6 1.7e-4,0.003 3.4e-4,0.005 5.1e-4,0.008 m 1.08299,4.34176 c 0.9052,12.78123 0.19414,26.76875 0.60869,40.84966 0.41465,14.08449 -1.21262,25.3186 -3.65625,36.45313 0,0 0,0 0,0 -6.2e-4,0.003 -0.001,0.006 -0.002,0.008 m 0.87782,-0.16209 c 0.2427,13.73328 1.6302,27.03398 4.92169,41.64582 3.29232,14.61553 -0.74684,25.27676 -2.27344,36.33593 0,0 0,0 0,10e-6 -3.9e-4,0.003 -7.7e-4,0.006 -0.001,0.008 m -0.67916,4.75305 c -0.82667,13.02268 0.79762,25.91034 2.41469,38.27136 1.61749,12.36415 0.22834,26.20309 0.65625,39.12499 0,0 0,10e-6 0,10e-6 1.1e-4,0.003 2.2e-4,0.007 3.3e-4,0.01 m -2.80588,-1.00803 c -0.10935,12.63295 -0.23757,26.71621 -0.70304,40.63884 -0.46559,13.92616 0.47092,26.96308 1.40625,41.39844 0,0 0,0 0,0 2.4e-4,0.004 4.7e-4,0.007 7.1e-4,0.011 m -1.49586,-5.22938 c 0.21082,13.80321 0.30825,26.45155 0.93734,39.88795 0.62925,13.43981 0.96845,26.19537 2.92968,39.05468 0,1e-5 0,1e-5 0,1e-5 5e-4,0.003 0.001,0.007 0.001,0.01 m -3.1267,-1.3715 c -0.28062,12.32919 0.54202,27.78454 1.6174,43.89689 1.07566,16.11645 0.24812,25.90835 0.75,38.21095 0,0 0,0 0,0 1.3e-4,0 2.6e-4,0.01 3.8e-4,0.01 m -3.82341,1.7382 c -0.16004,3.9664 -0.32428,8.1359 -0.54022,12.4103 m 0.83044,-592.56689 0,5.90937 m 0,395.79595 0,7.05312 m 0,-125.92402 0,6.82813 m 0,-14.79725 0,5.76875 m 0,-99.75258 0,6.7625 m 0,98.36089 0,6.15313 m 0,-354.68419 0,6.3125 m 0,624.74359 0,7.6906"
       id="path4652"
       inkscape:connector-curvature="0"
       inkscape:path-effect="#path-effect5532"
       inkscape:original-d="m 386.76948,322.29567 0,725.23213" />
    <path
       style="fill:none;fill-opacity:1;stroke:#000000;stroke-width:1;stroke-linecap:butt;stroke-miterlimit:4;stroke-dasharray:none;stroke-dashoffset:0;stroke-opacity:1"
       d="m 331.1159,672.42478 c 27.51961,-0.54017 53.71475,-0.20834 79.95247,-0.0724 m -20.10185,-6.11505 c 16.4499,-0.1677 33.24348,-0.11674 50.22784,0.0296 0.14655,7.33443 0.32949,14.68705 0.53608,22.0476 m -3.88809,-12.01011 c -0.64638,24.60041 -0.23067,49.11106 0.18283,73.12036 m 3.35676,-15.021 c 0.71834,26.73217 0.53269,52.85705 0.78973,79.3517 -5.43471,0.0608 -10.85001,0.13791 -16.23351,0.24018 M 437.5143,798.0027 c -0.064,3.49887 -0.0994,7.00342 -0.10816,10.51185 -24.76503,-0.29818 -48.24513,-0.40903 -71.16197,-0.94498 m 21.24526,3.87638 c -19.83586,0.32827 -38.86781,-0.25426 -57.46769,-1.40801 0.27068,-6.40826 0.58307,-12.87167 0.92602,-19.38004 m -4.3324,19.96616 c -0.4373,-24.89004 0.34881,-49.94806 1.61866,-75.16874 m 2.90507,14.35648 c 0.28509,-23.54843 -0.26583,-46.37159 -1.23907,-68.66601 m -0.61245,15.50384 c 0.15578,-9.52901 0.19652,-19.18726 0.16198,-28.94817 21.00325,-0.27026 41.64635,-1.03166 62.3451,-2.0062 m -61.31195,-0.69969 c 29.96332,0.8385 61.18836,0.81496 92.75491,2.0357 m -27.75657,0.61255 c 15.38198,0.1295 30.37382,0.11339 45.2385,0.0272 -0.0636,12.38304 -0.2155,24.71737 -0.30345,37.04675 m -2.97163,-23.2782 c 0.85782,30.48402 0.11404,59.64135 -0.16279,88.60948 m -0.68102,-19.65724 c 0.45494,20.12818 0.6357,40.82002 1.03633,62.20189 -7.69206,0.53587 -15.3503,1.17785 -22.94493,1.93357 m 23.26188,-4.37023 c -25.06796,0.71787 -49.76302,1.26173 -74.99168,2.78862 m 17.61965,-3.65627 c -16.96808,-0.27925 -34.20206,-0.28142 -51.6506,-0.22187 -0.2301,-9.28074 -0.52438,-18.54301 -0.87446,-27.82207 m 0.41016,20.38534 c -0.30772,-30.04429 0.62212,-60.51169 2.02236,-90.11167 m -0.31121,24.32712 c 0.26238,-22.12024 0.18429,-45.20004 0.12508,-68.86934 10.01018,-0.56958 20.02414,-1.25754 30.07423,-2.03057 m -31.06649,0.68194 c 32.73057,0.4671 65.68637,1.05953 99.06575,3.13021 m -30.20265,-3.95061 c 13.97176,0.075 28.10935,-0.006 42.43908,-0.20289 0.39052,13.27935 0.96079,26.45018 1.73461,39.5486 m -7.10651,-14.74757 c 0.61275,29.65069 1.09585,59.68962 2.95115,89.13514 m 0.42372,-24.0664 c 0.15119,18.84902 0.0771,37.62636 -0.0755,56.19906 -12.61544,-0.27018 -25.26496,-0.62932 -37.90647,-1.1155 m 28.84054,0.66845 c -33.23555,-0.96429 -64.85125,0.40529 -96.4551,1.30564 m 26.98282,0.89767 c -10.32295,-0.10912 -20.65352,-0.3246 -30.98742,-0.6776 0.0123,-21.96057 0.0106,-44.50115 0.0322,-67.89156 m -3.6271,31.47704 c -0.36479,-33.34765 0.4943,-66.34019 1.48292,-99.59937 m 0.72049,24.09291 c 0.21267,-11.79212 0.24219,-23.6163 0.1714,-35.3478 17.68761,0.54777 35.15848,1.29577 52.67565,2.64018 m -51.06599,1.38706 c 23.49016,-0.0222 47.11118,0.23318 70.4557,0.72441 m -13.38157,1.66605 c 18.46756,-0.33031 36.84371,-0.34584 55.27524,-0.34011 0.0727,10.84822 0.16478,21.70389 0.30683,32.50603 m -1.71058,-22.53255 c -0.55591,25.26062 -0.52798,49.96512 -0.8542,74.58492 m -0.48152,-15.87009 c -0.006,25.36474 0.40714,49.53216 1.23101,73.00104 -2.85825,-0.18824 -5.71079,-0.3862 -8.55762,-0.59305 m 5.38117,-16.38907 c -0.0539,4.03119 -0.0887,8.09231 -0.10671,12.17971 -29.07578,-0.167 -57.32332,0.96922 -85.6096,2.13677 m 29.55173,4.74389 c -18.01573,0.47751 -35.69582,0.50974 -53.16092,0.50592 0.21871,-9.48122 0.49787,-18.97257 0.81948,-28.41306 m 5.74008,15.05879 c 0.17476,-27.48777 0.005,-55.08816 -0.13298,-82.50768 m -1.97634,22.38581 c 0.28804,-24.12969 -0.33583,-47.82281 -1.4102,-71.10369 6.11713,0.22236 12.20251,0.47376 18.26478,0.75375 m -18.77657,-4.67753 c 31.04011,-0.20555 62.70591,0.18186 94.18686,0.63891 m -23.63741,-3.38098 c 14.86915,0.0714 29.38583,0.29465 43.76336,0.71236 -0.11552,15.44914 -0.3805,31.10712 -0.55749,47.02132 m -5.97363,-16.86187 c -0.20189,31.11893 0.50967,61.64838 1.59867,92.42772 m -0.59105,-35.04748 c -0.46427,17.67376 -0.40949,35.92996 -0.24396,54.32122 -5.60899,0.0656 -11.20724,0.14425 -16.80708,0.22252 m 17.31513,6.58428 c -32.25677,-0.18467 -67.32252,-0.45903 -103.56821,-1.34163 m 36.83303,3.0996 c -13.02988,0.14041 -26.22959,0.19122 -39.4613,0.218 0.11935,-18.61171 0.17595,-37.27056 0.54835,-55.79653 m -5.74902,17.77509 c 1.3e-4,-24.23931 0.50663,-48.11571 1.50957,-71.37925 m 0.36518,24.68043 c -0.46157,-18.92317 0.0298,-38.30251 1.02092,-57.93311 11.03194,-0.27234 22.21407,-0.62019 33.47176,-1.00978 m 1.8384,139.27317 -6.43438,0 m -30.41208,-110.24809 0,-5.74062 m 0,53.44696 0,-5.96562 m 79.48609,-74.35718 7.60625,0 m 23.30139,142.86455 -6.78125,0"
       id="rect4654"
       inkscape:path-effect="#path-effect5535"
       inkscape:original-d="m 329.28741,667.69061 110.96926,0 0,142.86455 -110.96926,0 z" />
    <text
       xml:space="preserve"
       style="font-size:608.45928954999999405px;font-style:normal;font-variant:normal;font-weight:normal;font-stretch:normal;line-height:125%;letter-spacing:0px;word-spacing:0px;fill:#000000;fill-opacity:1;stroke:none;font-family:Serif;-inkscape-font-specification:Serif"
       x="14.036982"
       y="867.99976"
       id="text4464-0"
       sodipodi:linespacing="125%"><tspan
         sodipodi:role="line"
         id="tspan4466-7"
         x="14.036982"
         y="867.99976"
         style="font-size:60.84592056000000326px;font-style:normal;font-variant:normal;font-weight:normal;font-stretch:normal;fill:#000000;fill-opacity:1;font-family:Sketch Block;-inkscape-font-specification:Sketch Block">system</tspan><tspan
         sodipodi:role="line"
         x="14.036982"
         y="944.05713"
         style="font-size:60.84592056000000326px;font-style:normal;font-variant:normal;font-weight:normal;font-stretch:normal;fill:#000000;fill-opacity:1;font-family:Sketch Block;-inkscape-font-specification:Sketch Block"
         id="tspan3105">connector</tspan></text>
    <text
       sodipodi:linespacing="125%"
       id="text3082"
       y="867.7475"
       x="515.24078"
       style="font-size:608.45928954999999405px;font-style:normal;font-variant:normal;font-weight:normal;font-stretch:normal;line-height:125%;letter-spacing:0px;word-spacing:0px;fill:#000000;fill-opacity:1;stroke:none;font-family:Serif;-inkscape-font-specification:Serif"
       xml:space="preserve"><tspan
         style="font-size:60.84592056000000326px;font-style:normal;font-variant:normal;font-weight:normal;font-stretch:normal;fill:#000000;fill-opacity:1;font-family:Sketch Block;-inkscape-font-specification:Sketch Block"
         y="867.7475"
         x="515.24078"
         id="tspan3084"
         sodipodi:role="line">system</tspan><tspan
         style="font-size:60.84592056000000326px;font-style:normal;font-variant:normal;font-weight:normal;font-stretch:normal;fill:#000000;fill-opacity:1;font-family:Sketch Block;-inkscape-font-specification:Sketch Block"
         y="943.80487"
         x="515.24078"
         sodipodi:role="line"
         id="tspan3107">event stream</tspan></text>
    <g
       id="g6378"
       transform="translate(-60,119.28571)">
      <path
         inkscape:original-d="m 471.35725,621.54212 74.49478,0"
         inkscape:path-effect="#path-effect6368"
         inkscape:connector-curvature="0"
         id="path3816"
         d="m 472.57698,624.6977 c 7.25022,-0.44679 13.1415,0.0105 19.41099,-0.015 6.27263,-0.0255 12.99911,-0.33848 19.01563,-0.99999 0,0 0,0 0,-1e-5 1.04885,-0.11532 2.14913,-0.18636 3.29031,-0.22354 m -7.27171,-2.88617 c 6.08676,-0.22917 13.43769,-0.5741 20.36587,-1.67154 6.44257,-1.02051 12.62544,0.14498 19.14884,0.82375 m -75.02425,3.33265 c 6.03435,0.0932 12.98429,-0.29478 18.99094,-0.85952 6.00965,-0.56502 14.20954,-0.31546 22.67187,-0.98437 0,0 0,0 0,-1e-5 0.64883,-0.0513 1.27195,-0.0893 1.87181,-0.11504 m -5.98539,0.59901 c 6.50104,-0.27512 12.09194,0.23515 16.31836,0.70353 4.20274,0.46576 13.89844,-0.18029 21.88432,-0.57095 m -76.42244,-1.67924 c 6.93291,-0.12917 12.74049,0.71839 18.20834,2.17207 5.4706,1.45441 14.33612,0.0681 22.98438,0.1875 0,0 0,0 0,0 2.13261,0.0294 4.01174,0.0125 5.72711,-0.0461 m -8.75816,-2.70298 c 6.39887,0.61357 13.82109,0.52429 21.4279,1.62408 6.71812,0.97131 11.83264,0.54023 17.25545,0.96679 m -74.81328,2.11212 c 7.26018,0.51897 12.70499,-0.56067 18.08285,-1.70391 5.38056,-1.14381 13.29353,-0.39007 19.84375,-1.1875 0,0 0,0 0,0 0.51502,-0.0627 1.02932,-0.11635 1.54273,-0.16214 m -5.83336,1.22405 c 6.50254,-0.39603 13.58522,-1.1822 20.80274,-3.59316 7.16765,-2.3943 12.68748,1.03895 18.20461,3.20179 m -75.78472,-1.38984 c 6.74073,-0.36369 12.798,-0.0243 18.443,-0.0463 5.64784,-0.022 13.52653,-0.35667 20.59375,-1.09374 0,0 0,0 0,-1e-5 2.61234,-0.27245 5.18779,-0.28651 7.78785,-0.1547 m -4.95329,3.13949 c 6.92311,0.2745 13.33963,-0.85767 20.05211,-2.60979 5.40701,-1.41136 10.52484,-0.46337 15.42864,0.0856 m -28.87014,1.36752 3.47813,0 m 18.17114,0 3.24688,0 m -10.26826,0 3.32187,0 m -54.51948,0 3.86875,0 m 21.87634,0 3.59375,0"
         style="fill:none;stroke:#000000;stroke-width:1;stroke-linecap:butt;stroke-linejoin:miter;stroke-miterlimit:4;stroke-opacity:1;stroke-dasharray:none;marker-end:none" />
      <path
         sodipodi:nodetypes="cc"
         style="fill:none;stroke:#000000;stroke-width:1;stroke-linecap:butt;stroke-linejoin:miter;stroke-miterlimit:4;stroke-opacity:1;stroke-dasharray:none;marker-end:none"
         d="m 527.26983,631.58548 c 6.64146,-2.67477 12.33859,-4.70454 18.2866,-7.09655 0.0663,-0.0267 0.13267,-0.0534 0.19906,-0.0801 m -18.27325,4.74006 c 6.5866,-2.56943 12.01376,-4.8302 17.41169,-7.38108 0.0602,-0.0284 0.12058,-0.0569 0.18119,-0.0853 m -19.04511,8.28438 c 6.65628,-2.0491 12.61401,-4.55341 19.21627,-6.58343 0.0736,-0.0226 0.14709,-0.0454 0.22045,-0.0682 m -8.31679,2.09197 3.25227,-1.23293 m 2.31927,-0.87923 3.03604,-1.15096 m -4.84302,1.83599 3.10616,-1.17755 m -16.2821,6.17253 3.61752,-1.3714 m 3.00809,-1.14036 3.36039,-1.27392"
         id="path6370"
         inkscape:connector-curvature="0"
         inkscape:path-effect="#path-effect6372"
         inkscape:original-d="m 526.44646,629.46489 18.90049,-7.16515" />
      <path
         inkscape:original-d="m 525.01788,607.32204 21.04335,12.12056"
         inkscape:path-effect="#path-effect6376"
         inkscape:connector-curvature="0"
         id="path6374"
         d="m 526.05457,610.00439 c 6.96628,3.34516 12.78303,7.46906 18.90973,11.16229 0.51832,0.31245 1.03944,0.62326 1.56277,0.93241 m -20.16712,-15.24218 c 6.89968,3.47312 12.39532,7.32273 17.84732,10.81681 0.46124,0.29559 0.93761,0.59094 1.42732,0.88567 m -21.12062,-10.55945 c 6.98425,4.10509 13.12451,7.65664 20.03862,11.78549 0.58492,0.3493 1.16133,0.691 1.73005,1.02584 m -18.56926,-13.0503 c 5.95869,4.17186 12.26486,8.23355 17.43686,13.4854 0.43755,0.4443 0.89808,0.86045 1.37926,1.25124 m -9.29109,-8.13678 3.01393,1.73596 m 3.16911,1.82535 2.81354,1.62054 m -4.81885,-2.77556 2.87853,1.65798 m -17.50058,-10.08 3.35243,1.93093 m 4.00037,2.30414 3.11413,1.79368"
         style="fill:none;stroke:#000000;stroke-width:1;stroke-linecap:butt;stroke-linejoin:miter;stroke-miterlimit:4;stroke-opacity:1;stroke-dasharray:none;marker-end:none"
         sodipodi:nodetypes="cc" />
    </g>
    <path
       id="path4269"
       d="m 335.4444,672.30542 100.36266,0 0,136.8494 -100.36266,0 z"
       style="fill:#ffffff;fill-opacity:1;stroke:none"
       inkscape:connector-curvature="0" />
    <g
       transform="translate(107.14286,120.71428)"
       id="g6383">
      <path
         style="fill:none;stroke:#000000;stroke-width:1;stroke-linecap:butt;stroke-linejoin:miter;stroke-miterlimit:4;stroke-opacity:1;stroke-dasharray:none;marker-end:none"
         d="m 472.57698,624.6977 c 7.25022,-0.44679 13.1415,0.0105 19.41099,-0.015 6.27263,-0.0255 12.99911,-0.33848 19.01563,-0.99999 0,0 0,0 0,-1e-5 1.04885,-0.11532 2.14913,-0.18636 3.29031,-0.22354 m -7.27171,-2.88617 c 6.08676,-0.22917 13.43769,-0.5741 20.36587,-1.67154 6.44257,-1.02051 12.62544,0.14498 19.14884,0.82375 m -75.02425,3.33265 c 6.03435,0.0932 12.98429,-0.29478 18.99094,-0.85952 6.00965,-0.56502 14.20954,-0.31546 22.67187,-0.98437 0,0 0,0 0,-1e-5 0.64883,-0.0513 1.27195,-0.0893 1.87181,-0.11504 m -5.98539,0.59901 c 6.50104,-0.27512 12.09194,0.23515 16.31836,0.70353 4.20274,0.46576 13.89844,-0.18029 21.88432,-0.57095 m -76.42244,-1.67924 c 6.93291,-0.12917 12.74049,0.71839 18.20834,2.17207 5.4706,1.45441 14.33612,0.0681 22.98438,0.1875 0,0 0,0 0,0 2.13261,0.0294 4.01174,0.0125 5.72711,-0.0461 m -8.75816,-2.70298 c 6.39887,0.61357 13.82109,0.52429 21.4279,1.62408 6.71812,0.97131 11.83264,0.54023 17.25545,0.96679 m -74.81328,2.11212 c 7.26018,0.51897 12.70499,-0.56067 18.08285,-1.70391 5.38056,-1.14381 13.29353,-0.39007 19.84375,-1.1875 0,0 0,0 0,0 0.51502,-0.0627 1.02932,-0.11635 1.54273,-0.16214 m -5.83336,1.22405 c 6.50254,-0.39603 13.58522,-1.1822 20.80274,-3.59316 7.16765,-2.3943 12.68748,1.03895 18.20461,3.20179 m -75.78472,-1.38984 c 6.74073,-0.36369 12.798,-0.0243 18.443,-0.0463 5.64784,-0.022 13.52653,-0.35667 20.59375,-1.09374 0,0 0,0 0,-1e-5 2.61234,-0.27245 5.18779,-0.28651 7.78785,-0.1547 m -4.95329,3.13949 c 6.92311,0.2745 13.33963,-0.85767 20.05211,-2.60979 5.40701,-1.41136 10.52484,-0.46337 15.42864,0.0856 m -28.87014,1.36752 3.47813,0 m 18.17114,0 3.24688,0 m -10.26826,0 3.32187,0 m -54.51948,0 3.86875,0 m 21.87634,0 3.59375,0"
         id="path6385"
         inkscape:connector-curvature="0"
         inkscape:path-effect="#path-effect6368"
         inkscape:original-d="m 471.35725,621.54212 74.49478,0" />
      <path
         inkscape:original-d="m 526.44646,628.7506 18.90049,-6.45086"
         inkscape:path-effect="#path-effect6372"
         inkscape:connector-curvature="0"
         id="path6387"
         d="m 527.26983,630.87119 c 6.71053,-2.4627 12.4787,-4.28138 18.49581,-6.46118 m -19.08265,3.72939 c 6.11509,-2.30641 12.88386,-4.21262 19.69754,-6.15585 m -21.06271,7.76053 c 5.89688,-2.31054 12.66726,-4.71272 19.16285,-7.61869 m -7.35043,2.97877 3.29168,-1.12347 m 2.28117,-0.77858 3.07282,-1.04878 m -4.88023,1.66566 3.1438,-1.073 m -16.32284,5.57109 3.66136,-1.24965 m 2.96581,-1.01225 3.40111,-1.16082"
         style="fill:none;stroke:#000000;stroke-width:1;stroke-linecap:butt;stroke-linejoin:miter;stroke-miterlimit:4;stroke-opacity:1;stroke-dasharray:none;marker-end:none"
         sodipodi:nodetypes="cc" />
      <path
         sodipodi:nodetypes="cc"
         style="fill:none;stroke:#000000;stroke-width:1;stroke-linecap:butt;stroke-linejoin:miter;stroke-miterlimit:4;stroke-opacity:1;stroke-dasharray:none;marker-end:none"
         d="m 526.05458,615.00438 c 7.5095,1.9966 13.88855,4.76193 20.55915,7.10843 m -21.22418,-10.61443 c 6.79117,2.18514 14.36322,4.85092 21.99833,7.47347 m -23.73853,-5.37504 c 6.52798,2.18022 14.10477,4.25339 21.35701,5.72115 m -19.35019,-5.60085 c 7.52733,2.7506 14.22177,4.95657 21.66959,7.72158 m -10.22769,-5.02901 3.29462,1.11482 m 2.89775,0.98053 3.07557,1.0407 m -5.08391,-1.72027 3.14661,1.06474 m -17.79072,-6.01996 3.66463,1.24003 m 3.69926,1.25174 3.40415,1.15188"
         id="path6389"
         inkscape:connector-curvature="0"
         inkscape:path-effect="#path-effect6376"
         inkscape:original-d="m 525.01788,612.32204 21.04335,7.12056" />
    </g>
    <g
       id="g6391"
       transform="translate(275,122.14285)">
      <path
         inkscape:original-d="m 471.35725,621.54212 74.49478,0"
         inkscape:path-effect="#path-effect6368"
         inkscape:connector-curvature="0"
         id="path6393"
         d="m 472.57698,624.6977 c 7.25022,-0.44679 13.1415,0.0105 19.41099,-0.015 6.27263,-0.0255 12.99911,-0.33848 19.01563,-0.99999 0,0 0,0 0,-1e-5 1.04885,-0.11532 2.14913,-0.18636 3.29031,-0.22354 m -7.27171,-2.88617 c 6.08676,-0.22917 13.43769,-0.5741 20.36587,-1.67154 6.44257,-1.02051 12.62544,0.14498 19.14884,0.82375 m -75.02425,3.33265 c 6.03435,0.0932 12.98429,-0.29478 18.99094,-0.85952 6.00965,-0.56502 14.20954,-0.31546 22.67187,-0.98437 0,0 0,0 0,-1e-5 0.64883,-0.0513 1.27195,-0.0893 1.87181,-0.11504 m -5.98539,0.59901 c 6.50104,-0.27512 12.09194,0.23515 16.31836,0.70353 4.20274,0.46576 13.89844,-0.18029 21.88432,-0.57095 m -76.42244,-1.67924 c 6.93291,-0.12917 12.74049,0.71839 18.20834,2.17207 5.4706,1.45441 14.33612,0.0681 22.98438,0.1875 0,0 0,0 0,0 2.13261,0.0294 4.01174,0.0125 5.72711,-0.0461 m -8.75816,-2.70298 c 6.39887,0.61357 13.82109,0.52429 21.4279,1.62408 6.71812,0.97131 11.83264,0.54023 17.25545,0.96679 m -74.81328,2.11212 c 7.26018,0.51897 12.70499,-0.56067 18.08285,-1.70391 5.38056,-1.14381 13.29353,-0.39007 19.84375,-1.1875 0,0 0,0 0,0 0.51502,-0.0627 1.02932,-0.11635 1.54273,-0.16214 m -5.83336,1.22405 c 6.50254,-0.39603 13.58522,-1.1822 20.80274,-3.59316 7.16765,-2.3943 12.68748,1.03895 18.20461,3.20179 m -75.78472,-1.38984 c 6.74073,-0.36369 12.798,-0.0243 18.443,-0.0463 5.64784,-0.022 13.52653,-0.35667 20.59375,-1.09374 0,0 0,0 0,-1e-5 2.61234,-0.27245 5.18779,-0.28651 7.78785,-0.1547 m -4.95329,3.13949 c 6.92311,0.2745 13.33963,-0.85767 20.05211,-2.60979 5.40701,-1.41136 10.52484,-0.46337 15.42864,0.0856 m -28.87014,1.36752 3.47813,0 m 18.17114,0 3.24688,0 m -10.26826,0 3.32187,0 m -54.51948,0 3.86875,0 m 21.87634,0 3.59375,0"
         style="fill:none;stroke:#000000;stroke-width:1;stroke-linecap:butt;stroke-linejoin:miter;stroke-miterlimit:4;stroke-opacity:1;stroke-dasharray:none;marker-end:none" />
      <path
         sodipodi:nodetypes="cc"
         style="fill:none;stroke:#000000;stroke-width:1;stroke-linecap:butt;stroke-linejoin:miter;stroke-miterlimit:4;stroke-opacity:1;stroke-dasharray:none;marker-end:none"
         d="m 527.26983,630.87119 c 6.71981,-2.45674 12.49302,-4.27244 18.52165,-6.44246 1.35659,-0.48832 2.72957,-0.98612 4.1096,-1.49409 m -22.41883,5.49999 c 6.66494,-2.3514 12.17394,-4.39276 17.64673,-6.727 1.23152,-0.52526 2.55127,-1.05193 3.93126,-1.58587 m -23.03023,9.13084 c 6.73463,-1.83107 12.77451,-4.11792 19.45131,-5.92934 1.50245,-0.40762 2.95529,-0.85952 4.37147,-1.34403 m -9.92754,2.19084 3.29316,-1.11913 m 3.51858,-1.19573 3.07421,-1.04471 m -5.28342,1.79548 3.14522,-1.06885 m -19.25406,6.54316 3.66301,-1.24481 m 4.43743,-1.50799 3.40264,-1.15633"
         id="path6395"
         inkscape:connector-curvature="0"
         inkscape:path-effect="#path-effect6372"
         inkscape:original-d="m 526.44646,628.7506 23.1862,-7.87943" />
      <path
         inkscape:original-d="m 526.80359,606.60776 18.54335,10.69198"
         inkscape:path-effect="#path-effect6376"
         inkscape:connector-curvature="0"
         id="path6397"
         d="m 527.84028,609.29011 c 6.65812,3.20082 12.26725,7.11617 18.09795,10.68128 m -18.76298,-14.18727 c 5.96599,3.38247 12.65759,7.21076 19.43079,11.0174 m -21.17099,-8.91897 c 5.71239,3.37773 12.39771,6.65524 18.82967,9.38916 m -16.82285,-9.26886 c 6.67529,3.9273 12.57652,7.34911 19.125,11.25231 m -9.17321,-6.54123 3.01313,1.73735 m 2.44723,1.41106 2.81279,1.62184 m -4.58372,-2.64295 2.87777,1.65931 m -15.79077,-9.10486 3.35153,1.93247 m 3.14187,1.81158 3.11329,1.79511"
         style="fill:none;stroke:#000000;stroke-width:1;stroke-linecap:butt;stroke-linejoin:miter;stroke-miterlimit:4;stroke-opacity:1;stroke-dasharray:none;marker-end:none"
         sodipodi:nodetypes="cc" />
    </g>
  </g>
</svg>
