<?xml version="1.0" encoding="UTF-8" standalone="no"?>
<!-- Created with Inkscape (http://www.inkscape.org/) -->

<svg
   xmlns:dc="http://purl.org/dc/elements/1.1/"
   xmlns:cc="http://creativecommons.org/ns#"
   xmlns:rdf="http://www.w3.org/1999/02/22-rdf-syntax-ns#"
   xmlns:svg="http://www.w3.org/2000/svg"
   xmlns="http://www.w3.org/2000/svg"
   xmlns:sodipodi="http://sodipodi.sourceforge.net/DTD/sodipodi-0.dtd"
   xmlns:inkscape="http://www.inkscape.org/namespaces/inkscape"
   width="1052.3622"
   height="744.09448"
   id="svg2"
   version="1.1"
   inkscape:version="0.48.4 r9939"
   sodipodi:docname="semantics-2.svg">
  <defs
     id="defs4">
    <inkscape:path-effect
       effect="sketch"
       id="path-effect3781"
       is_visible="true"
       nbiter_approxstrokes="3"
       strokelength="40"
       strokelength_rdm="0;3540803433"
       strokeoverlap="0.3"
       strokeoverlap_rdm="0.3;676846516"
       ends_tolerance="0.1;78838508"
       parallel_offset="2.7;1"
       tremble_size="2.5;1"
       tremble_frequency="1"
       nbtangents="5"
       tgt_places_rdmness="1;1"
       tgtscale="10"
       tgtlength="0"
       tgtlength_rdm="0.3;1" />
    <inkscape:path-effect
       tgtlength_rdm="0.3;1"
       tgtlength="4"
       tgtscale="10"
       tgt_places_rdmness="1;1"
       nbtangents="5"
       tremble_frequency="1"
       tremble_size="1.8;1"
       parallel_offset="1.9;1"
       ends_tolerance="0;1429194784"
       strokeoverlap_rdm="0.1;1"
       strokeoverlap="0"
       strokelength_rdm="0;1"
       strokelength="60"
       nbiter_approxstrokes="5"
       is_visible="true"
       id="path-effect3778"
       effect="sketch" />
    <inkscape:path-effect
       effect="sketch"
       id="path-effect3774"
       is_visible="true"
       nbiter_approxstrokes="5"
       strokelength="60"
       strokelength_rdm="0;1"
       strokeoverlap="0"
       strokeoverlap_rdm="0.1;1"
       ends_tolerance="0;1429194784"
       parallel_offset="1.9;1"
       tremble_size="1.8;1"
       tremble_frequency="1"
       nbtangents="5"
       tgt_places_rdmness="1;1"
       tgtscale="10"
       tgtlength="4"
       tgtlength_rdm="0.3;1" />
    <inkscape:path-effect
       tgtlength_rdm="0.3;1"
       tgtlength="5"
       tgtscale="9.8"
       tgt_places_rdmness="1;1"
       nbtangents="5"
       tremble_frequency="5"
       tremble_size="2.7;1"
       parallel_offset="2.7;1"
       ends_tolerance="0.1;4044545397"
       strokeoverlap_rdm="0.3;1"
       strokeoverlap="0"
       strokelength_rdm="0;1"
       strokelength="100"
       nbiter_approxstrokes="7"
       is_visible="true"
       id="path-effect3772"
       effect="sketch" />
    <inkscape:path-effect
       effect="sketch"
       id="path-effect2994"
       is_visible="true"
       nbiter_approxstrokes="8"
       strokelength="100"
       strokelength_rdm="0;1"
       strokeoverlap="0"
       strokeoverlap_rdm="0.1;2173367531"
       ends_tolerance="0.1;1"
       parallel_offset="2.6;1"
       tremble_size="2.6;1"
       tremble_frequency="3.5"
       nbtangents="5"
       tgt_places_rdmness="1;1"
       tgtscale="9.8"
       tgtlength="5"
       tgtlength_rdm="0.3;1" />
    <marker
       inkscape:stockid="Arrow2Mend"
       orient="auto"
       refY="0.0"
       refX="0.0"
       id="Arrow2Mend"
       style="overflow:visible;">
      <path
         id="path3849"
         style="fill-rule:evenodd;stroke-width:0.62500000;stroke-linejoin:round;"
         d="M 8.7185878,4.0337352 L -2.2072895,0.016013256 L 8.7185884,-4.0017078 C 6.9730900,-1.6296469 6.9831476,1.6157441 8.7185878,4.0337352 z "
         transform="scale(0.6) rotate(180) translate(0,0)" />
    </marker>
  </defs>
  <sodipodi:namedview
     id="base"
     pagecolor="#ffffff"
     bordercolor="#666666"
     borderopacity="1.0"
     inkscape:pageopacity="0.0"
     inkscape:pageshadow="2"
     inkscape:zoom="1"
     inkscape:cx="634.67939"
     inkscape:cy="230.75692"
     inkscape:document-units="px"
     inkscape:current-layer="layer1"
     showgrid="false"
     inkscape:window-width="2556"
     inkscape:window-height="1564"
     inkscape:window-x="0"
     inkscape:window-y="16"
     inkscape:window-maximized="0" />
  <metadata
     id="metadata7">
    <rdf:RDF>
      <cc:Work
         rdf:about="">
        <dc:format>image/svg+xml</dc:format>
        <dc:type
           rdf:resource="http://purl.org/dc/dcmitype/StillImage" />
        <dc:title />
      </cc:Work>
    </rdf:RDF>
  </metadata>
  <g
     inkscape:label="Layer 1"
     inkscape:groupmode="layer"
     id="layer1"
     transform="translate(0,-308.2677)">
    <path
       style="fill:#d40000;fill-opacity:0;stroke:#000000;stroke-width:1;stroke-miterlimit:4;stroke-opacity:1;stroke-dasharray:24, 24;stroke-dashoffset:0"
       d="m 24.231281,631.36624 c 10.28407,-0.58127 18.794326,0.002 27.809064,-0.0197 0,0 10e-7,0 2e-6,0 9.017893,-0.0221 18.617602,-0.43624 27.291739,-1.3 8.674135,-0.86375 19.54852,0.17896 30.054234,0.54844 0,0 0,0 1e-5,0 5.25653,0.18487 9.82122,0.13823 14.06588,4e-5 m -0.64439,-6.76498 c 8.77042,-0.83105 19.32745,0.42678 29.39502,1.26025 10.0711,0.83376 19.36443,0.31268 29.54643,0.93438 10.182,0.6217 18.60907,-0.37666 27.27143,-1.11719 0,0 0,0 0,0 4.33421,-0.37052 9.38766,-0.47534 14.83955,-0.59531 m -1.8444,6.05988 c 8.98043,0.48571 20.00155,-1.33888 31.44637,-4.00207 11.44882,-2.66412 17.4514,0.30476 23.79799,0.91406 6.34659,0.60931 19.93161,-0.24822 31.21205,-0.75156 0,0 0,0 0,0 5.64417,-0.25185 10.45036,-0.13344 15.07736,0.16671 m -0.86237,5.17508 c 10.02155,-0.37844 20.33923,0.0849 32.44059,0.24415 1e-5,0 1e-5,0 1e-5,0 12.10559,0.15925 18.78985,-0.69056 27.81986,-2.09219 9.03001,-1.40163 18.76656,-0.54045 27.73861,-1.64531 0,0 10e-6,0 10e-6,0 4.48916,-0.55282 9.4123,-0.37823 14.55943,0.1117 m -2.15189,-0.0505 c 9.67556,0.2332 17.8867,-0.0809 26.68989,-0.34945 -0.006,0.62004 -0.008,1.24032 -0.007,1.86106 0.0193,9.2462 -0.81778,18.31413 -2.47813,26.35736 -1.66034,8.04324 -0.0611,18.53615 -0.20312,27.02768 -0.0711,4.24874 -0.18634,8.97067 -0.40165,13.77728 m 2.69674,5.21008 c -0.20928,9.00571 0.34592,17.49157 1.05647,23.8901 0.7108,6.40076 -0.72773,20.45967 -2.17343,32.79643 -1.44571,12.33675 0.50882,18.78558 1.52343,27.79954 0,1e-5 0,1e-5 0,1e-5 0.50766,4.51014 0.33758,9.26904 -0.12609,14.08727 m -1.35703,1.59021 c -0.29015,10.0075 0.69495,19.57909 2.0925,30.1656 1.39804,10.59022 0.34869,19.35589 1.03594,29.48549 0.68724,10.1296 0.0236,17.92318 0.0812,25.17924 0,0 0,0 1e-5,0 0.0289,3.63057 -0.0846,8.43832 -0.3189,13.5695 m 0.70414,0.8885 c -0.65659,9.31037 -1.39413,18.2161 -4.18368,26.08352 -2.79053,7.87017 1.01468,18.58517 3.06719,27.19018 2.0525,8.605 -0.96911,19.32813 -2.925,29.42455 0,0 0,0 0,0 -0.97863,5.05174 -0.71758,9.72718 0.0492,14.24113 m -1.51142,2.0247 c 0.21514,8.7267 -0.0974,17.2851 -0.3718,25.1638 -0.62202,-0.07 -1.24386,-0.1437 -1.86536,-0.2203 -9.80859,-1.2098 -19.21513,-0.7804 -29.05893,-2.3157 -9.8438,-1.5352 -18.58787,0.3997 -27.16986,1.1782 0,0 0,0 0,0 -4.294,0.3895 -9.24421,0.6241 -14.4969,0.9974 m 0.66894,-1.5056 c -8.97266,-0.303 -18.57041,1.6247 -27.14012,4.8754 -8.57272,3.2518 -18.61077,-0.054 -27.27143,-0.1626 -8.66066,-0.1083 -18.77171,-1.4482 -27.75893,-4.3671 0,0 0,0 0,0 -4.49676,-1.4605 -9.30953,-1.1392 -14.23939,-0.1303 m -1.76292,1.5521 c -9.85198,-0.027 -19.47919,0.4177 -29.86108,1.2391 -10e-6,0 -10e-6,0 -10e-6,0 -10.38553,0.8216 -18.82167,-0.1 -27.90111,-0.2844 -9.07944,-0.1843 -18.8086,-0.1371 -27.84017,-0.3859 -1e-5,0 -1e-5,0 -1e-5,0 -4.51895,-0.1245 -9.23342,-0.051 -13.95602,0.1267 m -0.90836,-0.1058 c -9.44001,0.595 -19.96258,0.2671 -31.32401,0.7916 0,0 -1e-5,0 -1e-5,0 -11.3654,0.5247 -18.41921,-1.1456 -26.68236,-3.4531 -8.26315,-2.3075 -19.796196,-0.3103 -30.805796,-0.9141 -2e-6,0 -4e-6,0 -6e-6,0 -5.508654,-0.3021 -10.189516,-0.1564 -14.602125,0.2107 m 3.170239,8.4839 c -9.743128,0.7706 -18.476315,0.2002 -26.875257,0.5882 0,0 -10e-7,0 -2e-6,0 -8.401882,0.3881 -18.842665,-0.6485 -27.962051,-1.95 -0.250576,-0.036 -0.501813,-0.069 -0.753686,-0.1011 0.301075,-10.3832 -0.194777,-18.2585 -0.353083,-27.2177 -0.08145,-4.60939 -0.248443,-9.46964 -0.545567,-14.46369 m -3.304648,0.47331 c -0.648999,-9.06167 0.105947,-20.36433 0.46724,-32.5225 0,0 0,0 0,0 0.36142,-12.16242 -0.03719,-18.84473 0.01968,-27.94138 0.05687,-9.09665 1.0431,-18.99856 3.24937,-28.42888 0,0 0,0 10e-7,0 1.103907,-4.71846 1.05394,-9.23786 0.694431,-13.5206 m -4.402026,-1.11993 c -0.236457,-9.2162 0.45336,-19.03012 1.482432,-28.52077 0,0 0,0 0,0 1.029431,-9.49397 -0.468215,-20.75492 -1.239692,-33.66951 -0.771477,-12.91459 -0.05574,-18.95915 -6.29e-4,-28.28669 0,0 0,0 0,0 0.02757,-4.66704 0.296524,-9.26658 0.843572,-13.72429 m -1.625115,3.04379 c 0.76419,-10.07389 0.906204,-18.0343 2.842317,-25.55424 10e-7,0 10e-7,0 10e-7,0 1.93679,-7.52257 0.228299,-18.9249 0.832182,-28.22576 0.603884,-9.30086 -1.198856,-20.35238 -3.453753,-32.49137 0,-10e-6 -10e-7,-10e-6 -10e-7,-10e-6 -1.128238,-6.07374 -0.946536,-10.60222 -0.286378,-14.56594 m -0.821749,2.30199 c -0.742987,-9.20308 1.018786,-19.60553 3.209527,-30.26766 2.191508,-10.66586 -1.460751,-19.24393 -4.225629,-29.13982 0,0 0,0 -1e-6,0 -0.08688,-0.31097 -0.167563,-0.62046 -0.242291,-0.92849 6.96732,-0.27012 19.588889,0.83652 30.470775,2.32598 5.621399,0.76944 10.509236,0.72305 15.307346,0.43884 m -31.515317,-0.70209 c 9.425594,0.77006 18.674773,-0.66523 27.484966,-2.01175 8.813276,-1.34699 18.781727,-0.0559 27.758928,-0.14218 8.9772,-0.0863 19.351492,-0.2661 29.505802,-0.79219 0,0 0,0 0,0 5.08071,-0.26323 9.88059,-0.23561 14.63514,-0.11785 m 1.18394,3.02312 c 9.45338,0.56062 19.74941,-0.55043 30.674,-1.66621 0,0 0,0 0,0 10.92842,-1.11617 18.66893,-0.28444 27.43393,-0.85312 8.765,-0.56869 19.27112,0.21497 29.24174,0.67031 0,0 0,0 0,0 4.9888,0.22783 9.58224,0.15559 13.94634,-0.0443 m -3.04245,3.59816 c 9.86519,-0.75739 19.0473,-0.54945 28.58138,-1.64452 0,0 0,0 0,0 9.53742,-1.09545 17.51795,-0.17997 23.9808,-0.54843 6.46285,-0.36847 20.56537,0.9773 33.10111,2.94531 0,0 1e-5,0 1e-5,0 6.27226,0.98469 10.84732,0.74462 14.85849,0.0174 m -1.25376,-6.55865 c 9.18235,-0.62852 18.78403,0.0967 27.7696,0.28504 0,0 0,0 0,0 8.98872,0.18836 19.49686,1.05347 29.91205,3.14843 10.41519,2.09497 19.30559,-0.8735 29.32299,-2.59999 0,0 0,0 0,0 5.01221,-0.86386 9.53307,-0.85505 13.75078,-0.61942 m 0.40205,7.56642 c 7.36641,0.10645 15.29425,-0.38454 22.63884,-1.25485 -0.116,1.42673 -0.2559,2.8379 -0.42921,4.23534 0,0 0,0 0,10e-6 -1.02971,8.30296 0.72848,19.22345 2.19375,29.07923 1.46528,9.85579 0.11565,18.74144 0.34531,27.65737 0,0 0,0 1e-5,0 0.11491,4.46108 5e-5,9.154 -0.259,13.85233 m -1.30581,-1.6078 c -0.70949,9.8792 0.29548,19.75139 0.89449,30.67355 0.59922,10.92598 -0.10596,18.15942 -0.30469,25.9308 -0.19872,7.77138 0.97426,19.57581 2.94532,30.17611 0,10e-6 0,10e-6 0,10e-6 0.98622,5.30386 1.05004,9.93569 0.93202,14.30125 m -9.38193,0.62381 c 0.088,9.19603 0.14131,19.02279 0.40616,28.50083 0.26494,9.48136 1.17684,18.54638 3.55468,27.06831 2.37785,8.52192 -0.61682,18.46139 -1.82812,26.82454 0,1e-5 0,1e-5 0,1e-5 -0.60608,4.1845 -0.79304,9.24813 -1.01724,14.75779 m 0.87549,1.97543 c 0.41901,9.5268 -0.0673,18.42464 -0.20356,26.71298 0,10e-6 0,10e-6 0,10e-6 -0.1363,8.29125 0.17983,18.68849 0.54843,27.51517 0.36861,8.82668 0.53328,19.17295 1.625,28.93705 0,0 0,10e-6 0,10e-6 0.54625,4.88547 0.24637,9.51144 -0.48764,13.96845 m -1.90917,0.5505 c 0.0453,7.7677 0.1845,16.5388 0.52557,25.9167 -1.49979,0.2807 -2.99175,0.5849 -4.47504,0.9096 -10e-6,0 -10e-6,0 -10e-6,0 -9.01512,1.9735 -18.62186,0.3814 -27.27142,1.1578 -8.64956,0.7764 -19.84157,-1.0217 -30.94799,-3.0672 -5.5571,-1.0235 -9.99943,-0.8342 -13.91961,-0.1989 m 4.72218,4.3013 c -9.6627,-0.6758 -19.45066,0.071 -29.80034,0.2039 -10.35331,0.1326 -18.53405,-0.312 -27.04799,-0.9141 -8.51394,-0.6021 -20.01043,0.2816 -31.43549,0.8531 0,0 0,0 0,0 -5.71653,0.286 -10.395,0.2468 -14.75189,0.095 m 1.28876,-2.5325 c -9.73781,-0.318 -20.5279,-0.4791 -33.02995,-1.4419 -1e-5,0 -1e-5,0 -1e-5,0 -12.50643,-0.9631 -19.0747,0.043 -28.65267,0.1422 -9.57798,0.099 -17.81411,0.2252 -24.85424,0.6703 -3.52254,0.2227 -8.50555,0.143 -14.01835,-0.075 m 1.14367,-0.6367 c -10.31741,-0.3787 -18.14425,-0.2454 -25.87934,-0.7512 -7.7378,-0.506 -19.47412,1.3763 -29.85112,4.1438 -10.377,2.7675 -18.708666,-0.5256 -27.555797,-1.5844 -2e-6,0 -3e-6,0 -5e-6,0 -4.426662,-0.5297 -9.245651,-0.5341 -14.201228,-0.414 m -4.787497,-1.5765 c -10.303738,0.074 -17.923454,-0.5766 -25.229355,-1.7064 -6.769865,-1.0469 -18.505942,0.5063 -29.918792,1.9695 -0.209634,-0.5854 -0.417221,-1.1715 -0.6201,-1.7594 -2.75296,-7.978 0.310634,-18.659 1.096246,-27.39293 0,0 0,0 0,0 0.393081,-4.37003 0.423195,-9.38319 0.406026,-14.74236 m -0.92377,0.14255 c 0.513222,-9.12158 -0.360006,-19.05705 -0.915232,-28.60211 0,0 0,-10e-6 0,-10e-6 -0.555419,-9.5484 -0.446143,-18.91541 -1.199066,-28.18513 -0.752923,-9.26971 1.114668,-18.98989 3.493119,-28.40856 0,0 10e-7,-10e-6 10e-7,-10e-6 1.190058,-4.71263 0.929536,-9.50188 0.133017,-14.33038 m 3.430958,-3.23467 c -0.527483,-8.76312 -0.102803,-18.71608 -0.162575,-27.58687 0,0 0,0 0,0 -0.05979,-8.8739 -0.981177,-19.69359 -2.824067,-30.50076 -1.84289,-10.80717 -0.568628,-18.9605 -1.564691,-28.28669 -1e-6,0 -1e-6,0 -1e-6,0 -0.49838,-4.66636 -0.246062,-9.18718 0.398731,-13.49129 m 2.210613,2.64853 c -0.473165,-9.85097 0.247973,-18.20921 0.873306,-26.06229 0,0 0,0 0,0 0.625551,-7.85583 -0.323593,-19.85981 -0.853755,-30.98826 -0.530161,-11.12844 -0.880155,-18.25106 -2.519378,-26.1945 0,0 -1e-6,-1e-5 -1e-6,-1e-5 -0.820186,-3.9745 -0.624884,-8.75566 -0.0095,-13.75192 m 1.888164,-4.30065 c 0.06055,-8.78324 -0.102541,-18.49402 -0.163193,-26.91653 -0.05644,-7.83781 -0.547464,-17.56991 -1.487787,-26.52935 0.597082,-0.007 1.191638,-0.0107 1.783662,-0.008 8.488073,0.0332 19.362664,0.004 29.505801,0.0203 10e-7,0 2e-6,0 3e-6,0 5.075119,0.008 10.087232,-0.0955 15.272205,-0.30462 m -38.436774,-4.85424 c 9.095167,0.48712 19.767265,0.67406 30.735313,2.03074 2e-6,0 4e-6,0 6e-6,0 10.971884,1.35714 18.295104,-0.16095 26.316735,-0.46719 8.021631,-0.30625 20.031827,-0.0109 31.537047,-0.0203 0,0 0,0 1e-5,-10e-6 5.75664,-0.005 10.40212,-0.0281 14.68419,-0.0742 m -1.50618,3.91311 c 9.0339,-0.11511 19.14432,-0.28595 28.86663,-0.87332 9.72572,-0.58757 18.04344,0.24808 25.56518,0.73125 7.52174,0.48317 19.33815,0.99274 29.44486,2.98594 0,0 0,0 0,0 5.0569,0.99729 9.91958,0.82063 14.80556,0.216 m -1.60672,-5.37555 c 9.51437,-0.16241 19.9827,-0.2737 31.40518,-0.83264 11.42648,-0.55913 18.18035,-0.57464 25.99174,-1.74688 7.8114,-1.17223 19.18094,1.08273 28.97768,3.27032 0,0 0,0 0,0 4.9018,1.09456 9.59753,1.23275 14.19217,1.23416 m -0.44518,3.01157 c 9.25042,0.3978 19.47094,-1.40417 29.8414,-4.1848 10e-6,0 10e-6,0 10e-6,0 10.37409,-2.78159 18.48462,0.41675 26.9058,1.23907 8.42118,0.82232 19.47797,0.27611 29.85111,0.8125 5.19021,0.26838 9.99144,0.1238 14.72437,-0.22916 m 2.47629,-1.90378 c 8.44074,-0.0984 16.93209,1.11094 25.95944,3.39654 0.12501,1.64878 0.26319,3.32402 0.41643,5.02483 0,0 0,10e-6 0,10e-6 1.13093,12.55267 -1.17068,18.3148 -3.49376,26.35736 -2.32307,8.04255 0.12161,18.89541 0.34532,28.12455 0,0 0,0 0,0 0.11193,4.6178 0.0207,9.29263 -0.18762,13.91476 m -2.12819,-6.32235 c -0.17563,9.34586 0.155,20.64077 0.44706,33.33505 0,0 0,0 0,0 0.29216,12.69872 0.18911,18.22273 0.58906,26.0933 0.39995,7.87057 0.15478,19.16902 0.44687,28.95736 0,0 0,1e-5 0,1e-5 0.14615,4.89759 0.28941,9.82242 0.53807,14.87082 m 2.06282,3.40652 c 0.84497,9.88555 0.13335,19.16214 0.42568,28.94699 0.29243,9.78827 -0.46807,19.6054 -1.40157,30.25736 -0.93349,10.65197 -0.92252,17.82738 -2.76249,24.89487 0,0 0,0 0,0 -0.92064,3.53622 -0.61518,8.71083 0.22537,14.59824 m 2.35472,-1.94798 c 0.39182,9.38564 -0.28877,19.54051 -0.85353,30.04438 0,0 0,10e-6 0,10e-6 -0.56496,10.50754 -0.42501,19.58562 -1.25938,30.19642 -0.83437,10.6108 1.15883,19.4928 3.49375,29.93236 0,0 0,0 0,10e-6 1.16828,5.22343 1.21796,9.9492 1.02446,14.5216 m -3.15705,0.6268 c 0.18219,7.9138 0.37994,16.3075 0.9914,24.3822 -1.16169,-0.029 -2.31385,-0.065 -3.4551,-0.1119 -8.66404,-0.3532 -20.27246,0.5458 -32.2683,1.625 -11.99584,1.0791 -17.78933,-0.01 -24.77299,-0.02 -3.49428,-0.01 -8.43656,-0.2195 -13.87249,-0.6414 m -3.95823,-1.1657 c -10.12115,0.6289 -17.78731,0.4961 -24.78267,1.4822 -6.99782,0.9863 -20.07936,-0.04 -31.65893,-0.1422 -11.57957,-0.1023 -17.76725,-0.4671 -24.71205,-1.3813 0,0 -10e-6,0 -10e-6,0 -3.47483,-0.4574 -8.47967,-0.4486 -14.04582,-0.3197 m -4.43416,0.8069 c -9.41966,-0.2499 -19.8605,0.1278 -31.01935,0.4066 0,0 0,0 0,0 -11.16276,0.2789 -18.73981,-1.192 -27.63705,-3.575 -8.89724,-2.383 -18.17811,0.5611 -25.97143,1.6656 0,0 0,0 0,0 -3.89939,0.5526 -8.71459,0.4361 -13.79501,0.067 m -0.66357,-0.5129 c -9.87277,0.7768 -20.22204,-0.6635 -32.09544,-1.9914 0,0 0,0 0,0 -11.87755,-1.3284 -18.14737,0.1031 -25.84955,0.2844 -7.70219,0.1812 -19.685291,0.4047 -30.460486,1.239 -2e-6,0 -4e-6,0 -6e-6,0 -5.391369,0.4175 -10.129031,0.6125 -14.683266,0.8981 m 3.108859,-0.5321 c -10.061248,0.291 -19.115246,0.5888 -28.763986,1.7871 -9.257518,1.1498 -19.231502,0.1852 -30.244907,0.2679 -0.08204,-0.3858 -0.16596,-0.7697 -0.251798,-1.1515 -2.099643,-9.3385 0.09194,-20.0155 0.425933,-31.45547 0,0 0,0 0,0 0.167116,-5.72399 0.360404,-10.29041 0.720315,-14.41902 m -2.214252,-0.97408 c -0.621197,-10.17576 1.201184,-18.73025 3.737524,-27.64632 1e-6,0 1e-6,0 1e-6,0 2.537226,-8.91919 -0.129135,-18.39176 -0.264693,-26.58045 -0.135557,-8.18868 -0.731668,-19.92494 -2.031878,-31.21169 -1e-6,0 -1e-6,0 -1e-6,0 -0.650561,-5.64733 -0.81248,-10.42816 -0.95716,-15.00351 m -2.019426,5.11665 c -0.465797,-8.69685 1.120331,-20.5944 3.513923,-33.19319 0,0 1e-6,0 1e-6,0 2.394428,-12.6032 -0.15263,-18.74425 -0.32563,-27.67732 -0.173001,-8.93307 -1.301569,-18.64756 -3.738128,-27.37263 -10e-7,0 -10e-7,0 -2e-6,0 -1.219133,-4.36559 -0.963834,-9.02292 -0.129733,-13.67389 m 0.87113,-3.14114 c 0.290338,-10.22917 -0.127778,-17.76875 -0.224372,-24.76189 0,0 0,0 0,-10e-6 -0.09663,-6.99559 -0.325621,-20.69824 -0.813129,-33.54763 -0.487508,-12.84938 0.378951,-18.91717 1.29937,-28.18513 0,0 0,0 0,0 0.460532,-4.63722 0.568674,-9.08527 0.688072,-13.24841 m 2.450051,0.51681 c 0.148878,-9.64247 0.55689,-19.67695 1.786714,-30.47032 1.184816,-10.39835 -0.599007,-18.44557 -1.904315,-27.55833 0.303462,0.002 0.607628,0.003 0.912692,0.002 0,0 1e-6,0 1e-6,0 8.259423,-0.0286 19.041051,0.75671 28.551115,2.275 4.758361,0.75968 9.45202,0.85384 14.076399,0.85593 m -37.147425,-2.05432 c 8.897713,0.0475 17.702758,0.30838 24.56052,0.93433 10e-7,0 10e-7,0 2e-6,0 6.860163,0.62617 18.898458,-0.21403 28.144864,-0.65 9.246406,-0.43597 19.743928,0.5311 30.663607,1.60469 1e-5,0 1e-5,0 1e-5,0 5.46366,0.53716 10.42396,0.16448 15.40706,-0.71298 m -5.09227,-4.58872 c 9.83177,-0.12769 19.58667,1.05055 30.20641,3.14857 10.62346,2.09876 19.14045,-0.87384 28.8355,-2.64062 9.69504,-1.76678 19.82531,1.29465 30.88704,3.87968 1e-5,0 1e-5,0 1e-5,10e-6 5.53474,1.29342 10.14031,1.06693 14.39433,0.29217 m -2.92186,2.71378 c 9.7019,-0.2843 17.52295,-0.59846 23.99092,-1.7872 0,-10e-6 0,-10e-6 1e-5,-10e-6 6.47023,-1.18916 19.19596,0.53504 29.0183,1.58438 9.82233,1.04934 19.5607,0.70295 30.09486,2.09219 0,0 0,0 0,0 5.27077,0.6951 9.89143,0.64378 14.24188,0.36807 m 2.95935,-8.27 c 10.30459,-0.34363 19.13999,1.54343 28.84498,4.6113 0,0 0,0 0,0 9.70838,3.06895 19.03083,-0.43387 28.51049,-1.3 9.47966,-0.86612 18.12874,-0.42196 25.80892,-1.27968 0,0 10e-6,0 10e-6,-10e-6 3.84277,-0.42916 8.46936,-0.45596 13.18484,-0.40021 m 7.16368,4.03618 c 9.22283,0.0264 18.67897,-0.96866 27.46487,-2.90471 0.91198,-0.20097 1.8449,-0.36106 2.79629,-0.48676 -0.31819,7.44989 0.74169,17.46543 1.59028,25.87006 0,0 0,0 0,0 0.94683,9.37769 -0.0111,19.60919 -0.0203,30.25736 -0.005,5.32782 -0.36538,10.28242 -1.0862,15.28648 m -2.00098,0.22816 c 0.30432,9.68944 0.23445,19.01862 0.69031,28.50032 0,0 0,0 0,0 0.45601,9.48501 -0.0211,18.48381 -0.0406,26.88549 -0.0196,8.40168 -0.97452,18.57217 -2.94531,27.14955 0,0 0,0 0,0 -0.98608,4.29169 -1.06981,9.15227 -0.98974,14.22341 m 3.54859,-2.12121 c -0.50063,9.74368 -0.66022,19.26552 -1.96979,29.21119 -1.31002,9.94916 0.64702,19.96737 1.92969,31.33393 1.28267,11.36656 0.25851,18.86311 0.77187,28.00268 0,0 0,0 1e-5,0 0.25686,4.57298 0.092,9.37265 -0.30128,14.25401 m -6.19819,-2.13104 c 0.51374,10.18336 0.068,19.7452 0.20259,30.69355 0,0 0,0 0,1e-5 0.1346,10.95218 1.23331,18.553 3.69688,27.08861 2.46356,8.5356 -1.17027,19.54249 -3.51407,30.05423 0,0 0,0 0,10e-6 -1.17271,5.25955 -0.98723,9.6316 -0.32162,13.48679 m 3.36927,-1.48629 c 0.73774,9.6157 1.44513,19.928 4.32579,31.2223 0.30988,1.2149 0.5493,2.3822 0.72896,3.5083 -7.00857,0.8464 -18.13244,-1.1377 -27.24355,-2.1624 0,0 -10e-6,0 -10e-6,0 -10.20894,-1.1482 -20.26467,-0.7042 -32.24798,-2.1329 -5.99585,-0.7148 -10.49093,-0.6637 -14.41171,-0.3832 m -0.53466,4.4667 c -10.14215,0.6013 -18.8184,-0.3941 -27.89046,-1.1584 -9.07525,-0.7647 -19.50723,0.6363 -29.973,1.889 -10.46576,1.2527 -19.13056,-0.8537 -28.83548,-2.5594 0,0 -10e-6,0 -10e-6,0 -4.85586,-0.8534 -9.39708,-0.9399 -13.69457,-0.8995 m 3.84811,3.6206 c -8.74385,-0.8046 -19.98324,-0.3902 -31.40599,-1.157 0,0 -1e-5,0 -1e-5,0 -11.42675,-0.7671 -17.97118,0.2404 -25.32142,0.7109 -7.35024,0.4705 -19.2483,0.5654 -29.16049,1.7063 0,0 0,0 0,0 -4.95956,0.5708 -9.98308,0.6275 -15.21535,0.5995 m 1.24392,-6.4906 c -10.19625,-0.4725 -18.86528,0.8862 -28.01228,2.6614 0,0 0,0 0,0 -9.1502,1.7758 -19.48007,-0.6471 -29.87143,-1.95 -10.39135,-1.3029 -19.30335,0.3323 -29.363606,0.9953 -2e-6,0 -4e-6,0 -6e-6,0 -5.033651,0.3317 -9.666248,0.415 -14.102283,0.4957 m -0.822749,4.0957 c -9.168168,0.7427 -17.839736,-1.209 -24.946173,-3.6164 -1e-6,0 -2e-6,0 -2e-6,0 -7.108926,-2.4082 -19.879619,-0.3123 -31.069864,-0.9547 -2.219873,-0.1274 -4.27107,-0.1872 -6.192431,-0.1943 -0.16775,-7.6631 1.784638,-14.465 3.294445,-21.3886 0.942376,-4.32154 0.911218,-8.95946 0.629466,-13.58377 m -1.960272,-1.19893 c -0.02073,-9.17535 -0.352069,-18.60466 -0.91467,-27.24112 0,-10e-6 0,-10e-6 0,-10e-6 -0.562798,-8.63949 0.629811,-18.19974 2.050933,-26.032 1.421122,-7.83227 -0.767149,-20.44251 -2.174066,-32.77576 0,0 0,0 -1e-6,0 -0.703951,-6.17094 -0.825761,-10.90117 -0.87856,-15.24403 m 3.06169,2.73564 c -0.142035,-9.85094 0.162055,-18.17215 0.629208,-25.98103 0,0 0,0 0,-10e-6 0.467315,-7.81161 -1.504153,-19.70719 -4.347505,-30.54138 -2.843351,-10.83418 0.958059,-18.66889 3.025932,-27.45388 1e-6,0 1e-6,0 1e-6,0 1.034661,-4.39557 0.808352,-9.23124 0.118642,-14.22831 m -0.859596,-4.86155 C 20.6126,777.73063 19.603616,769.34347 19.1707,761.00475 c -1e-6,0 -1e-6,0 -1e-6,0 -0.433067,-8.34164 -0.574926,-18.49197 -1.605316,-26.90545 -1.030391,-8.41347 1.10045,-20.07241 3.452494,-31.65856 0,0 1e-6,-10e-6 1e-6,-10e-6 1.176846,-5.79713 1.046972,-10.37989 0.512318,-14.52127 m -6.048279,4.12529 c -0.466213,-9.9463 0.52442,-19.21467 1.726423,-29.08875 1.202425,-9.87753 -0.267935,-19.61024 -0.670941,-30.27732 0,0 0,0 0,0 -0.08154,-2.15819 -0.130874,-4.2254 -0.157043,-6.22996 7.53173,-0.30634 15.42359,0.3612 23.122057,0.26657 4.828929,-0.0593 9.249038,0.19529 13.309639,0.7163 M 23.31388,626.53171 c 10.08113,-0.72975 18.550484,0.31889 27.078027,0.97577 10e-7,0 2e-6,0 2e-6,0 8.530529,0.65711 18.233627,-0.37815 26.113614,-1.1375 7.879986,-0.75935 19.404575,-0.11368 29.668297,-0.36562 0,0 0,0 10e-6,0 5.13545,-0.12606 10.01815,-0.13333 14.92501,-0.11817 m -0.6704,0.32154 c 9.06792,0.23688 19.46896,0.45628 29.82128,1.36069 10.35595,0.90472 19.32868,0.0999 29.40424,0.325 10.07556,0.22513 19.04261,0.92726 28.55111,2.80312 0,0 1e-5,0 1e-5,0 4.75758,0.93859 9.41532,0.69133 13.96854,-0.0356 m -0.36263,-5.36816 c 10.30457,-0.62826 19.11677,0.46601 28.80435,1.40222 9.69099,0.93654 19.56979,0.28201 30.15581,0.85312 10.58601,0.57112 19.33565,-0.99382 29.44486,-3.00624 0,0 0,0 0,0 5.05815,-1.00692 9.524,-1.01222 13.61882,-0.77076 m -0.19565,4.10163 c 10.36568,-0.35872 19.51185,-0.70042 29.98241,-2.09181 10e-6,0 10e-6,0 10e-6,0 10.47423,-1.39188 17.85222,-0.58845 24.97611,-1.74688 7.12389,-1.15842 19.49144,0.31823 29.89174,0.95469 0,0 0,0 0,0 5.20379,0.31845 9.99752,0.3395 14.71059,0.30347 m -6.16399,3.23095 c 8.73146,0.0399 18.78277,-0.001 28.34378,-0.0195 0.003,0.1573 0.007,0.31461 0.01,0.47192 0,0 0,0 0,10e-6 0.18423,9.50634 0.0871,19.54669 0.28437,30.07455 0.19724,10.52785 0.36529,19.05526 1.11719,28.59173 0,0 0,10e-6 0,10e-6 0.37622,4.77157 0.35417,9.25186 0.21604,13.44588 m 1.77409,-3.23249 c -0.47307,9.98732 0.0844,19.7197 0.26456,30.57187 0.18024,10.85598 0.58954,18.61016 1.7875,27.25112 1.19796,8.64096 -0.78014,19.40918 -2.35625,29.6683 0,0 0,0 0,0 -0.78861,5.13316 -0.57444,9.7347 0.0527,14.07947 m 0.41522,-1.57062 c 0.70345,10.12193 0.74043,18.89899 2.21332,28.15455 1.4734,9.2588 -0.009,18.30736 -0.0203,26.33705 -0.0109,8.02969 -1.17989,20.40882 -3.51406,32.63392 0,0 0,10e-6 -10e-6,10e-6 -1.1679,6.11683 -1.12042,10.81661 -0.73351,15.11714 m -1.50171,-0.13025 c -0.80359,10.0479 1.03454,19.35024 3.10866,29.47494 2.07486,10.12824 -0.72658,18.70474 -2.17343,27.5558 -1.44686,8.85106 1.13133,18.39877 3.41249,26.64174 0,0 0,0 0,0 1.14138,4.12437 1.1686,8.86152 0.93755,13.7297 m -6.21964,3.53087 c -0.79363,8.7047 0.56184,18.4834 1.74258,27.2864 -0.10639,-0.01 -0.21282,-0.016 -0.31927,-0.024 -10e-6,0 -10e-6,0 -10e-6,0 -8.33234,-0.6296 -18.4658,0.8223 -26.80424,2.4578 -8.33844,1.6355 -19.73973,-1.2005 -30.66361,-3.5953 -5.46577,-1.1982 -10.2732,-0.9873 -14.94542,-0.2671 m 1.72714,-1.3585 c -8.68898,-0.5951 -18.83754,-0.3248 -27.95293,-0.9541 -9.11857,-0.6296 -18.71321,0.6991 -27.57611,2.0922 -8.86291,1.3931 -18.61665,0.7129 -27.27143,2.1531 0,0 0,0 0,0 -4.33042,0.7206 -9.2854,0.3472 -14.54154,-0.579 m 0.2263,-4.0116 c -8.77018,0.041 -18.96951,0.5618 -28.33878,1.7062 0,0 0,0 0,0 -9.37255,1.1448 -18.94768,0.2902 -28.28705,0.8735 -9.33937,0.5833 -18.40893,-0.6444 -26.66205,-1.95 0,0 -1e-5,0 -1e-5,0 -4.12945,-0.6533 -9.17972,-0.4613 -14.67612,0.085 m -1.83356,0.5243 c -9.43366,0.3383 -20.54529,0.526 -33.0709,1.5637 -12.52999,1.038 -18.36444,-0.1435 -26.51986,-0.4062 -8.15543,-0.2628 -18.76778,-0.1986 -27.738615,-0.6094 -10e-7,0 -3e-6,0 -4e-6,0 -4.488558,-0.2055 -9.337659,-0.065 -14.34113,0.2704 m -0.869251,3.7112 c -10.094279,0.3854 -18.024275,0.095 -25.493637,0.3043 -1e-6,0 -2e-6,0 -2e-6,0 -7.471978,0.2095 -20.29379,-0.6853 -32.308927,-2.0515 -0.937939,-0.1067 -1.844471,-0.193 -2.723145,-0.2609 -1.640793,-9.5817 0.604148,-16.5937 0.889226,-24.2314 0.154717,-4.14514 0.02508,-9.08727 -0.253917,-14.35784 m 6.60106,-3.83685 c -0.189756,-8.68835 -0.420992,-18.11503 -1.097305,-25.79944 -1e-6,0 -1e-6,0 -1e-6,-10e-6 -0.676549,-7.6871 -1.136904,-19.93158 -3.270941,-31.21169 -2.134038,-11.28011 0.406235,-18.75081 1.360307,-27.69763 0,0 1e-6,0 1e-6,0 0.477369,-4.47654 0.479829,-9.28167 0.381989,-14.20001 m -2.972219,0.35167 c -0.06811,-9.20935 -0.439349,-18.91644 -1.158371,-28.19577 0,0 0,0 0,0 -0.719273,-9.28258 -0.02798,-19.78418 0.06031,-30.78513 0.08828,-11.00095 -0.834857,-19.28328 -2.356879,-29.28201 0,0 -10e-7,0 -10e-7,0 -0.761544,-5.00287 -0.539976,-9.3476 0.11201,-13.21511 m 5.077355,4.24233 c -0.156017,-8.6758 -0.501539,-19.50383 -1.381715,-29.96352 0,0 0,0 -1e-6,0 -0.880484,-10.46335 -0.890851,-18.49874 -2.519379,-26.92576 -1.628527,-8.42701 0.791225,-20.33356 2.497808,-32.43044 0,0 0,0 1e-6,0 0.853888,-6.05268 0.886698,-10.84274 0.76076,-15.33408 m -3.472197,-1.07338 c 0.567584,-8.9728 0.05386,-18.92657 0.323774,-28.19603 0.270013,-9.27269 -0.547234,-19.2226 -1.524067,-29.07888 0,0 0,0 0,0 -0.08011,-0.80831 -0.144149,-1.61002 -0.19366,-2.40565 8.232257,-0.16334 18.284891,0.43413 27.994607,1.03754 5.292276,0.32888 10.00192,0.35911 14.526238,0.33777 m -30.992143,-0.23655 c 9.310306,-0.31762 18.124297,0.073 25.799149,0.20346 10e-7,0 10e-7,0 2e-6,0 7.67754,0.13055 19.292859,-0.18884 29.322989,-0.58906 10.03013,-0.40022 18.690861,0.45425 27.494862,1.36094 0,0 0,0 0,0 4.40509,0.45366 9.09472,0.39089 13.80032,0.15202 m 0.0482,-2.95447 c 9.23756,0.64274 20.42577,0.91368 32.72578,2.7212 12.30432,1.80815 18.36702,-0.53449 26.54018,-1.625 8.17316,-1.09051 18.65369,-0.47965 27.41361,-1.42188 1e-5,0 1e-5,0 1e-5,0 4.38303,-0.47144 9.20111,-0.28969 14.1646,0.19366 m 0.47623,7.97234 c 9.33197,0.35831 20.11094,0.11563 31.75069,0.36525 0,0 0,0 0,0 11.64383,0.24971 18.91328,-0.68487 28.14486,-2.03125 9.23158,-1.34638 18.01148,0.28187 25.4433,0.85313 0,0 10e-6,0 10e-6,0 3.71851,0.28582 8.63926,0.25808 13.97531,0.13461 m -1.95425,-3.77107 c 9.8525,-0.49332 20.23135,0.12098 32.15639,0.34583 0,0 10e-6,0 10e-6,0 11.92921,0.22493 17.8271,0.13792 24.91517,0.40625 7.08807,0.26833 19.97407,-0.26169 31.37455,-0.79218 0,0 0,0 0,-10e-6 5.70423,-0.26543 10.32597,-0.23938 14.57113,-0.12185 m 5.1083,-2.45795 c 9.20735,-0.10203 16.98977,-0.0575 25.12696,-0.1149 -0.0397,1.0618 -0.0738,2.12197 -0.0986,3.18001 -0.22087,9.42564 -0.8033,19.67576 -2.41719,30.48081 -1.6139,10.80505 0.29385,19.14715 0.87343,28.87611 0.29,4.86789 0.41684,9.44196 0.59846,13.80117 m -4.64111,4.49669 c -0.44574,10.07482 0.50998,19.19411 1.50359,29.00772 0,10e-6 0,10e-6 0,10e-6 0.99396,9.81705 -1.2373,18.72478 -3.69687,27.61674 -2.45958,8.89195 0.0705,19.31763 0.20312,29.38392 0,0 0,0 0,0 0.0664,5.03667 0.0314,9.83152 -0.0535,14.58693 m 1.31328,-2.42395 c 0.38533,9.59372 0.0858,17.44963 0.24335,23.7676 0.15756,6.3202 -0.37714,20.54262 -1.11719,33.04018 -0.74005,12.49756 -0.0112,18.03795 -0.0203,25.54487 0,0 0,0 0,0 -0.005,3.75608 0.0699,8.51681 0.21752,13.52445 m 0.53378,3.73669 c -0.24234,9.33075 1.39764,18.35647 4.16432,26.48975 0,0 0,0 0,1e-5 2.76765,8.13612 -0.44782,18.53486 -1.32031,27.00736 -0.87249,8.4725 -0.42074,18.99737 -1.25937,28.40892 0,0 0,1e-5 0,1e-5 -0.41962,4.70907 -0.29143,9.79231 0.0683,15.2086 m 4.44101,-0.97358 c -0.0843,8.69218 0.0854,17.02848 0.3043,25.51528 -1.0065,-1e-4 -2.01227,0 -3.01768,0.01 -9.26821,0.049 -19.15696,0.2943 -28.89643,0.8735 -9.73946,0.5791 -19.72165,0.047 -30.60267,0.1218 0,0 0,0 0,0 -5.44432,0.038 -9.92692,0.2259 -13.95645,0.5954 m -3.1228,0.8268 c -10.20319,0.304 -19.12113,-0.3147 -28.80446,-0.955 -9.68672,-0.6405 -18.43073,1.1974 -26.70268,3.5953 -8.27195,2.3979 -19.39983,0.3778 -29.64798,1.1172 -1e-5,0 -1e-5,0 -1e-5,0 -5.12766,0.37 -9.90161,0.1879 -14.59586,-0.2702 m 4.36256,-0.5227 c -9.60141,-0.6898 -18.79804,-0.6148 -27.8504,-1.868 -1e-5,0 -1e-5,0 -1e-5,0 -9.05554,-1.2536 -19.35732,-0.035 -29.52611,-0.1016 -10.1688,-0.066 -19.4624,0.5509 -29.8308,1.6453 0,0 0,0 0,0 -5.18783,0.5476 -10.08228,0.4762 -14.99971,0.1993 m -1.06258,-0.9704 c -8.9384,0.6896 -17.88125,0.2578 -25.06829,0.7711 -7.18957,0.5135 -19.70405,0 -30.52143,0.02 -10.81738,0.016 -18.7451,-0.6757 -27.657365,-2.0515 -10e-7,0 -3e-6,0 -4e-6,0 -4.459254,-0.6884 -9.519717,-0.628 -14.95148,-0.3367 m -2.492182,3.4243 c -9.054774,0.067 -19.997263,-0.1957 -31.405669,-0.6095 -11.211085,-0.4066 -18.370459,-0.051 -26.853745,-0.099 0.01483,-0.1688 0.02923,-0.3378 0.04317,-0.5069 0,0 0,0 0,0 0.79042,-9.5877 -0.399291,-18.657 -1.077192,-27.4133 -0.339188,-4.38124 -0.323579,-9.18241 -0.187818,-14.1175 m 1.539059,-0.19756 c 0.736858,-8.77068 0.482569,-19.856 1.603284,-31.01967 0,-1e-5 0,-1e-5 0,-1e-5 1.121106,-11.16758 -0.682785,-18.14767 -1.910005,-25.88982 -1.22722,-7.74214 0.632383,-19.98141 2.050933,-31.37419 0,0 0,0 0,0 0.709772,-5.70038 0.53,-10.19925 0.01089,-14.19828 m 2.010022,-2.35212 c 0.121523,-9.68927 0.100865,-18.94304 0.446118,-28.27652 0,0 0,-10e-6 0,-10e-6 0.345373,-9.33674 -0.664166,-19.18205 -1.869379,-28.99763 -1.205214,-9.81557 -0.557523,-19.86685 -1.503754,-31.02888 0,0 -10e-7,0 -10e-7,0 -0.473447,-5.58492 -0.233384,-10.13852 0.381249,-14.27769 m -0.778055,4.41012 c -0.378008,-9.66956 1.009038,-19.76026 3.148206,-30.73435 0,0 10e-7,0 10e-7,-1e-5 2.139915,-10.97792 0.151518,-18.38864 0.608744,-26.58044 0.457227,-8.1918 -1.072512,-19.63759 -3.067815,-30.33825 -1e-6,0 -1e-6,0 -1e-6,-10e-6 -0.998351,-5.35407 -0.884627,-10.12591 -0.387545,-14.75736 m -2.039723,3.04085 c 0.371496,-10.15643 -0.05611,-20.07379 -0.001,-31.64791 0.05435,-11.41962 -0.01275,-17.78298 0.09629,-24.98019 0.132576,0.0305 0.265185,0.0608 0.39783,0.091 9.686986,2.20194 19.034619,-0.2535 28.551114,-0.77187 1e-6,0 1e-6,0 2e-6,0 4.761579,-0.25937 9.678834,-0.32767 14.747287,-0.39868 m -35.901706,-0.92214 c 9.832424,-0.48052 20.520271,-0.90586 32.989226,-2.70106 1e-6,0 2e-6,0 3e-6,0 12.473319,-1.79583 19.07416,0.30611 28.672988,0.89375 9.598827,0.58764 18.648677,0.98922 27.372987,2.96563 0,0 0,0 0,0 4.36521,0.98889 9.19689,0.62854 14.19706,-0.34044 m 2.33311,1.90407 c 9.59412,-0.40606 18.0345,-0.75023 25.5551,-2.23394 7.52323,-1.48424 19.80914,-0.12885 30.86674,-0.38594 11.05761,-0.25709 18.97659,0.8867 28.3683,2.64062 0,0 1e-5,0 1e-5,0 4.69914,0.87758 9.40979,0.9192 14.08544,0.78164 m -0.84594,-0.35582 c 9.554,-0.71035 18.65403,-0.93355 27.40358,-2.82269 0,0 0,0 0,0 8.75261,-1.88981 18.70671,0.79279 27.5558,2.35625 8.84909,1.56345 19.90162,-0.0758 31.15111,-0.24375 0,0 0,0 1e-5,0 5.62868,-0.0841 10.21955,-0.21194 14.4224,-0.44811 m -2.09638,-4.16274 c 10.1158,0.0876 19.80034,-0.33873 30.81549,-1.01572 10e-6,0 10e-6,0 10e-6,0 11.01901,-0.67721 18.14174,0.9226 25.82924,2.78282 7.68749,1.86021 19.08634,-0.35595 28.71361,-1.07656 0,0 0,0 0,0 4.817,-0.36057 9.81318,-0.25022 15.02674,0.0629 m 1.03704,2.29354 c 8.96337,0.16944 17.27715,-0.29576 26.57709,-0.99849 0.16378,1.16849 0.35124,2.33128 0.56846,3.48984 1.61959,8.63785 -0.17725,19.19611 -0.50781,28.998 -0.33055,9.80188 -0.88197,17.94458 -2.64062,25.2808 -0.87995,3.67068 -0.93893,8.65172 -0.83743,14.12396 m 1.48804,-0.43837 c 0.58077,8.80438 -0.71245,19.55787 -2.13343,30.12624 -1.42146,10.57207 -0.14198,19.4794 -0.40625,29.89174 -0.26426,10.41234 1.53042,19.5666 4.61094,30.11517 0,10e-6 0,10e-6 0,10e-6 1.54134,5.27798 1.43473,9.75366 0.8359,13.81369 m -0.20657,-0.10718 c -0.33872,9.38506 -1.10935,18.70597 -3.3512,27.54594 -2.24264,8.84308 -0.0794,18.16782 -0.24375,25.95112 -0.16433,7.7833 1.30115,20.34809 3.9,32.49174 0,0 0,0 0,0 1.30033,6.07608 1.09972,10.63387 0.37685,14.65493 m -1.14888,1.63215 c -0.14205,10.22284 -0.1565,18.22985 -0.46704,26.12319 0,0 0,0 0,0 -0.31064,7.89611 -0.19466,19.5272 -0.58906,30.03393 -0.3944,10.50673 0.60951,19.519 1.82813,29.97298 0,1e-5 0,1e-5 0,1e-5 0.60973,5.23065 0.56447,10.01559 0.3233,14.70229 m -5.68666,-4.2868 c -0.7105,7.8207 0.68192,16.6841 2.54762,25.5646 -0.96171,0.09 -1.91276,0.1808 -2.85868,0.2683 0,0 0,0 0,0 -7.25646,0.6713 -20.21247,1.1417 -32.08549,3.4328 -11.87301,2.2911 -18.45727,-0.2144 -26.82455,-0.6297 0,0 0,0 0,0 -4.18657,-0.2078 -8.93106,-0.4582 -13.79753,-0.9077 m 2.20308,2.5735 c -9.79834,0.2087 -20.11038,-1.1942 -31.77051,-3.5752 -11.6642,-2.3818 -19.16211,1.1769 -28.91674,3.5141 -9.75462,2.3371 -19.27241,-0.692 -29.24173,-2.0516 -1e-5,0 -1e-5,0 -1e-5,0 -4.98815,-0.6803 -9.65062,-0.776 -14.15618,-0.8012 m -3.47136,1.1259 c -10.06677,-0.2981 -17.34932,-0.9498 -23.48273,-2.8637 0,-10e-5 0,-10e-5 0,-10e-5 -6.13555,-1.9146 -20.29034,0.022 -32.30893,0.041 -12.01859,0.019 -19.06556,0.7725 -28.61205,2.3359 -4.77659,0.7823 -9.22467,0.5458 -13.35048,-0.124 m 6.20506,1.4233 c -9.24335,-0.6833 -19.02011,-0.8693 -28.50078,-2.5993 -1e-5,0 -1e-5,0 -1e-5,0 -9.484,-1.7306 -19.72517,0.8388 -30.60267,2.5391 -10.8775,1.7003 -19.831274,-0.789 -30.907363,-2.3563 -2e-6,0 -4e-6,0 -6e-6,0 -5.541923,-0.7842 -10.300345,-0.734 -14.857834,-0.4366 m 0.07453,1.7776 c -9.607926,0.3712 -18.444686,-0.898 -26.794149,-2.7019 -8.022342,-1.7332 -18.815485,0.7617 -29.255256,2.6722 -0.05505,-0.2978 -0.109496,-0.5965 -0.163129,-0.8965 -1.357288,-7.5931 -0.452848,-19.8816 -1.239692,-31.06952 0,0 0,0 0,0 -0.393697,-5.59786 -0.359608,-10.21232 -0.17301,-14.46768 m 1.421602,0.71996 c -0.297447,-10.11492 0.22692,-18.71508 0.812183,-27.60576 0,0 0,0 0,-1e-5 0.585467,-8.89379 -0.934593,-18.68622 -2.681879,-27.47419 -1.747287,-8.78797 0.371232,-19.91885 1.279057,-31.17106 0,-1e-5 0,-1e-5 1e-6,-1e-5 0.45423,-5.63005 0.334083,-9.97909 -0.0023,-13.69959 m 0.235101,-2.16002 c -0.494368,-9.53321 -1.075948,-18.08867 -3.08761,-25.71731 0,0 0,0 -10e-7,0 -2.012364,-7.63131 -0.314112,-19.6835 -0.813128,-30.50076 -0.499016,-10.81725 0.865368,-19.07175 2.76187,-28.632 0,0 0,-10e-6 1e-6,-10e-6 0.948914,-4.78347 1.015966,-9.4244 0.934244,-13.93728 m -1.73664,-1.90248 c 0.250168,-9.97338 0.421618,-19.28064 1.40067,-29.29185 0,0 1e-6,0 1e-6,0 0.979394,-10.01471 -0.373153,-17.95754 -0.955318,-25.28044 -0.582164,-7.3229 0.371165,-19.43196 1.279058,-29.72888 0,0 0,0 0,-10e-6 0.454265,-5.15206 0.212361,-9.912 -0.368021,-14.57021 m -0.454111,5.27221 c 0.797673,-8.89955 0.459463,-20.49257 1.52197,-32.92892 1.025074,-11.9982 -1.313416,-18.1914 -4.025728,-26.43185 0.240407,0.0348 0.480306,0.0669 0.719846,0.0957 6.7347,0.81169 20.049702,0.7542 31.597988,2.275 1e-6,0 2e-6,0 3e-6,0 5.778186,0.76093 10.629198,0.72004 15.316305,0.45088 m -33.945348,-2.72601 c 10.189011,-0.12144 18.175082,0.31688 25.981038,0.93451 10e-7,0 2e-6,0 4e-6,0 7.808688,0.61783 19.141594,-1.07569 28.835487,-3.25 9.693892,-2.17432 19.142819,1.35667 28.876109,4.08281 0,0 1e-5,0 1e-5,0 4.87005,1.36402 9.5265,1.04234 14.05095,0.0574 m 0.42708,-2.49492 c 9.04758,-0.0132 19.37731,0.42091 29.55723,1.23908 1e-5,0 1e-5,0 1e-5,0 10.18349,0.81846 19.27789,-0.43015 29.26205,-1.27969 9.98415,-0.84953 18.85079,-0.84114 28.00267,-2.49843 0,0 1e-5,0 1e-5,0 4.57914,-0.82923 9.48483,-0.78594 14.5804,-0.49596 m 0.58819,8.13378 c 8.98681,0.31039 19.46234,-0.75458 29.82136,-2.25501 0,0 10e-6,0 10e-6,0 10.36264,-1.50096 18.49829,-0.65163 26.9058,-1.95 8.4075,-1.29838 18.90718,0.73768 28.16517,2.23437 0,0 0,0 0,0 4.63224,0.74887 9.45051,0.85295 14.35433,0.87287 m -1.35946,-5.19959 c 8.71666,-0.14804 19.76122,0.93891 30.69509,2.80328 0,10e-6 0,10e-6 10e-6,10e-6 10.93769,1.86502 18.72701,-0.4244 27.59642,-1.25938 8.86941,-0.83498 19.03699,0.87337 28.55111,2.62031 4.7604,0.87409 9.60376,0.54327 14.52369,-0.33392 m 1.54009,1.10658 c 8.42523,0.60481 16.13792,-0.10741 24.47386,-0.9226 0.1344,1.58573 0.30141,3.16608 0.51701,4.75556 1.15863,8.54197 -0.24362,18.57536 -0.75156,27.16987 -0.50795,8.59451 -0.78745,18.88925 -2.37657,28.08393 -0.79511,4.60056 -0.71592,9.41648 -0.35804,14.3245 m 3.44503,2.79534 c -0.49389,10.17576 -0.68043,18.55621 -2.03074,27.09824 0,0 0,0 0,0 -1.35078,8.54502 0.84914,18.98858 2.55938,28.40893 1.71024,9.42035 -0.58656,19.0254 -1.76719,28.49017 0,0 0,10e-6 0,10e-6 -0.59073,4.73569 -0.59765,9.4602 -0.4636,14.15398 m 0.76889,0.66987 c 0.57452,9.53389 -0.002,18.89336 -6e-4,28.11454 0.001,9.2244 -1.41524,19.12176 -4.26562,28.79487 -2.85039,9.6731 0.82163,18.86189 2.45781,28.00267 0,0 0,0 0,0 0.81866,4.5736 0.57242,9.29247 -0.12405,14.01125 m 3.17092,-4.46954 c -3.7e-4,8.67638 -0.53723,20.16354 -1.60469,31.93419 0,0 0,0 0,0 -1.06782,11.77477 -0.7437,19.02203 -2.23437,28.51049 -1.49067,9.48846 1.11143,18.97395 3.35156,28.34798 0,10e-6 0,10e-6 0,10e-6 1.12085,4.6903 1.21372,9.54862 1.11724,14.52149 m -2.13236,1.2565 c 0.39226,7.3916 0.0146,15.1314 -0.35339,22.4424 -1.81835,-0.1055 -3.63622,-0.2324 -5.44496,-0.3892 -9.9214,-0.8603 -19.64149,-0.2654 -30.33862,-0.7719 -10.69713,-0.5065 -19.58848,0.7786 -30.21674,2.3156 -5.31785,0.7691 -9.93191,0.9125 -14.25711,1.0056 m 2.84524,-1.6146 c -10.02134,0.3793 -20.04037,1.0633 -31.56715,3.1887 -11.53082,2.1261 -17.69961,-0.1098 -24.54955,-0.3047 -6.84994,-0.1948 -20.20781,-0.1104 -32.06518,-0.325 -5.93284,-0.1073 -10.49675,-0.1397 -14.5694,-0.1748 m 0.23366,-0.6588 c -8.95198,-0.8049 -17.97798,-0.7837 -25.35265,-2.3351 -10e-6,0 -10e-6,0 -10e-6,0 -7.37725,-1.552 -20.36123,0.486 -32.53236,1.4625 -12.17113,0.9765 -19.10557,0.1439 -28.73392,0.4265 -10e-6,0 -10e-6,0 -10e-6,0 -4.81755,0.1415 -9.31092,0.032 -13.52034,-0.2235 m -1.58866,-5.1787 c -10.27048,0.8322 -18.68872,1.2047 -27.5247,3.5944 -1e-5,0 -1e-5,0 -1e-5,0 -8.83907,2.3906 -19.08377,-0.7578 -28.67299,-2.275 -9.58921,-1.5172 -19.502543,-0.5719 -29.932356,-1.7062 -2e-6,0 -4e-6,0 -6e-6,0 -5.218558,-0.5676 -9.998887,-0.1474 -14.683769,0.8352 m 7.761606,7.0866 c -9.412543,-0.048 -19.341974,-1.4178 -29.475605,-4.2249 -9.20995,-2.5513 -17.127088,-0.088 -25.133499,1.0758 0.06071,-0.754 0.120516,-1.5211 0.178007,-2.3079 0.62853,-8.6019 -0.650351,-18.9788 -1.788129,-28.3883 0,0 0,0 -10e-7,0 -0.569287,-4.70803 -0.66102,-9.56446 -0.686678,-14.5294 m -2.654617,-2.22366 c 0.404802,-9.24251 -0.755938,-18.00421 -2.133867,-25.45355 -1e-6,0 -1e-6,0 -1e-6,0 -1.378411,-7.45195 -0.524279,-20.10532 -1.442816,-31.76013 -0.918537,-11.65481 1.443122,-19.17481 4.488431,-28.93669 10e-7,-10e-6 10e-7,-10e-6 2e-6,-10e-6 1.523721,-4.88436 1.457797,-9.37163 0.962474,-13.54853 m -2.436383,0.18763 c -0.892747,-9.27011 -0.501019,-18.81263 -1.340316,-27.87071 -1e-6,0 -1e-6,0 -1e-6,0 -0.83959,-9.06124 0.605435,-19.21232 1.949371,-29.07888 1.343937,-9.86656 -1.13494,-18.53855 -3.270941,-27.06794 0,0 0,-10e-6 -10e-7,-10e-6 -1.068748,-4.26768 -1.183438,-9.21827 -1.131307,-14.47768 m 2.277903,-1.05757 c -0.709324,-10.14127 0.829711,-17.74119 2.640741,-24.68073 1e-6,0 1e-6,0 1e-6,0 1.811663,-6.94198 -0.781234,-20.52695 -2.214692,-33.01951 -1.433459,-12.49256 0.573274,-17.86519 1.888432,-25.01638 0,0 0,0 1e-6,0 0.658039,-3.5781 0.619724,-8.49997 0.395307,-13.87164 m -2.55933,-6.61928 c -0.406345,-9.58764 -0.851847,-18.6022 -2.437703,-27.261 -1.447566,-7.90374 0.550683,-16.85617 2.492227,-24.88611 1.023927,0.0633 2.047331,0.13513 3.067124,0.21717 10e-7,0 2e-6,0 3e-6,0 11.651948,0.93736 17.745788,-1.23242 24.651113,-3.67656 3.45508,-1.22292 8.249357,-1.04959 13.399878,-0.4004 m 144.232607,405.22067 -8.04297,0 M 16.628025,728.38283 l -0.03587,-7.17569 m 0.816611,163.36632 -0.03727,-7.45693 m 267.088097,-249.8528 9.50781,0 m 147.55346,400.10777 -8.47656,0"
       id="rect3763"
       inkscape:path-effect="#path-effect2994"
       inkscape:original-d="m 16.122566,627.26373 433.166844,0 0,400.10777 -431.166844,0 z"
       inkscape:connector-curvature="0"
       sodipodi:nodetypes="ccccc" />
    <path
       style="fill:none;stroke:#000000;stroke-width:1;stroke-linecap:butt;stroke-linejoin:miter;stroke-miterlimit:4;stroke-opacity:1;stroke-dasharray:24, 24;stroke-dashoffset:0"
       d="m 451.1252,768.31117 c 16.03179,-13.03355 30.83706,-25.25617 45.98722,-37.90614 0.003,-0.002 0.005,-0.004 0.008,-0.006 m 0.88322,-3.47434 c 15.96141,-12.89777 30.44768,-25.39143 44.86226,-38.27183 0.002,-0.002 0.005,-0.004 0.007,-0.006 m -0.37652,1.71282 c 16.05065,-12.2279 31.22055,-25.04462 47.18252,-37.2456 0.003,-0.002 0.005,-0.004 0.008,-0.006 m 2.78075,-0.85779 c 14.96376,-12.15744 30.30524,-24.44023 44.42682,-35.44564 0.002,-0.002 0.005,-0.004 0.007,-0.005 m -3.51901,-4.76566 c 9.79098,-8.15905 20.1326,-16.39271 30.73493,-24.70049 M 450.74771,764.20975 c 15.74597,-12.74763 30.4763,-24.61405 44.90455,-35.93753 0.002,-0.002 0.005,-0.004 0.007,-0.006 m 1.98778,0.81287 c 15.00139,-12.15784 30.80922,-25.63236 45.93149,-39.03158 0.003,-0.002 0.005,-0.004 0.008,-0.007 m 1.36689,0.23094 c 16.09274,-12.4575 31.02326,-25.34758 46.53563,-38.17362 0.003,-0.002 0.005,-0.004 0.008,-0.006 m -4.17166,-3.40292 c 15.96149,-12.41536 30.689,-25.38167 45.53726,-38.25802 0.002,-0.002 0.005,-0.004 0.007,-0.006 m 4.01025,1.26213 c 9.72113,-7.78351 19.61389,-15.64632 29.31129,-23.11969 M 448.80934,764.67683 c 15.5727,-12.95861 30.53212,-25.28198 45.11558,-37.9343 0.002,-0.002 0.005,-0.004 0.007,-0.006 m 1.95347,-0.0514 c 15.27787,-12.39651 31.24836,-25.04649 47.2251,-37.25959 0.003,-0.002 0.005,-0.004 0.008,-0.006 m -0.24788,1.55149 c 15.54014,-12.34484 31.21799,-24.6123 47.16872,-35.93773 0.003,-0.002 0.005,-0.004 0.008,-0.006 m -0.4919,-3.13275 c 14.96844,-12.77121 30.33703,-25.06896 44.48306,-37.30159 0.002,-0.002 0.005,-0.004 0.007,-0.006 m 1.61247,-0.94949 c 10.12072,-8.25293 20.06763,-16.55921 29.96909,-25.03926 M 449.21538,764.43998 c 15.15612,-13.2208 31.32033,-24.98129 47.47829,-37.07636 0.003,-0.002 0.005,-0.004 0.008,-0.006 m -2.69311,-2.70428 c 15.88208,-12.84115 31.32957,-24.13815 47.49198,-34.51718 0.003,-0.002 0.005,-0.003 0.008,-0.005 m 1.84829,-2.92899 c 15.85382,-12.11527 30.87739,-24.37898 46.09981,-35.22067 0.003,-0.002 0.005,-0.004 0.008,-0.005 m 1.95544,-0.66012 c 15.16075,-12.32635 31.16299,-25.33333 46.97203,-38.0893 0.003,-0.002 0.005,-0.004 0.008,-0.006 m -2.14569,3.54393 c 9.73026,-8.01378 19.72128,-16.27353 29.61158,-24.60202 M 448.36868,765.79821 c 15.49806,-12.39216 31.4398,-26.05253 47.81561,-40.28302 0.003,-0.002 0.005,-0.005 0.008,-0.007 m 0.83405,2.83358 c 15.7228,-12.70085 31.23227,-24.7743 47.19675,-36.45787 0.003,-0.002 0.005,-0.004 0.008,-0.006 m 2.00452,-2.47151 c 15.62904,-12.52769 30.9552,-25.15365 46.38117,-37.5689 0.003,-0.002 0.005,-0.004 0.008,-0.006 m -6.22283,0.32036 c 15.08581,-12.31258 31.14288,-26.17823 46.92988,-40.63463 0.003,-0.002 0.005,-0.005 0.008,-0.007 m 2.31262,0.20878 c 10.3568,-8.09835 20.24933,-15.99811 30.09221,-23.61006 m -77.25926,64.44099 4.98831,-4.06423 m 57.7516,-47.05318 4.45048,-3.62603 m -24.79855,20.20465 4.6249,-3.76815 m -152.99632,124.65393 5.89682,-4.80444 m 68.71281,-55.98384 5.25722,-4.28333"
       id="path3796"
       inkscape:connector-curvature="0"
       sodipodi:nodetypes="cc"
       inkscape:path-effect="#path-effect3774"
       inkscape:original-d="M 449.99751,765.38253 666.11338,589.30188" />
    <text
       xml:space="preserve"
       style="font-size:40px;font-style:normal;font-variant:normal;font-weight:normal;font-stretch:normal;line-height:125%;letter-spacing:0px;word-spacing:0px;fill:#000000;fill-opacity:1;stroke:none;font-family:Serif;-inkscape-font-specification:Serif"
       x="584.53107"
       y="349.7562"
       id="text4456"
       sodipodi:linespacing="125%"
       transform="translate(0,308.2677)"><tspan
         sodipodi:role="line"
         id="tspan4458"
         x="584.53107"
         y="349.7562" /></text>
    <text
       xml:space="preserve"
       style="font-size:40px;font-style:normal;font-variant:normal;font-weight:normal;font-stretch:normal;line-height:125%;letter-spacing:0px;word-spacing:0px;fill:#000000;fill-opacity:1;stroke:none;font-family:Serif;-inkscape-font-specification:Serif"
       x="583.57141"
       y="345.21054"
       id="text4460"
       sodipodi:linespacing="125%"
       transform="translate(0,308.2677)"><tspan
         sodipodi:role="line"
         id="tspan4462"
         x="583.57141"
         y="345.21054" /></text>
    <path
       style="fill:#ffffff;fill-opacity:1;stroke:#000000;stroke-width:1.50600004;stroke-linecap:butt;stroke-miterlimit:4;stroke-opacity:1;stroke-dasharray:none;stroke-dashoffset:0"
       d="m 662.47846,554.70044 c 9.25147,-0.36783 17.76776,-0.24553 26.16655,-0.12828 -0.19221,4.62277 -0.41622,9.24417 -0.58506,13.79447 -1.2e-4,0.003 -2.5e-4,0.007 -3.7e-4,0.01 m 1.25085,-16.51275 c 0.63683,12.95928 -0.78063,26.47725 -2.28564,39.46293 -3.7e-4,0.003 -7.5e-4,0.006 -0.001,0.01 m -0.56392,-8.18136 c 0.76091,13.88935 0.2924,26.96214 0.93693,40.88802 1.6e-4,0.003 3.2e-4,0.007 4.8e-4,0.0104 m 3.90286,-11.57652 c -0.74825,13.9873 -0.97647,27.8046 -2.89006,43.38795 -4.8e-4,0.004 -9.6e-4,0.008 -0.001,0.0117 m -4.9583,-18.1556 c -0.48725,13.33639 0.85625,26.42452 2.53943,39.26734 4.2e-4,0.003 8.4e-4,0.006 0.001,0.01 m 0.0343,-5.61163 c 0.20191,5.43351 0.45498,11.01004 0.86303,16.64743 -7.17825,0.0711 -14.05866,0.25925 -20.36468,0.34546 -0.003,4e-5 -0.005,7e-5 -0.008,1.1e-4 m 7.4932,-0.61907 c -4.71024,0.26466 -9.26843,0.4249 -13.71745,0.57758 0.27934,-8.44386 0.95293,-16.91503 1.72654,-24.74887 3e-4,-0.003 5.9e-4,-0.006 8.9e-4,-0.009 m 0.15827,7.57368 c 0.74737,-12.68012 -0.77539,-27.35958 -2.38338,-42.11939 -4e-4,-0.004 -8e-4,-0.007 -0.001,-0.0111 m -4.83192,6.92932 c 0.63104,-13.17314 0.62632,-25.05057 1.89406,-35.12684 3.2e-4,-0.003 6.4e-4,-0.005 9.5e-4,-0.008 m 1.64569,11.50486 c -0.31186,-12.9725 0.4912,-26.91917 1.46508,-40.73245 2.4e-4,-0.003 4.9e-4,-0.007 7.3e-4,-0.0104 m -3.40719,8.00853 c -0.21975,-10.12078 0.31707,-20.49821 1.21297,-30.45949 3.08324,0.14301 6.19281,0.31655 9.32082,0.53397 0.004,2.5e-4 0.007,5.1e-4 0.011,7.6e-4 m -3.78224,-2.63625 c 7.80964,0.36356 15.70666,0.34994 23.46976,0.34694 -0.16583,5.31499 -0.39063,10.63465 -0.73903,16.07229 -2.2e-4,0.003 -4.4e-4,0.007 -6.6e-4,0.0102 m -2.19771,-5.97277 c 0.0915,13.47933 0.96495,26.21208 2.94915,38.66177 4.9e-4,0.003 9.9e-4,0.006 0.001,0.009 m 0.59441,-12.65709 c -0.26032,13.4217 -0.45023,27.98384 -1.367,43.97431 -2.2e-4,0.004 -4.5e-4,0.008 -6.8e-4,0.012 m -0.26686,-19.60261 c -0.48096,12.51091 0.43191,27.055 1.34801,41.12343 2.3e-4,0.004 4.6e-4,0.007 6.9e-4,0.0106 m -1.71201,-8.09531 c 0.52691,13.03818 0.44792,28.21911 1.36679,44.67772 2.3e-4,0.004 4.6e-4,0.008 6.9e-4,0.0123 m 0.32233,-18.16431 c 0.19505,5.6188 0.20655,11.20374 0.12485,16.89551 -8.12009,0.53892 -16.44981,1.31812 -24.68432,2.81219 -0.003,6.2e-4 -0.007,0.001 -0.0103,0.002 m 11.17806,0.45001 c -5.06006,0.1549 -9.96287,0.18227 -14.77947,0.14642 0.12013,-8.50583 0.49771,-17.20043 0.76601,-25.75183 1.1e-4,-0.003 2.2e-4,-0.007 3.2e-4,-0.0101 m 4.36641,9.82536 c -0.6179,-13.01148 -0.36887,-26.84134 -1.11282,-40.57618 -1.9e-4,-0.003 -3.7e-4,-0.007 -5.6e-4,-0.0103 m -5.22688,11.59366 c -0.1239,-12.80997 -0.72552,-26.967 -2.14834,-40.86929 -3.6e-4,-0.003 -7.1e-4,-0.007 -0.001,-0.0104 m 3.1806,10.51895 c -0.21431,-12.58864 0.54567,-26.4606 1.62125,-39.42415 2.7e-4,-0.003 5.4e-4,-0.006 8.1e-4,-0.01 m 2.81355,12.16301 c -0.51942,-10.74626 -0.55542,-21.73825 -1.13483,-32.96522 2.43968,-0.11407 4.84809,-0.24166 7.21108,-0.38262 0.003,-1.8e-4 0.006,-3.6e-4 0.009,-5.4e-4 m -7.03737,-3.98866 c 8.45508,-0.11777 17.15928,-0.006 25.88813,0.2021 0.0552,4.81567 0.11767,9.6598 0.15114,14.51069 2e-5,0.003 5e-5,0.007 7e-5,0.0103 m -1.79644,-7.11408 c 0.67561,12.69292 -1.25568,26.9544 -3.75051,40.84985 -6.2e-4,0.003 -0.001,0.007 -0.002,0.0104 m 0.29822,-17.11741 c -0.70874,12.55626 0.0271,26.73599 0.13725,40.26401 3e-5,0.003 5e-5,0.007 8e-5,0.0101 m 0.14504,-8.41226 c 0.78076,12.79729 0.97188,27.63174 2.8705,42.88102 4.8e-4,0.004 9.5e-4,0.008 0.001,0.0114 m -0.66549,-10.80522 c 4e-4,13.49951 0.79449,27.55715 2.34375,42.72425 3.9e-4,0.004 7.8e-4,0.008 0.001,0.0114 m -0.89916,-12.59557 c -0.16729,5.05695 -0.38959,9.9662 -0.73278,14.79679 -9.02958,-0.10647 -18.41877,-0.4469 -28.50567,-0.66702 -0.004,-8e-5 -0.008,-1.7e-4 -0.012,-2.6e-4 m 16.80258,2.05961 c -4.22501,-0.0101 -8.40843,-0.0121 -12.56903,-0.0107 -0.001,-9.16667 0.10855,-18.31641 0.12802,-27.49909 10e-6,-0.003 2e-5,-0.007 3e-5,-0.01 m -3.20826,6.46268 c 0.4748,-14.14942 0.28105,-26.9183 0.89808,-40.75111 1.5e-4,-0.003 3.1e-4,-0.007 4.6e-4,-0.0104 m -2.3802,14.43828 c -0.0647,-12.79057 0.68642,-27.1807 2.0313,-41.59197 3.4e-4,-0.004 6.7e-4,-0.007 0.001,-0.0108 m 3.49431,6.63536 c 0.006,-14.14293 -0.65237,-26.94142 -1.99219,-40.8097 -3.4e-4,-0.003 -6.7e-4,-0.007 -0.001,-0.0104 m 2.89788,12.30108 c -0.005,-9.58349 -0.74784,-19.11414 -2.2365,-28.74705 3.24055,-0.0594 6.35863,-0.13564 9.35367,-0.23896 0.003,-8e-5 0.005,-1.7e-4 0.008,-2.6e-4 m -11.48824,115.15802 z m 0,-94.96186 z m 0,30.79844 z m 27.75792,-23.90811 z m -2.56654,110.36107 z"
       id="rect4721"
       inkscape:path-effect="#path-effect3781"
       inkscape:original-d="m 659.44031,550.57898 27.75792,0 0,136.50042 -27.75792,0 z"
       inkscape:connector-curvature="0"
       sodipodi:nodetypes="ccccc" />
    <path
       inkscape:original-d="m 674.16981,391.48053 334.76109,0 -5,330.8338 -334.76109,0 z"
       inkscape:path-effect="#path-effect3772"
       id="path3770"
       d="m 679.25391,395.74056 c 7.45563,-0.60317 13.07012,0.003 19.20834,-0.0202 6.1413,-0.0229 12.88678,-0.45302 18.6711,-1.35 0,0 0,0 0,0 5.78431,-0.89697 13.8535,0.18584 21.53984,0.56953 7.68634,0.3837 12.50288,-0.19293 17.53203,-0.56953 0,0 10e-6,0 10e-6,0 5.02915,-0.37659 13.49427,-0.76099 20.50624,-2.25703 0.004,-7.5e-4 0.007,-0.001 0.0105,-0.002 m 2.93024,-1.9171 c 5.81422,0.12586 12.87208,-0.39172 18.64127,-1.16034 5.77208,-0.76901 14.5276,-0.43587 23.60704,-1.32891 9.07943,-0.89304 12.28708,1.2285 16.87812,3.67031 4.59104,2.44181 14.32959,-1.38888 22.99531,-4.15547 0,0 1e-5,0 1e-5,0 8.66571,-2.76658 11.67571,0.31648 15.04296,0.94922 0.002,3.2e-4 0.003,6.3e-4 0.005,9.5e-4 m 1.41877,4.02769 c 7.02725,-0.17436 12.52895,0.97465 17.58477,2.9323 5.05833,1.95862 14.68115,0.0877 24.0289,0.25312 9.34775,0.16538 13.06566,-0.71711 19.21953,-2.17265 6.15388,-1.45554 13.04147,-0.56124 19.13516,-1.7086 6.09369,-1.14735 13.98752,0.72261 21.94062,2.19375 0.004,7.4e-4 0.008,0.001 0.0119,0.002 m 1.09616,2.31916 c 7.46906,0.70061 12.47536,-0.76352 17.41535,-2.30027 2.80081,-0.87128 6.68851,-0.92565 10.71821,-1.00425 0.149,2.82841 0.381,5.64265 0.2734,8.06664 -0.2483,5.59392 -0.6798,13.15069 -1.7577,19.44928 -1.0779,6.29859 0.4783,15.07725 1.7438,25.25006 0,0 0,10e-6 0,10e-6 1.2655,10.1728 0.1573,11.7234 0.7947,15.14615 3e-4,0.002 6e-4,0.003 9e-4,0.005 m -3.8189,-0.14354 c 0,6.17159 -0.9063,13.29887 -2.3905,19.92517 -1.485,6.62963 0.063,12.84469 0.4993,18.52116 0.4367,5.67647 0.5194,13.89079 1.8705,21.66412 1.351,7.77333 0.1606,13.65194 0.7735,20.94694 0.6129,7.29499 -0.177,12.16413 -0.2179,16.47506 0,0.002 0,0.004 0,0.006 m 1.37,3.61023 c -0.7825,6.44429 -1.6493,12.46842 -4.6464,17.41461 -2.9986,4.94866 0.8522,12.85157 2.8829,18.56334 2.0307,5.71176 -1.2079,13.62311 -3.3397,20.88365 -2.1319,7.26054 0.8785,12.96014 2.9462,18.87975 0,0 0,0 0,0 2.0677,5.91961 -0.6913,14.76408 -1.7788,24.30084 -5e-4,0.005 -0,0.01 -0,0.0143 m -1.2017,-1.31344 c -0.6192,5.77926 0.2773,13.74186 1.1542,21.21248 0,0 0,0 0,0 0.8773,7.47436 -0.9674,14.30599 -2.6015,22.92975 -1.634,8.62375 -0.1747,11.70443 -0.2389,15.12506 0,0 0,0 0,0 -0.01,0.37713 -0.01,0.85366 -0.01,1.41653 -5.81632,-1.38858 -11.29294,2.8462 -16.3458,5.85079 0,0 0,0 0,0 -5.67899,3.37689 -12.87967,-0.0562 -18.65,-0.16875 0,0 0,0 0,0 -0.003,-6e-5 -0.006,-1.2e-4 -0.009,-1.7e-4 m 1.05447,-3.7978 c -5.91252,-0.7298 -12.97933,-0.37222 -18.93644,-1.11688 -5.9601,-0.74503 -13.78847,0.43348 -21.35,1.28672 -7.56154,0.85325 -13.0987,-0.10385 -19.30391,-0.29531 -6.2052,-0.19146 -13.08513,-0.14238 -19.24062,-0.40078 -6.1555,-0.2584 -13.12205,0.30579 -19.3461,0.90703 -0.003,3e-4 -0.006,6e-4 -0.009,9e-4 m -7.3624,-0.94958 c -6.66969,0.35651 -12.67343,-1.19143 -18.02827,-3.58648 -5.35752,-2.39625 -14.11071,-0.32224 -22.32031,-0.94922 -8.20961,-0.62697 -12.9855,0.60364 -18.96641,1.81407 -5.9809,1.21043 -12.99112,0.7252 -18.9664,2.15156 0,0 -10e-6,0 -10e-6,0 -5.97528,1.42636 -12.74762,0.20869 -18.24921,0.61172 -0.003,2e-4 -0.005,4e-4 -0.008,6e-4 m 3.16128,-0.12715 c -7.35828,0.007 -13.9203,-0.3943 -21.78193,-1.18126 -7.86556,-0.78736 -14.18334,0.72196 -22.53125,2.15156 -8.34791,1.42959 -13.12528,-1.37306 -19.36719,-4.11328 -6.2419,-2.74022 -13.27307,0.21044 -19.83125,0.6539 -5.56335,0.37619 -10.43218,0.15062 -14.42223,0.13271 0.31308,-1.01436 0.65425,-2.02209 1.02458,-3.01854 0.001,-0.003 0.002,-0.007 0.004,-0.01 m -6.60614,2.59486 c -0.0951,-6.34694 0.77128,-13.31428 1.98987,-19.946 1.21921,-6.63504 -0.18586,-15.10502 -0.83683,-25.29225 -0.65096,-10.18722 0.24249,-13.24019 0.44989,-19.7024 0.20741,-6.46221 1.41607,-12.64444 3.93036,-17.93053 2.51429,-5.28609 -1.36508,-13.75242 -4.42277,-21.24225 -0.002,-0.004 -0.003,-0.007 -0.005,-0.0112 m 4.07559,3.22972 c -0.0548,-5.89943 -0.94562,-14.68285 -3.13596,-24.05995 -2.19145,-9.3818 1.05079,-12.35377 2.83348,-17.0446 1.78269,-4.69082 -0.43857,-12.94178 -1.59621,-18.83756 -1.15764,-5.89577 1.35673,-13.91758 3.7827,-21.76959 2.42598,-7.852 -1.21657,-13.53592 -3.93761,-20.58834 -0.001,-0.004 -0.003,-0.007 -0.004,-0.0106 m 5.10857,6.87709 c -0.12373,-6.69763 0.21482,-13.31708 0.34461,-19.98766 0.12985,-6.67392 -0.17862,-14.02129 -0.81574,-22.08599 0,0 0,-1e-5 0,-1e-5 -0.63711,-8.0647 -0.0746,-13.38989 -0.54152,-20.14537 -0.46688,-6.75549 0.51706,-13.60814 1.27255,-20.82037 0,-10e-6 0,-10e-6 0,-10e-6 0.75549,-7.21223 0.34612,-13.21797 0.72411,-19.6813 1.8e-4,-0.003 3.7e-4,-0.006 5.6e-4,-0.01 m 0.69626,1.41387 c 0.48605,-6.0667 -0.19284,-13.62171 -0.87975,-20.87455 -0.26932,-2.84371 -0.26097,-5.47175 -0.11722,-7.98915 4.21588,0.14722 8.75777,0.56085 13.09401,0.8484 7.13066,0.47285 12.62135,-0.29897 17.84844,-0.88594 0,0 0,0 0,0 5.22709,-0.58697 14.34239,-8.4e-4 23.01641,0.0211 8.67402,0.0219 13.34029,-0.57101 20.02109,-1.7086 0.003,-5.7e-4 0.007,-0.001 0.01,-0.002 m -71.07564,-1.87634 c 7.47613,-0.46389 12.54019,-0.99326 17.64737,-2.99461 5.10974,-2.00236 13.44935,4.9e-4 20.35859,0.0211 0,0 0,0 0,0 6.90925,0.0206 13.06636,0.0997 19.17735,0.29531 6.11099,0.19561 13.79985,1.09399 21.39219,3.26953 7.59233,2.17554 13.60122,-0.9071 20.78046,-2.7 0.004,-8.9e-4 0.007,-0.002 0.0108,-0.003 m -2.19555,6.94273 c 5.97546,0.13263 12.79335,-0.63147 18.38791,-1.89864 5.59735,-1.2678 14.08982,0.1826 22.27812,0.52734 0,0 0,0 0,0 8.1883,0.34475 13.45343,-0.31795 20.3586,-0.94922 6.90516,-0.63126 12.85724,-0.30086 18.56562,-0.88593 0,0 10e-6,0 10e-6,0 5.70837,-0.58507 13.06579,0.3131 19.21952,0.92812 0.003,3.1e-4 0.006,6.2e-4 0.009,9.2e-4 m -1.0968,-2.5545 c 6.20846,-0.82707 14.34011,0.55031 23.04928,1.66764 8.71353,1.1179 13.60095,-0.55181 20.80157,-1.64531 7.20061,-1.0935 11.72409,0.91772 15.16953,2.76328 3.44544,1.84557 13.48007,-0.0192 20.42187,-0.0633 6.9418,-0.0441 14.55544,-0.52052 23.69141,-1.56094 0.005,-5.2e-4 0.009,-0.001 0.0137,-0.002 m -3.69463,2.21512 c 6.97975,-0.8489 14.13291,-0.24499 22.39421,-0.737 5.87842,-0.3501 10.10437,-0.52571 14.40227,-1.0584 -0.2091,1.70877 -0.4064,3.35866 -0.4764,4.91409 -0.2423,5.38594 -0.015,12.95888 0.2673,18.90084 0.2821,5.94197 0.3523,13.46196 1.3853,20.37741 0,0 0,0 0,0 1.033,6.91544 -1.4438,12.75447 -4.0147,18.26803 -0,0.003 -0,0.006 -0,0.008 m 3.9049,2.34369 c -0.8928,7.03469 0.2423,13.72106 1.0491,21.1895 0.8071,7.47218 -1.026,12.27087 -2.7702,16.81256 -1.7443,4.5417 1.1356,14.1139 3.7266,22.36022 2.5911,8.24632 -0.3084,13.57087 -0.6186,20.736 -0.3102,7.16512 -0.6268,13.405 -1.5889,20.20865 -5e-4,0.003 -10e-4,0.007 -0,0.0102 m -5.7796,4.49233 c -0.942,6.37485 0.1574,13.16376 0.7538,19.4819 0.5968,6.32131 0.5205,12.8082 1.8704,18.43678 1.35,5.62859 -1.7447,12.83428 -4.9428,18.50006 -3.19809,5.66578 -0.2296,13.37632 -0.3866,20.14538 -0.157,6.76905 1.0794,13.56567 3.5579,20.69381 0,0.004 0,0.007 0,0.0107 m -0.1316,-4.93722 c -0.9274,6.26955 0.7304,13.07044 2.4835,19.20784 0,0 0,0 0,0 1.7539,6.14046 -0.6444,14.76098 -1.6312,24.30084 -0.9867,9.53985 0.1505,12.78597 0.7525,18.3524 0,0 0,0 0,0 0.1534,1.41824 0.2011,2.97796 0.1783,4.62418 -4.9599,-0.15255 -10.52353,0.43487 -15.81351,0.38656 0,0 0,0 0,0 -7.0986,-0.0648 -14.28367,-0.11876 -22.82656,-0.35859 0,0 0,0 0,0 -0.004,-1.2e-4 -0.009,-2.4e-4 -0.0128,-3.6e-4 m 1.64766,3.83911 c -6.97152,-0.20299 -12.90432,0.40403 -18.70282,1.22375 -5.8014,0.82012 -13.1084,-1.02748 -19.30391,-3.07969 -6.1955,-2.05221 -13.37671,0.22915 -20.14765,0.675 -6.77094,0.44585 -13.60755,-0.0165 -20.80157,-0.0422 -7.19401,-0.0257 -13.69776,0.13704 -21.09687,0.40078 -0.004,1.3e-4 -0.007,2.7e-4 -0.0111,4e-4 m 1.45537,-2.31985 c -7.46199,0.57502 -12.41548,-0.1056 -17.24662,-0.33836 -4.83354,-0.23287 -13.34176,0.33771 -20.02108,1.0125 -10e-6,0 -10e-6,0 -10e-6,0 -6.67932,0.67479 -14.25337,-0.67106 -22.78437,-2.00391 -8.531,-1.33284 -13.82496,0.0902 -21.47657,0.29532 -7.6516,0.2051 -12.18928,1.0139 -16.58281,3.0164 -0.002,10e-4 -0.004,0.002 -0.007,0.003 m -4.41139,0.0599 c -6.25678,-0.2323 -13.5647,-0.84417 -20.72889,-2.50981 -7.16778,-1.66648 -14.14847,0.82694 -22.46797,2.46797 0,0 0,0 0,0 -8.3195,1.64102 -12.42673,-0.064 -17.25782,-0.21094 0,0 0,0 0,0 -4.83109,-0.14695 -13.62752,-1.07515 -20.88593,-3.24844 -7.20644,-2.15772 -13.25369,0.52912 -19.87768,1.68385 6.8e-4,-0.0394 0.001,-0.0789 0.002,-0.11845 5e-5,-0.003 9e-5,-0.006 1.3e-4,-0.008 m -0.86426,-0.403 c 0.47344,-6.99966 1.22681,-13.75594 3.4023,-21.27393 2.17658,-7.52175 -0.89278,-13.59394 -2.9673,-20.79928 -2.07451,-7.20534 0.95475,-12.63178 2.55927,-17.88834 1.60451,-5.25656 -0.57997,-13.49894 -2.03918,-20.48287 -1.45921,-6.98393 1.22355,-13.34313 3.38192,-20.01881 0.001,-0.003 0.002,-0.007 0.003,-0.01 m 1.2196,1.20217 c -0.40418,-6.7821 0.30899,-13.62213 0.61925,-20.89457 0.31041,-7.27607 -0.84132,-13.07418 -2.81964,-19.23833 -1e-5,0 -1e-5,0 -1e-5,-10e-6 -1.97832,-6.16415 0.5032,-12.30088 1.20927,-16.89693 0.70606,-4.59605 0.60655,-14.06173 1.50457,-22.21256 0,0 0,-1e-5 0,-1e-5 0.89802,-8.15083 -0.69858,-13.3124 -2.39777,-19.93443 -8.4e-4,-0.003 -0.002,-0.007 -0.003,-0.01 m 1.8578,-1.51762 c -0.66366,-5.86891 0.34112,-12.20084 0.7251,-16.59282 0.38418,-4.39418 -0.0864,-12.75539 -0.54152,-18.28912 -0.45507,-5.53373 0.97915,-13.61595 2.64364,-20.86256 1.6645,-7.24662 0.64741,-14.78854 1.63114,-24.34303 0.98373,-9.55449 -0.38316,-12.89904 -1.42745,-18.711 -5.3e-4,-0.003 -0.001,-0.006 -0.002,-0.009 m -0.56844,-1.39471 c -0.31359,-7.49023 -0.2811,-13.37436 -1.15276,-20.13413 -0.46781,-3.62787 -0.20992,-6.74526 0.32655,-9.39932 3.50747,0.79651 7.223,1.93905 10.85798,3.39718 7.8411,3.14536 12.11764,-0.76099 16.37188,-2.29922 4.25424,-1.53822 13.45961,-0.15806 20.35859,-0.46406 6.89898,-0.306 12.95534,-0.37547 18.88203,-1.11797 0.003,-3.7e-4 0.006,-7.4e-4 0.009,-0.001 m -63.935,4.28429 c 7.25969,0.76363 13.52236,-0.85862 20.60082,-2.57459 7.082,-1.71682 13.49407,0.12608 20.46406,0.40078 0,0 0,0 0,0 6.97,0.27471 13.92797,0.66235 21.77188,1.96172 7.84391,1.29938 13.29993,-1.02276 19.87344,-3.07968 0,0 0,0 0,-1e-5 6.5735,-2.05691 13.47262,0.12615 20.44296,0.40079 0.003,1.3e-4 0.007,2.7e-4 0.0105,4.1e-4 m -5.71712,-3.691 c 6.48925,0.54877 14.59255,1.6954 23.78713,5.06168 9.19919,3.36797 12.78195,-1.63265 18.3336,-4.89375 5.55165,-3.26109 13.03408,0.51827 19.11406,1.53984 6.07998,1.02158 12.89198,0.55871 18.69219,1.68751 0,0 0,0 0,0 5.80021,1.12879 14.53673,0.4623 23.62812,1.41328 0.005,4.7e-4 0.009,9.5e-4 0.0136,0.001 m -2.7244,1.32685 c 6.88121,-0.421 13.78395,-0.18124 21.33967,-0.5478 7.55949,-0.36675 12.06138,0.56685 16.16094,1.68749 4.09956,1.12065 14.64002,-0.005 23.94453,-0.0211 9.30451,-0.0157 12.60264,-0.87926 17.80625,-2.63672 5.2036,-1.75746 12.80676,0.36513 18.43906,1.07578 0.003,3.6e-4 0.006,7.1e-4 0.008,0.001 m 4.66287,-1.3499 c 6.39814,0.77804 14.65802,-0.48666 23.99822,-1.43554 6.2081,-0.63069 9.6152,-0.40795 12.576,-0.17289 -0.7757,2.35631 -1.6653,4.71577 -2.3651,6.96988 -2.0848,6.71527 0.2285,13.31515 0.9845,19.95553 0.756,6.64038 -1.0518,13.46407 -2.8546,20.41959 0,0 0,0 0,10e-6 -1.8027,6.95551 0.1182,12.09395 0.6681,16.28521 3e-4,0.002 6e-4,0.004 9e-4,0.006 m 2.1715,2.9352 c -0.1848,6.30559 -0.1768,14.04463 -0.2176,22.11872 -0.041,8.07814 -1.4275,12.64409 -3.9725,17.93053 -2.545,5.28645 0.7334,13.4389 2.5243,20.29303 1.791,6.85414 -0.8637,13.75214 -2.2639,21.28444 -1.4003,7.53229 -0.089,14.14209 0.035,22.42349 10e-5,0.004 2e-4,0.008 2e-4,0.0124 m 3.015,-1.29024 c -0.8382,5.92624 -1.2767,13.42928 -3.5072,20.28413 -2.2318,6.85829 -0.01,12.32649 0.2883,17.00241 0.2956,4.67592 0.6997,14.15348 2.3767,22.46568 1.6771,8.31221 -1.2481,12.48828 -3.4241,17.48756 -2.176,4.99929 1.1432,13.65328 3.7267,20.94694 0,0.004 0,0.007 0,0.0109 m -3.0426,-3.94506 c -0.8027,6.93604 -0.7756,13.25717 -2.0307,19.79746 -1.2558,6.54356 -0.4942,14.57086 -1.1671,23.68912 -0.673,9.11827 1.0594,11.72039 3.4946,15.18834 0.5063,0.72102 0.7908,1.73213 0.9218,2.94694 -4.702,-0.65183 -11.6325,1.65309 -17.01625,2.13891 -6.79688,0.61334 -14.58609,0.4152 -23.73359,1.24453 0,0 0,0 0,0 -0.005,4.2e-4 -0.009,8.3e-4 -0.0137,0.001 m -0.24888,3.30937 c -6.31268,-0.73511 -13.36069,1.32162 -20.0749,3.94564 -6.71757,2.62533 -13.5726,-1.71436 -20.69609,-5.16796 0,-10e-6 0,-10e-6 -10e-6,-10e-6 -7.12348,-3.45361 -12.84093,0.13521 -18.50234,0.40078 -5.66141,0.26557 -12.78454,1.31583 -18.35469,3.94453 -5.57014,2.62871 -13.49301,-0.38798 -20.48515,-1.16015 -0.003,-3.9e-4 -0.007,-7.7e-4 -0.0105,-0.001 m 0.37885,-5.22985 c -7.54707,0.1621 -13.33217,0.78636 -20.00977,2.36226 -6.68094,1.57669 -13.63026,0.39277 -20.88594,1.20234 -7.25567,0.80958 -12.36948,-0.49872 -17.08906,-1.49765 -4.71957,-0.99893 -14.72271,0.32006 -24.15547,0.97031 0,0 0,0 0,0 -9.43276,0.65025 -13.48823,-0.22226 -20.44297,-0.675 -0.003,-2.3e-4 -0.007,-4.5e-4 -0.0104,-6.8e-4 m 2.5521,0.61172 c -7.11374,-0.44901 -14.8571,-0.14142 -24.58776,-0.4212 -9.73553,-0.27991 -12.76668,1.09006 -18.29141,3.26953 -5.52472,2.17948 -13.23693,-0.90745 -19.72578,-2.74218 0,0 0,0 0,-10e-6 -6.48885,-1.83473 -12.52572,1.34445 -17.59531,4.02891 -4.79565,2.53941 -13.04027,-0.56289 -20.68025,-2.4883 -0.0707,-0.47019 -0.13949,-0.93653 -0.20552,-1.39776 -6.1e-4,-0.004 -0.001,-0.009 -0.002,-0.0128 m 1.18428,-0.92571 c 0.7952,-6.92152 0.35455,-12.7686 0.7651,-18.34202 0.41075,-5.5762 0.73431,-12.60182 1.88426,-17.82506 1.14995,-5.22323 -0.39673,-13.54267 -1.49074,-20.63052 -1.094,-7.08785 1.60887,-14.64321 4.49989,-23.92116 2.89103,-9.27794 0.30513,-11.73051 0.59755,-15.20943 1.4e-4,-0.002 2.9e-4,-0.003 4.3e-4,-0.005 m -4.74607,-7.47124 c 0.30351,-6.18576 -0.37733,-13.43839 -1.44901,-20.30484 -1.0722,-6.86989 1.61871,-12.69169 4.56317,-18.07819 2.94447,-5.3865 -0.17447,-14.337 -0.83683,-23.01412 -0.66235,-8.67712 0.6948,-13.41211 1.7788,-20.22975 0,0 0,0 0,0 1.08399,-6.81764 0.18996,-12.74864 0.28114,-18.24693 4e-5,-0.003 9e-5,-0.005 1.3e-4,-0.008 m 0.0427,7.36023 c 0.41655,-6.48725 0.44478,-13.34842 1.01879,-20.05126 0.5743,-6.7062 0.17963,-13.9173 0.26005,-21.7485 0.0804,-7.83119 -0.81052,-13.82554 -2.75636,-21.47428 -1.94584,-7.64873 -0.14867,-12.93771 -0.73137,-18.83756 -0.58269,-5.89985 0.9627,-13.87793 2.60145,-21.64303 8.2e-4,-0.004 0.002,-0.008 0.002,-0.0116 m 0.50454,1.66788 c 0.49372,-6.77498 0.46951,-13.51678 1.10305,-20.57817 0.3103,-3.45859 0.20137,-6.69184 -0.13878,-9.84075 2.99694,0.11922 5.74249,0.33013 8.44977,0.47287 5.30366,0.27964 12.93086,-0.58373 18.77656,-1.77187 0,0 10e-6,0 10e-6,0 5.8457,-1.18814 13.40449,0.73153 20.21093,2.21484 10e-6,0 10e-6,0 10e-6,0 6.80644,1.48331 14.61407,-0.51363 23.83906,-1.53984 0.005,-5.1e-4 0.009,-0.001 0.0138,-0.002 m -63.73883,-1.70679 c 5.91904,0.17597 12.47678,0.63416 17.41768,1.89817 4.94338,1.26464 14.8338,0.92067 24.49296,2.76328 10e-6,0 10e-6,0 10e-6,0 9.65917,1.84261 12.99014,-0.60061 18.94531,-1.79297 5.95518,-1.19235 12.06947,-0.73125 16.18204,-2.21484 0,0 0,0 0,0 4.11257,-1.48359 14.45038,0.20974 23.33281,0.63281 0.004,2.2e-4 0.009,4.3e-4 0.0133,6.4e-4 m -0.61531,1.22167 c 6.48752,-0.7498 12.84916,0.66265 18.5348,1.96285 5.68848,1.30085 13.2472,-0.88657 19.72578,-2.65781 6.47858,-1.77124 14.2623,-0.36155 22.76328,-1.07578 8.50098,-0.71424 13.58048,0.48382 20.71719,1.47656 0,0 0,0 1e-5,0 7.1367,0.99274 12.35633,-0.40577 17.04686,-1.20235 0.002,-3.9e-4 0.005,-7.9e-4 0.007,-0.001 m 0.10776,2.97489 c 6.21338,-0.35045 12.25436,0.2373 16.78442,0.71771 4.53233,0.48066 14.16303,-1.43929 22.51016,-4.30312 8.34713,-2.86383 13.51488,0.91919 20.56953,2.76328 7.05465,1.84408 12.88425,-0.67198 18.65,-2.025 5.76575,-1.35303 13.06776,0.34509 19.17734,1.03359 0.003,3.5e-4 0.006,6.9e-4 0.009,0.001 m -0.92674,1.53997 c 7.02929,0.77026 14.57429,-1.25629 23.74409,-3.75584 2.9591,-0.8066 5.3065,-1.12662 7.2947,-1.21241 -0.4087,4.33571 -2.4026,9.70481 -3.6433,13.76878 -1.8312,5.99878 0.7886,13.78209 2.6931,21.36881 1.9046,7.58671 -0.2291,13.86098 -0.4077,21.55865 0,0 0,0 0,0 -0.1786,7.69768 -0.7496,12.64633 -1.9475,17.93053 -6e-4,0.003 -0,0.005 -0,0.008 m 0.9077,4.66399 c -0.7467,6.79438 -0.8989,11.87469 -2.4105,15.62111 -1.5123,3.74829 -0.6099,13.47272 -1.5468,20.44068 -0.9368,6.96797 0.8241,13.77837 2.7775,21.34772 1.9534,7.56935 0.065,14.23279 0.4993,22.67662 0.434,8.44383 -1.6646,12.64662 -4.6686,17.95162 -0,0.003 -0,0.005 -0,0.008 m -0.2288,-0.79997 c -0.8153,6.36034 0.5468,12.68646 1.9139,18.08973 1.3677,5.40598 -0.3919,13.93945 -0.8929,21.83287 -0.501,7.89342 -0.6996,13.90859 -1.821,21.72741 -1.1213,7.81882 1.0402,12.26735 3.4314,16.79146 2.3912,4.52412 -0.6379,14.08549 -1.6101,22.27584 -4e-4,0.004 -9e-4,0.008 -0,0.0123 m 0.2538,-0.76139 c -0.5358,6.84435 -0.3803,12.73977 -0.8499,18.21557 -0.4698,5.47854 -0.1227,13.26516 -0.091,19.80787 0.027,5.66674 -1.2176,12.31052 -3.46901,19.67479 -1.22711,0.24592 -2.47828,0.50906 -3.75253,0.78846 0,0 0,0 0,0 -9.51727,2.08688 -11.93531,-0.52087 -15.82343,-1.53984 -3.88813,-1.01897 -13.84169,0.33012 -21.53984,1.0125 0,0 -10e-6,0 -10e-6,0 -0.004,3.4e-4 -0.008,6.8e-4 -0.0115,0.001 m -1.53965,-3.10053 c -7.5606,0.84863 -12.83651,-0.0318 -18.53318,-0.10674 -5.69952,-0.075 -13.44351,-0.26473 -20.3164,-0.80156 0,0 -1e-5,0 -1e-5,0 -6.87289,-0.53684 -12.88966,0.47376 -18.69219,1.41328 -5.80252,0.93951 -13.04146,0.10371 -19.13515,0.3375 0,0 0,0 -10e-6,0 -6.09368,0.23379 -13.33853,0.96293 -20.02109,2.91093 -0.003,9.8e-4 -0.007,0.002 -0.01,0.003 m -0.71594,-3.44218 c -5.84967,-0.65179 -13.24828,0.48438 -19.7381,1.45645 -6.49306,0.97256 -12.79108,0.29285 -18.35468,0.88594 0,0 0,0 -1e-5,0 -5.5636,0.59309 -13.03422,-1.03205 -19.09296,-3.12188 -6.05875,-2.08982 -14.57435,-0.0249 -23.7125,-0.0633 -9.13816,-0.0384 -12.64252,0.70643 -17.95391,2.13047 -0.003,7.1e-4 -0.005,0.001 -0.008,0.002 m 0.8211,-4.93903 c -6.34726,-0.63792 -12.86579,0.33175 -18.61938,0.99236 -5.75647,0.66094 -13.21387,0.0882 -19.6414,0.27422 0,0 -10e-6,0 -10e-6,0 -6.42753,0.18598 -13.74782,0.81605 -21.22343,2.44687 -10e-6,10e-6 -10e-6,10e-6 -10e-6,10e-6 -7.47561,1.63082 -13.25043,-0.003 -19.72578,-0.0211 -3.91219,-0.011 -7.93102,0.1805 -11.92466,0.56374 0.0622,-2.3875 0.13531,-4.69269 0.25626,-6.91855 1.5e-4,-0.003 3.1e-4,-0.006 4.6e-4,-0.008 m -1.09702,-3.98838 c 0.20583,-6.733 0.13296,-13.6158 0.11208,-20.87355 -0.0209,-7.26138 0.28853,-12.62693 0.57645,-17.90943 0,0 0,0 0,-10e-6 0.28791,-5.2825 0.8137,-13.7861 2.15848,-21.36881 1.34478,-7.58271 -0.60866,-12.95634 -2.14464,-18.85865 -1.53599,-5.90231 1.08756,-14.00976 2.98113,-22.04381 9.5e-4,-0.004 0.002,-0.008 0.003,-0.0121 m -3.41946,7.36286 c 0.37422,-7.26651 0.1912,-14.09374 0.28057,-22.30712 0.0894,-8.21749 -1.02377,-11.91825 -3.34698,-15.77897 -2.32321,-3.86071 0.39506,-13.59941 0.89285,-20.77818 0.4978,-7.17877 -0.0811,-13.41774 -0.52042,-20.27194 0,0 0,0 0,0 -0.43933,-6.8542 1.27418,-13.01027 3.52958,-19.04849 0.001,-0.003 0.002,-0.006 0.003,-0.009 m 1.89425,-6.70963 c -0.53744,-7.24483 0.31868,-13.4428 0.64054,-20.34544 0.32201,-6.90609 -1.4311,-13.01568 -4.57043,-19.0274 -3.13933,-6.01172 0.82045,-13.64829 2.15848,-20.96803 1.33804,-7.31974 0.80569,-12.47786 2.13739,-17.44537 1.33171,-4.96751 -0.51725,-14.57852 -1.87042,-23.73131 -6.8e-4,-0.005 -0.001,-0.009 -0.002,-0.0137 m 3.06207,3.52546 c 0.96359,-7.28012 0.41229,-13.66218 0.9336,-20.9782 0.0771,-1.08145 0.14332,-2.11852 0.20284,-3.11754 5.93917,-0.0817 11.65386,1.10267 17.92047,2.33561 7.35299,1.44668 13.78088,0.74032 21.35,2.23593 7.56913,1.49562 12.54752,-1.54673 17.61641,-4.64062 5.06889,-3.09389 13.65754,-0.1613 20.94922,-0.48516 0.004,-1.6e-4 0.007,-3.2e-4 0.0109,-4.8e-4 m -73.8387,1.83548 c 7.19703,-0.10587 13.98978,-0.66968 21.97201,-2.02484 7.98622,-1.35584 12.15285,0.79467 16.43515,2.38359 0,0 0,0 0,0 4.2823,1.58892 14.59988,-0.95976 23.79688,-2.88984 9.197,-1.93008 11.77232,0.54626 15.31719,1.62422 0,0 0,0 0,0 3.54486,1.07796 14.04278,-0.14899 22.13046,-0.42188 0.004,-1.3e-4 0.008,-2.7e-4 0.0121,-4.1e-4 m 1.20089,-0.65465 c 7.11189,-0.77086 13.0033,0.65268 19.04011,1.94178 6.03983,1.28974 14.38774,0.0989 23.18515,0.31641 0,0 0,0 10e-6,0 8.79741,0.21754 12.03923,-0.71164 16.11875,-2.13047 4.07951,-1.41884 13.51122,0.6326 20.54843,1.91953 10e-6,0 10e-6,0 10e-6,0 7.03721,1.28693 12.89493,-0.73223 18.69218,-2.17266 0.003,-7.2e-4 0.006,-0.001 0.009,-0.002 m 0.25326,1.43732 c 5.88373,0.52511 12.24499,-0.91991 16.74273,-2.74298 4.49999,-1.82398 13.85407,0.30797 21.56094,0.90703 7.70687,0.59907 13.44379,-0.16488 20.3164,-0.50625 6.87262,-0.34136 13.58625,0.0736 20.75938,0.21094 7.17313,0.13739 12.97614,0.1293 18.94531,0.37969 0.003,1.2e-4 0.006,2.5e-4 0.009,3.7e-4 m 1.3297,-2.42598 c 6.49602,0.11396 14.34368,1.74489 23.04889,5.20998 4.306,1.71403 7.6612,1.65457 10.8066,1.07536 -0.205,2.7779 -0.6294,5.01229 -0.4806,8.0439 0.2941,5.99618 -0.6233,12.85214 -1.589,18.54225 -0.9657,5.69011 -1.0277,13.90155 -2.7702,21.70631 -1.7425,7.80476 0.719,11.99616 2.44,15.98991 8e-4,0.002 0,0.004 0,0.006 m -3.0392,1.67126 c 0.5377,7.2308 -0.047,13.44347 0.1821,20.36656 0.2291,6.92655 -0.6709,13.14984 -1.7366,19.47037 -1.0657,6.32053 0.3499,13.66172 1.3431,21.01021 0.9931,7.3485 -0.4306,13.45817 -0.9773,20.37741 -0.5466,6.91924 0.7245,13.60272 2.4822,20.82037 8e-4,0.004 0,0.007 0,0.0108 m -0.9528,2.02534 c -0.6482,7.44156 -0.5714,13.79617 -1.4193,21.39983 -0.8482,7.60746 -0.5161,13.07278 -1.2303,19.21725 -0.7142,6.14446 -0.563,12.51583 -1.378,17.52974 -0.815,5.01392 1.2353,14.28068 4.022,22.82428 2.7867,8.5436 -0.9083,12.77676 -2.4116,18.31022 -8e-4,0.003 -0,0.006 -0,0.008 m 0.4672,-1.72901 c 0.6148,5.98282 -0.1903,13.90703 -0.2609,21.71842 -0.071,7.81531 0.9087,13.45219 3.0095,20.37741 2.1008,6.92521 -0.341,12.6206 -0.7452,17.88834 -0.015,0.20011 -0.031,0.40468 -0.048,0.61347 -6.74091,-1.12508 -13.94867,0.46145 -22.452,1.03214 0,0 0,0 0,0 -8.83911,0.59322 -12.69131,-0.11426 -18.08046,-0.31641 -10e-6,0 -10e-6,0 -10e-6,0 -0.003,-1e-4 -0.005,-2e-4 -0.008,-3e-4 m 2.06394,0.97144 c -7.54832,0.54721 -14.59405,0.14254 -23.78554,0.42105 -9.19609,0.27865 -12.37125,-0.27176 -17.08907,-0.82266 -4.71781,-0.55089 -13.92585,0.1073 -21.77187,0.31641 -7.84602,0.20911 -12.50885,-0.63401 -17.55313,-1.89844 -5.04427,-1.26443 -13.44147,-0.0457 -20.3375,-0.14765 -0.003,-5e-5 -0.007,-1.1e-4 -0.0103,-1.6e-4 m -1.15939,2.29906 c -6.38226,-0.2112 -12.79957,-0.79317 -18.40839,-2.36219 -5.61163,-1.56979 -13.64735,1.29249 -20.92812,3.86016 0,0 0,0 -10e-6,0 -7.28077,2.56767 -12.80458,0.15954 -18.43906,0.46406 -5.63448,0.30453 -14.61822,-0.33525 -23.83906,-0.9914 -9.22084,-0.65616 -13.26014,0.2804 -19.78906,0.84375 -0.003,2.8e-4 -0.007,5.6e-4 -0.01,8.4e-4 m 1.83555,0.50552 c -6.26346,0.0755 -13.23768,-1.65307 -19.73747,-4.97824 -6.50305,-3.32683 -13.72497,1.5525 -21.16015,4.64063 -10e-6,0 -10e-6,0 -10e-6,0 -7.43518,3.08812 -13.345,-1.0485 -20.02109,-3.14297 0,0 -1e-5,0 -1e-5,0 -6.67609,-2.09447 -13.02473,-0.0217 -19.09296,-0.0633 -4.70921,-0.0323 -10.4668,0.62375 -16.43017,1.91257 -0.20535,-1.12094 -0.42784,-2.18918 -0.64721,-3.20606 -4.9e-4,-0.002 -9.8e-4,-0.005 -0.001,-0.007 m 2.53167,-5.99247 c -0.6993,-5.77189 -0.23477,-13.37872 -1.00453,-20.15781 -0.77015,-6.78248 0.73199,-12.01288 1.88426,-16.03209 0,0 0,0 0,0 1.15227,-4.0192 0.0458,-14.81301 -0.16183,-24.4485 -0.20765,-9.63548 0.33684,-13.31936 0.70301,-19.93443 0.36618,-6.61507 0.0879,-13.02623 -0.0353,-19.09069 -7e-5,-0.003 -1.3e-4,-0.006 -1.9e-4,-0.009 m -1.68773,5.5458 c -0.27945,-7.29465 -1.20576,-14.17266 -3.89501,-22.53911 -2.69059,-8.37063 0.11754,-13.65806 0.0491,-20.98912 -0.0684,-7.33106 0.84211,-12.08834 2.24286,-16.26412 1.40075,-4.17579 -0.16428,-12.93947 -0.81574,-18.83757 -0.65146,-5.89809 0.16429,-14.08584 0.17567,-22.27584 0,-0.004 1e-5,-0.008 2e-5,-0.0123 m 4.72601,-1.17775 c 0.68953,-5.85604 -0.12144,-13.36282 -0.69021,-20.0944 -0.56905,-6.73495 -0.22924,-12.75975 -1.00558,-18.28912 -0.77633,-5.52938 -0.33569,-13.62656 -1.30089,-20.86256 -0.96519,-7.236 0.53097,-13.83089 1.27255,-21.51647 0.74157,-7.68558 1.40559,-13.0635 3.93035,-19.19615 0.001,-0.003 0.003,-0.006 0.004,-0.009 m -2.26101,-0.99095 c -0.12496,-5.8277 -1.02321,-13.07753 -3.36789,-19.2507 -0.74978,-1.97406 -0.87205,-3.98919 -0.60695,-5.9975 5.03165,0.26024 11.81865,0.55141 18.04472,1.33549 9.15087,1.15242 12.34143,-0.20299 17.04687,-0.63281 0,0 0,0 0,0 4.70544,-0.42982 13.77089,-0.0391 21.30781,-0.10547 7.53693,-0.0664 13.01756,0.40549 19.02969,1.20234 0.003,4e-4 0.006,8e-4 0.009,0.001 m -70.5387,-3.29065 c 7.47752,0.77767 13.92645,-0.84725 21.80284,-2.55351 7.88032,-1.70712 12.72316,0.93431 18.16484,2.78437 5.44168,1.85006 14.08891,-0.96996 22.27812,-2.91094 8.18922,-1.94097 12.68857,1.10194 18.05938,3.31172 0,0 0,0 0,0 5.37081,2.20978 14.27728,-0.40254 22.82656,-1.20234 0.004,-4e-4 0.009,-8e-4 0.0128,-0.001 m -0.42367,1.2469 c 7.34318,0.77767 12.84508,-0.85301 18.57569,-2.55351 5.73348,-1.70136 14.42663,0.87525 23.26954,2.61562 8.84291,1.74038 12.20488,0.27267 16.625,0.82266 4.42011,0.54998 14.47886,-0.74686 23.41718,-2.25703 1e-5,0 1e-5,0 1e-5,0 8.93832,-1.51017 13.58955,0.68407 20.78046,2.06718 0.004,7e-4 0.007,0.001 0.0108,0.002 m -6.41462,-0.97257 c 5.77852,-0.11863 12.23438,0.59887 16.70071,1.81424 4.46856,1.21599 13.37432,-1.07275 20.14765,-3.20625 6.77333,-2.13349 13.41701,1.13056 20.25313,3.41719 6.83612,2.28663 13.31983,-0.26325 19.9789,-0.80156 6.65908,-0.53831 13.9639,-0.28406 21.87735,-0.84375 0.004,-2.8e-4 0.008,-5.6e-4 0.0119,-8.4e-4 m 5.06103,-1.68747 c 6.92988,-0.53974 13.35387,0.31899 20.09507,0.92893 4.2567,0.38515 8.2863,0.69332 12.1471,1.38424 -0.2397,2.86268 -0.5371,5.85611 -0.8806,9.07206 -0.931,8.71832 0.073,11.83992 0.5416,15.50474 0.4685,3.66483 -0.2922,14.39635 -0.5765,23.20397 -0.2843,8.80762 -1.2458,12.55282 -3.4241,17.6774 -0,0.003 -0,0.005 -0,0.008 m 2.8292,-0.54511 c -0.4446,7.33606 -0.4277,13.49951 -0.9555,20.49295 -0.528,6.99694 0,13.50021 0.3095,20.52506 0.3067,7.02485 -0.603,12.36227 -1.5046,17.06569 -0.9016,4.70341 -0.5555,14.1551 -1.3569,22.44459 -0.8014,8.28949 0.6854,13.25313 2.3767,19.74459 8e-4,0.003 0,0.006 0,0.01 m -4.8955,-0.61132 c 0.5173,6.7534 0.5872,12.97323 2.0384,18.93289 1.452,5.96264 -1.1422,14.28989 -3.1499,22.88756 -2.00767,8.59767 -0.1612,12.96218 -0.1546,18.87975 0.01,5.91757 0.7566,13.78849 2.5666,21.3899 1.8099,7.60141 -0.5374,13.63619 -1.3359,20.90475 -4e-4,0.004 -8e-4,0.007 -0,0.0109 m 1.0334,1.51883 c -0.9292,7.3137 -1.1169,12.17757 -3.043,16.56955 -1.92703,4.39418 -0.4487,14.22379 -1.0405,22.69771 -0.59181,8.47392 0.4092,12.60014 1.5118,17.82506 0.1927,0.91283 0.2893,1.92997 0.3092,3.02847 -5.32495,-0.31216 -12.36248,1.19109 -19.08269,2.08949 0,0 0,0 0,0 -8.1428,1.08857 -13.48077,0.44838 -20.42187,1.37109 0,0 0,0 0,0 -0.003,4.6e-4 -0.007,9.2e-4 -0.0104,0.001 m 5.29572,-5.02233 c -6.14401,-0.42706 -13.02127,0.78048 -19.06265,2.34204 -6.04441,1.56235 -14.48492,-0.34776 -23.48047,-1.05468 -8.99556,-0.70692 -13.41581,-0.91364 -20.25313,-2.7211 -6.83731,-1.80745 -11.98214,1.3505 -15.95,4.0711 0,0 0,0 0,0 -3.96786,2.7206 -14.16168,-0.85669 -22.46797,-2.59453 -0.004,-8.7e-4 -0.008,-0.002 -0.0124,-0.003 m 2.74451,-0.54541 c -6.7477,0.28105 -13.52889,0.49811 -20.60159,1.51833 -7.07623,1.02072 -12.70038,0.48951 -18.10156,1.45547 0,0 0,0 0,0 -5.40118,0.96595 -13.51931,0.083 -20.54844,0.23203 -7.02913,0.14899 -14.66371,-1.16564 -23.96562,-3.48047 -9.30191,-2.31483 -12.14414,0.33645 -16.45625,1.03359 -0.002,3.5e-4 -0.004,7e-4 -0.006,0.001 m -4.36867,4.04826 c -5.82862,-0.46394 -13.24008,-1.03936 -19.71704,-3.12118 -6.4802,-2.08287 -12.63309,1.08499 -17.89063,3.24844 -5.25753,2.16344 -14.44342,-1.23905 -23.33281,-3.7125 -8.88938,-2.47346 -13.45223,1.22217 -20.35859,3.64921 -6.30386,2.21532 -12.40281,-0.21215 -18.84047,-1.72622 -0.0249,-0.72623 -0.0529,-1.44412 -0.0845,-2.14882 -1.8e-4,-0.004 -3.6e-4,-0.008 -5.4e-4,-0.0121 m 0.88577,2.63837 c -0.46566,-6.97216 1.95886,-14.31159 5.57637,-22.96147 3.61933,-8.6542 -1.08902,-13.30903 -3.57901,-19.95553 -2.48999,-6.64649 0.18285,-12.52954 0.26004,-17.57193 0.0772,-5.04239 1.51704,-14.31035 4.26786,-22.95084 2.75082,-8.64049 -0.0136,-12.27016 -0.35168,-16.79147 -1.6e-4,-0.002 -3.3e-4,-0.005 -5e-4,-0.007 m 1.20292,-1.41768 c 0.0508,-7.44892 -0.61314,-14.14406 -2.12362,-22.43341 -1.51124,-8.2935 0.2275,-13.12587 0.38661,-19.3649 0.1591,-6.23904 0.72088,-12.58264 1.86317,-17.76178 1.14228,-5.17915 0.82016,-14.26339 2.13738,-22.80319 0,0 0,0 0,0 1.31722,-8.5398 -0.48455,-12.32023 -1.74386,-16.98131 -6.3e-4,-0.002 -0.001,-0.005 -0.002,-0.007 m -4.09119,0.0387 c -0.59297,-6.9653 0.88958,-14.46404 2.37031,-23.38336 1.48147,-8.92378 0.53548,-12.99452 1.29364,-19.00631 0.75817,-6.01179 -0.67018,-12.95676 -2.33448,-18.85865 -1.66431,-5.9019 0.68587,-14.23681 1.77879,-22.69772 0,0 0,-10e-6 0,-10e-6 1.09292,-8.46091 -0.19669,-11.60816 -0.90011,-14.85083 -3.5e-4,-0.002 -7e-4,-0.003 -0.001,-0.005 m 1.16155,0.354 c 0.22671,-6.30554 -0.0264,-13.98694 -0.39421,-21.99216 -0.16794,-3.65493 0.0671,-6.75565 0.5737,-9.68393 4.17318,0.13539 8.73184,0.51553 13.45383,0.49488 8.68554,-0.038 13.71309,0.51532 21.16015,1.53985 0,0 0,0 0,0 7.44707,1.02452 12.71768,-0.86252 18.14375,-2.57344 5.42607,-1.71091 13.86996,-0.24947 21.60313,-0.75937 0.004,-2.6e-4 0.008,-5.1e-4 0.0116,-7.7e-4 m -71.04993,-0.77949 c 5.8769,0.14029 12.4237,0.0204 17.27009,0.0631 4.8488,0.0427 13.62337,0.801 20.84375,2.38359 7.22037,1.5826 13.90982,-1.50595 21.72968,-4.53515 7.81986,-3.02921 11.88441,0.42271 15.65469,1.26562 0,0 0,0 0,0 3.77029,0.84291 14.37396,0.78321 23.14297,2.3625 0.004,7.9e-4 0.009,0.002 0.0131,0.002 m 0.27211,-2.15412 c 7.35679,-0.12592 12.42691,0.32922 17.31005,0.9705 4.88558,0.6416 13.43092,-1.11705 20.27421,-3.375 10e-6,0 10e-6,0 10e-6,0 6.84329,-2.25794 13.43219,1.40885 20.31641,4.23984 6.88421,2.831 12.88235,-1.33038 18.67109,-4.00781 0,0 0,0 0,0 5.78875,-2.67742 13.7292,0.61861 21.20234,1.85625 0.004,6.2e-4 0.007,0.001 0.0112,0.002 m 3.28943,0.2929 c 6.67014,-0.3726 13.12207,-0.8738 19.39936,-2.59398 6.28044,-1.72104 13.91539,0.17719 21.77188,0.50625 7.85649,0.32907 12.42778,1.44464 17.3,4.32422 4.87222,2.87958 13.77004,-0.78272 21.30781,-2.3414 7.53777,-1.55869 12.76289,-0.67669 18.27031,-2.025 0.003,-6.8e-4 0.006,-0.001 0.008,-0.002 m -0.0824,8.08167 c 6.824,0.49663 12.67758,-1.33957 18.07023,-4.00856 3.57375,-1.76877 8.5906,-0.76693 13.935,0.67402 0.4393,2.98503 0.9636,6.08414 1.4254,8.98859 1.3675,8.60267 -0.5345,12.8911 -1.3148,18.6899 0,1e-5 0,1e-5 0,1e-5 -0.7803,5.79881 -0.2125,14.23877 -0.3233,22.71881 -0.1108,8.48004 0.1226,11.96212 0.647,15.90553 2e-4,0.002 5e-4,0.004 8e-4,0.006 m 0.021,0.55147 c 0.5162,5.96773 -0.4556,12.83528 -1.0835,18.53329 -0.6283,5.70087 -1.0192,13.16735 -2.7702,19.49147 -1.751,6.32411 0.1247,13.54155 0.6891,20.63053 0.5645,7.08897 0.5528,14.39331 1.9759,23.16178 1.4232,8.76846 -0.9081,12.82949 -2.4116,18.47896 -7e-4,0.003 -0,0.006 -0,0.008 m 5.74,-1.34772 c 0.1588,7.16739 -0.2323,13.1552 -0.3869,19.5018 -0.1546,6.34978 0.592,13.71164 2.0603,21.13678 1.4683,7.42514 -0.2028,13.17867 -0.3022,19.53365 -0.099,6.35499 -1.6712,13.40881 -4.732,20.22975 -3.0607,6.82095 0.6518,13.13894 2.2502,19.40709 8e-4,0.003 0,0.006 0,0.009 m -3.4619,0.27349 c -0.1012,5.78703 -0.7594,14.49166 -1.9685,23.4906 -1.2096,9.00344 -0.9738,13.30523 -2.6225,19.93444 -1.64875,6.6292 0.9527,13.2553 3.1782,19.76568 0,0 0,0 0,0 0.4584,1.34086 0.7359,2.71127 0.8932,4.10738 -4.60692,0.0895 -10.99959,0.56097 -15.69722,1.19253 0,0 0,0 0,0 -5.91608,0.79538 -13.63068,-0.58858 -20.90703,-1.75078 0,0 0,0 0,0 -0.004,-5.8e-4 -0.007,-0.001 -0.0109,-0.002 m -2.4678,-4.80889 c -7.16187,-0.83382 -13.88815,0.81058 -21.69785,2.40594 -7.8136,1.59617 -12.70783,0.59731 -18.12266,1.77188 -5.41482,1.17457 -12.79713,-1.14919 -18.37578,-3.45938 -5.57865,-2.31018 -14.371,1.10384 -23.12187,3.31172 -8.75087,2.20789 -11.93349,-0.11404 -15.82344,-0.3164 -0.002,-10e-5 -0.004,-2e-4 -0.006,-3.1e-4 m 0.35474,-0.76025 c -6.46055,-0.78533 -13.94044,0.20397 -21.84656,0.63399 -7.91007,0.43025 -12.22963,-0.81407 -16.66718,-2.42578 -4.43755,-1.6117 -14.69747,0.50471 -24.11329,1.51875 -9.41581,1.01405 -13.39352,0.14942 -20.16875,0.44297 -6.77523,0.29356 -12.2058,-0.45394 -16.625,-1.37109 -0.002,-4.6e-4 -0.004,-9.2e-4 -0.007,-0.001 m 2.27568,1.75314 c -6.05318,0.65149 -13.36517,-0.78871 -20.09639,-2.36348 -6.73459,-1.57556 -13.80576,-0.59393 -21.41328,-1.77188 -7.60752,-1.17794 -13.39725,1.74136 -20.21094,5.23125 -6.81369,3.4899 -12.04549,-0.10596 -16.13984,-0.3164 -3.86512,-0.19866 -12.59317,-1.33346 -19.70267,-3.91315 -0.0428,-0.52621 -0.0798,-1.05751 -0.10985,-1.594 -2.7e-4,-0.005 -5.4e-4,-0.01 -8.1e-4,-0.0144 m -2.86883,3.29619 c -0.59395,-5.87041 -0.0811,-13.70508 -0.56172,-21.14907 -0.48081,-7.44771 0.48744,-13.02658 1.14598,-19.09068 0.65853,-6.0641 -0.48371,-12.25589 -1.76496,-16.77037 -1.28124,-4.51449 -0.24408,-14.43045 -1.04777,-23.30944 -0.80368,-8.87899 1.79899,-13.46414 5.11161,-20.3774 0.002,-0.003 0.003,-0.007 0.005,-0.0104 m 1.32277,-0.40002 c -0.77644,-6.40283 -0.21979,-13.08834 -0.94113,-19.27092 -0.7217,-6.18568 0.92908,-13.5031 2.47489,-20.52506 1.5458,-7.02197 -0.87823,-12.80342 -2.94621,-18.43678 -2.06797,-5.63337 -0.17848,-14.09948 -0.85792,-22.29694 0,0 0,0 0,0 -0.67944,-8.19745 0.70085,-13.59843 1.82098,-20.77818 5.6e-4,-0.004 0.001,-0.007 0.002,-0.0108 m -0.46487,0.99268 c 0.57831,-6.32469 0.89557,-12.09676 2.41073,-16.29682 1.51593,-4.20215 0.14334,-13.97832 0.11239,-21.91724 0,0 0,0 0,0 -0.0309,-7.93892 -0.3788,-13.68408 -1.42745,-21.05241 -1.04866,-7.36832 -0.58412,-12.87682 -2.08136,-18.64771 -1.49725,-5.7709 1.30321,-12.84975 3.61395,-18.54225 0.001,-0.003 0.002,-0.006 0.003,-0.009 m -7.04906,-0.94989 c -0.18604,-6.13629 1.02228,-13.0717 2.77048,-19.20804 0.85284,-2.99351 0.9241,-6.19712 0.78626,-9.43036 3.21959,0.0179 6.20824,0.003 9.6304,0.16483 6.67855,0.31584 12.79783,-0.32182 18.41797,-0.94922 5.62013,-0.6274 13.3995,0.43854 20.21094,1.3289 6.81143,0.89037 13.79022,-0.79242 21.35,-2.38359 0.004,-7.9e-4 0.008,-0.002 0.0113,-0.002 m 62.73809,329.7604 -8.04297,0 m -124.16263,-249.2514 0.10844,-7.17496 m -1.99659,132.10745 0.11269,-7.45618 m 216.66525,-199.05871 9.50782,0 m 100.43423,330.8338 -8.47656,0"
       style="fill:#d40000;fill-opacity:0;stroke:#000000;stroke-width:1.07929373;stroke-miterlimit:4;stroke-opacity:1;stroke-dasharray:25.90304902, 25.90304902;stroke-dashoffset:0"
       inkscape:connector-curvature="0"
       sodipodi:nodetypes="ccccc" />
    <path
       inkscape:original-d="M 662.49751,642.98051 447.61338,822.89986"
       inkscape:path-effect="#path-effect3778"
       sodipodi:nodetypes="cc"
       inkscape:connector-curvature="0"
       id="path3776"
       d="m 663.62504,645.90928 c -14.80283,12.43449 -30.83218,25.67991 -46.51664,38.49798 -0.003,0.002 -0.005,0.004 -0.008,0.006 m 0.88322,-3.47435 c -14.87322,12.57028 -31.22156,25.54466 -47.64161,38.13229 -0.003,0.002 -0.005,0.004 -0.008,0.006 m -0.37653,1.71283 c -14.78397,13.24014 -30.44869,25.89146 -45.32134,39.15851 -0.002,0.002 -0.005,0.004 -0.007,0.007 m 2.78075,-0.85779 c -15.87087,13.31059 -31.364,26.49584 -48.07705,40.95847 -0.003,0.002 -0.006,0.005 -0.008,0.007 m -3.51901,-4.76565 c -10.52529,8.6185 -20.45676,17.15647 -30.11897,25.61458 M 663.24756,641.80786 c -15.08866,12.7204 -31.19295,26.32202 -47.59932,40.46658 -0.003,0.002 -0.005,0.005 -0.008,0.007 m 1.98779,0.81286 c -15.83323,13.3102 -30.86003,25.30372 -46.57238,37.37254 -0.003,0.002 -0.005,0.004 -0.008,0.006 m 1.36689,0.23094 c -14.74188,13.01054 -30.64598,25.5885 -45.96824,38.2305 -0.003,0.002 -0.005,0.004 -0.008,0.006 m -4.17165,-3.40292 c -14.87313,13.05269 -30.98025,25.55441 -46.96661,38.14611 -0.003,0.002 -0.005,0.004 -0.008,0.006 m 4.01025,1.26214 c -10.59783,9.00852 -21.01044,17.93141 -31.64913,27.29396 M 661.30919,642.27494 c -15.26193,12.50942 -31.13713,25.6541 -47.38829,38.46982 -0.003,0.002 -0.005,0.004 -0.008,0.006 m 1.95347,-0.0514 c -15.55675,13.07153 -30.42089,25.88959 -45.27877,39.14453 -0.002,0.002 -0.005,0.004 -0.007,0.007 m -0.24787,1.5515 c -15.29449,13.12319 -30.45126,26.32377 -45.33515,40.46638 -0.002,0.002 -0.005,0.005 -0.007,0.007 m -0.4919,-3.13275 c -15.86617,12.69684 -31.33221,25.86712 -48.0208,39.10253 -0.003,0.002 -0.006,0.004 -0.008,0.007 m 1.61247,-0.94948 c -10.18282,8.521 -20.55314,16.98433 -30.96713,25.25535 M 661.71523,642.03809 c -15.67851,12.24724 -30.34892,25.95479 -45.02558,39.32776 -0.002,0.002 -0.005,0.004 -0.007,0.007 m -2.69311,-2.70428 c -14.95254,12.62689 -30.33967,26.79793 -45.01189,41.88694 -0.002,0.003 -0.005,0.005 -0.007,0.008 m 1.84828,-2.929 c -14.9808,13.35277 -30.79185,26.55711 -46.40406,41.18346 -0.003,0.002 -0.005,0.005 -0.008,0.007 m 1.95543,-0.66011 c -15.67387,13.14169 -30.50624,25.60274 -45.53183,38.31481 -0.003,0.002 -0.005,0.004 -0.008,0.006 m -2.14568,3.54392 c -10.58835,8.76939 -20.89546,17.27328 -31.32623,25.71059 M 660.86852,643.39632 c -15.33656,13.07588 -30.22944,24.88354 -44.68825,36.12109 -0.002,0.002 -0.005,0.004 -0.007,0.006 m 0.83405,2.83358 c -15.11182,12.76719 -30.43697,26.16178 -45.30712,39.94625 -0.002,0.002 -0.005,0.005 -0.007,0.007 m 2.00452,-2.47151 c -15.20558,12.94035 -30.71404,25.78243 -46.12269,38.83522 -0.003,0.002 -0.005,0.004 -0.008,0.007 m -6.22282,0.32036 c -15.74882,13.15546 -30.52637,24.75785 -45.57399,35.76949 -0.003,0.002 -0.005,0.004 -0.008,0.006 m 2.31262,0.20877 c -9.93765,8.68156 -20.37627,17.57751 -30.85098,26.7874 m 77.56194,-63.48709 -4.93342,4.13068 m -57.44748,48.09994 -4.4015,3.68532 m 24.63314,-20.62498 -4.57401,3.82976 m 152.09642,-127.34812 -5.83193,4.88299 m -68.35077,57.2291 -5.19938,4.35337"
       style="fill:none;stroke:#000000;stroke-width:1;stroke-linecap:butt;stroke-linejoin:miter;stroke-miterlimit:4;stroke-opacity:1;stroke-dasharray:24, 24;stroke-dashoffset:0" />
    <rect
       style="opacity:0.97000002;fill:#ffffff;fill-opacity:1;stroke:none"
       id="rect3783"
       width="22.66748"
       height="133.16075"
       x="661.94537"
       y="551.51086" />
    <text
       xml:space="preserve"
       style="font-size:79.81760406px;font-style:normal;font-variant:normal;font-weight:normal;font-stretch:normal;line-height:125%;letter-spacing:0px;word-spacing:0px;fill:#000000;fill-opacity:1;stroke:none;font-family:Serif;-inkscape-font-specification:Serif"
       x="50.176643"
       y="727.72955"
       id="text4435"
       sodipodi:linespacing="125%"><tspan
         sodipodi:role="line"
         id="tspan4437"
         x="50.176643"
         y="727.72955"
         style="font-size:40px;font-style:normal;font-variant:normal;font-weight:normal;font-stretch:normal;font-family:Andale Mono;-inkscape-font-specification:Andale Mono" /><tspan
         sodipodi:role="line"
         x="50.176643"
         y="777.72955"
         style="font-size:40px;font-style:normal;font-variant:normal;font-weight:normal;font-stretch:normal;font-family:Andale Mono;-inkscape-font-specification:Andale Mono"
         id="tspan3005" /><tspan
         sodipodi:role="line"
         x="50.176643"
         y="827.72955"
         style="font-size:40px;font-style:normal;font-variant:normal;font-weight:normal;font-stretch:normal;font-family:Andale Mono;-inkscape-font-specification:Andale Mono"
         id="tspan3106" /><tspan
         sodipodi:role="line"
         x="50.176643"
         y="877.72955"
         style="font-size:40px;font-style:normal;font-variant:normal;font-weight:normal;font-stretch:normal;font-family:Andale Mono;-inkscape-font-specification:Andale Mono"
         id="tspan3007" /><tspan
         sodipodi:role="line"
         x="50.176643"
         y="927.72955"
         style="font-size:40px;font-style:normal;font-variant:normal;font-weight:normal;font-stretch:normal;font-family:Andale Mono;-inkscape-font-specification:Andale Mono"
         id="tspan3003" /><tspan
         sodipodi:role="line"
         x="50.176643"
         y="977.72955"
         style="font-size:40px;font-style:normal;font-variant:normal;font-weight:normal;font-stretch:normal;font-family:Andale Mono;-inkscape-font-specification:Andale Mono"
         id="tspan3009">c ! 7</tspan></text>
    <text
       xml:space="preserve"
       style="font-size:79.81760406px;font-style:normal;font-variant:normal;font-weight:normal;font-stretch:normal;line-height:125%;letter-spacing:0px;word-spacing:0px;fill:#000000;fill-opacity:1;stroke:none;font-family:Serif;-inkscape-font-specification:Serif"
       x="712.17383"
       y="520.87781"
       id="text4435-1"
       sodipodi:linespacing="125%"><tspan
         sodipodi:role="line"
         x="712.17383"
         y="520.87781"
         style="font-size:40px;font-style:normal;font-variant:normal;font-weight:normal;font-stretch:normal;font-family:Andale Mono;-inkscape-font-specification:Andale Mono"
         id="tspan3001-3">e.onEvent {</tspan><tspan
         sodipodi:role="line"
         x="712.17383"
         y="570.87781"
         style="font-size:40px;font-style:normal;font-variant:normal;font-weight:normal;font-stretch:normal;font-family:Andale Mono;-inkscape-font-specification:Andale Mono"
         id="tspan3005-7">  println</tspan><tspan
         sodipodi:role="line"
         x="712.17383"
         y="620.87781"
         style="font-size:40px;font-style:normal;font-variant:normal;font-weight:normal;font-stretch:normal;font-family:Andale Mono;-inkscape-font-specification:Andale Mono"
         id="tspan3009-6">}</tspan></text>
  </g>
</svg>
