<?xml version="1.0" encoding="UTF-8" standalone="no"?>
<!-- Created with Inkscape (http://www.inkscape.org/) -->

<svg
   xmlns:dc="http://purl.org/dc/elements/1.1/"
   xmlns:cc="http://creativecommons.org/ns#"
   xmlns:rdf="http://www.w3.org/1999/02/22-rdf-syntax-ns#"
   xmlns:svg="http://www.w3.org/2000/svg"
   xmlns="http://www.w3.org/2000/svg"
   xmlns:sodipodi="http://sodipodi.sourceforge.net/DTD/sodipodi-0.dtd"
   xmlns:inkscape="http://www.inkscape.org/namespaces/inkscape"
   width="1052.3622"
   height="744.09448"
   id="svg2"
   version="1.1"
   inkscape:version="0.48.4 r9939"
   sodipodi:docname="semantics-1.svg">
  <defs
     id="defs4">
    <inkscape:path-effect
       effect="sketch"
       id="path-effect3781"
       is_visible="true"
       nbiter_approxstrokes="3"
       strokelength="40"
       strokelength_rdm="0;3540803433"
       strokeoverlap="0.3"
       strokeoverlap_rdm="0.3;676846516"
       ends_tolerance="0.1;78838508"
       parallel_offset="2.7;1"
       tremble_size="2.5;1"
       tremble_frequency="1"
       nbtangents="5"
       tgt_places_rdmness="1;1"
       tgtscale="10"
       tgtlength="0"
       tgtlength_rdm="0.3;1" />
    <inkscape:path-effect
       tgtlength_rdm="0.3;1"
       tgtlength="4"
       tgtscale="10"
       tgt_places_rdmness="1;1"
       nbtangents="5"
       tremble_frequency="1"
       tremble_size="1.8;1"
       parallel_offset="1.9;1"
       ends_tolerance="0;1429194784"
       strokeoverlap_rdm="0.1;1"
       strokeoverlap="0"
       strokelength_rdm="0;1"
       strokelength="60"
       nbiter_approxstrokes="5"
       is_visible="true"
       id="path-effect3778"
       effect="sketch" />
    <inkscape:path-effect
       effect="sketch"
       id="path-effect3774"
       is_visible="true"
       nbiter_approxstrokes="5"
       strokelength="60"
       strokelength_rdm="0;1"
       strokeoverlap="0"
       strokeoverlap_rdm="0.1;1"
       ends_tolerance="0;1429194784"
       parallel_offset="1.9;1"
       tremble_size="1.8;1"
       tremble_frequency="1"
       nbtangents="5"
       tgt_places_rdmness="1;1"
       tgtscale="10"
       tgtlength="4"
       tgtlength_rdm="0.3;1" />
    <inkscape:path-effect
       tgtlength_rdm="0.3;1"
       tgtlength="5"
       tgtscale="9.8"
       tgt_places_rdmness="1;1"
       nbtangents="5"
       tremble_frequency="5"
       tremble_size="2.7;1"
       parallel_offset="2.7;1"
       ends_tolerance="0.1;4044545397"
       strokeoverlap_rdm="0.3;1"
       strokeoverlap="0"
       strokelength_rdm="0;1"
       strokelength="100"
       nbiter_approxstrokes="7"
       is_visible="true"
       id="path-effect3772"
       effect="sketch" />
    <inkscape:path-effect
       effect="sketch"
       id="path-effect2994"
       is_visible="true"
       nbiter_approxstrokes="8"
       strokelength="100"
       strokelength_rdm="0;1"
       strokeoverlap="0"
       strokeoverlap_rdm="0.1;2173367531"
       ends_tolerance="0.1;1"
       parallel_offset="2.6;1"
       tremble_size="2.6;1"
       tremble_frequency="3.5"
       nbtangents="5"
       tgt_places_rdmness="1;1"
       tgtscale="9.8"
       tgtlength="5"
       tgtlength_rdm="0.3;1" />
    <marker
       inkscape:stockid="Arrow2Mend"
       orient="auto"
       refY="0.0"
       refX="0.0"
       id="Arrow2Mend"
       style="overflow:visible;">
      <path
         id="path3849"
         style="fill-rule:evenodd;stroke-width:0.62500000;stroke-linejoin:round;"
         d="M 8.7185878,4.0337352 L -2.2072895,0.016013256 L 8.7185884,-4.0017078 C 6.9730900,-1.6296469 6.9831476,1.6157441 8.7185878,4.0337352 z "
         transform="scale(0.6) rotate(180) translate(0,0)" />
    </marker>
  </defs>
  <sodipodi:namedview
     id="base"
     pagecolor="#ffffff"
     bordercolor="#666666"
     borderopacity="1.0"
     inkscape:pageopacity="0.0"
     inkscape:pageshadow="2"
     inkscape:zoom="1"
     inkscape:cx="634.67939"
     inkscape:cy="230.75692"
     inkscape:document-units="px"
     inkscape:current-layer="layer1"
     showgrid="false"
     inkscape:window-width="2556"
     inkscape:window-height="1564"
     inkscape:window-x="0"
     inkscape:window-y="16"
     inkscape:window-maximized="0" />
  <metadata
     id="metadata7">
    <rdf:RDF>
      <cc:Work
         rdf:about="">
        <dc:format>image/svg+xml</dc:format>
        <dc:type
           rdf:resource="http://purl.org/dc/dcmitype/StillImage" />
        <dc:title />
      </cc:Work>
    </rdf:RDF>
  </metadata>
  <g
     inkscape:label="Layer 1"
     inkscape:groupmode="layer"
     id="layer1"
     transform="translate(0,-308.2677)">
    <path
       style="fill:#d40000;fill-opacity:0;stroke:#000000;stroke-width:1;stroke-miterlimit:4;stroke-opacity:1;stroke-dasharray:24, 24;stroke-dashoffset:0"
       d="m 24.231281,631.36624 c 10.28407,-0.58127 18.794326,0.002 27.809064,-0.0197 0,0 10e-7,0 2e-6,0 9.017893,-0.0221 18.617602,-0.43624 27.291739,-1.3 8.674135,-0.86375 19.54852,0.17896 30.054234,0.54844 0,0 0,0 1e-5,0 5.25653,0.18487 9.82122,0.13823 14.06588,4e-5 m -0.64439,-6.76498 c 8.77042,-0.83105 19.32745,0.42678 29.39502,1.26025 10.0711,0.83376 19.36443,0.31268 29.54643,0.93438 10.182,0.6217 18.60907,-0.37666 27.27143,-1.11719 0,0 0,0 0,0 4.33421,-0.37052 9.38766,-0.47534 14.83955,-0.59531 m -1.8444,6.05988 c 8.98043,0.48571 20.00155,-1.33888 31.44637,-4.00207 11.44882,-2.66412 17.4514,0.30476 23.79799,0.91406 6.34659,0.60931 19.93161,-0.24822 31.21205,-0.75156 0,0 0,0 0,0 5.64417,-0.25185 10.45036,-0.13344 15.07736,0.16671 m -0.86237,5.17508 c 10.02155,-0.37844 20.33923,0.0849 32.44059,0.24415 1e-5,0 1e-5,0 1e-5,0 12.10559,0.15925 18.78985,-0.69056 27.81986,-2.09219 9.03001,-1.40163 18.76656,-0.54045 27.73861,-1.64531 0,0 10e-6,0 10e-6,0 4.48916,-0.55282 9.4123,-0.37823 14.55943,0.1117 m -2.15189,-0.0505 c 9.67556,0.2332 17.8867,-0.0809 26.68989,-0.34945 -0.006,0.62004 -0.008,1.24032 -0.007,1.86106 0.0193,9.2462 -0.81778,18.31413 -2.47813,26.35736 -1.66034,8.04324 -0.0611,18.53615 -0.20312,27.02768 -0.0711,4.24874 -0.18634,8.97067 -0.40165,13.77728 m 2.69674,5.21008 c -0.20928,9.00571 0.34592,17.49157 1.05647,23.8901 0.7108,6.40076 -0.72773,20.45967 -2.17343,32.79643 -1.44571,12.33675 0.50882,18.78558 1.52343,27.79954 0,1e-5 0,1e-5 0,1e-5 0.50766,4.51014 0.33758,9.26904 -0.12609,14.08727 m -1.35703,1.59021 c -0.29015,10.0075 0.69495,19.57909 2.0925,30.1656 1.39804,10.59022 0.34869,19.35589 1.03594,29.48549 0.68724,10.1296 0.0236,17.92318 0.0812,25.17924 0,0 0,0 1e-5,0 0.0289,3.63057 -0.0846,8.43832 -0.3189,13.5695 m 0.70414,0.8885 c -0.65659,9.31037 -1.39413,18.2161 -4.18368,26.08352 -2.79053,7.87017 1.01468,18.58517 3.06719,27.19018 2.0525,8.605 -0.96911,19.32813 -2.925,29.42455 0,0 0,0 0,0 -0.97863,5.05174 -0.71758,9.72718 0.0492,14.24113 m -1.51142,2.0247 c 0.21514,8.7267 -0.0974,17.2851 -0.3718,25.1638 -0.62202,-0.07 -1.24386,-0.1437 -1.86536,-0.2203 -9.80859,-1.2098 -19.21513,-0.7804 -29.05893,-2.3157 -9.8438,-1.5352 -18.58787,0.3997 -27.16986,1.1782 0,0 0,0 0,0 -4.294,0.3895 -9.24421,0.6241 -14.4969,0.9974 m 0.66894,-1.5056 c -8.97266,-0.303 -18.57041,1.6247 -27.14012,4.8754 -8.57272,3.2518 -18.61077,-0.054 -27.27143,-0.1626 -8.66066,-0.1083 -18.77171,-1.4482 -27.75893,-4.3671 0,0 0,0 0,0 -4.49676,-1.4605 -9.30953,-1.1392 -14.23939,-0.1303 m -1.76292,1.5521 c -9.85198,-0.027 -19.47919,0.4177 -29.86108,1.2391 -10e-6,0 -10e-6,0 -10e-6,0 -10.38553,0.8216 -18.82167,-0.1 -27.90111,-0.2844 -9.07944,-0.1843 -18.8086,-0.1371 -27.84017,-0.3859 -1e-5,0 -1e-5,0 -1e-5,0 -4.51895,-0.1245 -9.23342,-0.051 -13.95602,0.1267 m -0.90836,-0.1058 c -9.44001,0.595 -19.96258,0.2671 -31.32401,0.7916 0,0 -1e-5,0 -1e-5,0 -11.3654,0.5247 -18.41921,-1.1456 -26.68236,-3.4531 -8.26315,-2.3075 -19.796196,-0.3103 -30.805796,-0.9141 -2e-6,0 -4e-6,0 -6e-6,0 -5.508654,-0.3021 -10.189516,-0.1564 -14.602125,0.2107 m 3.170239,8.4839 c -9.743128,0.7706 -18.476315,0.2002 -26.875257,0.5882 0,0 -10e-7,0 -2e-6,0 -8.401882,0.3881 -18.842665,-0.6485 -27.962051,-1.95 -0.250576,-0.036 -0.501813,-0.069 -0.753686,-0.1011 0.301075,-10.3832 -0.194777,-18.2585 -0.353083,-27.2177 -0.08145,-4.60939 -0.248443,-9.46964 -0.545567,-14.46369 m -3.304648,0.47331 c -0.648999,-9.06167 0.105947,-20.36433 0.46724,-32.5225 0,0 0,0 0,0 0.36142,-12.16242 -0.03719,-18.84473 0.01968,-27.94138 0.05687,-9.09665 1.0431,-18.99856 3.24937,-28.42888 0,0 0,0 10e-7,0 1.103907,-4.71846 1.05394,-9.23786 0.694431,-13.5206 m -4.402026,-1.11993 c -0.236457,-9.2162 0.45336,-19.03012 1.482432,-28.52077 0,0 0,0 0,0 1.029431,-9.49397 -0.468215,-20.75492 -1.239692,-33.66951 -0.771477,-12.91459 -0.05574,-18.95915 -6.29e-4,-28.28669 0,0 0,0 0,0 0.02757,-4.66704 0.296524,-9.26658 0.843572,-13.72429 m -1.625115,3.04379 c 0.76419,-10.07389 0.906204,-18.0343 2.842317,-25.55424 10e-7,0 10e-7,0 10e-7,0 1.93679,-7.52257 0.228299,-18.9249 0.832182,-28.22576 0.603884,-9.30086 -1.198856,-20.35238 -3.453753,-32.49137 0,-10e-6 -10e-7,-10e-6 -10e-7,-10e-6 -1.128238,-6.07374 -0.946536,-10.60222 -0.286378,-14.56594 m -0.821749,2.30199 c -0.742987,-9.20308 1.018786,-19.60553 3.209527,-30.26766 2.191508,-10.66586 -1.460751,-19.24393 -4.225629,-29.13982 0,0 0,0 -1e-6,0 -0.08688,-0.31097 -0.167563,-0.62046 -0.242291,-0.92849 6.96732,-0.27012 19.588889,0.83652 30.470775,2.32598 5.621399,0.76944 10.509236,0.72305 15.307346,0.43884 m -31.515317,-0.70209 c 9.425594,0.77006 18.674773,-0.66523 27.484966,-2.01175 8.813276,-1.34699 18.781727,-0.0559 27.758928,-0.14218 8.9772,-0.0863 19.351492,-0.2661 29.505802,-0.79219 0,0 0,0 0,0 5.08071,-0.26323 9.88059,-0.23561 14.63514,-0.11785 m 1.18394,3.02312 c 9.45338,0.56062 19.74941,-0.55043 30.674,-1.66621 0,0 0,0 0,0 10.92842,-1.11617 18.66893,-0.28444 27.43393,-0.85312 8.765,-0.56869 19.27112,0.21497 29.24174,0.67031 0,0 0,0 0,0 4.9888,0.22783 9.58224,0.15559 13.94634,-0.0443 m -3.04245,3.59816 c 9.86519,-0.75739 19.0473,-0.54945 28.58138,-1.64452 0,0 0,0 0,0 9.53742,-1.09545 17.51795,-0.17997 23.9808,-0.54843 6.46285,-0.36847 20.56537,0.9773 33.10111,2.94531 0,0 1e-5,0 1e-5,0 6.27226,0.98469 10.84732,0.74462 14.85849,0.0174 m -1.25376,-6.55865 c 9.18235,-0.62852 18.78403,0.0967 27.7696,0.28504 0,0 0,0 0,0 8.98872,0.18836 19.49686,1.05347 29.91205,3.14843 10.41519,2.09497 19.30559,-0.8735 29.32299,-2.59999 0,0 0,0 0,0 5.01221,-0.86386 9.53307,-0.85505 13.75078,-0.61942 m 0.40205,7.56642 c 7.36641,0.10645 15.29425,-0.38454 22.63884,-1.25485 -0.116,1.42673 -0.2559,2.8379 -0.42921,4.23534 0,0 0,0 0,10e-6 -1.02971,8.30296 0.72848,19.22345 2.19375,29.07923 1.46528,9.85579 0.11565,18.74144 0.34531,27.65737 0,0 0,0 1e-5,0 0.11491,4.46108 5e-5,9.154 -0.259,13.85233 m -1.30581,-1.6078 c -0.70949,9.8792 0.29548,19.75139 0.89449,30.67355 0.59922,10.92598 -0.10596,18.15942 -0.30469,25.9308 -0.19872,7.77138 0.97426,19.57581 2.94532,30.17611 0,10e-6 0,10e-6 0,10e-6 0.98622,5.30386 1.05004,9.93569 0.93202,14.30125 m -9.38193,0.62381 c 0.088,9.19603 0.14131,19.02279 0.40616,28.50083 0.26494,9.48136 1.17684,18.54638 3.55468,27.06831 2.37785,8.52192 -0.61682,18.46139 -1.82812,26.82454 0,1e-5 0,1e-5 0,1e-5 -0.60608,4.1845 -0.79304,9.24813 -1.01724,14.75779 m 0.87549,1.97543 c 0.41901,9.5268 -0.0673,18.42464 -0.20356,26.71298 0,10e-6 0,10e-6 0,10e-6 -0.1363,8.29125 0.17983,18.68849 0.54843,27.51517 0.36861,8.82668 0.53328,19.17295 1.625,28.93705 0,0 0,10e-6 0,10e-6 0.54625,4.88547 0.24637,9.51144 -0.48764,13.96845 m -1.90917,0.5505 c 0.0453,7.7677 0.1845,16.5388 0.52557,25.9167 -1.49979,0.2807 -2.99175,0.5849 -4.47504,0.9096 -10e-6,0 -10e-6,0 -10e-6,0 -9.01512,1.9735 -18.62186,0.3814 -27.27142,1.1578 -8.64956,0.7764 -19.84157,-1.0217 -30.94799,-3.0672 -5.5571,-1.0235 -9.99943,-0.8342 -13.91961,-0.1989 m 4.72218,4.3013 c -9.6627,-0.6758 -19.45066,0.071 -29.80034,0.2039 -10.35331,0.1326 -18.53405,-0.312 -27.04799,-0.9141 -8.51394,-0.6021 -20.01043,0.2816 -31.43549,0.8531 0,0 0,0 0,0 -5.71653,0.286 -10.395,0.2468 -14.75189,0.095 m 1.28876,-2.5325 c -9.73781,-0.318 -20.5279,-0.4791 -33.02995,-1.4419 -1e-5,0 -1e-5,0 -1e-5,0 -12.50643,-0.9631 -19.0747,0.043 -28.65267,0.1422 -9.57798,0.099 -17.81411,0.2252 -24.85424,0.6703 -3.52254,0.2227 -8.50555,0.143 -14.01835,-0.075 m 1.14367,-0.6367 c -10.31741,-0.3787 -18.14425,-0.2454 -25.87934,-0.7512 -7.7378,-0.506 -19.47412,1.3763 -29.85112,4.1438 -10.377,2.7675 -18.708666,-0.5256 -27.555797,-1.5844 -2e-6,0 -3e-6,0 -5e-6,0 -4.426662,-0.5297 -9.245651,-0.5341 -14.201228,-0.414 m -4.787497,-1.5765 c -10.303738,0.074 -17.923454,-0.5766 -25.229355,-1.7064 -6.769865,-1.0469 -18.505942,0.5063 -29.918792,1.9695 -0.209634,-0.5854 -0.417221,-1.1715 -0.6201,-1.7594 -2.75296,-7.978 0.310634,-18.659 1.096246,-27.39293 0,0 0,0 0,0 0.393081,-4.37003 0.423195,-9.38319 0.406026,-14.74236 m -0.92377,0.14255 c 0.513222,-9.12158 -0.360006,-19.05705 -0.915232,-28.60211 0,0 0,-10e-6 0,-10e-6 -0.555419,-9.5484 -0.446143,-18.91541 -1.199066,-28.18513 -0.752923,-9.26971 1.114668,-18.98989 3.493119,-28.40856 0,0 10e-7,-10e-6 10e-7,-10e-6 1.190058,-4.71263 0.929536,-9.50188 0.133017,-14.33038 m 3.430958,-3.23467 c -0.527483,-8.76312 -0.102803,-18.71608 -0.162575,-27.58687 0,0 0,0 0,0 -0.05979,-8.8739 -0.981177,-19.69359 -2.824067,-30.50076 -1.84289,-10.80717 -0.568628,-18.9605 -1.564691,-28.28669 -1e-6,0 -1e-6,0 -1e-6,0 -0.49838,-4.66636 -0.246062,-9.18718 0.398731,-13.49129 m 2.210613,2.64853 c -0.473165,-9.85097 0.247973,-18.20921 0.873306,-26.06229 0,0 0,0 0,0 0.625551,-7.85583 -0.323593,-19.85981 -0.853755,-30.98826 -0.530161,-11.12844 -0.880155,-18.25106 -2.519378,-26.1945 0,0 -1e-6,-1e-5 -1e-6,-1e-5 -0.820186,-3.9745 -0.624884,-8.75566 -0.0095,-13.75192 m 1.888164,-4.30065 c 0.06055,-8.78324 -0.102541,-18.49402 -0.163193,-26.91653 -0.05644,-7.83781 -0.547464,-17.56991 -1.487787,-26.52935 0.597082,-0.007 1.191638,-0.0107 1.783662,-0.008 8.488073,0.0332 19.362664,0.004 29.505801,0.0203 10e-7,0 2e-6,0 3e-6,0 5.075119,0.008 10.087232,-0.0955 15.272205,-0.30462 m -38.436774,-4.85424 c 9.095167,0.48712 19.767265,0.67406 30.735313,2.03074 2e-6,0 4e-6,0 6e-6,0 10.971884,1.35714 18.295104,-0.16095 26.316735,-0.46719 8.021631,-0.30625 20.031827,-0.0109 31.537047,-0.0203 0,0 0,0 1e-5,-10e-6 5.75664,-0.005 10.40212,-0.0281 14.68419,-0.0742 m -1.50618,3.91311 c 9.0339,-0.11511 19.14432,-0.28595 28.86663,-0.87332 9.72572,-0.58757 18.04344,0.24808 25.56518,0.73125 7.52174,0.48317 19.33815,0.99274 29.44486,2.98594 0,0 0,0 0,0 5.0569,0.99729 9.91958,0.82063 14.80556,0.216 m -1.60672,-5.37555 c 9.51437,-0.16241 19.9827,-0.2737 31.40518,-0.83264 11.42648,-0.55913 18.18035,-0.57464 25.99174,-1.74688 7.8114,-1.17223 19.18094,1.08273 28.97768,3.27032 0,0 0,0 0,0 4.9018,1.09456 9.59753,1.23275 14.19217,1.23416 m -0.44518,3.01157 c 9.25042,0.3978 19.47094,-1.40417 29.8414,-4.1848 10e-6,0 10e-6,0 10e-6,0 10.37409,-2.78159 18.48462,0.41675 26.9058,1.23907 8.42118,0.82232 19.47797,0.27611 29.85111,0.8125 5.19021,0.26838 9.99144,0.1238 14.72437,-0.22916 m 2.47629,-1.90378 c 8.44074,-0.0984 16.93209,1.11094 25.95944,3.39654 0.12501,1.64878 0.26319,3.32402 0.41643,5.02483 0,0 0,10e-6 0,10e-6 1.13093,12.55267 -1.17068,18.3148 -3.49376,26.35736 -2.32307,8.04255 0.12161,18.89541 0.34532,28.12455 0,0 0,0 0,0 0.11193,4.6178 0.0207,9.29263 -0.18762,13.91476 m -2.12819,-6.32235 c -0.17563,9.34586 0.155,20.64077 0.44706,33.33505 0,0 0,0 0,0 0.29216,12.69872 0.18911,18.22273 0.58906,26.0933 0.39995,7.87057 0.15478,19.16902 0.44687,28.95736 0,0 0,1e-5 0,1e-5 0.14615,4.89759 0.28941,9.82242 0.53807,14.87082 m 2.06282,3.40652 c 0.84497,9.88555 0.13335,19.16214 0.42568,28.94699 0.29243,9.78827 -0.46807,19.6054 -1.40157,30.25736 -0.93349,10.65197 -0.92252,17.82738 -2.76249,24.89487 0,0 0,0 0,0 -0.92064,3.53622 -0.61518,8.71083 0.22537,14.59824 m 2.35472,-1.94798 c 0.39182,9.38564 -0.28877,19.54051 -0.85353,30.04438 0,0 0,10e-6 0,10e-6 -0.56496,10.50754 -0.42501,19.58562 -1.25938,30.19642 -0.83437,10.6108 1.15883,19.4928 3.49375,29.93236 0,0 0,0 0,10e-6 1.16828,5.22343 1.21796,9.9492 1.02446,14.5216 m -3.15705,0.6268 c 0.18219,7.9138 0.37994,16.3075 0.9914,24.3822 -1.16169,-0.029 -2.31385,-0.065 -3.4551,-0.1119 -8.66404,-0.3532 -20.27246,0.5458 -32.2683,1.625 -11.99584,1.0791 -17.78933,-0.01 -24.77299,-0.02 -3.49428,-0.01 -8.43656,-0.2195 -13.87249,-0.6414 m -3.95823,-1.1657 c -10.12115,0.6289 -17.78731,0.4961 -24.78267,1.4822 -6.99782,0.9863 -20.07936,-0.04 -31.65893,-0.1422 -11.57957,-0.1023 -17.76725,-0.4671 -24.71205,-1.3813 0,0 -10e-6,0 -10e-6,0 -3.47483,-0.4574 -8.47967,-0.4486 -14.04582,-0.3197 m -4.43416,0.8069 c -9.41966,-0.2499 -19.8605,0.1278 -31.01935,0.4066 0,0 0,0 0,0 -11.16276,0.2789 -18.73981,-1.192 -27.63705,-3.575 -8.89724,-2.383 -18.17811,0.5611 -25.97143,1.6656 0,0 0,0 0,0 -3.89939,0.5526 -8.71459,0.4361 -13.79501,0.067 m -0.66357,-0.5129 c -9.87277,0.7768 -20.22204,-0.6635 -32.09544,-1.9914 0,0 0,0 0,0 -11.87755,-1.3284 -18.14737,0.1031 -25.84955,0.2844 -7.70219,0.1812 -19.685291,0.4047 -30.460486,1.239 -2e-6,0 -4e-6,0 -6e-6,0 -5.391369,0.4175 -10.129031,0.6125 -14.683266,0.8981 m 3.108859,-0.5321 c -10.061248,0.291 -19.115246,0.5888 -28.763986,1.7871 -9.257518,1.1498 -19.231502,0.1852 -30.244907,0.2679 -0.08204,-0.3858 -0.16596,-0.7697 -0.251798,-1.1515 -2.099643,-9.3385 0.09194,-20.0155 0.425933,-31.45547 0,0 0,0 0,0 0.167116,-5.72399 0.360404,-10.29041 0.720315,-14.41902 m -2.214252,-0.97408 c -0.621197,-10.17576 1.201184,-18.73025 3.737524,-27.64632 1e-6,0 1e-6,0 1e-6,0 2.537226,-8.91919 -0.129135,-18.39176 -0.264693,-26.58045 -0.135557,-8.18868 -0.731668,-19.92494 -2.031878,-31.21169 -1e-6,0 -1e-6,0 -1e-6,0 -0.650561,-5.64733 -0.81248,-10.42816 -0.95716,-15.00351 m -2.019426,5.11665 c -0.465797,-8.69685 1.120331,-20.5944 3.513923,-33.19319 0,0 1e-6,0 1e-6,0 2.394428,-12.6032 -0.15263,-18.74425 -0.32563,-27.67732 -0.173001,-8.93307 -1.301569,-18.64756 -3.738128,-27.37263 -10e-7,0 -10e-7,0 -2e-6,0 -1.219133,-4.36559 -0.963834,-9.02292 -0.129733,-13.67389 m 0.87113,-3.14114 c 0.290338,-10.22917 -0.127778,-17.76875 -0.224372,-24.76189 0,0 0,0 0,-10e-6 -0.09663,-6.99559 -0.325621,-20.69824 -0.813129,-33.54763 -0.487508,-12.84938 0.378951,-18.91717 1.29937,-28.18513 0,0 0,0 0,0 0.460532,-4.63722 0.568674,-9.08527 0.688072,-13.24841 m 2.450051,0.51681 c 0.148878,-9.64247 0.55689,-19.67695 1.786714,-30.47032 1.184816,-10.39835 -0.599007,-18.44557 -1.904315,-27.55833 0.303462,0.002 0.607628,0.003 0.912692,0.002 0,0 1e-6,0 1e-6,0 8.259423,-0.0286 19.041051,0.75671 28.551115,2.275 4.758361,0.75968 9.45202,0.85384 14.076399,0.85593 m -37.147425,-2.05432 c 8.897713,0.0475 17.702758,0.30838 24.56052,0.93433 10e-7,0 10e-7,0 2e-6,0 6.860163,0.62617 18.898458,-0.21403 28.144864,-0.65 9.246406,-0.43597 19.743928,0.5311 30.663607,1.60469 1e-5,0 1e-5,0 1e-5,0 5.46366,0.53716 10.42396,0.16448 15.40706,-0.71298 m -5.09227,-4.58872 c 9.83177,-0.12769 19.58667,1.05055 30.20641,3.14857 10.62346,2.09876 19.14045,-0.87384 28.8355,-2.64062 9.69504,-1.76678 19.82531,1.29465 30.88704,3.87968 1e-5,0 1e-5,0 1e-5,10e-6 5.53474,1.29342 10.14031,1.06693 14.39433,0.29217 m -2.92186,2.71378 c 9.7019,-0.2843 17.52295,-0.59846 23.99092,-1.7872 0,-10e-6 0,-10e-6 1e-5,-10e-6 6.47023,-1.18916 19.19596,0.53504 29.0183,1.58438 9.82233,1.04934 19.5607,0.70295 30.09486,2.09219 0,0 0,0 0,0 5.27077,0.6951 9.89143,0.64378 14.24188,0.36807 m 2.95935,-8.27 c 10.30459,-0.34363 19.13999,1.54343 28.84498,4.6113 0,0 0,0 0,0 9.70838,3.06895 19.03083,-0.43387 28.51049,-1.3 9.47966,-0.86612 18.12874,-0.42196 25.80892,-1.27968 0,0 10e-6,0 10e-6,-10e-6 3.84277,-0.42916 8.46936,-0.45596 13.18484,-0.40021 m 7.16368,4.03618 c 9.22283,0.0264 18.67897,-0.96866 27.46487,-2.90471 0.91198,-0.20097 1.8449,-0.36106 2.79629,-0.48676 -0.31819,7.44989 0.74169,17.46543 1.59028,25.87006 0,0 0,0 0,0 0.94683,9.37769 -0.0111,19.60919 -0.0203,30.25736 -0.005,5.32782 -0.36538,10.28242 -1.0862,15.28648 m -2.00098,0.22816 c 0.30432,9.68944 0.23445,19.01862 0.69031,28.50032 0,0 0,0 0,0 0.45601,9.48501 -0.0211,18.48381 -0.0406,26.88549 -0.0196,8.40168 -0.97452,18.57217 -2.94531,27.14955 0,0 0,0 0,0 -0.98608,4.29169 -1.06981,9.15227 -0.98974,14.22341 m 3.54859,-2.12121 c -0.50063,9.74368 -0.66022,19.26552 -1.96979,29.21119 -1.31002,9.94916 0.64702,19.96737 1.92969,31.33393 1.28267,11.36656 0.25851,18.86311 0.77187,28.00268 0,0 0,0 1e-5,0 0.25686,4.57298 0.092,9.37265 -0.30128,14.25401 m -6.19819,-2.13104 c 0.51374,10.18336 0.068,19.7452 0.20259,30.69355 0,0 0,0 0,1e-5 0.1346,10.95218 1.23331,18.553 3.69688,27.08861 2.46356,8.5356 -1.17027,19.54249 -3.51407,30.05423 0,0 0,0 0,10e-6 -1.17271,5.25955 -0.98723,9.6316 -0.32162,13.48679 m 3.36927,-1.48629 c 0.73774,9.6157 1.44513,19.928 4.32579,31.2223 0.30988,1.2149 0.5493,2.3822 0.72896,3.5083 -7.00857,0.8464 -18.13244,-1.1377 -27.24355,-2.1624 0,0 -10e-6,0 -10e-6,0 -10.20894,-1.1482 -20.26467,-0.7042 -32.24798,-2.1329 -5.99585,-0.7148 -10.49093,-0.6637 -14.41171,-0.3832 m -0.53466,4.4667 c -10.14215,0.6013 -18.8184,-0.3941 -27.89046,-1.1584 -9.07525,-0.7647 -19.50723,0.6363 -29.973,1.889 -10.46576,1.2527 -19.13056,-0.8537 -28.83548,-2.5594 0,0 -10e-6,0 -10e-6,0 -4.85586,-0.8534 -9.39708,-0.9399 -13.69457,-0.8995 m 3.84811,3.6206 c -8.74385,-0.8046 -19.98324,-0.3902 -31.40599,-1.157 0,0 -1e-5,0 -1e-5,0 -11.42675,-0.7671 -17.97118,0.2404 -25.32142,0.7109 -7.35024,0.4705 -19.2483,0.5654 -29.16049,1.7063 0,0 0,0 0,0 -4.95956,0.5708 -9.98308,0.6275 -15.21535,0.5995 m 1.24392,-6.4906 c -10.19625,-0.4725 -18.86528,0.8862 -28.01228,2.6614 0,0 0,0 0,0 -9.1502,1.7758 -19.48007,-0.6471 -29.87143,-1.95 -10.39135,-1.3029 -19.30335,0.3323 -29.363606,0.9953 -2e-6,0 -4e-6,0 -6e-6,0 -5.033651,0.3317 -9.666248,0.415 -14.102283,0.4957 m -0.822749,4.0957 c -9.168168,0.7427 -17.839736,-1.209 -24.946173,-3.6164 -1e-6,0 -2e-6,0 -2e-6,0 -7.108926,-2.4082 -19.879619,-0.3123 -31.069864,-0.9547 -2.219873,-0.1274 -4.27107,-0.1872 -6.192431,-0.1943 -0.16775,-7.6631 1.784638,-14.465 3.294445,-21.3886 0.942376,-4.32154 0.911218,-8.95946 0.629466,-13.58377 m -1.960272,-1.19893 c -0.02073,-9.17535 -0.352069,-18.60466 -0.91467,-27.24112 0,-10e-6 0,-10e-6 0,-10e-6 -0.562798,-8.63949 0.629811,-18.19974 2.050933,-26.032 1.421122,-7.83227 -0.767149,-20.44251 -2.174066,-32.77576 0,0 0,0 -1e-6,0 -0.703951,-6.17094 -0.825761,-10.90117 -0.87856,-15.24403 m 3.06169,2.73564 c -0.142035,-9.85094 0.162055,-18.17215 0.629208,-25.98103 0,0 0,0 0,-10e-6 0.467315,-7.81161 -1.504153,-19.70719 -4.347505,-30.54138 -2.843351,-10.83418 0.958059,-18.66889 3.025932,-27.45388 1e-6,0 1e-6,0 1e-6,0 1.034661,-4.39557 0.808352,-9.23124 0.118642,-14.22831 m -0.859596,-4.86155 C 20.6126,777.73063 19.603616,769.34347 19.1707,761.00475 c -1e-6,0 -1e-6,0 -1e-6,0 -0.433067,-8.34164 -0.574926,-18.49197 -1.605316,-26.90545 -1.030391,-8.41347 1.10045,-20.07241 3.452494,-31.65856 0,0 1e-6,-10e-6 1e-6,-10e-6 1.176846,-5.79713 1.046972,-10.37989 0.512318,-14.52127 m -6.048279,4.12529 c -0.466213,-9.9463 0.52442,-19.21467 1.726423,-29.08875 1.202425,-9.87753 -0.267935,-19.61024 -0.670941,-30.27732 0,0 0,0 0,0 -0.08154,-2.15819 -0.130874,-4.2254 -0.157043,-6.22996 7.53173,-0.30634 15.42359,0.3612 23.122057,0.26657 4.828929,-0.0593 9.249038,0.19529 13.309639,0.7163 M 23.31388,626.53171 c 10.08113,-0.72975 18.550484,0.31889 27.078027,0.97577 10e-7,0 2e-6,0 2e-6,0 8.530529,0.65711 18.233627,-0.37815 26.113614,-1.1375 7.879986,-0.75935 19.404575,-0.11368 29.668297,-0.36562 0,0 0,0 10e-6,0 5.13545,-0.12606 10.01815,-0.13333 14.92501,-0.11817 m -0.6704,0.32154 c 9.06792,0.23688 19.46896,0.45628 29.82128,1.36069 10.35595,0.90472 19.32868,0.0999 29.40424,0.325 10.07556,0.22513 19.04261,0.92726 28.55111,2.80312 0,0 1e-5,0 1e-5,0 4.75758,0.93859 9.41532,0.69133 13.96854,-0.0356 m -0.36263,-5.36816 c 10.30457,-0.62826 19.11677,0.46601 28.80435,1.40222 9.69099,0.93654 19.56979,0.28201 30.15581,0.85312 10.58601,0.57112 19.33565,-0.99382 29.44486,-3.00624 0,0 0,0 0,0 5.05815,-1.00692 9.524,-1.01222 13.61882,-0.77076 m -0.19565,4.10163 c 10.36568,-0.35872 19.51185,-0.70042 29.98241,-2.09181 10e-6,0 10e-6,0 10e-6,0 10.47423,-1.39188 17.85222,-0.58845 24.97611,-1.74688 7.12389,-1.15842 19.49144,0.31823 29.89174,0.95469 0,0 0,0 0,0 5.20379,0.31845 9.99752,0.3395 14.71059,0.30347 m -6.16399,3.23095 c 8.73146,0.0399 18.78277,-0.001 28.34378,-0.0195 0.003,0.1573 0.007,0.31461 0.01,0.47192 0,0 0,0 0,10e-6 0.18423,9.50634 0.0871,19.54669 0.28437,30.07455 0.19724,10.52785 0.36529,19.05526 1.11719,28.59173 0,0 0,10e-6 0,10e-6 0.37622,4.77157 0.35417,9.25186 0.21604,13.44588 m 1.77409,-3.23249 c -0.47307,9.98732 0.0844,19.7197 0.26456,30.57187 0.18024,10.85598 0.58954,18.61016 1.7875,27.25112 1.19796,8.64096 -0.78014,19.40918 -2.35625,29.6683 0,0 0,0 0,0 -0.78861,5.13316 -0.57444,9.7347 0.0527,14.07947 m 0.41522,-1.57062 c 0.70345,10.12193 0.74043,18.89899 2.21332,28.15455 1.4734,9.2588 -0.009,18.30736 -0.0203,26.33705 -0.0109,8.02969 -1.17989,20.40882 -3.51406,32.63392 0,0 0,10e-6 -10e-6,10e-6 -1.1679,6.11683 -1.12042,10.81661 -0.73351,15.11714 m -1.50171,-0.13025 c -0.80359,10.0479 1.03454,19.35024 3.10866,29.47494 2.07486,10.12824 -0.72658,18.70474 -2.17343,27.5558 -1.44686,8.85106 1.13133,18.39877 3.41249,26.64174 0,0 0,0 0,0 1.14138,4.12437 1.1686,8.86152 0.93755,13.7297 m -6.21964,3.53087 c -0.79363,8.7047 0.56184,18.4834 1.74258,27.2864 -0.10639,-0.01 -0.21282,-0.016 -0.31927,-0.024 -10e-6,0 -10e-6,0 -10e-6,0 -8.33234,-0.6296 -18.4658,0.8223 -26.80424,2.4578 -8.33844,1.6355 -19.73973,-1.2005 -30.66361,-3.5953 -5.46577,-1.1982 -10.2732,-0.9873 -14.94542,-0.2671 m 1.72714,-1.3585 c -8.68898,-0.5951 -18.83754,-0.3248 -27.95293,-0.9541 -9.11857,-0.6296 -18.71321,0.6991 -27.57611,2.0922 -8.86291,1.3931 -18.61665,0.7129 -27.27143,2.1531 0,0 0,0 0,0 -4.33042,0.7206 -9.2854,0.3472 -14.54154,-0.579 m 0.2263,-4.0116 c -8.77018,0.041 -18.96951,0.5618 -28.33878,1.7062 0,0 0,0 0,0 -9.37255,1.1448 -18.94768,0.2902 -28.28705,0.8735 -9.33937,0.5833 -18.40893,-0.6444 -26.66205,-1.95 0,0 -1e-5,0 -1e-5,0 -4.12945,-0.6533 -9.17972,-0.4613 -14.67612,0.085 m -1.83356,0.5243 c -9.43366,0.3383 -20.54529,0.526 -33.0709,1.5637 -12.52999,1.038 -18.36444,-0.1435 -26.51986,-0.4062 -8.15543,-0.2628 -18.76778,-0.1986 -27.738615,-0.6094 -10e-7,0 -3e-6,0 -4e-6,0 -4.488558,-0.2055 -9.337659,-0.065 -14.34113,0.2704 m -0.869251,3.7112 c -10.094279,0.3854 -18.024275,0.095 -25.493637,0.3043 -1e-6,0 -2e-6,0 -2e-6,0 -7.471978,0.2095 -20.29379,-0.6853 -32.308927,-2.0515 -0.937939,-0.1067 -1.844471,-0.193 -2.723145,-0.2609 -1.640793,-9.5817 0.604148,-16.5937 0.889226,-24.2314 0.154717,-4.14514 0.02508,-9.08727 -0.253917,-14.35784 m 6.60106,-3.83685 c -0.189756,-8.68835 -0.420992,-18.11503 -1.097305,-25.79944 -1e-6,0 -1e-6,0 -1e-6,-10e-6 -0.676549,-7.6871 -1.136904,-19.93158 -3.270941,-31.21169 -2.134038,-11.28011 0.406235,-18.75081 1.360307,-27.69763 0,0 1e-6,0 1e-6,0 0.477369,-4.47654 0.479829,-9.28167 0.381989,-14.20001 m -2.972219,0.35167 c -0.06811,-9.20935 -0.439349,-18.91644 -1.158371,-28.19577 0,0 0,0 0,0 -0.719273,-9.28258 -0.02798,-19.78418 0.06031,-30.78513 0.08828,-11.00095 -0.834857,-19.28328 -2.356879,-29.28201 0,0 -10e-7,0 -10e-7,0 -0.761544,-5.00287 -0.539976,-9.3476 0.11201,-13.21511 m 5.077355,4.24233 c -0.156017,-8.6758 -0.501539,-19.50383 -1.381715,-29.96352 0,0 0,0 -1e-6,0 -0.880484,-10.46335 -0.890851,-18.49874 -2.519379,-26.92576 -1.628527,-8.42701 0.791225,-20.33356 2.497808,-32.43044 0,0 0,0 1e-6,0 0.853888,-6.05268 0.886698,-10.84274 0.76076,-15.33408 m -3.472197,-1.07338 c 0.567584,-8.9728 0.05386,-18.92657 0.323774,-28.19603 0.270013,-9.27269 -0.547234,-19.2226 -1.524067,-29.07888 0,0 0,0 0,0 -0.08011,-0.80831 -0.144149,-1.61002 -0.19366,-2.40565 8.232257,-0.16334 18.284891,0.43413 27.994607,1.03754 5.292276,0.32888 10.00192,0.35911 14.526238,0.33777 m -30.992143,-0.23655 c 9.310306,-0.31762 18.124297,0.073 25.799149,0.20346 10e-7,0 10e-7,0 2e-6,0 7.67754,0.13055 19.292859,-0.18884 29.322989,-0.58906 10.03013,-0.40022 18.690861,0.45425 27.494862,1.36094 0,0 0,0 0,0 4.40509,0.45366 9.09472,0.39089 13.80032,0.15202 m 0.0482,-2.95447 c 9.23756,0.64274 20.42577,0.91368 32.72578,2.7212 12.30432,1.80815 18.36702,-0.53449 26.54018,-1.625 8.17316,-1.09051 18.65369,-0.47965 27.41361,-1.42188 1e-5,0 1e-5,0 1e-5,0 4.38303,-0.47144 9.20111,-0.28969 14.1646,0.19366 m 0.47623,7.97234 c 9.33197,0.35831 20.11094,0.11563 31.75069,0.36525 0,0 0,0 0,0 11.64383,0.24971 18.91328,-0.68487 28.14486,-2.03125 9.23158,-1.34638 18.01148,0.28187 25.4433,0.85313 0,0 10e-6,0 10e-6,0 3.71851,0.28582 8.63926,0.25808 13.97531,0.13461 m -1.95425,-3.77107 c 9.8525,-0.49332 20.23135,0.12098 32.15639,0.34583 0,0 10e-6,0 10e-6,0 11.92921,0.22493 17.8271,0.13792 24.91517,0.40625 7.08807,0.26833 19.97407,-0.26169 31.37455,-0.79218 0,0 0,0 0,-10e-6 5.70423,-0.26543 10.32597,-0.23938 14.57113,-0.12185 m 5.1083,-2.45795 c 9.20735,-0.10203 16.98977,-0.0575 25.12696,-0.1149 -0.0397,1.0618 -0.0738,2.12197 -0.0986,3.18001 -0.22087,9.42564 -0.8033,19.67576 -2.41719,30.48081 -1.6139,10.80505 0.29385,19.14715 0.87343,28.87611 0.29,4.86789 0.41684,9.44196 0.59846,13.80117 m -4.64111,4.49669 c -0.44574,10.07482 0.50998,19.19411 1.50359,29.00772 0,10e-6 0,10e-6 0,10e-6 0.99396,9.81705 -1.2373,18.72478 -3.69687,27.61674 -2.45958,8.89195 0.0705,19.31763 0.20312,29.38392 0,0 0,0 0,0 0.0664,5.03667 0.0314,9.83152 -0.0535,14.58693 m 1.31328,-2.42395 c 0.38533,9.59372 0.0858,17.44963 0.24335,23.7676 0.15756,6.3202 -0.37714,20.54262 -1.11719,33.04018 -0.74005,12.49756 -0.0112,18.03795 -0.0203,25.54487 0,0 0,0 0,0 -0.005,3.75608 0.0699,8.51681 0.21752,13.52445 m 0.53378,3.73669 c -0.24234,9.33075 1.39764,18.35647 4.16432,26.48975 0,0 0,0 0,1e-5 2.76765,8.13612 -0.44782,18.53486 -1.32031,27.00736 -0.87249,8.4725 -0.42074,18.99737 -1.25937,28.40892 0,0 0,1e-5 0,1e-5 -0.41962,4.70907 -0.29143,9.79231 0.0683,15.2086 m 4.44101,-0.97358 c -0.0843,8.69218 0.0854,17.02848 0.3043,25.51528 -1.0065,-1e-4 -2.01227,0 -3.01768,0.01 -9.26821,0.049 -19.15696,0.2943 -28.89643,0.8735 -9.73946,0.5791 -19.72165,0.047 -30.60267,0.1218 0,0 0,0 0,0 -5.44432,0.038 -9.92692,0.2259 -13.95645,0.5954 m -3.1228,0.8268 c -10.20319,0.304 -19.12113,-0.3147 -28.80446,-0.955 -9.68672,-0.6405 -18.43073,1.1974 -26.70268,3.5953 -8.27195,2.3979 -19.39983,0.3778 -29.64798,1.1172 -1e-5,0 -1e-5,0 -1e-5,0 -5.12766,0.37 -9.90161,0.1879 -14.59586,-0.2702 m 4.36256,-0.5227 c -9.60141,-0.6898 -18.79804,-0.6148 -27.8504,-1.868 -1e-5,0 -1e-5,0 -1e-5,0 -9.05554,-1.2536 -19.35732,-0.035 -29.52611,-0.1016 -10.1688,-0.066 -19.4624,0.5509 -29.8308,1.6453 0,0 0,0 0,0 -5.18783,0.5476 -10.08228,0.4762 -14.99971,0.1993 m -1.06258,-0.9704 c -8.9384,0.6896 -17.88125,0.2578 -25.06829,0.7711 -7.18957,0.5135 -19.70405,0 -30.52143,0.02 -10.81738,0.016 -18.7451,-0.6757 -27.657365,-2.0515 -10e-7,0 -3e-6,0 -4e-6,0 -4.459254,-0.6884 -9.519717,-0.628 -14.95148,-0.3367 m -2.492182,3.4243 c -9.054774,0.067 -19.997263,-0.1957 -31.405669,-0.6095 -11.211085,-0.4066 -18.370459,-0.051 -26.853745,-0.099 0.01483,-0.1688 0.02923,-0.3378 0.04317,-0.5069 0,0 0,0 0,0 0.79042,-9.5877 -0.399291,-18.657 -1.077192,-27.4133 -0.339188,-4.38124 -0.323579,-9.18241 -0.187818,-14.1175 m 1.539059,-0.19756 c 0.736858,-8.77068 0.482569,-19.856 1.603284,-31.01967 0,-1e-5 0,-1e-5 0,-1e-5 1.121106,-11.16758 -0.682785,-18.14767 -1.910005,-25.88982 -1.22722,-7.74214 0.632383,-19.98141 2.050933,-31.37419 0,0 0,0 0,0 0.709772,-5.70038 0.53,-10.19925 0.01089,-14.19828 m 2.010022,-2.35212 c 0.121523,-9.68927 0.100865,-18.94304 0.446118,-28.27652 0,0 0,-10e-6 0,-10e-6 0.345373,-9.33674 -0.664166,-19.18205 -1.869379,-28.99763 -1.205214,-9.81557 -0.557523,-19.86685 -1.503754,-31.02888 0,0 -10e-7,0 -10e-7,0 -0.473447,-5.58492 -0.233384,-10.13852 0.381249,-14.27769 m -0.778055,4.41012 c -0.378008,-9.66956 1.009038,-19.76026 3.148206,-30.73435 0,0 10e-7,0 10e-7,-1e-5 2.139915,-10.97792 0.151518,-18.38864 0.608744,-26.58044 0.457227,-8.1918 -1.072512,-19.63759 -3.067815,-30.33825 -1e-6,0 -1e-6,0 -1e-6,-10e-6 -0.998351,-5.35407 -0.884627,-10.12591 -0.387545,-14.75736 m -2.039723,3.04085 c 0.371496,-10.15643 -0.05611,-20.07379 -0.001,-31.64791 0.05435,-11.41962 -0.01275,-17.78298 0.09629,-24.98019 0.132576,0.0305 0.265185,0.0608 0.39783,0.091 9.686986,2.20194 19.034619,-0.2535 28.551114,-0.77187 1e-6,0 1e-6,0 2e-6,0 4.761579,-0.25937 9.678834,-0.32767 14.747287,-0.39868 m -35.901706,-0.92214 c 9.832424,-0.48052 20.520271,-0.90586 32.989226,-2.70106 1e-6,0 2e-6,0 3e-6,0 12.473319,-1.79583 19.07416,0.30611 28.672988,0.89375 9.598827,0.58764 18.648677,0.98922 27.372987,2.96563 0,0 0,0 0,0 4.36521,0.98889 9.19689,0.62854 14.19706,-0.34044 m 2.33311,1.90407 c 9.59412,-0.40606 18.0345,-0.75023 25.5551,-2.23394 7.52323,-1.48424 19.80914,-0.12885 30.86674,-0.38594 11.05761,-0.25709 18.97659,0.8867 28.3683,2.64062 0,0 1e-5,0 1e-5,0 4.69914,0.87758 9.40979,0.9192 14.08544,0.78164 m -0.84594,-0.35582 c 9.554,-0.71035 18.65403,-0.93355 27.40358,-2.82269 0,0 0,0 0,0 8.75261,-1.88981 18.70671,0.79279 27.5558,2.35625 8.84909,1.56345 19.90162,-0.0758 31.15111,-0.24375 0,0 0,0 1e-5,0 5.62868,-0.0841 10.21955,-0.21194 14.4224,-0.44811 m -2.09638,-4.16274 c 10.1158,0.0876 19.80034,-0.33873 30.81549,-1.01572 10e-6,0 10e-6,0 10e-6,0 11.01901,-0.67721 18.14174,0.9226 25.82924,2.78282 7.68749,1.86021 19.08634,-0.35595 28.71361,-1.07656 0,0 0,0 0,0 4.817,-0.36057 9.81318,-0.25022 15.02674,0.0629 m 1.03704,2.29354 c 8.96337,0.16944 17.27715,-0.29576 26.57709,-0.99849 0.16378,1.16849 0.35124,2.33128 0.56846,3.48984 1.61959,8.63785 -0.17725,19.19611 -0.50781,28.998 -0.33055,9.80188 -0.88197,17.94458 -2.64062,25.2808 -0.87995,3.67068 -0.93893,8.65172 -0.83743,14.12396 m 1.48804,-0.43837 c 0.58077,8.80438 -0.71245,19.55787 -2.13343,30.12624 -1.42146,10.57207 -0.14198,19.4794 -0.40625,29.89174 -0.26426,10.41234 1.53042,19.5666 4.61094,30.11517 0,10e-6 0,10e-6 0,10e-6 1.54134,5.27798 1.43473,9.75366 0.8359,13.81369 m -0.20657,-0.10718 c -0.33872,9.38506 -1.10935,18.70597 -3.3512,27.54594 -2.24264,8.84308 -0.0794,18.16782 -0.24375,25.95112 -0.16433,7.7833 1.30115,20.34809 3.9,32.49174 0,0 0,0 0,0 1.30033,6.07608 1.09972,10.63387 0.37685,14.65493 m -1.14888,1.63215 c -0.14205,10.22284 -0.1565,18.22985 -0.46704,26.12319 0,0 0,0 0,0 -0.31064,7.89611 -0.19466,19.5272 -0.58906,30.03393 -0.3944,10.50673 0.60951,19.519 1.82813,29.97298 0,1e-5 0,1e-5 0,1e-5 0.60973,5.23065 0.56447,10.01559 0.3233,14.70229 m -5.68666,-4.2868 c -0.7105,7.8207 0.68192,16.6841 2.54762,25.5646 -0.96171,0.09 -1.91276,0.1808 -2.85868,0.2683 0,0 0,0 0,0 -7.25646,0.6713 -20.21247,1.1417 -32.08549,3.4328 -11.87301,2.2911 -18.45727,-0.2144 -26.82455,-0.6297 0,0 0,0 0,0 -4.18657,-0.2078 -8.93106,-0.4582 -13.79753,-0.9077 m 2.20308,2.5735 c -9.79834,0.2087 -20.11038,-1.1942 -31.77051,-3.5752 -11.6642,-2.3818 -19.16211,1.1769 -28.91674,3.5141 -9.75462,2.3371 -19.27241,-0.692 -29.24173,-2.0516 -1e-5,0 -1e-5,0 -1e-5,0 -4.98815,-0.6803 -9.65062,-0.776 -14.15618,-0.8012 m -3.47136,1.1259 c -10.06677,-0.2981 -17.34932,-0.9498 -23.48273,-2.8637 0,-10e-5 0,-10e-5 0,-10e-5 -6.13555,-1.9146 -20.29034,0.022 -32.30893,0.041 -12.01859,0.019 -19.06556,0.7725 -28.61205,2.3359 -4.77659,0.7823 -9.22467,0.5458 -13.35048,-0.124 m 6.20506,1.4233 c -9.24335,-0.6833 -19.02011,-0.8693 -28.50078,-2.5993 -1e-5,0 -1e-5,0 -1e-5,0 -9.484,-1.7306 -19.72517,0.8388 -30.60267,2.5391 -10.8775,1.7003 -19.831274,-0.789 -30.907363,-2.3563 -2e-6,0 -4e-6,0 -6e-6,0 -5.541923,-0.7842 -10.300345,-0.734 -14.857834,-0.4366 m 0.07453,1.7776 c -9.607926,0.3712 -18.444686,-0.898 -26.794149,-2.7019 -8.022342,-1.7332 -18.815485,0.7617 -29.255256,2.6722 -0.05505,-0.2978 -0.109496,-0.5965 -0.163129,-0.8965 -1.357288,-7.5931 -0.452848,-19.8816 -1.239692,-31.06952 0,0 0,0 0,0 -0.393697,-5.59786 -0.359608,-10.21232 -0.17301,-14.46768 m 1.421602,0.71996 c -0.297447,-10.11492 0.22692,-18.71508 0.812183,-27.60576 0,0 0,0 0,-1e-5 0.585467,-8.89379 -0.934593,-18.68622 -2.681879,-27.47419 -1.747287,-8.78797 0.371232,-19.91885 1.279057,-31.17106 0,-1e-5 0,-1e-5 1e-6,-1e-5 0.45423,-5.63005 0.334083,-9.97909 -0.0023,-13.69959 m 0.235101,-2.16002 c -0.494368,-9.53321 -1.075948,-18.08867 -3.08761,-25.71731 0,0 0,0 -10e-7,0 -2.012364,-7.63131 -0.314112,-19.6835 -0.813128,-30.50076 -0.499016,-10.81725 0.865368,-19.07175 2.76187,-28.632 0,0 0,-10e-6 1e-6,-10e-6 0.948914,-4.78347 1.015966,-9.4244 0.934244,-13.93728 m -1.73664,-1.90248 c 0.250168,-9.97338 0.421618,-19.28064 1.40067,-29.29185 0,0 1e-6,0 1e-6,0 0.979394,-10.01471 -0.373153,-17.95754 -0.955318,-25.28044 -0.582164,-7.3229 0.371165,-19.43196 1.279058,-29.72888 0,0 0,0 0,-10e-6 0.454265,-5.15206 0.212361,-9.912 -0.368021,-14.57021 m -0.454111,5.27221 c 0.797673,-8.89955 0.459463,-20.49257 1.52197,-32.92892 1.025074,-11.9982 -1.313416,-18.1914 -4.025728,-26.43185 0.240407,0.0348 0.480306,0.0669 0.719846,0.0957 6.7347,0.81169 20.049702,0.7542 31.597988,2.275 1e-6,0 2e-6,0 3e-6,0 5.778186,0.76093 10.629198,0.72004 15.316305,0.45088 m -33.945348,-2.72601 c 10.189011,-0.12144 18.175082,0.31688 25.981038,0.93451 10e-7,0 2e-6,0 4e-6,0 7.808688,0.61783 19.141594,-1.07569 28.835487,-3.25 9.693892,-2.17432 19.142819,1.35667 28.876109,4.08281 0,0 1e-5,0 1e-5,0 4.87005,1.36402 9.5265,1.04234 14.05095,0.0574 m 0.42708,-2.49492 c 9.04758,-0.0132 19.37731,0.42091 29.55723,1.23908 1e-5,0 1e-5,0 1e-5,0 10.18349,0.81846 19.27789,-0.43015 29.26205,-1.27969 9.98415,-0.84953 18.85079,-0.84114 28.00267,-2.49843 0,0 1e-5,0 1e-5,0 4.57914,-0.82923 9.48483,-0.78594 14.5804,-0.49596 m 0.58819,8.13378 c 8.98681,0.31039 19.46234,-0.75458 29.82136,-2.25501 0,0 10e-6,0 10e-6,0 10.36264,-1.50096 18.49829,-0.65163 26.9058,-1.95 8.4075,-1.29838 18.90718,0.73768 28.16517,2.23437 0,0 0,0 0,0 4.63224,0.74887 9.45051,0.85295 14.35433,0.87287 m -1.35946,-5.19959 c 8.71666,-0.14804 19.76122,0.93891 30.69509,2.80328 0,10e-6 0,10e-6 10e-6,10e-6 10.93769,1.86502 18.72701,-0.4244 27.59642,-1.25938 8.86941,-0.83498 19.03699,0.87337 28.55111,2.62031 4.7604,0.87409 9.60376,0.54327 14.52369,-0.33392 m 1.54009,1.10658 c 8.42523,0.60481 16.13792,-0.10741 24.47386,-0.9226 0.1344,1.58573 0.30141,3.16608 0.51701,4.75556 1.15863,8.54197 -0.24362,18.57536 -0.75156,27.16987 -0.50795,8.59451 -0.78745,18.88925 -2.37657,28.08393 -0.79511,4.60056 -0.71592,9.41648 -0.35804,14.3245 m 3.44503,2.79534 c -0.49389,10.17576 -0.68043,18.55621 -2.03074,27.09824 0,0 0,0 0,0 -1.35078,8.54502 0.84914,18.98858 2.55938,28.40893 1.71024,9.42035 -0.58656,19.0254 -1.76719,28.49017 0,0 0,10e-6 0,10e-6 -0.59073,4.73569 -0.59765,9.4602 -0.4636,14.15398 m 0.76889,0.66987 c 0.57452,9.53389 -0.002,18.89336 -6e-4,28.11454 0.001,9.2244 -1.41524,19.12176 -4.26562,28.79487 -2.85039,9.6731 0.82163,18.86189 2.45781,28.00267 0,0 0,0 0,0 0.81866,4.5736 0.57242,9.29247 -0.12405,14.01125 m 3.17092,-4.46954 c -3.7e-4,8.67638 -0.53723,20.16354 -1.60469,31.93419 0,0 0,0 0,0 -1.06782,11.77477 -0.7437,19.02203 -2.23437,28.51049 -1.49067,9.48846 1.11143,18.97395 3.35156,28.34798 0,10e-6 0,10e-6 0,10e-6 1.12085,4.6903 1.21372,9.54862 1.11724,14.52149 m -2.13236,1.2565 c 0.39226,7.3916 0.0146,15.1314 -0.35339,22.4424 -1.81835,-0.1055 -3.63622,-0.2324 -5.44496,-0.3892 -9.9214,-0.8603 -19.64149,-0.2654 -30.33862,-0.7719 -10.69713,-0.5065 -19.58848,0.7786 -30.21674,2.3156 -5.31785,0.7691 -9.93191,0.9125 -14.25711,1.0056 m 2.84524,-1.6146 c -10.02134,0.3793 -20.04037,1.0633 -31.56715,3.1887 -11.53082,2.1261 -17.69961,-0.1098 -24.54955,-0.3047 -6.84994,-0.1948 -20.20781,-0.1104 -32.06518,-0.325 -5.93284,-0.1073 -10.49675,-0.1397 -14.5694,-0.1748 m 0.23366,-0.6588 c -8.95198,-0.8049 -17.97798,-0.7837 -25.35265,-2.3351 -10e-6,0 -10e-6,0 -10e-6,0 -7.37725,-1.552 -20.36123,0.486 -32.53236,1.4625 -12.17113,0.9765 -19.10557,0.1439 -28.73392,0.4265 -10e-6,0 -10e-6,0 -10e-6,0 -4.81755,0.1415 -9.31092,0.032 -13.52034,-0.2235 m -1.58866,-5.1787 c -10.27048,0.8322 -18.68872,1.2047 -27.5247,3.5944 -1e-5,0 -1e-5,0 -1e-5,0 -8.83907,2.3906 -19.08377,-0.7578 -28.67299,-2.275 -9.58921,-1.5172 -19.502543,-0.5719 -29.932356,-1.7062 -2e-6,0 -4e-6,0 -6e-6,0 -5.218558,-0.5676 -9.998887,-0.1474 -14.683769,0.8352 m 7.761606,7.0866 c -9.412543,-0.048 -19.341974,-1.4178 -29.475605,-4.2249 -9.20995,-2.5513 -17.127088,-0.088 -25.133499,1.0758 0.06071,-0.754 0.120516,-1.5211 0.178007,-2.3079 0.62853,-8.6019 -0.650351,-18.9788 -1.788129,-28.3883 0,0 0,0 -10e-7,0 -0.569287,-4.70803 -0.66102,-9.56446 -0.686678,-14.5294 m -2.654617,-2.22366 c 0.404802,-9.24251 -0.755938,-18.00421 -2.133867,-25.45355 -1e-6,0 -1e-6,0 -1e-6,0 -1.378411,-7.45195 -0.524279,-20.10532 -1.442816,-31.76013 -0.918537,-11.65481 1.443122,-19.17481 4.488431,-28.93669 10e-7,-10e-6 10e-7,-10e-6 2e-6,-10e-6 1.523721,-4.88436 1.457797,-9.37163 0.962474,-13.54853 m -2.436383,0.18763 c -0.892747,-9.27011 -0.501019,-18.81263 -1.340316,-27.87071 -1e-6,0 -1e-6,0 -1e-6,0 -0.83959,-9.06124 0.605435,-19.21232 1.949371,-29.07888 1.343937,-9.86656 -1.13494,-18.53855 -3.270941,-27.06794 0,0 0,-10e-6 -10e-7,-10e-6 -1.068748,-4.26768 -1.183438,-9.21827 -1.131307,-14.47768 m 2.277903,-1.05757 c -0.709324,-10.14127 0.829711,-17.74119 2.640741,-24.68073 1e-6,0 1e-6,0 1e-6,0 1.811663,-6.94198 -0.781234,-20.52695 -2.214692,-33.01951 -1.433459,-12.49256 0.573274,-17.86519 1.888432,-25.01638 0,0 0,0 1e-6,0 0.658039,-3.5781 0.619724,-8.49997 0.395307,-13.87164 m -2.55933,-6.61928 c -0.406345,-9.58764 -0.851847,-18.6022 -2.437703,-27.261 -1.447566,-7.90374 0.550683,-16.85617 2.492227,-24.88611 1.023927,0.0633 2.047331,0.13513 3.067124,0.21717 10e-7,0 2e-6,0 3e-6,0 11.651948,0.93736 17.745788,-1.23242 24.651113,-3.67656 3.45508,-1.22292 8.249357,-1.04959 13.399878,-0.4004 m 144.232607,405.22067 -8.04297,0 M 16.628025,728.38283 l -0.03587,-7.17569 m 0.816611,163.36632 -0.03727,-7.45693 m 267.088097,-249.8528 9.50781,0 m 147.55346,400.10777 -8.47656,0"
       id="rect3763"
       inkscape:path-effect="#path-effect2994"
       inkscape:original-d="m 16.122566,627.26373 433.166844,0 0,400.10777 -431.166844,0 z"
       inkscape:connector-curvature="0"
       sodipodi:nodetypes="ccccc" />
    <text
       xml:space="preserve"
       style="font-size:40px;font-style:normal;font-variant:normal;font-weight:normal;font-stretch:normal;line-height:125%;letter-spacing:0px;word-spacing:0px;fill:#000000;fill-opacity:1;stroke:none;font-family:Serif;-inkscape-font-specification:Serif"
       x="584.53107"
       y="349.7562"
       id="text4456"
       sodipodi:linespacing="125%"
       transform="translate(0,308.2677)"><tspan
         sodipodi:role="line"
         id="tspan4458"
         x="584.53107"
         y="349.7562" /></text>
    <text
       xml:space="preserve"
       style="font-size:40px;font-style:normal;font-variant:normal;font-weight:normal;font-stretch:normal;line-height:125%;letter-spacing:0px;word-spacing:0px;fill:#000000;fill-opacity:1;stroke:none;font-family:Serif;-inkscape-font-specification:Serif"
       x="583.57141"
       y="345.21054"
       id="text4460"
       sodipodi:linespacing="125%"
       transform="translate(0,308.2677)"><tspan
         sodipodi:role="line"
         id="tspan4462"
         x="583.57141"
         y="345.21054" /></text>
    <text
       xml:space="preserve"
       style="font-size:79.81760406px;font-style:normal;font-variant:normal;font-weight:normal;font-stretch:normal;line-height:125%;letter-spacing:0px;word-spacing:0px;fill:#000000;fill-opacity:1;stroke:none;font-family:Serif;-inkscape-font-specification:Serif"
       x="50.176643"
       y="727.72955"
       id="text4435"
       sodipodi:linespacing="125%"><tspan
         sodipodi:role="line"
         id="tspan4437"
         x="50.176643"
         y="727.72955"
         style="font-size:40px;font-style:normal;font-variant:normal;font-weight:normal;font-stretch:normal;font-family:Andale Mono;-inkscape-font-specification:Andale Mono">val c = spawn {</tspan><tspan
         sodipodi:role="line"
         x="50.176643"
         y="777.72955"
         style="font-size:40px;font-style:normal;font-variant:normal;font-weight:normal;font-stretch:normal;font-family:Andale Mono;-inkscape-font-specification:Andale Mono"
         id="tspan3001">  _.onEvent {</tspan><tspan
         sodipodi:role="line"
         x="50.176643"
         y="827.72955"
         style="font-size:40px;font-style:normal;font-variant:normal;font-weight:normal;font-stretch:normal;font-family:Andale Mono;-inkscape-font-specification:Andale Mono"
         id="tspan3005">    println</tspan><tspan
         sodipodi:role="line"
         x="50.176643"
         y="877.72955"
         style="font-size:40px;font-style:normal;font-variant:normal;font-weight:normal;font-stretch:normal;font-family:Andale Mono;-inkscape-font-specification:Andale Mono"
         id="tspan3007">  }</tspan><tspan
         sodipodi:role="line"
         x="50.176643"
         y="927.72955"
         style="font-size:40px;font-style:normal;font-variant:normal;font-weight:normal;font-stretch:normal;font-family:Andale Mono;-inkscape-font-specification:Andale Mono"
         id="tspan3003">}</tspan><tspan
         sodipodi:role="line"
         x="50.176643"
         y="977.72955"
         style="font-size:40px;font-style:normal;font-variant:normal;font-weight:normal;font-stretch:normal;font-family:Andale Mono;-inkscape-font-specification:Andale Mono"
         id="tspan3009">c ! 7</tspan></text>
  </g>
</svg>
