<?xml version="1.0" encoding="UTF-8" standalone="no"?>
<!-- Created with Inkscape (http://www.inkscape.org/) -->

<svg
   xmlns:dc="http://purl.org/dc/elements/1.1/"
   xmlns:cc="http://creativecommons.org/ns#"
   xmlns:rdf="http://www.w3.org/1999/02/22-rdf-syntax-ns#"
   xmlns:svg="http://www.w3.org/2000/svg"
   xmlns="http://www.w3.org/2000/svg"
   xmlns:sodipodi="http://sodipodi.sourceforge.net/DTD/sodipodi-0.dtd"
   xmlns:inkscape="http://www.inkscape.org/namespaces/inkscape"
   width="2000"
   height="1000"
   id="svg2"
   version="1.1"
   inkscape:version="0.48.4 r9939"
   sodipodi:docname="server-two-way-2.svg">
  <sodipodi:namedview
     id="base"
     pagecolor="#ffffff"
     bordercolor="#666666"
     borderopacity="1.0"
     inkscape:pageopacity="0.0"
     inkscape:pageshadow="2"
     inkscape:zoom="0.70710678"
     inkscape:cx="800.82367"
     inkscape:cy="555.76161"
     inkscape:document-units="px"
     inkscape:current-layer="layer1"
     showgrid="false"
     inkscape:window-width="3436"
     inkscape:window-height="1404"
     inkscape:window-x="1680"
     inkscape:window-y="16"
     inkscape:window-maximized="0"
     showguides="true"
     inkscape:guide-bbox="true" />
  <defs
     id="defs4">
    <inkscape:path-effect
       tgtlength_rdm="0.3;1"
       tgtlength="2"
       tgtscale="10"
       tgt_places_rdmness="1;1"
       nbtangents="5"
       tremble_frequency="1.5"
       tremble_size="4;1"
       parallel_offset="4;1"
       ends_tolerance="0.1;1"
       strokeoverlap_rdm="0.3;1"
       strokeoverlap="0.3"
       strokelength_rdm="0.2;1"
       strokelength="100"
       nbiter_approxstrokes="9"
       is_visible="true"
       id="path-effect4347"
       effect="sketch" />
    <inkscape:path-effect
       tgtlength_rdm="0;1"
       tgtlength="2"
       tgtscale="15"
       tgt_places_rdmness="1;1"
       nbtangents="7"
       tremble_frequency="2.5"
       tremble_size="6;1"
       parallel_offset="1;1"
       ends_tolerance="0;1673142386"
       strokeoverlap_rdm="0.3;1"
       strokeoverlap="0.1"
       strokelength_rdm="0;1"
       strokelength="75"
       nbiter_approxstrokes="15"
       is_visible="true"
       id="path-effect4319"
       effect="sketch" />
    <inkscape:path-effect
       effect="sketch"
       id="path-effect4307"
       is_visible="true"
       nbiter_approxstrokes="6"
       strokelength="100"
       strokelength_rdm="0.3;1"
       strokeoverlap="0.1"
       strokeoverlap_rdm="0.3;1"
       ends_tolerance="0;1"
       parallel_offset="3;1"
       tremble_size="3;1"
       tremble_frequency="1.5"
       nbtangents="5"
       tgt_places_rdmness="1;1"
       tgtscale="10"
       tgtlength="2"
       tgtlength_rdm="0.3;1" />
    <inkscape:path-effect
       effect="sketch"
       id="path-effect4305"
       is_visible="true"
       nbiter_approxstrokes="8"
       strokelength="100"
       strokelength_rdm="0.3;1"
       strokeoverlap="0.3"
       strokeoverlap_rdm="0.3;1"
       ends_tolerance="0;1"
       parallel_offset="3;1"
       tremble_size="3;1"
       tremble_frequency="1"
       nbtangents="5"
       tgt_places_rdmness="1;1"
       tgtscale="10"
       tgtlength="2"
       tgtlength_rdm="0.3;1" />
    <inkscape:path-effect
       effect="sketch"
       id="path-effect4299"
       is_visible="true"
       nbiter_approxstrokes="8"
       strokelength="100"
       strokelength_rdm="0.3;1"
       strokeoverlap="0"
       strokeoverlap_rdm="0.3;1"
       ends_tolerance="0;1"
       parallel_offset="3;1"
       tremble_size="3;1"
       tremble_frequency="2"
       nbtangents="5"
       tgt_places_rdmness="1;1"
       tgtscale="10"
       tgtlength="2"
       tgtlength_rdm="0.3;1" />
    <inkscape:path-effect
       effect="sketch"
       id="path-effect4291"
       is_visible="true"
       nbiter_approxstrokes="8"
       strokelength="100"
       strokelength_rdm="0.2;1"
       strokeoverlap="0.3"
       strokeoverlap_rdm="0.3;1"
       ends_tolerance="0.1;1"
       parallel_offset="3.2;1"
       tremble_size="3.9;1"
       tremble_frequency="1.5"
       nbtangents="5"
       tgt_places_rdmness="1;1"
       tgtscale="10"
       tgtlength="2"
       tgtlength_rdm="0.3;1" />
    <inkscape:path-effect
       effect="sketch"
       id="path-effect3933"
       is_visible="true"
       nbiter_approxstrokes="5"
       strokelength="100"
       strokelength_rdm="0.3;2266596941"
       strokeoverlap="0.3"
       strokeoverlap_rdm="0.3;536815912"
       ends_tolerance="0.1;1369666834"
       parallel_offset="5;1"
       tremble_size="5;2227883158"
       tremble_frequency="1"
       nbtangents="5"
       tgt_places_rdmness="1;2606710485"
       tgtscale="10"
       tgtlength="100"
       tgtlength_rdm="0.3;1432393704" />
    <inkscape:path-effect
       effect="sketch"
       id="path-effect8877"
       is_visible="true"
       nbiter_approxstrokes="15"
       strokelength="75"
       strokelength_rdm="0;1"
       strokeoverlap="0.1"
       strokeoverlap_rdm="0.3;1"
       ends_tolerance="0;1673142386"
       parallel_offset="1;1"
       tremble_size="6;1"
       tremble_frequency="2.5"
       nbtangents="7"
       tgt_places_rdmness="1;1"
       tgtscale="15"
       tgtlength="2"
       tgtlength_rdm="0;1" />
    <inkscape:path-effect
       tgtlength_rdm="0;1"
       tgtlength="2"
       tgtscale="15"
       tgt_places_rdmness="1;1"
       nbtangents="7"
       tremble_frequency="3.5"
       tremble_size="2;1"
       parallel_offset="1;1"
       ends_tolerance="0;1673142386"
       strokeoverlap_rdm="0.3;1"
       strokeoverlap="0.1"
       strokelength_rdm="1;1"
       strokelength="75"
       nbiter_approxstrokes="7"
       is_visible="true"
       id="path-effect8873"
       effect="sketch" />
    <inkscape:path-effect
       effect="sketch"
       id="path-effect8871"
       is_visible="true"
       nbiter_approxstrokes="7"
       strokelength="75"
       strokelength_rdm="1;1"
       strokeoverlap="0.1"
       strokeoverlap_rdm="0.3;1"
       ends_tolerance="0;1673142386"
       parallel_offset="1;1"
       tremble_size="2;1"
       tremble_frequency="3.5"
       nbtangents="7"
       tgt_places_rdmness="1;1"
       tgtscale="15"
       tgtlength="2"
       tgtlength_rdm="0;1" />
    <inkscape:path-effect
       effect="sketch"
       id="path-effect8838"
       is_visible="true"
       nbiter_approxstrokes="15"
       strokelength="75"
       strokelength_rdm="0;1"
       strokeoverlap="0.1"
       strokeoverlap_rdm="0.3;1"
       ends_tolerance="0;1673142386"
       parallel_offset="1;1"
       tremble_size="6;1"
       tremble_frequency="2.5"
       nbtangents="7"
       tgt_places_rdmness="1;1"
       tgtscale="15"
       tgtlength="2"
       tgtlength_rdm="0;1" />
    <inkscape:path-effect
       tgtlength_rdm="0.3;1"
       tgtlength="5"
       tgtscale="50"
       tgt_places_rdmness="1;1"
       nbtangents="5"
       tremble_frequency="2"
       tremble_size="3.5;1"
       parallel_offset="2;1"
       ends_tolerance="0.1;1"
       strokeoverlap_rdm="0.3;1"
       strokeoverlap="0.3"
       strokelength_rdm="0.3;1"
       strokelength="100"
       nbiter_approxstrokes="6"
       is_visible="true"
       id="path-effect7663"
       effect="sketch" />
    <inkscape:path-effect
       effect="sketch"
       id="path-effect6759"
       is_visible="true"
       nbiter_approxstrokes="50"
       strokelength="100"
       strokelength_rdm="0.3;1"
       strokeoverlap="0.3"
       strokeoverlap_rdm="0.3;1"
       ends_tolerance="0.1;1"
       parallel_offset="5;1"
       tremble_size="10;1"
       tremble_frequency="1"
       nbtangents="5"
       tgt_places_rdmness="1;1"
       tgtscale="10"
       tgtlength="0"
       tgtlength_rdm="0.3;1" />
    <inkscape:path-effect
       effect="sketch"
       id="path-effect6755"
       is_visible="true"
       nbiter_approxstrokes="25"
       strokelength="100"
       strokelength_rdm="0.3;1"
       strokeoverlap="0.3"
       strokeoverlap_rdm="0.3;1"
       ends_tolerance="0.1;1"
       parallel_offset="5;1"
       tremble_size="12;1"
       tremble_frequency="1"
       nbtangents="5"
       tgt_places_rdmness="1;1"
       tgtscale="10"
       tgtlength="100"
       tgtlength_rdm="0.3;1" />
    <inkscape:path-effect
       tgtlength_rdm="0.3;1"
       tgtlength="5"
       tgtscale="50"
       tgt_places_rdmness="1;1"
       nbtangents="5"
       tremble_frequency="2"
       tremble_size="3.5;1"
       parallel_offset="2;1"
       ends_tolerance="0.1;1"
       strokeoverlap_rdm="0.3;1"
       strokeoverlap="0.3"
       strokelength_rdm="0.3;1"
       strokelength="100"
       nbiter_approxstrokes="6"
       is_visible="true"
       id="path-effect6695"
       effect="sketch" />
    <inkscape:path-effect
       tgtlength_rdm="0;1"
       tgtlength="2"
       tgtscale="15"
       tgt_places_rdmness="1;1"
       nbtangents="7"
       tremble_frequency="3.5"
       tremble_size="2;1"
       parallel_offset="1;1"
       ends_tolerance="0;1673142386"
       strokeoverlap_rdm="0.3;1"
       strokeoverlap="0.1"
       strokelength_rdm="1;1"
       strokelength="75"
       nbiter_approxstrokes="7"
       is_visible="true"
       id="path-effect6642"
       effect="sketch" />
    <inkscape:path-effect
       effect="sketch"
       id="path-effect6640"
       is_visible="true"
       nbiter_approxstrokes="7"
       strokelength="75"
       strokelength_rdm="1;1"
       strokeoverlap="0.1"
       strokeoverlap_rdm="0.3;1"
       ends_tolerance="0;1673142386"
       parallel_offset="1;1"
       tremble_size="2;1"
       tremble_frequency="3.5"
       nbtangents="7"
       tgt_places_rdmness="1;1"
       tgtscale="15"
       tgtlength="2"
       tgtlength_rdm="0;1" />
    <inkscape:path-effect
       tgtlength_rdm="0;1"
       tgtlength="2"
       tgtscale="15"
       tgt_places_rdmness="1;1"
       nbtangents="7"
       tremble_frequency="2.5"
       tremble_size="4;1"
       parallel_offset="1;1"
       ends_tolerance="0;1673142386"
       strokeoverlap_rdm="0.3;1"
       strokeoverlap="0.1"
       strokelength_rdm="0;1"
       strokelength="75"
       nbiter_approxstrokes="15"
       is_visible="true"
       id="path-effect6638"
       effect="sketch" />
    <inkscape:path-effect
       effect="sketch"
       id="path-effect6630"
       is_visible="true"
       nbiter_approxstrokes="7"
       strokelength="75"
       strokelength_rdm="1;1"
       strokeoverlap="0.1"
       strokeoverlap_rdm="0.3;1"
       ends_tolerance="0;1673142386"
       parallel_offset="1;1"
       tremble_size="2;1"
       tremble_frequency="3.5"
       nbtangents="7"
       tgt_places_rdmness="1;1"
       tgtscale="15"
       tgtlength="2"
       tgtlength_rdm="0;1" />
    <inkscape:path-effect
       tgtlength_rdm="0;1"
       tgtlength="2"
       tgtscale="15"
       tgt_places_rdmness="1;1"
       nbtangents="7"
       tremble_frequency="3.5"
       tremble_size="2;1"
       parallel_offset="1;1"
       ends_tolerance="0;1673142386"
       strokeoverlap_rdm="0.3;1"
       strokeoverlap="0.1"
       strokelength_rdm="1;1"
       strokelength="75"
       nbiter_approxstrokes="7"
       is_visible="true"
       id="path-effect6626"
       effect="sketch" />
    <inkscape:path-effect
       tgtlength_rdm="0.3;1"
       tgtlength="100"
       tgtscale="15"
       tgt_places_rdmness="1;1"
       nbtangents="11"
       tremble_frequency="3"
       tremble_size="5;1"
       parallel_offset="1;1"
       ends_tolerance="0.3;1"
       strokeoverlap_rdm="0.3;1"
       strokeoverlap="0.3"
       strokelength_rdm="1;1"
       strokelength="109"
       nbiter_approxstrokes="6"
       is_visible="true"
       id="path-effect6622"
       effect="sketch" />
    <marker
       inkscape:stockid="TriangleOutL"
       orient="auto"
       refY="0"
       refX="0"
       id="TriangleOutL"
       style="overflow:visible">
      <path
         id="path3903"
         d="m 5.77,0 -8.65,5 0,-10 8.65,5 z"
         style="fill-rule:evenodd;stroke:#000000;stroke-width:1pt"
         transform="scale(0.8,0.8)"
         inkscape:connector-curvature="0" />
    </marker>
    <marker
       inkscape:stockid="Arrow1Lend"
       orient="auto"
       refY="0"
       refX="0"
       id="Arrow1Lend"
       style="overflow:visible">
      <path
         id="path3764"
         d="M 0,0 5,-5 -12.5,0 5,5 0,0 z"
         style="fill-rule:evenodd;stroke:#000000;stroke-width:1pt"
         transform="matrix(-0.8,0,0,-0.8,-10,0)"
         inkscape:connector-curvature="0" />
    </marker>
    <inkscape:path-effect
       effect="sketch"
       id="path-effect4374"
       is_visible="true"
       nbiter_approxstrokes="15"
       strokelength="75"
       strokelength_rdm="1;1"
       strokeoverlap="0.1"
       strokeoverlap_rdm="0.3;1"
       ends_tolerance="0;1673142386"
       parallel_offset="1;1"
       tremble_size="4;1"
       tremble_frequency="3.5"
       nbtangents="7"
       tgt_places_rdmness="1;1"
       tgtscale="15"
       tgtlength="2"
       tgtlength_rdm="0;1" />
    <inkscape:path-effect
       effect="sketch"
       id="path-effect4372"
       is_visible="true"
       nbiter_approxstrokes="6"
       strokelength="100"
       strokelength_rdm="0.3;1"
       strokeoverlap="0.3"
       strokeoverlap_rdm="0.3;1"
       ends_tolerance="0.1;1"
       parallel_offset="2;1"
       tremble_size="3.5;1"
       tremble_frequency="2"
       nbtangents="5"
       tgt_places_rdmness="1;1"
       tgtscale="50"
       tgtlength="5"
       tgtlength_rdm="0.3;1" />
    <marker
       inkscape:stockid="Arrow1Mend"
       orient="auto"
       refY="0"
       refX="0"
       id="Arrow1Mend"
       style="overflow:visible">
      <path
         id="path3770"
         d="M 0,0 5,-5 -12.5,0 5,5 0,0 z"
         style="fill-rule:evenodd;stroke:#000000;stroke-width:1pt"
         transform="matrix(-0.4,0,0,-0.4,-4,0)"
         inkscape:connector-curvature="0" />
    </marker>
    <marker
       inkscape:stockid="Arrow1MendU"
       orient="auto"
       refY="0"
       refX="0"
       id="Arrow1MendU"
       style="overflow:visible">
      <path
         id="path4214"
         d="M 0,0 5,-5 -12.5,0 5,5 0,0 z"
         style="fill:#373737;fill-rule:evenodd;stroke:#373737;stroke-width:1pt"
         transform="matrix(-0.4,0,0,-0.4,-4,0)"
         inkscape:connector-curvature="0" />
    </marker>
    <marker
       inkscape:stockid="Arrow1Mend8"
       orient="auto"
       refY="0"
       refX="0"
       id="Arrow1Mend8"
       style="overflow:visible">
      <path
         id="path4217"
         d="M 0,0 5,-5 -12.5,0 5,5 0,0 z"
         style="fill:#373737;fill-rule:evenodd;stroke:#373737;stroke-width:1pt"
         transform="matrix(-0.4,0,0,-0.4,-4,0)"
         inkscape:connector-curvature="0" />
    </marker>
    <marker
       inkscape:stockid="Arrow1MendO"
       orient="auto"
       refY="0"
       refX="0"
       id="Arrow1MendO"
       style="overflow:visible">
      <path
         id="path4220"
         d="M 0,0 5,-5 -12.5,0 5,5 0,0 z"
         style="fill:#373737;fill-rule:evenodd;stroke:#373737;stroke-width:1pt"
         transform="matrix(-0.4,0,0,-0.4,-4,0)"
         inkscape:connector-curvature="0" />
    </marker>
    <marker
       inkscape:stockid="Arrow1MendP"
       orient="auto"
       refY="0"
       refX="0"
       id="Arrow1MendP"
       style="overflow:visible">
      <path
         id="path4223"
         d="M 0,0 5,-5 -12.5,0 5,5 0,0 z"
         style="fill:#373737;fill-rule:evenodd;stroke:#373737;stroke-width:1pt"
         transform="matrix(-0.4,0,0,-0.4,-4,0)"
         inkscape:connector-curvature="0" />
    </marker>
    <marker
       inkscape:stockid="Arrow1Mendm"
       orient="auto"
       refY="0"
       refX="0"
       id="Arrow1Mendm"
       style="overflow:visible">
      <path
         id="path4226"
         d="M 0,0 5,-5 -12.5,0 5,5 0,0 z"
         style="fill:#373737;fill-rule:evenodd;stroke:#373737;stroke-width:1pt"
         transform="matrix(-0.4,0,0,-0.4,-4,0)"
         inkscape:connector-curvature="0" />
    </marker>
    <marker
       inkscape:stockid="Arrow1MendUk"
       orient="auto"
       refY="0"
       refX="0"
       id="Arrow1MendUk"
       style="overflow:visible">
      <path
         id="path4274"
         d="M 0,0 5,-5 -12.5,0 5,5 0,0 z"
         style="fill:#585858;fill-rule:evenodd;stroke:#585858;stroke-width:1pt"
         transform="matrix(-0.4,0,0,-0.4,-4,0)"
         inkscape:connector-curvature="0" />
    </marker>
    <marker
       inkscape:stockid="Arrow1Mend8H"
       orient="auto"
       refY="0"
       refX="0"
       id="Arrow1Mend8H"
       style="overflow:visible">
      <path
         id="path4277"
         d="M 0,0 5,-5 -12.5,0 5,5 0,0 z"
         style="fill:#585858;fill-rule:evenodd;stroke:#585858;stroke-width:1pt"
         transform="matrix(-0.4,0,0,-0.4,-4,0)"
         inkscape:connector-curvature="0" />
    </marker>
    <marker
       inkscape:stockid="Arrow1MendOg"
       orient="auto"
       refY="0"
       refX="0"
       id="Arrow1MendOg"
       style="overflow:visible">
      <path
         id="path4280"
         d="M 0,0 5,-5 -12.5,0 5,5 0,0 z"
         style="fill:#585858;fill-rule:evenodd;stroke:#585858;stroke-width:1pt"
         transform="matrix(-0.4,0,0,-0.4,-4,0)"
         inkscape:connector-curvature="0" />
    </marker>
    <marker
       inkscape:stockid="Arrow1MendP6"
       orient="auto"
       refY="0"
       refX="0"
       id="Arrow1MendP6"
       style="overflow:visible">
      <path
         id="path4283"
         d="M 0,0 5,-5 -12.5,0 5,5 0,0 z"
         style="fill:#585858;fill-rule:evenodd;stroke:#585858;stroke-width:1pt"
         transform="matrix(-0.4,0,0,-0.4,-4,0)"
         inkscape:connector-curvature="0" />
    </marker>
    <marker
       inkscape:stockid="Arrow1MendmO"
       orient="auto"
       refY="0"
       refX="0"
       id="Arrow1MendmO"
       style="overflow:visible">
      <path
         id="path4286"
         d="M 0,0 5,-5 -12.5,0 5,5 0,0 z"
         style="fill:#585858;fill-rule:evenodd;stroke:#585858;stroke-width:1pt"
         transform="matrix(-0.4,0,0,-0.4,-4,0)"
         inkscape:connector-curvature="0" />
    </marker>
  </defs>
  <metadata
     id="metadata7">
    <rdf:RDF>
      <cc:Work
         rdf:about="">
        <dc:format>image/svg+xml</dc:format>
        <dc:type
           rdf:resource="http://purl.org/dc/dcmitype/StillImage" />
        <dc:title></dc:title>
      </cc:Work>
    </rdf:RDF>
  </metadata>
  <g
     inkscape:label="Layer 1"
     inkscape:groupmode="layer"
     id="layer1"
     transform="translate(0,-52.36218)">
    <text
       xml:space="preserve"
       style="font-size:108.14710999px;font-style:normal;font-variant:normal;font-weight:normal;font-stretch:normal;line-height:125%;letter-spacing:0px;word-spacing:0px;fill:#000000;fill-opacity:1;stroke:none;font-family:Serif;-inkscape-font-specification:Serif"
       x="1491.0638"
       y="188.49561"
       id="text4367"
       sodipodi:linespacing="125%"><tspan
         sodipodi:role="line"
         id="tspan4369"
         x="1491.0638"
         y="188.49561"
         style="font-style:normal;font-variant:normal;font-weight:normal;font-stretch:normal;font-family:Sketch Block;-inkscape-font-specification:Sketch Block">two way</tspan><tspan
         sodipodi:role="line"
         x="1491.0638"
         y="323.6795"
         style="font-style:normal;font-variant:normal;font-weight:normal;font-stretch:normal;font-family:Sketch Block;-inkscape-font-specification:Sketch Block"
         id="tspan8879">server</tspan></text>
    <g
       id="g8032"
       transform="matrix(0.32050054,-0.94724833,0.94724833,0.32050054,972.99891,1413.825)">
      <g
         id="g8034">
        <path
           inkscape:connector-curvature="0"
           id="path8836"
           d="m 539.75359,329.76211 c 11.23322,-4.54076 18.37653,-6.38657 26.67658,-9.64331 10e-6,0 10e-6,0 10e-6,0 8.30282,-3.25781 17.95313,-7.4096 25.46907,-12.60097 3.76047,-2.59742 8.79196,-4.09534 14.35103,-5.23746 m -7.51904,0.8089 c 7.73966,-3.88674 19.29569,-8.09642 29.53946,-14.61271 10.24718,-6.51845 19.61312,-5.41399 30.34406,-6.69472 0,0 10e-6,0 10e-6,0 5.36905,-0.6408 10.29026,-2.0618 15.24538,-3.54314 m -7.55449,1.27333 c 8.27156,-4.18264 21.59273,-7.36154 36.42955,-12.54992 14.84177,-5.19011 16.61897,-3.66691 21.4847,-1.44473 0,0 0,0 0,0 2.43449,1.11183 7.73002,-1.26453 14.15746,-5.08742 m -8.92419,-4.62951 c 8.30235,-3.18404 20.98725,-6.96996 34.50764,-11.33216 10e-6,0 10e-6,0 10e-6,0 13.5249,-4.36366 19.33396,-5.31211 29.54719,-6.31973 5.11002,-0.50414 9.40792,-1.56533 13.16564,-2.35527 m -3.2545,5.52975 c 10.54684,-2.45156 18.33995,-7.98868 26.67727,-14.42665 8.3401,-6.44011 18.29688,-7.6417 26.50032,-13.39785 0,0 0,0 0,0 4.10446,-2.87999 9.21035,-4.07999 14.8321,-4.55072 m -3.34356,10.28219 c 11.43642,-2.62229 18.99506,-6.69098 28.50451,-10.53585 9.51261,-3.84615 17.06729,-8.08982 22.70344,-14.71035 0,0 0,0 0,0 2.81996,-3.31247 7.52743,-5.20743 12.67263,-6.97363 m -7.6876,0.32832 c 10.98501,-2.8223 20.45048,-2.5215 32.95808,2.07372 12.51177,4.59675 19.74022,-9.96836 30.85969,-20.38222 10e-6,0 10e-6,0 10e-6,-1e-5 5.56344,-5.2104 9.88206,-5.99277 13.57785,-5.06191 m -5.85931,8.80763 c 9.70381,-4.29123 17.37011,-6.46182 23.77181,-9.73731 6.4039,-3.27658 19.533,-7.4794 30.2035,-12.88222 0,0 0,-1e-5 0,-1e-5 5.3388,-2.70321 10.479,-3.99209 15.8738,-4.69815 m -0.643,6.97171 c 10.2509,-2.37424 18.9928,-8.99109 28.5995,-17.42672 9.6098,-8.43845 17.9029,-6.01295 25.2815,-8.47598 0,0 0,0 0,0 3.6918,-1.23234 8.6115,-2.29173 13.9793,-2.89873 m -12.7514,1.6275 c 9.6908,-2.84119 21.2788,-7.46833 35.4906,-12.78563 14.2165,-5.31908 16.7162,-5.75628 21.6722,-7.63223 0,0 0,0 0,0 2.4796,-0.9386 7.8216,-2.74685 14.3314,-4.928207 m -3.4575,8.862397 c 10.001,-3.66814 18.6142,-7.77544 27.4278,-13.769181 8.8166,-5.995738 18.5577,-8.208143 27.2972,-14.944724 0,0 0,-10e-7 0,-2e-6 4.3726,-3.370537 9.3772,-4.738404 14.7464,-5.440334 m -8.2562,11.749267 c 9.5801,-3.903624 19.0055,-10.018964 28.5532,-20.425196 9.551,-10.409702 20.0321,-2.656277 31.7035,1.649022 0,10e-7 0,10e-7 0,2e-6 5.8395,2.154084 10.832,0.519059 15.799,-2.084833 m -2.7641,-9.134105 c 10.6405,-1.481408 18.5095,-3.45116 27.0522,-0.693244 8.5455,2.758835 19.7191,-7.229606 30.7659,-12.085349 0,-10e-7 0,-10e-7 0,-2e-6 5.5271,-2.42949 10.0126,-3.788179 14.0532,-4.703178 m -7.0765,3.865679 c 10.0484,-4.400615 19.472,-6.751609 30.0996,-10.487198 1.4571,-0.512166 2.879,-0.991132 4.275,-1.441216 M 540.25983,327.28045 c 9.65668,-1.82613 16.815,-5.77949 22.03753,-7.77102 0,0 0,0 0,0 5.22428,-1.9922 20.3973,-9.04024 32.78157,-17.56973 6.19627,-4.26758 10.50231,-6.04738 14.01602,-7.33532 m -8.13632,7.43597 c 10.20456,-3.43217 19.70034,-4.77974 30.70886,-4.81629 11.01219,-0.0366 20.25125,-5.93336 32.31282,-8.2416 0,0 0,0 0,0 6.03481,-1.15489 10.89289,-3.13077 15.54438,-5.59416 m -7.48813,-1.17304 c 7.92573,-3.18425 17.62497,-7.27453 24.42989,-12.22279 6.80719,-4.94991 17.05459,-4.79274 22.7972,-4.81973 0,0 0,0 0,0 2.87321,-0.0135 7.72985,-2.37998 13.17103,-5.90487 m -3.87923,-4.14306 c 10.36181,-4.86828 21.57536,-6.28303 36.23996,-9.26798 0,0 0,0 1e-5,0 14.66948,-2.98595 18.71978,-4.13981 27.67219,-2.75723 4.47918,0.69175 8.46709,-0.73655 11.76989,-2.56641 m -8.62905,1.86454 c 10.92103,-3.81025 18.07336,-10.34717 25.88002,-21.36279 7.80927,-11.01929 19.03314,-6.20211 28.75032,-8.94473 0,0 0,0 0,0 4.86183,-1.37222 10.27857,-2.59153 16.33578,-3.48407 m -12.0157,4.16743 c 11.34432,-4.47683 21.2575,-4.07383 35.30147,-2.659 14.04865,1.41531 19.69355,-6.11232 30.67219,-8.8041 0,0 0,0 1e-5,0 5.49298,-1.34678 9.5951,-3.70174 12.87171,-6.87581 m -6.60288,0.33625 c 10.70227,-4.60258 17.51195,-5.52738 24.19274,-7.01824 6.68302,-1.49137 21.51167,-7.69878 36.15657,-13.53848 0,0 0,0 0,0 7.32733,-2.92179 11.27605,-4.63703 13.79442,-6.1294 m -8.91416,8.76388 c 8.34856,-4.94662 20.07766,-6.81996 31.83576,-10.86165 0,0 0,0 0,0 11.7619,-4.04303 18.9764,-6.37691 28.5159,-9.60097 0,0 0,-1e-5 0,-1e-5 4.7729,-1.6131 9.3003,-3.59666 13.6149,-5.96694 m -10.4978,-2.25972 c 10.6101,-5.16514 19.6366,-7.01258 30.5678,-11.42394 10.9349,-4.41282 19.2725,-6.14149 29.3597,-8.89785 0,0 0,0 0,0 5.047,-1.3791 9.4344,-2.27208 13.3935,-2.51863 m -7.0044,4.41182 c 10.3282,-1.87379 18.0668,-7.05674 25.7868,-11.56786 7.7226,-4.51261 19.464,-5.91106 29.9691,-8.0541 0,0 0,0 0,0 5.256,-1.07223 9.6008,-2.84081 13.4158,-4.90438 m -4.4146,0.39138 c 10.2665,-4.94719 18.9564,-7.667614 28.4588,-13.392906 9.5055,-5.727201 15.4185,-6.813778 17.8284,-10.866599 0,-10e-7 0,-10e-7 0,-2e-6 1.2058,-2.027762 6.8266,-3.064987 14.1992,-3.426835 m -0.6726,1.511458 c 8.582,-1.982541 19.1981,-6.403462 29.2105,-9.552118 10.0157,-3.149705 18.3602,-6.178151 26.5941,-8.944725 0,0 0,-10e-7 0,-10e-7 4.1197,-1.384209 9.1202,-2.376231 14.533,-2.8177 m 0.038,1.418859 c 11.1852,-4.774709 16.6819,-6.32728 21.7078,-9.314949 5.0276,-2.988665 19.2715,-3.521693 29.4535,-0.975977 0,1e-6 0,1e-6 0,1e-6 5.0944,1.273707 9.5375,-0.679854 13.5947,-3.704031 m -4.9644,-2.217617 c 8.8316,-1.686632 19.2113,-7.111787 29.2103,-11.708665 4.0317,-1.853501 7.7208,-3.364095 11.1691,-4.800691 M 533.14863,325.30335 c 7.83346,-2.37142 19.621,-4.75432 30.47686,-4.72361 0,0 0,0 0,0 10.85948,0.0307 18.70022,-8.45648 27.71907,-15.69472 4.51243,-3.62154 9.81415,-4.91758 15.74279,-5.39762 m 0.56727,2.0562 c 9.56212,-3.94665 15.36392,-4.35953 17.67826,-3.4564 0,0 0,0 0,0 2.31511,0.90342 19.27875,-6.44191 29.35969,-9.74161 5.04384,-1.65094 10.46213,-3.54175 16.49222,-5.7095 m -5.71125,-3.4411 c 7.75387,-4.10217 17.21737,-3.65533 23.21132,-1.29999 5.99594,2.35612 20.74229,-6.94732 33.76594,-11.2416 0,0 0,0 0,0 6.51617,-2.14858 11.21674,-4.10518 15.43446,-6.28117 m -4.7883,-4.27301 c 8.78536,-4.82135 20.16751,-6.10483 32.1634,-8.7524 10e-6,0 10e-6,0 10e-6,0 11.99989,-2.64845 16.18375,-7.68419 20.17219,-13.44473 1.99555,-2.88218 6.74972,-4.41778 12.20066,-5.56622 m -1.96543,11.37013 c 7.70887,-2.37193 19.92092,-5.52208 31.41448,-6.92673 11.49739,-1.40512 17.11459,-8.75773 22.93782,-16.6791 0,0 0,0 0,0 2.91356,-3.96332 8.39773,-5.12891 15.08721,-5.26467 m 0.93952,9.38371 c 9.1427,-4.75905 17.999,-6.23207 25.55368,-9.12747 7.55719,-2.89636 20.1377,-7.12627 31.93781,-11.71035 0,0 10e-6,0 10e-6,0 5.90399,-2.29357 10.08563,-3.73219 13.42833,-4.83261 m -10.50458,1.9201 c 10.71989,-1.62454 20.54435,-7.5669 33.2396,-13.0681 0,0 0,0 0,0 12.69948,-5.50303 15.52125,-7.50503 18.10969,-12.9291 0,0 0,0 0,0 1.29509,-2.71384 6.02193,-4.29045 11.59325,-5.56013 m 4.27402,6.38144 c 8.19047,-2.79417 16.94777,-7.12798 22.36717,-11.84818 5.4211,-4.72178 19.9079,-6.49044 31.3753,-9.83535 0,0 0,0 0,0 5.7375,-1.67357 10.9945,-3.41567 16.5182,-5.28634 m -5.4947,9.33953 c 9.487,-4.35439 19.7248,-7.60922 30.7564,-13.25287 11.0353,-5.64553 18.4519,-6.43774 26.9691,-9.78847 0,0 0,-1e-5 0,-1e-5 4.2614,-1.67648 8.4717,-3.34358 12.2805,-5.05867 m -2.5002,-1.44403 c 10.7323,-4.88276 15.8043,-4.62043 19.0365,-4.25233 3.2332,0.36821 19.8791,-5.50773 31.2815,-6.88223 0,0 0,0 0,0 5.705,-0.68771 10.5684,-2.8613 15.3226,-5.8337 m -5.3949,-2.05852 c 10.7652,-2.27894 18.3256,-6.437992 26.6302,-9.692442 8.3074,-3.255535 18.1392,-6.093569 25.9847,-8.71035 0,0 0,-10e-7 0,-10e-7 3.9254,-1.309263 9.3647,-2.87684 15.7083,-4.4873 m -7.0536,-0.114874 c 7.694,-1.920294 20.9614,-6.626645 34.5082,-10.349056 13.5514,-3.723652 18.9284,-5.650025 28.3754,-7.350975 0,0 0,0 0,-10e-7 4.7266,-0.851042 8.9565,-2.826654 12.6704,-5.360002 m -12.7266,0.459041 c 9.5974,-5.022832 21.4894,-4.135841 36.0064,-2.892824 14.5218,1.243431 18.4037,-7.942104 26.8284,-14.194724 0,0 0,-10e-7 0,-2e-6 4.2152,-3.128394 9.1543,-4.249216 14.4186,-4.506785 m -5.6043,1.326768 c 11.4508,-4.742322 17.1525,-4.543682 22.9264,-4.111855 1.883,0.140833 4.7637,-0.503349 8.262,-1.558605 M 537.86145,322.23391 c 9.72048,-1.49813 18.92447,-5.13792 28.3656,-5.80261 0,0 0,0 0,0 9.44427,-0.66491 17.72355,-6.38814 24.81282,-9.50722 3.547,-1.56058 8.47068,-3.16043 13.8708,-4.76526 m 4.06073,-1.15618 c 7.55061,-3.63642 16.50713,-6.97724 21.14902,-11.37859 0,0 0,0 0,0 4.64344,-4.40282 20.62272,-4.84732 33.43782,-4.91348 6.41183,-0.0331 10.716,-1.72935 14.16902,-3.90507 m -4.73338,-0.015 c 8.47184,-4.15093 17.83815,-6.61188 25.17935,-10.25307 7.34364,-3.64241 20.05813,-6.48231 31.79719,-9.83535 0,0 0,0 0,0 5.87345,-1.67763 10.67249,-3.44294 15.24681,-5.3594 m -12.26037,1.53251 c 8.98778,-2.1994 19.61274,-4.10902 30.42883,-2.70815 0,0 0,0 0,0 10.81969,1.40134 19.85146,-8.01649 31.09407,-14.52285 5.62505,-3.25535 9.86393,-4.84499 13.38125,-6.0093 m -5.10854,1.79486 c 7.89407,-2.2954 16.935,-7.72054 22.46117,-13.62993 5.52802,-5.91136 19.25417,-3.90773 29.3597,-2.0541 0,0 0,0 0,0 5.05613,0.92743 9.6347,-0.35355 13.98041,-1.95158 m -3.82078,0.98405 c 8.84761,-2.28108 19.93622,-9.6449 31.36648,-19.25494 11.43406,-9.61325 17.64292,-5.43608 24.57844,-6.74161 0,0 0,0 0,0 3.47007,-0.6532 8.46045,-2.09453 14.0129,-3.61814 m -2.44616,-0.66216 c 8.54985,-5.04002 17.87139,-6.50967 25.17927,-9.92406 0,0 0,0 0,0 7.31032,-3.41554 20.22355,-2.88691 32.31282,0.89902 0,0 0,0 0,0 6.04866,1.89423 10.11052,-0.13167 13.17528,-3.45862 m -13.3546,-5.66214 c 10.9678,-3.94856 18.0958,-7.23477 25.9268,-12.0814 0,0 0,0 0,0 7.8337,-4.84824 19.3334,-7.18731 29.5941,-11.94472 0,0 0,0 0,0 5.1338,-2.38029 9.9642,-3.05613 14.7802,-2.62111 m -4.0302,4.93604 c 7.8021,-2.93389 19.3054,-6.12399 29.4456,-8.70742 10.1437,-2.58429 20.2725,-4.92253 32.3597,-5.2416 0,0 0,0 0,0 6.0477,-0.15964 10.77,-2.33009 15.1392,-5.43293 m -5.7076,-3.43718 c 7.6139,-4.8519 17.8621,-5.11203 25.1802,-5.7055 7.3205,-0.59366 16.8179,-9.21253 22.0472,-18.08535 0,0 0,0 0,0 2.6164,-4.439368 8.0611,-5.094741 14.7406,-4.105388 m -2.5505,1.541907 c 10.3752,-3.510468 18.2725,-5.242037 26.443,-6.175588 8.1733,-0.933863 17.9634,-5.161897 25.516,-5.850976 0,0 0,0 0,0 3.7788,-0.344769 9.188,-1.691286 15.5122,-3.086165 m 1.0626,4.115948 c 10.702,-3.37099 17.2271,-6.614098 23.2552,-10.206978 6.0301,-3.594079 19.9694,-6.803568 31.4222,-10.819725 0,0 0,-10e-7 0,-10e-7 5.7302,-2.009418 9.7636,-3.294226 12.835,-4.165826 m -3.7287,3.59675 c 7.6603,-2.841785 17.3192,-8.354344 23.5395,-15.457509 6.2224,-7.105533 17.7734,-5.584406 24.9535,-7.210351 0,0 0,0 0,0 3.5924,-0.813515 9.0553,-2.128064 15.5351,-3.354579 m -5.262,4.795049 c 8.8801,-1.468507 21.8773,-7.502479 37.3196,-12.787008 4.7466,-1.624337 8.1578,-2.845186 10.7531,-3.847498 M 538.84581,327.0285 c 9.70363,-3.77623 17.05095,-6.11001 22.74061,-8.6597 10e-6,0 10e-6,0 10e-6,0 5.69156,-2.55054 19.65563,-9.15169 30.57844,-17.85097 5.46505,-4.35254 10.70761,-5.62666 16.26877,-5.8954 m -2.6987,3.04455 c 9.28375,-3.99374 18.99372,-4.7946 28.60041,-4.8626 0,0 0,0 0,0 9.6099,-0.068 16.22168,-7.92795 20.26595,-14.19473 2.02348,-3.13548 7.2842,-4.67451 13.75003,-5.77895 m -4.50521,6.04699 c 7.63039,-5.10113 19.19403,-4.59354 29.16456,-4.20525 9.97386,0.38843 21.19709,-8.39169 35.21907,-15.60097 0,0 0,0 0,0 7.01567,-3.60705 11.70975,-4.86821 15.79936,-5.28163 m -14.2645,7.63384 c 8.02049,-2.20241 19.37357,-8.64015 29.72668,-16.25502 10.35656,-7.61741 20.95666,-4.57544 34.37531,-4.1166 1e-5,0 1e-5,0 1e-5,0 6.7138,0.22957 10.86935,-1.8434 13.95547,-4.83639 m -4.93554,-1.00409 c 9.84524,-2.07513 18.86824,-4.89173 28.1311,-5.00515 9.26595,-0.11345 17.47418,-8.42377 24.06282,-15.69472 0,0 0,0 0,0 3.29652,-3.6379 7.71834,-5.2761 12.17916,-6.43946 m -10.05912,12.59947 c 8.50563,-1.29858 21.7432,-9.98987 36.85119,-20.28718 15.11301,-10.30075 18.81833,-5.69712 28.00031,-7.53848 10e-6,0 10e-6,0 10e-6,0 4.59405,-0.92129 8.63591,-2.29194 12.02498,-3.6017 m -3.40893,5.41256 c 8.17496,-1.96814 17.09291,-8.20405 22.8359,-14.94276 5.7449,-6.74096 18.8698,-3.46586 28.23469,-0.83535 0,0 0,0 0,0 4.68557,1.31613 9.29135,-1.2392 13.78438,-5.48429 m -2.7484,-7.39105 c 7.95857,-2.83853 20.16397,-3.47214 32.07047,-0.83251 11.9105,2.64051 18.5948,-7.26377 27.3441,-12.1791 0,0 0,0 0,0 4.3775,-2.4593 9.4962,-4.42722 15.0736,-6.54879 m -7.1501,-0.55682 c 7.5054,-2.83932 18.9288,-4.6527 28.3678,-4.34813 9.4422,0.30467 18.2871,-5.53377 26.4535,-6.9291 0,0 0,0 0,0 4.0859,-0.69813 9.3615,-2.57731 15.3426,-4.95986 m -8.8665,0.75185 c 8.5347,-3.94834 18.5929,-6.88998 27.4293,-11.09703 8.8392,-4.20845 20.5541,-5.17794 33.2503,-5.89785 0,0 0,0 0,0 6.3523,-0.3602 11.5418,-2.8222 16.7842,-6.44898 m -12.9656,-8.532316 c 10.1893,-3.494024 20.199,-3.974107 32.2089,-2.331855 12.0138,1.6428 19.166,-8.41232 29.0316,-15.694723 0,-10e-7 0,-2e-6 0,-3e-6 4.936,-3.643629 10.1265,-4.495313 15.7117,-4.090538 m -6.8007,4.860651 c 9.659,-3.323453 20.3701,-5.500283 32.6782,-6.878901 12.3121,-1.379078 15.4531,-7.783356 17.8753,-13.725974 0,-10e-7 0,-10e-7 0,-2e-6 1.2119,-2.973291 6.04,-4.263193 11.8353,-4.908109 m 1.9183,9.831207 c 10.6868,-1.920455 17.6099,-6.868652 24.4271,-11.005306 6.8195,-4.138033 22.0817,-9.317521 37.7504,-18.319722 0,-2e-6 0,-3e-6 0,-4e-6 7.8395,-4.504102 12.6363,-5.211637 16.712,-4.308453 m -7.886,9.408265 c 10.2806,-3.324685 16.8283,-7.351225 22.0369,-12.550775 0.5172,-0.516309 1.106,-0.995956 1.7539,-1.444675 M 542.39958,327.41977 c 8.784,-3.13835 18.10922,-8.63361 25.88216,-16.30097 0,0 0,0 0,0 7.77553,-7.6699 20.04521,-6.58127 31.70344,-10.1166 5.83301,-1.76884 10.56522,-3.04562 15.02236,-3.95574 m -16.50798,10.82031 c 9.72221,-3.27738 21.53078,-6.58086 36.14685,-10.1602 14.62094,-3.58053 19.49291,-6.45315 30.01594,-9.7416 0,0 0,0 0,0 5.26502,-1.64532 9.99125,-3.57258 14.58153,-5.81278 m -14.33924,-4.05545 c 11.13947,-3.54185 18.15735,-5.51636 26.11417,-7.01931 7.95948,-1.50344 20.63584,-7.61252 33.53157,-13.25722 0,0 0,0 10e-6,0 6.45216,-2.82423 10.80908,-4.29333 14.36054,-5.335 m -5.11024,10.44063 c 10.34485,-3.44912 19.53883,-6.82044 30.1931,-10.91002 0,0 0,0 0,0 10.65782,-4.09095 17.42938,-6.08336 23.87532,-8.66348 3.22512,-1.29092 7.74342,-3.2158 12.41113,-5.54929 m -6.66257,2.84183 c 9.66,-4.69752 21.7904,-7.53945 36.94379,-13.01815 15.15844,-5.48054 16.24834,-5.25816 20.31282,-6.17911 0,0 0,0 0,0 2.03359,-0.46078 7.20032,-2.96892 13.47583,-6.66991 m -7.22041,-1.89364 c 11.17341,-2.97951 22.27878,-4.35175 38.39539,-3.45737 16.12198,0.89468 18.19167,-7.73752 26.07844,-13.58535 10e-6,0 10e-6,0 10e-6,0 3.94602,-2.92586 7.98528,-4.9317 11.51158,-7.02013 m -3.77649,1.32291 c 10.82732,-3.46307 17.88936,-4.34711 25.31761,-3.50376 0,0 0,0 0,0 7.43073,0.84364 19.45855,-7.31356 29.96907,-12.27285 0,0 0,0 0,0 5.25877,-2.4813 9.73456,-3.71301 13.80807,-4.36382 m -7.79921,-1.4064 c 10.64223,-3.34018 21.01223,-7.20452 34.55213,-11.98826 13.5445,-4.78532 19.5034,-5.33168 30.016,-6.31972 0,0 0,0 0,0 5.2598,-0.49435 9.4575,-2.32297 12.9752,-4.64905 m -2.469,0.6954 c 7.8795,-2.40285 18.4766,-5.09635 27.0549,-5.66108 8.5812,-0.56491 16.5638,-5.87689 21.2972,-8.00722 0,0 0,0 0,0 2.3683,-1.06588 7.5703,-3.46905 13.8326,-6.80199 m 0.5275,0.94526 c 7.6295,-3.62142 17.9457,-7.89014 25.4145,-14.09735 7.4714,-6.20928 18.3644,-5.63336 26.5941,-7.3041 0,0 0,0 0,0 4.1176,-0.83593 9.1653,-2.24351 14.6667,-3.65762 m -9.978,7.39808 c 10.2839,-1.48523 21.7104,-9.190212 36.7557,-17.943245 15.0503,-8.755951 17.0287,-7.116698 22.6566,-11.8041 0,0 0,-10e-7 0,-10e-7 2.8157,-2.345265 8.1064,-3.696758 14.436,-4.605739 m 2.0626,7.626388 c 11.1392,-1.234801 17.7214,-7.922136 24.7548,-14.193492 7.0357,-6.273447 18.3563,-5.397314 26.641,-6.554101 0,0 0,0 0,0 4.1451,-0.578779 9.3033,-1.690767 15.0349,-2.56959 m -6.7959,-4.109318 c 10.6558,-1.717151 18.0371,-6.091645 25.6459,-8.614884 7.6114,-2.524081 21.2265,-5.410856 35.2659,-6.600976 0,0 0,0 0,0 7.0245,-0.595457 11.9115,-1.694658 16.377,-2.551188 m -14.5402,1.371036 c 7.7723,-3.90061 21.3611,-5.493699 35.7269,-7.018949 0.8708,-0.09245 1.6987,-0.199629 2.4869,-0.320401 M 539.18331,321.0825 c 11.26451,-4.46187 18.52159,-5.04904 27.09843,-5.51838 0,0 0,0 0,0 8.57969,-0.4695 17.84708,-5.11878 25.04719,-5.75723 3.60246,-0.31944 9.0336,-2.51288 15.44219,-5.62248 m -1.19429,0.1499 c 9.36109,-4.46342 17.99089,-7.36413 25.60034,-12.45589 7.61197,-5.09345 20.37271,-6.80148 32.73469,-10.81972 0,0 0,0 0,0 6.18511,-2.01046 10.8252,-3.93545 15.00156,-6.08909 m -6.04093,-1.23299 c 11.34066,-3.94644 15.75387,-4.0431 18.89522,-2.61265 3.1424,1.43093 22.05917,-7.56377 37.70344,-13.02285 1e-5,0 1e-5,0 1e-5,0 7.82735,-2.73136 12.2836,-4.14956 15.68172,-5.09511 m -15.9695,3.36277 c 10.68817,-2.96544 19.75826,-6.65499 30.94276,-10.44175 0,-1e-5 0,-1e-5 0,-1e-5 11.18822,-3.78802 20.03563,-6.46502 31.65657,-9.83535 5.81434,-1.68628 10.49165,-3.43426 14.84386,-5.31056 m -4.35986,2.88359 c 11.18723,-2.60635 19.59177,-6.17497 30.33288,-8.84837 10.74469,-2.67429 18.93792,-4.26627 28.37532,-3.13223 0,0 0,0 0,0 4.72185,0.5674 9.21344,-1.60494 13.46429,-4.88462 m -10.19127,-3.24499 c 11.2805,-4.64925 19.11326,-5.32488 28.97341,-6.36195 9.86343,-1.03741 20.14855,-5.75169 32.07844,-7.63222 0,0 0,0 0,0 5.96893,-0.9409 10.87409,-3.1151 15.64188,-6.03625 m -14.47718,-3.16499 c 8.69199,-4.04056 20.48526,-4.82953 32.96038,-4.86255 0,0 0,-1e-5 0,-1e-5 12.47928,-0.033 20.03417,-8.01897 31.70344,-14.42909 0,0 0,-1e-5 1e-5,-1e-5 5.83852,-3.20719 9.88799,-5.14848 12.96979,-7.02282 m -10.21243,1.5031 c 10.32903,-3.19913 19.20653,-6.20463 29.20873,-8.9884 10.0055,-2.7847 18.0221,-4.5869 25.7035,-4.16348 0,0 0,0 0,0 3.8432,0.21186 8.6285,-1.39147 13.6918,-3.45289 m -3.1345,3.90675 c 7.7087,-3.65161 19.7816,-6.37972 30.9926,-9.55045 11.2147,-3.17178 18.7481,-9.02773 27.8128,-17.47597 0,0 0,0 0,0 4.5354,-4.22694 9.2368,-5.9871 13.9561,-7.2578 m -4.6598,7.45659 c 8.5047,-1.25005 20.2994,-7.40865 32.5387,-12.6466 12.2435,-5.23969 17.1519,-5.56939 22.9847,-7.06972 0,0 0,0 0,0 2.9184,-0.75067 8.1514,-2.72885 14.3386,-5.30032 m -6.5354,5.17664 c 11.0944,-1.81118 20.6526,-6.730526 33.5205,-10.53667 12.8722,-3.807413 18.9244,-8.105445 28.3753,-14.757224 0,0 0,-10e-7 0,-2e-6 4.7286,-3.328107 8.7856,-4.140471 12.172,-3.742116 m -10.8303,8.481382 c 8.7373,-4.852874 18.308,-6.583882 26.5853,-10.205495 8.2801,-3.622821 21.3296,-5.682321 35.5941,-7.4916 0,-10e-7 0,-10e-7 0,-10e-7 7.137,-0.905243 11.4554,-2.705846 14.7578,-4.874115 m -3.7813,-4.230988 c 8.0516,-4.494148 19.2045,-6.659691 29.1642,-10.393354 9.963,-3.734907 15.3139,-5.703561 17.594,-7.444725 0,-10e-7 0,-10e-7 0,-10e-7 1.1409,-0.871163 6.2278,-2.647644 12.5575,-4.788912 m 1.6246,6.141478 c 7.8007,-2.499157 17.3695,-9.181184 23.5862,-17.895352 0.703,-0.985336 1.4836,-1.80499 2.3281,-2.482848 M 534.12094,323.66833 c 11.38989,-4.57247 19.41208,-7.15324 29.81705,-11.79953 0,0 0,0 0,0 10.40844,-4.64783 19.72188,-4.78606 30.71907,-4.77285 5.50226,0.007 10.49045,-1.18477 15.53963,-2.36111 m -10.19302,-7.05136 c 11.40566,-3.1683 19.66658,-6.75692 30.52016,-10.67594 10.85719,-3.92032 19.11292,-5.11064 28.93782,-5.66347 0,0 0,0 0,0 4.91572,-0.2766 9.71452,-1.7113 14.52227,-3.30814 m -1.16449,-1.57624 c 9.98392,-1.90337 16.32202,-4.63259 20.49033,-4.3022 4.1697,0.33051 21.76333,-8.53086 36.85969,-16.02284 0,-1e-5 0,-1e-5 10e-6,-1e-5 7.55321,-3.74849 11.42313,-5.04351 13.72241,-5.50305 m -11.69992,5.81459 c 9.31535,-5.05584 19.58989,-6.85177 30.33475,-11.00216 0,0 0,0 0,-1e-5 10.74844,-4.15177 18.18021,-5.11106 26.07845,-5.66347 3.95175,-0.27639 8.51202,-1.51568 13.09534,-2.72737 m -0.37737,4.52618 c 7.8467,-4.66662 16.06548,-7.9806 19.78935,-14.33068 3.7251,-6.3522 19.3398,-5.00023 29.64094,-5.33535 0,0 0,0 0,0 5.15401,-0.16768 9.64959,-2.17869 13.80026,-4.94751 m 3.67996,-3.09315 c 9.14283,-1.27916 18.18417,-4.25841 26.20993,-3.2247 8.02843,1.03406 16.545,-8.44419 21.20345,-15.69472 0,0 0,0 0,0 2.33077,-3.62769 7.36233,-5.0552 13.28473,-5.81068 m -1.95436,3.9337 c 10.57881,-2.3412 19.50296,-6.23344 30.09912,-9.12988 10.59969,-2.89741 18.15021,-6.11128 26.07844,-8.75723 0,0 0,0 0,0 3.96676,-1.32386 8.74622,-3.35068 13.75807,-5.87358 m -9.66217,-4.6231 c 9.09803,-2.94709 21.19806,-2.51725 35.20996,1.9801 0,0 0,0 0,0 14.0166,4.49885 19.3823,-7.10899 29.7347,-11.8041 0,0 0,0 0,0 5.1797,-2.34912 9.6862,-4.21567 13.8418,-6.16743 m -14.8215,4.29684 c 8.6767,-3.15444 20.9944,-9.36846 34.5073,-18.50408 13.5174,-9.13865 19.4693,-6.6446 30.0628,-10.25722 0,0 0,0 0,0 5.3002,-1.80752 9.8297,-3.20099 14.0018,-4.34168 m -8.3285,4.71781 c 8.0507,-4.86862 17.9059,-6.80606 25.2267,-10.76798 7.3232,-3.96325 20.1758,-5.67315 32.0784,-7.35098 0,0 0,0 0,0 5.9553,-0.83947 10.5665,-2.37096 14.7506,-4.02215 m -0.4513,3.81259 c 8.986,-3.9323 16.8301,-6.22644 22.0383,-9.128294 5.2099,-2.902821 19.51,-6.830656 30.1565,-10.960349 0,-1e-6 0,-1e-6 0,-2e-6 5.3269,-2.066224 9.861,-3.404606 14.0405,-4.365062 m -11.0785,4.341227 c 8.3004,-2.950881 18.1368,-8.208331 26.0232,-15.0824 7.8891,-6.876361 22.1375,-4.287115 38.0316,-3.319727 0,10e-7 0,10e-7 0,10e-7 7.9523,0.484016 12.2965,-1.425993 15.449,-4.172304 m -15.4197,-5.777787 c 7.6306,-4.508461 19.434,-4.728777 29.8208,-4.533964 10.3904,0.194877 18.9736,-5.108361 28.516,-5.757226 0,0 0,0 0,0 4.7744,-0.324649 10.1333,-1.860911 16.0954,-3.643188 m -0.5072,-2.667431 c 11.2788,-4.992713 16.5717,-5.755105 21.1922,-7.62723 1.2848,-0.520581 3.4303,-1.268374 6.123,-2.154549 M 533.04947,323.62169 c 10.23708,-4.33779 21.68228,-6.11533 36.70883,-8.79976 0,0 0,0 0,0 15.03156,-2.68532 16.13022,-6.08044 19.9847,-8.66348 1.92852,-1.29237 7.20427,-3.04453 13.72483,-5.02726 m -1.48138,1.54263 c 9.05096,-2.79463 20.78217,-7.80965 33.85064,-13.81694 13.07282,-6.00928 18.71104,-6.49961 27.67219,-9.92909 0,-1e-5 0,-1e-5 10e-6,-1e-5 4.48356,-1.71588 8.76033,-2.95577 12.63478,-3.79615 m -8.68778,5.55251 c 10.09565,-3.6684 20.11281,-8.16462 31.92773,-14.8473 11.81885,-6.68492 18.24688,-3.5242 26.35969,-1.02286 0,0 0,0 0,0 4.05911,1.25151 9.09546,-0.26197 14.58817,-2.40343 m -11.44432,-0.948 c 8.31669,-4.25958 19.10786,-5.77454 28.88263,-7.72172 0,0 0,0 0,0 9.77803,-1.94782 18.62334,-6.12294 27.48469,-8.8041 4.43363,-1.34147 9.50165,-2.92665 14.96937,-4.56133 m -3.24525,-9.94096 c 10.60905,-1.40307 18.06616,-2.94386 25.83346,0.71293 7.76989,3.65801 18.91876,-8.73127 28.37532,-16.58535 0,0 0,0 0,0 4.73143,-3.92966 9.64446,-5.54148 14.72555,-6.58351 m -8.97847,10.82181 c 8.9115,-3.63708 22.17346,-7.97311 38.02266,-14.37859 15.85449,-6.40761 17.90876,-7.57732 25.37532,-13.21035 0,0 0,0 0,0 3.73577,-2.81839 8.23339,-4.44708 12.73964,-5.80469 m -4.48339,12.81152 c 10.17263,-3.85661 18.59422,-9.68985 27.38077,-19.48774 8.78948,-9.80116 19.25021,-6.3794 29.31282,-9.46035 0,0 0,0 10e-6,0 5.03465,-1.54151 9.71128,-2.97219 14.2522,-4.25079 m -10.7096,3.12121 c 10.17459,-1.7786 21.54101,-4.66751 36.24011,-4.3492 14.7041,0.31842 15.8177,-8.2819 19.0941,-15.27285 0,0 0,0 0,0 1.6393,-3.4978 6.3349,-5.27848 11.7576,-6.77105 m -0.4104,10.19673 c 8.0821,-3.43265 18.1349,-5.52167 25.9297,-7.01941 7.7974,-1.49824 18.8692,-8.07232 28.141,-14.66348 0,0 0,0 0,0 4.639,-3.29777 9.8049,-4.4299 15.4229,-4.66251 m -0.3107,4.57741 c 10.7808,-1.40543 18.2319,-6.48224 26.2083,-9.83395 7.9791,-3.35283 17.9948,-5.12753 25.516,-5.8041 0,0 0,0 0,0 3.763,-0.33851 8.2045,-2.10575 12.5937,-4.34621 m -6.2071,-4.24785 c 10.8142,-1.60777 21.6142,-5.80264 36.4739,-7.818122 14.8647,-2.016158 17.4283,-6.392523 23.9222,-9.5541 0,0 0,-10e-7 0,-10e-7 3.2491,-1.581843 8.1646,-3.571938 13.6293,-5.965039 m -11.2875,0.422122 c 9.4103,-2.63684 21.7237,-5.114893 36.7096,-5.754588 14.991,-0.639908 16.7384,-6.845864 21.8597,-11.007224 0,-10e-7 0,-10e-7 0,-2e-6 2.5624,-2.082067 7.5477,-3.705453 13.3187,-5.226885 m -3.81,4.379117 c 11.1714,-2.154343 19.2972,-6.724179 29.536,-10.630071 10.2422,-3.907195 17.6754,-6.002532 24.5316,-8.475975 0,-10e-7 0,-10e-7 0,-10e-7 3.4303,-1.237547 8.5046,-3.308186 14.2439,-5.944976 m -6.4781,3.538481 c 9.8152,-1.827985 20.6083,-8.555567 33.4748,-16.067899 3.7852,-2.210038 6.8595,-3.462567 9.4813,-4.085954 M 539.69753,326.09119 c 9.86118,-3.58908 19.39402,-6.17111 29.77171,-8.94114 0,0 0,0 0,0 10.38115,-2.77094 17.64021,-6.70565 24.43782,-10.58535 3.40107,-1.94114 7.87341,-4.01558 12.42136,-6.47837 m 0.0165,4.43218 c 10.23359,-2.4501 16.42919,-5.79406 20.91196,-7.7704 4.48427,-1.97699 21.49854,-8.05627 36.01594,-14.61659 10e-6,-1e-5 10e-6,-1e-5 10e-6,-1e-5 7.26354,-3.28234 12.14385,-4.50283 16.54036,-4.91842 m -13.14682,2.92029 c 8.94138,-3.46449 20.19822,-6.46434 32.257,-9.78501 12.06281,-3.32179 16.52355,-5.07648 21.1097,-5.56973 0,0 0,0 0,0 2.2946,-0.24679 7.05771,-2.44643 12.46182,-5.57729 m -2.85778,2.60221 c 9.3149,-5.08713 18.90719,-6.97912 28.36601,-11.37714 0,0 0,0 0,0 9.46198,-4.39949 20.35292,-7.03398 32.59407,-11.47598 6.12466,-2.22247 10.483,-3.65489 14.11116,-4.75824 m -0.57587,-2.99864 c 10.06371,-4.3999 18.99691,-5.68416 28.6465,-7.53407 9.65281,-1.85053 18.02792,-4.11732 25.65657,-2.75723 0,0 0,0 10e-6,0 3.81686,0.6805 8.70907,-1.75112 13.99079,-5.58769 m -2.0772,0.85855 c 9.64094,-4.13635 16.61656,-8.13392 21.47505,-14.75309 4.8601,-6.62137 20.70271,-6.69815 33.71906,-10.4916 10e-6,0 10e-6,0 10e-6,0 6.51252,-1.89799 11.20986,-2.98552 15.42687,-3.49299 m -9.97849,6.94906 c 7.55254,-1.76391 19.3982,-6.03093 29.77402,-8.42734 10.37927,-2.39721 18.05542,-8.5494 25.75032,-16.1166 0,0 0,0 0,0 3.85001,-3.78612 8.3934,-4.92648 12.96438,-5.07047 m -0.63292,7.00916 c 8.1127,-1.93652 17.3377,-7.57724 23.6328,-13.16154 6.2972,-5.58615 18.4821,-6.97607 26.9691,-11.33535 0,0 0,0 0,0 4.2463,-2.18109 9.4271,-3.9774 15.1623,-5.82457 m -8.2016,7.94839 c 11.3584,-4.35413 19.0227,-7.21709 28.739,-12.081 9.7194,-4.86553 21.0785,-5.39127 34.7971,-6.50722 0,0 0,0 0,0 6.8639,-0.55835 11.4175,-1.99057 15.2459,-3.51573 m -4.2874,-1.4711 c 7.5988,-4.99291 18.5283,-6.04901 27.2427,-8.6116 8.7174,-2.56345 16.9115,-8.95086 22.3285,-17.19473 0,0 0,0 0,0 2.7103,-4.124683 7.3141,-5.229507 12.2882,-5.200665 m 0.4574,5.056753 c 10.8114,-4.851959 17.2975,-5.210008 23.4895,-5.986746 6.1941,-0.776996 18.6155,-5.410642 27.4847,-6.5541 0,0 0,0 0,0 4.4376,-0.57211 10.0609,-1.873366 16.6501,-3.135985 m -1.8662,-4.832832 c 10.6257,-4.149643 19.6182,-4.666198 30.4741,-4.393699 10.8595,0.27259 16.3954,-7.170652 20.6878,-11.944724 0,-10e-7 0,-10e-7 0,-2e-6 2.1477,-2.388627 6.844,-4.498811 12.1401,-6.914531 m 5.7639,7.775533 c 9.7349,-4.651228 17.0953,-8.296069 22.9281,-15.361948 5.8347,-7.068235 20.2875,-5.175865 32.4534,-5.991601 0,0 0,0 0,0 6.0871,-0.40814 10.7358,-2.477454 14.9586,-5.315063 m -9.5011,-1.20805 c 9.8618,-5.023599 20.3496,-5.287776 32.6311,-6.361574 0.8992,-0.07862 1.766,-0.178886 2.6037,-0.298347 M 531.92963,319.6138 c 7.58519,-4.41548 21.59398,-5.65511 36.28961,-7.29968 0,0 0,0 0,0 14.70053,-1.64513 16.265,-3.76794 20.31282,-1.6791 2.02526,1.04511 7.10985,-0.68258 13.20554,-3.1905 m 2.03024,-7.61233 c 8.6608,-2.83888 20.49764,-3.98457 33.10104,-2.37939 0,0 0,0 0,0 12.6076,1.60572 16.48188,-9.15523 21.01595,-17.85098 2.26854,-4.35077 6.94435,-5.2692 12.17052,-4.82663 m -8.28206,6.08412 c 9.15956,-5.07172 19.8915,-7.27726 31.22554,-12.31465 11.33781,-5.03907 17.86876,-3.86294 25.23469,-1.96035 0,0 0,0 0,0 3.68543,0.95193 9.402,-1.19845 16.36087,-4.53983 m -2.98004,-6.08925 c 10.18844,-1.2638 18.8963,-4.62112 28.31826,-4.20909 0,0 0,0 0,0 9.42511,0.41217 21.86689,-8.57086 37.2347,-16.16347 7.68902,-3.79884 12.30813,-4.80933 16.06869,-4.67397 m -11.03641,2.57518 c 9.65705,-3.82193 17.37663,-4.46678 23.72504,-3.73777 6.35052,0.72925 17.13584,-8.22398 23.03157,-15.03848 0,0 0,0 0,0 2.94983,-3.40952 7.70529,-4.8959 12.92418,-5.81161 m -2.53592,9.7059 c 9.26904,-2.34269 20.32291,-8.46827 32.49105,-15.83301 12.17219,-7.3672 17.42063,-4.14816 23.87532,-2.89785 0,0 0,0 0,0 3.22949,0.62557 7.76563,-1.45935 12.46463,-4.58079 m -4.62187,0.19913 c 7.92762,-3.8717 20.46793,-8.93347 33.00802,-17.14398 12.54427,-8.21324 19.69292,-5.64607 30.62532,-7.39785 0,0 0,0 0,0 5.46984,-0.87647 9.72599,-2.2704 13.30837,-3.63234 m -8.10211,-2.42224 c 7.73881,-4.30423 18.06001,-2.55863 25.74261,1.84083 7.6851,4.40093 20.7156,-9.29169 33.7659,-18.27285 0,0 0,0 0,0 6.5295,-4.49357 10.7023,-5.54261 13.8607,-5.32326 m -12.1591,5.94204 c 10.5175,-1.56141 21.1531,-6.45956 35.1148,-9.74004 13.9663,-3.28158 19.7868,-5.25399 31.0003,-6.1791 0,0 0,-1e-5 0,-1e-5 5.6104,-0.46286 10.0081,-2.54554 13.8432,-5.38788 m -6.9391,-5.61135 c 9.9696,-2.38644 18.294,-3.88805 26.5372,-2.00484 8.246,1.88383 20.0186,-7.28711 31.7035,-12.27285 0,0 0,0 0,0 5.8463,-2.49453 10.084,-4.0838 13.5395,-5.43812 m -11.3216,9.55923 c 11.4216,-1.76638 20.2218,-9.74449 32.2545,-19.677336 12.0368,-9.936152 15.7279,-5.460652 18.766,-6.788475 0,0 0,0 0,0 1.52,-0.664355 6.8399,-1.831306 13.5492,-2.792486 m 3.8019,2.835261 c 7.9419,-4.463058 18.4168,-6.823156 26.7737,-10.862135 8.3597,-4.040326 16.9494,-5.66628 22.469,-7.444725 0,-10e-7 0,-10e-7 0,-10e-7 2.7617,-0.889816 7.5587,-3.111462 12.8981,-6.139509 m -2.8904,6.740677 c 8.004,-4.183961 17.9346,-9.351813 25.4611,-18.503041 7.5291,-9.154278 19.8242,-5.026068 31.0941,-5.475976 0,0 0,0 0,0 5.6387,-0.225104 10.5729,-1.582813 15.473,-3.048419 m -4.0184,0.16352 c 9.4861,-4.027317 18.4623,-8.36879 27.1002,-15.362573 2.8981,-2.346486 6.126,-3.791531 9.5947,-4.770073 M 537.05528,329.97511 c 8.23924,-2.48287 19.91474,-8.14143 31.32021,-14.80162 0,0 0,0 0,0 11.40927,-6.66241 17.685,-7.90565 24.57844,-14.10097 3.44902,-3.09973 8.10799,-4.27518 13.01302,-4.64349 m -4.45085,11.01581 c 9.82872,-2.09371 17.49386,-9.37493 24.14674,-18.50513 6.6551,-9.13324 20.61333,-4.23295 33.34406,-3.13223 10e-6,0 10e-6,0 10e-6,0 6.36961,0.55073 10.92436,-1.29799 14.88284,-3.92472 m -10.89625,3.61062 c 8.58225,-3.21689 19.66899,-9.44843 30.52298,-18.69151 10.85762,-9.24617 19.11438,-3.3465 28.84407,-0.50723 0,0 0,0 10e-6,0 4.86809,1.42058 9.94917,-0.47336 15.3324,-3.4047 m -4.66423,-5.9059 c 11.06079,-4.36942 17.12545,-6.75989 22.92675,-10.7216 0,0 0,0 0,0 5.80324,-3.96303 19.6698,-5.93544 30.62532,-8.19473 5.48142,-1.13039 10.63974,-2.14016 16.03736,-2.68329 m -6.79192,4.10351 c 8.69227,-2.32581 20.90038,-6.53947 34.31976,-9.97365 13.42385,-3.43533 17.59646,-6.44816 24.34407,-9.78848 0,0 0,0 0,0 3.37605,-1.67127 8.09979,-3.36784 13.14931,-5.13417 m -0.55875,2.74825 c 10.79682,-3.16829 18.93674,-6.73795 28.4114,-10.62906 9.47781,-3.89241 15.68729,-6.22982 18.57844,-9.08535 0,0 0,0 0,0 1.44654,-1.42872 6.66404,-3.13661 13.17623,-4.99859 m -6.77712,-0.52994 c 9.58229,-2.31102 22.24077,-7.75445 38.30323,-13.58304 0,0 10e-6,0 10e-6,0 16.06781,-5.83054 17.70771,-3.81628 24.71906,-1.81973 0,0 0,0 0,0 3.50802,0.99894 7.81961,-0.61982 12.00815,-2.89746 m -0.35546,0.75387 c 8.14553,-3.01151 19.81353,-5.54644 30.94533,-6.97297 0,0 0,0 0,0 11.1355,-1.427 18.291,-7.71231 26.4065,-13.4916 0,0 0,0 0,0 4.0605,-2.89157 8.6915,-4.74722 13.3768,-6.52858 m -10.2655,-2.0277 c 8.3626,-5.05434 17.6998,-4.59361 24.617,-4.25217 6.9195,0.34155 20.3379,-5.06836 32.5941,-5.66348 0,0 0,0 0,0 6.1321,-0.29775 11.1687,-2.53841 16.1609,-5.74744 m -11.0755,3.41266 c 10.1281,-3.21503 22.0597,-6.65843 37.6933,-10.30088 15.6389,-3.64367 16.2742,-6.65711 20.3597,-10.35098 0,0 0,0 0,0 2.0441,-1.84816 7.2492,-3.52548 13.5882,-5.20861 m -5.0777,2.01984 c 10.7829,-5.05674 21.3895,-8.21097 35.8177,-14.986539 14.433,-6.777829 15.9218,-5.280233 19.2815,-6.225976 0,0 0,0 0,0 1.681,-0.473187 6.389,-1.991724 11.831,-3.710408 m 3.6019,-1.225182 c 10.0313,-2.514074 17.1669,-8.156032 23.1621,-14.942213 5.9972,-6.788442 19.7632,-3.615656 30.8129,-1.304101 0,0 0,0 0,10e-7 5.5285,1.156548 10.2468,-0.884187 14.7497,-4.051738 m -9.5192,-7.674665 c 9.1744,-3.929833 18.8047,-2.52728 27.9442,2.027957 9.1427,4.556755 21.8109,-6.636481 37.0004,-10.3041 0,0 0,-10e-7 0,-10e-7 7.5998,-1.835031 12.1651,-4.256258 15.839,-7.429405 m -6.6826,-2.288068 c 9.6884,-3.433118 17.6344,-6.211049 24.6156,-9.175667 1.8472,-0.784403 4,-1.658341 6.3187,-2.611507 M 540.24506,323.00628 c 10.51503,-2.5581 17.41995,-4.00652 23.81793,-2.42654 0,0 0,0 0,0 6.40011,1.58051 17.96125,-8.83815 25.42219,-16.96035 3.73296,-4.0638 9.36147,-5.73807 16.13535,-6.86578 m 0.60615,11.43279 c 10.71871,-4.91651 18.77382,-8.45297 27.9896,-15.78355 9.21884,-7.33303 18.0048,-5.87565 25.65656,-8.00723 10e-6,0 10e-6,0 10e-6,0 3.82843,-1.0665 8.97461,-2.76253 14.75006,-4.69153 m -9.28627,4.36455 c 10.15671,-1.40651 18.10117,-8.10832 25.83391,-14.70894 7.73532,-6.60283 20.05272,-6.99794 31.7972,-11.33535 0,0 0,0 0,0 5.87615,-2.17016 11.14833,-3.02027 16.67433,-2.98308 m -7.85696,0.14975 c 10.53267,-2.4487 20.47786,-3.6714 33.09916,-1.39541 12.62552,2.27676 18.82271,-7.84231 28.00032,-13.86659 0,0 10e-6,-1e-5 10e-6,-1e-5 4.59186,-3.01415 9.00865,-4.81053 13.14311,-6.44947 m -15.27508,2.97901 c 11.45361,-2.09102 21.38814,-5.32994 35.77012,-6.36451 14.38677,-1.03491 15.94771,-9.25001 19.37532,-18.08534 0,-1e-5 0,-1e-5 0,-1e-5 1.71495,-4.42061 6.52151,-5.62099 12.15094,-5.72437 m 1.55381,11.02733 c 8.80016,-4.57171 18.96457,-6.01504 28.46026,-8.51827 9.49886,-2.50407 17.7521,-7.11981 24.90657,-11.71035 0,0 10e-6,0 10e-6,0 3.57962,-2.2968 8.35662,-3.65443 13.46404,-4.59033 m -2.39292,-0.37109 c 10.99971,-2.73194 19.10226,-7.36649 28.87994,-12.45762 9.78094,-5.09283 19.79543,-4.14523 31.00032,-2.8041 0,0 0,0 0,0 5.60619,0.67101 9.92649,-1.14269 13.60658,-3.74092 m -3.47303,-7.38887 c 7.8167,-2.94787 17.8279,-3.69132 25.0394,-1.44177 7.2138,2.25029 19.3056,-5.64253 29.4534,-7.35098 0,0 0,0 0,0 5.0773,-0.85479 9.3693,-2.6657 13.1323,-4.86934 m -1.5234,-6.50897 c 9.9848,-2.99548 17.6823,-4.91689 24.6153,-5.14485 6.9353,-0.22803 18.9846,-7.73211 28.6097,-13.63222 0,0 0,-1e-5 0,-1e-5 4.8157,-2.95202 9.6325,-4.56857 14.5153,-5.85735 m -12.9507,11.76622 c 10.6874,-2.13901 18.5143,-7.12655 27.099,-11.84884 8.5876,-4.72386 20.3794,-6.97086 32.6878,-11.33535 10e-5,0 10e-5,0 10e-5,0 6.1583,-2.1837 11.364,-3.64597 16.6807,-4.81501 m -6.2458,1.539 c 9.9373,-3.85373 16.62,-5.36157 21.4279,-6.550247 4.8094,-1.18907 19.7495,-6.822732 30.8128,-10.866599 0,-10e-7 0,-10e-7 0,-2e-6 5.5353,-2.023281 10.8277,-3.718729 16.4725,-5.396496 m -1.6187,3.367453 c 8.143,-3.416765 15.9128,-5.077617 19.2734,-5.613183 3.3618,-0.535744 18.9077,-8.294602 28.2347,-15.225973 0,-10e-7 0,-2e-6 0,-3e-6 4.6666,-3.467996 10.081,-4.812745 16.1858,-5.437677 m 2.3714,4.185504 c 10.5152,-1.282192 17.6793,-8.813308 24.6617,-16.86532 6.9847,-8.054697 16.8889,-4.721483 22.2347,-4.538476 0,0 0,0 0,0 2.6746,0.09156 7.9147,-1.089294 14.1605,-2.264007 m -3.8923,-2.672596 c 9.6108,-3.229832 18.1397,-5.461587 25.9282,-6.878995 3.1427,-0.571926 7.3792,-1.522267 12.3818,-2.507166 M 534.20541,323.12302 c 9.92422,-3.0106 20.36543,-4.18351 32.67789,-3.03547 0,0 0,10e-6 0,10e-6 12.31657,1.14843 19.95418,-7.11503 31.46907,-11.75723 5.76129,-2.32265 10.01468,-4.47434 13.52867,-6.99772 m -4.44072,3.11848 c 9.53203,-3.37114 17.02087,-6.83635 22.60016,-10.91011 5.58115,-4.07511 17.16917,-7.34772 23.07845,-12.3666 0,0 0,0 0,0 2.95661,-2.51111 8.28043,-3.50937 14.63254,-3.67809 m 3.11157,9.66478 c 9.93694,-4.60491 16.03023,-9.01324 19.64663,-17.47137 3.61762,-8.46095 18.75584,-4.9292 27.81282,-5.2416 0,0 10e-6,0 10e-6,0 4.53151,-0.15631 9.90815,-2.13144 15.96335,-4.83824 m 1.60831,2.3864 c 11.41859,-1.26425 15.64852,-5.29515 18.56703,-6.31847 0,0 0,0 0,0 2.91948,-1.02365 21.41604,-8.95295 35.78157,-17.33535 7.18755,-4.19399 11.35201,-5.73659 14.33589,-6.56644 m -7.74304,5.40268 c 8.14495,-4.43206 18.87313,-7.11632 28.27343,-11.79967 9.40343,-4.6849 17.83229,-3.80107 25.00032,-1.8666 0,0 0,0 0,0 3.5864,0.96788 9.00895,-0.72706 15.39965,-3.16411 m 0.81203,-6.82822 c 9.82772,-3.88513 15.99348,-5.68359 19.64674,-7.44083 3.65448,-1.75783 19.92875,-6.18753 31.32844,-8.94473 0,0 1e-5,0 1e-5,0 5.70364,-1.37952 10.96368,-2.6732 16.50326,-3.72431 m -3.1102,-4.76946 c 9.0009,-4.74154 15.87941,-3.37038 19.22569,-0.54935 0,0 0,0 0,0 3.3474,2.82196 21.25646,-7.37877 35.35969,-12.46035 0,0 10e-6,0 10e-6,0 7.05631,-2.54249 11.30712,-4.63129 14.49607,-6.96852 m -11.53252,-1.46083 c 11.01715,-1.87243 21.85457,-5.02786 37.22367,-5.42723 15.3743,-0.3995 15.1779,-7.45002 17.1253,-12.69472 0,0 0,0 0,0 0.9744,-2.6241 5.9046,-3.61092 11.9628,-3.7222 m 5.5976,6.21008 c 10.6716,-4.01163 18.2937,-8.23082 26.4896,-15.12822 8.1987,-6.89969 17.1071,-6.86544 22.8441,-11.00722 0,0 0,0 0,0 2.8704,-2.07228 8.1485,-3.32444 14.4347,-4.10533 m -4.1332,9.26964 c 9.9539,-2.56115 18.1378,-8.57835 26.0216,-16.20779 7.8863,-7.63198 22.6085,-7.17753 39.344,-11.94472 0,0 0,-1e-5 0,-1e-5 8.3734,-2.38518 12.2495,-3.848573 14.3645,-4.979541 m -4.9738,8.615801 c 8.3471,-1.90427 17.8422,-5.98434 25.0389,-8.380325 7.199,-2.396781 19.4416,-6.874614 29.8753,-11.100974 0,-10e-7 0,-10e-7 0,-2e-6 5.2203,-2.114588 9.7508,-3.5804 13.9493,-4.786099 m -8.1403,1.991854 c 7.8326,-4.259117 18.2011,-5.089326 26.2113,-5.752964 8.0128,-0.66386 16.8754,-6.17169 22.2815,-8.89785 10e-5,-10e-7 10e-5,-10e-7 10e-5,-10e-7 2.7048,-1.363989 7.8186,-3.12053 13.8177,-5.087544 m -2.6355,0.745401 c 11.3438,-3.714731 20.5304,-7.457898 33.1452,-12.831635 12.6191,-5.375528 17.7811,-8.510862 24.9535,-15.975973 0,-1e-6 0,-2e-6 0,-3e-6 3.5886,-3.735045 8.9369,-5.000969 15.1903,-5.396512 m -1.1266,9.142357 c 7.8008,-2.340884 17.5238,-5.751362 24.2425,-7.723635 1.4843,-0.435717 3.2867,-1.081537 5.3188,-1.899522 M 537.32916,330.67755 c 8.67624,-3.16796 20.26575,-6.24784 32.30414,-9.17593 0,0 0,0 0,0 12.04241,-2.92908 16.18043,-10.25148 20.1722,-21.08535 1.99721,-5.42055 7.22624,-6.45379 13.63586,-5.96546 m 1.8301,3.48798 c 7.77007,-3.4325 18.11982,-5.28167 25.88317,-6.17566 7.76595,-0.89429 19.52584,-6.96524 30.1097,-11.33535 0,0 0,0 0,0 5.29546,-2.18652 10.38596,-3.67158 15.69053,-4.89826 m -3.39844,8.23056 c 10.98301,-4.88447 17.44451,-7.17633 23.91121,-11.98672 6.46886,-4.81198 17.59938,-6.50418 24.43782,-9.83535 0,0 0,0 0,0 3.4215,-1.66669 7.96991,-3.55018 12.65053,-5.69274 m -1.93391,2.61541 c 8.30236,-2.029 21.00646,-5.8939 34.64827,-8.0052 0,0 0,0 0,0 13.64635,-2.112 17.08459,-5.6794 22.89094,-7.39785 2.90511,-0.8598 7.7053,-2.88427 13.02227,-5.51614 m -2.0446,-6.01912 c 8.2064,-5.00779 17.46564,-4.96932 24.00773,-5.37722 6.54428,-0.40802 18.52897,-7.06732 27.20345,-11.66347 0,0 0,0 0,0 4.34013,-2.29961 9.626,-3.65776 15.56046,-4.59909 m -7.82598,-2.37024 c 8.37885,-3.08921 18.74712,-5.11155 27.75756,-5.80101 9.01345,-0.6897 20.29313,-5.17878 32.40657,-5.9916 0,0 0,0 0,0 6.06076,-0.40668 11.20144,-2.45696 16.42193,-5.24434 m -10.03127,2.97773 c 10.09563,-3.52563 20.08653,-4.58513 31.83397,-4.20682 11.75136,0.37843 18.56979,-8.79378 27.25032,-16.81973 0,0 0,0 0,0 4.34316,-4.01565 8.59849,-5.40968 12.4621,-6.00449 m -5.5986,2.80942 c 10.56171,-3.21499 17.26191,-6.60449 23.30221,-10.25401 0,0 0,0 0,0 6.0425,-3.65074 20.2294,-4.90628 32.2191,-5.14785 0,0 0,0 0,0 5.9989,-0.12087 10.6925,-1.81555 15.0361,-3.97441 m -3.4101,-1.50597 c 11.3575,-4.7912 17.5411,-7.66588 24.1452,-13.34619 6.6064,-5.6822 21.6856,-4.90065 36.5785,-5.10097 0,0 0,0 0,0 7.4513,-0.10023 11.8195,-1.43554 15.1326,-2.88597 m -12.4456,-2.77247 c 9.4856,-5.02366 17.5717,-5.3787 24.2408,-6.5022 6.6714,-1.12387 21.4742,-6.67585 35.9691,-10.39785 0,0 0,0 0,0 7.2523,-1.86224 12.1114,-3.54689 16.4649,-5.24192 m -6.1954,0.31629 c 10.6706,-3.493777 16.7206,-3.604269 21.7084,-1.20685 4.9895,2.39821 19.8538,-8.536269 31.0941,-15.929102 0,-1e-6 0,-2e-6 0,-2e-6 5.6239,-3.698881 10.5349,-5.288073 15.3978,-6.347141 m -10.6857,4.105647 c 7.5052,-3.059931 18.6046,-7.995115 27.4303,-14.33229 8.8287,-6.339288 19.35,-6.401484 29.641,-9.600975 0,0 0,-1e-6 0,-1e-6 5.1489,-1.600813 9.9363,-2.835511 14.6684,-3.696191 m -8.0558,4.873864 c 9.3941,-4.212565 20.6401,-5.45667 33.5222,-6.784261 12.8864,-1.328032 19.3788,-9.293773 29.6878,-18.272847 0,-10e-7 0,-2e-6 0,-4e-6 5.158,-4.492531 9.5004,-5.631009 13.3505,-5.579838 m -8.5432,7.916173 c 11.1875,-3.369859 19.9788,-4.915365 31.6923,-5.191354 1.63,-0.0384 3.1683,-0.186399 4.6333,-0.420728 m -309.2415,99.03273 3.7896,-1.28013 m 250.6465,-84.668005 3.7896,-1.28013 m -86.3094,29.155202 3.7896,-1.28013 m -605.49661,204.535863 3.78962,-1.28013 m 298.78304,-100.92847 3.78962,-1.28013 m 236.89313,-80.022161 3.7897,-1.28013 m 51.2236,-17.303251 3.7896,-1.28013"
           style="fill:none;stroke:#262626;stroke-width:1;stroke-linecap:butt;stroke-linejoin:miter;stroke-miterlimit:4;stroke-opacity:1;stroke-dasharray:24.00000006, 24.00000006;stroke-dashoffset:0;marker-end:none"
           sodipodi:nodetypes="cc"
           inkscape:path-effect="#path-effect8838"
           inkscape:original-d="M 537.61892,324.7088 1417.8303,27.3747" />
      </g>
    </g>
    <path
       style="fill:none;stroke:#000000;stroke-width:1;stroke-miterlimit:4;stroke-opacity:1;stroke-dashoffset:0"
       d="m 830.68734,370.89851 c 23.36557,-0.87279 44.06977,0.005 65.5288,-0.0301 6.53412,-0.0107 13.14926,-0.0755 19.78158,-0.19719 m -18.91082,-5.90541 c 23.21309,-0.57856 43.23481,-0.27955 63.09137,-0.8224 4.32398,-0.11821 8.88287,-0.23719 13.60393,-0.37328 m -16.75686,2.95258 c 23.40642,0.87292 44.91006,0.46913 68.11866,1.40117 5.7067,0.22918 11.2539,0.31144 16.6862,0.28868 m -13.4649,-2.53353 c 21.0514,1.02554 42.9263,1.77481 62.1478,5.3011 8.6689,1.59035 18.8495,1.33846 29.7182,0.21599 m -33.8025,-9.27224 c 21.4581,0.01 45.7651,-0.37205 70.6179,-1.12734 8.6453,-0.26274 16.6834,-0.25705 24.4461,-0.0779 m -24.7228,6.64565 c 22.9704,-0.56829 46.3861,0.12794 72.4758,0.36588 6.935,0.0633 13.2957,0.0198 19.3007,-0.1175 m -23.639,-1.96321 c 21.7016,1.19785 45.3853,1.041 69.46,3.16821 5.9479,0.52555 11.648,0.83883 17.1834,1.03584 m -19.4007,-3.20413 c 23.3856,1.01453 43.2133,-1.09934 62.939,-3.32156 3.9949,-0.45005 8.1907,-0.74925 12.5248,-0.95309 m -22.221,-3.50461 c 23.2036,0.24433 45.4195,2.52142 69.6117,7.58661 10.2018,2.13598 19.7939,2.05787 29.2225,0.90182 m -25.7621,0.10312 c 10.7198,0.27527 21.8624,0.18314 33.2518,-0.0726 0.3472,10.99576 0.9549,21.81883 1.6321,32.69011 0.5479,8.79561 0.4134,17.84144 -0.087,26.98142 m -4.4112,-29.20379 c -0.6212,22.94906 0.6708,45.24425 2.5831,69.06106 0.5133,6.3937 0.7621,12.59037 0.8678,18.68243 -1.1604,0.0255 -2.3264,0.0468 -3.4972,0.0646 m 4.2571,-23.02381 c -0.1942,6.30827 -0.3605,12.49504 -0.531,18.61715 -16.4881,0.18949 -33.0057,-0.0826 -50.1639,0.26724 -9.4464,0.19261 -18.3809,0.45687 -27.0641,0.88613 m 21.8099,5.63195 c -22.0764,0.23321 -42.9168,-0.69436 -62.056,-2.07199 -6.4334,-0.46307 -13.7267,-0.56742 -21.5303,-0.46925 m 22.2392,-0.64084 c -22.6251,0.1427 -45.1446,2.06874 -68.7893,6.21556 -5.5646,0.97592 -10.983,1.44298 -16.3111,1.56295 m 18.1382,-12.92368 c -22.9697,-1.27855 -43.7494,0.60186 -64.554,1.76776 -6.0422,0.33862 -12.4162,0.59917 -19.0183,0.8677 m 17.2468,-0.19603 c -21.3966,-0.45595 -43.732,2.43554 -64.5242,7.31271 -8.6705,2.03383 -17.7232,2.35753 -26.849,2.03183 m 26.1749,-11.20086 c -21.4578,1.11693 -44.7217,1.91901 -67.5406,5.78856 -10.7994,1.83133 -21.2176,1.80888 -31.4435,1.16297 m 28.787,-0.56892 c -22.9596,0.65961 -44.0983,-0.15045 -65.6508,-0.42686 -10.35169,-0.13276 -20.92811,-0.18548 -31.50545,-0.24573 m 34.16805,-0.3228 c -23.1832,0.4972 -45.01506,-0.29486 -68.39297,-0.91428 -7.5294,-0.1995 -14.96163,-0.22883 -22.41281,-0.15064 m 16.16256,1.5596 c -22.41205,0.81175 -45.5613,-0.46656 -70.00815,-1.37146 -9.82207,-0.36357 -18.84385,-0.29435 -27.49966,0.032 m 30.47654,1.17168 c -14.29381,0.7333 -27.97876,0.65812 -41.31311,0.65281 0.49968,-8.13996 1.11643,-16.25658 1.80043,-24.18039 0.83137,-9.63116 1.05699,-19.68553 1.12117,-30.00982 m 2.38792,29.22099 c -0.81982,-22.20814 -0.48753,-45.00536 -2.03393,-68.3606 -0.61644,-9.31009 -0.87772,-18.09316 -1.11106,-26.56657 1.75171,0.0786 3.50459,0.17009 5.25583,0.27277 m -6.16212,17.88181 c -0.0816,-7.95614 -0.0483,-15.80328 0.044,-23.57762 14.41195,0.14877 29.02104,0.5409 43.4851,0.95516 10.01259,0.28677 20.30441,0.33161 30.91434,0.30613 m -65.61265,3.80514 c 23.27376,-0.99443 42.48386,0.45205 60.80619,1.34108 9.05791,0.4395 20.22098,0.44851 32.07383,0.35061 m -28.28715,-8.48787 c 21.1127,-1.20765 44.49663,0.13219 66.87045,0.4271 8.88429,0.1171 17.99637,0.2977 27.3638,0.59765 m -26.16074,2.49026 c 23.43717,-0.83174 45.94223,1.5096 71.13503,4.50975 5.3679,0.63925 10.4878,1.01458 15.4461,1.21264 m -20.1655,-5.20002 c 22.2193,0.26428 45.6657,1.41221 70.3129,4.2655 9.2382,1.06946 17.6642,1.41652 25.6633,1.49097 m -25.2394,-2.92425 c 21.5079,0.70017 42.3878,-0.29733 60.5328,-0.85344 4.5254,-0.13869 9.6367,-0.1377 15.1446,-0.0222 m -7.7757,3.09254 c 21.8942,-0.0507 44.4567,0.013 66.7178,3e-5 7.5872,-0.004 15.1006,-0.12135 22.5468,-0.35359 m -26.851,-4.80168 c 22.9599,-1.27884 44.8933,-0.3987 68.0579,-1.1877 11.3974,-0.38821 22.3877,-0.35465 33.3064,-0.18552 m -33.434,8.6023 c 22.1177,0.84209 45.5007,-0.82364 69.8255,-2.49881 7.8058,-0.53757 15.1195,-0.7741 22.1498,-0.87561 m -18.4635,-2.64918 c 22.2287,-1.26871 43.41,-0.43208 63.5488,-1.27912 5.4891,-0.23087 11.3955,-0.33611 17.5926,-0.36637 0.019,1.25001 0.05,2.50324 0.093,3.75924 m -13.2914,-2.70547 c 6.0843,-0.0584 11.9979,-0.10505 17.7402,-0.15337 -1.0485,16.00302 -3.3002,31.99434 -6.7677,47.724 -1.986,9.00921 -1.9909,18.46296 -1.0073,28.24353 m 4.6046,-26.88213 c -0.7635,23.00971 -0.2026,44.4362 -0.037,66.68446 0.01,1.05404 0.013,2.10826 0.016,3.16269 -8.6354,0.015 -17.4312,0.0437 -26.3255,0.091 m 25.9881,0.29656 c 0,0.30196 0,0.60347 0.01,0.90455 -21.5824,0.52526 -43.466,-1.36846 -64.6612,-3.92271 -8.2775,-0.99752 -16.9918,-1.21918 -26.0142,-1.10708 m 19.7115,12.09623 c -23.2137,0.19255 -45.2086,-0.91111 -68.9718,-2.74228 -10.0767,-0.77649 -19.4016,-0.84704 -28.327,-0.63277 m 30.6028,-3.7767 c -22.1379,-0.2234 -45.125,-0.43649 -68.7285,-1.27959 -5.0846,-0.18162 -10.0588,-0.26396 -14.9636,-0.27251 m 15.7512,9.0073 c -22.7264,0.92313 -44.5966,-1.33323 -67.1135,-3.96135 -10.9204,-1.27461 -21.357,-1.12679 -31.408,-0.4522 m 38.6491,0.13245 c -22.1587,-0.48674 -46.763,1.32607 -73.6341,3.99162 -12.3393,1.22403 -22.6721,1.31824 -32.3522,1.05591 m 33.517,-9.07702 c -23.4269,-0.0307 -45.3652,-0.88085 -69.3983,-2.62029 -5.5715,-0.40325 -11.0083,-0.52378 -16.3784,-0.42603 m 20.2897,10.97759 c -21.5897,0.01 -44.5382,-0.92406 -66.96162,-2.77266 -8.72002,-0.71888 -17.33746,-0.9603 -25.88755,-1.04828 m 28.55716,-2.21242 c -23.47786,0.51733 -46.23253,-0.83446 -72.0186,-2.49867 -11.44816,-0.73886 -21.48412,-0.78842 -31.04432,-0.58455 m 29.32,7.5012 c -23.36549,0.53804 -43.80066,0.5707 -64.70615,1.73647 -5.33647,0.29758 -10.92169,0.34345 -16.68999,0.19569 m 20.98273,-1.75932 c -9.37171,-0.31752 -18.49072,-0.32018 -27.52614,-0.16294 0.10108,-12.95935 0.38049,-25.5775 0.31106,-38.33744 -0.0311,-5.71376 -0.0628,-11.52213 -0.11256,-17.38468 m -2.62433,18.52927 c 1.04735,-23.31405 -1.0775,-44.01416 -3.74103,-65.37417 -0.5925,-4.75152 -0.8775,-9.59938 -0.94938,-14.51567 m 6.01238,12.98272 c -0.0384,-6.22019 -0.19546,-12.42266 -0.49144,-18.63703 15.21089,-0.33101 29.44682,-0.74556 42.32853,-1.79424 6.85916,-0.55839 15.04889,-0.67565 23.7943,-0.60072 m -58.92694,2.59459 c 21.38631,0.26372 43.13826,-0.47721 62.72658,-1.46262 9.52306,-0.47907 20.43774,-0.50575 31.84169,-0.41766 m -24.02018,-2.16169 c 22.44196,0.74147 43.79774,2.06418 64.73703,6.21529 8.63371,1.71159 17.78886,1.87798 27.1963,1.37103 m -25.39366,-2.59391 c 21.64001,1.23808 43.06493,-0.17215 62.57413,-0.51853 9.7133,-0.17245 21.1845,-0.38735 33.4077,-0.76882 m -31.3506,-0.14225 c 21.7725,-0.29413 45.0464,0.58259 68.5154,1.76732 10.2819,0.51904 20.1463,0.29857 29.9111,-0.36228 m -24.3125,-4.48589 c 23.0611,0.59877 44.0407,-0.0243 65.4985,-0.0612 9.3002,-0.016 18.7874,0.0191 28.2755,0.095 m -18.6153,-0.39709 c 21.9039,0.49724 43.0231,-0.14336 62.4521,-0.45726 6.7814,-0.10956 14.4021,-0.1609 22.5076,-0.19567 m -20.5605,0.62068 c 22.0156,0.0302 43.1099,-0.97012 62.6349,-2.89454 6.7462,-0.66491 14.0507,-0.85503 21.5803,-0.80678 m -21.8902,11.16592 c 22.9394,1.21754 44.0846,-1.00197 65.6204,-2.98648 6.1284,-0.56473 12.4091,-0.70729 18.7944,-0.56456 m -18.7921,-3.63902 c 23.5075,-1.00436 43.2596,1.19538 63.0913,3.5653 3.1642,0.37812 6.4832,0.63326 9.9282,0.79415 -0.2579,7.36819 -0.018,14.36385 0.492,21.213 m -0.3222,-24.42853 c 2.5833,0.1277 5.1621,0.23686 7.7371,0.33257 -0.083,20.38723 -0.3844,39.98504 -0.5654,61.09599 -0.063,7.40673 -0.1998,14.4971 -0.4093,21.41975 m -3.1305,-22.87009 c 0.3263,20.07659 0.996,40.45355 3.3155,59.98576 -1.4861,-0.082 -2.9611,-0.16964 -4.4241,-0.2637 -6.0999,-0.39217 -12.9633,-0.57347 -20.3019,-0.66317 m 20.8614,0.42703 c -22.0873,-0.44661 -45.5672,-0.24256 -70.0388,-0.70058 -7.0785,-0.13248 -13.6568,-0.18979 -19.8977,-0.20463 m 19.1805,-1.3273 c -23.4771,0.22326 -43.7137,-0.0528 -64.4624,-0.15244 -8.1904,-0.0393 -16.8148,-0.11435 -25.6024,-0.24494 m 24.2369,0.75695 c -22.5334,0.64996 -44.0018,1.48893 -65.3464,4.47861 -8.1004,1.1346 -16.3682,1.25651 -24.6613,0.85365 m 18.3578,-2.93657 c -22.2286,-0.24369 -43.0261,-0.41033 -62.3911,-1.24911 -8.7335,-0.37829 -18.8925,-0.5906 -29.6886,-0.87097 m 25.3038,6.03063 c -22.5336,-1.10595 -44.8555,0.83521 -67.8753,2.46847 -6.065,0.43031 -11.941,0.6055 -17.6716,0.61478 m 25.9211,-11.1411 c -21.7929,-1.19736 -45.2853,0.62705 -69.1553,1.85913 -5.5337,0.28563 -10.8552,0.46119 -16.0264,0.57236 m 21.9356,0.53647 c -22.8179,-1.19756 -45.1346,-0.0724 -68.75875,-0.21274 -9.82379,-0.0584 -19.01786,0.32632 -27.88287,1.12223 m 23.90104,2.38203 c -23.13221,0.78138 -44.25274,-0.22981 -66.13829,-0.67066 -4.97102,-0.10014 -10.00468,-0.18281 -15.08893,-0.26333 m 17.53423,-2.80007 c -22.48268,-0.26315 -44.20396,2.40063 -65.98624,7.16027 -5.86664,1.28192 -11.77619,1.78372 -17.70231,1.78415 m 20.32686,-7.54792 c -9.39528,-0.47783 -18.96219,-0.34899 -28.47924,0.10482 0.43755,-11.86169 0.95579,-23.19761 2.01057,-34.58748 0.41026,-4.4302 0.65728,-9.10806 0.79319,-13.97575 m -4.03636,16.68957 c -1.02275,-23.29362 -0.33168,-43.59983 -1.54635,-64.12496 -0.34602,-5.84697 -0.57718,-12.11706 -0.79032,-18.69352 0.19317,-0.008 0.38637,-0.0161 0.57957,-0.0246 m 3.54342,19.33611 c 6.7e-4,-6.34094 -0.0371,-13.0743 -0.1285,-20.11845 15.2304,-0.93741 30.16605,-3.58234 44.61098,-6.88342 5.57438,-1.2739 11.35286,-1.80386 17.24017,-1.86994 m -66.89187,7.85642 c 21.43796,-0.54783 46.17675,0.66801 71.89764,2.04165 12.23316,0.65332 22.95066,0.6322 33.27983,0.38022 m -30.25159,-5.42737 c 22.53369,-0.609 45.09944,-0.26205 68.60652,-0.79191 7.95673,-0.17935 15.40805,-0.14344 22.50232,0.0453 m -21.32554,4.01184 c 21.04133,0.23304 43.38272,-1.27063 63.48842,-3.8087 4.661,-0.58838 9.5082,-0.87556 14.4629,-0.95679 m -19.6705,5.86007 c 21.1325,0.32474 42.8896,-0.0584 62.0259,-0.21343 6.096,-0.0494 13.0122,-0.13851 20.4509,-0.28133 m -16.3017,-1.44322 c 22.4017,0.99456 45.059,-0.0248 68.5151,-0.0614 9.6165,-0.015 18.6108,0.0143 27.2383,0.0829 m -27.0721,-8.26104 c 21.6713,-0.0505 45.7429,0.84233 70.5569,2.49846 10.7549,0.7178 20.4793,0.68276 29.8074,0.30062 m -30.9035,2.80538 c 21.6906,1.16679 42.6656,-0.99375 61.3553,-2.98647 3.9604,-0.42225 8.2981,-0.65851 12.9129,-0.76606 m -15.9127,5.97566 c 21.0214,-1.23778 44.601,1.1719 67.1447,3.50447 4.7506,0.49154 9.5373,0.71847 14.3695,0.74612 m -11.2382,-5.56535 c 21.1528,-1.06556 42.8825,0.15064 62.0259,0.42704 4.3706,0.0631 9.0764,0.0216 14.0077,-0.11417 m -10.2758,-0.22261 c 12.09,-0.0736 23.1472,-0.39698 33.6632,-1.02428 -0.9927,10.15003 -2.4586,20.03429 -3.9958,29.60846 -0.991,6.17211 -1.2121,12.8562 -0.9352,19.83341 m 3.5766,-14.64003 c 0.8193,21.03033 -1.3257,43.12003 -3.3895,62.69395 -0.6703,6.35747 -1.0318,13.26245 -1.2779,20.44385 -3.8648,-0.0182 -7.6981,0.0389 -11.5275,0.13283 m 10.2804,-11.77344 c -0.2247,6.47634 -0.2147,12.58627 -0.01,18.40891 -15.4115,-0.81803 -29.4796,-3.61072 -42.9114,-6.95235 -4.693,-1.16754 -9.8601,-1.7154 -15.3239,-1.86803 m 15.5067,3.40634 c -23.4057,0.0509 -42.7714,0.65001 -61.6288,1.9195 -3.819,0.25711 -7.9631,0.36207 -12.3486,0.34684 m 7.6152,2.77767 c -22.9903,0.62847 -44.7855,-2.47461 -67.6618,-7.46513 -5.0888,-1.11014 -10.0774,-1.71676 -14.9873,-1.98472 m 24.5055,9.81135 c -22.1682,0.14191 -44.6681,-0.56093 -67.3575,-1.67585 -6.9619,-0.3421 -13.743,-0.56406 -20.3855,-0.76256 m 18.2925,-5.71233 c -23.4976,0.23375 -44.447,1.13481 -66.6866,3.41239 -5.5727,0.57071 -11.1698,0.89092 -16.7921,1.06874 m 21.6796,-2.79527 c -23.1531,0.0712 -46.4462,0.46128 -72.6585,1.40153 -5.6466,0.20255 -10.9331,0.30299 -15.9789,0.32938 m 23.3268,1.5024 c -22.3809,-0.569 -43.267,-2.23246 -63.1222,-6.6724 -4.8822,-1.09174 -10.1837,-1.65909 -15.7992,-1.89989 m 13.4381,11.31318 c -22.63497,0.0301 -44.29678,-1.30911 -66.26041,-3.96095 -5.11747,-0.61787 -10.19924,-0.84244 -15.23603,-0.77441 m 16.03303,0.16656 c -22.09682,-0.081 -43.51038,0.58469 -63.88406,1.76722 -8.01844,0.46541 -16.9606,0.42551 -26.4911,0.0972 m 24.79236,-1.70147 c -22.31,1.03548 -43.66595,1.05629 -64.37147,3.13782 -0.0492,0.005 -0.0984,0.01 -0.14761,0.0147 0.34414,-4.12906 0.5255,-8.44492 0.58312,-12.89393 m 0.54455,9.44769 c -1.07784,-0.0265 -2.16145,-0.0442 -3.25039,-0.0533 1.08709,-21.2489 0.35135,-39.55642 0.789,-56.27013 0.17236,-6.58214 0.26418,-14.5399 0.31775,-23.15318 m -4.57016,15.22039 c 0.40151,-18.03729 -0.19497,-37.15894 -1.28731,-56.12596 3.36136,-0.068 6.70415,-0.13028 10.03201,-0.17776 5.57569,-0.0795 11.55262,-0.0476 17.82912,0.0781 m -17.27463,-1.71242 c 22.75698,0.0406 45.15042,-0.11632 68.78924,-0.33517 9.58055,-0.0887 18.69189,0.0328 27.61891,0.32095 m -28.33305,6.12043 c 22.38177,-0.0508 46.11954,-0.1188 71.68394,-0.3656 6.01636,-0.0581 11.68176,-0.0907 17.12666,-0.10737 m -21.25074,-0.53806 c 21.09195,-0.27423 42.97637,-0.71332 62.23917,-2.13269 8.9133,-0.65677 18.984,-0.58393 29.3361,-0.20646 m -22.3931,-1.79417 c 21.4676,0.335 43.4466,0.33881 63.7016,0.97485 6.0013,0.18845 12.4326,0.3863 19.1402,0.64331 m -17.3995,4.52265 c 22.4013,0.76121 43.4507,0.2052 63.7011,0.60903 9.845,0.19633 20.483,0.003 31.2329,-0.44551 m -33.5403,1.95992 c 22.3412,-0.97449 46.2886,-0.74181 72.2019,-2.22378 6.1289,-0.35051 11.7463,-0.49372 16.9989,-0.48848 m -18.1355,-4.43094 c 21.1427,0.25399 43.2099,0.91565 62.9399,2.74208 9.7307,0.90077 21.1991,1.23655 33.5081,1.66465 m -23.791,-5.53828 c 23.4261,-0.42656 42.6128,-1.05502 61.1413,-3.19903 5.9675,-0.69053 12.868,-0.90493 20.3307,-0.85783 m -18.063,7.10824 c 21.2853,0.90305 44.7707,-0.59136 67.6626,-1.73713 7.3742,-0.36909 14.5373,-0.4013 21.5556,-0.2126 -0.031,1.14796 -0.066,2.30132 -0.1035,3.45962 m -24.1121,-3.12753 c 7.0965,-0.0282 14.1759,-0.0889 21.3042,-0.18961 0.4696,15.13158 1.1845,30.06248 2.887,44.70674 0.9521,8.18952 1.1664,16.79136 1.0994,25.62919 m -4.8885,-25.76809 c 0.8809,21.49767 1.2418,44.7986 4.319,67.72108 0.2809,2.09241 0.505,4.18013 0.6796,6.26479 -2.2148,0.0682 -4.5013,0.13193 -6.8467,0.19406 m 2.7556,-2.83668 c -0.091,3.1169 -0.14,6.20638 -0.1495,9.26532 -18.9479,-0.66215 -36.4842,-2.42766 -53.4528,-5.97348 -8.6939,-1.81673 -18.2741,-1.78149 -28.1201,-0.94494 m 23.4894,1.31155 c -22.087,0.43654 -44.8197,0.49853 -67.845,1.49277 -7.1729,0.30973 -14.1122,0.47519 -20.8922,0.58524 m 20.447,0.46526 c -21.6906,1.11581 -42.6365,-1.81229 -61.2335,-5.42394 -8.6487,-1.67965 -19.1338,-1.89848 -30.363,-1.74876 m 28.2087,2.47176 c -23.4367,-0.97404 -44.4769,0.76527 -66.8084,2.25513 -10.5165,0.7016 -21.1585,0.52301 -31.9616,-0.0708 m 25.1143,-2.30995 c -22.1272,-0.59839 -43.3522,1.27258 -63.3661,3.80886 -4.0767,0.51663 -8.3781,0.73612 -12.8486,0.72244 m 12.6107,-5.64006 c -21.295,-0.97408 -42.9565,0.64543 -62.2087,1.95043 -8.4119,0.5702 -17.8829,0.89068 -27.6706,1.28488 m 20.1373,3.22898 c -23.3246,-0.45652 -42.8571,0.56871 -61.90299,1.67599 -7.7414,0.45006 -16.73083,0.46477 -26.32705,0.26806 m 23.07643,-5.18484 c -21.05188,-0.82178 -44.71123,0.87703 -67.51032,2.65115 -5.17852,0.40297 -10.33417,0.66588 -15.48782,0.85107 m 21.88539,-1.0836 c -22.63517,0.61939 -45.0683,1.08733 -68.54554,3.29034 -6.70838,0.62949 -13.26165,0.84812 -19.74734,0.81055 m 17.97274,-5.68621 c -12.57245,0.14506 -24.84203,-0.12498 -37.12611,-0.68308 0.0359,-10.44852 0.0622,-21.08948 -0.0945,-31.85351 -0.12161,-8.35368 -0.0992,-16.30115 -0.003,-24.06055 m -1.00008,29.25999 c -0.40287,-21.00051 2.39159,-45.19076 6.58853,-68.87912 1.39599,-7.87927 1.82329,-15.38066 1.72379,-22.66513 m -10.18447,20.68273 c 0.33729,-7.61849 0.54934,-15.29334 0.73581,-23.00754 14.77999,-0.0819 29.46801,-0.30522 44.74369,-0.55406 6.33844,-0.10326 12.56485,-0.15358 18.74578,-0.1743 m -54.63094,1.3393 c 21.53912,0.35541 45.07966,0.68456 68.54604,2.04125 10.14325,0.58642 19.8992,0.69383 29.5687,0.65405 m -27.28171,0.63766 c 22.48256,-1.06605 43.79326,-1.47761 64.73702,-4.41749 9.74018,-1.36723 19.87196,-1.3838 30.00704,-0.93364 m -29.23874,3.48818 c 21.51886,-0.32463 45.22145,0.42324 69.03355,1.27983 11.4927,0.41343 22.344,0.0807 33.0925,-0.71353 m -32.8009,-0.6375 c 21.7118,-0.54772 45.4384,1.02001 69.6124,3.07759 6.6524,0.56623 13.0623,0.74128 19.3521,0.65407 m -23.1813,-7.96308 c 22.6758,-0.92338 45.1038,0.47791 68.637,1.43245 10.5583,0.42826 20.6222,0.49791 30.5479,0.46878 m -28.9918,3.01172 c 21.2548,0.0609 44.5573,-0.004 67.0532,-0.0305 9.4601,-0.0111 18.8452,0.11939 28.2199,0.38641 m -22.0548,5.57381 c 21.1532,0.13142 44.3078,-1.70791 66.261,-5.11881 8.7945,-1.36641 17.6584,-1.70545 26.5418,-1.6762 m -25.0354,1.31349 c 21.5899,1.26838 45.3216,-0.65655 69.3382,-1.98104 8.5795,-0.47316 16.5511,-0.5392 24.1594,-0.3783 m -22.448,0.0184 c 21.2239,0.58907 43.0792,1.4937 62.5438,4.44817 3.0504,0.46301 6.2634,0.77568 9.6071,0.97223 -0.1165,2.56082 -0.1697,5.06536 -0.1703,7.52516 m -7.8829,-13.48302 c 3.9639,0.12362 7.8955,0.26976 11.7879,0.45043 -0.7979,18.99636 -2.3909,38.69363 -5.4057,60.1901 -1.1044,7.87521 -1.555,14.98765 -1.6339,21.66561 m -1.0201,-24.1133 c -1.384,22.87113 1.149,44.63697 4.0539,67.60701 -0.1152,0.005 -0.2304,0.0108 -0.3456,0.0163 -7.7662,0.36826 -16.7405,0.35218 -26.2956,0.13563 m 28.6487,-7.57898 c -23.1423,-0.84239 -44.2684,-0.1704 -66.1687,-0.51759 -5.7958,-0.0919 -11.8014,-0.1033 -17.9985,-0.0529 m 13.8085,2.55332 c -22.1881,1.00509 -43.5665,1.23413 -64.0058,3.68627 -5.9602,0.71504 -12.311,0.86001 -18.9209,0.61753 m 15.4542,-0.98241 c -23.4164,-0.0814 -44.5237,-0.62033 -66.9608,-1.82809 -5.3855,-0.2899 -10.7283,-0.46886 -16.0374,-0.58647 m 19.9909,0.96783 c -21.8229,0.25404 -43.7919,1.0684 -64.7069,3.22958 -6.0988,0.6302 -12.5156,0.703 -19.1546,0.37912 m 15.8867,-9.958 c -21.0924,0.0611 -44.3308,0.83978 -66.322,2.55935 -4.66,0.36437 -9.3335,0.59387 -14.0145,0.73761 m 25.1787,1.57292 c -21.8845,0.84268 -46.1417,1.14786 -71.806,3.44259 -7.3935,0.66108 -14.0633,0.82637 -20.2568,0.65999 m 16.0687,-5.2128 c -22.2287,0.70019 -43.4129,-0.21817 -63.57928,-0.60969 -4.74599,-0.0921 -9.69602,-0.15733 -14.77002,-0.2112 m 16.09467,2.18101 c -21.56952,-1.11607 -44.90441,0.94131 -68.02805,2.80363 -9.50727,0.76569 -18.45143,0.92588 -27.01873,0.87087 m 25.38792,-1.36628 c -22.26956,-0.21285 -44.18119,0.91345 -65.86446,2.77275 -8.83881,0.75792 -17.96084,0.7222 -27.25649,0.27306 m 30.26338,-8.2725 c -12.95239,0.72101 -25.92628,1.07291 -39.03691,1.77151 -0.1277,-8.87801 -0.32865,-17.5703 -0.64804,-25.79625 -0.18229,-4.69505 -0.34598,-9.78758 -0.53074,-15.16143 m 2.54898,20.30046 c 0.24609,-21.4063 0.53089,-44.67405 1.01246,-67.38597 0.15114,-7.12856 0.27987,-14.14932 0.4137,-21.10857 m -5.14444,20.14336 c -0.26278,-9.15039 -0.2223,-18.63421 -0.058,-28.36435 13.02239,-0.57324 26.28226,-1.61888 39.303,-2.90557 7.64227,-0.75519 15.10831,-1.03675 22.42264,-1.10799 m -47.69546,9.6428 c 21.67095,0.95383 44.72072,-0.46412 67.51004,-1.43246 8.64863,-0.36749 17.04539,-0.55576 25.28194,-0.72494 m -29.91538,-3.95943 c 21.70171,0.0299 45.76968,-1.9298 70.61784,-5.78907 6.92536,-1.07561 13.46878,-1.56391 19.80193,-1.71454 m -26.29007,4.62272 c 23.14248,0.82209 44.66006,0.16955 67.35706,0.54807 5.8736,0.098 11.6379,0.1275 17.317,0.10888 m -13.2078,2.41641 c 22.6552,-1.096 44.1065,0.18305 65.6815,0.54893 10.0084,0.16973 20.5817,0.26617 31.5279,0.40033 m -32.588,2.29297 c 22.9091,0.73061 44.8036,-0.28106 67.7837,-0.88393 4.9772,-0.13057 9.858,-0.17263 14.6653,-0.14457 m -16.9129,-2.24129 c 21.4576,0.16202 43.9154,-1.17828 65.1031,-3.56492 8.1899,-0.92252 16.9977,-0.92714 26.2461,-0.42904 m -26.9067,0.32484 c 21.691,1.07554 43.847,-0.72017 64.9202,-2.1333 10.5413,-0.70688 21.7348,-0.43475 33.1463,0.28961 m -30.0531,5.2497 c 21.9352,0.53793 46.0431,0.17257 71.4404,0.54819 8.4774,0.12538 16.2245,0.0525 23.5941,-0.17533 m -27.5096,-1.54203 c 23.2035,-0.37554 45.3653,-0.16622 69.4288,-0.45686 7.407,-0.0895 14.3601,-0.191 21.0203,-0.32934 -0.04,1.12698 -0.088,2.25291 -0.1432,3.37769 m -19.2517,-4.13237 c 6.2556,0.23651 12.5762,0.35018 18.8596,0.40403 -0.9618,15.70695 -2.1282,31.08423 -4.8195,46.94664 -1.2406,7.31182 -1.5729,14.49871 -1.3657,21.60097 m 8.3628,-18.28923 c -0.4588,22.48171 0.8228,43.51982 2.9791,63.91204 0.2211,2.09145 0.3914,4.22061 0.5183,6.38157 -4.5894,-0.25337 -9.3794,-0.35954 -14.2947,-0.37755 m 6.7652,-6.03592 c 0.019,2.22372 0.035,4.47719 0.049,6.75597 -19.5801,-0.65169 -39.3003,0.49479 -58.386,0.76988 -10.3293,0.14888 -20.8874,-0.11424 -31.3788,-0.68227 m 26.5585,6.44592 c -22.8884,0.83226 -43.673,0.23044 -64.4016,0.66994 -9.1057,0.19307 -19.1445,0.12307 -29.7356,-0.0964 m 23.4667,-5.16689 c -21.8029,-0.12173 -44.6477,0.17913 -67.2663,0.51802 -8.7163,0.13059 -17.188,0.16676 -25.4845,0.16646 m 29.6639,-2.88469 c -21.4782,1.16777 -45.004,2.24269 -68.3328,6.7026 -11.4782,2.19437 -22.4232,1.86319 -33.2291,0.60007 m 32.554,-6.40635 c -21.3159,-0.0807 -45.2249,1.53067 -69.0032,4.60082 -5.9026,0.76211 -11.4838,1.08281 -16.816,1.10242 m 23.1566,-8.23075 c -23.376,1.28885 -45.0687,-0.0755 -68.5452,-0.24433 -9.1571,-0.0658 -17.8149,0.20936 -26.1983,0.79642 m 27.0234,1.77795 c -22.3609,0.34506 -44.242,0.0171 -66.07774,0.0913 -9.10569,0.0309 -18.37316,0.11284 -27.71873,0.26081 m 17.81641,-1.49242 c -21.7617,0.92386 -42.74766,1.12697 -61.56859,3.41208 -5.8632,0.71187 -12.58304,0.86156 -19.85037,0.65578 m 13.65963,-5.12425 c -22.15772,0.60945 -43.51286,1.79628 -63.85357,5.39269 -8.07699,1.42808 -16.82933,1.81162 -25.90637,1.8243 m 25.97215,-2.1138 c -8.5834,0.3081 -17.22036,0.56438 -25.77301,0.91819 0.59054,-12.81486 1.37194,-25.40892 2.81379,-37.27342 1.08527,-8.93037 1.33939,-19.05836 1.37406,-29.703 m -1.49331,20.02615 c 1.46369,-22.40054 -0.2517,-43.60914 -1.33418,-64.1863 -0.17552,-3.33651 -0.30481,-6.77051 -0.404,-10.28089 3.67704,0.0976 7.38779,0.10962 11.11311,0.0611 m -4.08574,-4.35544 c 23.09219,1.03528 46.17658,0.38734 71.8969,1.15735 10.1227,0.30305 19.00826,0.36856 27.29876,0.33802 m -23.66427,0.36565 c 21.8936,1.20779 42.66974,0.35921 61.35525,1.06586 5.7991,0.21931 12.45263,0.38282 19.64309,0.55377 m -18.78278,-1.89388 c 21.13318,1.14678 45.07101,-0.0583 68.54621,-0.15286 5.0019,-0.0201 9.8692,-0.005 14.6379,0.0423 m -20.7741,4.49952 c 21.3357,0.9439 43.6077,0.25561 64.1282,0.73083 7.9078,0.18313 16.4487,0.044 25.3323,-0.33737 m -26.8472,-2.75207 c 22.4425,0.89266 45.5291,-1.40185 69.9472,-4.20509 10.2112,-1.17227 19.4906,-1.086 28.3197,-0.35537 m -23.2483,2.52713 c 22.4727,-0.25367 44.7318,0.14677 67.5401,0.42668 7.8272,0.096 15.4151,0.10256 22.8341,0.0519 m -26.0329,-3.60351 c 20.9203,-0.0301 46.0187,1.26531 71.3799,3.77814 8.0492,0.79753 15.3013,1.12852 22.058,1.23415 m -20.7436,-4.30567 c 23.1526,0.79189 44.8065,0.98674 67.7836,2.98558 6.2153,0.54069 12.2125,0.72413 18.0367,0.66908 m -21.2663,-1.44181 c 20.9397,-0.17227 42.86,0.86387 61.9041,2.62039 6.3236,0.58325 13.3537,0.6084 20.7429,0.26898 -0.017,2.42186 0.01,4.80056 0.062,7.14397 m -18.7141,-6.43382 c 6.5521,-0.36381 13.1203,-0.54538 19.6974,-0.64098 -0.1424,15.40907 -0.2345,31.30336 -0.3722,46.39221 -0.086,9.36806 0.01,18.95467 0.2728,28.56633 m 0.3598,-26.4613 c 0.2823,21.49716 1.8482,43.07729 6.0865,62.60233 0.2689,1.23871 0.5023,2.50094 0.7037,3.78462 -7.309,-0.76896 -15.814,-0.73736 -24.7407,-0.37758 m 21.4461,8.05656 c -0,0.58738 -0.01,1.17313 -0.01,1.75726 -21.5428,-0.0224 -42.8571,-2.27277 -63.6906,-6.49296 -10.653,-2.15794 -21.746,-1.78636 -32.9751,-0.48729 m 24.3652,-3.73338 c -22.7564,-0.8018 -43.2954,-0.193 -63.2134,-0.57855 -7.2789,-0.14089 -15.1864,-0.001 -23.3852,0.3613 m 19.3264,9.33131 c -23.4671,0.93375 -44.1421,0.24275 -65.7725,0.7613 -10.3638,0.24845 -21.1308,-0.0625 -32.1065,-0.76557 m 26.9383,-0.45971 c -22.5737,1.10616 -43.157,-0.11349 -62.787,-0.36613 -7.5187,-0.0968 -15.9496,-0.23177 -24.8556,-0.44858 m 18.4381,-7.96933 c -21.3255,0.13178 -43.296,-0.50777 -63.275,-1.52349 -4.6083,-0.23428 -9.5269,-0.28699 -14.6741,-0.19517 m 15.7753,3.10474 c -23.5175,0.43659 -43.0529,0.6596 -62.5124,2.01074 -9.5972,0.66637 -20.6546,0.78245 -32.1839,0.83331 m 27.7161,0.51538 c -23.4369,-1.16702 -44.7047,0.22443 -67.41788,0.64037 -7.76789,0.14225 -15.57488,-0.006 -23.47992,-0.39473 m 22.12145,1.53327 c -22.381,-1.15726 -43.55327,-1.05912 -64.03628,-3.13776 -4.50841,-0.45752 -9.23668,-0.67628 -14.12925,-0.72244 m 9.71372,6.59844 c -23.20262,-1.24805 -42.1417,0.77973 -59.73982,2.31619 -7.06804,0.6171 -15.72853,0.45907 -25.08516,-0.17424 -0.001,-0.0311 -0.002,-0.0623 -0.004,-0.0934 m 24.22653,-4.75512 c -8.60523,-0.0769 -17.30333,-0.1676 -26.17898,-0.30603 -0.64433,-14.03266 -1.76681,-28.1939 -3.74174,-42.6338 -1.55638,-11.37965 -1.52851,-22.5861 -1.10182,-33.97551 m 9.86265,35.08487 c 0.35732,-23.16232 -0.82824,-45.67133 -3.00947,-70.40159 -0.28679,-3.25162 -0.47673,-6.40265 -0.58592,-9.47033 2.6246,-0.13778 5.32077,-0.20168 8.07506,-0.20604 m -6.23581,9.60476 c 0.0102,-3.50222 0.0191,-7.00684 0.0252,-10.50866 18.52794,0.34302 36.97965,0.7624 55.13443,1.99992 10.61576,0.72363 21.73673,0.9073 33.15302,1.07164 m 310.79562,118.13227 -3.2172,0 m -400.31514,-30.55965 0.0239,-2.87021 m 110.03024,33.42986 -2.98281,0 m 138.19569,-120 3.8031,0 m 371.6361,120 -3.3907,0"
       id="rect3438"
       inkscape:path-effect="#path-effect4291"
       inkscape:original-d="m 822,365.36218 631,0 -1,120 -631,0 z"
       inkscape:connector-curvature="0"
       sodipodi:nodetypes="ccccc" />
    <text
       sodipodi:linespacing="125%"
       id="text4293"
       y="444.84369"
       x="861.67505"
       style="font-size:69.37175751px;font-style:normal;font-variant:normal;font-weight:normal;font-stretch:normal;line-height:125%;letter-spacing:0px;word-spacing:0px;fill:#000000;fill-opacity:1;stroke:none;font-family:KG Second Chances Sketch;-inkscape-font-specification:KG Second Chances Sketch"
       xml:space="preserve"><tspan
         style="font-style:normal;font-variant:normal;font-weight:normal;font-stretch:normal;text-align:start;text-anchor:start;font-family:Sketch Block;-inkscape-font-specification:Sketch Block"
         y="444.84369"
         x="861.67505"
         sodipodi:role="line"
         id="tspan4295">channel server</tspan></text>
  </g>
</svg>
