<?xml version="1.0" encoding="UTF-8" standalone="no"?>
<!-- Created with Inkscape (http://www.inkscape.org/) -->

<svg
   xmlns:dc="http://purl.org/dc/elements/1.1/"
   xmlns:cc="http://creativecommons.org/ns#"
   xmlns:rdf="http://www.w3.org/1999/02/22-rdf-syntax-ns#"
   xmlns:svg="http://www.w3.org/2000/svg"
   xmlns="http://www.w3.org/2000/svg"
   xmlns:sodipodi="http://sodipodi.sourceforge.net/DTD/sodipodi-0.dtd"
   xmlns:inkscape="http://www.inkscape.org/namespaces/inkscape"
   width="1052.3622"
   height="744.09448"
   id="svg2"
   version="1.1"
   inkscape:version="0.48.4 r9939"
   sodipodi:docname="stream.svg">
  <defs
     id="defs4">
    <inkscape:path-effect
       tgtlength_rdm="0.3;1"
       tgtlength="5"
       tgtscale="9.8"
       tgt_places_rdmness="1;1"
       nbtangents="5"
       tremble_frequency="3.5"
       tremble_size="2.6;1"
       parallel_offset="2.6;1"
       ends_tolerance="0.1;1"
       strokeoverlap_rdm="0.1;2173367531"
       strokeoverlap="0"
       strokelength_rdm="0;1"
       strokelength="100"
       nbiter_approxstrokes="8"
       is_visible="true"
       id="path-effect4910"
       effect="sketch" />
    <inkscape:path-effect
       tgtlength_rdm="0.3;1"
       tgtlength="4"
       tgtscale="10"
       tgt_places_rdmness="1;1"
       nbtangents="5"
       tremble_frequency="1"
       tremble_size="1.8;1"
       parallel_offset="1.9;1"
       ends_tolerance="0;1429194784"
       strokeoverlap_rdm="0.1;1"
       strokeoverlap="0"
       strokelength_rdm="0;1"
       strokelength="60"
       nbiter_approxstrokes="5"
       is_visible="true"
       id="path-effect4906"
       effect="sketch" />
    <inkscape:path-effect
       effect="sketch"
       id="path-effect3781"
       is_visible="true"
       nbiter_approxstrokes="3"
       strokelength="40"
       strokelength_rdm="0;3540803433"
       strokeoverlap="0.3"
       strokeoverlap_rdm="0.3;676846516"
       ends_tolerance="0.1;78838508"
       parallel_offset="2.7;1"
       tremble_size="2.5;1"
       tremble_frequency="1"
       nbtangents="5"
       tgt_places_rdmness="1;1"
       tgtscale="10"
       tgtlength="0"
       tgtlength_rdm="0.3;1" />
    <inkscape:path-effect
       tgtlength_rdm="0.3;1"
       tgtlength="4"
       tgtscale="10"
       tgt_places_rdmness="1;1"
       nbtangents="5"
       tremble_frequency="1"
       tremble_size="1.8;1"
       parallel_offset="1.9;1"
       ends_tolerance="0;1429194784"
       strokeoverlap_rdm="0.1;1"
       strokeoverlap="0"
       strokelength_rdm="0;1"
       strokelength="60"
       nbiter_approxstrokes="5"
       is_visible="true"
       id="path-effect3778"
       effect="sketch" />
    <inkscape:path-effect
       effect="sketch"
       id="path-effect3774"
       is_visible="true"
       nbiter_approxstrokes="5"
       strokelength="60"
       strokelength_rdm="0;1"
       strokeoverlap="0"
       strokeoverlap_rdm="0.1;1"
       ends_tolerance="0;1429194784"
       parallel_offset="1.9;1"
       tremble_size="1.8;1"
       tremble_frequency="1"
       nbtangents="5"
       tgt_places_rdmness="1;1"
       tgtscale="10"
       tgtlength="4"
       tgtlength_rdm="0.3;1" />
    <inkscape:path-effect
       tgtlength_rdm="0.3;1"
       tgtlength="5"
       tgtscale="9.8"
       tgt_places_rdmness="1;1"
       nbtangents="5"
       tremble_frequency="5"
       tremble_size="2.7;1"
       parallel_offset="2.7;1"
       ends_tolerance="0.1;4044545397"
       strokeoverlap_rdm="0.3;1"
       strokeoverlap="0"
       strokelength_rdm="0;1"
       strokelength="100"
       nbiter_approxstrokes="7"
       is_visible="true"
       id="path-effect3772"
       effect="sketch" />
    <inkscape:path-effect
       effect="sketch"
       id="path-effect2994"
       is_visible="true"
       nbiter_approxstrokes="8"
       strokelength="100"
       strokelength_rdm="0;1"
       strokeoverlap="0"
       strokeoverlap_rdm="0.1;2173367531"
       ends_tolerance="0.1;1"
       parallel_offset="2.6;1"
       tremble_size="2.6;1"
       tremble_frequency="3.5"
       nbtangents="5"
       tgt_places_rdmness="1;1"
       tgtscale="9.8"
       tgtlength="5"
       tgtlength_rdm="0.3;1" />
    <marker
       inkscape:stockid="Arrow2Mend"
       orient="auto"
       refY="0.0"
       refX="0.0"
       id="Arrow2Mend"
       style="overflow:visible;">
      <path
         id="path3849"
         style="fill-rule:evenodd;stroke-width:0.62500000;stroke-linejoin:round;"
         d="M 8.7185878,4.0337352 L -2.2072895,0.016013256 L 8.7185884,-4.0017078 C 6.9730900,-1.6296469 6.9831476,1.6157441 8.7185878,4.0337352 z "
         transform="scale(0.6) rotate(180) translate(0,0)" />
    </marker>
  </defs>
  <sodipodi:namedview
     id="base"
     pagecolor="#ffffff"
     bordercolor="#666666"
     borderopacity="1.0"
     inkscape:pageopacity="0.0"
     inkscape:pageshadow="2"
     inkscape:zoom="0.70710678"
     inkscape:cx="547.71658"
     inkscape:cy="397.85693"
     inkscape:document-units="px"
     inkscape:current-layer="layer1"
     showgrid="false"
     inkscape:window-width="1596"
     inkscape:window-height="864"
     inkscape:window-x="0"
     inkscape:window-y="16"
     inkscape:window-maximized="0" />
  <metadata
     id="metadata7">
    <rdf:RDF>
      <cc:Work
         rdf:about="">
        <dc:format>image/svg+xml</dc:format>
        <dc:type
           rdf:resource="http://purl.org/dc/dcmitype/StillImage" />
        <dc:title />
      </cc:Work>
    </rdf:RDF>
  </metadata>
  <g
     inkscape:label="Layer 1"
     inkscape:groupmode="layer"
     id="layer1"
     transform="translate(0,-308.2677)">
    <path
       style="fill:#d40000;fill-opacity:0;stroke:#000000;stroke-width:1;stroke-miterlimit:4;stroke-opacity:1;stroke-dasharray:24, 24;stroke-dashoffset:0"
       d="m 54.231281,502.67281 c 10.28407,-0.58127 18.794326,0.002 27.809064,-0.0197 9.017893,-0.0221 18.617605,-0.43624 27.291745,-1.3 8.67413,-0.86375 19.54852,0.17896 30.05423,0.54844 0,0 0,0 10e-6,0 5.25653,0.18487 9.82122,0.13823 14.06588,4e-5 m -0.64439,-6.76498 c 8.77042,-0.83105 19.32745,0.42678 29.39502,1.26025 1e-5,0 1e-5,0 1e-5,0 10.0711,0.83376 19.36442,0.31268 29.54642,0.93438 10.182,0.6217 18.60907,-0.37666 27.27143,-1.11719 0,0 0,0 0,0 4.33421,-0.37052 9.38766,-0.47534 14.83955,-0.59531 m -1.8444,6.05988 c 8.98043,0.48571 20.00155,-1.33888 31.44637,-4.00207 0,0 0,0 10e-6,0 11.44882,-2.66412 17.45139,0.30476 23.79798,0.91406 6.34659,0.60931 19.93161,-0.24822 31.21205,-0.75156 0,0 0,0 0,0 5.64417,-0.25185 10.45036,-0.13344 15.07736,0.16671 m -0.86237,5.17508 c 1.27836,-0.0483 2.56153,-0.0829 3.85261,-0.10611 0.52418,8.14698 1.4182,16.82345 3.66986,25.26838 0,0 0,0 0,0 2.58179,9.68306 -0.25776,18.35706 -0.75156,26.47924 -0.4938,8.12218 -0.28106,18.50717 -0.83281,26.92612 -0.27607,4.21242 -0.11817,9.15225 0.26372,14.40742 m -2.15189,-0.0505 c 0.85165,9.77047 0.0204,18.91195 0.0397,28.15492 0,0 0,0 0,0 0.0193,9.24621 -0.81778,18.31413 -2.47813,26.35736 -1.66034,8.04323 -0.0611,18.53615 -0.20312,27.02768 0,0 0,0 0,0 -0.0711,4.24874 -0.18634,8.97067 -0.40165,13.77728 m 2.69674,5.21008 c -0.20928,9.00571 0.34592,17.49157 1.05647,23.8901 0,0 0,0 0,0 0.7108,6.40077 -0.72773,20.45967 -2.17344,32.79643 -1.4457,12.33675 0.50883,18.78558 1.52344,27.79954 0,10e-6 0,10e-6 0,10e-6 0.50766,4.51014 0.33758,9.26904 -0.12609,14.08727 m -1.35703,1.59021 c -0.29015,10.0075 0.69495,19.57909 2.0925,30.1656 1.39804,10.59022 0.34869,19.35589 1.03594,29.48549 0.68724,10.1296 0.0236,17.92318 0.0812,25.17924 0,0 0,0 1e-5,0 0.0289,3.63057 -0.0846,8.43832 -0.3189,13.5695 m 0.70414,0.8885 c -0.0862,1.22276 -0.17386,2.43855 -0.26735,3.64592 -8.88848,-0.28433 -18.03338,-0.93679 -28.72668,-2.37275 -1e-5,0 -1e-5,0 -1e-5,0 -12.31434,-1.65364 -18.03294,-0.46245 -25.50424,-1.38125 -7.4713,-0.9188 -20.01672,0.28051 -31.49642,0.85312 0,0 0,0 0,0 -5.74387,0.28651 -10.24806,0.1967 -14.24655,-0.0546 m -1.51143,2.02468 c -9.29077,-0.20319 -19.18307,-0.59821 -28.98823,-1.8076 -9.80859,-1.20981 -19.21513,-0.7804 -29.05893,-2.31562 -9.8438,-1.53522 -18.58787,0.39961 -27.16986,1.17812 0,0 0,0 0,0 -4.294,0.38953 -9.24421,0.62411 -14.4969,0.99744 m 0.66894,-1.50557 c -8.97266,-0.30302 -18.57041,1.62463 -27.14012,4.87532 -1e-5,0 -1e-5,0 -1e-5,0 -8.57271,3.25183 -18.61076,-0.0542 -27.27142,-0.1625 -8.660665,-0.10833 -18.771708,-1.44828 -27.758927,-4.36719 -2e-6,0 -3e-6,0 -5e-6,0 -4.496755,-1.46047 -9.309525,-1.13915 -14.239388,-0.13027 m -1.762924,1.55212 c -4.800845,-0.013 -9.548317,0.0858 -14.355752,0.28567 -0.176894,-4.6709 -0.420167,-9.23003 -0.86182,-13.69009 -0.861725,-8.70217 0.225942,-19.14762 0.670312,-28.8558 0.44437,-9.70818 0.239011,-19.18473 0.73125,-28.95737 0.246292,-4.88974 0.297057,-9.58117 0.339689,-14.16905 m -0.908354,-0.10572 c 0.08046,-8.9255 -0.921631,-18.77388 -2.762585,-27.76987 0,0 -1e-6,0 -1e-6,-1e-5 -1.841597,-8.99913 0.628403,-20.19324 1.889064,-32.02454 1.26066,-11.83131 -0.748582,-19.35793 -2.234375,-29.48549 0,0 0,0 0,-1e-5 -0.743417,-5.06732 -0.659041,-9.68683 -0.306412,-14.08501 m 3.17024,8.48386 c -0.222652,-8.74981 0.564637,-18.84067 1.686171,-27.97318 10e-7,0 10e-7,0 10e-7,0 1.121927,-9.1357 0.204952,-19.69613 0.609374,-30.52142 0.404423,-10.8253 -0.06764,-18.89182 -0.182812,-28.10424 0,0 0,0 0,-10e-6 -0.05763,-4.60943 -0.200804,-9.46973 -0.474109,-14.46384 m -3.304648,0.4733 c -0.60141,-9.06179 0.201125,-20.36457 0.610007,-32.52285 0,0 0,0 0,0 0.409025,-12.16254 0.05803,-18.84497 0.1625,-27.94174 0.104475,-9.09677 1.138311,-18.9988 3.392186,-28.42924 1e-6,0 1e-6,0 1e-6,0 1.127728,-4.71852 1.101579,-9.23797 0.76589,-13.52077 m -4.402026,-1.11994 c -0.09275,-4.52586 0.03788,-9.19587 0.322356,-13.90095 5.140071,-0.0309 10.445391,-0.0995 15.838581,-0.0844 2e-6,0 3e-6,0 5e-6,0 10.600845,0.0297 18.674612,-1.70754 27.474549,-5.09844 8.799937,-3.3909 19.087092,0.0882 28.713612,0.28437 0,0 0,0 0,1e-5 4.81663,0.0981 9.87464,0.26378 15.21075,0.57124 m -78.185264,3.0438 c 10.332256,-0.55354 20.042335,1.00641 31.546514,3.00683 10e-7,0 2e-6,0 3e-6,0 11.508205,2.00112 19.371127,0.12248 29.546427,0.34531 10.1753,0.22283 17.94397,-1.30501 25.26049,-3.92031 0,0 0,0 0,0 3.66082,-1.30857 8.63158,-1.07186 14.08079,-0.2704 m -0.82175,2.30198 c 8.82508,0.31728 20.15492,-0.56481 31.91373,-1.70658 11.76292,-1.14217 17.68208,-0.19656 24.48861,-0.56875 6.80654,-0.37219 19.89587,0.75752 31.1308,2.29531 0,0 0,0 1e-5,0 5.6214,0.76944 10.50923,0.72305 15.30734,0.43884 m 1.03983,-0.70209 c 9.4256,0.77006 18.67478,-0.66523 27.48497,-2.01175 0,0 0,0 0,0 8.81328,-1.34699 18.78173,-0.0559 27.75893,-0.14219 8.9772,-0.0863 19.35149,-0.26609 29.5058,-0.79218 0,0 0,0 0,0 5.08071,-0.26323 9.88059,-0.23561 14.63514,-0.11785 m 1.18394,3.02312 c 0.24913,0.0148 0.49884,0.0284 0.74913,0.0409 -0.0222,9.73077 0.74901,17.91846 2.11613,26.10167 0,0 0,0 0,0 1.4046,8.40764 -0.3787,18.76317 -1.1375,27.7183 -0.75881,8.95513 0.2235,19.26259 0.67031,29.24174 0,0 0,0 0,0 0.22356,4.99307 0.0518,9.68607 -0.34938,14.25145 m -3.04245,3.59816 c 0.34472,8.76308 0.006,18.4915 0.0199,26.91691 0.0136,8.42836 -1.52966,18.86765 -4.59062,28.02299 -3.06096,9.15534 1.51775,20.02492 4.52969,31.51674 1.50702,5.74993 1.31684,10.2751 0.56277,14.31308 m -1.25376,-6.55865 c -0.33812,8.89196 -0.25692,19.13769 -0.79183,28.84646 0,10e-6 0,10e-6 0,10e-6 -0.53509,9.71217 0.44925,20.10109 1.34063,31.71986 0.89138,11.61877 0.25796,18.17411 0.75156,25.97143 0,0 0,0 0,0 0.24697,3.90138 0.003,8.67543 -0.54494,13.6763 m 0.40206,7.56642 c -0.66274,9.64848 -0.51371,18.43312 -1.54306,26.73317 0,0 0,0 0,10e-6 -1.02971,8.30296 0.72848,19.22345 2.19375,29.07923 1.46528,9.85579 0.11565,18.74144 0.34531,27.65736 0,10e-6 0,10e-6 0,10e-6 0.11492,4.46108 6e-5,9.154 -0.25899,13.85233 m -1.30581,-1.6078 c -0.0214,0.29762 -0.0412,0.59524 -0.0595,0.89288 -9.82345,0.34844 -18.09427,0.72024 -26.74696,2.07969 -1e-5,0 -1e-5,0 -1e-5,0 -8.92459,1.40218 -19.15358,-0.88819 -28.87611,-2.64062 -9.72253,-1.75243 -18.07336,0.52819 -25.62611,1.60468 0,0 -1e-5,0 -1e-5,0 -3.77902,0.53863 -8.48043,0.40522 -13.36369,0.006 m -9.38193,0.62381 c -9.43251,-0.32444 -18.89964,-0.0182 -28.15527,-0.0606 -9.25887,-0.0425 -17.87078,-0.50124 -25.01674,-1.50312 -7.14596,-1.00188 -19.66444,-0.58622 -30.39955,-1.74687 0,0 0,0 0,-10e-6 -5.37132,-0.58073 -10.32352,-0.28234 -15.31296,0.46208 m 0.87549,1.97543 c -9.10146,0.006 -19.10826,-0.61631 -28.76499,-1.84844 -9.66011,-1.23256 -18.86778,-0.35913 -28.022991,-1.05625 -9.155204,-0.69713 -18.514343,0.12532 -26.946424,0.36562 -10e-7,0 -3e-6,0 -4e-6,0 -4.218992,0.12024 -9.284116,-0.019 -14.783358,-0.32722 m -1.909175,0.55043 c -3.654822,-0.0858 -7.289595,0.0426 -10.893654,0.34626 0.114016,-5.36191 0.305683,-10.28095 0.617864,-14.91454 10e-7,0 10e-7,0 10e-7,0 0.508691,-7.55032 0.425751,-18.66622 1.3,-27.41361 0.874248,-8.7474 -0.793948,-20.06927 -2.376562,-31.63861 -10e-7,-10e-6 -10e-7,-10e-6 -10e-7,-10e-6 -0.791861,-5.78872 -0.468954,-10.3647 0.376107,-14.49466 m 4.722181,4.30136 c -0.142225,-10.19633 -0.409709,-18.96971 -1.238913,-28.35759 -0.829494,-9.39117 0.513567,-19.35962 1.523438,-29.48549 1.00987,-10.12588 -0.962811,-18.76602 -2.864062,-27.7183 0,0 -1e-6,-10e-6 -1e-6,-10e-6 -0.951291,-4.47927 -0.864516,-9.28368 -0.456176,-14.20102 m 1.288761,-2.53253 c -0.217328,-9.83848 -1.486947,-19.52006 -4.468523,-30.00328 0,0 -1e-6,0 -1e-6,0 -2.982617,-10.48689 -0.02708,-19.00476 -0.08125,-28.42924 -0.05417,-9.42448 1.233511,-18.82242 3.717186,-27.90111 0,0 10e-7,0 10e-7,-10e-6 1.242707,-4.54252 1.024935,-9.38753 0.277372,-14.37038 m 1.143665,-0.63666 c -0.796934,-9.89916 0.896702,-19.28632 2.682088,-29.3126 0,0 10e-7,0 10e-7,0 1.786009,-10.02979 -0.426496,-17.67138 -1.279688,-24.42768 -0.853193,-6.7563 0.338947,-19.57323 1.015624,-30.15579 0,-1e-5 0,-1e-5 0,-1e-5 0.338576,-5.29499 0.284825,-10.06457 0.09449,-14.70971 m -4.787497,-1.57655 c -0.305365,-3.68286 -0.202776,-7.47583 0.167317,-11.36438 6.387982,-0.27679 13.43114,-0.78769 20.59112,-1.47701 2e-6,-10e-6 4e-6,-10e-6 6e-6,-10e-6 11.739156,-1.13018 17.690469,0.76992 24.508923,2.31563 6.818454,1.54571 19.453467,0.38838 29.810487,1.17813 5.18214,0.39515 10.00131,0.14717 14.7732,-0.44683 m -81.312039,0.14256 c 10.081287,0.39877 18.776123,-0.0163 27.788964,-0.041 10e-7,0 3e-6,0 4e-6,0 9.015995,-0.0247 18.696684,0.13197 27.515171,0.38594 8.81849,0.25397 20.2575,0.0575 32.20736,0.1625 1e-5,0 1e-5,0 1e-5,0 5.97911,0.0525 10.50765,0.0285 14.50019,-0.0348 m 3.43096,-3.23468 c 9.04058,0.75724 19.03332,0.32464 28.54162,0.97421 9.51162,0.64979 18.16165,-0.64621 25.89018,-1.92969 7.72852,-1.28348 18.57419,0.0869 27.14954,0.28437 1e-5,0 1e-5,0 1e-5,0 4.29068,0.0988 9.33205,0.34319 14.7659,0.80425 m 2.21062,2.64853 c 9.0949,-0.33061 19.3841,0.83151 29.5775,2.49879 10.19696,1.66786 18.81923,-0.81243 27.86049,-2.41719 9.04125,-1.60476 18.26267,0.79632 26.19486,2.37656 0,0 0,0 0,0 3.96888,0.79068 8.95324,0.7747 14.35767,0.54361 m 1.88816,-4.30065 c 0.5698,0.0436 1.13881,0.084 1.7071,0.12158 0.0779,9.55459 -0.0251,18.40425 -0.0373,28.39421 -0.0131,10.62204 -0.52833,19.05507 -1.56407,28.61205 -1.03573,9.55699 0.31505,19.05114 0.93438,28.59174 0,0 0,0 0,0 0.30988,4.77364 0.55676,9.435 0.97649,13.9911 m -2.0535,-4.85424 c -0.42531,10.00759 0.72631,19.71502 2.17389,30.59216 0,0 0,1e-5 0,1e-5 1.44807,10.88095 -0.75252,18.88667 -2.25469,28.10423 -1.50218,9.21757 0.98421,19.03672 2.96562,28.55111 0,1e-5 0,1e-5 0,1e-5 0.9914,4.76053 0.87165,9.50241 0.38848,14.22155 m -1.50618,3.91311 c -0.48657,9.40537 0.10337,18.755 0.3052,27.68811 0,0 0,0 0,0 0.20191,8.93624 -1.00418,19.2957 -3.00625,29.30268 -2.00207,10.00697 0.29054,20.04035 0.87344,31.55736 0,0 0,0 0,0 0.29165,5.76254 0.3891,10.35111 0.50984,14.51171 m -1.60672,-5.37554 c -0.006,9.35807 0.94175,18.76725 2.84375,27.72879 1.90268,8.96467 -0.86727,18.47297 -2.57968,26.82455 -1.71242,8.35158 0.13331,20.13034 0.40625,31.84174 0,0 0,0 0,0 0.13656,5.8598 0.067,10.76323 -0.10355,15.52988 m -0.44517,3.01157 c -0.017,0.62436 -0.0302,1.24 -0.0397,1.84723 -9.06281,0.11777 -17.31915,-1.62849 -25.44383,-4.23408 -8.67353,-2.78159 -19.61061,0.41675 -30.23705,1.23907 -10.62644,0.82232 -18.61727,0.27611 -27.29174,0.8125 -4.34028,0.26838 -9.06952,0.1238 -13.86706,-0.22916 m 2.47628,-1.90378 c -9.27676,-0.11383 -18.4858,1.52232 -26.87574,4.55012 -8.39288,3.02887 -20.2183,-0.7328 -32.06518,-2.21406 -11.84688,-1.48125 -18.92601,-0.15221 -28.22611,-0.44687 0,0 -1e-5,0 -1e-5,0 -4.6533,-0.14744 -9.50975,-0.23785 -14.48333,-0.38096 m -2.12819,-6.32235 c -9.6961,-0.17462 -18.88595,1.59982 -28.11437,4.77362 -9.23165,3.17491 -18.85851,-0.82489 -27.98237,-2.47813 -9.123852,-1.65323 -18.892831,0.12141 -28.124544,0.38594 -2e-6,0 -4e-6,0 -5e-6,0 -4.619089,0.13236 -9.241076,0.29195 -13.757648,0.57511 m 2.062822,3.40653 c -3.634296,0.15293 -7.541757,0.199 -11.534145,0.22033 -0.0057,-5.50262 -0.174844,-11.05283 -0.005,-16.43141 0,0 0,-1e-5 0,-1e-5 0.29243,-9.25934 -0.468068,-18.48983 -1.401563,-26.88548 -0.933495,-8.39566 -0.922526,-20.26786 -2.762499,-32.24799 0,0 -10e-7,0 -10e-7,-10e-6 -0.920631,-5.99425 -0.615178,-10.35012 0.225378,-13.99319 m 2.354721,-1.94797 c 0.39182,-9.65531 -0.288775,-18.54139 -0.853536,-27.07848 -10e-7,0 -10e-7,0 -10e-7,0 -0.564959,-8.54008 -0.425004,-18.50961 -1.259375,-26.94643 -0.83437,-8.43682 1.158829,-18.60243 3.493749,-27.21048 1e-6,0 1e-6,-10e-6 2e-6,-10e-6 1.168277,-4.30704 1.217955,-9.11177 1.02446,-14.06978 m -3.157053,0.62677 c 0.209837,-9.92614 0.440319,-19.21561 1.29978,-29.08913 0,0 0,0 0,-10e-6 0.859761,-9.87697 -1.224846,-18.50175 -3.696875,-26.94642 -2.472029,-8.44467 1.258292,-19.05283 3.798436,-28.59174 10e-7,0 10e-7,0 10e-7,0 1.270962,-4.77279 1.093919,-9.75 0.423226,-14.93715 m -3.958232,-1.16572 c -0.600674,-8.89154 1.253647,-18.54483 3.778757,-27.07927 0,0 0,-1e-5 10e-7,-1e-5 2.525991,-8.53743 -1.031741,-19.0875 -3.087501,-28.71361 -2.055761,-9.62611 1.280364,-19.51467 3.859373,-29.95267 10e-7,0 10e-7,-1e-5 10e-7,-1e-5 1.290408,-5.22266 1.050803,-9.97913 0.24989,-14.61547 m -4.434158,0.807 c 0.04261,-4.12986 -0.09722,-8.14757 -0.396612,-12.108 5.08738,0.0871 9.877122,0.28099 14.427556,0.44194 7.884862,0.27889 19.355422,-1.192 29.505804,-3.575 10.150381,-2.38299 19.917127,0.5611 31.171427,1.66563 5.63109,0.55265 10.34636,0.43613 14.79642,0.0668 m -86.950284,-0.51287 c 9.168183,0.77682 17.859869,-0.66354 25.027424,-1.99144 0,0 10e-7,0 10e-7,0 7.170065,-1.32837 19.94787,0.10312 31.293299,0.28437 11.34543,0.18126 18.40994,0.40476 26.68236,1.23906 1e-5,0 1e-5,0 1e-5,0 4.13911,0.41745 8.93192,0.6125 13.90816,0.89806 m 3.10886,-0.53212 c 8.9797,0.29104 18.96666,0.58883 28.35887,1.78719 9.3955,1.19877 18.01216,0.0991 25.48393,0.28437 7.47177,0.18526 19.23476,-0.96809 29.14017,-2.88437 1e-5,0 1e-5,0 1e-5,0 4.95617,-0.95881 9.93852,-0.76005 15.08749,-0.12349 m -2.21425,-0.97407 c 8.94686,-0.65541 20.33731,0.31046 32.44171,0.91475 10e-6,0 10e-6,0 10e-6,0 12.10864,0.6045 19.01369,0.65562 28.44955,1.99062 9.43585,1.33501 18.41116,-0.87756 26.68236,-2.64062 0,0 0,0 0,0 4.1385,-0.88215 8.76564,-0.8978 13.41002,-0.70798 m -2.01943,5.11666 c 2.7172,0.24583 5.61725,0.20644 8.66705,-0.0517 0.48821,6.07187 1.80332,10.93591 3.51576,15.45488 2.44204,6.4443 -0.0574,19.35075 -0.18281,29.46518 -0.1254,10.11443 -1.20636,19.44743 -3.59531,29.76986 0,0 0,0 -10e-6,0 -1.19531,5.16483 -0.91619,10.03792 -0.0583,14.91737 m 0.87113,-3.14115 c 0.33793,8.81167 -0.0326,20.31293 -0.0816,32.36061 0,1e-5 0,1e-5 0,1e-5 -0.049,12.0519 -0.23041,17.39675 -0.67031,23.59486 -0.4399,6.19811 0.47416,19.17782 1.44219,28.95736 0,0 0,1e-5 0,1e-5 0.48435,4.89319 0.61631,9.97556 0.75953,15.34284 m 2.45005,0.51681 c 0.19647,9.39836 0.65207,18.40471 1.92948,26.65218 1.27786,8.25035 -0.64499,19.03563 -1.90937,28.5308 -1.26439,9.49517 -0.007,19.80432 -0.0203,30.84642 0,10e-6 0,10e-6 0,10e-6 -0.007,5.52491 -0.0785,10.38431 -0.21932,15.15164 m 5.13429,-2.05431 c -0.62277,9.568 -1.3382,19.34933 -4.00091,29.49575 -2.66365,10.14998 -0.14916,18.83359 -0.42657,27.92143 -0.2774,9.08783 0.69632,19.57872 2.09219,30.17611 0,0 0,0 0,0 0.69843,5.30241 0.89348,9.69496 1.11135,13.58274 m -5.09227,-4.58872 c 0.0941,2.83937 0.18118,5.79807 0.28725,8.86544 -6.39771,0.43716 -12.69426,1.45322 -18.5698,2.91702 -8.42416,2.09876 -18.9548,-0.87384 -28.30737,-2.64062 -9.35257,-1.76678 -18.26992,1.29465 -26.2558,3.87968 0,0 0,0 0,0 -3.99574,1.29343 -8.92065,1.06694 -14.19711,0.29218 m -2.92185,2.71378 c -9.33905,-0.2843 -20.55895,-0.59846 -33.13194,-1.78721 -12.57738,-1.18916 -18.89927,0.53503 -28.12455,1.58438 -9.22528,1.04934 -18.53452,0.70295 -27.04799,2.09219 0,0 0,0 0,0 -4.25971,0.6951 -9.16952,0.64378 -14.34955,0.36807 m 2.95935,-8.27 c -8.73637,-0.34363 -18.94192,1.54343 -28.27788,4.6113 0,0 -1e-5,0 -1e-5,0 -9.33923,3.06895 -19.06441,-0.43387 -28.63236,-1.3 -9.567951,-0.86612 -19.966484,-0.42196 -31.333921,-1.27968 -2e-6,0 -4e-6,0 -6e-6,-1e-5 -5.687698,-0.42916 -10.591592,-0.45596 -15.406582,-0.40021 m 7.16368,4.03618 c -6.46284,0.0173 -12.824584,-0.40786 -19.342949,-1.25273 -0.130547,-3.69218 -0.303308,-7.49748 -0.554346,-11.41268 -0.734838,-11.46054 0.475041,-19.12494 1.421875,-28.79487 0.946833,-9.66992 -0.0111,-18.48604 -0.02031,-26.88548 0,-10e-6 0,-10e-6 0,-10e-6 -0.0046,-4.20266 -0.365386,-8.77853 -1.086201,-13.30495 m -2.00098,0.22817 c 0.304319,-9.35152 0.234449,-19.06329 0.690305,-28.62255 10e-7,0 10e-7,0 10e-7,0 0.456016,-9.56261 -0.02106,-19.61143 -0.04062,-30.25736 -0.01957,-10.64594 -0.974528,-19.52307 -2.945312,-29.9933 0,0 -10e-7,-10e-6 -10e-7,-10e-6 -0.986082,-5.23878 -1.069807,-9.90868 -0.989736,-14.36802 m 3.548585,-2.12121 c -0.500627,-9.29727 -0.660223,-18.81638 -1.969786,-27.91166 -10e-7,0 -10e-7,0 -10e-7,-1e-5 -1.31002,-9.09846 0.647021,-18.12786 1.929688,-25.80892 1.282667,-7.68106 0.258511,-19.23212 0.771875,-29.14017 0,0 0,-10e-6 0,-10e-6 0.256862,-4.95749 0.09201,-9.6883 -0.301272,-14.33741 m -6.198188,-2.13104 c 0.513731,-8.85761 0.06803,-18.33671 0.202585,-26.42932 0,0 0,0 0,0 0.134605,-8.09544 1.233308,-19.54223 3.696875,-30.05424 2.463567,-10.51201 -1.17027,-18.55273 -3.514061,-27.08861 -1e-6,0 -1e-6,0 -2e-6,0 -1.172716,-4.27093 -0.987232,-9.42935 -0.321622,-15.10464 m 3.369272,-1.48629 c 0.488407,-6.23978 0.96351,-12.17425 2.064704,-17.72063 3.77981,0.38617 7.72279,0.87349 11.91401,1.47296 12.405476,1.77437 18.717133,-0.57836 27.555803,-1.72656 8.838669,-1.1482 17.830555,-0.70417 24.894865,-2.13281 0,0 0,0 0,0 3.53463,-0.71482 8.57002,-0.66376 14.17973,-0.38324 m -76.54794,4.46668 c 8.898804,0.60128 19.263508,-0.39408 29.232395,-1.15844 0,0 1e-6,0 2e-6,0 9.972376,-0.76463 18.588012,0.63639 27.169863,1.88906 8.58185,1.25268 18.96467,-0.85373 28.30736,-2.55937 0,0 10e-6,0 10e-6,0 4.67461,-0.85342 9.66387,-0.93998 14.89685,-0.89958 m 3.84812,3.62061 c 10.2971,-0.8046 18.09866,-0.39017 25.71686,-1.15697 7.62087,-0.76707 20.12404,0.24043 31.82143,0.71094 11.69737,0.4705 18.84693,0.56536 27.98236,1.70625 0,0 0,0 0,0 4.57092,0.57084 9.07788,0.62746 13.37608,0.59951 m 1.24393,-6.49063 c 8.8447,-0.47251 19.21661,0.88627 29.11057,2.66143 9.89742,1.77579 18.61517,-0.64709 27.27143,-1.95 8.65626,-1.30291 18.79188,0.33231 27.77924,0.99531 0,0 0,0 0,0 4.49683,0.33173 9.39471,0.41495 14.48915,0.49567 m -0.82275,4.09574 c 1.75897,0.13231 3.53371,0.1791 5.33026,0.15302 0.46284,7.70398 1.38967,13.85755 3.37361,19.70338 0,0 0,0 0,10e-6 2.41489,7.11562 -0.832,18.73534 -2.49843,27.61673 -1.66644,8.8814 0.95333,19.48122 2.88437,29.89174 0,0 0,0 0,0 0.9662,5.20891 0.95886,10.1014 0.70092,15.00751 m -1.96027,-1.19893 c 0.0269,9.86549 -0.25689,19.47701 -0.7719,29.88138 0,0 0,0 0,10e-6 -0.51519,10.408 0.72502,19.89525 2.19375,31.11048 1.46873,11.21523 -0.67194,17.65249 -2.03125,24.36674 0,0 0,0 0,0 -0.68013,3.35948 -0.77812,8.15967 -0.8071,13.34722 m 3.06169,2.73565 c -0.0944,9.18989 0.25723,19.90951 0.77197,31.14146 0.51492,11.23589 -1.40894,18.3878 -4.20469,26.60112 -2.79574,8.21331 1.05328,19.4261 3.16875,29.68861 0,0 0,0 10e-6,0 1.05847,5.13485 0.85599,9.8296 0.19009,14.36295 m -0.85959,-4.86156 c 0.77716,8.97341 -0.18424,19.62708 -0.56957,30.32919 -0.38546,10.70587 -0.47971,19.60304 -1.4625,30.23706 -0.98278,10.63402 1.19566,18.02258 3.59531,25.48392 0,0 0,10e-6 10e-6,10e-6 1.20066,3.73328 1.09461,8.68094 0.58377,14.06998 m -6.04828,4.12528 c -0.0762,1.65464 -0.1041,3.33171 -0.0913,5.0235 -7.73087,-0.18141 -14.63843,-0.0654 -21.40453,-0.35479 0,0 0,0 0,0 -8.27378,-0.35384 -19.22034,-0.56286 -29.09955,-1.70625 -9.87921,-1.14338 -18.97178,-0.0642 -28.3683,-0.18281 0,0 0,0 0,0 -4.70155,-0.0593 -9.81192,0.19529 -15.28179,0.7163 m 2.5101,-0.89988 c -8.95982,-0.72975 -19.53142,0.31889 -30.04483,0.97577 -10.51709,0.65711 -19.86161,-0.37815 -31.02924,-1.1375 -11.16763,-0.75935 -18.69066,-0.11368 -27.47455,-0.36562 0,0 -1e-5,0 -1e-5,-10e-6 -4.39502,-0.12605 -9.04279,-0.13332 -13.66641,-0.11816 m -0.6704,0.32154 c -9.97303,0.23688 -18.61295,0.45628 -27.30158,1.36069 -8.69167,0.90472 -18.76656,0.0999 -27.73862,0.325 -8.972049,0.22513 -19.052625,0.92726 -28.591737,2.80312 -4.772894,0.93859 -9.645629,0.69133 -14.622885,-0.0356 m -0.36263,-5.36816 c -4.699311,-0.33795 -9.830424,-0.17749 -15.02483,0.18866 -0.06299,-4.08484 -0.172699,-8.01786 -0.09548,-11.98464 0.167171,-8.58726 0.522168,-18.76561 1.584375,-27.7183 1.062207,-8.95269 0.288032,-20.04144 0.873438,-31.57768 0.292907,-5.77215 -0.0065,-10.54269 -0.676899,-15.06647 m -0.195651,4.10163 c 0.845204,-9.87919 0.470898,-19.74137 1.420987,-30.65324 0,0 0,0 0,0 0.950421,-10.91569 -1.195392,-19.63607 -3.595312,-30.3183 -2.399922,-10.68223 0.443827,-18.72939 1.320312,-27.61674 0.438549,-4.44679 0.467042,-9.19098 0.414875,-13.99225 m -6.163987,3.23095 c -0.642049,-9.47992 0.08057,-19.04385 0.264737,-28.58178 0,0 0,-10e-6 0,-10e-6 0.184233,-9.54127 0.08714,-18.54854 0.284375,-27.0683 0.197233,-8.51976 0.365288,-19.03996 1.117187,-28.55111 0,0 0,0 0,0 0.376213,-4.75891 0.354168,-9.80909 0.216038,-15.14555 m 1.77409,-3.23249 c -0.47307,-9.05363 0.08438,-18.3622 0.26456,-26.55098 0,0 0,0 0,0 0.180239,-8.19165 0.589538,-19.48509 1.7875,-29.89174 1.197962,-10.40666 -0.780136,-18.68605 -2.356249,-27.47455 0,0 -10e-7,0 -10e-7,-10e-6 -0.788608,-4.39732 -0.574442,-9.32626 0.05271,-14.51196 m 0.41522,-1.57062 c 0.381042,-4.83121 0.566536,-10.05702 0.890616,-15.38763 4.637689,-0.1469 9.374597,-0.36883 14.413133,-0.49025 0,0 1e-6,0 2e-6,0 10.99721,-0.26501 19.038206,-0.74026 28.551114,-2.23438 9.512906,-1.49412 17.867732,1.36121 25.057362,4.0625 0,0 0,0 0,0 3.59734,1.35159 8.41006,1.28613 13.56221,0.82143 m -78.218109,-0.13025 c 8.716879,0.52742 20.075483,0.30929 31.670086,0.91351 11.598663,0.60443 18.321043,-0.34287 26.397993,-1.01563 8.07695,-0.67275 20.17895,-0.64884 31.98392,-1.92968 0,0 0,0 1e-5,0 5.90661,-0.64087 10.69907,-0.66897 15.23326,-0.56602 m -6.21964,3.5309 c 8.71657,-0.70314 19.63825,-0.30423 30.34977,-0.93363 0,0 0,0 10e-6,0 10.71527,-0.62962 19.62943,0.82231 30.33861,2.45781 10.70917,1.6355 18.3555,-1.20054 26.47923,-3.59531 0,0 1e-5,0 1e-5,0 4.06471,-1.19823 8.78776,-0.98734 13.64601,-0.26705 m 1.72714,-1.35858 c 10.35197,-0.59502 19.24436,-0.32473 29.16993,-0.95406 0,0 0,0 0,0 9.92904,-0.62955 19.38203,0.69909 29.56674,2.09219 10.18471,1.3931 19.47858,0.7129 29.87142,2.15312 0,0 0,0 10e-6,0 5.20006,0.72062 9.77555,0.34723 14.04989,-0.57899 m 0.2263,-4.01159 c 0.84659,0.003 1.68347,0.01 2.51191,0.02 0.48636,8.84679 -0.0738,18.10759 0.065,27.8934 0,0 0,10e-6 0,10e-6 0.15126,10.66862 0.0999,19.33774 0.28438,29.44486 0.18443,10.10711 0.63869,18.40323 1.90937,26.62142 0,0 0,10e-6 0,10e-6 0.63579,4.11197 0.35075,9.06924 -0.38041,14.38113 m -1.83356,0.52431 c 0.0868,9.8588 -1.50434,19.56699 -4.50947,30.12514 -3.00618,10.56184 0.68318,18.90414 2.05157,28.16518 1.36838,9.26103 0.27983,18.84902 0.83281,27.96204 0,1e-5 0,1e-5 0,1e-5 0.27668,4.5597 0.19282,9.46561 -0.0454,14.56614 m -0.86925,3.71123 c -0.5738,9.9058 1.01668,19.13582 3.06779,28.86571 2.05183,9.7333 -1.24617,18.36234 -3.7375,26.51987 -2.49133,8.15752 0.1713,19.65678 0.52813,30.41986 0,0 0,0 0,0 0.17853,5.38531 0.0727,9.97358 -0.18246,14.23344 m 6.60106,-3.83685 c -0.14217,10.35248 -0.32582,19.96663 -0.95454,31.32305 -0.62894,11.3604 -1.04169,18.16342 -3.12813,25.93081 -2.08643,7.76738 0.50145,19.34417 1.50313,29.44486 0,0 0,0 0,0 0.50119,5.05388 0.52747,9.77917 0.45345,14.39125 m -2.97222,0.35167 c -0.002,0.84748 -0.006,1.69126 -0.0121,2.53194 -8.76662,0.21206 -17.78957,0.0751 -27.10293,0.29537 0,0 0,0 0,0 -10.19548,0.24111 -18.98039,-0.7368 -28.3683,-2.21406 -9.38792,-1.47726 -19.78727,-0.2359 -30.78549,-0.71094 -5.50297,-0.23768 -10.02282,0.18276 -14.11225,1.08043 m 5.07736,4.24234 c -9.62891,0.84455 -19.44732,-0.46313 -29.80038,-1.40246 -10.35669,-0.93965 -19.84326,0.54865 -30.94799,1.64532 -11.10473,1.09667 -18.16118,-1.28619 -25.9308,-3.85938 0,0 -1e-5,0 -1e-5,0 -3.88753,-1.28749 -8.59614,-1.31237 -13.46349,-1.03853 m -3.4722,-1.07339 c -8.9053,0.54756 -18.89192,0.11414 -28.09489,0.36505 0,0 0,0 0,0 -9.20619,0.25099 -19.49964,-0.17523 -29.952676,-0.50781 -10.453035,-0.33259 -18.51658,0.31768 -26.987049,0.97499 -10e-7,0 -3e-6,0 -4e-6,0 -4.2382,0.32889 -9.059033,0.35912 -14.06519,0.33778 m 1.719255,-0.23655 c -4.302549,-0.14044 -8.702133,-0.14242 -13.254321,-0.0896 -0.432186,-5.24428 -1.107263,-10.40141 -2.136816,-15.63947 -1.84627,-9.39326 0.24524,-19.23646 0.751562,-29.16049 0.506322,-9.92403 -0.356756,-18.59336 -1.076562,-27.21049 -0.360156,-4.31158 -0.435758,-9.13958 -0.495395,-14.14369 m 0.04822,-2.95447 c -0.28291,-8.87774 1.384824,-18.12728 4.16436,-25.84023 0,0 10e-7,-10e-6 10e-7,-10e-6 2.780507,-7.71565 -0.680605,-19.5821 -2.031251,-30.19642 -1.350646,-10.61432 -0.393926,-19.52726 -1.157812,-29.9933 0,0 0,0 0,-1e-5 -0.382211,-5.23668 -0.329363,-9.82016 -0.131109,-14.10206 m 0.476222,7.97235 c -0.188503,-9.16217 1.069987,-18.92532 3.189262,-28.19618 0,0 0,0 10e-7,0 2.120015,-9.2741 -0.134336,-19.73249 -0.426564,-30.60268 -0.292228,-10.87019 -1.036142,-18.76574 -3.128124,-27.7183 0,0 -10e-7,0 -10e-7,0 -1.046724,-4.47941 -0.891213,-9.27239 -0.3204,-14.1611 m -1.954251,-3.77107 c 0.332023,-10.0138 1.190401,-18.91997 3.594963,-28.2156 10e-7,0 10e-7,0 2e-6,0 2.405402,-9.29888 -1.220512,-18.9097 -3.656251,-28.16518 -2.43574,-9.25548 0.926453,-19.30931 2.803124,-29.36361 0,0 0,0 1e-6,0 0.938991,-5.03067 0.79549,-9.76986 0.275412,-14.41757 m 5.108295,-2.45796 c 0.379743,-4.29679 0.3999,-8.55661 0.286083,-12.81094 5.133519,-0.0109 10.060218,-0.0134 15.212823,-0.0677 1e-6,0 2e-6,0 4e-6,0 9.302944,-0.0982 18.244324,0.62813 26.154237,1.90937 7.909913,1.28125 19.341467,0.0995 29.444857,0.30469 10e-6,0 10e-6,0 10e-6,0 5.05523,0.10265 9.94731,-0.0885 14.89417,-0.49454 m -83.466885,4.49669 c 9.074739,0.55434 19.550934,0.15315 30.065022,0.44629 10e-7,0 2e-6,0 3e-6,0 10.517768,0.29325 17.81032,-0.32283 24.87455,-0.95469 7.06424,-0.63185 19.1181,0.27002 28.77455,0.8125 0,0 0,0 0,0 4.83161,0.27143 9.5619,0.30104 14.24222,0.29121 m 1.31328,-2.42394 c 9.9058,0.0732 19.12679,-1.59133 28.80477,-4.79383 9.68137,-3.20362 18.67049,1.495 27.45424,4.46875 8.78376,2.97375 19.03638,-1.00967 28.55111,-3.02656 1e-5,0 1e-5,0 1e-5,0 4.7607,-1.00916 9.60034,-1.01367 14.51324,-0.77127 m 0.53378,3.73669 c 9.27813,-0.18973 20.43859,-0.68448 32.72575,-2.07167 0,0 0,0 0,0 12.29146,-1.38768 18.5998,-0.51276 27.25111,-1.56407 8.65132,-1.0513 18.62688,-0.0502 27.31205,-0.16249 0,0 1e-5,0 1e-5,0 4.34562,-0.0562 9.23905,0.26183 14.36398,0.91288 m 4.44101,-0.97358 c 0.57069,0.0139 1.14255,0.0262 1.71552,0.037 -0.0534,9.11148 0.15972,17.86588 0.39976,26.85591 0,0 0,0 0,0 0.2556,9.57276 -0.10935,19.34188 -0.325,29.44487 -0.21565,10.10298 -0.67404,19.0944 -2.03125,28.69329 0,1e-5 0,1e-5 0,1e-5 -0.67908,4.80281 -0.39645,9.75634 0.33926,14.89111 m -3.12279,0.8268 c -0.68272,9.82441 -0.0802,18.72624 -0.24303,27.60642 -10e-6,0 -10e-6,0 -10e-6,0 -0.1629,8.88329 0.6169,20.24504 1.86876,32.16674 1.25185,11.9217 -0.35222,19.42543 -1.07657,29.68861 0,0 0,0 0,10e-6 -0.36242,5.13518 -0.37114,9.71838 -0.30014,14.02551 m 4.36256,-0.52271 c -0.0809,8.83063 0.24291,18.42611 0.71102,26.6934 0.46827,8.27019 -0.3097,19.01255 -0.95469,28.46987 -0.64499,9.45732 -0.41478,19.59849 -1.25937,30.21673 0,1e-5 0,1e-5 0,1e-5 -0.42259,5.31284 -0.5518,10.00664 -0.704,14.49501 m -1.06258,-0.97045 c 0.58209,10.21008 1.15971,19.29879 3.49314,29.33258 2.33424,10.03731 -0.65643,19.05195 -1.95,28.59174 -1.29357,9.53979 0.30252,18.37182 0.91406,26.51986 0,1e-5 0,1e-5 0,1e-5 0.30599,4.07687 0.0108,8.90253 -0.65576,13.95906 m -2.49219,3.42422 c 0.03,0.61668 0.0521,1.23199 0.0668,1.84598 -8.69409,0.024 -18.96082,-0.23126 -29.63546,-0.61841 0,0 0,0 -10e-6,0 -11.41239,-0.4139 -18.62626,-0.0376 -27.31204,-0.10156 -8.68579,-0.0639 -19.3517,0.39047 -29.50581,1.15781 -5.0806,0.38394 -9.80641,0.34796 -14.41207,0.17804 m 1.53906,-0.19756 c -8.73603,0.74968 -18.46321,-0.81529 -26.81538,-2.4586 0,0 0,0 0,0 -8.3551,-1.64389 -19.63519,0.8997 -30.33862,2.68125 -10.70342,1.78154 -18.32002,-0.93404 -26.37767,-2.80313 0,0 0,0 0,0 -4.03165,-0.9352 -8.95284,-0.66889 -14.21338,0.0973 m 2.01003,-2.35212 c -9.35137,-0.16891 -18.84491,0.0977 -27.97255,0.28455 -9.13083,0.18694 -19.61657,-0.13467 -30.29799,-0.42656 -10.681414,-0.29189 -19.509925,-0.81948 -29.932359,-2.45781 -2e-6,0 -3e-6,0 -5e-6,-10e-6 -5.214866,-0.81974 -9.716222,-0.60816 -13.843007,0.0178 m -0.778055,4.41012 c -4.140155,-0.0627 -7.968536,-0.1998 -11.560341,-0.4456 0.56482,-5.85824 1.579754,-11.9233 2.847455,-18.28525 2.187523,-10.97805 0.24673,-18.38888 0.751563,-26.5808 0.504833,-8.19192 -0.977302,-19.63783 -2.925,-30.33862 -0.974531,-5.35413 -0.836988,-10.12603 -0.316087,-14.75754 m -2.039723,3.04085 c 0.419086,-10.15655 0.03907,-20.07403 0.141747,-31.64826 10e-7,-10e-6 10e-7,-10e-6 10e-7,-10e-6 0.102711,-11.57828 0.08057,-17.95893 0.24375,-25.2808 0.163176,-7.32186 -0.013,-19.30111 -0.02031,-29.34329 0,-10e-6 0,-10e-6 0,-10e-6 -0.0037,-5.02461 0.148358,-9.85814 0.451573,-14.69439 m -1.080933,-0.92214 c 0.311948,-10.001 1.479319,-19.94681 4.427798,-31.26249 0,0 10e-7,0 10e-7,0 2.949508,-11.31964 0.02654,-18.74151 0.101561,-27.67768 0.07502,-8.93616 -0.398937,-18.05839 -1.198437,-25.6058 0,0 0,0 -10e-7,0 -0.400029,-3.77634 -0.33359,-8.90194 -0.09866,-14.63615 m 2.33311,1.90407 c 0.07364,-9.92654 -1.006449,-19.79118 -3.006328,-30.79538 0,0 0,0 -10e-7,0 -2.000576,-11.00804 0.761518,-19.17647 2.295314,-28.95736 1.533796,-9.7809 -0.07102,-18.16091 -0.203125,-25.9308 0,0 0,0 0,-10e-6 -0.0661,-3.88766 -0.120682,-8.61127 -0.21027,-13.51407 m -0.845945,-0.35582 c 0.01422,-4.33844 -0.0532,-8.58927 -0.194362,-12.91669 5.291545,-0.39416 10.44706,-0.92959 15.486315,-2.01763 8.752612,-1.88981 18.706708,0.79279 27.555804,2.35625 8.849095,1.56345 19.901627,-0.0758 31.151117,-0.24375 5.62868,-0.084 10.21955,-0.21194 14.4224,-0.44811 m -80.062771,-4.16274 c 10.115799,0.0876 19.800333,-0.33873 30.815491,-1.01572 10e-7,0 10e-7,0 2e-6,0 11.019013,-0.67721 18.141748,0.9226 25.829238,2.78282 7.68749,1.86021 19.08635,-0.35595 28.71361,-1.07656 0,0 1e-5,0 1e-5,0 4.817,-0.36057 9.81317,-0.25022 15.02673,0.0629 m 1.03704,2.29354 c 10.35239,0.19569 19.83825,-0.45517 30.97774,-1.34083 11.1434,-0.88597 18.87036,0.14848 28.06362,0.42656 9.19325,0.27808 18.16565,-1.10303 25.9308,-3.29062 0,0 0,0 0,0 3.8853,-1.09456 8.59155,-0.87876 13.45829,-0.17176 m 1.48804,-0.43837 c 10.10125,-0.71609 18.3285,0.51692 26.428,1.56481 10e-6,10e-6 10e-6,10e-6 10e-6,10e-6 8.10234,1.04825 18.90563,0.43177 28.16517,1.32031 9.25954,0.88853 20.57803,0.51898 33.18236,1.54375 0,0 1e-5,0 1e-5,0 6.30658,0.51274 10.9652,0.22318 15.13161,-0.48202 m -0.20656,-0.10719 c 0.0787,-0.001 0.1574,-0.002 0.23606,-0.003 -0.34324,9.30347 -1.11977,18.54038 -3.3424,27.30457 0,0 0,0 0,0 -2.24264,8.84307 -0.0794,18.16782 -0.24375,25.95112 -0.16433,7.78329 1.30115,20.34809 3.9,32.49173 0,0 0,0 0,10e-6 1.30033,6.07607 1.09972,10.63386 0.37685,14.65492 m -1.14888,1.63215 c -0.14205,10.22285 -0.1565,18.22986 -0.46703,26.12319 -10e-6,10e-6 -10e-6,10e-6 -10e-6,10e-6 -0.31064,7.8961 -0.19466,19.5272 -0.58906,30.03392 -0.3944,10.50673 0.60951,19.519 1.82813,29.97299 0,0 0,0 0,0 0.60973,5.23066 0.56447,10.01559 0.3233,14.70229 m -5.68666,-4.28681 c -0.81704,8.9935 1.1468,19.36572 3.41336,29.55729 0,0 0,10e-6 0,10e-6 2.26735,10.19513 -1.16486,20.18931 -3.51406,32.00423 -2.34921,11.81492 0.59034,18.83326 1.74687,27.94174 0,0 0,0 0,0 0.57867,4.55744 0.59942,9.07234 0.49818,13.38805 m 2.20309,2.57351 c -0.27787,9.72917 -1.06944,17.84675 -3.20908,24.98621 -2.1404,7.14197 -0.1145,20.22453 -0.34531,32.08549 -0.23082,11.86097 -0.2248,18.35564 -0.67032,26.51986 0,10e-6 0,10e-6 0,10e-6 -0.22291,4.08497 -0.12014,8.7545 0.13954,13.49448 m -3.47136,1.12592 c -0.007,0.11387 -0.0131,0.22768 -0.019,0.34144 -9.87482,-0.30315 -17.05345,-0.9622 -23.11112,-2.85255 -6.13555,-1.91466 -20.29034,0.0219 -32.30893,0.0406 -12.01859,0.0187 -19.06556,0.77256 -28.61205,2.33594 -4.77659,0.78224 -9.22467,0.54579 -13.35048,-0.12396 m 6.20505,1.42324 c -9.24334,-0.68326 -19.0201,-0.86926 -28.50078,-2.59928 -9.484,-1.73062 -19.72518,0.83877 -30.60268,2.53906 -10.8775,1.70029 -19.83127,-0.78893 -30.90736,-2.35624 0,0 0,0 0,-1e-5 -5.54193,-0.7842 -10.30035,-0.734 -14.85784,-0.43657 m 0.0745,1.77759 c -9.60793,0.37112 -18.44469,-0.89809 -26.79415,-2.70195 0,0 0,0 0,0 -8.35239,-1.8045 -19.70825,0.97412 -30.541741,2.90468 -10.83349,1.93057 -19.405253,-0.83423 -29.668298,-2.49843 -2e-6,0 -3e-6,0 -5e-6,0 -5.135116,-0.83269 -9.842445,-0.68197 -14.397266,-0.17215 m 1.421601,0.71996 c -3.598519,-0.21898 -7.085558,-0.23249 -10.499132,-0.1307 0.159367,-5.83941 0.534834,-11.33971 0.9346,-16.95593 0,0 0,-10e-6 0,-10e-6 0.633073,-8.89391 -0.839382,-18.68646 -2.539063,-27.47455 -1.699681,-8.78809 0.466444,-19.91909 1.421875,-31.17143 0.47805,-5.6301 0.381723,-9.9792 0.06912,-13.69976 m 0.235101,-2.16003 c -0.446779,-9.53332 -0.98077,-18.0889 -2.944843,-25.71766 0,0 -1e-6,0 -1e-6,0 -1.964759,-7.63143 -0.218901,-19.68374 -0.670311,-30.50112 -0.451411,-10.81737 0.960579,-19.07199 2.904687,-28.63236 0.972734,-4.78354 1.063605,-9.42453 1.005703,-13.93746 m -1.73664,-1.90248 c 0.297757,-9.9735 0.516796,-19.28088 1.543437,-29.29221 0,0 0,0 10e-7,0 1.026999,-10.01483 -0.277942,-17.95778 -0.812501,-25.2808 -0.534559,-7.32302 0.466376,-19.4322 1.421874,-29.72923 1e-6,-10e-6 1e-6,-10e-6 1e-6,-10e-6 0.478084,-5.15212 0.259999,-9.91212 -0.296563,-14.57039 m -0.454111,5.2722 c 0.845262,-8.89966 0.554641,-20.4928 1.664737,-32.92927 0,0 0,0 0,0 1.110483,-12.44082 -1.395267,-18.64055 -4.184376,-27.35267 -2.789108,-8.71212 1.002084,-18.29342 3.026562,-26.29643 0,0 1e-6,0 1e-6,0 1.012947,-4.00431 1.098722,-8.81044 1.02059,-13.84484 m 0.01605,-2.726 c 0.248751,-3.58761 0.192513,-7.09772 -0.06451,-10.54992 5.544313,0.15223 10.516813,0.46935 15.418297,0.85716 10e-7,10e-6 2e-6,10e-6 3e-6,10e-6 7.808689,0.61783 19.141595,-1.07569 28.835488,-3.25 9.693897,-2.17432 19.142817,1.35667 28.876107,4.08281 1e-5,0 1e-5,0 1e-5,0 4.87005,1.36402 9.5265,1.04234 14.05095,0.0574 m 9.5423,398.03943 -8.04297,0 M 46.122566,585.3935 l 0,-7.17578 m 0,140.49289 0,-7.45703 M 274.42752,498.5703 l 9.50781,0 m 65.49432,400.10777 -8.47656,0"
       id="rect3763"
       inkscape:path-effect="#path-effect2994"
       inkscape:original-d="m 46.122566,498.5703 310.166844,0 0,400.10777 -310.166844,0 z"
       inkscape:connector-curvature="0" />
    <text
       xml:space="preserve"
       style="font-size:40px;font-style:normal;font-variant:normal;font-weight:normal;font-stretch:normal;line-height:125%;letter-spacing:0px;word-spacing:0px;fill:#000000;fill-opacity:1;stroke:none;font-family:Serif;-inkscape-font-specification:Serif"
       x="555.53107"
       y="529.33044"
       id="text4456"
       sodipodi:linespacing="125%"><tspan
         sodipodi:role="line"
         id="tspan4458"
         x="555.53107"
         y="529.33044" /></text>
    <text
       xml:space="preserve"
       style="font-size:40px;font-style:normal;font-variant:normal;font-weight:normal;font-stretch:normal;line-height:125%;letter-spacing:0px;word-spacing:0px;fill:#000000;fill-opacity:1;stroke:none;font-family:Serif;-inkscape-font-specification:Serif"
       x="554.57141"
       y="524.78479"
       id="text4460"
       sodipodi:linespacing="125%"><tspan
         sodipodi:role="line"
         id="tspan4462"
         x="554.57141"
         y="524.78479" /></text>
    <text
       sodipodi:linespacing="125%"
       id="text4487"
       y="517.76617"
       x="371.31369"
       style="font-size:79.81760406px;font-style:normal;font-variant:normal;font-weight:normal;font-stretch:normal;line-height:125%;letter-spacing:0px;word-spacing:0px;fill:#000000;fill-opacity:1;stroke:none;font-family:Serif;-inkscape-font-specification:Serif"
       xml:space="preserve"><tspan
         style="font-style:normal;font-variant:normal;font-weight:normal;font-stretch:normal;font-family:Sketch Block;-inkscape-font-specification:Sketch Block"
         y="517.76617"
         x="371.31369"
         sodipodi:role="line"
         id="tspan3095">Stream</tspan><tspan
         style="font-style:normal;font-variant:normal;font-weight:normal;font-stretch:normal;font-family:Sketch Block;-inkscape-font-specification:Sketch Block"
         y="617.53821"
         x="371.31369"
         sodipodi:role="line"
         id="tspan3099">waits until</tspan><tspan
         style="font-style:normal;font-variant:normal;font-weight:normal;font-stretch:normal;font-family:Sketch Block;-inkscape-font-specification:Sketch Block"
         y="717.31018"
         x="371.31369"
         sodipodi:role="line"
         id="tspan3103">it can establish</tspan><tspan
         style="font-style:normal;font-variant:normal;font-weight:normal;font-stretch:normal;font-family:Sketch Block;-inkscape-font-specification:Sketch Block"
         y="817.08221"
         x="371.31369"
         sodipodi:role="line"
         id="tspan3107">backpressure</tspan><tspan
         style="font-style:normal;font-variant:normal;font-weight:normal;font-stretch:normal;font-family:Sketch Block;-inkscape-font-specification:Sketch Block"
         y="916.85419"
         x="371.31369"
         sodipodi:role="line"
         id="tspan3109">to someone</tspan></text>
  </g>
</svg>
