<?xml version="1.0" encoding="UTF-8" standalone="no"?>
<!-- Created with Inkscape (http://www.inkscape.org/) -->

<svg
   xmlns:dc="http://purl.org/dc/elements/1.1/"
   xmlns:cc="http://creativecommons.org/ns#"
   xmlns:rdf="http://www.w3.org/1999/02/22-rdf-syntax-ns#"
   xmlns:svg="http://www.w3.org/2000/svg"
   xmlns="http://www.w3.org/2000/svg"
   xmlns:sodipodi="http://sodipodi.sourceforge.net/DTD/sodipodi-0.dtd"
   xmlns:inkscape="http://www.inkscape.org/namespaces/inkscape"
   width="1052.3622"
   height="744.09448"
   id="svg2"
   version="1.1"
   inkscape:version="0.48.4 r9939"
   sodipodi:docname="stream-1.svg">
  <defs
     id="defs4">
    <inkscape:path-effect
       tgtlength_rdm="0.3;1"
       tgtlength="5"
       tgtscale="9.8"
       tgt_places_rdmness="1;1"
       nbtangents="5"
       tremble_frequency="3.5"
       tremble_size="2.6;1"
       parallel_offset="2.6;1"
       ends_tolerance="0.1;1"
       strokeoverlap_rdm="0.1;2173367531"
       strokeoverlap="0"
       strokelength_rdm="0;1"
       strokelength="100"
       nbiter_approxstrokes="8"
       is_visible="true"
       id="path-effect4910"
       effect="sketch" />
    <inkscape:path-effect
       tgtlength_rdm="0.3;1"
       tgtlength="4"
       tgtscale="10"
       tgt_places_rdmness="1;1"
       nbtangents="5"
       tremble_frequency="1"
       tremble_size="1.8;1"
       parallel_offset="1.9;1"
       ends_tolerance="0;1429194784"
       strokeoverlap_rdm="0.1;1"
       strokeoverlap="0"
       strokelength_rdm="0;1"
       strokelength="60"
       nbiter_approxstrokes="5"
       is_visible="true"
       id="path-effect4906"
       effect="sketch" />
    <inkscape:path-effect
       effect="sketch"
       id="path-effect3781"
       is_visible="true"
       nbiter_approxstrokes="3"
       strokelength="40"
       strokelength_rdm="0;3540803433"
       strokeoverlap="0.3"
       strokeoverlap_rdm="0.3;676846516"
       ends_tolerance="0.1;78838508"
       parallel_offset="2.7;1"
       tremble_size="2.5;1"
       tremble_frequency="1"
       nbtangents="5"
       tgt_places_rdmness="1;1"
       tgtscale="10"
       tgtlength="0"
       tgtlength_rdm="0.3;1" />
    <inkscape:path-effect
       tgtlength_rdm="0.3;1"
       tgtlength="4"
       tgtscale="10"
       tgt_places_rdmness="1;1"
       nbtangents="5"
       tremble_frequency="1"
       tremble_size="1.8;1"
       parallel_offset="1.9;1"
       ends_tolerance="0;1429194784"
       strokeoverlap_rdm="0.1;1"
       strokeoverlap="0"
       strokelength_rdm="0;1"
       strokelength="60"
       nbiter_approxstrokes="5"
       is_visible="true"
       id="path-effect3778"
       effect="sketch" />
    <inkscape:path-effect
       effect="sketch"
       id="path-effect3774"
       is_visible="true"
       nbiter_approxstrokes="5"
       strokelength="60"
       strokelength_rdm="0;1"
       strokeoverlap="0"
       strokeoverlap_rdm="0.1;1"
       ends_tolerance="0;1429194784"
       parallel_offset="1.9;1"
       tremble_size="1.8;1"
       tremble_frequency="1"
       nbtangents="5"
       tgt_places_rdmness="1;1"
       tgtscale="10"
       tgtlength="4"
       tgtlength_rdm="0.3;1" />
    <inkscape:path-effect
       tgtlength_rdm="0.3;1"
       tgtlength="5"
       tgtscale="9.8"
       tgt_places_rdmness="1;1"
       nbtangents="5"
       tremble_frequency="5"
       tremble_size="2.7;1"
       parallel_offset="2.7;1"
       ends_tolerance="0.1;4044545397"
       strokeoverlap_rdm="0.3;1"
       strokeoverlap="0"
       strokelength_rdm="0;1"
       strokelength="100"
       nbiter_approxstrokes="7"
       is_visible="true"
       id="path-effect3772"
       effect="sketch" />
    <inkscape:path-effect
       effect="sketch"
       id="path-effect2994"
       is_visible="true"
       nbiter_approxstrokes="8"
       strokelength="100"
       strokelength_rdm="0;1"
       strokeoverlap="0"
       strokeoverlap_rdm="0.1;2173367531"
       ends_tolerance="0.1;1"
       parallel_offset="2.6;1"
       tremble_size="2.6;1"
       tremble_frequency="3.5"
       nbtangents="5"
       tgt_places_rdmness="1;1"
       tgtscale="9.8"
       tgtlength="5"
       tgtlength_rdm="0.3;1" />
    <marker
       inkscape:stockid="Arrow2Mend"
       orient="auto"
       refY="0.0"
       refX="0.0"
       id="Arrow2Mend"
       style="overflow:visible;">
      <path
         id="path3849"
         style="fill-rule:evenodd;stroke-width:0.62500000;stroke-linejoin:round;"
         d="M 8.7185878,4.0337352 L -2.2072895,0.016013256 L 8.7185884,-4.0017078 C 6.9730900,-1.6296469 6.9831476,1.6157441 8.7185878,4.0337352 z "
         transform="scale(0.6) rotate(180) translate(0,0)" />
    </marker>
    <inkscape:path-effect
       tgtlength_rdm="0.3;1"
       tgtlength="5"
       tgtscale="9.8"
       tgt_places_rdmness="1;1"
       nbtangents="5"
       tremble_frequency="3.5"
       tremble_size="2.6;1"
       parallel_offset="2.6;1"
       ends_tolerance="0.1;1"
       strokeoverlap_rdm="0.1;2147483646"
       strokeoverlap="0"
       strokelength_rdm="0;1"
       strokelength="100"
       nbiter_approxstrokes="8"
       is_visible="true"
       id="path-effect4910-9"
       effect="sketch" />
    <inkscape:path-effect
       tgtlength_rdm="0.3;1"
       tgtlength="4"
       tgtscale="10"
       tgt_places_rdmness="1;1"
       nbtangents="5"
       tremble_frequency="1"
       tremble_size="1.8;1"
       parallel_offset="1.9;1"
       ends_tolerance="0;1429194784"
       strokeoverlap_rdm="0.1;1"
       strokeoverlap="0"
       strokelength_rdm="0;1"
       strokelength="60"
       nbiter_approxstrokes="5"
       is_visible="true"
       id="path-effect4906-7"
       effect="sketch" />
    <inkscape:path-effect
       tgtlength_rdm="0.3;1"
       tgtlength="4"
       tgtscale="10"
       tgt_places_rdmness="1;1"
       nbtangents="5"
       tremble_frequency="1"
       tremble_size="1.8;1"
       parallel_offset="1.9;1"
       ends_tolerance="0;1429194784"
       strokeoverlap_rdm="0.1;1"
       strokeoverlap="0"
       strokelength_rdm="0;1"
       strokelength="60"
       nbiter_approxstrokes="5"
       is_visible="true"
       id="path-effect3778-6"
       effect="sketch" />
    <inkscape:path-effect
       effect="sketch"
       id="path-effect3774-0"
       is_visible="true"
       nbiter_approxstrokes="5"
       strokelength="60"
       strokelength_rdm="0;1"
       strokeoverlap="0"
       strokeoverlap_rdm="0.1;1"
       ends_tolerance="0;1429194784"
       parallel_offset="1.9;1"
       tremble_size="1.8;1"
       tremble_frequency="1"
       nbtangents="5"
       tgt_places_rdmness="1;1"
       tgtscale="10"
       tgtlength="4"
       tgtlength_rdm="0.3;1" />
    <inkscape:path-effect
       tgtlength_rdm="0.3;1"
       tgtlength="4"
       tgtscale="10"
       tgt_places_rdmness="1;1"
       nbtangents="5"
       tremble_frequency="1"
       tremble_size="1.8;1"
       parallel_offset="1.9;1"
       ends_tolerance="0;1429194784"
       strokeoverlap_rdm="0.1;1"
       strokeoverlap="0"
       strokelength_rdm="0;1"
       strokelength="60"
       nbiter_approxstrokes="5"
       is_visible="true"
       id="path-effect4906-7-7"
       effect="sketch" />
    <inkscape:path-effect
       tgtlength_rdm="0.3;1"
       tgtlength="4"
       tgtscale="10"
       tgt_places_rdmness="1;1"
       nbtangents="5"
       tremble_frequency="1"
       tremble_size="1.8;1"
       parallel_offset="1.9;1"
       ends_tolerance="0;1429194784"
       strokeoverlap_rdm="0.1;1"
       strokeoverlap="0"
       strokelength_rdm="0;1"
       strokelength="60"
       nbiter_approxstrokes="5"
       is_visible="true"
       id="path-effect3778-6-4"
       effect="sketch" />
    <inkscape:path-effect
       effect="sketch"
       id="path-effect3774-0-4"
       is_visible="true"
       nbiter_approxstrokes="5"
       strokelength="60"
       strokelength_rdm="0;1"
       strokeoverlap="0"
       strokeoverlap_rdm="0.1;1"
       ends_tolerance="0;1429194784"
       parallel_offset="1.9;1"
       tremble_size="1.8;1"
       tremble_frequency="1"
       nbtangents="5"
       tgt_places_rdmness="1;1"
       tgtscale="10"
       tgtlength="4"
       tgtlength_rdm="0.3;1" />
  </defs>
  <sodipodi:namedview
     id="base"
     pagecolor="#ffffff"
     bordercolor="#666666"
     borderopacity="1.0"
     inkscape:pageopacity="0.0"
     inkscape:pageshadow="2"
     inkscape:zoom="0.70710678"
     inkscape:cx="547.71658"
     inkscape:cy="397.85693"
     inkscape:document-units="px"
     inkscape:current-layer="layer1"
     showgrid="false"
     inkscape:window-width="1596"
     inkscape:window-height="864"
     inkscape:window-x="0"
     inkscape:window-y="16"
     inkscape:window-maximized="0" />
  <metadata
     id="metadata7">
    <rdf:RDF>
      <cc:Work
         rdf:about="">
        <dc:format>image/svg+xml</dc:format>
        <dc:type
           rdf:resource="http://purl.org/dc/dcmitype/StillImage" />
        <dc:title></dc:title>
      </cc:Work>
    </rdf:RDF>
  </metadata>
  <g
     inkscape:label="Layer 1"
     inkscape:groupmode="layer"
     id="layer1"
     transform="translate(0,-308.2677)">
    <path
       style="fill:#d40000;fill-opacity:0;stroke:#000000;stroke-width:1;stroke-miterlimit:4;stroke-opacity:1;stroke-dasharray:24, 24;stroke-dashoffset:0"
       d="m 54.231281,502.67281 c 10.28407,-0.58127 18.794326,0.002 27.809064,-0.0197 9.017893,-0.0221 18.617605,-0.43624 27.291745,-1.3 8.67413,-0.86375 19.54852,0.17896 30.05423,0.54844 0,0 0,0 10e-6,0 5.25653,0.18487 9.82122,0.13823 14.06588,4e-5 m -0.64439,-6.76498 c 8.77042,-0.83105 19.32745,0.42678 29.39502,1.26025 1e-5,0 1e-5,0 1e-5,0 10.0711,0.83376 19.36442,0.31268 29.54642,0.93438 10.182,0.6217 18.60907,-0.37666 27.27143,-1.11719 0,0 0,0 0,0 4.33421,-0.37052 9.38766,-0.47534 14.83955,-0.59531 m -1.8444,6.05988 c 8.98043,0.48571 20.00155,-1.33888 31.44637,-4.00207 0,0 0,0 10e-6,0 11.44882,-2.66412 17.45139,0.30476 23.79798,0.91406 6.34659,0.60931 19.93161,-0.24822 31.21205,-0.75156 0,0 0,0 0,0 5.64417,-0.25185 10.45036,-0.13344 15.07736,0.16671 m -0.86237,5.17508 c 1.27836,-0.0483 2.56153,-0.0829 3.85261,-0.10611 0.52418,8.14698 1.4182,16.82345 3.66986,25.26838 0,0 0,0 0,0 2.58179,9.68306 -0.25776,18.35706 -0.75156,26.47924 -0.4938,8.12218 -0.28106,18.50717 -0.83281,26.92612 -0.27607,4.21242 -0.11817,9.15225 0.26372,14.40742 m -2.15189,-0.0505 c 0.85165,9.77047 0.0204,18.91195 0.0397,28.15492 0,0 0,0 0,0 0.0193,9.24621 -0.81778,18.31413 -2.47813,26.35736 -1.66034,8.04323 -0.0611,18.53615 -0.20312,27.02768 0,0 0,0 0,0 -0.0711,4.24874 -0.18634,8.97067 -0.40165,13.77728 m 2.69674,5.21008 c -0.20928,9.00571 0.34592,17.49157 1.05647,23.8901 0,0 0,0 0,0 0.7108,6.40077 -0.72773,20.45967 -2.17344,32.79643 -1.4457,12.33675 0.50883,18.78558 1.52344,27.79954 0,10e-6 0,10e-6 0,10e-6 0.50766,4.51014 0.33758,9.26904 -0.12609,14.08727 m -1.35703,1.59021 c -0.29015,10.0075 0.69495,19.57909 2.0925,30.1656 1.39804,10.59022 0.34869,19.35589 1.03594,29.48549 0.68724,10.1296 0.0236,17.92318 0.0812,25.17924 0,0 0,0 1e-5,0 0.0289,3.63057 -0.0846,8.43832 -0.3189,13.5695 m 0.70414,0.8885 c -0.0862,1.22276 -0.17386,2.43855 -0.26735,3.64592 -8.88848,-0.28433 -18.03338,-0.93679 -28.72668,-2.37275 -1e-5,0 -1e-5,0 -1e-5,0 -12.31434,-1.65364 -18.03294,-0.46245 -25.50424,-1.38125 -7.4713,-0.9188 -20.01672,0.28051 -31.49642,0.85312 0,0 0,0 0,0 -5.74387,0.28651 -10.24806,0.1967 -14.24655,-0.0546 m -1.51143,2.02468 c -9.29077,-0.20319 -19.18307,-0.59821 -28.98823,-1.8076 -9.80859,-1.20981 -19.21513,-0.7804 -29.05893,-2.31562 -9.8438,-1.53522 -18.58787,0.39961 -27.16986,1.17812 0,0 0,0 0,0 -4.294,0.38953 -9.24421,0.62411 -14.4969,0.99744 m 0.66894,-1.50557 c -8.97266,-0.30302 -18.57041,1.62463 -27.14012,4.87532 -1e-5,0 -1e-5,0 -1e-5,0 -8.57271,3.25183 -18.61076,-0.0542 -27.27142,-0.1625 -8.660665,-0.10833 -18.771708,-1.44828 -27.758927,-4.36719 -2e-6,0 -3e-6,0 -5e-6,0 -4.496755,-1.46047 -9.309525,-1.13915 -14.239388,-0.13027 m -1.762924,1.55212 c -4.800845,-0.013 -9.548317,0.0858 -14.355752,0.28567 -0.176894,-4.6709 -0.420167,-9.23003 -0.86182,-13.69009 -0.861725,-8.70217 0.225942,-19.14762 0.670312,-28.8558 0.44437,-9.70818 0.239011,-19.18473 0.73125,-28.95737 0.246292,-4.88974 0.297057,-9.58117 0.339689,-14.16905 m -0.908354,-0.10572 c 0.08046,-8.9255 -0.921631,-18.77388 -2.762585,-27.76987 0,0 -1e-6,0 -1e-6,-1e-5 -1.841597,-8.99913 0.628403,-20.19324 1.889064,-32.02454 1.26066,-11.83131 -0.748582,-19.35793 -2.234375,-29.48549 0,0 0,0 0,-1e-5 -0.743417,-5.06732 -0.659041,-9.68683 -0.306412,-14.08501 m 3.17024,8.48386 c -0.222652,-8.74981 0.564637,-18.84067 1.686171,-27.97318 10e-7,0 10e-7,0 10e-7,0 1.121927,-9.1357 0.204952,-19.69613 0.609374,-30.52142 0.404423,-10.8253 -0.06764,-18.89182 -0.182812,-28.10424 0,0 0,0 0,-10e-6 -0.05763,-4.60943 -0.200804,-9.46973 -0.474109,-14.46384 m -3.304648,0.4733 c -0.60141,-9.06179 0.201125,-20.36457 0.610007,-32.52285 0,0 0,0 0,0 0.409025,-12.16254 0.05803,-18.84497 0.1625,-27.94174 0.104475,-9.09677 1.138311,-18.9988 3.392186,-28.42924 1e-6,0 1e-6,0 1e-6,0 1.127728,-4.71852 1.101579,-9.23797 0.76589,-13.52077 m -4.402026,-1.11994 c -0.09275,-4.52586 0.03788,-9.19587 0.322356,-13.90095 5.140071,-0.0309 10.445391,-0.0995 15.838581,-0.0844 2e-6,0 3e-6,0 5e-6,0 10.600845,0.0297 18.674612,-1.70754 27.474549,-5.09844 8.799937,-3.3909 19.087092,0.0882 28.713612,0.28437 0,0 0,0 0,1e-5 4.81663,0.0981 9.87464,0.26378 15.21075,0.57124 m -78.185264,3.0438 c 10.332256,-0.55354 20.042335,1.00641 31.546514,3.00683 10e-7,0 2e-6,0 3e-6,0 11.508205,2.00112 19.371127,0.12248 29.546427,0.34531 10.1753,0.22283 17.94397,-1.30501 25.26049,-3.92031 0,0 0,0 0,0 3.66082,-1.30857 8.63158,-1.07186 14.08079,-0.2704 m -0.82175,2.30198 c 8.82508,0.31728 20.15492,-0.56481 31.91373,-1.70658 11.76292,-1.14217 17.68208,-0.19656 24.48861,-0.56875 6.80654,-0.37219 19.89587,0.75752 31.1308,2.29531 0,0 0,0 1e-5,0 5.6214,0.76944 10.50923,0.72305 15.30734,0.43884 m 1.03983,-0.70209 c 9.4256,0.77006 18.67478,-0.66523 27.48497,-2.01175 0,0 0,0 0,0 8.81328,-1.34699 18.78173,-0.0559 27.75893,-0.14219 8.9772,-0.0863 19.35149,-0.26609 29.5058,-0.79218 0,0 0,0 0,0 5.08071,-0.26323 9.88059,-0.23561 14.63514,-0.11785 m 1.18394,3.02312 c 0.24913,0.0148 0.49884,0.0284 0.74913,0.0409 -0.0222,9.73077 0.74901,17.91846 2.11613,26.10167 0,0 0,0 0,0 1.4046,8.40764 -0.3787,18.76317 -1.1375,27.7183 -0.75881,8.95513 0.2235,19.26259 0.67031,29.24174 0,0 0,0 0,0 0.22356,4.99307 0.0518,9.68607 -0.34938,14.25145 m -3.04245,3.59816 c 0.34472,8.76308 0.006,18.4915 0.0199,26.91691 0.0136,8.42836 -1.52966,18.86765 -4.59062,28.02299 -3.06096,9.15534 1.51775,20.02492 4.52969,31.51674 1.50702,5.74993 1.31684,10.2751 0.56277,14.31308 m -1.25376,-6.55865 c -0.33812,8.89196 -0.25692,19.13769 -0.79183,28.84646 0,10e-6 0,10e-6 0,10e-6 -0.53509,9.71217 0.44925,20.10109 1.34063,31.71986 0.89138,11.61877 0.25796,18.17411 0.75156,25.97143 0,0 0,0 0,0 0.24697,3.90138 0.003,8.67543 -0.54494,13.6763 m 0.40206,7.56642 c -0.66274,9.64848 -0.51371,18.43312 -1.54306,26.73317 0,0 0,0 0,10e-6 -1.02971,8.30296 0.72848,19.22345 2.19375,29.07923 1.46528,9.85579 0.11565,18.74144 0.34531,27.65736 0,10e-6 0,10e-6 0,10e-6 0.11492,4.46108 6e-5,9.154 -0.25899,13.85233 m -1.30581,-1.6078 c -0.0214,0.29762 -0.0412,0.59524 -0.0595,0.89288 -9.82345,0.34844 -18.09427,0.72024 -26.74696,2.07969 -1e-5,0 -1e-5,0 -1e-5,0 -8.92459,1.40218 -19.15358,-0.88819 -28.87611,-2.64062 -9.72253,-1.75243 -18.07336,0.52819 -25.62611,1.60468 0,0 -1e-5,0 -1e-5,0 -3.77902,0.53863 -8.48043,0.40522 -13.36369,0.006 m -9.38193,0.62381 c -9.43251,-0.32444 -18.89964,-0.0182 -28.15527,-0.0606 -9.25887,-0.0425 -17.87078,-0.50124 -25.01674,-1.50312 -7.14596,-1.00188 -19.66444,-0.58622 -30.39955,-1.74687 0,0 0,0 0,-10e-6 -5.37132,-0.58073 -10.32352,-0.28234 -15.31296,0.46208 m 0.87549,1.97543 c -9.10146,0.006 -19.10826,-0.61631 -28.76499,-1.84844 -9.66011,-1.23256 -18.86778,-0.35913 -28.022991,-1.05625 -9.155204,-0.69713 -18.514343,0.12532 -26.946424,0.36562 -10e-7,0 -3e-6,0 -4e-6,0 -4.218992,0.12024 -9.284116,-0.019 -14.783358,-0.32722 m -1.909175,0.55043 c -3.654822,-0.0858 -7.289595,0.0426 -10.893654,0.34626 0.114016,-5.36191 0.305683,-10.28095 0.617864,-14.91454 10e-7,0 10e-7,0 10e-7,0 0.508691,-7.55032 0.425751,-18.66622 1.3,-27.41361 0.874248,-8.7474 -0.793948,-20.06927 -2.376562,-31.63861 -10e-7,-10e-6 -10e-7,-10e-6 -10e-7,-10e-6 -0.791861,-5.78872 -0.468954,-10.3647 0.376107,-14.49466 m 4.722181,4.30136 c -0.142225,-10.19633 -0.409709,-18.96971 -1.238913,-28.35759 -0.829494,-9.39117 0.513567,-19.35962 1.523438,-29.48549 1.00987,-10.12588 -0.962811,-18.76602 -2.864062,-27.7183 0,0 -1e-6,-10e-6 -1e-6,-10e-6 -0.951291,-4.47927 -0.864516,-9.28368 -0.456176,-14.20102 m 1.288761,-2.53253 c -0.217328,-9.83848 -1.486947,-19.52006 -4.468523,-30.00328 0,0 -1e-6,0 -1e-6,0 -2.982617,-10.48689 -0.02708,-19.00476 -0.08125,-28.42924 -0.05417,-9.42448 1.233511,-18.82242 3.717186,-27.90111 0,0 10e-7,0 10e-7,-10e-6 1.242707,-4.54252 1.024935,-9.38753 0.277372,-14.37038 m 1.143665,-0.63666 c -0.796934,-9.89916 0.896702,-19.28632 2.682088,-29.3126 0,0 10e-7,0 10e-7,0 1.786009,-10.02979 -0.426496,-17.67138 -1.279688,-24.42768 -0.853193,-6.7563 0.338947,-19.57323 1.015624,-30.15579 0,-1e-5 0,-1e-5 0,-1e-5 0.338576,-5.29499 0.284825,-10.06457 0.09449,-14.70971 m -4.787497,-1.57655 c -0.305365,-3.68286 -0.202776,-7.47583 0.167317,-11.36438 6.387982,-0.27679 13.43114,-0.78769 20.59112,-1.47701 2e-6,-10e-6 4e-6,-10e-6 6e-6,-10e-6 11.739156,-1.13018 17.690469,0.76992 24.508923,2.31563 6.818454,1.54571 19.453467,0.38838 29.810487,1.17813 5.18214,0.39515 10.00131,0.14717 14.7732,-0.44683 m -81.312039,0.14256 c 10.081287,0.39877 18.776123,-0.0163 27.788964,-0.041 10e-7,0 3e-6,0 4e-6,0 9.015995,-0.0247 18.696684,0.13197 27.515171,0.38594 8.81849,0.25397 20.2575,0.0575 32.20736,0.1625 1e-5,0 1e-5,0 1e-5,0 5.97911,0.0525 10.50765,0.0285 14.50019,-0.0348 m 3.43096,-3.23468 c 9.04058,0.75724 19.03332,0.32464 28.54162,0.97421 9.51162,0.64979 18.16165,-0.64621 25.89018,-1.92969 7.72852,-1.28348 18.57419,0.0869 27.14954,0.28437 1e-5,0 1e-5,0 1e-5,0 4.29068,0.0988 9.33205,0.34319 14.7659,0.80425 m 2.21062,2.64853 c 9.0949,-0.33061 19.3841,0.83151 29.5775,2.49879 10.19696,1.66786 18.81923,-0.81243 27.86049,-2.41719 9.04125,-1.60476 18.26267,0.79632 26.19486,2.37656 0,0 0,0 0,0 3.96888,0.79068 8.95324,0.7747 14.35767,0.54361 m 1.88816,-4.30065 c 0.5698,0.0436 1.13881,0.084 1.7071,0.12158 0.0779,9.55459 -0.0251,18.40425 -0.0373,28.39421 -0.0131,10.62204 -0.52833,19.05507 -1.56407,28.61205 -1.03573,9.55699 0.31505,19.05114 0.93438,28.59174 0,0 0,0 0,0 0.30988,4.77364 0.55676,9.435 0.97649,13.9911 m -2.0535,-4.85424 c -0.42531,10.00759 0.72631,19.71502 2.17389,30.59216 0,0 0,1e-5 0,1e-5 1.44807,10.88095 -0.75252,18.88667 -2.25469,28.10423 -1.50218,9.21757 0.98421,19.03672 2.96562,28.55111 0,1e-5 0,1e-5 0,1e-5 0.9914,4.76053 0.87165,9.50241 0.38848,14.22155 m -1.50618,3.91311 c -0.48657,9.40537 0.10337,18.755 0.3052,27.68811 0,0 0,0 0,0 0.20191,8.93624 -1.00418,19.2957 -3.00625,29.30268 -2.00207,10.00697 0.29054,20.04035 0.87344,31.55736 0,0 0,0 0,0 0.29165,5.76254 0.3891,10.35111 0.50984,14.51171 m -1.60672,-5.37554 c -0.006,9.35807 0.94175,18.76725 2.84375,27.72879 1.90268,8.96467 -0.86727,18.47297 -2.57968,26.82455 -1.71242,8.35158 0.13331,20.13034 0.40625,31.84174 0,0 0,0 0,0 0.13656,5.8598 0.067,10.76323 -0.10355,15.52988 m -0.44517,3.01157 c -0.017,0.62436 -0.0302,1.24 -0.0397,1.84723 -9.06281,0.11777 -17.31915,-1.62849 -25.44383,-4.23408 -8.67353,-2.78159 -19.61061,0.41675 -30.23705,1.23907 -10.62644,0.82232 -18.61727,0.27611 -27.29174,0.8125 -4.34028,0.26838 -9.06952,0.1238 -13.86706,-0.22916 m 2.47628,-1.90378 c -9.27676,-0.11383 -18.4858,1.52232 -26.87574,4.55012 -8.39288,3.02887 -20.2183,-0.7328 -32.06518,-2.21406 -11.84688,-1.48125 -18.92601,-0.15221 -28.22611,-0.44687 0,0 -1e-5,0 -1e-5,0 -4.6533,-0.14744 -9.50975,-0.23785 -14.48333,-0.38096 m -2.12819,-6.32235 c -9.6961,-0.17462 -18.88595,1.59982 -28.11437,4.77362 -9.23165,3.17491 -18.85851,-0.82489 -27.98237,-2.47813 -9.123852,-1.65323 -18.892831,0.12141 -28.124544,0.38594 -2e-6,0 -4e-6,0 -5e-6,0 -4.619089,0.13236 -9.241076,0.29195 -13.757648,0.57511 m 2.062822,3.40653 c -3.634296,0.15293 -7.541757,0.199 -11.534145,0.22033 -0.0057,-5.50262 -0.174844,-11.05283 -0.005,-16.43141 0,0 0,-1e-5 0,-1e-5 0.29243,-9.25934 -0.468068,-18.48983 -1.401563,-26.88548 -0.933495,-8.39566 -0.922526,-20.26786 -2.762499,-32.24799 0,0 -10e-7,0 -10e-7,-10e-6 -0.920631,-5.99425 -0.615178,-10.35012 0.225378,-13.99319 m 2.354721,-1.94797 c 0.39182,-9.65531 -0.288775,-18.54139 -0.853536,-27.07848 -10e-7,0 -10e-7,0 -10e-7,0 -0.564959,-8.54008 -0.425004,-18.50961 -1.259375,-26.94643 -0.83437,-8.43682 1.158829,-18.60243 3.493749,-27.21048 1e-6,0 1e-6,-10e-6 2e-6,-10e-6 1.168277,-4.30704 1.217955,-9.11177 1.02446,-14.06978 m -3.157053,0.62677 c 0.209837,-9.92614 0.440319,-19.21561 1.29978,-29.08913 0,0 0,0 0,-10e-6 0.859761,-9.87697 -1.224846,-18.50175 -3.696875,-26.94642 -2.472029,-8.44467 1.258292,-19.05283 3.798436,-28.59174 10e-7,0 10e-7,0 10e-7,0 1.270962,-4.77279 1.093919,-9.75 0.423226,-14.93715 m -3.958232,-1.16572 c -0.600674,-8.89154 1.253647,-18.54483 3.778757,-27.07927 0,0 0,-1e-5 10e-7,-1e-5 2.525991,-8.53743 -1.031741,-19.0875 -3.087501,-28.71361 -2.055761,-9.62611 1.280364,-19.51467 3.859373,-29.95267 10e-7,0 10e-7,-1e-5 10e-7,-1e-5 1.290408,-5.22266 1.050803,-9.97913 0.24989,-14.61547 m -4.434158,0.807 c 0.04261,-4.12986 -0.09722,-8.14757 -0.396612,-12.108 5.08738,0.0871 9.877122,0.28099 14.427556,0.44194 7.884862,0.27889 19.355422,-1.192 29.505804,-3.575 10.150381,-2.38299 19.917127,0.5611 31.171427,1.66563 5.63109,0.55265 10.34636,0.43613 14.79642,0.0668 m -86.950284,-0.51287 c 9.168183,0.77682 17.859869,-0.66354 25.027424,-1.99144 0,0 10e-7,0 10e-7,0 7.170065,-1.32837 19.94787,0.10312 31.293299,0.28437 11.34543,0.18126 18.40994,0.40476 26.68236,1.23906 1e-5,0 1e-5,0 1e-5,0 4.13911,0.41745 8.93192,0.6125 13.90816,0.89806 m 3.10886,-0.53212 c 8.9797,0.29104 18.96666,0.58883 28.35887,1.78719 9.3955,1.19877 18.01216,0.0991 25.48393,0.28437 7.47177,0.18526 19.23476,-0.96809 29.14017,-2.88437 1e-5,0 1e-5,0 1e-5,0 4.95617,-0.95881 9.93852,-0.76005 15.08749,-0.12349 m -2.21425,-0.97407 c 8.94686,-0.65541 20.33731,0.31046 32.44171,0.91475 10e-6,0 10e-6,0 10e-6,0 12.10864,0.6045 19.01369,0.65562 28.44955,1.99062 9.43585,1.33501 18.41116,-0.87756 26.68236,-2.64062 0,0 0,0 0,0 4.1385,-0.88215 8.76564,-0.8978 13.41002,-0.70798 m -2.01943,5.11666 c 2.7172,0.24583 5.61725,0.20644 8.66705,-0.0517 0.48821,6.07187 1.80332,10.93591 3.51576,15.45488 2.44204,6.4443 -0.0574,19.35075 -0.18281,29.46518 -0.1254,10.11443 -1.20636,19.44743 -3.59531,29.76986 0,0 0,0 -10e-6,0 -1.19531,5.16483 -0.91619,10.03792 -0.0583,14.91737 m 0.87113,-3.14115 c 0.33793,8.81167 -0.0326,20.31293 -0.0816,32.36061 0,1e-5 0,1e-5 0,1e-5 -0.049,12.0519 -0.23041,17.39675 -0.67031,23.59486 -0.4399,6.19811 0.47416,19.17782 1.44219,28.95736 0,0 0,1e-5 0,1e-5 0.48435,4.89319 0.61631,9.97556 0.75953,15.34284 m 2.45005,0.51681 c 0.19647,9.39836 0.65207,18.40471 1.92948,26.65218 1.27786,8.25035 -0.64499,19.03563 -1.90937,28.5308 -1.26439,9.49517 -0.007,19.80432 -0.0203,30.84642 0,10e-6 0,10e-6 0,10e-6 -0.007,5.52491 -0.0785,10.38431 -0.21932,15.15164 m 5.13429,-2.05431 c -0.62277,9.568 -1.3382,19.34933 -4.00091,29.49575 -2.66365,10.14998 -0.14916,18.83359 -0.42657,27.92143 -0.2774,9.08783 0.69632,19.57872 2.09219,30.17611 0,0 0,0 0,0 0.69843,5.30241 0.89348,9.69496 1.11135,13.58274 m -5.09227,-4.58872 c 0.0941,2.83937 0.18118,5.79807 0.28725,8.86544 -6.39771,0.43716 -12.69426,1.45322 -18.5698,2.91702 -8.42416,2.09876 -18.9548,-0.87384 -28.30737,-2.64062 -9.35257,-1.76678 -18.26992,1.29465 -26.2558,3.87968 0,0 0,0 0,0 -3.99574,1.29343 -8.92065,1.06694 -14.19711,0.29218 m -2.92185,2.71378 c -9.33905,-0.2843 -20.55895,-0.59846 -33.13194,-1.78721 -12.57738,-1.18916 -18.89927,0.53503 -28.12455,1.58438 -9.22528,1.04934 -18.53452,0.70295 -27.04799,2.09219 0,0 0,0 0,0 -4.25971,0.6951 -9.16952,0.64378 -14.34955,0.36807 m 2.95935,-8.27 c -8.73637,-0.34363 -18.94192,1.54343 -28.27788,4.6113 0,0 -1e-5,0 -1e-5,0 -9.33923,3.06895 -19.06441,-0.43387 -28.63236,-1.3 -9.567951,-0.86612 -19.966484,-0.42196 -31.333921,-1.27968 -2e-6,0 -4e-6,0 -6e-6,-1e-5 -5.687698,-0.42916 -10.591592,-0.45596 -15.406582,-0.40021 m 7.16368,4.03618 c -6.46284,0.0173 -12.824584,-0.40786 -19.342949,-1.25273 -0.130547,-3.69218 -0.303308,-7.49748 -0.554346,-11.41268 -0.734838,-11.46054 0.475041,-19.12494 1.421875,-28.79487 0.946833,-9.66992 -0.0111,-18.48604 -0.02031,-26.88548 0,-10e-6 0,-10e-6 0,-10e-6 -0.0046,-4.20266 -0.365386,-8.77853 -1.086201,-13.30495 m -2.00098,0.22817 c 0.304319,-9.35152 0.234449,-19.06329 0.690305,-28.62255 10e-7,0 10e-7,0 10e-7,0 0.456016,-9.56261 -0.02106,-19.61143 -0.04062,-30.25736 -0.01957,-10.64594 -0.974528,-19.52307 -2.945312,-29.9933 0,0 -10e-7,-10e-6 -10e-7,-10e-6 -0.986082,-5.23878 -1.069807,-9.90868 -0.989736,-14.36802 m 3.548585,-2.12121 c -0.500627,-9.29727 -0.660223,-18.81638 -1.969786,-27.91166 -10e-7,0 -10e-7,0 -10e-7,-1e-5 -1.31002,-9.09846 0.647021,-18.12786 1.929688,-25.80892 1.282667,-7.68106 0.258511,-19.23212 0.771875,-29.14017 0,0 0,-10e-6 0,-10e-6 0.256862,-4.95749 0.09201,-9.6883 -0.301272,-14.33741 m -6.198188,-2.13104 c 0.513731,-8.85761 0.06803,-18.33671 0.202585,-26.42932 0,0 0,0 0,0 0.134605,-8.09544 1.233308,-19.54223 3.696875,-30.05424 2.463567,-10.51201 -1.17027,-18.55273 -3.514061,-27.08861 -1e-6,0 -1e-6,0 -2e-6,0 -1.172716,-4.27093 -0.987232,-9.42935 -0.321622,-15.10464 m 3.369272,-1.48629 c 0.488407,-6.23978 0.96351,-12.17425 2.064704,-17.72063 3.77981,0.38617 7.72279,0.87349 11.91401,1.47296 12.405476,1.77437 18.717133,-0.57836 27.555803,-1.72656 8.838669,-1.1482 17.830555,-0.70417 24.894865,-2.13281 0,0 0,0 0,0 3.53463,-0.71482 8.57002,-0.66376 14.17973,-0.38324 m -76.54794,4.46668 c 8.898804,0.60128 19.263508,-0.39408 29.232395,-1.15844 0,0 1e-6,0 2e-6,0 9.972376,-0.76463 18.588012,0.63639 27.169863,1.88906 8.58185,1.25268 18.96467,-0.85373 28.30736,-2.55937 0,0 10e-6,0 10e-6,0 4.67461,-0.85342 9.66387,-0.93998 14.89685,-0.89958 m 3.84812,3.62061 c 10.2971,-0.8046 18.09866,-0.39017 25.71686,-1.15697 7.62087,-0.76707 20.12404,0.24043 31.82143,0.71094 11.69737,0.4705 18.84693,0.56536 27.98236,1.70625 0,0 0,0 0,0 4.57092,0.57084 9.07788,0.62746 13.37608,0.59951 m 1.24393,-6.49063 c 8.8447,-0.47251 19.21661,0.88627 29.11057,2.66143 9.89742,1.77579 18.61517,-0.64709 27.27143,-1.95 8.65626,-1.30291 18.79188,0.33231 27.77924,0.99531 0,0 0,0 0,0 4.49683,0.33173 9.39471,0.41495 14.48915,0.49567 m -0.82275,4.09574 c 1.75897,0.13231 3.53371,0.1791 5.33026,0.15302 0.46284,7.70398 1.38967,13.85755 3.37361,19.70338 0,0 0,0 0,10e-6 2.41489,7.11562 -0.832,18.73534 -2.49843,27.61673 -1.66644,8.8814 0.95333,19.48122 2.88437,29.89174 0,0 0,0 0,0 0.9662,5.20891 0.95886,10.1014 0.70092,15.00751 m -1.96027,-1.19893 c 0.0269,9.86549 -0.25689,19.47701 -0.7719,29.88138 0,0 0,0 0,10e-6 -0.51519,10.408 0.72502,19.89525 2.19375,31.11048 1.46873,11.21523 -0.67194,17.65249 -2.03125,24.36674 0,0 0,0 0,0 -0.68013,3.35948 -0.77812,8.15967 -0.8071,13.34722 m 3.06169,2.73565 c -0.0944,9.18989 0.25723,19.90951 0.77197,31.14146 0.51492,11.23589 -1.40894,18.3878 -4.20469,26.60112 -2.79574,8.21331 1.05328,19.4261 3.16875,29.68861 0,0 0,0 10e-6,0 1.05847,5.13485 0.85599,9.8296 0.19009,14.36295 m -0.85959,-4.86156 c 0.77716,8.97341 -0.18424,19.62708 -0.56957,30.32919 -0.38546,10.70587 -0.47971,19.60304 -1.4625,30.23706 -0.98278,10.63402 1.19566,18.02258 3.59531,25.48392 0,0 0,10e-6 10e-6,10e-6 1.20066,3.73328 1.09461,8.68094 0.58377,14.06998 m -6.04828,4.12528 c -0.0762,1.65464 -0.1041,3.33171 -0.0913,5.0235 -7.73087,-0.18141 -14.63843,-0.0654 -21.40453,-0.35479 0,0 0,0 0,0 -8.27378,-0.35384 -19.22034,-0.56286 -29.09955,-1.70625 -9.87921,-1.14338 -18.97178,-0.0642 -28.3683,-0.18281 0,0 0,0 0,0 -4.70155,-0.0593 -9.81192,0.19529 -15.28179,0.7163 m 2.5101,-0.89988 c -8.95982,-0.72975 -19.53142,0.31889 -30.04483,0.97577 -10.51709,0.65711 -19.86161,-0.37815 -31.02924,-1.1375 -11.16763,-0.75935 -18.69066,-0.11368 -27.47455,-0.36562 0,0 -1e-5,0 -1e-5,-10e-6 -4.39502,-0.12605 -9.04279,-0.13332 -13.66641,-0.11816 m -0.6704,0.32154 c -9.97303,0.23688 -18.61295,0.45628 -27.30158,1.36069 -8.69167,0.90472 -18.76656,0.0999 -27.73862,0.325 -8.972049,0.22513 -19.052625,0.92726 -28.591737,2.80312 -4.772894,0.93859 -9.645629,0.69133 -14.622885,-0.0356 m -0.36263,-5.36816 c -4.699311,-0.33795 -9.830424,-0.17749 -15.02483,0.18866 -0.06299,-4.08484 -0.172699,-8.01786 -0.09548,-11.98464 0.167171,-8.58726 0.522168,-18.76561 1.584375,-27.7183 1.062207,-8.95269 0.288032,-20.04144 0.873438,-31.57768 0.292907,-5.77215 -0.0065,-10.54269 -0.676899,-15.06647 m -0.195651,4.10163 c 0.845204,-9.87919 0.470898,-19.74137 1.420987,-30.65324 0,0 0,0 0,0 0.950421,-10.91569 -1.195392,-19.63607 -3.595312,-30.3183 -2.399922,-10.68223 0.443827,-18.72939 1.320312,-27.61674 0.438549,-4.44679 0.467042,-9.19098 0.414875,-13.99225 m -6.163987,3.23095 c -0.642049,-9.47992 0.08057,-19.04385 0.264737,-28.58178 0,0 0,-10e-6 0,-10e-6 0.184233,-9.54127 0.08714,-18.54854 0.284375,-27.0683 0.197233,-8.51976 0.365288,-19.03996 1.117187,-28.55111 0,0 0,0 0,0 0.376213,-4.75891 0.354168,-9.80909 0.216038,-15.14555 m 1.77409,-3.23249 c -0.47307,-9.05363 0.08438,-18.3622 0.26456,-26.55098 0,0 0,0 0,0 0.180239,-8.19165 0.589538,-19.48509 1.7875,-29.89174 1.197962,-10.40666 -0.780136,-18.68605 -2.356249,-27.47455 0,0 -10e-7,0 -10e-7,-10e-6 -0.788608,-4.39732 -0.574442,-9.32626 0.05271,-14.51196 m 0.41522,-1.57062 c 0.381042,-4.83121 0.566536,-10.05702 0.890616,-15.38763 4.637689,-0.1469 9.374597,-0.36883 14.413133,-0.49025 0,0 1e-6,0 2e-6,0 10.99721,-0.26501 19.038206,-0.74026 28.551114,-2.23438 9.512906,-1.49412 17.867732,1.36121 25.057362,4.0625 0,0 0,0 0,0 3.59734,1.35159 8.41006,1.28613 13.56221,0.82143 m -78.218109,-0.13025 c 8.716879,0.52742 20.075483,0.30929 31.670086,0.91351 11.598663,0.60443 18.321043,-0.34287 26.397993,-1.01563 8.07695,-0.67275 20.17895,-0.64884 31.98392,-1.92968 0,0 0,0 1e-5,0 5.90661,-0.64087 10.69907,-0.66897 15.23326,-0.56602 m -6.21964,3.5309 c 8.71657,-0.70314 19.63825,-0.30423 30.34977,-0.93363 0,0 0,0 10e-6,0 10.71527,-0.62962 19.62943,0.82231 30.33861,2.45781 10.70917,1.6355 18.3555,-1.20054 26.47923,-3.59531 0,0 1e-5,0 1e-5,0 4.06471,-1.19823 8.78776,-0.98734 13.64601,-0.26705 m 1.72714,-1.35858 c 10.35197,-0.59502 19.24436,-0.32473 29.16993,-0.95406 0,0 0,0 0,0 9.92904,-0.62955 19.38203,0.69909 29.56674,2.09219 10.18471,1.3931 19.47858,0.7129 29.87142,2.15312 0,0 0,0 10e-6,0 5.20006,0.72062 9.77555,0.34723 14.04989,-0.57899 m 0.2263,-4.01159 c 0.84659,0.003 1.68347,0.01 2.51191,0.02 0.48636,8.84679 -0.0738,18.10759 0.065,27.8934 0,0 0,10e-6 0,10e-6 0.15126,10.66862 0.0999,19.33774 0.28438,29.44486 0.18443,10.10711 0.63869,18.40323 1.90937,26.62142 0,0 0,10e-6 0,10e-6 0.63579,4.11197 0.35075,9.06924 -0.38041,14.38113 m -1.83356,0.52431 c 0.0868,9.8588 -1.50434,19.56699 -4.50947,30.12514 -3.00618,10.56184 0.68318,18.90414 2.05157,28.16518 1.36838,9.26103 0.27983,18.84902 0.83281,27.96204 0,1e-5 0,1e-5 0,1e-5 0.27668,4.5597 0.19282,9.46561 -0.0454,14.56614 m -0.86925,3.71123 c -0.5738,9.9058 1.01668,19.13582 3.06779,28.86571 2.05183,9.7333 -1.24617,18.36234 -3.7375,26.51987 -2.49133,8.15752 0.1713,19.65678 0.52813,30.41986 0,0 0,0 0,0 0.17853,5.38531 0.0727,9.97358 -0.18246,14.23344 m 6.60106,-3.83685 c -0.14217,10.35248 -0.32582,19.96663 -0.95454,31.32305 -0.62894,11.3604 -1.04169,18.16342 -3.12813,25.93081 -2.08643,7.76738 0.50145,19.34417 1.50313,29.44486 0,0 0,0 0,0 0.50119,5.05388 0.52747,9.77917 0.45345,14.39125 m -2.97222,0.35167 c -0.002,0.84748 -0.006,1.69126 -0.0121,2.53194 -8.76662,0.21206 -17.78957,0.0751 -27.10293,0.29537 0,0 0,0 0,0 -10.19548,0.24111 -18.98039,-0.7368 -28.3683,-2.21406 -9.38792,-1.47726 -19.78727,-0.2359 -30.78549,-0.71094 -5.50297,-0.23768 -10.02282,0.18276 -14.11225,1.08043 m 5.07736,4.24234 c -9.62891,0.84455 -19.44732,-0.46313 -29.80038,-1.40246 -10.35669,-0.93965 -19.84326,0.54865 -30.94799,1.64532 -11.10473,1.09667 -18.16118,-1.28619 -25.9308,-3.85938 0,0 -1e-5,0 -1e-5,0 -3.88753,-1.28749 -8.59614,-1.31237 -13.46349,-1.03853 m -3.4722,-1.07339 c -8.9053,0.54756 -18.89192,0.11414 -28.09489,0.36505 0,0 0,0 0,0 -9.20619,0.25099 -19.49964,-0.17523 -29.952676,-0.50781 -10.453035,-0.33259 -18.51658,0.31768 -26.987049,0.97499 -10e-7,0 -3e-6,0 -4e-6,0 -4.2382,0.32889 -9.059033,0.35912 -14.06519,0.33778 m 1.719255,-0.23655 c -4.302549,-0.14044 -8.702133,-0.14242 -13.254321,-0.0896 -0.432186,-5.24428 -1.107263,-10.40141 -2.136816,-15.63947 -1.84627,-9.39326 0.24524,-19.23646 0.751562,-29.16049 0.506322,-9.92403 -0.356756,-18.59336 -1.076562,-27.21049 -0.360156,-4.31158 -0.435758,-9.13958 -0.495395,-14.14369 m 0.04822,-2.95447 c -0.28291,-8.87774 1.384824,-18.12728 4.16436,-25.84023 0,0 10e-7,-10e-6 10e-7,-10e-6 2.780507,-7.71565 -0.680605,-19.5821 -2.031251,-30.19642 -1.350646,-10.61432 -0.393926,-19.52726 -1.157812,-29.9933 0,0 0,0 0,-1e-5 -0.382211,-5.23668 -0.329363,-9.82016 -0.131109,-14.10206 m 0.476222,7.97235 c -0.188503,-9.16217 1.069987,-18.92532 3.189262,-28.19618 0,0 0,0 10e-7,0 2.120015,-9.2741 -0.134336,-19.73249 -0.426564,-30.60268 -0.292228,-10.87019 -1.036142,-18.76574 -3.128124,-27.7183 0,0 -10e-7,0 -10e-7,0 -1.046724,-4.47941 -0.891213,-9.27239 -0.3204,-14.1611 m -1.954251,-3.77107 c 0.332023,-10.0138 1.190401,-18.91997 3.594963,-28.2156 10e-7,0 10e-7,0 2e-6,0 2.405402,-9.29888 -1.220512,-18.9097 -3.656251,-28.16518 -2.43574,-9.25548 0.926453,-19.30931 2.803124,-29.36361 0,0 0,0 1e-6,0 0.938991,-5.03067 0.79549,-9.76986 0.275412,-14.41757 m 5.108295,-2.45796 c 0.379743,-4.29679 0.3999,-8.55661 0.286083,-12.81094 5.133519,-0.0109 10.060218,-0.0134 15.212823,-0.0677 1e-6,0 2e-6,0 4e-6,0 9.302944,-0.0982 18.244324,0.62813 26.154237,1.90937 7.909913,1.28125 19.341467,0.0995 29.444857,0.30469 10e-6,0 10e-6,0 10e-6,0 5.05523,0.10265 9.94731,-0.0885 14.89417,-0.49454 m -83.466885,4.49669 c 9.074739,0.55434 19.550934,0.15315 30.065022,0.44629 10e-7,0 2e-6,0 3e-6,0 10.517768,0.29325 17.81032,-0.32283 24.87455,-0.95469 7.06424,-0.63185 19.1181,0.27002 28.77455,0.8125 0,0 0,0 0,0 4.83161,0.27143 9.5619,0.30104 14.24222,0.29121 m 1.31328,-2.42394 c 9.9058,0.0732 19.12679,-1.59133 28.80477,-4.79383 9.68137,-3.20362 18.67049,1.495 27.45424,4.46875 8.78376,2.97375 19.03638,-1.00967 28.55111,-3.02656 1e-5,0 1e-5,0 1e-5,0 4.7607,-1.00916 9.60034,-1.01367 14.51324,-0.77127 m 0.53378,3.73669 c 9.27813,-0.18973 20.43859,-0.68448 32.72575,-2.07167 0,0 0,0 0,0 12.29146,-1.38768 18.5998,-0.51276 27.25111,-1.56407 8.65132,-1.0513 18.62688,-0.0502 27.31205,-0.16249 0,0 1e-5,0 1e-5,0 4.34562,-0.0562 9.23905,0.26183 14.36398,0.91288 m 4.44101,-0.97358 c 0.57069,0.0139 1.14255,0.0262 1.71552,0.037 -0.0534,9.11148 0.15972,17.86588 0.39976,26.85591 0,0 0,0 0,0 0.2556,9.57276 -0.10935,19.34188 -0.325,29.44487 -0.21565,10.10298 -0.67404,19.0944 -2.03125,28.69329 0,1e-5 0,1e-5 0,1e-5 -0.67908,4.80281 -0.39645,9.75634 0.33926,14.89111 m -3.12279,0.8268 c -0.68272,9.82441 -0.0802,18.72624 -0.24303,27.60642 -10e-6,0 -10e-6,0 -10e-6,0 -0.1629,8.88329 0.6169,20.24504 1.86876,32.16674 1.25185,11.9217 -0.35222,19.42543 -1.07657,29.68861 0,0 0,0 0,10e-6 -0.36242,5.13518 -0.37114,9.71838 -0.30014,14.02551 m 4.36256,-0.52271 c -0.0809,8.83063 0.24291,18.42611 0.71102,26.6934 0.46827,8.27019 -0.3097,19.01255 -0.95469,28.46987 -0.64499,9.45732 -0.41478,19.59849 -1.25937,30.21673 0,1e-5 0,1e-5 0,1e-5 -0.42259,5.31284 -0.5518,10.00664 -0.704,14.49501 m -1.06258,-0.97045 c 0.58209,10.21008 1.15971,19.29879 3.49314,29.33258 2.33424,10.03731 -0.65643,19.05195 -1.95,28.59174 -1.29357,9.53979 0.30252,18.37182 0.91406,26.51986 0,1e-5 0,1e-5 0,1e-5 0.30599,4.07687 0.0108,8.90253 -0.65576,13.95906 m -2.49219,3.42422 c 0.03,0.61668 0.0521,1.23199 0.0668,1.84598 -8.69409,0.024 -18.96082,-0.23126 -29.63546,-0.61841 0,0 0,0 -10e-6,0 -11.41239,-0.4139 -18.62626,-0.0376 -27.31204,-0.10156 -8.68579,-0.0639 -19.3517,0.39047 -29.50581,1.15781 -5.0806,0.38394 -9.80641,0.34796 -14.41207,0.17804 m 1.53906,-0.19756 c -8.73603,0.74968 -18.46321,-0.81529 -26.81538,-2.4586 0,0 0,0 0,0 -8.3551,-1.64389 -19.63519,0.8997 -30.33862,2.68125 -10.70342,1.78154 -18.32002,-0.93404 -26.37767,-2.80313 0,0 0,0 0,0 -4.03165,-0.9352 -8.95284,-0.66889 -14.21338,0.0973 m 2.01003,-2.35212 c -9.35137,-0.16891 -18.84491,0.0977 -27.97255,0.28455 -9.13083,0.18694 -19.61657,-0.13467 -30.29799,-0.42656 -10.681414,-0.29189 -19.509925,-0.81948 -29.932359,-2.45781 -2e-6,0 -3e-6,0 -5e-6,-10e-6 -5.214866,-0.81974 -9.716222,-0.60816 -13.843007,0.0178 m -0.778055,4.41012 c -4.140155,-0.0627 -7.968536,-0.1998 -11.560341,-0.4456 0.56482,-5.85824 1.579754,-11.9233 2.847455,-18.28525 2.187523,-10.97805 0.24673,-18.38888 0.751563,-26.5808 0.504833,-8.19192 -0.977302,-19.63783 -2.925,-30.33862 -0.974531,-5.35413 -0.836988,-10.12603 -0.316087,-14.75754 m -2.039723,3.04085 c 0.419086,-10.15655 0.03907,-20.07403 0.141747,-31.64826 10e-7,-10e-6 10e-7,-10e-6 10e-7,-10e-6 0.102711,-11.57828 0.08057,-17.95893 0.24375,-25.2808 0.163176,-7.32186 -0.013,-19.30111 -0.02031,-29.34329 0,-10e-6 0,-10e-6 0,-10e-6 -0.0037,-5.02461 0.148358,-9.85814 0.451573,-14.69439 m -1.080933,-0.92214 c 0.311948,-10.001 1.479319,-19.94681 4.427798,-31.26249 0,0 10e-7,0 10e-7,0 2.949508,-11.31964 0.02654,-18.74151 0.101561,-27.67768 0.07502,-8.93616 -0.398937,-18.05839 -1.198437,-25.6058 0,0 0,0 -10e-7,0 -0.400029,-3.77634 -0.33359,-8.90194 -0.09866,-14.63615 m 2.33311,1.90407 c 0.07364,-9.92654 -1.006449,-19.79118 -3.006328,-30.79538 0,0 0,0 -10e-7,0 -2.000576,-11.00804 0.761518,-19.17647 2.295314,-28.95736 1.533796,-9.7809 -0.07102,-18.16091 -0.203125,-25.9308 0,0 0,0 0,-10e-6 -0.0661,-3.88766 -0.120682,-8.61127 -0.21027,-13.51407 m -0.845945,-0.35582 c 0.01422,-4.33844 -0.0532,-8.58927 -0.194362,-12.91669 5.291545,-0.39416 10.44706,-0.92959 15.486315,-2.01763 8.752612,-1.88981 18.706708,0.79279 27.555804,2.35625 8.849095,1.56345 19.901627,-0.0758 31.151117,-0.24375 5.62868,-0.084 10.21955,-0.21194 14.4224,-0.44811 m -80.062771,-4.16274 c 10.115799,0.0876 19.800333,-0.33873 30.815491,-1.01572 10e-7,0 10e-7,0 2e-6,0 11.019013,-0.67721 18.141748,0.9226 25.829238,2.78282 7.68749,1.86021 19.08635,-0.35595 28.71361,-1.07656 0,0 1e-5,0 1e-5,0 4.817,-0.36057 9.81317,-0.25022 15.02673,0.0629 m 1.03704,2.29354 c 10.35239,0.19569 19.83825,-0.45517 30.97774,-1.34083 11.1434,-0.88597 18.87036,0.14848 28.06362,0.42656 9.19325,0.27808 18.16565,-1.10303 25.9308,-3.29062 0,0 0,0 0,0 3.8853,-1.09456 8.59155,-0.87876 13.45829,-0.17176 m 1.48804,-0.43837 c 10.10125,-0.71609 18.3285,0.51692 26.428,1.56481 10e-6,10e-6 10e-6,10e-6 10e-6,10e-6 8.10234,1.04825 18.90563,0.43177 28.16517,1.32031 9.25954,0.88853 20.57803,0.51898 33.18236,1.54375 0,0 1e-5,0 1e-5,0 6.30658,0.51274 10.9652,0.22318 15.13161,-0.48202 m -0.20656,-0.10719 c 0.0787,-0.001 0.1574,-0.002 0.23606,-0.003 -0.34324,9.30347 -1.11977,18.54038 -3.3424,27.30457 0,0 0,0 0,0 -2.24264,8.84307 -0.0794,18.16782 -0.24375,25.95112 -0.16433,7.78329 1.30115,20.34809 3.9,32.49173 0,0 0,0 0,10e-6 1.30033,6.07607 1.09972,10.63386 0.37685,14.65492 m -1.14888,1.63215 c -0.14205,10.22285 -0.1565,18.22986 -0.46703,26.12319 -10e-6,10e-6 -10e-6,10e-6 -10e-6,10e-6 -0.31064,7.8961 -0.19466,19.5272 -0.58906,30.03392 -0.3944,10.50673 0.60951,19.519 1.82813,29.97299 0,0 0,0 0,0 0.60973,5.23066 0.56447,10.01559 0.3233,14.70229 m -5.68666,-4.28681 c -0.81704,8.9935 1.1468,19.36572 3.41336,29.55729 0,0 0,10e-6 0,10e-6 2.26735,10.19513 -1.16486,20.18931 -3.51406,32.00423 -2.34921,11.81492 0.59034,18.83326 1.74687,27.94174 0,0 0,0 0,0 0.57867,4.55744 0.59942,9.07234 0.49818,13.38805 m 2.20309,2.57351 c -0.27787,9.72917 -1.06944,17.84675 -3.20908,24.98621 -2.1404,7.14197 -0.1145,20.22453 -0.34531,32.08549 -0.23082,11.86097 -0.2248,18.35564 -0.67032,26.51986 0,10e-6 0,10e-6 0,10e-6 -0.22291,4.08497 -0.12014,8.7545 0.13954,13.49448 m -3.47136,1.12592 c -0.007,0.11387 -0.0131,0.22768 -0.019,0.34144 -9.87482,-0.30315 -17.05345,-0.9622 -23.11112,-2.85255 -6.13555,-1.91466 -20.29034,0.0219 -32.30893,0.0406 -12.01859,0.0187 -19.06556,0.77256 -28.61205,2.33594 -4.77659,0.78224 -9.22467,0.54579 -13.35048,-0.12396 m 6.20505,1.42324 c -9.24334,-0.68326 -19.0201,-0.86926 -28.50078,-2.59928 -9.484,-1.73062 -19.72518,0.83877 -30.60268,2.53906 -10.8775,1.70029 -19.83127,-0.78893 -30.90736,-2.35624 0,0 0,0 0,-1e-5 -5.54193,-0.7842 -10.30035,-0.734 -14.85784,-0.43657 m 0.0745,1.77759 c -9.60793,0.37112 -18.44469,-0.89809 -26.79415,-2.70195 0,0 0,0 0,0 -8.35239,-1.8045 -19.70825,0.97412 -30.541741,2.90468 -10.83349,1.93057 -19.405253,-0.83423 -29.668298,-2.49843 -2e-6,0 -3e-6,0 -5e-6,0 -5.135116,-0.83269 -9.842445,-0.68197 -14.397266,-0.17215 m 1.421601,0.71996 c -3.598519,-0.21898 -7.085558,-0.23249 -10.499132,-0.1307 0.159367,-5.83941 0.534834,-11.33971 0.9346,-16.95593 0,0 0,-10e-6 0,-10e-6 0.633073,-8.89391 -0.839382,-18.68646 -2.539063,-27.47455 -1.699681,-8.78809 0.466444,-19.91909 1.421875,-31.17143 0.47805,-5.6301 0.381723,-9.9792 0.06912,-13.69976 m 0.235101,-2.16003 c -0.446779,-9.53332 -0.98077,-18.0889 -2.944843,-25.71766 0,0 -1e-6,0 -1e-6,0 -1.964759,-7.63143 -0.218901,-19.68374 -0.670311,-30.50112 -0.451411,-10.81737 0.960579,-19.07199 2.904687,-28.63236 0.972734,-4.78354 1.063605,-9.42453 1.005703,-13.93746 m -1.73664,-1.90248 c 0.297757,-9.9735 0.516796,-19.28088 1.543437,-29.29221 0,0 0,0 10e-7,0 1.026999,-10.01483 -0.277942,-17.95778 -0.812501,-25.2808 -0.534559,-7.32302 0.466376,-19.4322 1.421874,-29.72923 1e-6,-10e-6 1e-6,-10e-6 1e-6,-10e-6 0.478084,-5.15212 0.259999,-9.91212 -0.296563,-14.57039 m -0.454111,5.2722 c 0.845262,-8.89966 0.554641,-20.4928 1.664737,-32.92927 0,0 0,0 0,0 1.110483,-12.44082 -1.395267,-18.64055 -4.184376,-27.35267 -2.789108,-8.71212 1.002084,-18.29342 3.026562,-26.29643 0,0 1e-6,0 1e-6,0 1.012947,-4.00431 1.098722,-8.81044 1.02059,-13.84484 m 0.01605,-2.726 c 0.248751,-3.58761 0.192513,-7.09772 -0.06451,-10.54992 5.544313,0.15223 10.516813,0.46935 15.418297,0.85716 10e-7,10e-6 2e-6,10e-6 3e-6,10e-6 7.808689,0.61783 19.141595,-1.07569 28.835488,-3.25 9.693897,-2.17432 19.142817,1.35667 28.876107,4.08281 1e-5,0 1e-5,0 1e-5,0 4.87005,1.36402 9.5265,1.04234 14.05095,0.0574 m 9.5423,398.03943 -8.04297,0 M 46.122566,585.3935 l 0,-7.17578 m 0,140.49289 0,-7.45703 M 274.42752,498.5703 l 9.50781,0 m 65.49432,400.10777 -8.47656,0"
       id="rect3763"
       inkscape:path-effect="#path-effect2994"
       inkscape:original-d="m 46.122566,498.5703 310.166844,0 0,400.10777 -310.166844,0 z"
       inkscape:connector-curvature="0" />
    <text
       xml:space="preserve"
       style="font-size:40px;font-style:normal;font-variant:normal;font-weight:normal;font-stretch:normal;line-height:125%;letter-spacing:0px;word-spacing:0px;fill:#000000;fill-opacity:1;stroke:none;font-family:Serif;-inkscape-font-specification:Serif"
       x="555.53107"
       y="529.33044"
       id="text4456"
       sodipodi:linespacing="125%"><tspan
         sodipodi:role="line"
         id="tspan4458"
         x="555.53107"
         y="529.33044" /></text>
    <text
       xml:space="preserve"
       style="font-size:40px;font-style:normal;font-variant:normal;font-weight:normal;font-stretch:normal;line-height:125%;letter-spacing:0px;word-spacing:0px;fill:#000000;fill-opacity:1;stroke:none;font-family:Serif;-inkscape-font-specification:Serif"
       x="554.57141"
       y="524.78479"
       id="text4460"
       sodipodi:linespacing="125%"><tspan
         sodipodi:role="line"
         id="tspan4462"
         x="554.57141"
         y="524.78479" /></text>
    <text
       sodipodi:linespacing="125%"
       id="text4487"
       y="614.27582"
       x="436.36752"
       style="font-size:79.81760406px;font-style:normal;font-variant:normal;font-weight:normal;font-stretch:normal;line-height:125%;letter-spacing:0px;word-spacing:0px;fill:#000000;fill-opacity:1;stroke:none;font-family:Serif;-inkscape-font-specification:Serif"
       xml:space="preserve"><tspan
         style="font-style:normal;font-variant:normal;font-weight:normal;font-stretch:normal;font-family:Sketch Block;-inkscape-font-specification:Sketch Block"
         y="614.27582"
         x="436.36752"
         sodipodi:role="line"
         id="tspan4914">here</tspan></text>
    <path
       inkscape:connector-curvature="0"
       inkscape:original-d="m 691.28657,496.43717 321.48053,-1.41421 -11.3137,404.35042 -312.99526,9.89949 z"
       inkscape:path-effect="#path-effect4910-9"
       id="path4908"
       d="m 699.39522,500.51099 c 10.28398,-0.62316 18.79414,-0.0814 27.80879,-0.14535 0,0 0,0 0,0 9.0178,-0.064 18.61742,-0.52003 27.29146,-1.42568 8.67405,-0.90565 19.54834,0.0952 30.05396,0.42275 0,0 10e-6,0 10e-6,0 5.25649,0.16391 9.82113,0.0963 14.06574,-0.0628 m -0.64439,-6.76497 c 8.77033,-0.87294 19.32727,0.34301 29.39475,1.1346 10.07101,0.79187 19.36425,0.22889 29.54615,0.80869 10.18191,0.5798 18.60889,-0.46045 27.27115,-1.24287 0,0 0,0 10e-6,0 4.33416,-0.39149 9.38756,-0.51727 14.83941,-0.6582 m -1.84441,6.05988 c 8.98034,0.44383 20.00137,-1.42264 31.4461,-4.12771 11.44873,-2.70602 17.45121,0.22096 23.79771,0.78838 6.34651,0.56741 19.93143,-0.33201 31.21177,-0.87725 10e-6,0 10e-6,0 10e-6,0 5.64412,-0.27281 10.45026,-0.17537 15.07722,0.10382 m -0.86237,5.17508 c 5.24911,-0.22016 10.57951,-0.20936 16.20481,-0.13229 0.4539,4.62202 1.1517,9.29882 2.2539,13.90663 0,0 0,0 0,10e-6 2.3154,9.67933 -0.7905,18.3496 -1.5507,26.46806 -0.7601,8.11845 -0.8138,18.49971 -1.6319,26.91493 0,0 0,0 0,0 -0.4094,4.21056 -0.3847,9.14852 -0.1361,14.40183 m -2.1519,-0.0505 c 0.5854,9.76674 -0.5121,18.90449 -0.7591,28.14374 0,0 0,0 0,0 -0.2471,9.24248 -1.3505,18.30668 -3.2773,26.34619 -1.9267,8.0395 -0.5938,18.5287 -1.0022,27.0165 -0.2043,4.24687 -0.4529,8.96694 -0.8015,13.77168 m 2.6968,5.21009 c -0.4756,9.00198 -0.1867,17.48412 0.2576,23.87892 0.4444,6.39704 -1.2605,20.45222 -2.9726,32.78525 -1.712,12.33302 -0.024,18.77813 0.7244,27.78837 0,0 0,0 0,10e-6 0.3744,4.50827 0.071,9.26531 -0.526,14.08167 m -1.357,1.59021 c -0.5564,10.00377 0.1624,19.57164 1.2937,30.15443 1.1316,10.58649 -0.1841,19.34844 0.2368,29.47431 0.4209,10.12587 -0.5092,17.91573 -0.7179,25.16806 0,0 0,1e-5 0,1e-5 -0.1044,3.6287 -0.3511,8.43458 -0.7187,13.5639 m 0.7041,0.8885 c -0.629,6.34383 -1.2957,12.49966 -2.6243,18.26677 -3.56507,-0.24042 -7.27454,-0.56564 -11.19198,-0.99608 -12.30958,-1.35257 -18.02342,0.13969 -25.48996,-0.47804 -7.46654,-0.61773 -20.0072,0.88266 -31.48214,1.75634 0,0 0,0 -10e-6,0 -5.74148,0.43714 -10.24329,0.49798 -14.2394,0.39734 m -1.51142,2.02468 c -9.28602,0.0978 -19.17356,0.004 -28.97396,-0.9047 0,0 0,0 -10e-6,0 -9.80383,-0.90874 -19.2056,-0.17827 -29.04464,-1.41242 -9.83904,-1.23414 -18.57835,1.00176 -27.15558,2.08134 0,0 0,0 -10e-6,0 -4.29161,0.54017 -9.23944,0.92539 -14.48974,1.44937 m 0.66894,-1.50558 c -8.96791,-0.002 -18.5609,2.22656 -27.12586,5.77822 0,0 0,0 0,0 -8.56795,3.5529 -18.60124,0.54797 -27.25715,0.74071 -8.6559,0.19274 -18.76218,-0.84614 -27.74464,-3.46397 -4.49438,-1.30984 -9.30477,-0.83787 -14.23225,0.32165 m -1.76292,1.55211 c -9.84722,0.27423 -19.46967,1.01967 -29.84681,2.14199 -1.47478,0.1595 -2.91022,0.28382 -4.31375,0.38006 -0.25302,-7.84767 0.6577,-16.7191 1.09492,-25.04785 0.50961,-9.70796 0.3695,-19.18428 0.92699,-28.9567 0,0 0,0 0,0 0.27894,-4.88963 0.36235,-9.58095 0.43763,-14.16871 m -0.90835,-0.10573 c 0.14568,-8.92527 -0.79118,-18.77343 -2.56691,-27.7692 0,0 0,0 0,0 -1.77635,-8.99891 0.7589,-20.1928 2.0848,-32.02388 1.32591,-11.83108 -0.61808,-19.35748 -2.03863,-29.48481 0,-10e-6 0,-10e-6 0,-10e-6 -0.71077,-5.06722 -0.59374,-9.68661 -0.20847,-14.08468 m 3.17024,8.48386 c -0.15742,-8.74959 0.69509,-18.84022 1.88185,-27.9725 0,-10e-6 0,-10e-6 0,-10e-6 1.18718,-9.13548 0.33545,-19.69568 0.80512,-30.52075 0.46967,-10.82508 0.0629,-18.89137 0.0129,-28.10357 0,0 0,0 0,0 -0.025,-4.60933 -0.13551,-9.46952 -0.37617,-14.46352 m -3.30464,0.47331 c -0.53619,-9.06157 0.33157,-20.36412 0.80568,-32.52218 0,0 0,0 0,-10e-6 0.47427,-12.16231 0.18852,-18.84451 0.35824,-27.94106 0.16973,-9.09655 1.26881,-18.99835 3.58794,-28.42857 0,0 0,0 0,0 1.16037,-4.71841 1.16687,-9.23775 0.86383,-13.52044 m -4.40203,-1.11993 c -0.12364,-9.21609 0.67899,-19.02992 1.82088,-28.52046 0.67584,-5.61711 0.46705,-11.85278 0.0474,-18.68351 3.57269,-0.84257 7.04496,-1.9686 10.63831,-3.37035 8.79984,-3.4328 19.08691,0.004 28.71333,0.15869 1e-5,0 1e-5,0 1e-5,0 4.81658,0.0772 9.87454,0.22186 15.2106,0.50836 m -46.74458,3.24227 c 10.33216,-0.59541 20.04215,0.92266 31.54624,2.88119 0,10e-6 0,10e-6 0,10e-6 11.50811,1.95922 19.37094,0.0387 29.54615,0.21962 10.1752,0.18094 17.94378,-1.3888 25.26021,-4.046 0,0 0,0 0,0 3.66078,-1.32953 8.63149,-1.11379 14.08066,-0.33329 m -0.82175,2.30199 c 8.82499,0.2754 20.15473,-0.64857 31.91345,-1.83223 11.76283,-1.18406 17.68189,-0.28034 24.48834,-0.69443 6.80644,-0.41409 19.89568,0.67373 31.13052,2.16962 0,0 0,0 0,0 5.62136,0.74848 10.50915,0.68112 15.30721,0.37596 m 1.03983,-0.7021 c 9.4255,0.72818 18.67459,-0.74899 27.48469,-2.13738 0,0 0,-10e-6 10e-6,-10e-6 8.81318,-1.38888 18.78154,-0.13971 27.75864,-0.26787 8.97711,-0.12816 19.35131,-0.34988 29.50552,-0.91787 10e-6,0 10e-6,0 10e-6,0 5.08066,-0.2842 9.8805,-0.27753 14.635,-0.18073 m 1.1839,3.02312 c 3.9948,0.2192 8.1401,0.13989 12.4196,-0.11214 0.1967,5.17497 0.6441,10.02744 1.3011,14.87833 1.1383,8.40391 -0.9114,18.75572 -1.9366,27.70712 -1.0252,8.9514 -0.3092,19.25514 -0.1288,29.23056 0,10e-6 0,10e-6 0,10e-6 0.09,4.9912 -0.2148,9.68234 -0.7492,14.24585 m -3.0425,3.59816 c 0.078,8.75936 -0.5262,18.48406 -0.7789,26.90574 0,0 0,0 0,0 -0.2527,8.42463 -2.0624,18.8602 -5.3897,28.01181 -3.3273,9.15162 0.985,20.01747 3.7306,31.50556 0,0 0,1e-5 0,1e-5 1.3737,5.74807 1.0503,10.27137 0.1629,14.30748 m -1.2537,-6.55865 c -0.6044,8.88824 -0.7895,19.13024 -1.5907,28.83529 -0.8015,9.70845 -0.083,20.09365 0.5415,31.70869 0.625,11.61505 -0.2748,18.16666 -0.048,25.96025 0,0 0,0 0,0 0.1137,3.89953 -0.264,8.67171 -0.9448,13.67071 m 0.402,7.56643 c -0.929,9.64474 -1.0462,18.42566 -2.3418,26.72199 -1.2961,8.29924 0.1957,19.21601 1.3946,29.06806 1.1989,9.85206 -0.4171,18.73399 -0.4538,27.64619 0,0 0,0 0,0 -0.018,4.45922 -0.2665,9.15028 -0.6588,13.84674 m -1.3059,-1.6078 c -0.5663,5.7321 -0.5551,11.46185 -0.3809,17.39592 -3.75477,0.42278 -7.42442,0.95232 -11.16553,1.66668 -8.91983,1.70325 -19.14406,-0.28605 -28.86184,-1.73741 -9.71777,-1.45136 -18.06384,1.13034 -25.61183,2.5079 -3.77664,0.68926 -8.47567,0.7065 -13.35655,0.45746 m -9.38193,0.62381 c -9.42775,-0.0235 -18.89013,0.58377 -28.141,0.8423 0,0 0,0 0,0 -9.25411,0.25862 -17.86126,0.1009 -25.00246,-0.59991 -7.1412,-0.70081 -19.65491,0.0159 -30.38527,-0.84367 0,0 0,0 0,0 -5.36893,-0.43009 -10.31876,0.0189 -15.30581,0.914 m 0.87549,1.97543 c -9.09671,0.3073 -19.09875,-0.0144 -28.75072,-0.94554 -9.65534,-0.9315 -18.85826,0.24301 -28.00871,-0.15304 -9.15044,-0.39606 -18.50482,0.72747 -26.93215,1.26884 -4.21661,0.27087 -9.27935,0.28224 -14.77621,0.1247 m -1.90917,0.55042 c -9.46148,0.0786 -18.78845,1.59499 -27.79565,3.86876 -0.3685,0.093 -0.73799,0.18008 -1.10836,0.26158 0.50654,-7.51151 0.52712,-18.07969 1.42819,-26.46913 0.9395,-8.74717 -0.66345,-20.06882 -2.18082,-31.63794 0,0 0,0 0,0 -0.75921,-5.78861 -0.40366,-10.36448 0.47405,-14.49433 m 4.72218,4.30136 c -0.077,-10.1961 -0.27926,-18.96926 -1.04323,-28.35692 0,0 0,0 0,-1e-5 -0.76425,-9.39094 0.64406,-19.35916 1.71918,-29.48481 1.07512,-10.12565 -0.83232,-18.76557 -2.66832,-27.71763 0,0 0,0 0,0 -0.91864,-4.47917 -0.79922,-9.28346 -0.35823,-14.20069 m 1.28876,-2.53253 c -0.15211,-9.83826 -1.3565,-19.51961 -4.27285,-30.00261 0,0 0,0 0,0 -2.91737,-10.48667 0.10341,-19.00431 0.11449,-28.42857 0.0111,-9.42426 1.36401,-18.82197 3.91294,-27.90044 0,0 0,0 0,-1e-5 1.27535,-4.54241 1.09023,-9.38731 0.37531,-14.37005 m 1.14366,-0.63666 c -0.7317,-9.89893 1.02716,-19.28586 2.87777,-29.31192 0,0 0,-10e-6 0,-10e-6 1.85126,-10.02956 -0.296,-17.67092 -1.08394,-24.427 -0.78795,-6.75608 0.46944,-19.57279 1.21137,-30.15513 0,0 0,0 0,0 0.37122,-5.29488 0.35011,-10.06435 0.19242,-14.70938 m -4.78749,-1.57655 c -0.71804,-9.44631 1.24794,-19.61704 3.52775,-30.26709 1.1186,-5.22552 0.84478,-9.72203 -0.0362,-13.88891 3.90409,0.50252 7.15303,1.36073 10.62708,2.12695 6.81837,1.50382 19.45328,0.30459 29.81022,1.05244 0,0 0,0 0,0 5.18209,0.37419 10.00122,0.10525 14.77306,-0.50971 m -49.87133,0.35788 c 10.0812,0.35689 18.77594,-0.1001 27.78869,-0.16669 0,0 0,0 0,0 9.01591,-0.0666 18.6965,0.0482 27.5149,0.26025 8.8184,0.21208 20.25731,-0.0263 32.20709,0.0368 0,0 0,0 0,0 5.97907,0.0316 10.50756,-0.0135 14.50005,-0.0977 m 3.43096,-3.23468 c 9.04049,0.71536 19.03314,0.24088 28.54135,0.84857 9.51152,0.6079 18.16146,-0.73 25.8899,-2.05538 7.72843,-1.32537 18.57401,0.003 27.14927,0.15869 0,0 0,0 0,0 4.29064,0.0779 9.33197,0.30126 14.76577,0.74136 m 2.21061,2.64853 c 9.09481,-0.37249 19.38392,0.74775 29.57723,2.37314 10.19687,1.62597 18.81905,-0.89622 27.86021,-2.54287 9.04116,-1.64665 18.26249,0.71253 26.19459,2.25088 0,0 0,0 0,0 3.96883,0.76971 8.95314,0.73277 14.35753,0.48072 m 1.8882,-4.30065 c 4.3848,0.31661 8.7233,0.44086 13.0462,0.58202 -0.1602,5.37441 -0.3427,10.773 -0.4949,16.55367 0,0 0,0 0,0 -0.2794,10.61831 -1.061,19.04762 -2.3631,28.60087 -1.3021,9.55326 -0.2177,19.04369 0.1352,28.58056 0,0 0,10e-6 0,10e-6 0.1766,4.77177 0.2902,9.43127 0.5767,13.9855 m -2.0535,-4.85424 c -0.6916,10.00387 0.1937,19.70757 1.375,30.58099 0,0 0,0 0,10e-6 1.1817,10.87722 -1.2852,18.87922 -3.0538,28.09305 -1.7685,9.21384 0.4515,19.02927 2.1665,28.53994 0.8582,4.75867 0.6051,9.49869 -0.011,14.21596 m -1.5062,3.91311 c -0.7528,9.40164 -0.4292,18.74755 -0.4936,27.67693 0,10e-6 0,10e-6 0,10e-6 -0.064,8.93251 -1.537,19.28825 -3.8054,29.29149 -2.2684,10.00325 -0.2422,20.03291 0.074,31.54619 0,0 0,0 0,0 0.1584,5.76067 0.1226,10.34738 0.11,14.50612 m -1.6067,-5.37554 c -0.2724,9.35434 0.4092,18.7598 2.0449,27.71761 1.6363,8.96095 -1.4,18.46553 -3.3788,26.81338 -1.9788,8.34785 -0.3994,20.12289 -0.3928,31.83056 0,0 0,0 0,0 0,5.85794 -0.1995,10.75951 -0.5034,15.52429 m -0.4452,3.01157 c -0.3289,6.08021 -0.293,11.33312 -0.081,16.04036 -3.44362,-0.5956 -6.81741,-1.4082 -10.16877,-2.36718 -8.66877,-2.48053 -19.6011,1.01888 -30.22278,2.14227 -10.62168,1.12339 -18.60774,0.87826 -27.27746,1.71572 -4.33789,0.41902 -9.06475,0.42508 -13.85992,0.22277 m 2.47629,-1.90378 c -9.272,0.18712 -18.47628,2.12424 -26.86147,5.45301 -8.38812,3.32994 -20.20877,-0.13066 -32.0509,-1.31085 -11.84212,-1.18018 -18.91649,0.44994 -28.21183,0.45634 0,0 0,0 0,0 -4.65093,0.003 -9.50499,0.0634 -14.47619,0.071 m -2.12819,-6.32236 c -9.69134,0.12635 -18.87644,2.20175 -28.1001,5.67652 -9.22688,3.47598 -18.84898,-0.22275 -27.96808,-1.57491 -9.1191,-1.35216 -18.88332,0.72354 -28.11027,1.28915 0,0 0,0 -10e-6,0 -4.6167,0.283 -9.23631,0.59322 -13.7505,1.02703 m 2.06282,3.40652 c -8.67075,0.66604 -18.89809,0.72311 -28.12148,1.28845 -0.68009,0.0417 -1.3659,0.0835 -2.05708,0.12585 0.19196,-8.56863 -0.46385,-17.06154 -1.2681,-24.83815 -0.86825,-8.39543 -0.79203,-20.26741 -2.56675,-32.24732 0,0 0,0 0,0 -0.88799,-5.99415 -0.54989,-10.3499 0.32332,-13.99286 m 2.35472,-1.94797 c 0.45704,-9.65509 -0.15833,-18.54095 -0.65786,-27.07781 0,0 0,0 0,0 -0.49972,-8.53985 -0.29451,-18.50916 -1.06363,-26.94576 -0.76913,-8.43659 1.28932,-18.60198 3.68949,-27.20981 0,0 0,-10e-6 0,-10e-6 1.20092,-4.30693 1.28325,-9.11155 1.1224,-14.06945 m -3.15705,0.62677 c 0.27506,-9.92591 0.57077,-19.21516 1.49545,-29.08845 0,-1e-5 0,-1e-5 0,-1e-5 0.92501,-9.87675 -1.09434,-18.5013 -3.50113,-26.94575 -2.40678,-8.44445 1.38879,-19.05238 3.99418,-28.59107 10e-6,0 10e-6,0 10e-6,0 1.3036,-4.77268 1.15921,-9.74977 0.52116,-14.93682 m -3.95823,-1.16571 c -0.53545,-8.89132 1.3841,-18.54439 3.97443,-27.07861 0,0 0,0 0,0 2.59124,-8.53721 -0.90124,-19.08705 -2.89175,-28.71294 -1.99051,-9.62589 1.41086,-19.51422 4.05512,-29.95201 0,0 0,0 0,0 1.32305,-5.22255 1.11609,-9.97891 0.34783,-14.61514 m -4.43416,0.807 c 0.16604,-9.77025 -0.68909,-18.91279 -2.26224,-28.15425 -0.82352,-4.83773 -0.66512,-10.15463 -0.22783,-15.83065 4.90723,-0.65066 10.04589,-1.59934 14.88455,-2.75529 0,0 10e-6,0 10e-6,0 10.15028,-2.42489 19.91694,0.4773 31.17115,1.53994 5.63104,0.53168 10.34626,0.39421 14.79627,0.004 m -55.50951,-0.27161 c 9.16809,0.73494 17.85969,-0.7473 25.02715,-2.11708 0,0 0,0 0,0 7.16998,-1.37027 19.94769,0.0193 31.29303,0.15869 11.34534,0.13936 18.40976,0.32097 26.68208,1.11337 1e-5,0 1e-5,0 1e-5,0 4.13906,0.39648 8.93183,0.57057 13.90802,0.83517 m 3.10886,-0.53212 c 8.97961,0.24916 18.96648,0.50507 28.3586,1.66155 9.3954,1.15688 18.01197,0.0153 25.48365,0.15869 7.47168,0.14335 19.23458,-1.05188 29.1399,-3.01006 0,0 0,0 0,0 4.95613,-0.97978 9.93843,-0.80198 15.08735,-0.18638 m -2.21425,-0.97407 c 8.94677,-0.69729 20.33713,0.2267 32.44144,0.78911 0,0 1e-5,0 1e-5,0 12.10854,0.5626 19.0135,0.57183 28.44927,1.86493 9.43576,1.29311 18.41097,-0.96135 26.68208,-2.76631 10e-6,0 10e-6,0 10e-6,0 4.13845,-0.9031 8.76554,-0.93972 13.40987,-0.77086 m -2.01942,5.11666 c 6.32369,0.54303 13.63781,-0.45882 21.52501,-2.16741 0.478,2.16711 1.0667,4.19777 1.7306,6.1631 0,0 0,0 0,0 2.1756,6.44058 -0.5902,19.3433 -0.982,29.454 -0.3917,10.11071 -1.7391,19.43999 -4.3944,29.75869 0,0 0,0 0,0 -1.3286,5.16297 -1.1828,10.03419 -0.4581,14.91177 m 0.8711,-3.14114 c 0.072,8.80794 -0.5651,20.30547 -0.8804,32.34944 -0.3154,12.04817 -0.7632,17.3893 -1.4694,23.58369 -0.7063,6.19438 -0.059,19.17037 0.643,28.94618 0.3511,4.89133 0.3498,9.97184 0.3597,15.33725 m 2.4501,0.51681 c -0.07,9.39464 0.1195,18.39727 1.1306,26.64101 0,0 0,0 0,0 1.0115,8.24663 -1.1777,19.02818 -2.7085,28.51962 -1.5307,9.49145 -0.5393,19.79688 -0.8194,30.83526 -0.1402,5.52305 -0.345,10.38058 -0.6192,15.14604 m 5.1343,-2.05431 c -0.889,9.56428 -1.8707,19.34188 -4.7997,29.48458 -2.93,10.14625 -0.6819,18.82614 -1.2257,27.91025 -0.5438,9.08411 0.1636,19.57127 1.2931,30.16493 0,10e-6 0,10e-6 0,10e-6 0.5651,5.30054 0.6269,9.69123 0.7115,13.57714 m -5.0923,-4.58872 c 0.038,8.00516 0.021,16.95963 0.5312,26.6241 -1.2751,0.3124 -2.53446,0.64601 -3.77502,0.99962 -8.4194,2.39982 -18.94527,-0.27171 -28.29308,-1.73742 -9.34782,-1.46571 -18.26041,1.8968 -26.24153,4.7829 -3.99335,1.44407 -8.91588,1.36822 -14.18995,0.7441 m -2.92186,2.71378 c -9.33429,0.0167 -20.54943,0.003 -33.11766,-0.88431 -12.57263,-0.88809 -18.88975,1.13717 -28.11027,2.48759 -9.22052,1.35042 -18.52501,1.30509 -27.03371,2.9954 0,0 0,0 0,0 -4.25733,0.84575 -9.16476,0.94507 -14.34241,0.81999 m 2.95935,-8.26999 c -8.73161,-0.0427 -18.9324,2.14535 -28.2636,5.51419 -10e-6,0 -10e-6,0 -10e-6,0 -9.33447,3.37002 -19.05489,0.16827 -28.61808,-0.39678 -9.56319,-0.56506 -19.95697,0.18018 -31.31964,-0.37648 -10e-6,0 -10e-6,0 -10e-6,0 -5.68532,-0.27852 -10.58683,-0.15469 -15.39944,0.0517 m 7.16368,4.03618 c -9.81336,0.32732 -19.39341,-0.36674 -29.64371,-2.00182 -3.20914,-0.51191 -6.22779,-0.65199 -9.12363,-0.59809 0.2277,-6.63155 1.04719,-12.32831 1.74253,-18.97171 1.01208,-9.6697 0.11939,-18.4856 0.17543,-26.88482 0,0 0,0 0,0 0.028,-4.20255 -0.30009,-8.77831 -0.98826,-13.30462 m -2.00098,0.22816 c 0.36954,-9.35129 0.3649,-19.06283 0.88598,-28.62187 0,0 0,0 0,0 0.52127,-9.56239 0.10944,-19.61098 0.15512,-30.25669 0.0457,-10.64572 -0.84403,-19.52262 -2.74957,-29.99263 0,0 0,-10e-6 0,-10e-6 -0.95343,-5.23867 -1.00451,-9.90845 -0.89179,-14.36768 m 3.54858,-2.12121 c -0.4354,-9.29705 -0.52977,-18.81594 -1.77411,-27.91099 0,-10e-6 0,-10e-6 0,-10e-6 -1.24477,-9.09824 0.77752,-18.12742 2.12544,-25.80825 1.34791,-7.68084 0.389,-19.23168 0.96762,-29.13951 0,0 0,0 0,0 0.2895,-4.95738 0.15729,-9.68808 -0.20334,-14.33708 m -6.19818,-2.13104 c 0.57895,-8.85738 0.19847,-18.33626 0.39826,-26.42864 0,0 0,-10e-6 0,-10e-6 0.19985,-8.09521 1.3638,-19.54178 3.89262,-30.05356 2.52881,-10.51179 -1.03978,-18.55229 -3.31832,-27.08794 0,-1e-5 0,-1e-5 0,-1e-5 -1.14007,-4.27081 -0.92194,-9.42912 -0.22368,-15.1043 m 3.36927,-1.48629 c 0.80297,-9.42501 1.57558,-18.15341 4.52146,-25.89992 2.24719,-5.90922 0.95087,-14.2183 -0.0663,-22.56311 1.92913,-0.34703 3.88533,-0.69752 5.98399,-0.9801 8.83858,-1.19009 17.83038,-0.78796 24.89459,-2.2585 0,0 0,0 0,0 3.53458,-0.73578 8.56993,-0.70568 14.17959,-0.44613 m -45.10727,4.66277 c 8.89872,0.55939 19.26333,-0.47785 29.23212,-1.28409 0,0 0,0 10e-6,0 9.97228,-0.80653 18.58782,0.5526 27.16958,1.76338 8.58176,1.21077 18.96449,-0.93753 28.30709,-2.68506 0,-10e-6 0,-10e-6 0,-10e-6 4.67457,-0.87438 9.66378,-0.9819 14.89672,-0.96246 m 3.84811,3.62061 c 10.29701,-0.84648 18.09848,-0.47393 25.71659,-1.28261 7.62077,-0.80897 20.12386,0.15664 31.82115,0.58525 11.69729,0.42861 18.84675,0.48157 27.98208,1.58056 10e-6,0 10e-6,0 10e-6,0 4.57087,0.54988 9.07778,0.58554 13.37594,0.53663 m 1.24393,-6.49064 c 8.8446,-0.51439 19.21643,0.80251 29.1103,2.5358 9.89733,1.73389 18.61498,-0.73088 27.27115,-2.07569 8.65617,-1.34481 18.79169,0.24852 27.77896,0.86963 0,0 0,0 0,0 4.49678,0.31077 9.39461,0.37302 14.48901,0.43278 m -0.82275,4.09574 c 5.6708,0.40251 11.5054,-0.0839 17.7064,-1.03502 0.4294,3.3635 1.06,6.47187 1.9741,9.4977 0,0 0,0 0,0 2.1485,7.1119 -1.3647,18.7279 -3.2975,27.60556 -1.9328,8.87767 0.4206,19.47378 2.0852,29.88057 0.8329,5.20704 0.6923,10.09767 0.3011,15.00191 m -1.9603,-1.19893 c -0.2394,9.86177 -0.7894,19.46956 -1.5707,29.87021 -0.7816,10.40428 0.1923,19.8878 1.3946,31.09931 1.2024,11.21151 -1.2046,17.64504 -2.8303,24.35556 -0.8134,3.35762 -1.0447,8.15594 -1.207,13.34163 m 3.0617,2.73565 c -0.3607,9.18617 -0.2753,19.90206 -0.027,31.13029 0,0 0,0 0,0 0.2485,11.23216 -1.9417,18.38035 -5.0038,26.58994 -3.0621,8.20958 0.5205,19.41865 2.3696,29.67743 0,0 0,0 0,1e-5 0.9252,5.13298 0.5894,9.82587 -0.2097,14.35735 m -0.8596,-4.86156 c 0.5109,8.96968 -0.7168,19.61963 -1.3684,30.31802 -0.6519,10.70213 -1.0125,19.59558 -2.2616,30.22588 -1.2492,10.63029 0.6629,18.01512 2.7962,25.47274 0,0 0,10e-6 0,10e-6 1.0673,3.73142 0.828,8.67721 0.1839,14.06439 m -6.0483,4.12528 c -0.5015,6.65674 -0.2219,13.67698 0.3499,20.55672 -2.26748,0.0481 -4.4959,0.0774 -6.70916,0.0633 0,0 0,0 0,0 -8.26902,-0.0528 -19.21083,0.0393 -29.08527,-0.80304 -9.87445,-0.84232 -18.96227,0.53795 -28.35403,0.7204 -4.69916,0.0913 -9.80715,0.49657 -15.27464,1.16822 m 2.5101,-0.89988 c -8.95506,-0.42878 -19.52191,0.92082 -30.03056,1.87866 0,0 0,10e-6 0,10e-6 -10.51233,0.95817 -19.85209,0.22398 -31.01496,-0.23429 -11.16287,-0.45828 -18.68113,0.48845 -27.46027,0.53758 0,0 0,0 0,0 -4.39264,0.0246 -9.03803,0.16796 -13.65927,0.33377 m -0.6704,0.32153 c -9.96827,0.53785 -18.60343,1.05822 -27.2873,2.26359 -8.68692,1.20579 -18.75705,0.70201 -27.72434,1.22821 -8.96729,0.5262 -19.04311,1.52941 -28.57746,3.70633 0,0 0,1e-5 0,1e-5 -4.77051,1.08922 -9.64087,0.99261 -14.61574,0.41629 m -0.36263,-5.36816 c -8.73162,-0.32729 -18.95562,1.06794 -28.30423,2.30512 -1.80168,0.23843 -3.5964,0.41781 -5.38043,0.55828 0.26164,-7.34326 0.71092,-15.36988 1.62116,-22.59761 0,0 0,0 0,0 1.12746,-8.95246 0.41853,-20.04099 1.06919,-31.577 0.32555,-5.77205 0.0588,-10.54247 -0.57896,-15.06614 m -0.19565,4.10163 c 0.91043,-9.87897 0.60135,-19.74092 1.61666,-30.65257 0,0 0,0 0,0 1.01567,-10.91547 -1.0649,-19.63562 -3.39957,-30.31763 -2.33467,-10.68201 0.57433,-18.72894 1.51606,-27.61607 0,0 0,0 0,0 0.4712,-4.44668 0.53234,-9.19075 0.51282,-13.99191 m -6.16399,3.23095 c -0.57682,-9.4797 0.21102,-19.0434 0.46041,-28.58112 0,0 0,0 0,0 0.24948,-9.54105 0.21764,-18.54809 0.48012,-27.06763 0.26248,-8.51954 0.49579,-19.03952 1.31293,-28.55044 0,0 0,0 0,0 0.40886,-4.7588 0.41947,-9.80887 0.31398,-15.14521 m 1.77409,-3.2325 c -0.40784,-9.0534 0.21484,-18.36175 0.46024,-26.55031 0,0 0,0 0,0 0.24549,-8.19142 0.72003,-19.48463 1.98324,-29.89107 1.26321,-10.40643 -0.64964,-18.6856 -2.1605,-27.47388 0,0 0,0 0,0 -0.75596,-4.39721 -0.50915,-9.32604 0.15065,-14.51162 m 0.41521,-1.57063 c 0.76868,-8.9188 0.87089,-19.18247 2.409,-28.96764 0.98819,-6.28666 0.75701,-12.66004 0.47952,-19.33435 3.22925,-0.32574 6.44413,-0.74485 9.8474,-1.29437 9.51282,-1.53602 17.86755,1.27741 25.05709,3.93681 0,0 0,0 0,0 3.59729,1.33063 8.40996,1.24421 13.56207,0.75854 m -46.77743,0.0689 c 8.71679,0.48554 20.0753,0.22553 31.66981,0.78787 0,0 0,0 0,0 11.59857,0.56254 18.32086,-0.42666 26.39771,-1.14131 8.07686,-0.71465 20.17877,-0.73264 31.98365,-2.05537 0,0 0,0 10e-6,0 5.90657,-0.66183 10.69898,-0.71089 15.23312,-0.62891 m -6.21964,3.5309 c 8.71648,-0.74502 19.63806,-0.38799 30.34949,-1.05927 10.71519,-0.67152 19.62926,0.73852 30.33834,2.33212 10.70909,1.5936 18.35532,-1.28432 26.47896,-3.72099 10e-6,0 10e-6,0 10e-6,-1e-5 4.06466,-1.21918 8.78767,-1.02925 13.64587,-0.32993 m 1.72714,-1.35858 c 10.35188,-0.6369 19.24418,-0.40849 29.16965,-1.0797 1e-5,0 1e-5,0 1e-5,0 9.92895,-0.67145 19.38184,0.6153 29.56646,1.9665 10.18462,1.3512 19.47839,0.62911 29.87115,2.02744 0,0 0,0 0,0 5.20001,0.69965 9.77546,0.3053 14.04976,-0.64188 m 0.22629,-4.01159 c 4.91606,-4.5e-4 9.50476,0.10906 14.01376,0.34426 -0.1911,5.23955 -0.4767,10.62822 -0.5367,16.18637 0,0 0,0 0,1e-5 -0.1151,10.66489 -0.4328,19.33029 -0.5147,29.43368 -0.082,10.10339 0.1059,18.39579 1.1103,26.61025 0.5025,4.11011 0.084,9.06552 -0.7803,14.37554 m -1.8336,0.52431 c -0.1794,9.85507 -2.0368,19.55954 -5.3083,30.11396 0,10e-6 0,10e-6 0,10e-6 -3.2725,10.55812 0.1505,18.89669 1.2525,28.154 1.102,9.2573 -0.2529,18.84157 0.034,27.95087 0.1434,4.55784 -0.074,9.46188 -0.4453,14.56055 m -0.8692,3.71123 c -0.8401,9.90208 0.4841,19.12837 2.2689,28.85454 0,0 0,0 0,0 1.7855,9.72957 -1.7789,18.35489 -4.5366,26.50868 -2.7577,8.1538 -0.3614,19.64934 -0.271,30.40869 0,0 0,0 0,0 0.045,5.38344 -0.1938,9.96986 -0.5823,14.22785 m 6.6011,-3.83685 c -0.4084,10.34875 -0.8584,19.95918 -1.7534,31.31188 -0.8953,11.35667 -1.5744,18.15597 -3.9272,25.91963 -2.3528,7.76366 -0.031,19.33672 0.704,29.43368 0,0 0,0 0,0 0.3679,5.05202 0.2609,9.77544 0.054,14.38566 m -2.9722,0.35167 c -0.1826,6.25549 -0.4879,12.30932 -0.9276,18.40017 -3.61315,0.12842 -7.27011,0.26891 -10.97301,0.46591 0,0 0,0 0,0 -10.19072,0.54218 -18.97086,-0.13466 -28.35402,-1.31085 -9.38316,-1.17619 -19.77774,0.36625 -30.77121,0.19228 0,0 0,0 0,0 -5.50058,-0.087 -10.01805,0.48404 -14.1051,1.53235 m 5.07735,4.24233 c -9.62414,1.14552 -19.43779,0.13881 -29.7861,-0.49955 0,0 0,0 -10e-6,0 -10.35192,-0.63858 -19.83373,1.15078 -30.9337,2.54852 -11.09997,1.39775 -18.15166,-0.68404 -25.91652,-2.95616 -3.88515,-1.13685 -8.59138,-1.01109 -13.45636,-0.58661 m -3.47219,-1.07339 c -8.90055,0.84852 -18.8824,0.71608 -28.08061,1.26795 -9.20144,0.55206 -19.49013,0.42691 -29.9384,0.3954 -10.44828,-0.0315 -18.50706,0.91983 -26.97277,1.87821 0,0 -1e-5,0 -1e-5,0 -4.23582,0.47952 -9.05427,0.6604 -14.05804,0.7897 m 1.71925,-0.23655 c -9.72588,-0.0167 -19.94809,0.67489 -31.30943,1.10635 -1.10189,0.0418 -2.16676,0.0795 -3.19966,0.11319 -0.9657,-8.55802 0.84317,-17.45377 1.35932,-26.41545 0.57157,-9.92381 -0.22626,-18.59292 -0.88082,-27.20982 0,0 0,0 0,0 -0.3275,-4.31147 -0.37046,-9.13936 -0.39745,-14.14336 m 0.0482,-2.95447 c -0.21768,-8.87751 1.51528,-18.12683 4.36004,-25.83956 0,0 0,0 0,0 2.84576,-7.71544 -0.55011,-19.58166 -1.83551,-30.19576 -1.28539,-10.61409 -0.26343,-19.52681 -0.96206,-29.99262 0,-10e-6 0,-10e-6 0,-10e-6 -0.34957,-5.23657 -0.26407,-9.81994 -0.0332,-14.10173 m 0.47622,7.97235 c -0.12328,-9.16194 1.20044,-18.92487 3.38494,-28.19551 0,0 0,0 0,0 2.18526,-9.27388 -0.004,-19.73204 -0.23082,-30.602 -0.22698,-10.86997 -0.90565,-18.7653 -2.93238,-27.71763 0,0 0,-1e-5 0,-1e-5 -1.01408,-4.4793 -0.82592,-9.27217 -0.22246,-14.16076 m -1.95425,-3.77107 c 0.39725,-10.01358 1.32085,-18.91953 3.79064,-28.21493 0,0 0,0 0,0 2.47065,-9.29866 -1.09002,-18.90925 -3.46051,-28.16451 -2.37049,-9.25525 1.05695,-19.30886 2.99887,-29.36294 0,0 0,0 0,0 0.97164,-5.03056 0.86079,-9.76964 0.37336,-14.41724 m 5.10829,-2.45795 c 0.91679,-9.63519 0.0253,-19.08443 -0.13022,-28.70283 -0.0851,-5.25868 -0.2781,-10.27108 -0.68852,-15.08121 3.94851,0.30864 7.7474,0.75653 11.33418,1.31852 7.90982,1.23935 19.34129,0.0157 29.44459,0.179 0,0 0,0 0,0 5.05519,0.0817 9.94722,-0.13045 14.89403,-0.55743 m -52.02618,4.70514 c 9.07464,0.51246 19.55075,0.0694 30.06474,0.32065 0,0 0,0 10e-6,0 10.51767,0.25135 17.81013,-0.40662 24.87427,-1.08037 7.06414,-0.67375 19.11791,0.18623 28.77427,0.68681 0,0 10e-6,0 10e-6,0 4.83156,0.25047 9.5618,0.25912 14.24208,0.22832 m 1.31327,-2.42394 c 9.90571,0.0314 19.12661,-1.67509 28.8045,-4.91947 9.68128,-3.24551 18.6703,1.41121 27.45397,4.34306 8.78366,2.93186 19.03619,-1.09345 28.55083,-3.15224 0,0 0,0 0,0 4.76066,-1.03012 9.60025,-1.0556 14.51311,-0.83416 m 0.53378,3.73669 c 9.27804,-0.23161 20.43841,-0.76824 32.72547,-2.19731 0,0 0,0 0,0 12.29137,-1.42958 18.59961,-0.59655 27.25084,-1.68975 8.65122,-1.0932 18.62669,-0.13403 27.31177,-0.28819 0,0 0,0 0,0 4.34559,-0.0771 9.23896,0.21991 14.36385,0.85 m 4.44102,-0.97358 c 4.3054,0.0858 8.6776,0.0782 13.0888,0.0453 -0.07,5.15338 -0.085,10.27095 -0.091,15.4673 0,0 0,1e-5 0,1e-5 -0.011,9.56903 -0.6421,19.33442 -1.1241,29.43368 -0.482,10.09926 -1.2068,19.08695 -2.8304,28.68212 0,1e-5 0,1e-5 0,1e-5 -0.8124,4.80094 -0.663,9.75261 -0.061,14.88552 m -3.1228,0.82679 c -0.9489,9.82069 -0.6127,18.7188 -1.0418,27.59525 -0.4293,8.87957 0.084,20.23759 1.0696,32.15557 0.9855,11.91797 -0.885,19.41797 -1.8757,29.67743 -0.4957,5.13333 -0.6377,9.71466 -0.6999,14.01992 m 4.3625,-0.52271 c -0.3472,8.82691 -0.2896,18.41866 -0.088,26.68223 0.2019,8.26647 -0.8424,19.0051 -1.7538,28.45869 -0.9114,9.45359 -0.9475,19.59104 -2.0585,30.20556 0,0 0,0 0,10e-6 -0.5559,5.31097 -0.8183,10.00291 -1.1038,14.48941 m -1.0626,-0.97044 c 0.3158,10.20635 0.6272,19.29133 2.6943,29.3214 2.0679,10.03359 -1.1892,19.0445 -2.7491,28.58057 -1.56,9.53606 -0.2302,18.36436 0.1149,26.50868 0,0 0,0 0,10e-6 0.1727,4.07501 -0.2558,8.8988 -1.0556,13.95346 m -2.4921,3.42423 c 0.1225,5.89074 -0.468,11.65659 -1.44157,17.33934 -4.17487,0.0116 -8.5003,-0.01 -12.89492,-0.053 -11.40764,-0.11283 -18.61675,0.5645 -27.29778,0.80165 -8.68102,0.23716 -19.34217,0.99262 -29.49152,2.06103 0,0 0,0 0,0 -5.07823,0.53458 -9.80165,0.64923 -14.40493,0.62996 m 1.53906,-0.19757 c -8.73127,1.05065 -18.45369,-0.21335 -26.8011,-1.5557 -10e-6,0 -10e-6,0 -10e-6,0 -8.35034,-1.34282 -19.62567,1.50185 -30.32433,3.58446 -10.69866,2.08262 -18.3105,-0.33189 -26.3634,-1.89991 0,0 0,0 0,0 -4.02927,-0.78456 -8.94807,-0.36761 -14.20623,0.54918 m 2.01003,-2.35212 c -9.34661,0.13206 -18.8354,0.6996 -27.95827,1.18745 0,0 -10e-6,0 -10e-6,0 -9.12607,0.48801 -19.60705,0.46746 -30.2837,0.47665 -10.67666,0.009 -19.50041,-0.21734 -29.91808,-1.5546 -10e-6,0 -10e-6,0 -10e-6,0 -5.21248,-0.66911 -9.71146,-0.30689 -13.83586,0.46976 m -0.77806,4.41013 c -9.84613,0.15176 -17.92722,-0.11762 -25.25618,-1.27039 -0.55043,-0.0866 -1.12412,-0.15304 -1.71831,-0.20125 1.54457,-9.68089 -0.0203,-16.58938 0.50694,-24.16607 0.57008,-8.19169 -0.8468,-19.63738 -2.72925,-30.33794 0,0 0,0 0,0 -0.94189,-5.35403 -0.7717,-10.12581 -0.21815,-14.75721 m -2.03972,3.04085 c 0.48431,-10.15632 0.16952,-20.07359 0.33742,-31.64759 0,-10e-6 0,-10e-6 0,-10e-6 0.16796,-11.57806 0.21107,-17.95848 0.4395,-25.28013 0.22842,-7.32164 0.1175,-19.30067 0.17543,-29.34262 0,-10e-6 0,-10e-6 0,-10e-6 0.029,-5.02449 0.21365,-9.85792 0.54951,-14.69406 m -1.08093,-0.92214 c 0.37717,-10.00077 1.60977,-19.94636 4.62347,-31.26181 0,0 1e-5,-10e-6 1e-5,-10e-6 3.01475,-11.31941 0.15703,-18.74106 0.2973,-27.677 0.14027,-8.93594 -0.26844,-18.05795 -1.00269,-25.60513 0,0 0,0 0,0 -0.36738,-3.77623 -0.2683,-8.90172 -7.2e-4,-14.63582 m 2.33311,1.90407 c 0.13887,-9.92631 -0.876,-19.79073 -2.81065,-30.7947 0,0 0,-10e-6 0,-10e-6 -1.93533,-11.00782 0.89201,-19.17602 2.49106,-28.95669 1.59904,-9.78067 0.0595,-18.16046 -0.007,-25.93013 0,0 0,0 0,0 -0.0335,-3.88755 -0.0554,-8.61105 -0.11233,-13.51374 m -0.84595,-0.35582 c 0.0987,-10.2306 -0.25647,-19.97406 -0.96217,-31.38345 -0.37039,-5.98822 -0.41004,-10.71776 -0.45207,-15.01066 4.45786,0.61771 8.91377,1.59382 13.12,2.31707 8.84901,1.52156 19.90144,-0.15955 31.15084,-0.36943 0,0 0,0 0,0 5.62864,-0.10501 10.21947,-0.25386 14.42227,-0.511 m -48.62208,-3.95806 c 10.1157,0.0457 19.80015,-0.4225 30.81521,-1.14136 0,0 0,0 0,0 11.01892,-0.71912 18.14157,0.8388 25.82897,2.65712 7.6874,1.81832 19.08616,-0.43973 28.71333,-1.20225 0,0 0,0 10e-6,0 4.81695,-0.38152 9.81308,-0.29213 15.02659,3e-5 m 1.03704,2.29354 c 10.3523,0.15381 19.83807,-0.53893 30.97747,-1.46647 0,0 0,0 0,0 11.1433,-0.92786 18.87018,0.0647 28.06334,0.30088 9.19316,0.23618 18.16546,-1.18683 25.93052,-3.41631 0,0 0,0 1e-5,0 3.88524,-1.11553 8.59145,-0.92069 13.45815,-0.23465 m 1.48803,-0.43837 c 10.10116,-0.75797 18.32832,0.43316 26.42773,1.43917 8.10225,1.00637 18.90545,0.34799 28.1649,1.19463 9.25945,0.84664 20.57785,0.43519 33.18209,1.41806 0,0 0,0 0,0 6.30654,0.49178 10.96512,0.18127 15.13152,-0.5449 m -0.2066,-0.10719 c 3.7167,-0.0718 7.3627,-0.15405 10.8689,-0.27449 -0.6696,5.51221 -1.6412,10.94193 -3.134,16.20126 -2.509,8.83935 -0.6122,18.16037 -1.0429,25.93994 -0.4307,7.77957 0.7684,20.34064 3.1009,32.48056 1.167,6.07421 0.8332,10.63014 -0.023,14.64934 m -1.1489,1.63215 c -0.4083,10.21912 -0.689,18.2224 -1.2658,26.11202 0,0 0,0 0,0 -0.5771,7.89238 -0.7274,19.51975 -1.3882,30.02275 -0.6608,10.503 0.077,19.51155 1.029,29.96181 0.4764,5.22879 0.2979,10.01186 -0.077,14.69669 m -5.6867,-4.28681 c -1.0833,8.98978 0.6142,19.35828 2.6145,29.54612 0,10e-6 0,10e-6 0,10e-6 2.001,10.19141 -1.6976,20.18186 -4.3132,31.99306 -2.6155,11.81119 0.058,18.8258 0.9478,27.93056 0,0 0,0 0,0 0.4454,4.55557 0.3329,9.0686 0.098,13.38245 m 2.203,2.57352 c -0.5441,9.72544 -1.602,17.83929 -4.0079,24.97503 -2.4067,7.13824 -0.6472,20.21707 -1.1444,32.07432 -0.4972,11.85724 -0.7575,18.34818 -1.4694,26.50868 0,0 0,0 0,0 -0.3562,4.08311 -0.3867,8.75078 -0.2603,13.4889 m -3.47139,1.12591 c -0.4572,5.18698 -0.033,10.262 0.98146,15.0632 -3.25667,-0.29858 -6.15678,-0.76259 -8.83709,-1.46803 -6.13078,-1.61358 -20.28081,0.62408 -32.29464,0.94384 -12.01383,0.31976 -19.05604,1.3747 -28.59778,3.23915 -4.7742,0.93288 -9.2199,0.84707 -13.34333,0.32796 m 6.20505,1.42325 c -9.23858,-0.38231 -19.01058,-0.26734 -28.4865,-1.69639 -9.47924,-1.42955 -19.71566,1.44091 -30.5884,3.44227 -10.87274,2.00137 -19.82175,-0.18679 -30.89308,-1.45303 0,0 -10e-6,0 -10e-6,0 -5.53954,-0.63357 -10.29558,-0.43273 -14.85069,0.0153 m 0.0745,1.7776 c -9.60317,0.67208 -18.43517,-0.29616 -26.77987,-1.79906 0,0 -10e-6,0 -10e-6,0 -8.34762,-1.50342 -19.69872,1.57626 -30.52745,3.8079 -10.82873,2.23164 -19.39574,-0.23209 -29.65402,-1.59523 0,0 -10e-6,0 -10e-6,0 -5.13273,-0.68204 -9.83768,-0.38068 -14.39012,0.27978 m 1.4216,0.71996 c -9.76557,-0.2936 -18.70933,0.92757 -27.5922,1.85821 -0.20548,0.0215 -0.41208,0.0426 -0.61978,0.0632 0.58803,-8.72764 -0.79177,-18.27084 -2.38841,-26.8555 -1.63443,-8.78787 0.59694,-19.91864 1.61762,-31.17075 0,0 0,-1e-5 0,-1e-5 0.51069,-5.62999 0.44701,-9.97898 0.16706,-13.69943 m 0.2351,-2.16002 c -0.38156,-9.53311 -0.85032,-18.08846 -2.74917,-25.717 0,0 0,0 0,0 -1.89951,-7.63121 -0.0884,-19.68329 -0.47457,-30.50044 -0.38616,-10.81715 1.09108,-19.07155 3.10043,-28.6317 1.00539,-4.78342 1.1289,-9.4243 1.10365,-13.93712 m -1.73664,-1.90248 c 0.36298,-9.97328 0.64725,-19.28043 1.73911,-29.29153 0,-10e-6 0,-10e-6 0,-10e-6 1.09225,-10.0146 -0.14744,-17.95733 -0.61675,-25.28013 -0.46931,-7.32279 0.59687,-19.43175 1.61762,-29.72856 0,0 0,-1e-5 0,-1e-5 0.51073,-5.15201 0.32529,-9.9119 -0.19863,-14.57006 m -0.45411,5.27221 c 0.91049,-8.89944 0.68509,-20.49236 1.86042,-32.9286 0,0 0,0 0,0 1.17573,-12.4406 -1.26477,-18.64011 -3.98864,-27.35201 -2.72386,-8.71189 1.13258,-18.29296 3.22231,-26.29575 0,0 0,0 0,0 1.0456,-4.0042 1.16402,-8.81022 1.11853,-13.8445 m 0.0161,-2.72601 c 0.73376,-9.64169 -0.73542,-18.72363 -2.38471,-27.62626 -0.77992,-4.20985 -0.77232,-8.9362 -0.52261,-13.98567 5.26588,-0.63286 10.833,-1.66777 15.94442,-2.83635 9.6938,-2.21621 19.14263,1.27288 28.87584,3.95713 0,0 0,0 0,0 4.87001,1.34306 9.52641,1.00042 14.05081,-0.005 m 36.29948,407.98839 -8.03894,0.25425 m -85.66142,-321.39281 0.0492,-7.17562 m -0.98272,143.43706 0.0511,-7.45686 m 234.95078,-218.49491 9.50772,-0.0418 m 60.09399,404.22974 -8.47233,0.26796"
       style="fill:#d40000;fill-opacity:0;stroke:#000000;stroke-width:1;stroke-miterlimit:4;stroke-opacity:1;stroke-dasharray:24, 24;stroke-dashoffset:0"
       sodipodi:nodetypes="ccccc" />
    <path
       style="fill:none;stroke:#000000;stroke-width:1;stroke-linecap:butt;stroke-linejoin:miter;stroke-miterlimit:4;stroke-opacity:1;stroke-dasharray:24, 24;stroke-dashoffset:0"
       d="m 366.34531,643.25308 c 10.26943,-6.26136 20.12445,-12.24543 29.87282,-18.2008 m -30.53726,14.33293 c 9.82231,-6.14408 19.92703,-12.11129 30.16487,-18.01638 m -32.07517,20.3617 c 9.65865,-6.14694 19.70294,-12.32968 29.83374,-18.66052 m -27.64258,18.82957 c 10.28041,-5.79229 20.25996,-11.78385 30.27282,-17.73752 m -32.70999,14.98326 c 9.7515,-6.1987 20.01397,-12.29278 30.58293,-18.46504 m -12.14774,9.51474 5.50519,-3.33078 m 3.42998,-2.07522 4.91162,-2.97165 m -7.80952,4.72495 5.10413,-3.08813 m -26.23458,15.87258 6.50783,-3.9374 m 4.11777,-2.49135 5.80197,-3.51034"
       id="path3796"
       inkscape:connector-curvature="0"
       sodipodi:nodetypes="cc"
       inkscape:path-effect="#path-effect3774-0-4"
       inkscape:original-d="m 365.21762,640.32443 29.88413,-18.08065" />
    <path
       inkscape:original-d="m 369.71762,639.92241 307.93795,3.67671"
       inkscape:path-effect="#path-effect3778-6-4"
       sodipodi:nodetypes="cc"
       inkscape:connector-curvature="0"
       id="path3776"
       d="m 370.84533,642.85112 c 20.52443,-0.16405 39.82234,0.48282 59.46515,0.70235 0.003,4e-5 0.007,7e-5 0.01,1.1e-4 m 0.88322,-3.47434 c 20.45405,-0.0283 39.43296,0.34757 58.34018,0.33666 0.003,0 0.006,0 0.009,-10e-6 m -0.37652,1.71283 c 20.54329,0.6416 40.20583,0.69438 60.66045,1.36289 0.003,1.1e-4 0.007,2.2e-4 0.0102,3.3e-4 m 2.78075,-0.85779 c 19.45639,0.71206 39.29052,1.29876 57.90474,3.16286 0.003,3.1e-4 0.006,6.2e-4 0.009,9.3e-4 m -3.51901,-4.76565 c 19.64417,0.24336 40.6046,0.30663 61.81402,0.1959 0.004,-2e-5 0.007,-4e-5 0.0106,-6e-5 m -0.004,3.05786 c 2.69907,-0.003 5.4024,0.004 8.11215,0.0208 m -306.1037,-2.7888 c 19.49404,0.71166 39.7945,0.10664 59.40942,-0.42308 0.003,-9e-5 0.007,-1.8e-4 0.01,-2.7e-4 m 1.36689,0.23094 c 20.58538,0.41201 40.00854,0.39142 60.01355,0.43488 0.003,10e-6 0.007,2e-5 0.01,2e-5 m -4.17165,-3.40292 c 20.45412,0.45415 39.67428,0.35733 59.01518,0.35049 0.003,0 0.006,-1e-5 0.01,-1e-5 m 4.01025,1.26214 c 19.53608,0.82451 39.48524,1.4568 58.48127,3.64092 0.003,3.7e-4 0.006,7.3e-4 0.01,0.001 m -1.89586,-1.57226 c 19.46605,-0.15479 40.16558,0.15506 60.52037,-0.26796 0.003,-7e-5 0.007,-1.4e-4 0.0102,-2.1e-4 m 2.13588,1.56608 c 2.68411,0.0646 5.35977,0.1076 8.02884,0.13042 m -308.25521,-2.16052 c 20.03278,0.52465 40.20327,1.12669 60.64664,2.67076 0.003,2.6e-4 0.007,5.2e-4 0.0102,7.7e-4 m -0.49189,-3.13275 c 19.46108,0.0983 39.32231,0.67004 57.96099,1.30691 0.003,1.1e-4 0.006,2.1e-4 0.009,3.2e-4 m 1.61247,-0.94949 c 20.15446,0.0981 39.89241,0.0655 59.69034,-0.53528 0.003,-10e-5 0.007,-2e-4 0.01,-3e-4 m 0.88499,1.27644 c 19.47988,0.71669 39.48018,1.12551 58.45317,2.67067 0.003,2.6e-4 0.006,5.1e-4 0.009,7.7e-4 m -0.17538,-1.28431 c 19.77522,0.11227 40.29476,0.44003 60.88584,0.60378 0.003,3e-5 0.007,5e-5 0.0103,8e-5 m 0.54058,-0.14395 c 2.71955,-0.033 5.42506,-0.0532 8.12026,-0.0641 m -306.14383,-4.17659 c 19.65339,0.54315 40.14828,0.40567 60.44996,0.51919 0.003,2e-5 0.007,4e-5 0.0102,6e-5 m -2.14569,3.54392 c 19.55021,0.46819 39.72437,0.34356 59.18439,0.29423 0.003,-10e-6 0.006,-2e-5 0.01,-3e-5 m 0.28616,-4.52857 c 19.90608,0.61335 39.47036,0.2598 58.43889,0.0832 0.003,-3e-5 0.006,-6e-5 0.009,-9e-5 m 3.07075,4.90047 c 19.84081,0.77272 40.38209,0.61851 61.15299,1.12376 0.003,9e-5 0.007,1.7e-4 0.0104,2.6e-4 m 0.71032,-2.5556 c 19.53144,0.24333 39.59613,0.21473 58.79065,-0.0713 0.003,-5e-5 0.006,-9e-5 0.01,-1.4e-4 m -4.60516,-1.63418 c 2.62757,0.0143 5.26315,0.0346 7.90516,0.0606 m -305.57092,-3.43432 c 20.51978,0.33732 39.92332,1.15438 59.76046,2.76929 0.003,2.7e-4 0.007,5.4e-4 0.01,8.1e-4 m -0.75829,1.77422 c 20.43072,0.0557 39.72854,-0.70868 59.22613,-2.81338 0.003,-3.5e-4 0.007,-7e-4 0.01,-0.001 m 3.63089,2.39252 c 20.34148,0.12624 38.94933,0.19447 56.83555,-0.11342 0.003,-5e-5 0.006,-1e-4 0.009,-1.5e-4 m 1.08069,1.99428 c 19.89195,0.74895 39.22622,-0.42574 57.69359,-1.9981 0.003,-2.7e-4 0.006,-5.3e-4 0.009,-7.9e-4 m 2.44115,3.01039 c 19.51308,0.45874 40.75895,0.0889 62.30627,-0.46514 0.004,-10e-5 0.007,-1.9e-4 0.0108,-2.8e-4 m -2.03532,0.0525 c 2.60831,-0.0379 5.2342,-0.0597 7.87542,-0.0689 m -110.03328,-2.10327 6.43392,0.0768 m 82.92624,0.99012 5.74022,0.0685 m -34.72189,-0.41458 5.9652,0.0712 m -217.28991,-2.59439 7.6057,0.0908 m 98.66044,1.17798 6.78076,0.081"
       style="fill:none;stroke:#000000;stroke-width:1;stroke-linecap:butt;stroke-linejoin:miter;stroke-miterlimit:4;stroke-opacity:1;stroke-dasharray:24, 24;stroke-dashoffset:0" />
    <path
       inkscape:original-d="m 366.21762,641.32443 29.88413,15.91935"
       inkscape:path-effect="#path-effect4906-7-7"
       sodipodi:nodetypes="cc"
       inkscape:connector-curvature="0"
       id="path4904"
       d="m 367.34532,644.25318 c 10.26,5.07908 20.13065,10.41891 29.89217,15.79275 m -30.55662,-19.66062 c 9.82657,5.19277 19.91865,10.55169 30.14005,15.97232 m -32.05035,-13.62701 c 9.66791,5.19001 19.69807,10.3462 29.81825,15.36656 m -27.62709,-15.1975 c 10.27065,5.5338 20.2584,10.88037 30.26796,16.2557 m -32.70513,-19.00996 c 9.75791,5.13983 19.99587,10.3781 30.52784,15.54806 m -12.17949,-5.49674 5.67887,3.02515 m 3.26565,1.73962 5.06659,2.69899 m -7.96751,-4.24432 5.26516,2.80477 m -26.41776,-14.07281 6.71315,3.57612 m 3.92358,2.0901 5.98503,3.18823"
       style="fill:none;stroke:#000000;stroke-width:1;stroke-linecap:butt;stroke-linejoin:miter;stroke-miterlimit:4;stroke-opacity:1;stroke-dasharray:24, 24;stroke-dashoffset:0" />
  </g>
</svg>
