<?xml version="1.0" encoding="UTF-8" standalone="no"?>
<!-- Created with Inkscape (http://www.inkscape.org/) -->

<svg
   xmlns:dc="http://purl.org/dc/elements/1.1/"
   xmlns:cc="http://creativecommons.org/ns#"
   xmlns:rdf="http://www.w3.org/1999/02/22-rdf-syntax-ns#"
   xmlns:svg="http://www.w3.org/2000/svg"
   xmlns="http://www.w3.org/2000/svg"
   xmlns:sodipodi="http://sodipodi.sourceforge.net/DTD/sodipodi-0.dtd"
   xmlns:inkscape="http://www.inkscape.org/namespaces/inkscape"
   width="1052.3622"
   height="744.09448"
   id="svg2"
   version="1.1"
   inkscape:version="0.48.4 r9939"
   sodipodi:docname="apl-8.svg">
  <defs
     id="defs4">
    <inkscape:path-effect
       effect="sketch"
       id="path-effect5562"
       is_visible="true"
       nbiter_approxstrokes="5"
       strokelength="100"
       strokelength_rdm="0.3;1"
       strokeoverlap="0.3"
       strokeoverlap_rdm="0.3;1"
       ends_tolerance="0.1;1"
       parallel_offset="5;1"
       tremble_size="5;1"
       tremble_frequency="1"
       nbtangents="13"
       tgt_places_rdmness="1;1"
       tgtscale="10"
       tgtlength="100"
       tgtlength_rdm="0.3;1" />
    <inkscape:path-effect
       effect="sketch"
       id="path-effect4960"
       is_visible="true"
       nbiter_approxstrokes="5"
       strokelength="100"
       strokelength_rdm="0.3;1"
       strokeoverlap="0.3"
       strokeoverlap_rdm="0.3;1"
       ends_tolerance="0.1;1"
       parallel_offset="2;1"
       tremble_size="1.3;1"
       tremble_frequency="3.5"
       nbtangents="0"
       tgt_places_rdmness="1;1"
       tgtscale="10"
       tgtlength="2"
       tgtlength_rdm="0.3;1" />
    <inkscape:path-effect
       tgtlength_rdm="0.3;1"
       tgtlength="2"
       tgtscale="10"
       tgt_places_rdmness="1;1"
       nbtangents="0"
       tremble_frequency="3"
       tremble_size="1.6;1"
       parallel_offset="1.5;1"
       ends_tolerance="0.1;1"
       strokeoverlap_rdm="0.3;1"
       strokeoverlap="0.3"
       strokelength_rdm="0.3;1"
       strokelength="100"
       nbiter_approxstrokes="6"
       is_visible="true"
       id="path-effect4958"
       effect="sketch" />
    <inkscape:path-effect
       effect="sketch"
       id="path-effect4954"
       is_visible="true"
       nbiter_approxstrokes="7"
       strokelength="100"
       strokelength_rdm="0.3;1"
       strokeoverlap="0.3"
       strokeoverlap_rdm="0.3;1"
       ends_tolerance="0.1;1"
       parallel_offset="2;1"
       tremble_size="2;1"
       tremble_frequency="2.5"
       nbtangents="0"
       tgt_places_rdmness="1;1"
       tgtscale="10"
       tgtlength="2"
       tgtlength_rdm="0.3;1" />
    <inkscape:path-effect
       effect="sketch"
       id="path-effect4839"
       is_visible="true"
       nbiter_approxstrokes="8"
       strokelength="100"
       strokelength_rdm="0.3;1"
       strokeoverlap="0.3"
       strokeoverlap_rdm="0.3;1"
       ends_tolerance="0.1;1"
       parallel_offset="1.5;1"
       tremble_size="1.6;1"
       tremble_frequency="1.5"
       nbtangents="0"
       tgt_places_rdmness="1;1"
       tgtscale="10"
       tgtlength="0"
       tgtlength_rdm="0.3;1" />
    <inkscape:path-effect
       tgtlength_rdm="0.3;1"
       tgtlength="1"
       tgtscale="10"
       tgt_places_rdmness="1;1"
       nbtangents="0"
       tremble_frequency="1.5"
       tremble_size="2;1"
       parallel_offset="2;1"
       ends_tolerance="0.1;1"
       strokeoverlap_rdm="0.2;1"
       strokeoverlap="0.3"
       strokelength_rdm="0.2;1"
       strokelength="90"
       nbiter_approxstrokes="8"
       is_visible="true"
       id="path-effect4837"
       effect="sketch" />
    <inkscape:path-effect
       tgtlength_rdm="0.3;1"
       tgtlength="1"
       tgtscale="10"
       tgt_places_rdmness="1;1"
       nbtangents="0"
       tremble_frequency="2"
       tremble_size="1.5;1"
       parallel_offset="1.3;1"
       ends_tolerance="0.1;1"
       strokeoverlap_rdm="0.3;1"
       strokeoverlap="0.3"
       strokelength_rdm="0.3;1"
       strokelength="100"
       nbiter_approxstrokes="5"
       is_visible="true"
       id="path-effect4835"
       effect="sketch" />
    <inkscape:path-effect
       effect="sketch"
       id="path-effect4586"
       is_visible="true"
       nbiter_approxstrokes="5"
       strokelength="100"
       strokelength_rdm="0.3;1"
       strokeoverlap="0.3"
       strokeoverlap_rdm="0.3;1"
       ends_tolerance="0.1;1"
       parallel_offset="5;1"
       tremble_size="5;1"
       tremble_frequency="1"
       nbtangents="12"
       tgt_places_rdmness="1;1"
       tgtscale="10"
       tgtlength="100"
       tgtlength_rdm="0.3;1" />
    <inkscape:path-effect
       effect="sketch"
       id="path-effect3855"
       is_visible="true"
       nbiter_approxstrokes="3"
       strokelength="100"
       strokelength_rdm="0.2;1"
       strokeoverlap="0"
       strokeoverlap_rdm="0;1"
       ends_tolerance="0.1;1"
       parallel_offset="1.3;1"
       tremble_size="1.3;1"
       tremble_frequency="2"
       nbtangents="0"
       tgt_places_rdmness="1;1"
       tgtscale="10"
       tgtlength="1"
       tgtlength_rdm="0.3;1" />
    <inkscape:path-effect
       tgtlength_rdm="0.3;1"
       tgtlength="0"
       tgtscale="10"
       tgt_places_rdmness="1;1"
       nbtangents="0"
       tremble_frequency="1.5"
       tremble_size="1.6;1"
       parallel_offset="1.5;1"
       ends_tolerance="0.1;1"
       strokeoverlap_rdm="0.3;1"
       strokeoverlap="0.3"
       strokelength_rdm="0.3;1"
       strokelength="100"
       nbiter_approxstrokes="8"
       is_visible="true"
       id="path-effect3845"
       effect="sketch" />
    <inkscape:path-effect
       effect="sketch"
       id="path-effect3841"
       is_visible="true"
       nbiter_approxstrokes="8"
       strokelength="90"
       strokelength_rdm="0.2;1"
       strokeoverlap="0.3"
       strokeoverlap_rdm="0.2;1"
       ends_tolerance="0.1;1"
       parallel_offset="2;1"
       tremble_size="2;1"
       tremble_frequency="1.5"
       nbtangents="0"
       tgt_places_rdmness="1;1"
       tgtscale="10"
       tgtlength="1"
       tgtlength_rdm="0.3;1" />
    <inkscape:path-effect
       effect="sketch"
       id="path-effect3837"
       is_visible="true"
       nbiter_approxstrokes="5"
       strokelength="100"
       strokelength_rdm="0.3;1"
       strokeoverlap="0.3"
       strokeoverlap_rdm="0.3;1"
       ends_tolerance="0.1;1"
       parallel_offset="1.3;1"
       tremble_size="1.5;1"
       tremble_frequency="2"
       nbtangents="0"
       tgt_places_rdmness="1;1"
       tgtscale="10"
       tgtlength="1"
       tgtlength_rdm="0.3;1" />
    <inkscape:path-effect
       effect="sketch"
       id="path-effect3810"
       is_visible="true"
       nbiter_approxstrokes="5"
       strokelength="100"
       strokelength_rdm="0.3;1"
       strokeoverlap="0.3"
       strokeoverlap_rdm="0.3;1"
       ends_tolerance="0;1"
       parallel_offset="1;1"
       tremble_size="1;1"
       tremble_frequency="1"
       nbtangents="0"
       tgt_places_rdmness="1;1"
       tgtscale="10"
       tgtlength="1"
       tgtlength_rdm="0.3;1" />
    <inkscape:path-effect
       effect="sketch"
       id="path-effect3808"
       is_visible="true"
       nbiter_approxstrokes="3"
       strokelength="100"
       strokelength_rdm="0.3;1"
       strokeoverlap="0.3"
       strokeoverlap_rdm="0.3;1"
       ends_tolerance="0.1;1"
       parallel_offset="1;1"
       tremble_size="1;1"
       tremble_frequency="1"
       nbtangents="0"
       tgt_places_rdmness="1;1"
       tgtscale="10"
       tgtlength="2"
       tgtlength_rdm="0.3;1" />
    <inkscape:path-effect
       effect="sketch"
       id="path-effect3800"
       is_visible="true"
       nbiter_approxstrokes="3"
       strokelength="100"
       strokelength_rdm="0.3;1"
       strokeoverlap="0.3"
       strokeoverlap_rdm="0.3;1"
       ends_tolerance="0.1;1"
       parallel_offset="2;1"
       tremble_size="2;1"
       tremble_frequency="1"
       nbtangents="5"
       tgt_places_rdmness="1;1"
       tgtscale="10"
       tgtlength="2"
       tgtlength_rdm="0.3;1" />
    <inkscape:path-effect
       effect="sketch"
       id="path-effect3796"
       is_visible="true"
       nbiter_approxstrokes="5"
       strokelength="100"
       strokelength_rdm="0.3;1"
       strokeoverlap="0.3"
       strokeoverlap_rdm="0.3;1"
       ends_tolerance="0.1;1"
       parallel_offset="2;1"
       tremble_size="1;1"
       tremble_frequency="1"
       nbtangents="5"
       tgt_places_rdmness="1;1"
       tgtscale="10"
       tgtlength="2"
       tgtlength_rdm="0.3;1" />
    <inkscape:path-effect
       tgtlength_rdm="0.3;1"
       tgtlength="4"
       tgtscale="10"
       tgt_places_rdmness="1;1"
       nbtangents="5"
       tremble_frequency="1"
       tremble_size="3;1"
       parallel_offset="2;1"
       ends_tolerance="0.1;1"
       strokeoverlap_rdm="0.3;1"
       strokeoverlap="0.3"
       strokelength_rdm="0.3;1"
       strokelength="100"
       nbiter_approxstrokes="5"
       is_visible="true"
       id="path-effect3790"
       effect="sketch" />
    <inkscape:path-effect
       tgtlength_rdm="0.3;1"
       tgtlength="2"
       tgtscale="10"
       tgt_places_rdmness="1;1"
       nbtangents="5"
       tremble_frequency="1"
       tremble_size="3;1"
       parallel_offset="3;1"
       ends_tolerance="0.1;1"
       strokeoverlap_rdm="0.3;1"
       strokeoverlap="0.3"
       strokelength_rdm="0.3;1"
       strokelength="100"
       nbiter_approxstrokes="5"
       is_visible="true"
       id="path-effect3788"
       effect="sketch" />
    <inkscape:path-effect
       tgtlength_rdm="0.3;1"
       tgtlength="2"
       tgtscale="10"
       tgt_places_rdmness="1;1"
       nbtangents="5"
       tremble_frequency="1"
       tremble_size="3;1"
       parallel_offset="2;1"
       ends_tolerance="0.1;1"
       strokeoverlap_rdm="0.3;1"
       strokeoverlap="0.3"
       strokelength_rdm="0.3;1"
       strokelength="100"
       nbiter_approxstrokes="4"
       is_visible="true"
       id="path-effect3786"
       effect="sketch" />
    <inkscape:path-effect
       effect="sketch"
       id="path-effect3771"
       is_visible="true"
       nbiter_approxstrokes="4"
       strokelength="100"
       strokelength_rdm="0.3;1"
       strokeoverlap="0.3"
       strokeoverlap_rdm="0.3;1"
       ends_tolerance="0.1;1"
       parallel_offset="2;1"
       tremble_size="3;1"
       tremble_frequency="1"
       nbtangents="5"
       tgt_places_rdmness="1;1"
       tgtscale="10"
       tgtlength="4"
       tgtlength_rdm="0.3;1" />
    <inkscape:path-effect
       effect="sketch"
       id="path-effect3767"
       is_visible="true"
       nbiter_approxstrokes="5"
       strokelength="100"
       strokelength_rdm="0.3;1"
       strokeoverlap="0.3"
       strokeoverlap_rdm="0.3;1"
       ends_tolerance="0.1;1"
       parallel_offset="3;1"
       tremble_size="3;1"
       tremble_frequency="1"
       nbtangents="5"
       tgt_places_rdmness="1;1"
       tgtscale="10"
       tgtlength="2"
       tgtlength_rdm="0.3;1" />
    <inkscape:path-effect
       effect="sketch"
       id="path-effect3765"
       is_visible="true"
       nbiter_approxstrokes="5"
       strokelength="100"
       strokelength_rdm="0.3;1"
       strokeoverlap="0.3"
       strokeoverlap_rdm="0.3;1"
       ends_tolerance="0.1;1"
       parallel_offset="2;1"
       tremble_size="3;1"
       tremble_frequency="1"
       nbtangents="5"
       tgt_places_rdmness="1;1"
       tgtscale="10"
       tgtlength="4"
       tgtlength_rdm="0.3;1" />
    <inkscape:path-effect
       effect="sketch"
       id="path-effect3763"
       is_visible="true"
       nbiter_approxstrokes="4"
       strokelength="100"
       strokelength_rdm="0.3;1"
       strokeoverlap="0.3"
       strokeoverlap_rdm="0.3;1"
       ends_tolerance="0.1;1"
       parallel_offset="2;1"
       tremble_size="3;1"
       tremble_frequency="1"
       nbtangents="5"
       tgt_places_rdmness="1;1"
       tgtscale="10"
       tgtlength="2"
       tgtlength_rdm="0.3;1" />
    <inkscape:path-effect
       effect="sketch"
       id="path-effect3761"
       is_visible="true"
       nbiter_approxstrokes="4"
       strokelength="100"
       strokelength_rdm="0.3;1"
       strokeoverlap="0.3"
       strokeoverlap_rdm="0.3;1"
       ends_tolerance="0.1;1"
       parallel_offset="3;1"
       tremble_size="3;1"
       tremble_frequency="1"
       nbtangents="5"
       tgt_places_rdmness="1;1"
       tgtscale="10"
       tgtlength="5"
       tgtlength_rdm="0.3;1" />
    <inkscape:path-effect
       effect="sketch"
       id="path-effect3998"
       is_visible="true"
       nbiter_approxstrokes="5"
       strokelength="100"
       strokelength_rdm="0.3;1"
       strokeoverlap="0.3"
       strokeoverlap_rdm="0.3;1"
       ends_tolerance="0.1;1"
       parallel_offset="4;1"
       tremble_size="4;1"
       tremble_frequency="1"
       nbtangents="13"
       tgt_places_rdmness="1;1"
       tgtscale="10"
       tgtlength="100"
       tgtlength_rdm="0.3;1" />
  </defs>
  <sodipodi:namedview
     id="base"
     pagecolor="#ffffff"
     bordercolor="#666666"
     borderopacity="1.0"
     inkscape:pageopacity="0.0"
     inkscape:pageshadow="2"
     inkscape:zoom="1"
     inkscape:cx="341.56382"
     inkscape:cy="422.64964"
     inkscape:document-units="px"
     inkscape:current-layer="layer1"
     showgrid="false"
     inkscape:window-width="3436"
     inkscape:window-height="1404"
     inkscape:window-x="1680"
     inkscape:window-y="16"
     inkscape:window-maximized="0" />
  <metadata
     id="metadata7">
    <rdf:RDF>
      <cc:Work
         rdf:about="">
        <dc:format>image/svg+xml</dc:format>
        <dc:type
           rdf:resource="http://purl.org/dc/dcmitype/StillImage" />
        <dc:title></dc:title>
      </cc:Work>
    </rdf:RDF>
  </metadata>
  <g
     inkscape:label="Layer 1"
     inkscape:groupmode="layer"
     id="layer1"
     transform="translate(0,-308.2677)">
    <path
       style="fill:none;stroke:#000000;stroke-width:1px;stroke-linecap:butt;stroke-linejoin:miter;stroke-opacity:1"
       d="m 248.00092,247.3728 c 0.70972,26.26972 0.095,53.41144 -0.47721,80.35733 m -1.08567,-23.96716 c -0.28571,23.67834 0.13799,47.808 0.81763,72.02349 m -3.2084,-13.24448 c -0.64259,24.45622 -0.2355,48.82372 0.17556,72.69811 -0.0838,0.11248 -0.16768,0.22495 -0.25152,0.33739 m 2.94368,-15.35802 c 0.14845,5.52415 0.25829,11.02237 0.34141,16.50327 -15.15504,21.49635 -30.93928,42.58503 -45.99469,64.25137 m 12.33138,-25.8115 c -12.55052,16.27409 -24.13964,32.74044 -35.18128,49.04299 m 67.66679,-277.5043 c -0.47816,25.95109 0.42474,50.33749 1.87147,73.92381 m -4.23865,-16.3063 c -0.4373,24.90163 0.34881,49.63527 1.61866,74.20626 m 2.60039,-17.90192 c 0.28509,23.27449 -0.26584,47.27424 -1.23908,71.80274 m 0.6063,-13.67149 c 0.0924,5.78011 0.14432,11.51477 0.16407,17.2095 -14.71567,20.05488 -30.0468,39.34614 -45.29963,58.33758 m 15.9991,-21.75216 c -14.43064,19.91389 -28.07694,39.2913 -41.39152,59.16527 M 247.1572,242.89652 c 0.80872,27.63329 0.30572,54.777 0.11225,81.89673 m -2.95601,-23.18445 c 0.85783,30.48403 0.11404,59.64135 -0.16278,88.60949 m -1.01696,-21.53225 c 0.49453,21.87944 0.66507,44.42488 1.14622,67.79864 -3.48117,5.37601 -6.93786,10.81731 -10.35603,16.32747 m 12.99841,-21.53493 c -0.0202,0.90597 -0.0399,1.81172 -0.0592,2.7173 -14.50565,19.72045 -28.69498,39.31779 -43.38026,59.82881 m 10.77916,-15.10536 c -11.84325,15.88609 -24.05906,32.1582 -36.56047,48.46259 m 67.76,-281.60427 c -0.30771,31.07551 0.62213,61.7279 2.02237,93.24771 m 0.3216,-25.36168 c 0.37995,32.83738 0.0459,63.66256 0.0892,93.59933 m -1.15958,-27.83205 c 0.0339,18.32093 0.13664,36.68018 0.34176,55.3064 -8.48235,12.22691 -16.89775,24.62841 -25.22848,37.32541 m 14.54276,-26.76713 c -16.13037,22.22534 -31.61895,43.84719 -46.26553,65.16957 m 6.51654,-12.5014 c -6.85876,9.50826 -13.73886,19.07862 -20.54401,28.64838 m 64.63999,-83.61143 -1.90482,2.59268 m -53.10706,72.28462 -1.69944,2.31313 m 19.54113,-26.59766 -1.76605,2.40379 m 44.67538,-208.06338 0,3.80313 m 0,106.68858 0,3.39063"
       id="path2985"
       inkscape:connector-curvature="0"
       transform="translate(0,308.2677)"
       inkscape:path-effect="#path-effect3763"
       inkscape:original-d="m 246.47722,236.9979 0,197.9899 -72.73098,98.99496"
       sodipodi:nodetypes="ccc" />
    <path
       style="fill:none;stroke:#000000;stroke-width:1px;stroke-linecap:butt;stroke-linejoin:miter;stroke-opacity:1"
       d="m 249.97114,445.10446 c 15.85745,21.58034 30.39043,44.03266 44.96598,66.28916 m -11.65998,-22.12735 c 6.57677,9.69183 13.33027,19.49441 20.20328,29.3637 m -56.64846,-74.39829 c 13.39782,20.25265 27.85775,40.41553 42.31545,60.07706 m -6.06876,-12.10306 c 8.81319,12.57429 17.33278,24.95317 25.80818,37.315 m -64.30305,-92.24149 c 15.45485,22.8959 32.72633,46.15201 50.73464,68.85204 M 282.829,492.22233 c 6.65257,10.25339 13.61917,20.14969 20.8093,29.77287 m -57.08614,-79.41283 c 13.62898,20.54703 28.48137,40.92607 43.81749,61.14247 m -6.5501,-16.18576 c 6.98833,9.91904 13.75408,20.0313 20.35336,30.31043 m -58.23705,-80.65523 c 17.85127,25.68877 34.53405,50.06477 51.33503,73.98817 M 284.8023,489.46448 c 7.43605,11.46527 15.12195,22.75893 22.97528,34.06717 m -22.71463,-29.24614 1.81773,2.65446 m 16.67609,24.35239 1.62174,2.36826 m -7.61974,-11.12724 1.68531,2.46108 m -45.42068,-66.32862 2.14878,3.13791 m 19.84386,28.97834 1.91572,2.79756"
       id="path2987"
       inkscape:connector-curvature="0"
       transform="translate(0,308.2677)"
       inkscape:path-effect="#path-effect3767"
       inkscape:original-d="m 244.45692,434.9878 63.6396,92.93404"
       sodipodi:nodetypes="cc" />
    <path
       style="fill:none;stroke:#000000;stroke-width:1px;stroke-linecap:butt;stroke-linejoin:miter;stroke-opacity:1"
       d="m 165.11069,273.70692 c 25.38114,9.95228 49.43781,20.77655 73.53705,31.40499 m -18.9445,-12.1555 c 8.46358,3.55293 17.03482,7.17435 25.68691,10.84266 13.39689,-6.0444 26.9923,-11.97368 40.68308,-17.87098 m -17.2539,8.63353 c 16.02834,-7.74149 32.62152,-15.53224 49.36744,-23.5301 m -152.36467,1.06519 c 27.48945,11.93725 53.8711,23.13029 80.97185,34.90458 2.4786,-1.07854 4.96337,-2.15211 7.45575,-3.21964 m -28.59327,-8.06527 c 5.73368,2.39338 11.55927,4.80499 17.46447,7.22439 20.10847,-9.35012 41.16237,-18.60764 62.65893,-28.19924 m -20.57364,12.78701 c 13.78109,-6.18126 28.06956,-12.93863 42.67936,-20.10056 m -168.39439,1.72913 c 22.47274,9.74914 46.16889,19.3303 70.34877,28.7488 m -12.79946,-7.71661 c 10.09175,4.17252 20.00482,8.50005 29.78008,12.96317 11.23087,-4.97585 22.27533,-9.76828 33.19769,-14.40784 m -12.84914,7.28745 c 18.95019,-8.29427 37.37933,-17.1704 55.67182,-26.37649 m -156.48485,-1.40222 c 26.35961,12.16026 53.87473,23.53104 81.73886,35.95838 1.2381,-0.49493 2.4769,-0.98774 3.71633,-1.47824 M 226.8986,297.3124 c 6.62197,2.78915 13.15898,5.54658 19.63775,8.27997 18.75329,-8.48813 37.00689,-17.1825 55.43251,-25.8902 m -21.38112,5.5155 c 12.90558,-5.51254 25.47617,-11.3032 37.90903,-17.26331 M 156.6488,267.2956 c 26.27534,11.06221 52.01926,23.21683 78.56486,36.80486 m -17.14189,-12.33251 c 9.04854,4.24214 18.16023,8.45482 27.2719,12.71866 12.87095,-5.54953 25.74184,-10.99443 38.42795,-16.09891 m -13.56261,4.71029 c 18.91081,-8.96445 37.42679,-17.51955 55.6426,-26.05164 m -58.80351,27.75131 5.85038,-2.67849 m 43.80093,-20.05344 5.21959,-2.38969 m -21.32272,9.76221 5.42417,-2.48336 m -123.59625,0.9119 6.99954,2.97682 m 52.75946,22.43793 6.24035,2.65394"
       id="path2989"
       inkscape:connector-curvature="0"
       transform="translate(0,308.2677)"
       inkscape:path-effect="#path-effect3765"
       inkscape:original-d="m 157.5838,267.30248 87.88327,37.37565 83.84266,-38.3858" />
    <path
       sodipodi:type="arc"
       style="fill:none;stroke:#000000;stroke-width:1;stroke-miterlimit:4;stroke-opacity:1;stroke-dasharray:none;stroke-dashoffset:0"
       id="path2991"
       sodipodi:cx="262.63965"
       sodipodi:cy="199.62225"
       sodipodi:rx="38.385796"
       sodipodi:ry="38.385796"
       d="m 302.30701,210.84924 c -1.14788,7.83514 -4.89702,14.91124 -10.37889,20.37267 -6.92832,6.9025 -16.62628,11.2284 -27.40427,11.28713 -9.49693,0.0517 -18.24912,-3.21894 -25.0894,-8.72025 m 16.66171,2.09195 c -7.807,-1.54271 -14.71908,-5.34285 -20.01471,-10.6735 -6.89674,-6.94236 -11.05334,-16.48063 -10.82489,-26.98011 0.13988,-6.42913 1.90959,-12.4726 4.92588,-17.75757 m -8.20781,18.15905 c 0.5358,-9.40261 4.549,-17.8678 10.77299,-24.23119 6.93914,-7.09455 16.63094,-11.5709 27.38263,-11.84156 6.15652,-0.15498 11.99356,1.08312 17.19058,3.39762 m -12.72525,-2.24707 c 10.55168,0.42502 19.95958,4.78065 26.80858,11.6222 7.03319,7.02554 11.35876,16.66546 11.40784,27.33351 0.0491,10.66805 -4.183,20.34854 -10.97668,27.44994 -1.25596,1.31285 -2.59946,2.53755 -4.01957,3.66412 m 9.32773,-26.73121 c -1.83758,6.75134 -5.40338,12.79853 -10.1669,17.56667 -6.83702,6.84365 -16.14747,11.0559 -26.26624,10.93778 -10.11878,-0.11812 -19.1202,-4.54906 -25.37924,-11.69227 -0.7904,-0.90206 -1.53703,-1.84736 -2.23658,-2.83271 m 17.22332,15.92485 c -5.84228,-1.80153 -11.00652,-5.005 -15.15209,-9.23774 -6.90036,-7.04545 -10.98453,-16.93404 -10.6007,-28.04516 0.36331,-10.51732 4.67147,-20.25489 11.50136,-27.79875 m -12.93158,17.54373 c 1.72001,-6.23891 5.06776,-11.82882 9.58242,-16.32778 7.00239,-6.97805 16.80694,-11.33001 27.77126,-11.421 9.18768,-0.0762 17.73735,2.84991 24.66212,7.80737 m -12.09104,-9.50028 c 7.24952,1.58946 13.6539,5.25188 18.61316,10.35572 6.86747,7.06768 10.9675,16.8942 10.64105,27.8671 -0.19852,6.6728 -2.01405,13.00483 -5.07206,18.62594 m 2.85998,-8.74022 c -1.49495,7.30769 -5.09663,13.76964 -10.14591,18.77081 -6.94072,6.87459 -16.61652,10.99234 -27.35826,10.69579 -10.74174,-0.29655 -20.51709,-4.95729 -27.64401,-12.32264 -2.45347,-2.53556 -4.59318,-5.39176 -6.35064,-8.50146 m 20.75136,15.76715 c -4.83839,-1.8045 -9.15936,-4.57049 -12.74233,-8.05776 -6.93471,-6.74948 -11.10941,-16.20472 -10.87559,-26.62888 0.23382,-10.42416 4.83621,-19.83568 12.13882,-26.50338 3.78768,-3.45837 8.30203,-6.17927 13.313,-7.91818 m -21.45276,16.49499 c 1.72129,-2.68934 3.75103,-5.16732 6.03824,-7.37878 7.13583,-6.89954 16.78057,-11.20306 27.34989,-11.25195 10.56932,-0.0489 20.06488,4.16595 26.9217,11.01981 2.87968,2.87844 5.29339,6.22215 7.12452,9.9103 m -16.27113,-17.99377 c 2.26553,1.48244 4.3622,3.17288 6.2608,5.04138 7.14103,7.02778 11.48396,16.5798 11.4396,27.02216 -0.0444,10.44236 -4.46518,19.7959 -11.53655,26.45247 -5.19362,4.88896 -11.8192,8.32253 -19.1967,9.65274 m 29.46924,-31.20365 c -0.19188,10.00367 -4.24907,19.15684 -10.69303,26.05803 -6.7963,7.27851 -16.25635,12.04302 -26.64934,12.7499 -8.55232,0.58168 -16.39842,-1.66219 -22.58193,-5.7838 m 21.55078,3.23871 c -9.22729,-0.65853 -17.46926,-4.47713 -23.68406,-10.28806 -7.11168,-6.64953 -11.56085,-15.92059 -11.78733,-26.03145 -0.12714,-5.67558 1.08718,-11.00751 3.33892,-15.68651 m -2.35235,11.99105 c 0.28752,-10.38495 4.47441,-19.67325 11.08267,-26.4271 6.8153,-6.96545 16.20787,-11.23052 26.50358,-11.18453 6.64651,0.0297 12.85389,1.85211 18.17733,5.01374 m -17.47315,-3.266 c 10.12047,0.42031 19.38841,4.78074 26.25286,11.63712 7.07597,7.06765 11.59789,16.78045 11.93545,27.55684 0.33755,10.77638 -3.56597,20.58243 -10.06961,27.8245 -0.47895,0.53333 -0.97201,1.05276 -1.4785,1.55766 m -52.15769,-59.55151 6.57189,-4.63675 m 53.34957,16.53952 2.58398,6.69439 m -18.05787,-23.06502 6.09313,4.29897 m -1.33883,59.71939 -8.15058,4.89555 m -54.20621,-33.02821 0.40915,-8.46668"
       transform="translate(-15.152288,307.25755)"
       inkscape:path-effect="#path-effect3761" />
    <path
       sodipodi:type="arc"
       style="fill:none;stroke:#000000;stroke-width:1;stroke-miterlimit:4;stroke-opacity:1;stroke-dasharray:none;stroke-dashoffset:0"
       id="path3769"
       sodipodi:cx="237.89093"
       sodipodi:cy="134.9725"
       sodipodi:rx="58.107887"
       sodipodi:ry="22.223129"
       d="m 285.60758,125.33646 c 3.01964,1.39938 5.46929,2.92951 7.36193,4.53985 3.052,2.59676 4.65703,5.4014 4.83526,8.22355 0.17823,2.82215 -1.07038,5.66155 -3.76247,8.35041 -2.69209,2.68885 -6.82974,5.22882 -12.44824,7.46302 -10.35151,4.11628 -23.94811,6.49037 -37.89797,6.98696 m 18.21079,-6.47313 c -7.31646,1.18193 -15.11224,1.80998 -22.87871,1.87739 -14.79235,0.1284 -29.47597,-1.77818 -40.73945,-5.88046 -2.21028,-0.80501 -4.20834,-1.66559 -5.99403,-2.57206 m 11.30704,7.39774 c -3.00425,-0.76634 -5.85715,-1.645 -8.52243,-2.63632 -5.6347,-2.09576 -9.93397,-4.51124 -12.92624,-7.09482 -2.99227,-2.58359 -4.67654,-5.33407 -5.04636,-8.11024 -0.36982,-2.77617 0.5758,-5.57937 2.86671,-8.28187 0.76714,-0.90497 1.68525,-1.79864 2.75565,-2.67624 m 103.52042,-2.57805 c 2.2269,1.25044 4.09658,2.55436 5.61381,3.89556 3.07378,2.71717 4.70174,5.58774 4.90473,8.46517 0.203,2.87743 -1.01796,5.76256 -3.66471,8.49435 -2.64674,2.73178 -6.72169,5.30844 -12.23876,7.56107 -11.03412,4.50525 -25.76375,6.85172 -40.46259,7.15773 -4.32901,0.0901 -8.65429,0.004 -12.88138,-0.25664 m 23.35554,-4.26957 c -4.66343,0.40662 -9.40461,0.60401 -14.11172,0.58884 -14.83491,-0.0478 -29.30557,-2.21487 -40.2713,-6.60935 -5.23963,-2.09977 -9.22126,-4.52149 -11.95491,-7.11212 -2.73366,-2.59064 -4.22133,-5.34855 -4.40867,-8.13278 -0.0986,-1.46545 0.16475,-2.93869 0.80445,-4.40163 m 9.87987,20.18665 c -2.56479,-1.24505 -4.69676,-2.59771 -6.40305,-4.01885 -3.01135,-2.50808 -4.69928,-5.22637 -5.06763,-7.98147 -0.36835,-2.75511 0.58356,-5.54814 2.89481,-8.25682 2.07337,-2.4299 5.24178,-4.793 9.55085,-7.02088 m 88.22705,-1.43607 c 3.4652,1.64056 6.26354,3.42788 8.36848,5.30461 2.9666,2.64497 4.55396,5.468 4.73208,8.30153 0.17812,2.83352 -1.05161,5.67712 -3.67458,8.35581 -2.62296,2.67869 -6.63804,5.19253 -12.00922,7.36274 -8.15153,3.29361 -18.23963,5.31959 -28.75435,6.0599 m 19.15345,-3.54279 c -8.32672,1.7643 -17.71236,2.76337 -27.26363,3.00177 -15.0613,0.37593 -30.5352,-1.13231 -42.63114,-4.79413 -0.22658,-0.0686 -0.45118,-0.13771 -0.67381,-0.20735 m 14.84867,5.08378 c -4.78074,-0.90212 -9.32107,-2.12148 -13.44691,-3.64693 -5.5045,-2.03518 -9.77935,-4.4338 -12.77165,-7.01092 -2.99231,-2.57712 -4.70249,-5.33236 -5.10439,-8.11569 -0.4019,-2.78332 0.50321,-5.5969 2.72374,-8.3185 1.02788,-1.25981 2.33752,-2.50001 3.92966,-3.7087 m 99.34298,-4.82533 c 2.14447,1.27504 3.95482,2.60189 5.42467,3.96472 2.96218,2.74651 4.53933,5.63906 4.70515,8.53797 0.16582,2.89892 -1.07905,5.80571 -3.72911,8.56858 -2.65007,2.76287 -6.70448,5.37928 -12.14034,7.69129 -10.87172,4.62403 -25.17972,7.15042 -39.47625,7.76105 -2.87189,0.12266 -5.74433,0.16804 -8.59061,0.1369 m 22.68324,0.35153 c -5.00249,0.64971 -10.2288,1.00307 -15.50966,1.05986 -14.67104,0.15775 -29.76258,-1.97628 -41.45585,-6.32126 -5.58726,-2.07612 -9.90194,-4.47403 -12.91515,-7.03956 -2.99668,-2.55145 -4.70739,-5.26871 -5.11797,-8.01089 m 11.21964,10.44276 c -3.68097,-1.60215 -6.65736,-3.40905 -8.89405,-5.33323 -2.91213,-2.50526 -4.57015,-5.20853 -4.9267,-7.94457 -0.35656,-2.73603 0.58853,-5.50534 2.85511,-8.17053 0.66329,-0.77993 1.43958,-1.55109 2.329,-2.31031 m 32.9635,32.23142 -6.33159,-1.14545 m -27.45027,-26.48278 4.30984,-3.79211 m -3.12057,19.0896 -3.48579,-4.84127 m 116.58209,-3.16487 -3.12753,6.93351 m -51.42303,14.93581 -6.78113,0.0394"
       transform="matrix(-0.99996799,-0.00800119,0.00800119,-0.99996799,481.7482,611.59626)"
       sodipodi:start="5.4763107"
       sodipodi:end="10.125558"
       sodipodi:open="true"
       inkscape:path-effect="#path-effect3771" />
    <path
       sodipodi:nodetypes="ccc"
       inkscape:original-d="M 785.97768,617.50638 749.54911,809.78199 643.2467,893.34838"
       inkscape:path-effect="#path-effect3786"
       inkscape:connector-curvature="0"
       id="path3776"
       d="m 786.28703,627.76726 c -4.28091,25.80113 -9.88629,52.47425 -15.4491,78.95155 m 2.52689,-23.62796 c -4.73825,23.26026 -8.76709,46.97186 -12.53999,70.76928 m -0.33286,-12.97449 c -5.08031,23.28094 -9.17489,46.47858 -13.23536,69.2249 -0.70056,0.53288 -1.40106,1.0651 -2.10157,1.59665 m 7.42885,-14.15586 c -0.73818,4.66285 -1.50484,9.30657 -2.29245,13.93663 -20.8057,17.06685 -42.31961,33.67161 -63.06165,50.88812 m 17.59494,-20.71672 c -19.24579,14.43695 -37.18934,29.13319 -54.48463,43.53009 M 784.00114,627.06162 c -5.22883,25.50502 -9.0766,49.44535 -12.38054,72.58561 m -0.96514,-15.99893 c -5.07162,24.46648 -8.91984,48.76499 -12.28432,72.90084 m 5.71552,-17.60943 c -4.07292,22.86529 -8.98186,46.45585 -14.31311,70.57516 m 3.36104,-13.41283 c -0.84164,4.92036 -1.71364,9.80662 -2.61061,14.66236 -20.12691,15.87655 -40.93003,30.92699 -61.64999,45.65898 m 20.94328,-16.96654 c -21.74983,17.5956 -42.48006,34.49425 -62.86017,52.22648 M 785.71236,623.31624 c -4.29099,27.15446 -9.89369,53.81933 -15.18685,80.46022 m 0.81618,-22.83026 c -4.72906,29.95945 -11.05973,58.59219 -16.92344,87.03575 m 3.51037,-21.10715 c -3.43052,20.74361 -7.16267,42.10722 -10.62641,64.23666 -5.25745,4.73964 -10.48614,9.56135 -15.66606,14.47026 m 18.42259,-17.21042 c -0.0242,0.11694 -0.0483,0.23388 -0.0725,0.35082 -19.73086,15.78612 -39.09656,31.40527 -58.99084,47.99821 m 13.92602,-12.05942 c -18.37902,14.12777 -37.26441,28.78204 -56.52012,43.39894 M 783.39131,625.9373 c -5.99641,30.54136 -10.75525,60.65962 -15.0437,91.64529 m 5.01544,-24.92096 c -5.65776,32.27048 -12.02948,62.52874 -18.02397,91.8986 m 4.1279,-27.33558 c -3.18756,17.24305 -6.31196,34.52123 -9.34378,52.03539 -11.91706,9.96038 -23.761,20.10709 -35.51117,30.58105 m 20.1357,-21.35354 c -21.44756,17.07866 -42.25332,33.55384 -62.21707,49.72955 m 10.44958,-8.69447 c -11.76089,9.28651 -23.55634,18.67465 -35.18493,28.03307 m 87.15931,-66.3007 -2.52923,1.98828 m -72.80717,57.23513 -2.25653,1.77391 m 26.68996,-20.9815 -2.34498,1.84343 m 94.5189,-194.13474 -0.70795,3.73666 m -20.50509,108.22904 -0.63116,3.33137"
       style="fill:none;stroke:#000000;stroke-width:1px;stroke-linecap:butt;stroke-linejoin:miter;stroke-opacity:1" />
    <path
       sodipodi:nodetypes="cc"
       inkscape:original-d="m 747.52881,809.78199 101.6396,48.21975"
       inkscape:path-effect="#path-effect3788"
       inkscape:connector-curvature="0"
       id="path3778"
       d="m 755.25109,817.31234 c 24.93194,10.95131 48.53941,22.77462 72.18947,34.4021 m -18.22872,-14.43336 c 10.5609,4.9581 21.29716,10.02609 32.15225,15.16044 m -88.5911,-36.77629 c 21.81124,10.39795 44.68457,20.70615 67.55568,30.51299 m -11.71528,-5.48926 c 13.80587,6.65573 27.31993,13.11726 40.78932,19.56129 M 749.37452,810.06008 c 25.01855,11.69386 51.85373,23.74795 79.42574,35.24595 m -19.78548,-5.36298 c 10.73401,5.4048 21.77968,10.4552 33.04755,15.2342 M 752.47997,814.0314 c 22.05561,10.67685 45.33463,21.18573 69.09739,31.53194 m -12.21438,-9.55114 c 11.04448,5.09945 21.86806,10.39066 32.52622,15.84758 m -91.99556,-40.90896 c 28.24793,13.51109 55.32738,25.7094 82.52502,37.45511 m -21.09091,-11.61857 c 11.94604,6.11384 24.14024,12.05724 36.50102,18.01448 m -35.44934,-14.25349 2.90667,1.37898 m 26.63023,12.63389 2.59327,1.23029 m -12.1728,-5.77501 2.69491,1.27852 m -72.54568,-34.41704 3.43605,1.63013 m 31.68891,15.03381 3.06336,1.45332"
       style="fill:none;stroke:#000000;stroke-width:1px;stroke-linecap:butt;stroke-linejoin:miter;stroke-opacity:1" />
    <path
       inkscape:original-d="M 892.79854,712.81096 777.11039,673.75803 894.52448,639.65795"
       inkscape:path-effect="#path-effect3790"
       inkscape:connector-curvature="0"
       id="path3780"
       d="m 888.14137,714.57584 c -24.69191,-9.11501 -50.70829,-17.35804 -76.68209,-25.79688 m 17.30174,1.64668 c -17.44716,-5.99949 -34.48426,-11.73812 -51.31059,-17.37648 5.63384,-1.54314 11.28863,-3.07631 16.95813,-4.60455 m -18.04299,6.51141 c 23.22407,-7.18895 47.51023,-14.46767 71.79417,-22.24774 m -13.33535,5.89202 c 17.51863,-4.58926 34.6209,-9.45641 51.72793,-14.29901 m -4.05099,64.29836 c -27.2805,-9.45424 -52.74438,-18.54824 -77.47143,-28.19834 m 19.44892,10.70821 c -16.23721,-5.0916 -31.87559,-10.86166 -47.15418,-17.09186 8.70377,-2.87441 17.50433,-5.8726 26.36831,-8.9641 m -21.12631,6.18376 c 23.47066,-6.93769 48.16473,-14.04337 73.34254,-21.3117 m -13.47025,3.50007 c 17.5407,-5.13601 34.5859,-9.84207 51.32361,-14.20718 m -4.955,72.88241 c -28.60621,-9.47894 -58.3809,-20.27066 -88.03739,-31.51498 m 25.05245,6.92445 c -16.10196,-4.90383 -31.81747,-10.07169 -47.30252,-15.14655 13.34111,-3.54055 26.83227,-7.02056 40.39154,-10.25241 m -25.95099,8.06116 c 27.11748,-7.40328 52.92323,-15.29615 79.03853,-23.213 m -22.41627,2.73167 c 12.10837,-3.22279 23.95184,-6.66561 35.66903,-10.25208 m -3.79129,69.64191 C 855.69307,700.32592 829.3941,692.66314 803.8968,686.4338 m 22.01226,2.57696 c -16.50852,-4.94256 -32.83734,-9.969 -49.28972,-14.69221 7.04906,-1.77386 14.07414,-3.48889 21.04932,-5.11199 m -14.39083,2.48293 c 25.38836,-7.77858 50.14043,-14.89406 74.44622,-22.14378 m -17.7134,5.79026 c 14.50294,-3.99915 29.31368,-8.10294 44.33785,-12.15184 m 7.29848,70.35234 c -30.35121,-9.97144 -61.41637,-21.9551 -92.1043,-34.82717 m 25.75299,9.65746 c -15.94418,-5.15188 -31.82836,-10.27038 -47.62527,-15.16948 15.34823,-3.9458 30.77315,-7.69877 46.29725,-11.10564 m -30.19201,4.49264 c 26.39881,-7.49321 53.43942,-15.5899 81.32203,-23.98607 m -24.94178,9.48104 c 12.66028,-3.77284 25.29593,-7.47381 38.02683,-11.18099 m -78.3326,23.35131 6.17906,-1.79456 m 61.98863,-18.0031 5.51284,-1.60107 m -27.62128,8.02193 5.72891,-1.66382 m -3.22201,51.99556 -7.20671,-2.43277 m -75.44328,-24.62335 6.51217,-1.8913"
       style="fill:none;stroke:#000000;stroke-width:1px;stroke-linecap:butt;stroke-linejoin:miter;stroke-opacity:1"
       sodipodi:nodetypes="ccc" />
    <path
       style="fill:none;stroke:#000000;stroke-width:0.46326292px;stroke-linecap:butt;stroke-linejoin:miter;stroke-opacity:1"
       d="m 79.186994,525.78182 c 0.776715,1.21984 1.770307,2.27622 3.020262,2.75241 1.314202,0.50066 2.912678,0.35934 4.843709,-0.91072 1.933466,-1.27167 2.806578,-3.11113 2.998701,-5.16178 0.192123,-2.05065 -0.297557,-4.31193 -1.094543,-6.4232 -0.796986,-2.11126 -1.901388,-4.07242 -2.93658,-5.52385 -0.517596,-0.72571 -1.017845,-1.32402 -1.453532,-1.75004 -0.435688,-0.42602 -0.806785,-0.67975 -1.066232,-0.71631 -0.518889,-0.0731 -1.528797,-0.13609 -2.775318,-0.0272 -1.24652,0.10895 -2.729657,0.38981 -4.194776,1.0041 -1.465119,0.6143 -2.912111,1.56198 -4.086958,3.00462 -1.174846,1.44264 -2.0775,3.38022 -2.455975,5.975 -0.756946,5.18956 -0.08653,10.33608 0.735992,15.12405 0.822523,4.78798 1.798136,9.21702 1.652087,12.97285 -0.02171,0.55841 -0.04658,1.10525 -0.07453,1.6407 m -2.246248,-22.80076 c 0.193017,1.56497 0.442682,3.10481 0.708596,4.60962 0.84205,4.76518 1.84732,9.17932 1.730032,12.92635 -0.250735,8.01023 -1.153527,13.64974 -2.509991,17.46395 -0.678232,1.90711 -1.469293,3.35826 -2.345799,4.42318 -0.876506,1.06492 -1.838416,1.74362 -2.857337,2.10635 -1.018921,0.36273 -2.094772,0.40954 -3.199157,0.21071 -0.851673,-0.15334 -1.720329,-0.45275 -2.593178,-0.86612 M 78.67325,526.17757 c 0.520951,0.53541 1.112133,0.96634 1.779421,1.22622 1.29319,0.50363 2.871728,0.36489 4.776858,-0.90363 1.907532,-1.27013 2.764719,-3.11012 2.942194,-5.16283 0.177475,-2.05271 -0.323936,-4.31803 -1.128028,-6.43536 -0.804092,-2.11734 -1.910734,-4.08663 -2.945505,-5.54559 -0.517386,-0.72948 -1.016844,-1.33135 -1.451699,-1.76027 -0.434856,-0.42892 -0.805125,-0.68482 -1.064051,-0.7227 -0.51785,-0.0758 -1.525569,-0.14392 -2.768026,-0.0421 -1.242457,0.10183 -2.719642,0.37366 -4.176734,0.97742 -1.457093,0.60377 -2.894184,1.53958 -4.056122,2.9679 -1.161937,1.42832 -2.048771,3.34919 -2.403734,5.92039 -0.709922,5.14241 0.01756,10.23509 0.898281,14.96644 0.709107,3.80941 1.517191,7.38511 1.753585,10.56787 m -0.76558,-15.50214 c 0.229436,1.98853 0.558995,3.93928 0.910458,5.83318 0.891684,4.80496 1.923997,9.24379 1.821841,13.00686 -0.218386,8.04455 -1.131851,13.6878 -2.496998,17.50448 -0.682574,1.90834 -1.478686,3.35963 -2.359946,4.42442 -0.881259,1.06479 -1.847688,1.74308 -2.871219,2.10527 -1.023531,0.36219 -2.104162,0.4083 -3.214059,0.20856 -1.109897,-0.19973 -2.24907,-0.64533 -3.389848,-1.26675 -1.859291,-1.01283 -3.722853,-2.49273 -5.471041,-4.1369 M 76.19018,521.02154 c 0.172914,0.36228 0.362258,0.72248 0.568939,1.07133 0.771443,1.30209 1.784691,2.44636 3.084327,2.94873 1.299635,0.50238 2.884745,0.36256 4.801838,-0.90664 1.919511,-1.2708 2.78689,-3.11061 2.976682,-5.16251 0.189792,-2.0519 -0.297228,-4.3156 -1.085756,-6.4305 -0.788527,-2.1149 -1.878538,-4.08091 -2.899354,-5.53685 -0.510408,-0.72796 -1.003599,-1.3284 -1.433471,-1.75615 -0.429872,-0.42776 -0.796546,-0.68279 -1.053277,-0.72014 -0.513458,-0.0747 -1.512693,-0.14077 -2.744112,-0.0361 -1.231419,0.10468 -2.695057,0.38013 -4.137007,0.98811 -1.44195,0.60797 -2.862475,1.54853 -4.005035,2.98256 -1.142559,1.43403 -2.00723,3.36155 -2.33172,5.9421 -0.648978,5.16111 0.145759,10.275 1.097813,15.02848 0.952053,4.75347 2.058968,9.14699 2.026487,12.87151 -0.01387,1.59099 -0.05583,3.08688 -0.124299,4.49225 m -1.578573,-20.00336 c 0.173648,1.32497 0.383659,2.62894 0.605751,3.90613 0.833777,4.79479 1.838334,9.21149 1.723649,12.94943 -0.245171,7.99082 -1.12951,13.56585 -2.471398,17.32953 -0.670944,1.88184 -1.455267,3.3097 -2.325754,4.35385 -0.870487,1.04414 -1.827066,1.70447 -2.840685,2.04897 -1.01362,0.3445 -2.084135,0.37298 -3.182491,0.15348 -1.098356,-0.21951 -2.224559,-0.68698 -3.350601,-1.33296 -0.205604,-0.11795 -0.411205,-0.24184 -0.616635,-0.37126 M 78.638197,525.8137 c 0.529655,0.551 1.131831,0.99494 1.812818,1.26184 1.297331,0.50847 2.880069,0.37452 4.792738,-0.88628 1.91508,-1.2624 2.77863,-3.0964 2.963769,-5.1423 0.185138,-2.04589 -0.307353,-4.30375 -1.101805,-6.41352 -0.794452,-2.10978 -1.890796,-4.07146 -2.91691,-5.52424 -0.513057,-0.72638 -1.008624,-1.32553 -1.440383,-1.7523 -0.431759,-0.42677 -0.799792,-0.68114 -1.057353,-0.71808 -0.515117,-0.0739 -1.517558,-0.13845 -2.753129,-0.032 -1.235571,0.10641 -2.70429,0.38379 -4.151885,0.99365 -1.447595,0.60987 -2.874268,1.55227 -4.02396,2.98822 -1.149692,1.43595 -2.022482,3.36548 -2.35798,5.94853 -0.670992,5.16609 0.1,10.2848 1.027546,15.04438 0.752843,3.86311 1.607897,7.48985 1.874037,10.71473 m -1.285781,-18.53387 c 0.219276,1.96252 0.537335,3.89059 0.877025,5.76512 0.86554,4.77637 1.871219,9.20533 1.744712,12.96724 -0.270443,8.04204 -1.230418,13.71543 -2.631441,17.55573 -0.700511,1.92015 -1.511999,3.38265 -2.406688,4.45751 -0.894689,1.07486 -1.872633,1.76213 -2.907449,2.13329 -1.034815,0.37115 -2.126619,0.42631 -3.248967,0.23681 -0.71348,-0.12046 -1.439285,-0.33982 -2.170433,-0.63998 m 16.571546,-47.32055 c 0.349569,1.04369 0.843092,2.26501 1.506293,3.37271 0.786366,1.31341 1.811181,2.46707 3.119935,2.97747 1.308754,0.51041 2.90198,0.37808 4.825641,-0.88218 1.926088,-1.26186 2.794215,-3.09683 2.981301,-5.14495 0.187087,-2.04811 -0.307326,-4.30979 -1.108211,-6.42495 -0.800884,-2.11516 -1.908277,-4.0838 -2.945459,-5.54291 -0.51859,-0.72955 -1.019597,-1.33167 -1.45584,-1.76085 -0.436244,-0.42917 -0.80769,-0.68533 -1.067346,-0.72337 -0.519309,-0.0761 -1.529987,-0.1449 -2.777226,-0.0443 -1.247238,0.10061 -2.73103,0.37066 -4.196547,0.97207 -1.465517,0.60141 -2.912673,1.53433 -4.087364,2.95896 -1.174691,1.42463 -2.076901,3.34099 -2.454232,5.90572 -0.754659,5.12943 -0.08008,10.20706 0.746988,14.92424 0.827066,4.71717 1.807427,9.07545 1.665139,12.77092 -0.136816,3.55333 -0.40621,6.62894 -0.788167,9.27857 m 0.153284,-24.97035 c 0.144183,0.98666 0.305023,1.9612 0.472379,2.92116 0.840211,4.81947 1.845023,9.27105 1.727981,13.04487 -0.250209,8.0675 -1.149741,13.72743 -2.503504,17.55679 -0.676881,1.91469 -1.466659,3.37125 -2.342006,4.4406 -0.875347,1.06936 -1.836216,1.75149 -2.854092,2.11743 -1.017876,0.36593 -2.092666,0.41572 -3.195839,0.22005 -1.103174,-0.19567 -2.234734,-0.63682 -3.366811,-1.25332 -1.494367,-0.81379 -2.989621,-1.93312 -4.422848,-3.19734 m 17.950315,-22.77254 0.232757,3.20876 m -14.193229,23.90303 -2.432493,-1.5237 m 12.759565,-1.14142 -1.829587,2.3558 m 22.498034,-43.47424 0.828504,-3.71178 m -20.576684,2.13885 0.240244,3.38211"
       id="path3794"
       inkscape:connector-curvature="0"
       sodipodi:nodetypes="cssssc"
       inkscape:path-effect="#path-effect3796"
       inkscape:original-d="m 75.993802,517.24195 c 0,0 2.392765,13.01802 10.078249,7.97179 7.685473,-5.04624 -1.5168,-19.23504 -3.589148,-19.52702 -2.072333,-0.29202 -11.987528,-0.42092 -13.447458,9.94078 -1.459926,10.36169 2.810252,20.54213 2.571634,28.0404 -1.020219,32.05895 -12.757578,25.98371 -21.069742,17.59779" />
    <path
       style="fill:none;stroke:#000000;stroke-width:0.72445184px;stroke-linecap:butt;stroke-linejoin:miter;stroke-opacity:1"
       d="m 145.50947,643.7272 c 0.14438,0.77165 0.28798,1.54381 0.43084,2.31645 -11.52278,-1.85158 -23.21232,-3.59402 -34.99025,-5.28852 6.2965,-4.62613 12.55405,-9.23112 18.79556,-13.8329 -3.7105,-5.15809 -7.4314,-10.31409 -11.15072,-15.47737 m 10.08482,11.72555 c 0.1121,-0.0837 0.22422,-0.16735 0.33635,-0.251 -5.19172,-7.37674 -10.31772,-14.71172 -15.39375,-22.01762 12.50608,1.48068 25.11043,3.01852 37.76961,4.57855 -1.08609,2.04562 -2.17029,4.09201 -3.25289,6.13893 m -5.5729,32.72486 c -11.74242,-1.76314 -23.32897,-3.53944 -34.83294,-5.35726 6.36676,-4.72563 12.77098,-9.47008 19.19028,-14.24203 -3.00947,-4.46722 -6.01198,-8.94714 -9.01456,-13.44248 m 10.88645,14.62167 c 0.18297,-0.12777 0.3659,-0.25558 0.54878,-0.38341 -4.96286,-7.20038 -9.9951,-14.44715 -15.06097,-21.71451 12.20642,1.49625 24.34998,2.95399 36.52205,4.4391 m -9.14566,26.22378 c 0.36886,2.36393 0.74661,4.72963 1.13279,7.09671 -11.76646,-1.80865 -23.33134,-3.58436 -34.7475,-5.37199 6.53666,-4.68795 13.13887,-9.38115 19.79114,-14.09273 -3.28222,-5.09544 -6.53378,-10.20214 -9.7621,-15.32638 m 7.85117,19.529 c 0.82573,-0.60123 1.65299,-1.20419 2.48174,-1.80884 -5.20832,-7.24711 -10.30663,-14.61949 -15.31886,-22.09527 12.59555,1.24245 25.36037,2.28157 38.2285,3.17769 -0.36968,0.67861 -0.73891,1.35661 -1.10772,2.03401 m -34.05594,-1.49611 -1.84493,-2.63562 m 34.14584,2.5832 2.85065,0.33537 m -15.93041,-1.87417 2.96238,0.34852 m -5.67213,36.27306 -3.76332,-0.54882 m -1.10467,-17.84811 -1.9444,-2.7777"
       id="path3798"
       inkscape:connector-curvature="0"
       inkscape:path-effect="#path-effect3800"
       inkscape:original-d="m 143.21808,634.13631 1.46361,8.78168 -35.12672,-5.12264 19.02698,-13.90433 -15.36795,-21.95421 37.32215,4.39084 -3.65903,6.58626" />
    <path
       style="fill:none;stroke:#000000;stroke-width:0.63459444px;stroke-linecap:butt;stroke-linejoin:miter;stroke-opacity:1"
       d="m 44.456479,654.36753 c 5.577149,0.50016 11.13535,1.01279 16.678654,1.53473 0,0 5e-6,-2e-5 1.4e-5,-6e-5 0.004,-0.0162 0.851069,-3.45142 0.169343,-6.95844 -0.340864,-1.7535 -1.063432,-3.52527 -2.462394,-4.89858 -1.398962,-1.37332 -3.473967,-2.34841 -6.523178,-2.50735 -3.048876,-0.15892 -5.469328,0.51756 -7.385296,1.62189 -1.915969,1.10434 -3.327763,2.63669 -4.359517,4.19013 -1.031755,1.55344 -1.683438,3.12796 -2.077694,4.31621 -0.197128,0.59413 -0.32988,1.09168 -0.413523,1.44173 -0.04182,0.17502 -0.07137,0.31317 -0.09054,0.40808 -0.0096,0.0475 -0.01658,0.0841 -0.02123,0.10913 -0.0046,0.025 -0.0069,0.0385 -0.0071,0.0395 -7e-6,4e-5 -1.1e-5,6e-5 -1.1e-5,6e-5 7.646299,0.76318 15.282707,1.52958 22.920141,2.29068 -10e-7,0 4e-6,-2e-5 1.3e-5,-6e-5 6.9e-4,-0.003 0.02744,-0.11547 0.06679,-0.31848 m -14.008165,-3.05192 c 4.55084,0.42881 9.110391,0.86316 13.677584,1.30218 0,0 5e-6,-2e-5 1.4e-5,-5e-5 0.004,-0.0162 0.840234,-3.44577 0.160656,-6.948 -0.339789,-1.75111 -1.058916,-3.52061 -2.45138,-4.89164 -1.392464,-1.37104 -3.458525,-2.34379 -6.488082,-2.49959 -3.029224,-0.15579 -5.4292,0.52303 -7.32452,1.62958 -1.895319,1.10654 -3.285702,2.64096 -4.296326,4.1964 -1.010624,1.55543 -1.641535,3.13186 -2.01988,4.32159 -0.189173,0.59486 -0.31523,1.09304 -0.394156,1.44353 -0.03946,0.17524 -0.06714,0.31357 -0.08504,0.40859 -0.0089,0.0475 -0.01545,0.0842 -0.01976,0.10928 -0.0043,0.0251 -0.0064,0.0385 -0.0066,0.0395 -6e-6,4e-5 -9e-6,6e-5 -9e-6,6e-5 5.926035,0.59101 11.85956,1.18559 17.798294,1.78193 m -10.507408,0.25026 c 4.837651,0.4576 9.689078,0.91404 14.551558,1.36826 -1e-6,0 4e-6,-2e-5 1.3e-5,-6e-5 0.0039,-0.0162 0.829382,-3.45592 0.139822,-6.97406 -0.34478,-1.75907 -1.068784,-3.53765 -2.466306,-4.9197 -1.397523,-1.38206 -3.468928,-2.36758 -6.505883,-2.54508 -3.036622,-0.17748 -5.442295,0.48168 -7.342934,1.56901 -1.90064,1.08733 -3.295962,2.60266 -4.31126,4.13952 -1.015297,1.53686 -1.650584,3.09533 -2.032255,4.27133 -0.190835,0.588 -0.318281,1.08042 -0.398184,1.42685 -0.03995,0.17321 -0.06802,0.30993 -0.08618,0.40386 -0.0091,0.047 -0.01568,0.0832 -0.02006,0.108 -0.0044,0.0248 -0.0065,0.0381 -0.0067,0.0391 -7e-6,4e-5 -1e-5,7e-5 -1e-5,6e-5 6.534714,0.57876 13.075826,1.14845 19.616886,1.70658"
       id="path3804"
       inkscape:connector-curvature="0"
       sodipodi:nodetypes="ccsc"
       inkscape:path-effect="#path-effect3808"
       inkscape:original-d="m 37.354092,652.15822 23.07734,2.24363 c 0,0 3.365445,-13.70216 -8.814262,-14.3432 -12.179707,-0.64104 -14.263078,12.09957 -14.263078,12.09957 z" />
    <path
       style="fill:none;stroke:#000000;stroke-width:0.63459444px;stroke-linecap:butt;stroke-linejoin:miter;stroke-opacity:1"
       d="m 38.291293,653.44016 c -0.321065,2.13716 -0.326616,4.10333 0.0883,5.84966 0.414919,1.74635 1.250426,3.27277 2.611032,4.5305 1.360606,1.25774 3.246454,2.24669 5.759216,2.91989 2.512741,0.6732 5.652322,1.03074 9.517127,1.02764 M 37.90054,651.37769 c -0.348962,2.14448 -0.374684,4.11648 0.02423,5.86785 0.398922,1.7514 1.222413,3.2821 2.572672,4.54422 1.35026,1.26213 3.227223,2.25562 5.735173,2.93384 2.507929,0.67822 5.646843,1.04119 9.523453,1.04376 m -18.879014,-13.1553 c -0.359171,2.14431 -0.393317,4.11472 -0.0019,5.8637 0.391458,1.74902 1.208424,3.27662 2.551778,4.53423 1.343354,1.25762 3.212956,2.24519 5.712294,2.91355 2.499316,0.66836 5.628424,1.01759 9.49383,0.99775 m -16.57617,-14.23881 c -0.320381,2.16642 -0.324573,4.15547 0.09209,5.92123 0.416666,1.7658 1.254267,3.30835 2.617789,4.58214 1.363521,1.27379 3.253103,2.27892 5.771929,2.96872 2.518804,0.68979 5.66673,1.06417 9.545049,1.07523 M 36.767707,651.22924 c -0.353382,2.14107 -0.38152,4.10956 0.01608,5.85734 0.39761,1.74781 1.220821,3.27487 2.571847,4.53252 1.351026,1.25765 3.229761,2.24581 5.742334,2.9163 2.512551,0.67048 5.658906,1.02336 9.549924,1.01083"
       id="path3806"
       inkscape:connector-curvature="0"
       sodipodi:nodetypes="cc"
       inkscape:path-effect="#path-effect3810"
       inkscape:original-d="m 37.681845,651.862 c -1.361211,8.60732 2.40389,14.42334 17.868912,14.42334" />
    <path
       style="fill:none;stroke:#000000;stroke-width:0.50034839px;stroke-linecap:butt;stroke-linejoin:miter;stroke-opacity:1"
       d="m 112.03789,469.01257 c 0.41313,-0.21777 0.84322,-0.43508 1.28847,-0.64875 4.15273,-1.99284 9.61,-3.65842 15.04951,-2.51258 4.55721,0.95997 9.00513,0.4434 12.63921,-0.48826 m -27.88566,0.0123 c 3.93654,-1.85226 9.12341,-3.32012 14.42279,-2.20719 5.52386,1.16008 11.00941,0.21371 15.12549,-1.02343 2.29866,-0.6909 4.16903,-1.47291 5.37482,-2.03051 m -39.3476,8.41169 c 0.73833,-0.4425 1.56216,-0.89998 2.45798,-1.34375 3.96074,-1.96205 9.34093,-3.65249 14.84301,-2.60872 5.27065,0.99988 10.50263,0.0122 14.52141,-1.31201 m -27.19714,3.75615 c 4.11369,-1.7273 9.40669,-3.12393 14.71621,-1.98015 4.42073,0.95231 8.75784,0.51749 12.38292,-0.33733 m -33.88796,3.22921 c 1.13531,-0.78421 2.69529,-1.75797 4.56686,-2.66952 4.03771,-1.96655 9.53097,-3.63901 15.20154,-2.55037 5.66971,1.08847 11.33866,0.0309 15.61882,-1.32049 1.66392,-0.52537 3.11635,-1.09429 4.27115,-1.59439"
       id="path3835"
       inkscape:connector-curvature="0"
       inkscape:path-effect="#path-effect3837"
       inkscape:original-d="m 105.69159,470.32475 c 0,0 10.72499,-8.8085 21.68182,-6.51724 10.95683,2.29126 21.5389,-3.99414 21.5389,-3.99414" />
    <path
       style="fill:none;stroke:#000000;stroke-width:0.50034839px;stroke-linecap:butt;stroke-linejoin:miter;stroke-opacity:1"
       d="m 123.08599,471.93106 c 0.65451,6.63652 1.15264,13.37982 1.56175,20.17317 m -2.22602,-22.54417 c 0.35212,6.49046 0.805,13.04334 1.32815,19.63596 1e-5,0 -1e-5,8e-5 -4e-5,2.3e-4 -0.003,0.0163 -0.17938,0.88295 -1.02329,1.67255 -0.67663,0.6331 -1.78294,1.21641 -3.56112,1.27727 m 1.00498,-23.16903 c 0.28802,7.49424 0.75732,14.9702 1.3169,22.39471 10e-6,0 -1e-5,7e-5 -4e-5,2.2e-4 -0.001,0.006 -0.0286,0.13428 -0.10992,0.33294 m 1.35497,-19.57022 c 0.59098,6.19991 1.08935,12.33971 1.54932,18.45668 m -4.47782,-26.5899 c 0.38987,8.18123 1.0703,16.42252 1.95855,24.64872 1e-5,0 0,8e-5 -3e-5,2.3e-4 -0.003,0.016 -0.15726,0.87048 -0.96761,1.64044 -0.48895,0.46458 -1.21618,0.89824 -2.27991,1.0951 m 3.17608,-22.54316 c 0.33754,7.4615 0.88611,14.68238 1.58481,21.7198 1e-5,-10e-6 0,6e-5 -3e-5,2.1e-4 -0.003,0.0156 -0.16664,0.84786 -0.99054,1.58039 -0.45528,0.40478 -1.11178,0.77857 -2.04682,0.95734 m -0.21621,-24.85073 c 0.34499,7.28177 0.88581,14.53758 1.56362,21.76701 m 1.54392,-22.30529 c 0.56412,6.96277 0.99004,14.04556 1.31103,21.23291 0,1e-5 -2e-5,9e-5 -5e-5,2.5e-4 -0.004,0.0167 -0.20666,0.90021 -1.09563,1.7163 -0.56897,0.52231 -1.41914,1.01722 -2.68706,1.25002"
       id="path3839"
       inkscape:connector-curvature="0"
       inkscape:path-effect="#path-effect3841"
       inkscape:original-d="m 121.47481,462.91695 1.82773,27.30417 c 0,0 -0.71897,3.45635 -6.15171,2.84486"
       sodipodi:nodetypes="ccc" />
    <path
       inkscape:original-d="m 135.33202,463.46384 2.4978,31.30505"
       inkscape:path-effect="#path-effect3845"
       inkscape:connector-curvature="0"
       id="path3843"
       d="m 136.79562,472.40327 c 0.51922,5.0562 0.98051,10.15256 1.40078,15.2744 m -1.9098,-16.47191 c 0.49658,7.01607 1.06945,14.079 1.69599,21.17239 m -3.53594,-22.70851 c 0.36248,6.10077 0.80207,12.19329 1.29066,18.26757 m 0.79727,-14.84828 c 0.4412,4.40464 0.85125,8.78939 1.24198,13.1622 m -3.65136,-21.15107 c 0.55956,8.46442 1.3188,16.97051 2.22531,25.4699 m -0.67764,-20.6786 c 0.47655,7.4583 1.0913,14.75873 1.80823,21.93536 m -3.14862,-22.65042 c 0.37345,5.68548 0.82462,11.36081 1.33696,17.02577 m 1.16647,-16.91111 c 0.64393,7.15632 1.19367,14.39447 1.66999,21.70486"
       style="fill:none;stroke:#000000;stroke-width:0.50034839px;stroke-linecap:butt;stroke-linejoin:miter;stroke-opacity:1"
       sodipodi:nodetypes="cc" />
    <path
       transform="matrix(0.8660254,0.5,-0.5,0.8660254,638.67368,276.22266)"
       d="m 303.52593,214.00535 c -1.00468,7.72616 -4.69509,14.74952 -10.16739,20.18776 -6.91624,6.87319 -16.68187,11.21871 -27.57855,11.31659 -9.60152,0.0862 -18.48123,-3.14102 -25.44476,-8.61302 m 16.19835,-1.98476 c -7.86952,-1.59543 -14.79218,-5.41472 -20.06236,-10.74327 -6.86359,-6.93961 -10.92694,-16.4391 -10.54619,-26.87161 0.23314,-6.38812 2.10869,-12.3843 5.23992,-17.61917 m -10.79987,20.45067 c 0.3739,-9.46682 4.33014,-18.0005 10.54976,-24.45243 6.93426,-7.19329 16.68962,-11.78955 27.54247,-12.24064 6.21445,-0.25831 12.11578,0.86604 17.37586,3.0513 m -10.48741,-1.1396 c 10.73941,0.56302 20.2342,4.98803 27.13951,11.88092 7.091,7.07826 11.43597,16.74716 11.51776,27.46061 0.0818,10.71346 -4.10733,20.44996 -10.79916,27.65466 -1.23713,1.33194 -2.55978,2.57737 -3.95667,3.72653 m 6.06804,-30.29065 c -1.92252,6.68181 -5.49658,12.67637 -10.20927,17.39675 -6.76407,6.77512 -15.88384,10.93121 -25.68184,10.73434 -9.798,-0.19687 -18.40274,-4.71744 -24.2035,-11.99183 -0.73252,-0.91861 -1.42027,-1.88115 -2.05995,-2.88445 m 17.01641,18.5091 c -5.91769,-1.73368 -11.10494,-4.92826 -15.23204,-9.20064 -6.86962,-7.11144 -10.81225,-17.19479 -10.17254,-28.6467 0.60552,-10.83989 5.21944,-20.9796 12.4008,-28.99343 m -15.81985,19.13086 c 1.64384,-6.23789 4.97207,-11.83431 9.51076,-16.34685 7.03968,-6.99911 16.98297,-11.38806 28.19019,-11.53971 9.39124,-0.12708 18.18887,2.73858 25.39397,7.62432 m -10.15433,-11.08573 c 7.30914,1.56081 13.71763,5.24193 18.63886,10.40412 6.81482,7.1485 10.78388,17.12841 10.2398,28.34994 -0.33086,6.82399 -2.29751,13.32744 -5.52257,19.14028 m 2.45168,-8.27007 c -1.41517,7.36317 -4.98398,13.82912 -10.03047,18.79544 -6.93689,6.82667 -16.66559,10.82527 -27.50186,10.33102 -10.83628,-0.49426 -20.73089,-5.39783 -27.97811,-13.04245 -2.49489,-2.63169 -4.6762,-5.58842 -6.47459,-8.80306 m 22.03426,15.30069 c -4.87946,-1.70941 -9.21678,-4.39831 -12.7957,-7.81773 -6.92686,-6.61817 -11.02038,-15.97927 -10.63068,-26.28624 0.3897,-10.30696 5.19603,-19.59519 12.73607,-26.07706 3.91083,-3.36197 8.55751,-5.97011 13.70978,-7.57003 m -23.40367,16.90335 c 1.78361,-2.67104 3.86368,-5.13517 6.19135,-7.33661 7.26209,-6.86825 16.93902,-11.17647 27.48792,-11.25794 10.5489,-0.0815 19.9772,4.07892 26.77426,10.87105 2.85458,2.85252 5.24414,6.16889 7.05565,9.82903 m -18.25222,-20.003 c 2.3155,1.50987 4.4538,3.22091 6.38689,5.10382 7.27074,7.08199 11.64463,16.60439 11.57071,26.94169 -0.0739,10.3373 -4.57766,19.52892 -11.7323,25.99222 -5.25478,4.74701 -11.94318,8.02135 -19.36667,9.17797 m 29.01522,-28.09442 c -0.041,10.04107 -4.00032,19.31723 -10.34937,26.42831 -6.69618,7.49988 -16.0653,12.57642 -26.32033,13.75454 -8.43879,0.96946 -16.15355,-0.83074 -22.16199,-4.43257 m 23.08287,0.32522 c -9.3661,-0.48147 -17.70661,-4.14801 -24.01766,-9.78594 -7.22181,-6.45157 -11.77278,-15.50571 -12.15026,-25.29051 -0.21188,-5.49255 0.90944,-10.62316 3.05141,-15.07048 m -1.41501,9.55353 c 0.31143,-10.49669 4.46024,-19.82596 10.98372,-26.59208 6.72786,-6.97811 15.9845,-11.22224 26.07739,-11.14559 6.51557,0.0495 12.57807,1.89314 17.74144,5.07044 m -17.19971,-2.16519 c 10.05182,0.53533 19.34323,4.97279 26.29144,11.90755 7.16231,7.14845 11.83452,16.93881 12.39711,27.83283 0.5626,10.89402 -3.07895,20.8398 -9.28738,28.27893 -0.45721,0.54785 -0.92834,1.08211 -1.41273,1.60216 m 11.97038,-25.05062 c -0.96116,8.75367 -4.84248,16.37696 -10.62829,21.96162 -6.90383,6.66382 -16.52271,10.43178 -27.16567,9.60408 -10.64296,-0.8277 -20.2935,-6.11247 -27.25655,-14.20152 -2.80903,-3.26329 -5.18079,-6.98312 -7.00359,-11.05349 m 19.16595,19.57306 c -5.19768,-1.80833 -9.84907,-4.71444 -13.67,-8.4226 -6.87497,-6.67207 -11.06485,-15.95081 -10.89151,-26.06805 0.17333,-10.11723 4.6818,-19.14237 11.89686,-25.34015 5.14212,-4.41709 11.65801,-7.40181 18.96697,-8.29963 m -25.41174,9.49392 c 1.4223,-2.08738 3.05719,-4.03607 4.87686,-5.81746 7.07217,-6.92337 16.92414,-11.31332 27.98952,-11.53428 11.06539,-0.22097 21.26142,3.76452 28.97711,10.32724 3.72462,3.16804 6.87138,6.93628 9.26482,11.11842 m -24.39965,-6.41371 c 1.6785,1.13147 3.26086,2.38828 4.73429,3.75617 7.27453,6.75346 11.88578,16.21578 12.32667,26.67001 0.4409,10.45423 -3.35682,19.91456 -9.63108,26.66429 -5.01511,5.39515 -11.62008,9.06224 -18.87353,10.11161 m -46.05855,-55.26116 42.29537,-29.84119 m 27.5128,8.48054 18.53404,48.01679 m -44.13402,-56.49733 42.29536,29.84119 m -1.36758,36.09332 -44.2953,26.60547 m -37.18506,-22.12986 2.51158,-51.97329 m 19.29993,-14.78448 50.55046,9.99917 m -32.93302,-13.65494 42.98964,28.78056 m -5.73783,-10.34031 2.51158,51.97329 m -16.53263,16.06325 -51.7757,-3.76527 m 41.09395,8.12223 -48.85191,-16.12958 m -9.84056,-28.22627 28.78056,-42.98963 m 21.06065,88.97411 -44.90688,-25.49303 m -2.82403,-7.18725 14.91556,-49.23453"
       sodipodi:ry="38.385796"
       sodipodi:rx="38.385796"
       sodipodi:cy="199.62225"
       sodipodi:cx="262.63965"
       id="path3782"
       style="fill:none;stroke:#000000;stroke-width:1;stroke-miterlimit:4;stroke-opacity:1;stroke-dasharray:none;stroke-dashoffset:0"
       sodipodi:type="arc"
       inkscape:path-effect="#path-effect5562" />
    <text
       xml:space="preserve"
       style="font-size:40px;font-style:normal;font-weight:normal;line-height:125%;letter-spacing:0px;word-spacing:0px;fill:#000000;fill-opacity:1;stroke:none;font-family:Sans"
       x="889.28564"
       y="635.2193"
       id="text4787"
       sodipodi:linespacing="125%"><tspan
         sodipodi:role="line"
         id="tspan4789"
         x="889.28564"
         y="635.2193"
         style="font-style:normal;font-variant:normal;font-weight:normal;font-stretch:normal;font-family:Andale Mono;-inkscape-font-specification:Andale Mono">f(  )</tspan></text>
    <path
       inkscape:original-d="m 938.90773,612.35283 c 0,0 11.85519,-7.21592 22.38194,-3.40943 10.52676,3.8065 21.8863,-0.93136 21.8863,-0.93136"
       inkscape:path-effect="#path-effect4835"
       inkscape:connector-curvature="0"
       id="path4829"
       d="m 945.69128,611.84632 c 0.43845,-0.1594 0.89365,-0.31591 1.36339,-0.46661 4.38111,-1.40554 10.01273,-2.29512 15.23746,-0.39258 4.37727,1.59395 8.85664,1.717 12.58816,1.31491 m -27.99491,-3.83807 c 4.15085,-1.27448 9.48973,-1.99875 14.58309,-0.15998 5.30912,1.91667 10.88099,1.73495 15.13734,1.07383 2.377,-0.36922 4.34253,-0.88837 5.61727,-1.27619 m -39.94924,3.07298 c 0.79164,-0.33138 1.66989,-0.66568 2.61737,-0.97662 4.18912,-1.37475 9.74366,-2.28919 15.03096,-0.48872 5.06491,1.72476 10.36751,1.46931 14.51593,0.71184 m -27.35387,-0.32006 c 4.329,-1.1488 9.77554,-1.79957 14.87842,0.0722 4.24869,1.55846 8.607,1.73494 12.31944,1.39547 m -34.33147,-1.29792 c 1.23101,-0.61379 2.90846,-1.35586 4.8859,-1.99518 4.26609,-1.37926 9.9337,-2.27573 15.38949,-0.43038 5.45496,1.84507 11.21024,1.55218 15.63067,0.77677 1.71846,-0.30144 3.23357,-0.67493 4.44469,-1.01967"
       style="fill:none;stroke:#000000;stroke-width:0.50034839px;stroke-linecap:butt;stroke-linejoin:miter;stroke-opacity:1" />
    <path
       sodipodi:nodetypes="ccc"
       inkscape:original-d="m 955.57447,607.23372 -2.02282,27.29041 c 0,0 -1.19699,3.32122 -6.49012,1.95324"
       inkscape:path-effect="#path-effect4837"
       inkscape:connector-curvature="0"
       id="path4831"
       d="m 956.35952,616.24488 c -0.30288,6.6331 -0.76213,13.37297 -1.31041,20.16291 m 0.3988,-22.5348 c -0.57357,6.48716 -1.04638,13.03673 -1.44893,19.62604 1e-5,0 -2e-5,7e-5 -7e-5,2.2e-4 -0.005,0.0157 -0.30096,0.84763 -1.24627,1.5086 -0.75793,0.52997 -1.93402,0.94975 -3.70085,0.7558 m 4.57517,-22.47214 c -0.78113,7.49042 -1.38098,14.96256 -1.89055,22.38325 10e-6,0 -2e-5,7e-5 -7e-5,2.2e-4 -0.002,0.006 -0.0476,0.12876 -0.15659,0.31378 m 4.18369,-19.54112 c -0.26417,6.19685 -0.62095,12.3336 -1.01613,18.44752 m -1.17529,-26.5781 c -0.78316,8.17703 -1.27576,16.41413 -1.56055,24.63614 10e-6,0 -2e-5,7e-5 -6e-5,2.2e-4 -0.005,0.0154 -0.27884,0.83516 -1.19059,1.47649 -0.55013,0.38697 -1.33202,0.70881 -2.41422,0.74649 m 6.63202,-22.01951 c -0.69533,7.45781 -1.17964,14.67499 -1.51381,21.70872 10e-6,-10e-6 -2e-5,6e-5 -6e-5,2e-4 -0.005,0.0149 -0.28822,0.81255 -1.21352,1.41644 -0.51131,0.3337 -1.21837,0.60772 -2.17571,0.64793 m 3.29368,-24.36607 c -0.68166,7.2781 -1.16748,14.53024 -1.51631,21.756 m 4.43091,-22.29498 c -0.42423,6.95924 -0.98665,14.0385 -1.65402,21.22232 0,1e-5 -3e-5,9e-5 -9e-5,2.4e-4 -0.006,0.016 -0.32822,0.86489 -1.3186,1.55235 -0.63387,0.43999 -1.5416,0.81408 -2.82433,0.87188"
       style="fill:none;stroke:#000000;stroke-width:0.50034839px;stroke-linecap:butt;stroke-linejoin:miter;stroke-opacity:1" />
    <path
       sodipodi:nodetypes="cc"
       style="fill:none;stroke:#000000;stroke-width:0.50034839px;stroke-linecap:butt;stroke-linejoin:miter;stroke-opacity:1"
       d="m 969.76344,618.6681 c -0.2062,5.06288 -0.47032,10.16592 -0.77547,15.29443 m -0.008,-16.48941 c -0.50181,7.02526 -0.92733,14.09739 -1.2992,21.19996 m -0.0626,-22.74048 c -0.50583,6.10876 -0.93456,12.20928 -1.31429,18.29155 m 2.92955,-14.86791 c -0.17064,4.41027 -0.37241,8.80066 -0.59351,13.17909 m -0.99693,-21.1755 c -0.64953,8.47555 -1.09937,16.99277 -1.40196,25.5033 m 2.48245,-20.7077 c -0.56216,7.46787 -0.98612,14.77786 -1.30789,21.96405 m 0.0335,-22.67971 c -0.42891,5.69287 -0.78011,11.37558 -1.07013,17.04792 m 3.35921,-16.93129 c -0.37096,7.16566 -0.8361,14.41315 -1.37467,21.73288"
       id="path4833"
       inkscape:connector-curvature="0"
       inkscape:path-effect="#path-effect4839"
       inkscape:original-d="m 969.21773,609.72022 -1.92095,31.34573" />
    <path
       style="fill:none;stroke:#000000;stroke-width:0.25;stroke-linecap:butt;stroke-linejoin:miter;stroke-opacity:1;stroke-miterlimit:4;stroke-dasharray:0.5,0.5;stroke-dashoffset:0"
       d="m 726.57987,672.40859 c -11.81126,-5.34169 -24.98653,-9.78538 -37.77547,-14.69828 -10e-6,0 -10e-6,0 -10e-6,0 -12.79214,-4.91413 -25.13556,-10.12722 -38.19057,-15.68666 -1e-5,0 -1e-5,0 -1e-5,0 -0.1435,-0.0611 -0.2868,-0.12204 -0.4299,-0.1828 m 18.16558,4.03734 C 655.37318,640.7547 643.669,635.52321 631.52802,629.5235 c -9.64472,-4.76613 -19.47493,-7.92988 -29.11558,-11.16219 m 13.96598,9.32626 c -13.02856,-4.80085 -25.13634,-10.07973 -38.19644,-15.54244 -11.29337,-4.72373 -20.93866,-8.83763 -30.20209,-13.45735 m 175.55112,72.73821 c -12.81475,-4.52031 -24.05937,-10.8184 -34.97784,-17.7614 -10.92121,-6.94473 -26.03221,-9.55667 -40.87808,-13.98353 -10e-6,0 -10e-6,0 -10e-6,0 -5.59991,-1.66983 -10.40763,-3.50018 -14.81712,-5.4159 m 26.08654,7.58334 c -12.12877,-5.02402 -25.38764,-9.06768 -38.97836,-12.51102 -13.59411,-3.4442 -23.80511,-9.72566 -34.22183,-14.49916 0,0 0,0 0,0 -1.24366,-0.56991 -2.54676,-1.15086 -3.89913,-1.74226 m 19.61632,5.15378 c -12.66402,-4.28025 -24.30853,-9.25878 -35.75921,-13.05845 -4.35739,-1.44591 -9.01476,-3.15097 -13.81739,-4.93489 m 179.53362,73.71125 c -11.80107,-4.37443 -25.42561,-10.35238 -39.1036,-16.38651 -11.86777,-5.23554 -21.84431,-9.0508 -32.44809,-13.68447 m 15.11525,3.07359 c -11.89415,-4.76884 -24.29516,-8.49686 -35.68167,-10.79246 -8.61159,-1.73615 -18.23045,-7.12401 -27.53385,-12.80467 m 9.86983,5.94621 c -12.64846,-4.60833 -24.40601,-9.99122 -36.02485,-15.27695 -11.62175,-5.28706 -25.32675,-9.81193 -38.75308,-14.73353 0,-10e-6 0,-10e-6 0,-10e-6 -1.39951,-0.513 -2.77463,-1.02936 -4.12885,-1.54916 m 182.47873,71.4729 c -12.64853,-4.63411 -24.52913,-9.55133 -36.39985,-13.98005 0,-1e-5 0,-1e-5 0,-1e-5 -11.87368,-4.42983 -24.78628,-10.65557 -37.1437,-17.29603 0,0 -1e-5,0 -1e-5,0 -3.39414,-1.8239 -6.82131,-3.37483 -10.27875,-4.76147 m 21.20199,11.34427 c -12.90409,-5.0559 -25.87013,-10.42282 -40.41528,-16.58912 0,0 0,0 -10e-6,0 -14.54878,-6.16784 -24.0249,-10.14717 -34.84682,-15.74916 0,0 -10e-6,0 -10e-6,0 -0.59453,-0.30776 -1.20084,-0.61061 -1.81816,-0.90889 m 18.74799,7.18311 c -12.60723,-4.82097 -25.1596,-8.72828 -38.2905,-11.49554 -6.55307,-1.38102 -12.76874,-3.93522 -18.91999,-6.87206 m 173.24782,68.38103 c -12.78372,-5.54961 -24.44494,-9.47959 -36.11849,-13.77625 -11.67647,-4.29774 -25.37141,-9.06995 -38.90933,-12.51479 0,0 0,0 0,0 -1.21969,-0.31036 -2.42076,-0.65405 -3.60573,-1.0279 m 21.19053,7.05806 c -12.64328,-5.0348 -24.46057,-9.83025 -36.19672,-14.80789 -9.83901,-4.17301 -20.45939,-9.01009 -30.6995,-14.67221 m 15.22209,4.69042 c -11.84225,-5.43545 -24.54137,-10.06472 -36.41608,-15.5107 -9.44446,-4.33143 -19.76611,-7.76125 -30.16608,-11.1288 m 185.1309,75.29136 c -12.20641,-5.29492 -24.61446,-9.89447 -36.63455,-14.97956 0,0 0,-10e-6 0,-10e-6 -12.0231,-5.08637 -24.64808,-9.56436 -36.72183,-14.01478 0,0 -1e-5,0 -1e-5,0 -3.52846,-1.3006 -7.1383,-2.69015 -10.80498,-4.1357 m 19.10483,7.75837 c -12.40393,-4.62948 -24.31433,-10.67044 -35.74378,-17.33944 0,0 0,0 0,0 -11.4323,-6.67066 -25.38005,-10.02992 -38.92495,-15.38978 0,0 -10e-6,0 -10e-6,0 -5.86314,-2.32011 -11.24972,-4.38244 -16.43843,-6.29978 m 28.69115,13.52832 c -12.57041,-4.30124 -24.3627,-9.63208 -35.8999,-14.23031 -5.76059,-2.29592 -11.91122,-4.86355 -18.13114,-7.59309 m 183.54052,69.90945 c -12.91417,-4.88927 -25.23725,-10.0806 -38.52465,-15.55799 0,0 0,-10e-6 0,-10e-6 -13.29072,-5.47876 -25.43478,-9.25554 -39.08121,-13.09291 -0.7497,-0.21081 -1.49142,-0.43108 -2.22579,-0.66029 m 16.37475,8.10592 c -12.10203,-5.4509 -23.92147,-9.75055 -34.58776,-14.5732 0,0 0,0 0,0 -10.66895,-4.82385 -24.88146,-9.03635 -37.4562,-12.40541 0,0 0,0 -10e-6,0 -3.19595,-0.85626 -6.43429,-1.89477 -9.72345,-3.04046 m 22.13645,6.15138 c -11.91535,-5.09786 -25.08806,-11.10559 -38.04102,-18.60471 -9.00222,-5.21184 -17.45614,-7.87639 -25.91034,-10.60807"
       id="path4948"
       inkscape:connector-curvature="0"
       inkscape:path-effect="#path-effect4954"
       inkscape:original-d="m 731.42858,671.6479 -190,-75" />
    <path
       style="fill:none;stroke:#000000;stroke-width:0.2;stroke-linecap:butt;stroke-linejoin:miter;stroke-opacity:1;stroke-miterlimit:4;stroke-dasharray:0.40000001,0.40000001;stroke-dashoffset:0"
       d="m 699.55978,750.4622 c -9.02566,1.17201 -18.93763,2.92751 -28.59854,4.37808 0,0 0,0 0,0 -9.66429,1.45108 -19.03691,2.70784 -28.87207,3.73947 -10e-6,0 -10e-6,0 -10e-6,0 -8.01948,0.84118 -15.30756,2.31534 -22.56119,3.72458 m 19.05133,-6.23649 c -9.78252,1.31369 -18.73844,2.55715 -27.97821,3.30137 -9.24301,0.74448 -18.67717,3.14026 -27.81583,5.01915 0,0 0,0 0,0 -4.67784,0.96176 -9.45717,1.74668 -14.22624,2.5217 m 13.51692,-0.27095 c -9.66727,1.24958 -18.24054,2.71666 -26.48536,3.7483 0,0 -1e-5,0 -1e-5,0 -8.24771,1.03201 -19.32616,3.51864 -29.73535,6.15665 -6.35285,1.61001 -11.78335,2.09549 -16.97148,2.2593 m 186.90891,-29.31863 c -9.66061,1.46593 -18.37224,2.80114 -26.90178,4.01214 0,0 0,0 0,0 -8.53253,1.21143 -18.73839,3.1624 -27.98849,5.1004 -9.25009,1.93801 -19.20479,3.39489 -29.39004,5.80119 0,0 0,0 0,0 -3.34163,0.78946 -6.44665,1.38045 -9.39738,1.8727 m 26.16797,-8.28848 c -9.76915,1.80378 -18.95546,2.65522 -28.63838,3.56491 -9.68631,0.91 -18.50588,3.27348 -27.29786,5.44571 0,0 0,0 0,0 -8.50314,2.10087 -18.27312,3.11728 -27.64431,4.96961 m 22.62254,-3.34186 c -9.01909,1.80033 -19.22118,2.55974 -29.46182,3.28054 -9.6631,0.68014 -17.86781,2.45445 -26.72775,3.44734 M 702.38847,747.3351 c -9.07941,1.54434 -18.48803,3.76532 -27.23754,6.91675 -8.75257,3.15253 -18.64989,2.15333 -27.70411,2.05352 0,0 0,0 0,0 -5.56303,-0.0613 -11.5328,1.32417 -17.65972,3.06718 m 17.13391,-3.63676 c -9.357,1.22607 -19.15579,2.91132 -29.22788,4.35771 -10.07561,1.44689 -18.69491,2.69279 -27.84629,3.67852 -1e-5,0 -1e-5,0 -1e-5,0 -4.19639,0.45201 -8.42903,1.16154 -12.6222,1.98979 m 13.42588,-1.8347 c -9.23847,1.64136 -18.80361,2.36306 -28.18191,2.69165 0,0 0,0 0,0 -9.38158,0.3287 -19.04799,3.01 -28.9127,4.63321 -9.43646,1.55274 -17.90006,3.24203 -26.57271,5.49143 M 696.3552,747.22235 c -9.35978,1.54021 -18.30764,2.69372 -26.68881,3.69722 0,0 0,0 0,0 -8.38411,1.00386 -19.30576,3.06638 -29.69474,4.81603 -10.38898,1.74965 -18.30162,2.7474 -26.66817,3.85118 -1.54388,0.20368 -3.16689,0.45532 -4.84939,0.74815 m 21.61031,-3.63152 c -9.38724,1.69217 -18.89928,2.53365 -28.46613,3.22987 -9.57019,0.69647 -18.59242,3.12687 -27.53145,4.97853 0,0 0,0 0,0 -7.83875,1.62374 -16.68651,3.01042 -25.5896,4.94971 m 19.74866,-5.33581 c -9.13355,1.31113 -18.58069,3.737 -27.51171,6.82559 0,0 0,0 0,0 -8.93415,3.08967 -18.6019,2.89923 -27.58223,4.30821 0,0 0,0 -10e-6,0 -0.98031,0.15381 -1.96921,0.30031 -2.96505,0.43926 m 184.66838,-25.07234 c -9.04573,1.11105 -18.64788,2.74594 -27.71492,3.85002 -9.07022,1.10446 -19.04111,3.13545 -28.88223,5.009 -10e-6,0 -10e-6,0 -10e-6,0 -9.11417,1.73514 -17.39295,2.72297 -25.86552,3.94889 M 633.80362,759.91 c -9.64394,1.04031 -18.714,3.07366 -27.90726,4.8251 -9.19648,1.75204 -19.0139,2.82879 -28.81114,4.08477 0,0 0,0 0,0 -5.61771,0.72018 -11.13266,1.62076 -16.76342,2.58327 m 16.61264,-7.12184 c -9.47193,1.73289 -19.19012,2.76865 -29.33948,3.93061 0,0 0,0 0,0 -10.15291,1.16236 -18.6534,3.21675 -27.73458,5.2629 -4.75724,1.07189 -9.65027,1.92004 -14.53629,2.79356"
       id="path4952"
       inkscape:connector-curvature="0"
       inkscape:path-effect="#path-effect4960"
       inkscape:original-d="M 705,746.79076 502.85715,778.21933" />
    <path
       inkscape:original-d="m 650.42858,701.6479 -197,-19"
       inkscape:path-effect="#path-effect4958"
       inkscape:connector-curvature="0"
       id="path4956"
       d="m 644.88013,703.45803 c -10.58644,-1.42416 -22.2639,-2.13004 -33.63235,-3.21126 -11.37185,-1.08154 -22.38472,-2.40225 -33.96687,-4.00004 0,0 0,0 0,0 -4.78564,-0.66019 -9.34011,-1.12033 -13.77506,-1.49219 m 19.41834,-0.29916 c -11.51822,-1.24969 -22.01891,-2.58579 -32.869,-4.53641 -10.85335,-1.95121 -21.94196,-1.87004 -32.66687,-2.42504 0,0 0,0 0,0 -1.64128,-0.0849 -3.29373,-0.18933 -4.95367,-0.30768 m 14.03246,3.03977 c -11.3764,-1.32862 -21.40713,-2.38864 -31.03163,-3.98635 -9.04587,-1.50165 -21.1699,-1.42067 -32.79464,-1.09128 m 181.74386,15.7121 c -11.18603,-1.28675 -23.09587,-1.94486 -36.1068,-2.63638 0,0 0,0 0,0 -13.01484,-0.69172 -21.57546,-2.28604 -31.55437,-3.66254 0,0 0,0 0,0 -8.50846,-1.17367 -18.51416,-1.6856 -28.01132,-2.10993 m 23.8446,2.52302 c -10.74812,-1.29932 -21.31352,-2.08013 -30.78219,-3.04887 0,0 0,0 -10e-6,0 -9.47151,-0.96904 -22.279,-2.55757 -33.64186,-4.48754 0,-1e-5 -10e-6,-1e-5 -10e-6,-1e-5 -6.17309,-1.04849 -12.21844,-1.6853 -18.28063,-2.32847 m 23.34537,3.04015 c -10.62387,-1.5779 -22.25416,-1.81268 -33.61981,-2.24862 -7.94862,-0.30488 -15.58669,-1.26338 -23.23995,-2.23653 m 188.71467,18.3943 c -10.54892,-0.7878 -22.14963,-2.44726 -33.29487,-4.14933 -10e-6,0 -10e-6,0 -10e-6,0 -11.14859,-1.70258 -22.40167,-2.24035 -34.04186,-3.52504 -10e-6,0 -10e-6,0 -10e-6,0 -2.80441,-0.30951 -5.51809,-0.53374 -8.16531,-0.68166 m 19.14811,-0.0612 c -11.46446,-0.54579 -22.56153,-1.26274 -34.50655,-0.59955 -10e-6,0 -10e-6,0 -10e-6,0 -11.94861,0.66339 -21.80619,-2.29584 -32.24187,-3.67504 -1.12007,-0.14803 -2.25936,-0.28906 -3.41551,-0.42424 m 11.99379,-0.0436 c -11.23511,-0.76661 -21.68615,-1.80072 -31.88176,-2.21185 0,0 0,0 0,0 -10.19866,-0.41126 -21.90417,-1.94278 -32.54187,-2.63755 -1.58864,-0.10375 -3.19581,-0.2395 -4.81725,-0.40357 m 181.41132,16.36352 c -11.02307,-0.81222 -21.92146,-1.55485 -32.58195,-1.46181 -10.66368,0.0931 -22.97727,-2.64064 -35.75437,-4.72504 0,0 0,0 0,0 -9.32213,-1.52077 -16.48385,-2.10961 -23.47992,-2.95067 m 22.84523,1.88929 c -10.69414,-1.30363 -21.47325,-2.35276 -31.24475,-3.86136 0,0 0,0 0,0 -9.77443,-1.50906 -22.40953,-1.28489 -34.05437,-0.65005 -5.42563,0.29579 -10.61617,-0.22693 -15.74924,-1.05289 m 19.87468,-1.17128 c -11.36418,-1.59042 -21.83389,-1.88219 -32.30664,-2.47361 -5.70781,-0.32233 -11.89694,-0.75588 -18.28436,-1.06835 m 183.90439,18.78335 c -10.7193,-1.25298 -21.82375,-1.13329 -32.29472,-0.19891 0,0 0,0 0,0 -10.47411,0.93466 -21.85032,-2.16669 -32.37937,-3.30004 0,0 0,0 0,0 -5.34994,-0.57587 -10.92994,-1.34718 -16.5326,-2.34234 m 20.90122,2.05273 c -10.61119,-1.49917 -21.90767,-2.35352 -32.54482,-3.86119 -10.64035,-1.50812 -22.39039,-1.87551 -33.97937,-2.43754 0,0 -10e-6,0 -10e-6,0 -2.38465,-0.11565 -4.71858,-0.27669 -7.01567,-0.46981 m 17.52923,-1.47088 c -11.34763,-1.5863 -21.98891,-1.95016 -32.78166,-2.66111 0,0 0,0 0,0 -10.79599,-0.71117 -22.35639,-2.2533 -33.89187,-3.57504 -1.97266,-0.22603 -3.93407,-0.43231 -5.89137,-0.62269 m 187.97488,18.20838 c -11.1358,-0.73364 -22.57403,-2.3244 -34.54435,-3.76188 -11.97391,-1.43791 -21.91327,-1.77571 -32.56687,-2.12504 0,0 0,0 0,0 -7.99755,-0.26224 -16.33871,-1.09056 -24.50605,-1.58114 m 25.39853,2.12409 c -10.93159,-0.78369 -21.98683,-2.53227 -32.79453,-4.39934 0,0 -10e-6,0 -10e-6,0 -10.81094,-1.86762 -22.16132,-2.03748 -33.29187,-2.91254 -10.23388,-0.80456 -20.64568,-2.13043 -31.40549,-3.53059 m 26.91429,4.05454 c -11.42667,-0.78394 -21.99074,-2.94815 -32.79408,-5.63684 -6.47374,-1.61115 -13.11566,-2.0142 -19.76531,-2.25039"
       style="fill:none;stroke:#000000;stroke-width:0.2;stroke-linecap:butt;stroke-linejoin:miter;stroke-opacity:1;stroke-miterlimit:4;stroke-dasharray:0.40000001,0.40000001;stroke-dashoffset:0"
       sodipodi:nodetypes="cc" />
  </g>
</svg>
