<?xml version="1.0" encoding="UTF-8" standalone="no"?>
<!-- Created with Inkscape (http://www.inkscape.org/) -->

<svg
   xmlns:dc="http://purl.org/dc/elements/1.1/"
   xmlns:cc="http://creativecommons.org/ns#"
   xmlns:rdf="http://www.w3.org/1999/02/22-rdf-syntax-ns#"
   xmlns:svg="http://www.w3.org/2000/svg"
   xmlns="http://www.w3.org/2000/svg"
   xmlns:sodipodi="http://sodipodi.sourceforge.net/DTD/sodipodi-0.dtd"
   xmlns:inkscape="http://www.inkscape.org/namespaces/inkscape"
   width="1052.3622"
   height="744.09448"
   id="svg2"
   version="1.1"
   inkscape:version="0.48.4 r9939"
   sodipodi:docname="event-queue.svg">
  <defs
     id="defs4">
    <inkscape:path-effect
       effect="sketch"
       id="path-effect4681"
       is_visible="true"
       nbiter_approxstrokes="8"
       strokelength="80"
       strokelength_rdm="0.3;1"
       strokeoverlap="0.3"
       strokeoverlap_rdm="0.3;1"
       ends_tolerance="0.1;1"
       parallel_offset="3;3970765580"
       tremble_size="3;1022603433"
       tremble_frequency="1"
       nbtangents="5"
       tgt_places_rdmness="1;1"
       tgtscale="10"
       tgtlength="2"
       tgtlength_rdm="0.3;1" />
    <inkscape:path-effect
       tgtlength_rdm="0.3;1"
       tgtlength="2"
       tgtscale="10"
       tgt_places_rdmness="1;1"
       nbtangents="5"
       tremble_frequency="1"
       tremble_size="3;1495959941"
       parallel_offset="3;1"
       ends_tolerance="0.1;1"
       strokeoverlap_rdm="0.3;1"
       strokeoverlap="0.3"
       strokelength_rdm="0.3;1"
       strokelength="80"
       nbiter_approxstrokes="8"
       is_visible="true"
       id="path-effect4677"
       effect="sketch" />
    <inkscape:path-effect
       effect="sketch"
       id="path-effect4673"
       is_visible="true"
       nbiter_approxstrokes="8"
       strokelength="80"
       strokelength_rdm="0.3;1"
       strokeoverlap="0.3"
       strokeoverlap_rdm="0.3;1"
       ends_tolerance="0.1;1"
       parallel_offset="3;2240339817"
       tremble_size="3;1261977289"
       tremble_frequency="1"
       nbtangents="5"
       tgt_places_rdmness="1;1"
       tgtscale="10"
       tgtlength="2"
       tgtlength_rdm="0.3;1" />
    <inkscape:path-effect
       tgtlength_rdm="0.3;1"
       tgtlength="2"
       tgtscale="10"
       tgt_places_rdmness="1;1"
       nbtangents="5"
       tremble_frequency="1"
       tremble_size="3;2668274386"
       parallel_offset="3;1"
       ends_tolerance="0.1;1"
       strokeoverlap_rdm="0.3;1"
       strokeoverlap="0.3"
       strokelength_rdm="0.3;1"
       strokelength="80"
       nbiter_approxstrokes="8"
       is_visible="true"
       id="path-effect4669"
       effect="sketch" />
    <inkscape:path-effect
       effect="sketch"
       id="path-effect4665"
       is_visible="true"
       nbiter_approxstrokes="8"
       strokelength="80"
       strokelength_rdm="0.3;1"
       strokeoverlap="0.3"
       strokeoverlap_rdm="0.3;1"
       ends_tolerance="0.1;1"
       parallel_offset="3;2844266021"
       tremble_size="3;1921096217"
       tremble_frequency="1"
       nbtangents="5"
       tgt_places_rdmness="1;1"
       tgtscale="10"
       tgtlength="2"
       tgtlength_rdm="0.3;1" />
    <inkscape:path-effect
       effect="sketch"
       id="path-effect3815"
       is_visible="true"
       nbiter_approxstrokes="8"
       strokelength="75"
       strokelength_rdm="0.1;1"
       strokeoverlap="0.3"
       strokeoverlap_rdm="0.3;1"
       ends_tolerance="0;1"
       parallel_offset="2;1"
       tremble_size="3.6;1"
       tremble_frequency="2.5"
       nbtangents="7"
       tgt_places_rdmness="1;1"
       tgtscale="15"
       tgtlength="3"
       tgtlength_rdm="0.2;1" />
    <marker
       inkscape:stockid="Arrow2Mend"
       orient="auto"
       refY="0.0"
       refX="0.0"
       id="Arrow2Mend"
       style="overflow:visible;">
      <path
         id="path3849"
         style="fill-rule:evenodd;stroke-width:0.62500000;stroke-linejoin:round;"
         d="M 8.7185878,4.0337352 L -2.2072895,0.016013256 L 8.7185884,-4.0017078 C 6.9730900,-1.6296469 6.9831476,1.6157441 8.7185878,4.0337352 z "
         transform="scale(0.6) rotate(180) translate(0,0)" />
    </marker>
    <marker
       inkscape:stockid="Arrow2Mend"
       orient="auto"
       refY="0"
       refX="0"
       id="Arrow2Mend-1"
       style="overflow:visible">
      <path
         inkscape:connector-curvature="0"
         id="path3849-9"
         style="fill-rule:evenodd;stroke-width:0.625;stroke-linejoin:round"
         d="M 8.7185878,4.0337352 -2.2072895,0.01601326 8.7185884,-4.0017078 c -1.7454984,2.3720609 -1.7354408,5.6174519 -6e-7,8.035443 z"
         transform="scale(-0.6,-0.6)" />
    </marker>
    <marker
       inkscape:stockid="Arrow2Mend"
       orient="auto"
       refY="0"
       refX="0"
       id="marker4480"
       style="overflow:visible">
      <path
         inkscape:connector-curvature="0"
         id="path4482"
         style="fill-rule:evenodd;stroke-width:0.625;stroke-linejoin:round"
         d="M 8.7185878,4.0337352 -2.2072895,0.01601326 8.7185884,-4.0017078 c -1.7454984,2.3720609 -1.7354408,5.6174519 -6e-7,8.035443 z"
         transform="scale(-0.6,-0.6)" />
    </marker>
    <marker
       inkscape:stockid="Arrow2Mend"
       orient="auto"
       refY="0"
       refX="0"
       id="marker4484"
       style="overflow:visible">
      <path
         inkscape:connector-curvature="0"
         id="path4486"
         style="fill-rule:evenodd;stroke-width:0.625;stroke-linejoin:round"
         d="M 8.7185878,4.0337352 -2.2072895,0.01601326 8.7185884,-4.0017078 c -1.7454984,2.3720609 -1.7354408,5.6174519 -6e-7,8.035443 z"
         transform="scale(-0.6,-0.6)" />
    </marker>
    <marker
       inkscape:stockid="Arrow2Mend"
       orient="auto"
       refY="0"
       refX="0"
       id="marker4488"
       style="overflow:visible">
      <path
         inkscape:connector-curvature="0"
         id="path4490"
         style="fill-rule:evenodd;stroke-width:0.625;stroke-linejoin:round"
         d="M 8.7185878,4.0337352 -2.2072895,0.01601326 8.7185884,-4.0017078 c -1.7454984,2.3720609 -1.7354408,5.6174519 -6e-7,8.035443 z"
         transform="scale(-0.6,-0.6)" />
    </marker>
    <marker
       inkscape:stockid="Arrow2Mend"
       orient="auto"
       refY="0"
       refX="0"
       id="marker4492"
       style="overflow:visible">
      <path
         inkscape:connector-curvature="0"
         id="path4494"
         style="fill-rule:evenodd;stroke-width:0.625;stroke-linejoin:round"
         d="M 8.7185878,4.0337352 -2.2072895,0.01601326 8.7185884,-4.0017078 c -1.7454984,2.3720609 -1.7354408,5.6174519 -6e-7,8.035443 z"
         transform="scale(-0.6,-0.6)" />
    </marker>
    <marker
       inkscape:stockid="Arrow2Mend"
       orient="auto"
       refY="0"
       refX="0"
       id="marker4496"
       style="overflow:visible">
      <path
         inkscape:connector-curvature="0"
         id="path4498"
         style="fill-rule:evenodd;stroke-width:0.625;stroke-linejoin:round"
         d="M 8.7185878,4.0337352 -2.2072895,0.01601326 8.7185884,-4.0017078 c -1.7454984,2.3720609 -1.7354408,5.6174519 -6e-7,8.035443 z"
         transform="scale(-0.6,-0.6)" />
    </marker>
  </defs>
  <sodipodi:namedview
     id="base"
     pagecolor="#ffffff"
     bordercolor="#666666"
     borderopacity="1.0"
     inkscape:pageopacity="0.0"
     inkscape:pageshadow="2"
     inkscape:zoom="0.49497475"
     inkscape:cx="600.71805"
     inkscape:cy="360.49942"
     inkscape:document-units="px"
     inkscape:current-layer="layer1"
     showgrid="false"
     inkscape:window-width="1596"
     inkscape:window-height="848"
     inkscape:window-x="0"
     inkscape:window-y="32"
     inkscape:window-maximized="0" />
  <metadata
     id="metadata7">
    <rdf:RDF>
      <cc:Work
         rdf:about="">
        <dc:format>image/svg+xml</dc:format>
        <dc:type
           rdf:resource="http://purl.org/dc/dcmitype/StillImage" />
        <dc:title />
      </cc:Work>
    </rdf:RDF>
  </metadata>
  <g
     inkscape:label="Layer 1"
     inkscape:groupmode="layer"
     id="layer1"
     transform="translate(0,-308.2677)">
    <path
       style="fill:none;stroke:#000000;stroke-width:1;stroke-linecap:butt;stroke-miterlimit:4;stroke-dasharray:24,24;stroke-dashoffset:0;stroke-opacity:1;marker-start:url(#marker4496)"
       d="m 203.9465,398.13864 c 11.05405,-0.8049 19.65479,0.008 28.94832,-0.0273 0,-1e-5 0,-1e-5 0,-1e-5 9.29662,-0.0356 19.40255,-0.60574 28.22812,-1.79999 0,0 0,0 0,-10e-6 2.9764,-0.40275 6.29928,-0.50593 9.83198,-0.44607 m -17.088,-2.66371 c 8.95791,-0.4125 20.20421,-1.02035 30.66604,-3.00897 0,0 0,0 0,0 10.46531,-1.98928 20.40051,0.59312 31.15312,1.74375 0,0 0,0 0,0 2.84925,0.3049 5.62323,0.47867 8.36489,0.5854 m -16.85109,1.62964 c 7.71439,-0.49064 17.52291,-0.56403 28.2086,-1.26176 0.48067,1.54254 0.99733,3.05946 1.53987,4.54211 3.22195,8.80496 -1.39843,21.64108 -4.1625,34.89374 0,0 0,1e-5 -10e-6,1e-5 -0.79721,3.82232 -1.02417,6.94926 -0.87952,9.61545 m -0.39305,-19.75021 c -0.70114,10.0058 1.22737,19.65053 3.65695,28.94936 2.43038,9.30193 0.23161,20.65307 0.675,31.96875 0,0 0,0 0,0 0.20366,5.19749 -0.003,10.11326 -0.4946,15.13186 m 0.33275,-20.91223 c 0.64555,10.44528 -0.36184,19.03991 -1.04127,27.09267 -1e-5,0 -1e-5,10e-6 -1e-5,10e-6 -0.67966,8.05545 -0.39108,19.25615 -1.15312,27.72187 -0.28453,3.16093 -0.23443,6.88333 0.0292,10.93013 m 2.87515,-12.64463 c 1.1793,10.34285 0.0332,19.81891 0.0551,29.42715 0,0 0,10e-6 0,10e-6 0.0219,9.61144 -1.12722,18.9872 -3.43125,26.93437 0,0 0,0 -1e-5,0 -0.70277,2.42405 -0.98432,5.16437 -1.0419,8.04567 m -1.36656,-15.44118 c 0.90846,10.22284 0.90484,22.31867 2.72722,36.9929 0,0 0,0 0,0 1.82298,14.67912 0.47412,17.86081 1.46249,23.53124 0,0 0,1e-5 1e-5,1e-5 0.28603,1.641 0.32195,4.17114 0.18009,7.27508 m -0.47058,-11.62128 c 0.13976,9.34148 -0.94455,19.95419 -2.78452,29.90628 0,0 0,0 0,0 -1.84057,9.9554 0.35029,19.35374 1.06876,28.03125 0.18125,2.18922 0.33209,4.59437 0.48744,7.1514 m 1.40677,-11.17337 c 0.46799,10.49168 0.0304,18.4381 0.11204,25.29263 0,0 0,0 0,0 0.0817,6.85682 -0.6271,20.23283 -1.88438,30.675 0,0 0,0 0,0 -0.54679,4.54134 -0.537,9.16113 -0.2778,13.96948 m -2.17832,-19.58792 c 0.13197,10.2115 1.40176,19.35133 4.24675,28.07728 0,0 0,10e-6 0,10e-6 2.84593,8.72886 -1.3388,20.3864 -4.05,31.18124 -1.15264,4.5893 -1.06521,8.8018 -0.3615,12.8203 m 1.08369,-16.72047 c 0.31809,9.71533 -0.19653,19.16771 -0.59095,27.48715 0,0 0,0 0,10e-6 -0.39454,8.32221 -0.23483,18.9145 -0.67499,26.79374 0,0 0,0 0,0 -0.1549,2.77268 -0.12249,6.13959 0.0416,9.82173 m -1.19779,-11.30636 c 0.0655,9.57404 0.0385,17.82087 0.0843,23.49354 0,1e-5 0,1e-5 0,1e-5 0.0458,5.67456 0.65017,22.2465 1.96875,36.74999 0,0 0,0 0,0 0.55028,6.05268 0.74693,10.52363 0.87601,14.39483 m 2.72157,-23.98204 c 0.70178,11.02738 -0.25862,21.761 -0.81633,35.33272 0,0 0,0 0,0 -0.55789,13.57625 0.46227,19.5026 1.40625,28.50937 0,0 0,10e-6 0,10e-6 0.34324,3.27499 0.35627,6.88937 0.1766,10.69865 m -0.75125,-16.73344 c 0.34651,9.27587 0.32778,19.79869 1.01215,29.45635 0.0765,1.07896 0.1393,2.1715 0.19144,3.27616 -8.46843,-0.0968 -17.61379,0.57349 -25.96906,1.28373 -2.63012,0.22357 -5.39484,0.30106 -8.25527,0.28412 m 9.97211,-3.2649 c -10.00544,0.47628 -19.12342,-1.58454 -27.37436,-4.78173 0,0 0,0 0,0 -8.2537,-3.19824 -21.03878,-0.43302 -33.09375,-1.26562 -3.92424,-0.27103 -7.36361,-0.28039 -10.53141,-0.11401 m 20.32416,7.57445 c -10.30501,1.06716 -19.21053,0.27973 -27.65532,0.81456 -7.96248,0.50429 -18.43043,-0.73917 -27.51254,-2.39337 0.0209,-0.67506 0.047,-1.35165 0.0791,-2.02946 0.24094,-5.08699 0.25615,-9.46411 0.18297,-13.56442 m 1.31121,12.87473 c -1.71517,-0.003 -3.49819,0.026 -5.34049,0.0873 -0.18784,-7.91675 -1.60324,-15.17019 -3.43806,-21.80544 -1e-5,0 -1e-5,-10e-6 -1e-5,-10e-6 -2.23877,-8.09607 0.27608,-21.83165 0.84376,-35.48437 0.27127,-6.52426 0.30204,-11.31694 0.27581,-15.56948 m 5.05336,24.21786 c 1.04816,-9.79921 -0.13807,-18.63619 -0.45105,-25.88395 0,0 0,0 0,0 -0.31308,-7.25017 -1.80352,-19.58184 -5.4,-28.7625 -1.73973,-4.44097 -1.6181,-9.26216 -0.86035,-14.18365 m 3.8562,13.76028 c -1.02014,-11.11035 0.0512,-19.87376 0.1979,-29.59513 0,0 0,-10e-6 0,-10e-6 0.14679,-9.72461 1.62233,-19.08443 4.8375,-27.24374 1.1314,-2.87123 1.20847,-6.26817 0.64941,-9.94877 m -6.06417,22.66465 c 0.86136,-9.57538 0.44659,-19.82019 1.34914,-29.51229 0,0 0,-10e-6 0,-10e-6 0.90284,-9.69533 -1.52813,-21.80601 -4.58438,-35.42811 0,-10e-6 0,-10e-6 0,-10e-6 -1.27844,-5.69816 -1.28869,-9.90112 -0.7041,-13.40168 m 2.48439,23.12886 c -0.963,-9.5573 1.53996,-20.77302 4.64158,-32.35294 1e-5,0 1e-5,-10e-6 1e-5,-10e-6 3.10265,-11.58378 -1.89304,-20.2756 -5.65313,-30.78749 0,0 0,0 0,0 -1.70872,-4.77697 -1.62239,-9.12669 -0.79703,-13.18926 m 8.17486,25.22032 c -0.29949,-10.04345 0.0173,-19.97895 0.0565,-29.98995 0.0393,-10.01434 -0.5102,-20.9163 -1.49062,-32.78437 0,0 0,0 0,-10e-6 -0.47426,-5.74096 -0.57529,-10.62675 -0.63913,-15.28632 m 1.24433,19.77629 c -1.04812,-10.27735 0.19592,-19.83721 0.56355,-29.56785 0,0 0,0 0,0 0.36775,-9.73389 -0.84502,-18.30194 -2.53125,-24.9375 0,0 0,0 0,0 -0.76957,-3.02839 -0.63216,-7.61621 -0.0706,-12.80706 m -2.09492,16.22299 c 0.0657,-10.00583 0.30964,-19.69939 0.92806,-29.06187 0.61862,-9.3656 -0.94698,-20.40026 -2.86875,-31.18124 0,-10e-6 0,-10e-6 0,-10e-6 -0.95214,-5.34145 -0.63015,-10.30061 0.26247,-15.15733 m 3.63127,20.02435 c -0.0108,-10.19338 -2.11912,-20.241 -6.35624,-30.74918 0,0 0,-10e-6 0,-10e-6 -4.23853,-10.51168 2.10564,-18.64916 6.27187,-25.92187 0,0 0,0 0,0 1.72648,-3.01378 1.8421,-7.19111 1.23787,-11.95193 m -3.02271,16.22707 c -0.4682,-10.867 -0.35117,-19.85864 -1.0964,-29.59538 -1e-5,0 -1e-5,0 -1e-5,0 -0.74548,-9.73998 0.62359,-18.53872 1.85625,-25.64062 0,0 0,0 0,0 0.32182,-1.85414 0.50028,-4.18608 0.60038,-6.84039 m -2.41075,10.94012 c -1.00133,-11.08121 0.19461,-18.26362 0.61975,-24.81392 0,0 0,0 0,0 0.42528,-6.55248 -0.71146,-20.8397 -2.1375,-32.53125 -0.45371,-3.71977 -0.51677,-7.07209 -0.32643,-10.22161 0.82328,0.008 1.66167,0.0278 2.51317,0.0574 m -0.42094,-0.28702 c 10.07112,-0.20617 19.35929,-0.40457 28.07743,-1.18104 0,0 0,0 0,0 8.72104,-0.77673 19.6388,0.41973 28.95937,1.2375 0,0 0,0 0,0 2.71554,0.23826 5.58086,0.4215 8.54606,0.60947 m -12.31382,-1.06058 c 9.3892,-1.10392 21.33958,0.72917 34.06873,2.22298 0,1e-5 0,1e-5 0,1e-5 12.7334,1.49431 20.35704,-0.73759 31.06875,-2.19375 0,0 0,0 0,-10e-6 3.93678,-0.53517 7.39154,-0.51193 10.47003,-0.14622 m -24.26222,2.54335 c 9.03283,0.21074 18.06237,-0.41562 28.54006,-1.43604 0.41876,1.44403 0.89371,2.87277 1.43594,4.2896 0,0 0,1e-5 0,1e-5 3.29616,8.61287 -0.85753,19.18648 -2.53125,27.58124 0,0 0,0 0,0 -0.82597,4.1428 -1.08878,9.4679 -1.39391,15.402 m 0.72887,-17.31085 c 0.58022,10.00546 -0.0927,19.14016 -0.28184,27.43061 0,10e-6 0,10e-6 0,10e-6 -0.18922,8.29321 0.24728,19.49867 0.75938,28.53749 0,0 0,0 0,0 0.17971,3.1719 0.32361,6.60214 0.50026,10.16524 M 332.7852,470.3178 c -0.64578,9.89382 0.0299,20.14855 0.085,30.46823 0,0 0,0 0,0 0.0552,10.32312 0.3319,21.37577 1.04062,34.10625 0.25356,4.55439 0.40058,8.4771 0.54048,12.14443 m -1.96884,-19.68903 c -0.24216,10.10031 1.78139,21.03403 5.37212,33.13989 0,10e-6 0,10e-6 0,10e-6 3.59192,12.1099 -0.14333,20.31526 -0.42188,30.98437 0,0 0,0 0,0 -0.11978,4.58794 -0.24108,8.94673 -0.43192,13.23473 m 0.95147,-21.66976 c 0.79465,8.98611 -1.33885,20.38313 -3.96643,31.17226 -2.62844,10.79273 0.47895,19.78788 1.40625,29.325 0,0 0,0 1e-5,0 0.41777,4.29675 0.65428,8.63937 0.96503,12.90253 m -4.95831,-26.62027 c 0.47731,10.22133 -0.038,20.05008 -0.11298,30.18665 0,10e-6 0,10e-6 0,10e-6 -0.075,10.13995 1.70497,20.31275 5.14688,30.92812 0,0 0,0 0,0 1.3927,4.2953 1.46255,8.31761 0.89092,12.18657 m -3.65453,-17.44242 c -1.10358,9.47232 1.24225,19.65611 3.71361,28.9499 0,0 0,0 0,0 2.47218,9.29689 -0.5905,21.90301 -1.77187,35.7375 -0.5161,6.04369 -0.49167,10.48515 -0.22239,14.28227 m 1.02185,-26.11503 c -0.53433,11.1384 -1.27256,19.83422 -3.76821,29.51073 -1e-5,0 -1e-5,0 -1e-5,0 -2.49648,9.67973 1.54869,19.19759 4.6125,27.6375 0.80588,2.21994 1.05767,4.72941 0.92299,7.44345 m -6.3646,-6.64028 c -0.9919,9.39675 0.29789,18.62263 0.92911,25.88435 10e-6,0 10e-6,0 10e-6,0 0.63143,7.26413 -0.0552,20.3074 -0.19688,30.89999 0,0 0,0 0,10e-6 -0.0691,5.16535 -0.15849,10.04337 -0.31314,14.84173 m 0.7508,-21.99747 c 0.16023,10.45533 1.67516,20.07413 5.03421,30.21454 1e-5,0 1e-5,0 1e-5,0 3.36017,10.14379 -1.3082,19.86976 -3.88125,29.57812 0,0 0,10e-6 0,10e-6 -1.19944,4.52558 -1.01776,9.14841 -0.23413,13.77553 m 2.51831,-23.71992 c -0.188,10.02415 -1.22236,19.09605 -3.71231,27.3181 0,0 0,0 0,0 -2.49078,8.22479 -0.65515,20.11519 -1.96875,30.39375 -0.36347,2.84408 -0.40877,5.74941 -0.22001,8.73265 m 4.60067,-10.26519 c -0.58932,9.53882 0.47718,21.14341 1.40684,33.44983 0.16119,2.13379 0.25714,4.09484 0.30212,5.91944 -8.05218,0.4355 -17.26377,-2.23253 -26.0866,-4.06642 -4.34978,-0.90413 -8.65596,-0.88777 -13.05798,-0.40308 m 20.85518,2.02268 c -10.98903,0.84139 -20.38432,-1.43168 -31.17026,-4.3321 0,0 0,0 0,0 -10.78954,-2.90138 -20.01027,0.75683 -30.02813,2.27813 -4.54268,0.68984 -9.22915,0.75556 -14.06073,0.62589 m 20.04684,0.67679 c -9.49971,-0.44964 -18.63152,-0.57562 -25.85612,-1.71518 -1e-5,0 -1e-5,0 -1e-5,0 -7.22701,-1.13994 -21.46169,-0.34645 -34.35937,-1.06875 0,0 0,0 0,0 -0.39653,-0.0222 -0.78662,-0.0422 -1.17055,-0.0599 -0.66047,-2.80839 -0.86048,-5.45396 -0.76281,-7.97692 m 8.59852,9.96739 c -2.57901,-0.18354 -5.05286,-0.27469 -7.42762,-0.30878 0.50077,-7.55057 1.85027,-14.61241 3.89639,-22.07101 0,0 0,0 0,-10e-6 2.74618,-10.01048 -0.66368,-20.12826 -1.94062,-30.39374 -0.3895,-3.13119 -0.47949,-6.21755 -0.37787,-9.28149 m 0.85616,15.00608 c 0.16754,-9.2664 -1.39286,-19.64753 -4.16267,-28.97823 0,0 0,0 0,0 -2.77073,-9.33382 0.40188,-18.62711 1.20937,-25.86562 0,0 0,-1e-5 0,-1e-5 0.21713,-1.94635 0.35673,-4.362 0.46542,-7.08685 m -2.19667,10.03835 c -0.008,-10.22154 1.30027,-20.3702 3.9375,-31.1429 2.63812,-10.77628 -1.20478,-20.79157 -3.57187,-32.41874 0,0 0,0 0,-10e-6 -0.96011,-4.71606 -1.11118,-8.65073 -0.92627,-12.12693 m -0.059,26.43703 c -0.88846,-9.0797 1.03718,-20.37148 3.12276,-31.14405 0,0 0,0 0,0 2.08627,-10.77615 0.5959,-21.94606 1.77187,-35.79374 0,0 0,0 0,-10e-6 0.5746,-6.76618 0.40071,-11.55695 -0.10509,-15.72128 m -1.19438,25.17131 c 0.52426,-9.26717 0.19827,-20.79727 0.61822,-32.35323 1e-5,0 1e-5,0 1e-5,0 0.42009,-11.55981 -0.64225,-20.06781 -1.94063,-30.19687 0,0 0,0 0,0 -0.55453,-4.32604 -0.49587,-8.22038 -0.12438,-11.71519 m -2.69209,22.85564 c -0.84223,-9.27614 0.17233,-20.20644 0.47897,-30.60947 0,0 0,0 0,-10e-6 0.30674,-10.40649 -0.50638,-20.50187 -1.49062,-31.49061 0,0 0,-10e-6 0,-10e-6 -0.49053,-5.47657 -0.43472,-10.57921 -0.19686,-15.67388 m 1.42578,27.21573 c 0.79572,-8.97726 0.25761,-21.1367 0.81482,-33.42227 1e-5,-1e-5 1e-5,-1e-5 1e-5,-1e-5 0.5574,-12.28966 0.21722,-19.83552 0.61874,-29.46562 0,0 0,0 0,0 0.18012,-4.31982 0.35857,-8.60999 0.64211,-12.77449 m 3.16219,17.63338 c 1.17005,-9.49115 0.18063,-19.82914 0.58946,-29.45613 0.40895,-9.6302 -0.64854,-19.2298 -1.94063,-27.66562 0,0 0,0 0,0 -0.57455,-3.75116 -0.89087,-8.45443 -1.28893,-13.69987 m 4.80751,21.84653 c -0.16896,-9.06218 -0.73332,-22.17335 -2.2217,-36.51594 -1.48889,-14.34736 -0.40112,-19.30628 -1.18125,-27.94687 0,0 0,0 -1e-5,0 -0.29204,-3.23466 -0.44831,-6.74624 -0.58998,-10.31965 m 2.21419,21.01464 c -0.79536,-11.16673 0.28326,-20.20938 0.81642,-30.6357 0,0 0,-1e-5 0,-1e-5 0.53334,-10.42979 -1.02717,-20.12977 -3.09375,-30.36561 0,-10e-6 0,-10e-6 0,-10e-6 -0.76759,-3.80187 -0.88034,-7.572 -0.65801,-11.34698 m -4.78471,23.24671 c 1.03069,-9.41639 1.73765,-20.0002 5.25835,-30.0187 0,0 0,-1e-5 0,-1e-5 3.52186,-10.02184 -0.97393,-21.17254 -2.925,-33.51561 0,-10e-6 0,-10e-6 -1e-5,-10e-6 -0.6256,-3.95775 -0.92257,-7.38326 -1.08268,-10.5095 m 4.68481,18.05476 c -0.58321,-5.64186 -0.97175,-11.50404 -1.75486,-17.41775 3.61768,-0.0702 7.03149,-0.16696 10.02261,-0.22767 7.15479,-0.14524 21.76991,-0.64985 35.34375,-1.9125 0,0 0,0 0,-10e-6 6.52633,-0.60708 11.09527,-0.61887 14.89774,-0.4605 m -56.89237,2.12578 c 10.1363,-0.34618 18.85886,0.1721 26.58673,0.56285 0,0 0,0 0,0 7.73045,0.39088 20.42405,-1.65067 31.29375,-4.95 3.71885,-1.1288 7.37522,-1.39387 11.07293,-1.19298 m -16.72475,0.96125 c 9.88437,-0.47668 20.02405,0.96328 30.10261,2.84111 10.08192,1.87844 18.36382,-0.91623 25.10625,-2.75625 0,0 0,0 0,0 2.34629,-0.64032 5.632,-0.81711 9.44705,-0.76507 m -14.09037,1.54517 c 7.44278,-0.9551 16.53881,0.44745 25.34387,2.1921 0.0853,1.96939 0.15957,3.95176 0.20844,5.93221 0.29987,12.15303 1.34862,18.80578 4.07812,26.4 0,0 0,0 10e-6,0 0.88586,2.46472 1.18535,5.52168 1.17983,8.92558 m -8.31508,-13.49712 c -0.87025,10.59477 0.25888,18.6479 0.78837,25.99565 0.52966,7.35019 1.20565,21.09505 3.57187,33.29062 0,0 0,0 1e-5,0 0.97593,5.02997 0.90893,9.12106 0.29936,12.73803 m 3.44148,-21.41156 c 0.2246,10.67114 -0.0436,20.89679 -0.16897,32.74557 0,0 0,10e-6 0,10e-6 -0.12539,11.85273 -0.8849,18.78632 -2.61562,26.34374 -0.69186,3.02106 -0.95286,6.80803 -1.11536,10.89431 m -4.2821,-12.57954 c -0.57916,11.13707 1.6807,17.83828 5.06308,23.57635 0,0 0,0 0,0 3.38351,5.74 -0.0778,20.42228 -0.25312,31.2375 0,0 0,0 -10e-6,0 -0.0805,4.96762 -0.44031,9.7081 -1.12597,14.45823 m 1.63145,-16.49144 c -0.77757,10.73534 -1.10881,18.90889 -3.3461,26.78301 0,0 0,1e-5 0,1e-5 -2.23803,7.87674 -0.0478,21.76153 -0.1125,35.25936 0,1e-5 0,1e-5 0,1e-5 -0.0196,4.09076 -0.057,7.32947 -0.1165,10.00689 m 1.94997,-24.9646 c -0.90738,10.2131 0.73333,21.74933 2.19466,35.24916 0,0 0,0 0,0 1.46181,13.50433 -0.21165,19.4819 -0.64688,28.45312 0,0 0,0 0,0 -0.12043,2.48235 -0.10469,5.05483 0.0184,7.65201 m 0.47724,-15.50887 c -1.17928,10.21263 -0.008,21.04073 -0.0269,33.13979 -0.0191,12.10308 -0.39671,20.51971 -1.18125,31.60312 0,0 0,0 0,0 -0.33737,4.7661 -0.14754,9.00859 0.38516,12.98572 m -1.71697,-20.81081 c -0.56171,9.54722 -0.2106,19.69894 -0.59006,29.09045 -0.37959,9.39463 0.96342,20.73292 2.89687,32.22187 0,0 0,0 0,0 0.52743,3.13412 0.84738,5.89319 1.07812,8.36843 m -3.57144,-21.72753 c 0.43104,9.81981 0.7539,21.44801 2.2777,34.34955 0,0 0,0 0,10e-6 1.5243,12.90584 0.13148,18.79397 0.36562,26.34374 0,0 0,0 0,0 0.0721,2.32496 0.20225,5.28472 0.40995,8.66438 m -0.15984,-15.40925 c 0.11289,9.92215 0.85731,20.53173 2.55927,31.62132 0,0 0,0 0,10e-6 1.70252,11.09329 -2.09572,19.16989 -6.32813,27.52499 0,0 0,0 0,0 -1.12151,2.21395 -1.63427,4.71123 -1.77444,7.39924 m 2.20642,-6.71832 c 0.7295,10.76394 -0.79921,19.71126 -2.39136,29.14548 -1.59267,9.43736 1.8812,18.2494 5.59688,24.76874 0,10e-6 0,10e-6 0,10e-6 1.22045,2.14133 1.65439,5.26435 1.69579,8.99797 m -0.13593,-12.51959 c 0.48584,9.9214 -1.27241,19.41159 -3.82548,28.2182 -0.25608,0.88332 -0.46852,1.78903 -0.64507,2.71356 -10.58156,-0.70123 -18.27375,0.11361 -28.68126,-0.12739 -3.57347,-0.0827 -6.66761,-0.0329 -9.42052,0.12581 m 19.44575,-0.76014 c -9.50018,0.0374 -19.33512,-0.10852 -28.02174,-0.30942 0,0 0,0 -1e-5,0 -8.68951,-0.20095 -20.01743,0.77737 -30.02812,2.33438 0,0 0,0 0,0 -4.80338,0.74709 -10.06112,1.01883 -15.77744,1.33145 m 23.40873,-0.98747 c -9.57527,0.23397 -19.66621,-0.0319 -29.03417,-0.0846 -8.92765,-0.0502 -19.02723,-0.71421 -28.62933,-2.11947 -0.004,-0.543 -0.006,-1.08782 -0.007,-1.63449 -0.008,-4.22329 -0.19037,-8.11966 -0.55149,-11.91627 m 1.11496,13.94622 c -1.95547,0.17876 -3.82782,0.26834 -5.63043,0.28643 0.0751,-8.09602 1.55929,-17.63621 3.23883,-27.0132 2.05391,-11.46703 -0.91651,-19.6838 -2.72812,-29.1 0,0 0,0 0,0 -0.50127,-2.60547 -0.65637,-5.20288 -0.5809,-7.75499 m 0.54044,18.18465 c 0.16786,-9.29459 -0.91214,-19.80336 -2.72829,-29.42821 0,0 0,0 0,0 -1.81675,-9.62806 -0.53364,-20.77446 -1.63125,-32.36249 0,0 0,0 0,-10e-6 -0.38303,-4.04383 -0.48712,-7.58257 -0.4524,-10.81704 m 7.72754,18.68687 c 0.13931,-10.04301 -1.62104,-19.3073 -4.86577,-27.93683 -3.24581,-8.63241 1.0176,-22.17178 3.09375,-36.52499 0,-10e-6 0,-10e-6 0,-10e-6 0.88266,-6.1021 0.81063,-10.47775 0.25927,-14.13088 m 2.78486,25.30572 c 0.37407,-10.05336 -0.45423,-20.79605 -1.40662,-32.38057 -1e-5,0 -1e-5,0 -1e-5,0 -0.9527,-11.58838 -1.68089,-20.97159 -5.09062,-32.95312 0,0 0,0 0,0 -1.5162,-5.32782 -1.3889,-9.81684 -0.52042,-13.98916 m 1.56018,26.99197 c -0.86086,-9.16405 0.30699,-20.54369 0.92899,-31.59396 0,0 0,0 0,0 0.62221,-11.05396 -0.63139,-19.11444 -1.94062,-27.38437 0,0 0,0 0,-1e-5 -0.34054,-2.151 -0.51147,-4.61608 -0.58246,-7.30385 m 3.19913,10.82535 c 1.04847,-10.38933 0.33381,-19.3527 0.9552,-28.02086 0,0 0,0 0,0 0.62159,-8.67104 -1.29798,-20.54419 -3.9375,-31.60312 0,0 0,0 0,0 -0.68396,-2.86562 -0.91369,-5.56653 -0.82623,-8.15837 m 5.86938,15.92588 c -0.59995,-10.46442 -1.43153,-19.67884 -4.2744,-29.03328 0,0 0,0 0,0 -2.84382,-9.35755 1.10188,-21.92212 3.34687,-35.73749 0,-10e-6 0,-10e-6 1e-5,-10e-6 0.61461,-3.78225 0.91045,-6.9008 1.02672,-9.59028 m -1.02035,17.52568 c 0.12144,-9.59391 -0.3496,-19.53299 -1.097,-28.61228 -0.74765,-9.08231 0.73708,-19.53359 2.16562,-28.64999 0,-10e-6 0,-10e-6 0,-10e-6 0.49015,-3.1279 0.49246,-6.37382 0.17921,-9.63246 m -0.92982,14.53327 c -0.61849,-10.30581 -1.15178,-20.42293 -3.45876,-31.31156 0,-1e-5 0,-1e-5 0,-1e-5 -2.30775,-10.89226 1.31622,-19.40264 3.99375,-28.17187 0,0 0,0 0,0 1.32658,-4.34472 1.33043,-9.11951 0.98358,-13.88107 m -2.53667,20.98001 c 0.0372,-9.51894 -0.3553,-19.39206 -1.06879,-28.16235 0,0 0,0 0,-1e-5 -0.71372,-8.77321 0.99998,-18.82553 3.0375,-26.48437 0,0 0,0 1e-5,0 0.5996,-2.25383 0.76601,-5.08009 0.65421,-8.30077 m -2.71899,8.78085 c 0.85262,-10.89478 1.36687,-19.39883 4.1054,-28.1891 2.73944,-8.79321 0.35556,-18.79356 1.06875,-26.42813 0,0 0,0 0,0 0.15913,-1.70349 0.14988,-3.68809 -0.003,-5.87478 0.27154,0.006 0.54062,0.008 0.80729,0.007 m -4.97287,-1.44429 c 9.5841,0.84209 18.87271,-0.39139 26.67166,-1.15397 7.80155,-0.76282 21.00021,-0.8549 32.95312,-2.53124 0,0 0,0 0,0 3.214,-0.45075 6.12755,-0.60071 8.8538,-0.54717 m -17.00132,6.26907 c 11.0741,0.0271 21.64726,-1.41783 34.96705,-4.27503 0,0 0,0 0,0 13.32423,-2.85815 19.41781,1.00168 28.25625,3.0375 2.998,0.69055 6.19762,0.84587 9.46384,0.70529 m -17.08678,-5.37067 c 7.83283,0.20199 16.30518,-0.46932 24.40284,-1.6139 -0.0441,1.44962 -0.10345,2.87991 -0.18652,4.29416 0,0 0,0 0,0 -0.49418,8.41314 0.11011,19.90908 0.28125,29.74687 0,10e-6 0,10e-6 0,10e-6 0.05,2.87583 -0.0925,5.90016 -0.41416,9.0596 m 0.21181,-14.44485 c 0.77638,8.98614 -0.67594,20.43015 -2.0539,31.34101 -1.37841,10.91449 -1.12361,19.47707 -3.40312,28.42499 0,10e-6 0,10e-6 0,10e-6 -0.59958,2.35356 -0.84995,4.84217 -0.87458,7.4075 m 5.475,-14.47812 c 0.42107,10.61415 -0.15029,19.64101 -0.4223,28.92063 -0.2721,9.28272 0.59627,20.63332 1.74375,31.88438 0,0 0,0 0,0 0.33096,3.24502 0.50356,6.29296 0.5999,9.2351 m 0.29097,-8.29585 c 0.24294,9.01302 -0.59702,18.62745 -1.77212,25.91286 0,0 0,0 0,0 -1.17549,7.28783 -0.67784,20.33411 -2.08125,31.04062 0,0 0,0 0,0 -0.3897,2.97295 -0.55503,5.88649 -0.58553,8.78629 m 1.64721,-13.8386 c -0.82337,9.66818 0.39826,18.62104 1.2102,25.82783 0,0 0,0 0,0 0.8122,7.2092 -1.65648,19.96488 -4.95,29.91562 0,0 0,0 0,10e-6 -1.35518,4.09439 -1.43843,8.36461 -0.94146,12.8018 m 9.27861,-20.71305 c -0.3474,9.59367 -1.65391,19.17436 -4.97778,27.57166 0,0 0,0 0,0 -3.32498,8.4001 0.61699,20.44062 1.82812,31.32187 0,0 0,0 1e-5,0 0.31028,2.7877 0.47203,5.46731 0.54635,8.08359 m -5.29412,-9.15554 c -0.88907,10.05282 0.10706,19.99146 0.36651,29.96182 10e-6,0 10e-6,0 10e-6,0 0.25953,9.97368 0.1165,20.68996 0.39374,32.08124 0,0 0,0 1e-5,10e-6 0.10947,4.49801 0.21075,8.5639 0.35757,12.45432 m 0.80819,-26.09737 c 0.14033,9.90282 -0.094,19.60875 -0.25326,28.80885 -1e-5,0 -1e-5,0 -1e-5,0 -0.15928,9.20317 0.11349,20.94503 0.36563,32.78437 0.0781,3.66906 0.18587,6.92679 0.34683,9.93697 m -0.0242,-17.01722 c 0.73081,9.4345 1.17804,19.0914 3.57114,27.26244 2.3939,8.17376 -1.2522,21.38023 -3.79687,34.10624 0,0 0,0 0,10e-6 -1.0719,5.3606 -1.05855,9.71857 -0.53167,13.68765 m 6.20942,-24.11374 c -0.3661,10.625 -1.63985,21.8832 -4.86525,35.61437 -1e-5,0 -1e-5,0 -1e-5,0 -3.22647,13.73574 0.25606,19.63859 0.7875,28.95937 0,0 0,0 1e-5,0 0.1486,2.60638 0.18423,5.31027 0.14282,8.06644 m 1.42239,-12.62323 c -0.41249,10.67959 -1.00731,19.5155 -3.00897,28.58307 0,0 0,0 0,0 -2.00232,9.0706 1.56349,19.09887 4.725,27.32812 0,0 0,1e-5 1e-5,1e-5 1.48301,3.8602 1.60919,8.46505 1.35543,13.26561 m -5.8878,-20.57651 c -1.11322,9.02301 0.82707,19.57604 2.47611,28.69722 0.14643,0.80992 0.27318,1.64262 0.38373,2.49625 -7.97743,-0.34919 -17.66107,1.50797 -25.27389,3.56984 -2.7604,0.74762 -5.98437,0.81959 -9.49498,0.46121 m 11.81367,-0.78004 c -11.10112,-0.0753 -20.0706,-0.57385 -30.27014,-1.68743 0,0 0,0 -1e-5,0 -10.20294,-1.11395 -19.71686,-0.45343 -29.15624,-1.32187 0,0 0,0 0,0 -4.61222,-0.42433 -9.38129,-0.20271 -14.11272,0.35985 m 22.24293,6.06448 c -10.32493,-0.66589 -21.0361,-2.06293 -33.16779,-6.18683 -11.46021,-3.89564 -18.72147,-0.62525 -27.2179,-0.61295 0.0558,-0.55593 0.10734,-1.12317 0.15346,-1.70387 0.2325,-2.92731 0.34227,-5.72573 0.38454,-8.42293 m 7.35805,13.61773 c -1.55514,-0.0236 -3.12538,-0.0643 -4.70076,-0.12414 0.49206,-8.61982 0.85731,-17.71364 2.32068,-27.54259 0,-10e-6 0,-10e-6 0,-10e-6 1.75836,-11.81039 -1.57048,-18.94037 -4.75313,-26.82187 0,0 0,0 0,0 -1.57374,-3.8972 -1.17813,-9.14286 0.0319,-14.97088 m -0.26,17.44237 c -0.009,-9.35101 0.94618,-20.19741 2.84063,-30.55315 0,0 0,0 0,0 1.89508,-10.35919 0.38876,-20.27235 1.15312,-30.84375 0.26898,-3.72003 0.29166,-7.20284 0.16686,-10.52122 m -3.0114,23.16847 c -0.79461,-9.4631 1.40379,-19.86542 4.24767,-29.56866 0,0 0,0 0,0 2.84482,-9.70648 -1.72565,-20.94962 -5.175,-32.84062 0,0 0,0 0,-1e-5 -1.35866,-4.68372 -1.6106,-8.6504 -1.38652,-12.24425 m -0.28256,19.58251 c -0.32618,-11.06378 2.099,-20.21083 6.30033,-30.69206 4.20273,-10.48472 -0.45504,-18.71525 -1.32187,-26.17499 0,-10e-6 0,-10e-6 0,-10e-6 -0.3516,-3.02572 -0.65517,-7.08904 -1.08465,-11.67989 m -1.50905,15.17419 c 0.0563,-9.24806 0.15051,-20.2116 0.42182,-30.66575 0,0 0,0 0,0 0.2714,-10.45763 0.33708,-19.89986 1.0125,-29.71874 0,-10e-6 0,-10e-6 0,-10e-6 0.16974,-2.46758 0.22386,-4.94704 0.19505,-7.43001 m -0.0232,13.69265 c -0.0662,-9.82841 -1.02555,-20.3198 -3.06556,-30.97454 0,0 0,0 0,0 -2.04069,-10.65829 1.35249,-17.67238 4.07812,-23.05312 0,0 0,-1e-5 0,-1e-5 1.22532,-2.41892 1.40159,-6.79075 1.27226,-11.8608 m -2.98068,15.3747 c 0.94456,-9.26613 -1.10535,-19.23379 -3.29158,-27.71261 0,0 0,0 0,0 -2.18694,-8.48165 1.23102,-21.78071 3.65625,-35.34374 0,-1e-5 0,-1e-5 0,-1e-5 0.83212,-4.65357 1.12992,-8.48559 1.18928,-11.92586 m -1.18842,18.02774 c 0.85184,-9.23845 0.20341,-19.83876 0.64602,-29.48451 0,0 0,0 0,0 0.44276,-9.64897 -0.62182,-20.2455 -1.9125,-30.70312 0,0 0,0 0,0 -0.60796,-4.92593 -0.47972,-9.55196 -0.0217,-14.01731 m 1.31488,23.30639 c -0.54203,-10.0245 1.23495,-19.63337 3.71304,-28.8931 0,0 0,0 0,0 2.47891,-9.26282 -1.26642,-19.89716 -3.825,-29.71874 0,0 0,0 0,-10e-6 -1.21768,-4.67428 -1.19999,-9.48779 -0.77115,-14.38736 m 0.0246,21.94678 c 0.28985,-9.91267 -0.42347,-20.33831 -1.2378,-31.03071 0,0 0,0 0,0 -0.81459,-10.69597 -0.48394,-21.0837 -1.43437,-33.29062 0,-10e-6 0,-10e-6 0,-10e-6 -0.24071,-3.09156 -0.2368,-5.81859 -0.0342,-8.28927 m 3.76805,16.94462 c -0.48706,-9.00502 -0.5493,-20.66174 -1.60264,-31.95975 -1.05369,-11.30177 0.29427,-18.99988 0.84375,-26.96249 0,-10e-6 0,-10e-6 0,-10e-6 0.14204,-2.05826 0.21165,-4.33698 0.23752,-6.73092 1.90999,0.13971 3.79657,0.21774 5.67095,0.2753 m -1.54504,3.76257 c 10.82953,-0.82427 19.81046,-0.95213 29.39854,-2.81168 9.59129,-1.86017 18.56877,0.38898 25.66875,1.18125 0,0 0,0 1e-5,0 2.99767,0.3345 7.18205,0.35861 11.89743,0.25483 m -20.27164,-3.19614 c 10.45637,-0.68312 21.63604,0.17089 34.96766,0.47881 13.33607,0.30803 18.30893,0.19259 24.9375,0.5625 0,0 0,0 0,0 1.80824,0.10091 4.21334,0.11991 7.01095,0.0793 m -11.86388,0.43349 c 8.19953,0.20429 17.53851,-0.53479 27.53471,-1.77793 0.29863,1.35086 0.62059,2.68382 0.96267,4.00182 0,0 0,0 0,0 2.15804,8.31479 -0.14166,19.9411 -0.45,29.80312 0,0 0,0 0,0 -0.0992,3.17185 -0.24945,6.46169 -0.4821,9.85739 m -4.09253,-14.94533 c 0.37485,9.71518 0.70257,18.93318 2.10901,26.84028 0,0 0,0 0,0 1.4069,7.90974 -0.42119,21.72641 -1.2375,35.14687 0,0 0,0 -10e-6,10e-6 -0.30559,5.02404 -0.28294,9.11955 -0.063,12.82344 m 0.0717,-19.62024 c -0.69253,9.36047 0.0999,20.36763 0.28194,31.11563 0,0 0,1e-5 0,1e-5 0.18207,10.75158 -0.19531,20.16704 -0.5625,30.47812 0,0 0,0 0,0 -0.13244,3.71905 -0.0671,7.36223 0.14318,10.97312 m 0.93563,-25.45352 c 0.68288,11.07438 -0.52612,22.06695 -1.54756,36.17642 -1.02178,14.11418 -0.0183,18.6015 -0.0281,25.80937 0,0 0,10e-6 0,10e-6 -0.003,2.23374 0.0357,5.001 0.11419,8.05255 m -2.13328,-9.08251 c -0.33565,9.73398 1.93934,19.04885 5.76596,27.12151 0,0 0,0 0,10e-6 3.82789,8.07535 -0.62395,19.29436 -1.82812,27.83437 -0.53429,3.78914 -0.70924,8.13981 -0.83992,12.6675 m 0.54971,-16.9152 c 0.42104,9.60226 -0.20858,18.01858 -0.61917,24.05602 0,0 0,0 0,0 -0.41073,6.03945 0.18129,20.01257 0.53438,30.08437 0.16631,4.74419 0.14224,9.54725 0.0391,14.42987 m -3.34805,-20.79625 c 0.42221,10.84906 1.55946,21.03187 4.69646,33.13915 3.13803,12.11131 -1.87832,18.87128 -5.59688,26.59687 0,0 0,0 0,0 -1.80605,3.75221 -1.88411,8.47527 -1.51254,13.38487 m 4.57421,-15.10194 c -0.83331,9.85663 -0.48314,20.52025 -1.48979,31.53702 -1.00699,11.02044 -0.0467,18.99776 -0.16875,26.9625 0,0 0,0 0,0 -0.0382,2.49163 0.0473,5.4913 0.24558,8.81332 m 4.33645,-15.71006 c 0.78591,11.07297 -0.42569,19.94307 -1.32266,29.8483 0,0 0,0 0,10e-6 -0.89727,9.90853 -0.57184,20.76394 -1.74375,32.27811 0,0 0,10e-6 0,10e-6 -0.53599,5.26617 -0.7318,9.81602 -0.92233,14.08749 m 0.31376,-24.79804 c 0.80598,10.95156 1.60315,20.35092 4.8367,31.05779 0,0 0,1e-5 0,1e-5 3.23462,10.71044 -0.9122,20.00475 -2.7,30.02812 0,0 0,0 -1e-5,0 -0.77577,4.34941 -0.79962,8.51461 -0.50877,12.49758 m -1.76001,-19.19581 c -0.0363,10.33412 1.66943,20.76355 4.97816,32.29592 3.30983,11.5362 -1.32633,19.73335 -3.9375,29.15624 0,0 0,0 0,1e-5 -1.08971,3.93241 -1.16814,8.05642 -0.8053,12.24776 m 1.19382,-19.1635 c 1.02032,10.62361 0.21272,19.79851 0.67398,29.37062 0.0776,1.60988 0.1075,3.25054 0.0961,4.91571 -8.37494,-0.0797 -17.76069,0.44091 -27.38667,0.80313 -4.41096,0.16599 -8.24923,0.0421 -11.77462,-0.30102 m 19.19079,1.20497 c -9.79009,0.82277 -18.98769,-1.29475 -26.95271,-3.88207 0,0 0,0 0,0 -7.96768,-2.58818 -20.85843,1.46808 -32.5875,4.41562 0,0 0,0 0,0 -3.57761,0.89907 -6.71629,1.19963 -9.56353,1.15293 m 20.8311,-3.00256 c -10.03462,0.36489 -20.77771,-0.18251 -32.38058,-0.59099 0,0 -1e-5,0 -1e-5,0 -11.60673,-0.40861 -20.64526,-1.13478 -31.88437,-3.40312 0,0 0,0 0,-10e-6 -0.0622,-0.0126 -0.12429,-0.0249 -0.18626,-0.0371 -0.39193,-4.001 -0.36294,-7.39296 -0.0446,-10.41625 m 5.42591,14.95944 c -2.42454,-0.0479 -4.71746,-0.12703 -6.89636,-0.24546 0.46206,-8.07046 2.17465,-16.57203 4.4978,-25.79844 1e-5,0 1e-5,-10e-6 1e-5,-10e-6 3.02563,-12.01631 0.33965,-19.0904 1.04062,-27.24374 0,0 0,0 0,0 0.29596,-3.44241 0.10057,-7.68898 -0.4269,-12.32224 m -0.006,14.95925 c -1.18025,-10.15525 -1.45389,-19.19913 -4.38632,-27.5711 0,0 0,0 0,0 -2.93341,-8.37475 0.0498,-21.43273 0.19687,-34.275 0.0447,-3.90461 0.0725,-7.14486 0.0959,-9.959 m -0.74055,21.73791 c -0.8605,-9.47279 0.84493,-20.37448 2.50399,-31.11552 0,0 0,0 0,0 1.65962,-10.74463 -0.91257,-19.59704 -2.75625,-28.7625 0,0 0,0 0,0 -0.60197,-2.99257 -0.59243,-6.29711 -0.16443,-9.82537 m 6.06029,14.87799 c -1.01118,-8.86327 -0.55138,-18.62343 -1.65836,-25.88488 0,0 0,0 0,0 -1.10734,-7.26387 0.36173,-21.98566 1.125,-35.99063 0.21642,-3.97092 0.30043,-7.18399 0.30414,-9.91254 m -5.33276,16.96176 c -0.49535,-10.73618 1.05346,-20.17124 3.17862,-30.52364 0,0 0,0 0,0 2.12587,-10.35584 -0.10033,-18.76835 -0.28125,-26.34375 0,0 0,0 0,0 -0.0591,-2.4734 -0.11231,-5.43846 -0.17689,-8.64327 m -1.25431,15.4344 c 0.0464,-10.98026 -0.53616,-21.281 -1.60318,-33.89839 0,0 0,0 0,0 -1.06736,-12.62159 -0.47358,-18.89743 -1.40625,-26.7375 -0.24258,-2.03919 -0.27924,-4.37748 -0.15857,-6.90144 m 3.82997,13.55194 c -0.47751,-9.5102 -0.27851,-20.33917 -0.8714,-31.03111 0,0 0,0 0,0 -0.59308,-10.6955 1.05636,-20.46848 3.12188,-31.40624 0,0 0,-10e-6 0,-10e-6 0.66835,-3.53919 0.77337,-6.74858 0.52333,-9.72247 m -6.62453,17.14913 c -1.19715,-9.59381 1.28061,-19.38896 3.8262,-28.13415 0,0 0,0 0,0 2.54644,-8.74811 -0.44252,-19.5929 -1.37812,-28.79062 0,0 0,-1e-5 -1e-5,-1e-5 -0.26162,-2.57196 -0.29098,-5.319 -0.14837,-8.18746 m 2.24414,13.81768 c -1.10522,-9.12726 -1.2218,-21.52568 -3.65514,-34.54712 0,0 0,0 0,0 -2.43415,-13.02578 -0.33019,-18.81468 -0.98437,-26.4 -0.27876,-3.23221 -0.17155,-7.51912 0.16721,-12.29708 m -0.0298,19.99737 c -0.0563,-10.76374 -0.20007,-19.39864 -0.56245,-28.16111 -0.36249,-8.76539 2.11562,-19.27912 6.38438,-27.8625 0,0 0,0 0,0 1.80647,-3.63236 1.97994,-8.05893 1.48877,-12.95586 m -2.21111,15.82519 c -0.46899,-10.18416 -1.53076,-20.45483 -4.64016,-31.39607 0,0 0,0 0,0 -3.11043,-10.94488 -0.10881,-21.22223 -0.3375,-33.62812 0,0 0,0 0,0 -0.0591,-3.2068 0.0328,-5.97205 0.26365,-8.41973 0.28347,0.0138 0.56835,0.0308 0.85463,0.051 m 3.78731,6.00577 c 9.23909,1.08618 20.79808,0.73512 32.40951,2.16453 11.6153,1.4299 19.78277,-1.11966 29.35312,-3.37499 0,0 0,0 1e-5,0 3.30234,-0.77823 6.67502,-0.94087 10.06468,-0.76399 m -17.85529,3.30832 c 10.01522,0.58035 19.74347,0.1133 29.25873,0.30879 0,0 10e-6,0 10e-6,0 9.51843,0.19556 18.22152,-1.55717 24.71249,-4.64062 0,0 0,0 0,-10e-6 2.38557,-1.13323 5.93383,-1.37349 10.11998,-1.17772 m -14.70583,8.60549 c 9.14307,-0.29861 17.59836,-0.30665 26.93227,-0.63977 0.1812,1.54417 0.39468,3.0764 0.65148,4.59235 1.59701,9.42734 0.11511,18.61549 0.36563,25.8375 0,0 0,0 0,0 0.10014,2.88698 0.26918,6.89315 0.55614,11.48536 m -2.34353,-22.25632 c 0.11221,9.79185 -0.15838,21.62756 -0.47824,34.85583 0,0 0,10e-6 0,10e-6 -0.31996,13.23268 -0.31207,19.03693 -0.92812,27.15936 0,1e-5 0,1e-5 0,1e-5 -0.19453,2.56476 -0.20939,5.45142 -0.10347,8.48102 m -2.96604,-11.18505 c -0.75655,9.58398 2.34037,18.68158 7.03201,26.02478 0,10e-6 0,10e-6 0,10e-6 4.69321,7.34565 -1.71875,20.03559 -5.175,30.05624 0,0 0,0 0,0 -1.03398,2.9978 -1.45177,6.08729 -1.53029,9.27112 m 10.29195,-15.55288 c -0.84254,10.77443 -0.28479,21.40573 -0.87103,34.26422 -1e-5,0 -1e-5,0 -1e-5,0 -0.58643,12.86277 0.0297,18.79494 0.0844,26.4 0,0 0,0 0,0 0.0257,3.57483 -0.18007,8.46382 -0.60008,13.92515 m -7.72874,-20.24077 c -0.69257,9.51016 0.0341,20.26546 0.1132,30.83424 0,0 0,0 0,0 0.0791,10.5723 0.69195,21.00134 2.08124,32.98124 0,0 0,0 0,1e-5 0.36679,3.16275 0.5977,5.9631 0.76869,8.50995 m 1.26203,-16.96561 c -0.53381,10.81016 -0.49073,18.8359 -1.51822,26.52981 0,0 0,0 0,0 -1.02782,7.69648 0.31527,20.82879 0.98438,32.50312 0,0 0,0 0,0 0.2714,4.73519 0.47299,8.66927 0.73969,12.13971 m 0.18265,-23.45735 c 0.4672,10.90486 -1.16025,20.49077 -3.51609,31.50784 -2.35662,11.02075 0.64238,18.79113 1.96875,26.4 0,0 0,0 0,0 0.66363,3.80698 0.53057,9.38731 0.0975,15.83719 m 0.7394,-21.82408 c -0.61862,9.97883 -1.35728,21.31347 -4.0775,33.92752 -2.72114,12.61825 -0.30052,19.12326 -0.92813,27.32812 0,0 0,0 0,0 -0.22698,2.96738 -0.11639,6.39965 0.24484,10.04318 m 6.19798,-14.90856 c -0.92712,10.26732 -0.81885,18.83977 -2.47407,26.55848 -1.65577,7.72129 0.71669,19.66932 2.1375,28.9875 0,0 0,0 0,0 0.54438,3.57023 0.61453,7.56158 0.45253,11.86133 m -0.26608,-15.53071 c -1.04905,10.18388 -1.20196,20.02036 -3.62707,30.07419 -1e-5,0 -1e-5,0 -1e-5,0 -2.42592,10.05718 0.3916,21.07159 1.125,33.17812 0,0 0,10e-6 0,10e-6 0.2588,4.27206 0.43066,7.76989 0.61228,10.76972 m -0.75609,-19.29719 c -0.0646,10.10968 1.3846,21.03582 4.19069,33.13989 2.80703,12.1081 0.47449,19.77362 1.4625,29.35312 0,0 0,0 0,0 0.34864,3.38035 0.41201,6.83359 0.31861,10.30463 m -6.68801,-18.14088 c -0.64571,10.69763 0.13366,18.50583 0.36627,25.4893 0.0313,0.94061 0.0566,2.02452 0.0775,3.22974 -8.51911,-0.90776 -17.21629,3.19459 -25.61624,6.46275 -4.72399,1.83796 -9.73008,1.46747 -14.91197,0.19101 m 20.46505,-0.80978 c -10.65151,-0.0183 -19.52572,0.58656 -28.61121,1.71564 -9.08852,1.12947 -19.68112,-0.59738 -29.04375,-1.77187 0,0 0,0 0,0 -4.20899,-0.52799 -8.73141,-0.81748 -13.38982,-1.1843 m 22.94246,-4.7552 c -11.13932,1.12441 -21.20325,1.92801 -33.58886,5.7645 0,0 0,0 0,0 -12.38973,3.83777 -19.41732,-1.04478 -28.25624,-3.12187 -1e-5,0 -1e-5,0 -1e-5,-10e-6 -0.0372,-0.009 -0.0744,-0.0174 -0.11166,-0.026 0.45458,-4.82508 0.4177,-9.13306 0.11082,-13.32344 m 5.67735,16.46098 c -2.54515,-0.2339 -4.99509,-0.32341 -7.37802,-0.30872 -0.008,-7.56936 0.66924,-14.07179 1.10974,-20.82383 1e-5,0 1e-5,0 1e-5,0 0.57836,-8.86515 -0.86804,-21.784 -2.55938,-35.34375 -0.83467,-6.6917 -0.60219,-11.33276 0.0823,-15.20917 m 2.3027,24.06115 c 0.60835,-10.6323 -0.0178,-18.78265 -0.0287,-26.36124 0,0 0,0 0,0 -0.011,-7.58111 0.43674,-21.82966 1.26562,-35.45624 0,-10e-6 0,-10e-6 1e-5,-10e-6 0.24068,-3.95678 0.35012,-7.14739 0.38795,-9.8393 m 2.25349,18.90096 c 0.82341,-10.92368 -0.3347,-20.64944 -1.04144,-31.9297 -0.70699,-11.28402 -1.0878,-20.21708 -3.29063,-30.67499 0,0 0,0 0,-10e-6 -0.89994,-4.27244 -0.99234,-8.34545 -0.72619,-12.31225 m 5.38176,26.45276 c -0.68387,-9.08925 -0.94387,-20.66249 -2.81182,-32.0159 -1.86857,-11.3572 1.17367,-20.08426 3.54375,-30.225 0,0 0,0 0,0 1.0215,-4.37064 1.01185,-8.69423 0.53915,-13.00681 m -5.94258,17.66924 c -0.30816,-10.96971 1.06234,-19.48551 3.15031,-28.47028 2.08866,-8.98776 -0.002,-20.20331 -1e-5,-30.61875 0,0 0,0 1e-5,0 8.2e-4,-3.57361 -0.22915,-7.03734 -0.6912,-10.44146 m -1.98348,17.18374 c 0.32668,-9.46335 -1.3597,-20.24917 -4.07845,-30.77804 0,0 0,0 0,0 -2.71965,-10.53237 1.97812,-20.81305 5.93437,-32.39062 0,0 0,0 1e-5,0 1.63945,-4.7977 1.79231,-8.78734 1.30398,-12.30446 m -4.57258,24.77036 c 0.15077,-10.72676 1.53696,-20.09427 4.64047,-30.29864 0,0 0,0 0,0 3.10454,-10.20778 0.52213,-19.48922 1.51875,-28.425 0.45874,-4.11309 0.41167,-8.8439 0.14773,-13.87845 m -2.03143,14.36964 c 0.67332,-10.88606 -0.82623,-20.36467 -2.44755,-31.05786 0,0 0,0 0,0 -1.62186,-10.69676 -0.74456,-18.91815 -2.27812,-26.79375 0,0 0,0 -1e-5,0 -0.55463,-2.8483 -0.59902,-6.14769 -0.35072,-9.59847 m 3.47191,14.01152 c -0.69352,-9.47156 -1.38229,-18.52113 -4.16181,-25.5749 0,0 0,0 0,0 -2.78044,-7.05612 1.87037,-20.15643 5.56875,-30.42187 0,0 0,0 0,0 1.52176,-4.22389 1.51963,-8.38396 0.76479,-12.53487 m 0.12298,20.96341 c 0.27088,-11.04475 -0.81462,-19.72672 -2.47527,-29.14521 0,0 0,0 0,0 -1.66121,-9.42162 1.46751,-21.08852 4.44375,-33.23437 0,0 0,0 0,0 1.01826,-4.15546 1.12733,-7.7299 0.68318,-10.98077 m -6.2212,18.57959 c -0.52313,-9.76308 1.50649,-20.59727 4.50052,-31.81836 0,0 0,0 0,0 2.99502,-11.22483 -1.06534,-21.05175 -3.15,-33.20625 0,0 0,0 0,0 -0.54425,-3.17324 -0.77092,-5.9388 -0.79192,-8.41238 m 0.60098,19.08515 c -0.17418,-5.42379 -0.34639,-11.12932 -0.67145,-17.07689 4.26263,-0.40071 8.4201,-0.96792 12.3841,-1.67898 0,0 0,0 0,0 8.74622,-1.56889 19.91807,2.32058 29.71874,6.975 1e-5,0 1e-5,0 1e-5,0 3.96565,1.88332 8.2778,2.21937 12.89642,1.93337 m -54.26748,-10.34705 c 10.54919,-1.17886 20.46364,0.63718 31.3957,1.91368 0,0 0,0 0,0 10.9357,1.27693 19.22791,0.0989 27.72188,0.25312 3.66917,0.0666 7.83037,-0.0177 12.11722,-0.21929 m -18.05628,-0.6647 c 10.62313,0.3847 19.08059,1.43521 27.23312,4.30274 0,1e-5 0,1e-5 0,1e-5 8.15525,2.86848 19.40831,-1.46199 28.2,-4.41563 3.2483,-1.09129 7.11685,-1.40069 11.42441,-1.37347 m -11.85407,5.99119 c 9.13072,-0.87553 17.10676,-1.15296 25.33781,-2.73763 -0.0466,1.2219 -0.0852,2.40292 -0.10806,3.53253 0,0 0,0 0,0 -0.15212,7.52008 -0.56683,20.31476 -1.65937,30.95625 0,0 0,0 -10e-6,0 -0.38019,3.70313 -0.37807,7.22354 -0.13256,10.64126 m -0.28577,-16.71365 c 0.41147,11.07232 -0.5034,18.96727 -1.54729,26.9233 0,0 0,0 0,0 -1.04424,7.95869 0.66174,19.64068 2.025,28.95937 0,1e-5 0,1e-5 0,1e-5 0.42115,2.8788 0.70389,6.05943 0.96952,9.4808 m 0.14049,-15.75509 c 0.63705,10.44701 0.92133,21.62952 2.81187,34.91143 0,0 0,0 0,0 1.89116,13.28634 -0.0751,19.13478 -0.25313,27.44062 0,0 0,0 0,0 -0.0811,3.78258 -0.24915,8.1704 -0.55274,12.6838 m -5.47732,-19.10977 c 1.18962,10.66161 1.46771,20.63436 4.41443,31.92996 2.94771,11.29936 -1.80005,18.2901 -5.42812,24.90937 0,0 0,0 0,0 -1.62392,2.96278 -1.76323,7.4718 -1.39255,12.615 m 5.73902,-16.07882 c -0.40244,9.17319 0.0137,20.22364 0.0285,30.6377 0,0 0,0 0,0 0.0148,10.41753 -0.71786,19.56834 -2.10937,28.73437 0,0 0,0 -1e-5,0 -0.63914,4.21012 -0.67295,8.89505 -0.50376,13.81467 m 2.00781,-20.48271 c 0.91728,10.27706 0.0963,19.41254 0.28033,28.27409 0.18412,8.86451 0.50837,21.35325 1.54687,34.07812 0,0 0,10e-6 0,10e-6 0.51757,6.34182 0.26963,11.20444 -0.36096,15.59605 m 1.65685,-30.6461 c -0.99254,10.1475 -0.66805,21.61728 -2.02401,34.8836 0,0 0,0 0,0 -1.35641,13.27074 0.21489,20.4551 0.61875,31.35 0,0 0,0 0,0 0.15671,4.22753 0.0301,8.11006 -0.30809,11.80526 m 0.1084,-20.69502 c 0.30836,10.11893 -0.75566,20.88229 -2.27844,32.66175 0,0 0,0 0,0 -1.52328,11.78339 0.0218,19.20117 0.1125,27.58125 0.0438,4.04552 0.0881,8.83703 0.16798,13.8314 m -2.22349,-16.93426 c 0.72986,10.63282 -0.25626,19.55709 -0.78823,28.63937 -1e-5,0 -1e-5,0 -1e-5,0 -0.53215,9.0853 0.85898,19.65806 2.55938,28.95937 0,0 0,0 0,0 0.68471,3.74542 0.99931,7.77119 1.27635,11.94344 m -1.46669,-22.76339 c 0.27985,9.60399 -1.3926,20.61668 -4.19091,31.81852 0,0 0,0 0,0 -2.79924,11.20557 0.48114,19.74673 1.43437,29.24062 0,0 0,0 1e-5,0 0.26282,2.61769 0.48146,5.29504 0.71564,8.00096 m 4.88981,-14.13204 c -0.79676,9.86617 -1.8174,20.78587 -5.48358,32.38076 -3.6674,11.59876 -0.0242,18.8636 -0.1125,26.625 0,0 0,0 0,0 -0.0437,3.83781 0.35093,8.91989 1.15053,14.43344 m 2.95635,-19.17188 c 0.62657,11.14691 -0.75786,18.54482 -2.25063,25.62948 -0.306,1.45227 -0.53847,3.19148 -0.736,5.14258 -8.71723,-0.38066 -16.9086,2.42829 -26.8289,4.04252 -4.59778,0.74815 -8.36047,1.08201 -11.66208,1.3082 m 22.20824,-1.88947 c -9.91276,-0.0183 -20.4807,0.55529 -31.48071,1.63127 0,0 0,0 0,0 -11.00367,1.07634 -17.98161,0.73524 -23.925,2.16562 0,0 0,0 0,10e-6 -1.5865,0.38181 -3.87038,0.48576 -6.62042,0.39336 m 8.63591,1.39219 c -9.9401,1.179 -19.38954,-0.43001 -28.16193,-1.29493 0,0 0,0 0,0 -8.77531,-0.86521 -21.16521,-1.32045 -33.48749,-3.96562 0,0 -1e-5,0 -1e-5,0 -0.48298,-0.10368 -0.95631,-0.19773 -1.42043,-0.28261 -0.69972,-4.62393 -0.53221,-8.38651 0.11993,-11.72323 m 10.56344,12.15583 c -2.52893,-0.003 -5.26048,-0.0469 -8.14444,-0.13237 -0.35253,-7.47165 -1.76318,-15.22936 -3.31312,-23.26651 -2.13887,-11.09107 1.396,-18.55624 4.19063,-25.66874 0,0 0,0 0,-10e-6 1.37368,-3.4961 1.54053,-8.29287 1.4949,-13.35747 m -2.95058,18.73355 c 0.57085,-9.51875 -0.11545,-19.10938 -0.3662,-27.37485 0,0 0,0 0,0 -0.25082,-8.26823 1.52652,-20.89416 4.52813,-32.67187 0,0 0,0 0,-10e-6 0.88917,-3.48893 1.29828,-6.58211 1.46009,-9.4195 m -6.22607,20.47903 c -0.35467,-9.511 1.48211,-21.52618 4.41598,-34.63111 0,0 0,0 0,0 2.93485,-13.1093 -1.37602,-19.86366 -4.10625,-29.55 -1.34469,-4.77072 -1.12178,-9.66191 -0.30603,-14.55759 m 2.38311,21.57084 c -1.03933,-9.28432 -0.66842,-18.43284 -2.05208,-25.35009 0,0 0,0 0,0 -1.38412,-6.91956 1.6337,-20.22004 4.89375,-30.70312 0,0 0,0 0,0 1.36687,-4.39534 1.56004,-8.78828 1.29973,-13.28439 m -7.03832,17.59316 c -1.08529,-10.22121 0.59007,-19.86525 1.74484,-29.59602 1.15515,-9.73402 1.24752,-19.26201 3.74062,-27.83438 0,0 0,0 0,0 1.05505,-3.6277 1.20469,-8.16188 1.01664,-13.27507 m -7.38218,19.08874 c 0.0758,-9.59461 1.38576,-20.58147 4.16242,-31.70603 0,0 0,0 0,0 2.77758,-11.12826 -1.16947,-21.17037 -3.4875,-33.48749 0,-10e-6 0,-10e-6 0,-10e-6 -0.97643,-5.18836 -1.11634,-9.51091 -0.94236,-13.48966 m 7.59748,23.80925 c -1.134,-10.87687 -2.26279,-20.62365 -6.77699,-31.84537 -4.51571,-11.22546 0.4493,-18.5301 1.34999,-25.55625 0,0 0,0 1e-5,0 0.2325,-1.81377 0.4219,-4.06186 0.61411,-6.59042 m 1.0075,6.2863 c -0.2628,-9.46337 -1.10466,-20.27284 -3.34662,-30.83429 0,0 0,0 0,0 -2.24269,-10.56497 1.28582,-19.16444 3.88125,-27.46874 0,0 0,0 1e-5,-10e-6 1.04258,-3.33584 1.10903,-7.04712 0.70326,-10.80514 m -5.66291,20.13143 c -0.26996,-8.85513 2.19867,-20.46076 6.5534,-31.39739 0,0 0,0 0,0 4.35617,-10.94028 -2.06584,-19.67081 -6.15938,-29.01562 0,0 0,0 0,-10e-6 -1.47648,-3.37053 -1.61591,-6.80887 -0.9932,-10.22435 m 5.55057,18.18436 c 1.12333,-9.5944 0.29561,-20.27714 0.87075,-30.8904 10e-6,0 10e-6,-1e-5 10e-6,-1e-5 0.57533,-10.6168 -0.50142,-19.67586 -1.51875,-29.04374 0,0 0,0 0,0 -0.33018,-3.04037 -0.41988,-6.24251 -0.37198,-9.54067 m 1.79039,19.43899 c -0.33777,-8.82666 -1.2457,-19.85737 -3.68404,-29.5693 -2.43915,-9.71516 0.89145,-20.37252 2.7,-31.09687 0,0 0,0 0,-1e-5 0.481,-2.85223 0.67947,-5.59899 0.69653,-8.28091 m -0.97415,10.6119 c 0.29453,-5.33475 0.007,-11.6797 -0.55812,-18.53297 3.76207,-0.73025 7.38271,-1.71993 10.97319,-2.78605 0,0 1e-5,0 1e-5,0 8.61934,-2.55934 21.45503,0.79994 34.41562,2.41875 0,0 0,0 0,0 4.86454,0.60759 8.8771,0.81426 12.50954,0.87562 m -55.89439,3.13738 c 9.37936,0.49529 20.60841,-1.1282 31.84687,-3.43175 11.24221,-2.30432 18.99938,1.71589 27.01875,5.14687 0,0 0,0 0,0 2.57921,1.10349 5.65036,1.50655 9.01414,1.551 m -21.61197,-8.50202 c 9.20189,-1.01927 21.16097,1.35683 33.53454,4.07915 12.3777,2.72323 20.35083,-1.00516 31.09688,-3.00937 0,0 0,0 0,-10e-6 3.24628,-0.60545 6.31143,-0.78412 9.25602,-0.70042 m -16.79907,2.16666 c 8.88596,0.5063 17.40697,0.36196 26.74989,0.60893 0.20717,1.72948 0.44787,3.47493 0.73185,5.24491 1.69078,10.53807 -0.14713,20.98012 -0.47812,32.98125 0,0 0,0 0,0 -0.15753,5.71157 -0.36825,10.41079 -0.74023,14.7413 m -4.4607,-23.13615 c -0.92689,8.85437 -0.46042,19.31629 -1.40533,27.99427 0,0 0,0 0,0 -0.94521,8.68088 1.00217,20.45096 3.03751,31.32188 0.54528,2.91244 0.88713,5.72151 1.14356,8.47844 m 2.87117,-11.72354 c -0.88905,9.40635 0.14187,18.97995 0.42277,26.95309 0,0 0,0 0,0 0.28098,7.9758 0.3736,19.38457 1.15312,28.19999 0,0 0,10e-6 0,10e-6 0.27279,3.08489 0.24613,6.56481 0.0209,10.28582 m -4.7246,-18.66681 c -0.57941,10.93299 1.30818,20.57431 3.93808,31.73281 10e-6,0 10e-6,1e-5 10e-6,1e-5 2.63077,11.16222 -1.33151,18.68845 -3.96563,26.06249 0,0 0,0 0,0 -0.71343,1.9972 -1.04891,4.43635 -1.16436,7.16013 m 2.75574,-9.25676 c 0.75875,10.8383 0.96071,18.91605 2.92425,26.81104 0,0 0,0 0,0 1.96418,7.89762 -1.39142,20.82213 -4.19063,32.47499 0,0 0,0 0,10e-6 -0.81281,3.38367 -1.09567,6.58034 -1.05435,9.7107 m 0.5924,-15.40395 c 0.55143,10.58664 -1.164,20.48594 -3.51617,31.42378 -1e-5,0 -1e-5,1e-5 -1e-5,1e-5 -2.35295,10.94149 0.98384,19.58737 2.92501,28.76249 0.92573,4.37558 0.7396,9.09829 0.0682,13.89719 m 1.2231,-20.97392 c 0.70188,10.44577 -0.11175,19.7714 -0.28195,29.31455 -0.17026,9.54633 0.57893,19.63927 1.6875,28.95937 0,0 0,0 0,10e-6 0.33381,2.80641 0.39065,5.66705 0.26004,8.52719 m 0.0127,-15.47239 c 0.84175,9.9971 -0.88843,20.63387 -2.70085,31.87438 -1.81302,11.24425 -0.23424,18.74741 -0.70312,26.28749 0,10e-6 0,10e-6 0,10e-6 -0.19842,3.19085 -0.37595,7.37203 -0.64221,11.98622 m 4.1208,-14.63742 c 0.46817,9.566 0.28862,19.7924 0.87141,29.42793 0,0 0,0 0,0 0.58298,9.63874 0.21652,19.63184 0.61875,28.90312 0,10e-6 0,10e-6 0,10e-6 0.13761,3.17198 0.0253,6.71064 -0.28976,10.52878 m -3.36269,-17.43167 c 0.67415,8.8174 0.41039,20.02036 1.23683,30.04743 0,0 0,0 0,0 0.8267,10.03041 -1.03843,20.46993 -3.06563,31.40624 0,0 0,0 0,10e-6 -0.7688,4.14748 -0.98377,7.88789 -0.97553,11.37621 m 3.38158,-20.87306 c -0.19647,9.95982 0.11423,20.87177 0.3377,32.66192 0,0 0,0 0,0 0.22355,11.79407 -0.55379,19.93515 -1.65937,29.83124 0,0 0,0 -1e-5,10e-6 -0.402,3.59836 -0.37706,7.2988 -0.0841,11.08608 m 4.06571,-21.09838 c 0.39246,9.88509 -0.9541,21.09845 -2.81289,33.33698 -0.21066,1.38698 -0.37088,2.71565 -0.48883,3.99581 -9.79028,1.15244 -16.99141,-0.66732 -25.52182,-0.76583 -4.29664,-0.0496 -8.61696,0.12161 -12.85533,0.483 m 22.02269,3.21167 c -10.2768,0.9164 -19.02397,-1.24012 -27.06472,-3.68529 0,0 0,0 0,0 -8.04343,-2.44598 -20.06002,-0.54238 -30.14062,-1.575 -2.84838,-0.29178 -5.74048,-0.41664 -8.68264,-0.44428 m 7.49928,0.0154 c -10.78286,-0.7494 -19.9885,-0.97214 -29.98922,-2.89613 -9.58948,-1.84487 -19.4304,-0.39923 -29.50737,-0.7585 -0.0213,-0.42993 -0.0429,-0.86323 -0.0651,-1.30032 -0.1665,-3.28932 -0.20825,-6.40527 -0.17376,-9.39712 m 11.79468,14.34277 c -1.93274,-0.12197 -3.82776,-0.23136 -5.69508,-0.34065 -0.15194,-8.65013 0.24555,-17.29815 0.30853,-27.04596 0.0771,-11.94076 -0.34581,-19.19067 -1.0125,-27.55312 0,0 0,0 0,0 -0.22093,-2.77122 -0.44433,-5.89672 -0.74131,-9.1959 m -1.4347,14.35 c -1.0102,-9.22824 0.92001,-18.55616 2.78538,-25.63139 1.86601,-7.07759 -1.72924,-20.33547 -5.14687,-30.98437 0,0 0,0 0,-1e-5 -1.15926,-3.61211 -1.40668,-7.07643 -1.14267,-10.47067 m 7.17711,12.26892 c 0.0656,-9.11688 0.0603,-19.98633 0.19681,-29.99088 0,0 0,0 0,-1e-5 0.13656,-10.00789 -0.33286,-19.10746 -1.04062,-27.32812 -0.20967,-2.43522 -0.29378,-5.24648 -0.30653,-8.29538 m 2.18256,18.52575 c 1.03887,-10.54031 -0.0464,-21.19896 -0.14166,-33.6457 0,0 0,0 0,0 -0.0953,-12.45089 -1.33463,-20.16071 -4.02187,-30.45 -1.21068,-4.63562 -1.16007,-8.73917 -0.58936,-12.39231 m -0.58892,20.36686 c -0.15021,-9.65954 -0.68537,-19.70735 -2.02485,-29.09034 0,0 0,0 0,0 -1.33993,-9.38612 1.16374,-19.65338 3.45937,-28.9875 0,0 0,0 1e-5,0 0.68004,-2.76506 0.87158,-5.55059 0.75442,-8.30552 m 2.92708,14.16971 c 0.25131,-11.09089 -2.08499,-18.7615 -6.27213,-26.30452 0,-10e-6 0,-10e-6 0,-10e-6 -4.18854,-7.54554 1.93951,-20.21196 5.85,-30.59062 0,0 0,0 0,0 1.73505,-4.60494 1.9614,-9.35626 1.70676,-14.35542 m -1.19633,17.99745 c 1.05737,-9.02311 -0.36381,-19.72717 -1.04168,-29.14723 0,0 0,0 0,0 -0.67809,-9.42319 -1.64649,-19.41868 -4.95,-28.22812 0,0 0,0 0,0 -1.0399,-2.77309 -1.45276,-5.79737 -1.54878,-8.96196 m 4.77589,16.15191 c -1.01053,-9.21126 0.4223,-21.16978 1.26664,-33.50641 0,0 0,-10e-6 0,-10e-6 0.84463,-12.34074 0.578,-19.43999 1.74375,-28.31249 0,0 0,0 0,0 0.57985,-4.41322 0.63274,-9.04953 0.59423,-13.49043 m -2.76982,22.69366 c -0.58962,-10.53082 0.026,-20.99756 0.0287,-32.99884 0.003,-12.00529 0.25739,-20.36149 0.78749,-31.125 0,0 0,0 0,0 0.14099,-2.86265 0.10302,-5.54389 -0.0836,-8.08717 m -2.8029,19.55479 c 1.01116,-10.00674 0.5247,-21.06762 1.54586,-33.25249 0,0 0,0 0,0 1.0215,-12.18892 -0.38602,-19.74105 -1.15312,-29.26874 0,0 0,-1e-5 0,-1e-5 -0.35909,-4.45997 -0.49968,-9.4076 -0.66276,-14.69285 m 0.88452,20.80011 c -0.11269,-10.59542 -0.5693,-19.62951 -1.74364,-28.92065 0,0 0,0 0,0 -1.17474,-9.29424 -0.57542,-19.92945 -1.6875,-29.83125 0,0 0,0 0,0 -0.27955,-2.48905 -0.39195,-4.94916 -0.39015,-7.37645 0.21436,0.007 0.42955,0.015 0.64553,0.0228 m 3.34462,505.53628 0,-5.21719 m 0,-413.37293 0,-4.87031 m 0,140.62926 0,-4.98281 m 131.44363,-114.89095 0,5.80313 m -8.61325,483.36647 -5.39062,0 M 202.23909,713.0416 l 0,-5.0625 m 0,-85.44347 0,-4.9875"
       id="rect4654"
       inkscape:path-effect="#path-effect3815"
       inkscape:original-d="m 202.23909,393.8707 131.44363,0 0,592.30414 -131.44363,0 z" />
    <text
       xml:space="preserve"
       style="font-size:608.45928954999999405px;font-style:normal;font-variant:normal;font-weight:normal;font-stretch:normal;line-height:125%;letter-spacing:0px;word-spacing:0px;fill:#000000;fill-opacity:1;stroke:none;font-family:Serif;-inkscape-font-specification:Serif;opacity:0.96999999999999997"
       x="415.66351"
       y="928.79449"
       id="text4464-0"
       sodipodi:linespacing="125%"><tspan
         sodipodi:role="line"
         x="415.66351"
         y="928.79449"
         style="font-size:60.84592056000000326px;font-style:normal;font-variant:normal;font-weight:normal;font-stretch:normal;fill:#000000;fill-opacity:1;font-family:Sketch Block;-inkscape-font-specification:Sketch Block"
         id="tspan3105">event queue</tspan></text>
    <path
       inkscape:connector-curvature="0"
       id="path4013"
       d="m 208.19527,487.72985 c 20.97072,-0.68478 43.08416,-0.94733 65.43627,-2.0996 m -15.63323,6.36538 c 19.39865,-0.31377 38.05697,-0.1228 56.36509,0.0837 m -8.36425,-7.20876 c 4.14744,-0.0945 8.32344,-0.14718 12.51526,-0.16535 m -106.29576,4.19664 c 24.62666,-0.46063 50.93884,-1.27788 76.94834,-3.69117 m -20.94089,6.31641 c 18.41942,0.10577 37.37513,-0.085 55.93183,-0.42253 m -112.4314,1.6879 c 19.96811,-0.40678 40.11204,-0.94789 59.62795,-2.32485 M 258.90837,487.613 c 19.87569,0.0409 39.36685,0.13565 58.40741,0.33932 m -11.71695,4.86405 c 5.25298,0.13917 10.43307,0.22513 15.54278,0.27471 m -105.34446,1.76403 c 24.81035,-0.13682 49.0996,-0.42179 73.44658,-1.19739 m -25.2869,-3.67754 c 17.01983,0.0151 34.24507,0.11406 51.47902,0.31 m -106.89627,3.67466 c 22.6483,0.66094 44.16518,-0.0546 66.05273,-0.80804 m -12.83451,0.17491 c 22.59529,-0.0449 43.39985,-0.68623 63.94508,-2.00206 m -113.24199,-5.59188 c 21.78894,-0.4699 44.03426,0.11313 65.68688,0.76477 m -14.38704,-0.0146 c 20.17816,-0.14351 39.34684,-0.0553 58.4477,0.0514 m -114.65371,4.91733 c 20.75214,-0.0738 42.33067,0.68189 64.11789,2.13949 m -12.9568,-3.1476 c 20.96883,-0.72769 42.88066,-0.57369 64.87183,-0.95866 m -107.89985,-0.40001 c 26.22152,0.96493 52.2092,-0.0946 78.73233,-0.46366 m -26.63577,-0.1459 c 17.32001,0.30811 34.87016,0.23524 52.74306,0.16562 m -37.48549,0.65451 3.21719,0 m 31.50616,0 2.87032,0 m -14.13194,0 2.98281,0 m -85.09884,0 3.80312,0 m 37.48951,0 3.39062,0"
       style="fill:none;stroke:#000000;stroke-width:1;stroke-linecap:butt;stroke-linejoin:miter;stroke-miterlimit:4;stroke-opacity:1;stroke-dasharray:24, 24;stroke-dashoffset:0"
       sodipodi:nodetypes="cc"
       inkscape:path-effect="#path-effect4665"
       inkscape:original-d="m 206.67977,489.30048 119.52402,0" />
    <path
       inkscape:original-d="m 215.2512,592.15762 119.52402,0"
       inkscape:path-effect="#path-effect4669"
       sodipodi:nodetypes="cc"
       style="fill:none;stroke:#000000;stroke-width:1;stroke-linecap:butt;stroke-linejoin:miter;stroke-miterlimit:4;stroke-opacity:1;stroke-dasharray:24, 24;stroke-dashoffset:0"
       d="m 220.44628,592.69693 c 20.732,0.53384 42.79733,0.20376 64.81966,0.0704 m -12.48525,-3.21112 c 19.41548,0.2353 38.12815,0.0281 56.58595,-0.26646 m -12.54538,3.96959 c 4.44102,0.0542 8.83415,0.11461 13.18938,0.18451 m -105.00187,2.13542 c 24.47801,-0.646 50.29458,-0.39 75.04089,-0.97954 m -23.79065,-2.95752 c 19.44414,0.34541 37.61244,0.44135 55.13436,0.83036 m -110.76684,-3.24482 c 20.88875,-0.43613 40.40602,0.70228 59.37762,2.63845 m -10.29756,4.22894 c 20.34805,-0.0116 39.48054,0.15291 58.12938,0.47973 m -14.46279,-4.8859 c 5.14146,0.0367 10.3474,0.0183 15.60935,-0.0514 m -111.92675,-4.75352 c 24.0693,-0.3524 49.32216,0.61932 74.44847,2.0419 m -16.25701,3.84071 c 17.4168,-0.59828 34.20552,-0.75525 50.69147,-1.22965 m -112.46122,-4.55918 c 21.10161,-0.24384 43.52352,0.0108 65.63621,0.28931 m -13.33206,2.45279 c 21.04225,-0.43452 43.41646,0.23683 65.56087,1.14916 m -109.58368,6.86659 c 21.65181,-0.16359 43.84634,-1.40752 65.23574,-4.0894 m -18.17804,2.91723 c 20.16115,-0.72361 39.95849,-1.26565 60.28785,-2.7906 m -111.05625,-6.04477 c 20.97434,0.42578 42.5964,0.19947 64.66063,0.10393 m -14.60088,4.86441 c 21.68365,-0.45801 42.42842,-0.58241 62.73562,-1.25034 m -112.06891,-3.88242 c 25.5604,-0.40998 51.85042,1.20514 77.75466,3.70542 m -20.54854,-0.0258 c 17.20366,-0.31334 34.31856,-0.67389 51.27587,-1.4786 m -35.64323,2.39284 3.21719,0 m 31.50616,0 2.87032,0 m -14.13194,0 2.98281,0 m -85.09884,0 3.80312,0 m 37.48951,0 3.39062,0"
       id="path4667"
       inkscape:connector-curvature="0" />
    <path
       inkscape:connector-curvature="0"
       id="path4671"
       d="m 220.72804,688.15621 c 21.83735,-0.62796 43.17884,0.0298 64.75781,0.77288 m -19.26787,5.46145 c 19.01787,-0.63869 38.54708,-0.12487 58.42207,0.56689 m -11.89737,-4.57447 c 4.24322,-0.0441 8.50505,-0.063 12.7813,-0.0602 m -106.374,-5.07272 c 25.97054,-0.67535 51.38337,0.94333 77.89033,3.04594 m -19.3053,2.81338 c 18.38041,-0.60716 37.28386,-0.48053 55.73534,-0.56125 m -116.66445,4.10028 c 20.23734,-0.70575 40.83447,-1.24132 61.4803,-2.82903 m -13.36089,-3.19427 c 20.28406,-0.43141 39.92624,0.26863 59.52521,1.36138 m -9.90519,4.31086 c 5.28667,0.0794 10.52859,0.0699 15.73444,-0.0207 M 225.6107,695.8209 c 24.64473,0.83449 48.63393,-0.58706 72.12934,-2.13508 m -21.15677,0.5646 c 17.5626,0.28629 34.41312,-0.35284 51.05792,-1.55548 m -106.47588,0.85254 c 21.80091,0.76385 43.00049,0.76025 63.37679,1.55675 m -13.97863,1.74783 c 22.30789,0.53689 44.03182,0.10635 66.11768,-0.201 m -117.05486,-6.47921 c 22.26569,-0.61351 45.01332,0.0305 68.21168,0.62616 m -18.95148,0.80372 c 19.47805,-0.16101 39.64982,-0.89717 60.29826,-2.45798 m -113.59738,4.21624 c 21.35684,0.77122 42.49679,-0.0162 63.95736,-0.92199 m -15.56224,-1.09392 c 20.83718,0.15664 43.0627,-0.46764 65.54136,-1.58219 m -105.59304,1.53547 c 25.49983,0.61569 52.6476,0.95204 80.19511,2.73202 m -25.26252,-2.49815 c 16.9814,-0.46973 34.14297,-0.32156 51.14764,-0.15851 m -38.39769,-0.28653 3.21719,0 m 31.50616,0 2.87032,0 m -14.13194,0 2.98281,0 m -85.09884,0 3.80312,0 m 37.48951,0 3.39062,0"
       style="fill:none;stroke:#000000;stroke-width:1;stroke-linecap:butt;stroke-linejoin:miter;stroke-miterlimit:4;stroke-opacity:1;stroke-dasharray:24, 24;stroke-dashoffset:0"
       sodipodi:nodetypes="cc"
       inkscape:path-effect="#path-effect4673"
       inkscape:original-d="m 215.2512,691.08619 119.52402,0" />
    <path
       inkscape:original-d="m 215.2512,785.3719 119.52402,0"
       inkscape:path-effect="#path-effect4677"
       sodipodi:nodetypes="cc"
       style="fill:none;stroke:#000000;stroke-width:1;stroke-linecap:butt;stroke-linejoin:miter;stroke-miterlimit:4;stroke-opacity:1;stroke-dasharray:24, 24;stroke-dashoffset:0"
       d="m 221.33729,785.62991 c 21.56105,0.4148 43.226,1.10604 65.21982,2.88253 m -12.88605,-6.82037 c 18.92233,-0.28023 37.7047,-0.3272 56.00744,-0.57393 m -17.45101,4.01939 c 4.43225,0.001 8.85394,0.0163 13.27541,0.0455 m -103.96226,0.30627 c 26.06724,0.54957 52.09116,0.70793 80.00905,1.97425 m -29.48598,-4.83409 c 19.4781,-0.47879 39.1769,0.32107 59.80669,1.66199 m -113.8926,-1.63854 c 20.29735,-0.49002 41.54965,0.43615 63.56197,1.90259 m -16.38035,3.27716 c 19.75939,-0.35562 40.29299,0.23108 61.34043,1.16201 m -10.21991,-5.98972 c 5.4075,0.1254 10.73519,0.20155 16.00392,0.24366 m -112.74365,-0.33758 c 24.20611,0.17265 49.69306,-0.13802 75.52381,-0.49434 m -16.53554,-0.79485 c 17.40176,-0.11045 34.29646,0.26128 50.96324,0.96542 m -114.46717,0.32382 c 21.51257,0.25671 44.40961,0.10315 67.89256,0.0697 m -15.82245,-2.36661 c 22.17345,0.12142 43.30629,-0.0345 64.10308,-0.23654 m -110.61087,9.4238 c 21.47569,-0.41774 44.17514,-0.0631 66.39784,0.18078 m -16.15252,-0.22773 c 20.24136,-0.52236 39.52487,-0.17293 58.8739,0.2148 M 218.68066,783.0046 c 20.38776,-0.22842 41.15897,-0.45671 61.04556,-1.12486 m -10.79801,5.88266 c 21.70893,-0.27004 43.07484,-1.16628 64.64516,-3.22068 m -112.59554,0.15083 c 25.85669,0.86601 51.69846,-0.61528 77.24486,-1.9526 m -24.11691,0.89767 c 17.32015,0.17182 35.23237,0.32729 53.81199,0.66947 m -36.30442,1.06481 3.21719,0 m 31.50616,0 2.87032,0 m -14.13194,0 2.98281,0 m -85.09884,0 3.80312,0 m 37.48951,0 3.39062,0"
       id="path4675"
       inkscape:connector-curvature="0" />
    <path
       inkscape:connector-curvature="0"
       id="path4679"
       d="m 219.57955,888.51339 c 21.71162,-0.54642 42.77702,-0.27707 63.71914,-0.23393 m -18.76826,5.27288 c 18.91708,-0.70618 38.70267,-0.86946 59.03713,-1.59835 m -10.07439,-3.53391 c 4.45362,0.0819 8.85962,0.13319 13.22985,0.16045 M 220.1105,888.46697 c 24.91626,0.51214 51.14522,-0.46589 77.48035,-1.54359 m -18.37873,6.62909 c 19.42756,-0.45132 37.95678,-0.71838 56.22586,-1.50194 m -116.26467,-1.33372 c 20.69763,0.0896 40.86902,-0.19353 61.02883,-0.69797 m -14.24551,-2.39618 c 20.41832,-0.70569 40.38513,-0.40693 60.75618,-0.28065 m -15.68289,7.10162 c 5.39992,0.15902 10.7694,0.23441 16.12863,0.24344 m -100.96158,-2.37634 c 25.45041,0.52561 47.96342,1.32838 69.75501,3.76995 m -18.50182,-5.12917 c 17.05487,0.62823 33.89218,0.25399 50.36313,-0.3493 m -108.78091,4.59102 c 21.53806,-0.21168 43.81922,0.26571 66.06491,1.02117 m -18.04971,-0.99728 c 21.71352,0.76066 44.08991,0.38513 66.87676,0.37862 m -110.24346,-4.92571 c 22.06309,0.30685 44.1227,0.30947 65.68081,0.66154 m -18.20172,-4.83339 c 19.56966,0.31573 38.99061,0.18305 58.19037,0.12551 m -113.99781,5.4053 c 20.36337,-0.59218 42.09405,0.38283 63.87,1.81159 m -11.58335,-2.37346 c 21.79028,0.75886 42.44895,-8.1e-4 62.67457,-0.82996 m -107.67192,0.85269 c 25.68956,-0.91937 51.80453,-0.0522 77.64264,0.0197 m -20.15496,-0.51155 c 17.82982,0.005 34.36836,0.13068 50.33922,0.39668 m -38.85538,0.0486 3.21719,0 m 31.50616,0 2.87032,0 m -14.13194,0 2.98281,0 m -85.09884,0 3.80312,0 m 37.48951,0 3.39062,0"
       style="fill:none;stroke:#000000;stroke-width:1;stroke-linecap:butt;stroke-linejoin:miter;stroke-miterlimit:4;stroke-opacity:1;stroke-dasharray:24, 24;stroke-dashoffset:0"
       sodipodi:nodetypes="cc"
       inkscape:path-effect="#path-effect4681"
       inkscape:original-d="m 215.2512,891.44333 119.52402,0" />
  </g>
</svg>
