<?xml version="1.0" encoding="UTF-8" standalone="no"?>
<!-- Created with Inkscape (http://www.inkscape.org/) -->

<svg
   xmlns:dc="http://purl.org/dc/elements/1.1/"
   xmlns:cc="http://creativecommons.org/ns#"
   xmlns:rdf="http://www.w3.org/1999/02/22-rdf-syntax-ns#"
   xmlns:svg="http://www.w3.org/2000/svg"
   xmlns="http://www.w3.org/2000/svg"
   xmlns:sodipodi="http://sodipodi.sourceforge.net/DTD/sodipodi-0.dtd"
   xmlns:inkscape="http://www.inkscape.org/namespaces/inkscape"
   width="1052.3622"
   height="744.09448"
   id="svg2"
   version="1.1"
   inkscape:version="0.48.4 r9939"
   sodipodi:docname="levels-0.svg">
  <defs
     id="defs4">
    <inkscape:path-effect
       effect="sketch"
       id="path-effect4021"
       is_visible="true"
       nbiter_approxstrokes="2"
       strokelength="100"
       strokelength_rdm="0.3;1"
       strokeoverlap="0.3"
       strokeoverlap_rdm="0.3;1"
       ends_tolerance="0.1;1"
       parallel_offset="4.3;1"
       tremble_size="4.3;1"
       tremble_frequency="1"
       nbtangents="5"
       tgt_places_rdmness="1;1"
       tgtscale="10"
       tgtlength="1"
       tgtlength_rdm="0.3;1" />
    <inkscape:path-effect
       effect="sketch"
       id="path-effect4019"
       is_visible="true"
       nbiter_approxstrokes="5"
       strokelength="100"
       strokelength_rdm="0.3;1"
       strokeoverlap="0.3"
       strokeoverlap_rdm="0.3;1"
       ends_tolerance="0.1;1"
       parallel_offset="2;1"
       tremble_size="2;1"
       tremble_frequency="1"
       nbtangents="5"
       tgt_places_rdmness="1;1"
       tgtscale="10"
       tgtlength="1"
       tgtlength_rdm="0.3;1" />
    <inkscape:path-effect
       effect="sketch"
       id="path-effect4011"
       is_visible="true"
       nbiter_approxstrokes="12"
       strokelength="100"
       strokelength_rdm="0.3;1"
       strokeoverlap="0.3"
       strokeoverlap_rdm="0.3;1"
       ends_tolerance="0.1;1"
       parallel_offset="5;1"
       tremble_size="5;1"
       tremble_frequency="1"
       nbtangents="5"
       tgt_places_rdmness="1;1"
       tgtscale="10"
       tgtlength="1"
       tgtlength_rdm="0.3;1" />
    <inkscape:path-effect
       effect="sketch"
       id="path-effect4009"
       is_visible="true"
       nbiter_approxstrokes="14"
       strokelength="100"
       strokelength_rdm="0.3;1"
       strokeoverlap="0.3"
       strokeoverlap_rdm="0.3;1"
       ends_tolerance="0.1;1"
       parallel_offset="5.7;1"
       tremble_size="6;1"
       tremble_frequency="1"
       nbtangents="5"
       tgt_places_rdmness="1;1"
       tgtscale="10"
       tgtlength="1"
       tgtlength_rdm="0.3;1" />
    <inkscape:path-effect
       effect="sketch"
       id="path-effect4007"
       is_visible="true"
       nbiter_approxstrokes="5"
       strokelength="100"
       strokelength_rdm="0.3;1"
       strokeoverlap="0.3"
       strokeoverlap_rdm="0.3;1"
       ends_tolerance="0.1;1"
       parallel_offset="2;1"
       tremble_size="2;1"
       tremble_frequency="1"
       nbtangents="5"
       tgt_places_rdmness="1;1"
       tgtscale="10"
       tgtlength="2"
       tgtlength_rdm="0.3;1" />
    <inkscape:path-effect
       effect="sketch"
       id="path-effect4005"
       is_visible="true"
       nbiter_approxstrokes="5"
       strokelength="100"
       strokelength_rdm="0;1"
       strokeoverlap="0"
       strokeoverlap_rdm="0;1"
       ends_tolerance="0;1"
       parallel_offset="2;1"
       tremble_size="2;1"
       tremble_frequency="0.5"
       nbtangents="0"
       tgt_places_rdmness="1;1"
       tgtscale="10"
       tgtlength="2"
       tgtlength_rdm="0.3;1" />
    <inkscape:path-effect
       effect="sketch"
       id="path-effect3993"
       is_visible="true"
       nbiter_approxstrokes="5"
       strokelength="100"
       strokelength_rdm="0.1;1"
       strokeoverlap="0.3"
       strokeoverlap_rdm="0.1;1"
       ends_tolerance="0;1"
       parallel_offset="2.2;1"
       tremble_size="2.2;1"
       tremble_frequency="0.51"
       nbtangents="0"
       tgt_places_rdmness="1;1"
       tgtscale="10"
       tgtlength="2"
       tgtlength_rdm="0.3;1" />
    <inkscape:path-effect
       effect="sketch"
       id="path-effect3989"
       is_visible="true"
       nbiter_approxstrokes="6"
       strokelength="100"
       strokelength_rdm="0.3;1"
       strokeoverlap="0.3"
       strokeoverlap_rdm="0.3;1"
       ends_tolerance="0.1;1"
       parallel_offset="4.2;1"
       tremble_size="4.9;1"
       tremble_frequency="1"
       nbtangents="0"
       tgt_places_rdmness="1;1"
       tgtscale="10"
       tgtlength="1"
       tgtlength_rdm="0.3;1" />
    <inkscape:path-effect
       effect="sketch"
       id="path-effect3985"
       is_visible="true"
       nbiter_approxstrokes="5"
       strokelength="100"
       strokelength_rdm="0.1;1"
       strokeoverlap="0.3"
       strokeoverlap_rdm="0.1;1"
       ends_tolerance="0;1"
       parallel_offset="2.9;1"
       tremble_size="2.7;1"
       tremble_frequency="1.1"
       nbtangents="5"
       tgt_places_rdmness="1;1"
       tgtscale="10"
       tgtlength="2"
       tgtlength_rdm="0.3;1" />
    <inkscape:path-effect
       tgtlength_rdm="0.3;1"
       tgtlength="2"
       tgtscale="10"
       tgt_places_rdmness="1;1"
       nbtangents="2"
       tremble_frequency="1.1"
       tremble_size="2.7;1"
       parallel_offset="2.9;1"
       ends_tolerance="0;1"
       strokeoverlap_rdm="0.1;1"
       strokeoverlap="0.3"
       strokelength_rdm="0.1;1"
       strokelength="100"
       nbiter_approxstrokes="4"
       is_visible="true"
       id="path-effect3983"
       effect="sketch" />
    <inkscape:path-effect
       tgtlength_rdm="0.3;1"
       tgtlength="2"
       tgtscale="10"
       tgt_places_rdmness="1;1"
       nbtangents="0"
       tremble_frequency="1.1"
       tremble_size="2.7;1"
       parallel_offset="2.9;1"
       ends_tolerance="0;1"
       strokeoverlap_rdm="0.1;1"
       strokeoverlap="0.3"
       strokelength_rdm="0.1;1"
       strokelength="100"
       nbiter_approxstrokes="5"
       is_visible="true"
       id="path-effect3981"
       effect="sketch" />
    <inkscape:path-effect
       effect="sketch"
       id="path-effect3979"
       is_visible="true"
       nbiter_approxstrokes="5"
       strokelength="100"
       strokelength_rdm="0.1;1"
       strokeoverlap="0.3"
       strokeoverlap_rdm="0.1;1"
       ends_tolerance="0;1"
       parallel_offset="2.9;1"
       tremble_size="2.7;1"
       tremble_frequency="1.1"
       nbtangents="0"
       tgt_places_rdmness="1;1"
       tgtscale="10"
       tgtlength="2"
       tgtlength_rdm="0.3;1" />
    <inkscape:path-effect
       tgtlength_rdm="0.3;1"
       tgtlength="2"
       tgtscale="10"
       tgt_places_rdmness="1;1"
       nbtangents="0"
       tremble_frequency="1.1"
       tremble_size="2.7;1"
       parallel_offset="2.9;1"
       ends_tolerance="0;1"
       strokeoverlap_rdm="0.1;1"
       strokeoverlap="0.3"
       strokelength_rdm="0.1;1"
       strokelength="100"
       nbiter_approxstrokes="5"
       is_visible="true"
       id="path-effect3977"
       effect="sketch" />
    <inkscape:path-effect
       tgtlength_rdm="0.3;1"
       tgtlength="2"
       tgtscale="10"
       tgt_places_rdmness="1;1"
       nbtangents="5"
       tremble_frequency="1"
       tremble_size="2;1"
       parallel_offset="2;1"
       ends_tolerance="0.1;1"
       strokeoverlap_rdm="0.3;1"
       strokeoverlap="0.3"
       strokelength_rdm="0.3;1"
       strokelength="100"
       nbiter_approxstrokes="5"
       is_visible="true"
       id="path-effect3975"
       effect="sketch" />
    <inkscape:path-effect
       tgtlength_rdm="0.3;1"
       tgtlength="2"
       tgtscale="10"
       tgt_places_rdmness="1;1"
       nbtangents="5"
       tremble_frequency="1"
       tremble_size="2;1"
       parallel_offset="2;1"
       ends_tolerance="0.1;1"
       strokeoverlap_rdm="0.3;1"
       strokeoverlap="0.3"
       strokelength_rdm="0.3;1"
       strokelength="100"
       nbiter_approxstrokes="5"
       is_visible="true"
       id="path-effect3973"
       effect="sketch" />
    <inkscape:path-effect
       tgtlength_rdm="0.3;1"
       tgtlength="2"
       tgtscale="10"
       tgt_places_rdmness="1;1"
       nbtangents="5"
       tremble_frequency="1"
       tremble_size="1.7;1"
       parallel_offset="1.4;1"
       ends_tolerance="0.1;1"
       strokeoverlap_rdm="0.3;1"
       strokeoverlap="0.3"
       strokelength_rdm="0.3;1"
       strokelength="100"
       nbiter_approxstrokes="5"
       is_visible="true"
       id="path-effect3971"
       effect="sketch" />
    <inkscape:path-effect
       tgtlength_rdm="0.3;1"
       tgtlength="4"
       tgtscale="10"
       tgt_places_rdmness="1;1"
       nbtangents="5"
       tremble_frequency="1"
       tremble_size="1;1"
       parallel_offset="1;1"
       ends_tolerance="0.1;1"
       strokeoverlap_rdm="0.3;1"
       strokeoverlap="0.3"
       strokelength_rdm="0.3;1"
       strokelength="100"
       nbiter_approxstrokes="5"
       is_visible="true"
       id="path-effect3969"
       effect="sketch" />
    <inkscape:path-effect
       effect="sketch"
       id="path-effect3967"
       is_visible="true"
       nbiter_approxstrokes="5"
       strokelength="100"
       strokelength_rdm="0.3;1"
       strokeoverlap="0.3"
       strokeoverlap_rdm="0.3;1"
       ends_tolerance="0.1;1"
       parallel_offset="1;1"
       tremble_size="1;1"
       tremble_frequency="1"
       nbtangents="5"
       tgt_places_rdmness="1;1"
       tgtscale="10"
       tgtlength="4"
       tgtlength_rdm="0.3;1" />
    <inkscape:path-effect
       tgtlength_rdm="0.3;1"
       tgtlength="4"
       tgtscale="10"
       tgt_places_rdmness="1;1"
       nbtangents="5"
       tremble_frequency="1"
       tremble_size="3;1"
       parallel_offset="3;1"
       ends_tolerance="0.1;1"
       strokeoverlap_rdm="0.3;1"
       strokeoverlap="0.3"
       strokelength_rdm="0.3;1"
       strokelength="100"
       nbiter_approxstrokes="4"
       is_visible="true"
       id="path-effect3965"
       effect="sketch" />
    <inkscape:path-effect
       effect="sketch"
       id="path-effect3937"
       is_visible="true"
       nbiter_approxstrokes="5"
       strokelength="100"
       strokelength_rdm="0.3;1"
       strokeoverlap="0.3"
       strokeoverlap_rdm="0.3;1"
       ends_tolerance="0.1;1"
       parallel_offset="3;1"
       tremble_size="3;1"
       tremble_frequency="1"
       nbtangents="5"
       tgt_places_rdmness="1;1"
       tgtscale="10"
       tgtlength="2"
       tgtlength_rdm="0.3;1" />
    <inkscape:path-effect
       effect="sketch"
       id="path-effect3933"
       is_visible="true"
       nbiter_approxstrokes="4"
       strokelength="100"
       strokelength_rdm="0;1"
       strokeoverlap="0.1"
       strokeoverlap_rdm="0;1"
       ends_tolerance="0;1"
       parallel_offset="3.1;1"
       tremble_size="2;1"
       tremble_frequency="3.01"
       nbtangents="5"
       tgt_places_rdmness="1;1"
       tgtscale="10"
       tgtlength="1"
       tgtlength_rdm="0.3;1" />
    <inkscape:path-effect
       effect="sketch"
       id="path-effect3929"
       is_visible="true"
       nbiter_approxstrokes="5"
       strokelength="100"
       strokelength_rdm="0.1;1"
       strokeoverlap="0.1"
       strokeoverlap_rdm="0.3;1"
       ends_tolerance="0;1"
       parallel_offset="2.5;1"
       tremble_size="2.5;1"
       tremble_frequency="1"
       nbtangents="5"
       tgt_places_rdmness="1;1"
       tgtscale="10"
       tgtlength="2"
       tgtlength_rdm="0.3;1" />
    <inkscape:path-effect
       tgtlength_rdm="0.3;1"
       tgtlength="0"
       tgtscale="10"
       tgt_places_rdmness="1;1"
       nbtangents="0"
       tremble_frequency="1"
       tremble_size="0.6;1"
       parallel_offset="0.4;1"
       ends_tolerance="0.1;1"
       strokeoverlap_rdm="0.3;1"
       strokeoverlap="0.3"
       strokelength_rdm="0.3;1"
       strokelength="100"
       nbiter_approxstrokes="5"
       is_visible="true"
       id="path-effect3923"
       effect="sketch" />
    <inkscape:path-effect
       effect="sketch"
       id="path-effect3919"
       is_visible="true"
       nbiter_approxstrokes="5"
       strokelength="100"
       strokelength_rdm="0.3;1"
       strokeoverlap="0.3"
       strokeoverlap_rdm="0.3;1"
       ends_tolerance="0.1;1"
       parallel_offset="1;1"
       tremble_size="1;1"
       tremble_frequency="1"
       nbtangents="0"
       tgt_places_rdmness="1;1"
       tgtscale="10"
       tgtlength="0"
       tgtlength_rdm="0.3;1" />
    <inkscape:path-effect
       tgtlength_rdm="0.3;1"
       tgtlength="0"
       tgtscale="10"
       tgt_places_rdmness="1;1"
       nbtangents="0"
       tremble_frequency="1"
       tremble_size="1;1"
       parallel_offset="1;1"
       ends_tolerance="0.1;1"
       strokeoverlap_rdm="0.3;1"
       strokeoverlap="0.3"
       strokelength_rdm="0.3;1"
       strokelength="100"
       nbiter_approxstrokes="5"
       is_visible="true"
       id="path-effect3915"
       effect="sketch" />
    <inkscape:path-effect
       effect="sketch"
       id="path-effect3911"
       is_visible="true"
       nbiter_approxstrokes="5"
       strokelength="100"
       strokelength_rdm="0.3;1"
       strokeoverlap="0.3"
       strokeoverlap_rdm="0.3;1"
       ends_tolerance="0.1;1"
       parallel_offset="1;1"
       tremble_size="1;1"
       tremble_frequency="1"
       nbtangents="1"
       tgt_places_rdmness="1;1"
       tgtscale="10"
       tgtlength="2"
       tgtlength_rdm="0.3;1" />
    <inkscape:path-effect
       effect="sketch"
       id="path-effect3907"
       is_visible="true"
       nbiter_approxstrokes="5"
       strokelength="100"
       strokelength_rdm="0.1;1"
       strokeoverlap="0.3"
       strokeoverlap_rdm="0.1;1"
       ends_tolerance="0;1"
       parallel_offset="2.9;1"
       tremble_size="2.7;1"
       tremble_frequency="1.1"
       nbtangents="5"
       tgt_places_rdmness="1;1"
       tgtscale="10"
       tgtlength="2"
       tgtlength_rdm="0.3;1" />
    <inkscape:path-effect
       tgtlength_rdm="0.3;1"
       tgtlength="2"
       tgtscale="10"
       tgt_places_rdmness="1;1"
       nbtangents="2"
       tremble_frequency="1.1"
       tremble_size="2.7;1"
       parallel_offset="2.9;1"
       ends_tolerance="0;1"
       strokeoverlap_rdm="0.1;1"
       strokeoverlap="0.3"
       strokelength_rdm="0.1;1"
       strokelength="100"
       nbiter_approxstrokes="4"
       is_visible="true"
       id="path-effect3905"
       effect="sketch" />
    <inkscape:path-effect
       tgtlength_rdm="0.3;1"
       tgtlength="2"
       tgtscale="10"
       tgt_places_rdmness="1;1"
       nbtangents="0"
       tremble_frequency="1.1"
       tremble_size="2.7;1"
       parallel_offset="2.9;1"
       ends_tolerance="0;1"
       strokeoverlap_rdm="0.1;1"
       strokeoverlap="0.3"
       strokelength_rdm="0.1;1"
       strokelength="100"
       nbiter_approxstrokes="5"
       is_visible="true"
       id="path-effect3903"
       effect="sketch" />
    <inkscape:path-effect
       effect="sketch"
       id="path-effect3901"
       is_visible="true"
       nbiter_approxstrokes="5"
       strokelength="100"
       strokelength_rdm="0.1;1"
       strokeoverlap="0.3"
       strokeoverlap_rdm="0.1;1"
       ends_tolerance="0;1"
       parallel_offset="2.9;1"
       tremble_size="2.7;1"
       tremble_frequency="1.1"
       nbtangents="5"
       tgt_places_rdmness="1;1"
       tgtscale="10"
       tgtlength="2"
       tgtlength_rdm="0.3;1" />
    <inkscape:path-effect
       tgtlength_rdm="0.3;1"
       tgtlength="2"
       tgtscale="10"
       tgt_places_rdmness="1;1"
       nbtangents="2"
       tremble_frequency="1.1"
       tremble_size="2.7;1"
       parallel_offset="2.9;1"
       ends_tolerance="0;1"
       strokeoverlap_rdm="0.1;1"
       strokeoverlap="0.3"
       strokelength_rdm="0.1;1"
       strokelength="100"
       nbiter_approxstrokes="5"
       is_visible="true"
       id="path-effect3899"
       effect="sketch" />
    <inkscape:path-effect
       tgtlength_rdm="0.3;1"
       tgtlength="2"
       tgtscale="10"
       tgt_places_rdmness="1;1"
       nbtangents="5"
       tremble_frequency="1"
       tremble_size="2;1"
       parallel_offset="2;1"
       ends_tolerance="0.1;1"
       strokeoverlap_rdm="0.3;1"
       strokeoverlap="0.3"
       strokelength_rdm="0.3;1"
       strokelength="100"
       nbiter_approxstrokes="5"
       is_visible="true"
       id="path-effect3897"
       effect="sketch" />
    <inkscape:path-effect
       tgtlength_rdm="0.3;1"
       tgtlength="2"
       tgtscale="10"
       tgt_places_rdmness="1;1"
       nbtangents="5"
       tremble_frequency="1"
       tremble_size="2;1"
       parallel_offset="2;1"
       ends_tolerance="0.1;1"
       strokeoverlap_rdm="0.3;1"
       strokeoverlap="0.3"
       strokelength_rdm="0.3;1"
       strokelength="100"
       nbiter_approxstrokes="5"
       is_visible="true"
       id="path-effect3895"
       effect="sketch" />
    <inkscape:path-effect
       tgtlength_rdm="0.3;1"
       tgtlength="2"
       tgtscale="10"
       tgt_places_rdmness="1;1"
       nbtangents="1"
       tremble_frequency="1"
       tremble_size="2;1"
       parallel_offset="2;1"
       ends_tolerance="0.1;1"
       strokeoverlap_rdm="0.3;1"
       strokeoverlap="0.3"
       strokelength_rdm="0.3;1"
       strokelength="100"
       nbiter_approxstrokes="5"
       is_visible="true"
       id="path-effect3893"
       effect="sketch" />
    <inkscape:path-effect
       tgtlength_rdm="0.3;1"
       tgtlength="4"
       tgtscale="10"
       tgt_places_rdmness="1;1"
       nbtangents="5"
       tremble_frequency="1"
       tremble_size="1;1"
       parallel_offset="1;1"
       ends_tolerance="0.1;1"
       strokeoverlap_rdm="0.3;1"
       strokeoverlap="0.3"
       strokelength_rdm="0.3;1"
       strokelength="100"
       nbiter_approxstrokes="5"
       is_visible="true"
       id="path-effect3891"
       effect="sketch" />
    <inkscape:path-effect
       effect="sketch"
       id="path-effect3889"
       is_visible="true"
       nbiter_approxstrokes="5"
       strokelength="100"
       strokelength_rdm="0.3;1"
       strokeoverlap="0.3"
       strokeoverlap_rdm="0.3;1"
       ends_tolerance="0.1;1"
       parallel_offset="1;1"
       tremble_size="1;1"
       tremble_frequency="1"
       nbtangents="5"
       tgt_places_rdmness="1;1"
       tgtscale="10"
       tgtlength="4"
       tgtlength_rdm="0.3;1" />
    <inkscape:path-effect
       tgtlength_rdm="0.3;1"
       tgtlength="4"
       tgtscale="10"
       tgt_places_rdmness="1;1"
       nbtangents="5"
       tremble_frequency="1"
       tremble_size="3;1"
       parallel_offset="3;1"
       ends_tolerance="0.1;1"
       strokeoverlap_rdm="0.3;1"
       strokeoverlap="0.3"
       strokelength_rdm="0.3;1"
       strokelength="100"
       nbiter_approxstrokes="4"
       is_visible="true"
       id="path-effect3887"
       effect="sketch" />
    <inkscape:path-effect
       tgtlength_rdm="0.3;1"
       tgtlength="2"
       tgtscale="10"
       tgt_places_rdmness="1;1"
       nbtangents="5"
       tremble_frequency="1.1"
       tremble_size="2.7;1"
       parallel_offset="2.9;1"
       ends_tolerance="0;1"
       strokeoverlap_rdm="0.1;1"
       strokeoverlap="0.3"
       strokelength_rdm="0.1;1"
       strokelength="100"
       nbiter_approxstrokes="5"
       is_visible="true"
       id="path-effect3859"
       effect="sketch" />
    <inkscape:path-effect
       effect="sketch"
       id="path-effect3855"
       is_visible="true"
       nbiter_approxstrokes="4"
       strokelength="100"
       strokelength_rdm="0.1;1"
       strokeoverlap="0.3"
       strokeoverlap_rdm="0.1;1"
       ends_tolerance="0;1"
       parallel_offset="2.9;1"
       tremble_size="2.7;1"
       tremble_frequency="1.1"
       nbtangents="2"
       tgt_places_rdmness="1;1"
       tgtscale="10"
       tgtlength="2"
       tgtlength_rdm="0.3;1" />
    <inkscape:path-effect
       effect="sketch"
       id="path-effect3851"
       is_visible="true"
       nbiter_approxstrokes="5"
       strokelength="100"
       strokelength_rdm="0.1;1"
       strokeoverlap="0.3"
       strokeoverlap_rdm="0.1;1"
       ends_tolerance="0;1"
       parallel_offset="2.9;1"
       tremble_size="2.7;1"
       tremble_frequency="1.1"
       nbtangents="0"
       tgt_places_rdmness="1;1"
       tgtscale="10"
       tgtlength="2"
       tgtlength_rdm="0.3;1" />
    <inkscape:path-effect
       tgtlength_rdm="0.3;1"
       tgtlength="2"
       tgtscale="10"
       tgt_places_rdmness="1;1"
       nbtangents="5"
       tremble_frequency="1.1"
       tremble_size="2.7;1"
       parallel_offset="2.9;1"
       ends_tolerance="0;1"
       strokeoverlap_rdm="0.1;1"
       strokeoverlap="0.3"
       strokelength_rdm="0.1;1"
       strokelength="100"
       nbiter_approxstrokes="5"
       is_visible="true"
       id="path-effect3847"
       effect="sketch" />
    <inkscape:path-effect
       effect="sketch"
       id="path-effect3843"
       is_visible="true"
       nbiter_approxstrokes="5"
       strokelength="100"
       strokelength_rdm="0.1;1"
       strokeoverlap="0.3"
       strokeoverlap_rdm="0.1;1"
       ends_tolerance="0;1"
       parallel_offset="2.9;1"
       tremble_size="2.7;1"
       tremble_frequency="1.1"
       nbtangents="2"
       tgt_places_rdmness="1;1"
       tgtscale="10"
       tgtlength="2"
       tgtlength_rdm="0.3;1" />
    <inkscape:path-effect
       effect="sketch"
       id="path-effect3837"
       is_visible="true"
       nbiter_approxstrokes="2"
       strokelength="100"
       strokelength_rdm="0;1"
       strokeoverlap="0.3"
       strokeoverlap_rdm="0.3;1"
       ends_tolerance="0;1"
       parallel_offset="2.6;1"
       tremble_size="1;1"
       tremble_frequency="15"
       nbtangents="5"
       tgt_places_rdmness="1;1"
       tgtscale="10"
       tgtlength="6"
       tgtlength_rdm="0.3;1" />
    <inkscape:path-effect
       effect="sketch"
       id="path-effect3833"
       is_visible="true"
       nbiter_approxstrokes="2"
       strokelength="100"
       strokelength_rdm="0.3;1"
       strokeoverlap="0.3"
       strokeoverlap_rdm="0.3;1"
       ends_tolerance="0.1;1"
       parallel_offset="1;1"
       tremble_size="1;1"
       tremble_frequency="5"
       nbtangents="5"
       tgt_places_rdmness="1;1"
       tgtscale="10"
       tgtlength="2"
       tgtlength_rdm="0.3;1" />
    <inkscape:path-effect
       effect="sketch"
       id="path-effect3827"
       is_visible="true"
       nbiter_approxstrokes="5"
       strokelength="100"
       strokelength_rdm="0.3;1"
       strokeoverlap="0.3"
       strokeoverlap_rdm="0.3;1"
       ends_tolerance="0.1;1"
       parallel_offset="2;1"
       tremble_size="2;1"
       tremble_frequency="1"
       nbtangents="5"
       tgt_places_rdmness="1;1"
       tgtscale="10"
       tgtlength="2"
       tgtlength_rdm="0.3;1" />
    <inkscape:path-effect
       effect="sketch"
       id="path-effect3823"
       is_visible="true"
       nbiter_approxstrokes="5"
       strokelength="100"
       strokelength_rdm="0.3;1"
       strokeoverlap="0.3"
       strokeoverlap_rdm="0.3;1"
       ends_tolerance="0.1;1"
       parallel_offset="2;1"
       tremble_size="2;1"
       tremble_frequency="1"
       nbtangents="5"
       tgt_places_rdmness="1;1"
       tgtscale="10"
       tgtlength="2"
       tgtlength_rdm="0.3;1" />
    <inkscape:path-effect
       effect="sketch"
       id="path-effect3781"
       is_visible="true"
       nbiter_approxstrokes="5"
       strokelength="100"
       strokelength_rdm="0.3;1"
       strokeoverlap="0.3"
       strokeoverlap_rdm="0.3;1"
       ends_tolerance="0.1;1"
       parallel_offset="2;1"
       tremble_size="2;1"
       tremble_frequency="1"
       nbtangents="5"
       tgt_places_rdmness="1;1"
       tgtscale="10"
       tgtlength="2"
       tgtlength_rdm="0.3;1" />
    <inkscape:path-effect
       effect="sketch"
       id="path-effect3777"
       is_visible="true"
       nbiter_approxstrokes="5"
       strokelength="100"
       strokelength_rdm="0.3;1"
       strokeoverlap="0.3"
       strokeoverlap_rdm="0.3;1"
       ends_tolerance="0.1;1"
       parallel_offset="1;1"
       tremble_size="1;1"
       tremble_frequency="1"
       nbtangents="5"
       tgt_places_rdmness="1;1"
       tgtscale="10"
       tgtlength="4"
       tgtlength_rdm="0.3;1" />
    <inkscape:path-effect
       tgtlength_rdm="0.3;1"
       tgtlength="4"
       tgtscale="10"
       tgt_places_rdmness="1;1"
       nbtangents="5"
       tremble_frequency="1"
       tremble_size="1;1"
       parallel_offset="1;1"
       ends_tolerance="0.1;1"
       strokeoverlap_rdm="0.3;1"
       strokeoverlap="0.3"
       strokelength_rdm="0.3;1"
       strokelength="100"
       nbiter_approxstrokes="5"
       is_visible="true"
       id="path-effect3773"
       effect="sketch" />
    <inkscape:path-effect
       effect="sketch"
       id="path-effect3769"
       is_visible="true"
       nbiter_approxstrokes="4"
       strokelength="100"
       strokelength_rdm="0.3;1"
       strokeoverlap="0.3"
       strokeoverlap_rdm="0.3;1"
       ends_tolerance="0.1;1"
       parallel_offset="3;1"
       tremble_size="3;1"
       tremble_frequency="1"
       nbtangents="5"
       tgt_places_rdmness="1;1"
       tgtscale="10"
       tgtlength="4"
       tgtlength_rdm="0.3;1" />
    <inkscape:path-effect
       tgtlength_rdm="0.3;1"
       tgtlength="5"
       tgtscale="10"
       tgt_places_rdmness="0.9;1"
       nbtangents="2"
       tremble_frequency="1.5"
       tremble_size="2.5;1"
       parallel_offset="2.7;1"
       ends_tolerance="0;1"
       strokeoverlap_rdm="0;1"
       strokeoverlap="0.5"
       strokelength_rdm="0;1"
       strokelength="100"
       nbiter_approxstrokes="6"
       is_visible="true"
       id="path-effect3759"
       effect="sketch" />
    <inkscape:path-effect
       effect="sketch"
       id="path-effect3755"
       is_visible="true"
       nbiter_approxstrokes="6"
       strokelength="100"
       strokelength_rdm="0;1"
       strokeoverlap="0.5"
       strokeoverlap_rdm="0;1"
       ends_tolerance="0;1"
       parallel_offset="2.8;1"
       tremble_size="2.4;1"
       tremble_frequency="2"
       nbtangents="2"
       tgt_places_rdmness="0.9;1"
       tgtscale="10"
       tgtlength="5"
       tgtlength_rdm="0.3;1" />
  </defs>
  <sodipodi:namedview
     id="base"
     pagecolor="#ffffff"
     bordercolor="#666666"
     borderopacity="1.0"
     inkscape:pageopacity="0.0"
     inkscape:pageshadow="2"
     inkscape:zoom="0.79213845"
     inkscape:cx="1148.9874"
     inkscape:cy="319.77883"
     inkscape:document-units="px"
     inkscape:current-layer="layer1"
     showgrid="false"
     showguides="true"
     inkscape:guide-bbox="true"
     inkscape:window-width="3436"
     inkscape:window-height="1404"
     inkscape:window-x="1680"
     inkscape:window-y="16"
     inkscape:window-maximized="0" />
  <metadata
     id="metadata7">
    <rdf:RDF>
      <cc:Work
         rdf:about="">
        <dc:format>image/svg+xml</dc:format>
        <dc:type
           rdf:resource="http://purl.org/dc/dcmitype/StillImage" />
        <dc:title></dc:title>
      </cc:Work>
    </rdf:RDF>
  </metadata>
  <g
     inkscape:label="Layer 1"
     inkscape:groupmode="layer"
     id="layer1"
     transform="translate(0,-308.2677)">
    <path
       style="fill:none;stroke:#000000;stroke-width:1;stroke-linecap:butt;stroke-linejoin:miter;stroke-miterlimit:4;stroke-opacity:1;stroke-dasharray:24, 24;stroke-dashoffset:0"
       d="m 343.01636,416.06586 c 0.70545,16.12637 -0.22727,33.32861 -0.69418,49.97158 -0.46699,16.64629 -0.39693,32.93064 -1.18124,48.79999 0,0 0,0 0,10e-6 -1.6e-4,0.003 -3.2e-4,0.006 -4.8e-4,0.01 m 0.26881,-54.35282 c -0.693,16.38834 0.14354,32.65013 0.45042,47.98392 0.30693,15.33685 0.26356,33.7262 0.76874,51.16249 0,1e-5 0,1e-5 1e-5,1e-5 10e-5,0.003 2e-4,0.007 3e-4,0.0105 m -2.20372,-46.7132 c -0.48034,16.26983 1.06228,32.93931 3.20654,48.80899 0,0 0,0 0,0 2.14469,15.87286 -0.93,34.42533 -2.775,53.26249 0,10e-6 0,10e-6 0,10e-6 -3.7e-4,0.004 -7.4e-4,0.008 -0.001,0.0113 m 0.13833,-51.67005 c -0.46796,16.66949 0.8166,33.09745 2.43778,49.29625 0,0 0,0 0,0 1.6215,16.20205 0.15325,33.76927 0.45,51.3125 6e-5,0.004 1.2e-4,0.007 1.8e-4,0.0105 m -1.81555,-51.04098 c 0.43073,16.96278 -0.23828,32.68879 -0.69401,48.05857 0,10e-6 0,10e-6 0,10e-6 -0.45581,15.37285 -0.25943,32.83445 -0.76875,48.48124 -10e-5,0.003 -2e-4,0.006 -3e-4,0.009 m 2.91015,-46.44925 c 0.78672,16.89431 0.0192,33.20773 0.037,49.61486 0,10e-6 0,10e-6 0,10e-6 0.0178,16.41041 -0.75488,32.65626 -2.2875,47.95624 0,0 0,0 0,0 -3.1e-4,0.003 -6.1e-4,0.006 -9.2e-4,0.009 m -1.74247,-48.82722 c 0.60589,16.8138 0.6042,34.8787 1.81839,54.65866 0,0 0,0 0,10e-6 1.21444,19.78391 0.31888,31.90363 0.975,45.68749 0,0 0,0 0,0 1.3e-4,0.003 2.6e-4,0.006 3.9e-4,0.008 m 0.25279,-50.20166 c 0.0934,16.22626 -0.62611,33.30293 -1.85631,49.93401 0,10e-6 0,10e-6 0,10e-6 -1.23043,16.63441 0.23482,32.90033 0.71251,48.68749 9e-5,0.003 1.9e-4,0.006 2.8e-4,0.009 m -0.5251,-48.85553 c 0.3122,16.99384 0.0216,32.28811 0.0748,46.85855 0,10e-6 0,10e-6 0,10e-6 0.0532,14.57335 -0.41826,33.48714 -1.25625,50.44999 0,0 0,0 0,0 -1.7e-4,0.003 -3.4e-4,0.007 -5.1e-4,0.0102 m -0.15882,-48.21571 c 0.0878,16.80677 0.93696,32.89953 2.8312,48.71491 0,0 0,0 0,0 1.89462,15.81854 -0.89456,33.59227 -2.7,50.78749 0,10e-6 0,10e-6 0,10e-6 -3.6e-4,0.003 -7.2e-4,0.007 -0.001,0.0103 m -0.72067,-48.63481 c 0.21224,16.4758 -0.13093,32.77591 -0.39387,48.32137 -0.13569,8.02205 -0.17292,16.44694 -0.21753,24.81826 m 1.01711,-576.12038 c -0.68708,17.30054 -0.68067,34.19257 -2.04333,52.59587 -1.36294,18.40697 0.0238,31.88676 0.0562,45.66874 0,0 0,0 0,1e-5 10e-6,0.003 2e-5,0.006 2e-5,0.008 m 3.4533,-40.39828 c 0.32478,16.6628 0.2546,31.98926 0.74981,45.95875 0.49531,13.9723 -0.17456,34.51434 -0.54375,53.5625 0,0 0,0 0,10e-6 -7e-5,0.004 -1.5e-4,0.008 -2.2e-4,0.0114 m 0.15307,-50.52931 c -0.45571,17.06914 0.20892,33.23408 0.61902,49.72726 1e-5,0 1e-5,0 1e-5,0 0.41018,16.49648 0.22062,33.20677 0.67499,49.64375 0,0 0,0 0,0 1e-4,0.003 1.9e-4,0.007 2.8e-4,0.01 m 0.14664,-54.28391 c 0.0746,17.21289 -0.85044,33.57338 -2.55004,50.72092 0,1e-5 0,1e-5 0,1e-5 -1.69994,17.15098 0.58006,32.27583 1.74375,46.81249 2.3e-4,0.003 4.7e-4,0.006 7e-4,0.009 m -0.7724,-46.18941 c 0.29358,16.56994 0.30414,33.9716 0.91857,51.90256 10e-6,0 10e-6,0 10e-6,10e-6 0.61456,17.93454 0.52062,33.51882 1.55625,50.54374 2e-4,0.003 4.1e-4,0.007 6.2e-4,0.0102 m -1.37912,-53.44708 c -0.61834,16.66944 -0.52791,32.9764 -1.59338,48.93999 0,10e-6 0,10e-6 0,10e-6 -1.06569,15.96679 -0.75556,33.97507 -2.25,51.91249 0,0 0,0 0,10e-6 -3e-4,0.004 -6e-4,0.007 -9e-4,0.0108 m 1.28236,-52.76992 c 0.35632,15.99527 1.05095,33.37215 3.13104,50.12165 0,10e-6 0,10e-6 0,10e-6 2.0805,16.75285 -0.0935,34.2397 -0.3,52.73749 0,0 0,0 0,1e-5 -4e-5,0.004 -8e-5,0.007 -1.2e-4,0.0111 m 1.07234,-50.27624 c 0.58053,16.4192 -0.34479,31.75 -1.01285,45.28389 0,10e-6 0,10e-6 0,10e-6 -0.66818,13.5366 0.0364,33.41477 0.13126,50.2625 10e-6,0.003 3e-5,0.007 5e-5,0.0101 m -5.52461,-44.54416 c 0.74962,16.15171 0.92442,34.25515 2.75581,52.76531 0,0 0,0 0,0 1.83175,18.51385 0.29862,33.44639 0.89999,50.31874 0,0 0,0 0,0 1.3e-4,0.003 2.5e-4,0.007 3.7e-4,0.0101 m 0.50618,-54.95359 c 0.49303,16.10154 -0.56945,33.67383 -1.68779,51.02159 -1e-5,0 -1e-5,0 -1e-5,10e-6 -1.11856,17.35122 1.02688,32.81263 3.09375,48.42499 0,0 0,0 0,0 4.2e-4,0.003 8.3e-4,0.006 0.001,0.009 m 1.086,-45.08104 c -0.44937,15.96397 0.45406,33.15786 1.36901,49.48417 0.47216,8.42501 0.46013,17.03198 0.34144,25.67816 m -0.68558,-579.77718 c -0.66194,17.25022 -0.24514,33.27467 -0.74961,49.8584 -0.50456,16.58703 0.28051,33.0877 0.8625,49.26874 0,0 0,0 0,1e-5 1.2e-4,0.003 2.4e-4,0.006 3.5e-4,0.01 m -6.23476,-46.82439 c -0.0622,17.18136 0.65374,32.81896 1.95004,48.45218 1.29656,15.63636 -0.34956,33.07077 -1.05,49.2125 0,0 0,0 0,0 -1.4e-4,0.003 -2.8e-4,0.006 -4.2e-4,0.01 m -1.5118,-50.64988 c 0.46239,16.33866 0.89701,33.32612 2.68097,50.00894 0,10e-6 0,10e-6 0,10e-6 1.78431,16.68616 0.006,32.82576 0.0188,48.48124 0,0 0,0 0,0 0,0.003 0,0.006 10e-6,0.009 m 1.1473,-46.12464 c 0.724,16.25089 -0.69802,32.44393 -2.08168,47.32775 -1e-5,0 -1e-5,0 -1e-5,0 -1.38393,14.88679 0.10313,33.33377 0.31875,50.01874 5e-5,0.003 9e-5,0.007 1.3e-4,0.01 m 2.14688,-45.62792 c 0.21863,17.03139 0.23808,32.51982 0.69362,47.58978 0,0 0,0 0,0 0.45563,15.07298 -0.90044,33.36359 -2.68125,50.1125 -3.6e-4,0.003 -7.1e-4,0.007 -0.001,0.01 m -3.4614,-48.71868 c 0.0502,16.85695 0.67268,33.48892 2.02497,50.45863 0,0 0,0 0,0 1.35256,16.97311 0.10675,33.05071 0.31875,49.15625 0,0 0,0 0,0 4e-5,0.003 8e-5,0.006 1.3e-4,0.01 m 1.00573,-49.56821 c -0.65549,16.99451 0.27238,33.98241 0.82539,51.9398 0,0 0,0 0,10e-6 0.55312,17.96097 -0.0978,32.51345 -0.28125,47.56249 0,0 0,0 0,0 -4e-5,0.003 -7e-5,0.006 -1.1e-4,0.009 m 1.98763,-51.66483 c 0.0369,16.36395 -1.43103,34.14292 -4.29377,52.44643 0,0 0,0 0,0 -2.86331,18.30716 0.13044,33.31627 0.375,49.94374 5e-5,0.003 10e-5,0.007 1.5e-4,0.01 m 0.54319,-50.83457 c -0.68709,16.30164 -0.69081,34.42602 -2.08084,53.30897 0,0 0,0 0,10e-6 -1.39031,18.88672 0.71637,33.11463 2.1375,49.34374 0,0 0,0 0,0 2.8e-4,0.003 5.7e-4,0.006 8.5e-4,0.01 m 4.40836,-55.52513 c -0.27453,16.01403 0.49262,33.44279 1.50016,50.32789 10e-6,0 10e-6,0 10e-6,10e-6 1.00774,16.88847 -1.10432,32.82013 -3.3,48.46249 0,0 0,0 0,0 -4.4e-4,0.003 -8.8e-4,0.006 -0.001,0.009 m 0.83839,-44.20857 c -0.70539,16.9944 0.39135,33.67734 1.20042,51.05855 0.41752,8.96939 0.20899,17.30553 -0.29128,25.3039 m 1.85347,-576.48481 c -0.51827,16.18265 -0.0948,33.53955 -0.28094,50.64654 -0.18618,17.11041 -0.37806,33.39839 -1.14374,50.18749 0,10e-6 0,10e-6 -10e-6,10e-6 -1.5e-4,0.003 -3e-4,0.007 -4.5e-4,0.0101 m -2.22187,-53.4471 c -0.74912,16.40728 0.31807,33.18307 0.93795,49.54015 0.62,16.36036 0.64175,32.8679 1.93125,48.6125 0,0 0,0 0,0 2.6e-4,0.003 5.2e-4,0.006 7.7e-4,0.009 m -5.46952,-46.6497 c 4.6e-4,16.24509 1.13908,33.53488 3.43125,50.609 0,10e-6 0,10e-6 0,10e-6 2.29262,17.07754 -0.79975,33.03976 -2.41875,49.09999 0,0 0,0 0,0 -3.2e-4,0.003 -6.5e-4,0.006 -9.7e-4,0.01 m 4.02918,-54.11186 c 0.1372,17.11963 -0.39393,34.59728 -1.18133,53.81472 -10e-6,10e-6 -10e-6,10e-6 -10e-6,10e-6 -0.78756,19.22129 0.31288,32.84814 0.93751,48.53749 1.2e-4,0.003 2.4e-4,0.006 3.7e-4,0.009 M 338.903,614.3381 c -0.72386,16.7318 1.03091,32.79467 3.07543,48.41496 10e-6,0 10e-6,0 10e-6,0 2.04493,15.62342 -1.25275,34.04402 -3.75001,52.1375 -4.9e-4,0.004 -9.9e-4,0.007 -0.001,0.0109 m 5.91987,-51.95716 c -0.63064,16.58225 -0.0382,33.53048 -0.13087,50.59005 -10e-6,0 -10e-6,0 -10e-6,0 -0.0927,17.06298 -0.24374,33.31864 -0.71249,49.9625 0,0 0,0 -1e-5,0 -9e-5,0.003 -1.8e-4,0.007 -2.8e-4,0.01 m 0.50017,-54.45918 c -0.19391,16.96924 -0.86985,33.23782 -2.58739,49.70856 0,10e-6 0,10e-6 0,10e-6 -1.71787,16.47404 0.80807,33.24033 2.4375,49.69999 0,0 0,0 10e-6,0 3.2e-4,0.003 6.5e-4,0.007 9.7e-4,0.01 m -1.40054,-45.43441 c 0.71785,16.38864 -0.43761,33.40705 -1.31294,50.25266 0,0 0,0 0,10e-6 -0.87549,16.84897 1.01694,34.23457 3.03751,52.68124 4e-4,0.004 8e-4,0.007 0.001,0.0111 m 0.86775,-51.47932 c 0.36206,16.45699 -0.21112,32.57656 -0.65647,47.75887 0,10e-6 0,10e-6 0,10e-6 -0.44543,15.18535 -0.72456,34.06839 -2.19374,52.19374 0,0 0,0 0,0 -3e-4,0.004 -5.9e-4,0.007 -8.9e-4,0.0109 m 1.12594,-51.36922 c 0.0999,17.34411 -0.007,33.83146 -0.0188,51.50834 -10e-6,10e-6 -10e-6,10e-6 -10e-6,10e-6 -0.0121,17.68041 -0.48768,33.3402 -1.44374,50.03749 0,0 0,0 0,0 -2e-4,0.003 -3.9e-4,0.007 -5.8e-4,0.01 m 3.70636,-51.45324 c -0.76837,16.48841 -0.97387,33.09511 -2.90578,49.2776 -0.99695,8.35079 -0.78688,17.12303 -0.16636,26.12006 m -2.66495,-574.18535 c -0.087,16.18256 0.90892,33.31689 2.73755,49.97154 1.829,16.65798 -0.43899,33.2472 -1.29374,49.7375 0,0 0,0 -10e-6,0 -1.7e-4,0.003 -3.4e-4,0.007 -5.1e-4,0.01 m 2.00371,-52.10272 c 0.11201,17.15043 -0.92738,33.55546 -2.77507,50.6647 -1.84806,17.11267 0.26819,34.24971 0.80625,52.75625 0,0 0,0 0,10e-6 1.1e-4,0.004 2.2e-4,0.007 3.2e-4,0.0111 m -1.9222,-51.23557 c -0.006,16.51338 0.86905,33.07403 2.625,49.22134 10e-6,0 10e-6,0 10e-6,0 1.75631,16.15054 -0.80057,32.80289 -2.38125,48.3875 0,0 0,0 -1e-5,0 -3.1e-4,0.003 -6.3e-4,0.006 -9.4e-4,0.009 m -1.44629,-46.59898 c -0.59288,17.27512 0.69189,33.07363 2.08161,49.22088 0,0 0,0 0,0 1.39,16.15048 0.39637,32.03846 1.18125,46.1375 1.6e-4,0.003 3.1e-4,0.006 4.7e-4,0.008 m -0.79401,-46.98879 c 0.3497,17.15013 0.13366,32.79379 0.41229,48.4147 0,1e-5 0,1e-5 0,1e-5 0.27869,15.62404 -0.429,33.28852 -1.29375,49.86874 -1.7e-4,0.003 -3.5e-4,0.007 -5.2e-4,0.01 m -1.79982,-49.44028 c -0.56189,17.14404 0.11263,33.18582 0.31909,49.57721 0,0 0,0 0,0 0.2065,16.39467 -0.336,32.99958 -0.99375,49.00625 0,0 0,0 0,0 -1.3e-4,0.003 -2.6e-4,0.006 -3.9e-4,0.01 m 3.13508,-47.73357 c 0.53079,17.3436 0.17432,32.56452 0.54344,47.70209 0,1e-5 0,1e-5 0,1e-5 0.36918,15.1406 0.14287,33.44539 0.41249,50.35624 0,0 0,0 10e-6,10e-6 5e-5,0.003 1e-4,0.007 1.6e-4,0.0101 m 4.65655,-51.97807 c 0.78052,17.00054 0.1234,33.43864 0.39329,50.34605 0,0 0,0 0,10e-6 0.26993,16.91078 -0.43207,33.8482 -1.29376,51.55624 -1.7e-4,0.004 -3.4e-4,0.007 -5.1e-4,0.0106 m -1.2308,-49.37525 c -0.11259,17.28713 -0.49026,31.87447 -1.48119,45.63963 0,0 0,0 0,0 -0.99112,13.76792 -0.26599,33.79402 -0.78749,51.36874 0,10e-6 0,10e-6 0,10e-6 -1.1e-4,0.004 -2.1e-4,0.007 -3.2e-4,0.0105 m -0.9125,-42.36663 c -0.53065,15.8828 0.18657,33.18264 0.54406,49.55922 10e-6,0 10e-6,0 10e-6,0 0.35756,16.37985 -0.68557,33.24833 -2.0625,49.75624 0,0 0,0 0,10e-6 -2.8e-4,0.003 -5.6e-4,0.007 -8.3e-4,0.01 m -1.57689,-52.77155 c 0.68728,17.05045 1.15925,33.32208 3.50584,49.97102 1.21093,8.5915 0.99949,16.98259 0.33242,25.16752 m 0.24537,-574.29155 c -0.55523,17.24419 1.15662,33.78475 3.48783,51.35841 2.33169,17.57716 -0.95237,33.29651 -2.84999,49.86874 0,0 0,0 -10e-6,0 -3.7e-4,0.003 -7.5e-4,0.007 -0.001,0.01 m -1.35505,-52.07458 c 0.11254,17.27522 0.38227,33.31149 1.14368,49.95213 0.76157,16.64398 -0.75587,33.4509 -2.26874,50.375 0,0 0,0 -10e-6,0 -3e-4,0.003 -6e-4,0.007 -9e-4,0.0102 m 4.70731,-53.6217 c 0.26217,17.20636 -0.18223,32.89798 -0.54391,48.71467 0,0 0,0 0,0 -0.36175,15.81985 0.0218,33.97177 0.075,51.89374 0,10e-6 0,10e-6 0,10e-6 2e-5,0.004 3e-5,0.007 4e-5,0.0108 m -4.3598,-52.51591 c -0.64959,17.43146 -0.58846,33.69998 -1.74336,51.13328 0,1e-5 0,1e-5 0,1e-5 -1.15513,17.43679 0.10006,34.05358 0.3,52.15624 4e-5,0.004 8e-5,0.007 1.2e-4,0.0109 m 6.07449,-50.11688 c -0.65598,16.00777 -0.9558,33.41859 -2.84961,50.25289 0,0 0,0 0,1e-5 -1.89419,16.83766 0.17275,32.4397 0.525,47.33749 7e-5,0.003 1.4e-4,0.006 2.1e-4,0.009 m -3.10678,-49.13993 c -0.53024,16.05781 1.19605,33.61289 3.58157,50.83411 0,1e-5 0,1e-5 0,1e-5 2.386,17.22466 -0.0313,33.93851 -0.1125,51.83749 0,0 0,0 0,10e-6 -2e-5,0.004 -3e-5,0.007 -5e-5,0.0107 m -2.09985,-50.09158 c 0.16848,16.28914 -0.26033,34.4287 -0.76885,53.27147 0,0 0,0 0,10e-6 -0.50863,18.84653 1.12081,31.90095 3.375,45.72499 0,0 0,0 0,0 4.5e-4,0.003 9e-4,0.006 0.001,0.008 m -2.41741,-50.69203 c -0.73011,16.69471 1.02691,33.72549 3.09419,51.17123 0,0 0,0 0,1e-5 2.06768,17.44922 -0.74063,32.61426 -2.23126,47.86249 -2.9e-4,0.003 -5.9e-4,0.006 -8.9e-4,0.009 m -0.037,-48.94246 c -0.64293,17.40015 0.43825,33.44646 1.33164,50.34581 0,0 0,0 0,10e-6 0.89356,16.90272 0.48781,34.50295 1.46249,53.50623 0,10e-6 0,10e-6 0,10e-6 2e-4,0.004 3.9e-4,0.008 5.9e-4,0.0114 m 1.80927,-52.79512 c 0.79271,16.71328 -0.59609,33.31557 -1.76298,49.95247 0,0 0,0 0,0 -1.16713,16.64023 -0.006,34.03183 -0.0187,52.09999 0,10e-6 0,10e-6 0,10e-6 0,0.004 -1e-5,0.007 -1e-5,0.0108 m 2.32466,-50.19769 c -0.57491,16.70715 -1.23634,33.6103 -3.6934,50.85247 -1.26794,8.89764 -1.26473,17.43466 -0.9994,25.84829 m -0.15685,-229.92464 0,8.04297 m 0,170.97456 0,7.17578"
       id="path3753"
       inkscape:connector-curvature="0"
       inkscape:path-effect="#path-effect3755"
       inkscape:original-d="m 341.43156,411.92546 0,575.78698"
       sodipodi:nodetypes="cc" />
    <path
       sodipodi:nodetypes="cc"
       inkscape:original-d="m 707.10678,411.92546 0,575.78698"
       inkscape:path-effect="#path-effect3759"
       inkscape:connector-curvature="0"
       id="path3757"
       d="m 708.69149,416.04718 c 0.73505,21.65942 -0.23661,44.43972 -0.72299,66.63739 -0.2433,11.10383 -0.34666,22.11335 -0.49142,33.02164 m 1.74171,-54.59879 c 0.63731,21.84802 -0.76946,44.25925 -2.28545,66.12949 -0.75833,10.94005 -0.72083,21.87828 -0.45386,32.68684 m -0.11142,-46.88934 c 0.76124,22.77845 0.30438,44.73826 0.93716,67.55485 0.31653,11.41343 0.21095,22.43718 -0.0773,33.29718 m 3.98088,-51.11918 c -0.74843,22.87629 -0.9687,45.57532 -2.89029,70.05481 -0.96123,12.24525 -0.73019,23.03767 -0.0275,33.22715 m -4.93213,-56.58616 c -0.48766,22.22533 0.85048,44.19903 2.53929,65.93401 0.84478,10.87238 0.88446,22.10049 0.75173,33.50329 m -0.71636,-45.90934 c 0.48178,21.8546 1.24814,44.51922 3.73025,66.89121 1.24162,11.19103 1.17925,22.13935 0.74727,32.89997 m -2.52398,-50.17583 c -0.3316,22.98675 0.60606,45.10672 1.79702,68.68758 0.59576,11.79573 0.539,23.03435 0.27374,34.22621 m -0.11481,-53.05837 c 0.7479,22.86923 -0.7869,43.732 -2.38314,64.52747 -0.79849,10.40241 -0.81294,21.39405 -0.64497,32.43944 m -4.18834,-52.22729 c 0.63122,22.37551 0.62939,46.05434 1.89424,71.51988 0.63271,12.7385 0.71561,23.47992 0.72592,33.43997 m 0.92082,-49.11288 c -0.31212,22.57662 0.48954,44.18559 1.46498,65.91432 0.48794,10.86925 0.32472,21.97751 -0.12071,33.14284 m -3.28566,-52.63836 c -0.27954,22.68744 0.66677,44.95633 2.01184,68.19942 0.18424,3.18366 0.32432,6.33447 0.43058,9.4603 m 0.6013,-578.75263 c -0.33842,22.82395 -0.43566,44.59777 -1.30844,67.12514 -0.43659,11.26876 -0.3615,22.60903 -0.1,34.13736 m -2.09841,-45.39942 c 0.0914,22.36838 0.97591,43.99291 2.94918,65.32847 0.98708,10.67258 0.75368,21.85463 0.0384,33.21594 m 0.55754,-50.74132 c -0.26036,22.31037 -0.45354,45.76431 -1.36708,70.64101 -0.45697,12.44394 -0.49093,23.41415 -0.44497,33.90668 m 0.17757,-58.89497 c -0.48128,21.39931 0.44241,44.8225 1.34787,67.78985 0.45294,11.48884 0.2754,22.82881 -0.19287,34.30198 m -1.51861,-49.82362 c 0.52709,21.9266 0.45257,45.99912 1.36695,71.34429 0.4574,12.6783 0.56234,23.77924 0.6568,34.47643 m -0.33392,-57.49215 c 0.48786,22.93487 -0.18212,45.66804 -0.56663,70.36729 -0.19234,12.35518 -0.11165,23.38287 0.0989,34.01428 m 0.17587,-50.2192 c -0.47484,22.64172 0.21753,44.34141 0.64474,66.38304 0.21371,11.02578 0.27113,22.10727 0.33436,33.18099 m 4.03255,-50.46564 c -0.61813,22.53761 -0.37014,44.24799 -1.113,66.07059 -0.3716,10.91621 -0.59299,22.09506 -0.94302,33.38653 m -4.28438,-48.04531 c -0.12382,22.73925 -0.71995,44.13909 -2.14838,65.77753 -0.71454,10.82409 -0.63376,22.07843 -0.29503,33.5455 m 3.47462,-50.34793 c -0.21452,22.96058 0.54258,44.63073 1.62119,67.22274 0.53955,11.30109 0.58869,22.25949 0.55165,33.01474 m 2.2629,-47.89093 c -0.64421,22.22528 -0.54888,44.07291 -1.65986,65.56291 -0.15218,2.94353 -0.27747,5.92698 -0.38437,8.94467 m -0.78294,-579.59048 c -0.26671,22.03679 0.0559,44.63278 0.15637,67.26222 0.0502,11.31981 0.32402,22.44593 0.85631,33.53198 m -2.65288,-47.66472 c 0.6762,21.58144 -1.2525,44.72754 -3.7503,67.51633 -1.24947,11.39952 -1.11729,22.51651 -0.54341,33.56583 m 0.83996,-55.55019 c -0.70909,21.44476 0.0383,44.52299 0.13704,66.93045 0.0494,11.20878 0.3307,22.48241 0.87918,33.89226 m -0.7343,-48.18432 c 0.78095,21.68573 0.96296,45.40478 2.87074,69.54753 0.95433,12.07681 1.03185,23.22043 0.9493,34.1504 m -1.61336,-53.08433 c 2.4e-4,22.3883 0.78663,45.34357 2.34375,69.39096 0.77891,12.02911 0.63043,23.23362 0.1416,34.29879 m -1.03946,-51.98572 c -0.45578,22.66771 -1.31321,44.24853 -3.92558,66.10959 -1.30677,10.93545 -1.10235,22.23216 -0.36564,33.75852 m 7.12102,-48.35583 c -0.20817,22.18637 0.0122,44.44522 0.0392,66.65669 0.0135,11.11073 -0.0746,22.06548 -0.25142,32.85915 m -2.95695,-53.21072 c 0.47499,21.39911 0.29206,44.18221 0.89822,65.89532 0.30321,10.86143 0.33662,22.00232 0.32638,33.22988 m -2.7061,-43.98943 c -0.0648,22.75869 0.6809,43.90905 2.03128,65.05486 0.6755,10.57766 0.58421,21.62385 0.23289,32.73576 m 3.26243,-52.31076 c 0.006,21.40561 -0.65945,44.16124 -1.99219,65.83672 -0.66667,10.84261 -0.43276,21.95695 0.2002,33.14173 m 2.69667,-48.72424 c -0.007,22.08222 -1.47111,44.26561 -4.41406,66.12938 -0.4031,2.99473 -0.66838,6.02038 -0.81858,9.07427 m 3.17466,-576.11508 c -0.37078,22.72632 0.10762,44.43801 0.3322,66.67597 0.11234,11.12398 0.0505,22.26152 -0.10383,33.41932 m -0.31794,-50.04457 c 0.22777,22.60247 0.24801,43.59745 0.72255,64.1565 0.23738,10.28415 0.003,21.40672 -0.52335,32.74747 m -3.06365,-41.30565 c -0.6377,22.34232 -0.49414,43.85363 -1.48409,64.8988 -0.4952,10.52732 -0.31984,21.68424 0.15548,33.02777 m 2.64454,-53.28137 c 0.0519,22.07568 -0.44098,44.15918 -1.32815,65.83642 -0.44378,10.84349 -0.50562,22.03054 -0.51597,33.35651 m -1.41464,-43.55745 c -0.32531,22.81064 -0.10177,43.58323 -0.29283,64.11734 -0.0956,10.27168 0.1388,21.51342 0.63409,33.0952 m 6.94796,-50.02779 c 0.0386,21.90688 -1.4905,45.28792 -4.47267,69.2154 -1.49176,11.96913 -1.45732,23.07887 -1.01831,33.96997 m 3.01249,-56.91883 c -0.77433,22.1992 -0.59292,43.87395 -1.75746,64.97699 -0.58253,10.55627 -0.7624,21.95717 -0.97786,33.78677 m 2.09132,-42.41765 c 0.40333,22.22521 -0.0645,43.84541 -0.19549,64.87932 -0.0656,10.52169 -0.0223,21.54993 0.0817,32.64243 m 2.55621,-51.84036 c -0.80704,22.55051 -1.15031,43.9029 -3.43714,65.05496 -1.14393,10.58079 -1.13857,21.72254 -0.84258,33.02558 m 1.11725,-44.85319 c -0.735,22.56379 0.40983,44.80447 1.25033,67.7698 0.42044,11.48783 0.22934,22.35642 -0.25713,32.88572 m 1.78657,-50.62074 c -0.53999,21.71803 -0.0992,44.65735 -0.29272,67.34048 -0.0265,3.10696 -0.0531,6.19779 -0.0814,9.27605 m -2.30278,-576.15256 c 0.55269,21.51637 -0.9263,44.70895 -2.75415,67.4773 -0.91434,11.38929 -0.83134,22.46621 -0.43911,33.43455 m 3.78589,-53.16558 c -0.20861,21.91299 -1.42931,43.9771 -4.29678,65.27009 -1.43439,10.65128 -1.44047,21.77618 -1.09469,33.02873 m 4.02101,-48.25017 c -0.53371,22.38794 -0.83309,44.13181 -2.51929,65.71909 -0.84348,10.7985 -0.74255,21.90399 -0.32731,33.08072 m 3.10237,-51.65436 c 0.143,22.69419 -0.41028,45.76128 -1.23053,70.64083 -0.41031,12.44538 -0.32866,23.433 -0.0631,33.96075 m 0.0122,-51.14284 c -0.37108,23.01253 -0.88004,44.32743 -2.61702,66.32428 -0.86888,11.00338 -0.60021,21.97929 0.15197,32.84704 m -0.98179,-50.4577 c -0.28612,22.03034 0.39049,44.81142 1.19154,67.78957 0.4007,11.49424 0.45268,22.37059 0.45911,32.91437 m 2.2216,-52.95759 c 0.53988,22.60271 -0.25422,44.42231 -0.74243,66.61743 -0.24421,11.10256 -0.32855,22.24875 -0.43669,33.42845 m 5.99676,-50.50684 c -0.20195,22.53763 -0.90604,44.34528 -2.69523,66.36355 -0.89499,11.01409 -0.68416,22.10433 -0.0374,33.19268 m 0.57409,-49.6884 c -0.13036,22.23822 -0.85209,43.81623 -2.57806,64.80119 -0.86338,10.4972 -0.97699,21.63273 -0.98895,32.94622 m -0.0827,-41.83222 c 0.46183,22.99936 -0.22573,43.79602 -0.66427,64.74225 -0.21937,10.47783 -0.13693,21.79224 0.0813,33.4663 m 0.82379,-53.69435 c 0.82598,21.57507 -0.75313,45.20525 -2.28553,68.94211 -0.20989,3.25129 -0.3466,6.44456 -0.42184,9.59144 m 5.91642,-577.27825 c 0.10409,22.92815 -0.007,44.96365 -0.0196,68.23837 -0.006,11.6426 -0.13336,22.75868 -0.38343,33.74679 m -2.41563,-51.18875 c 0.34508,21.9065 0.94916,44.03884 2.87094,65.4654 0.96132,10.7181 0.70757,21.77195 -0.0383,32.86236 m 0.49299,-50.10119 c 0.0844,21.9326 -0.72382,44.28312 -2.16801,66.20758 -0.72241,10.96717 -0.48546,22.07904 0.17027,33.22657 m -2.14719,-51.08317 c -0.80655,22.362 0.46457,44.40404 1.40661,66.55895 0.47124,11.08243 0.49582,22.12813 0.42694,33.11115 m 0.3925,-49.29263 c -0.20158,22.63553 0.27954,45.39243 0.83994,69.52757 0.28032,12.073 0.37406,23.01809 0.49009,33.55172 m -4.49244,-51.3358 c -0.006,22.06268 0.90516,44.17461 2.73438,65.85595 0.91502,10.84555 0.70614,21.82186 0.0627,32.72437 m -1.01357,-45.49073 c -0.20175,21.50995 -0.26659,44.97198 -0.78116,68.23902 -0.2574,11.63876 -0.0772,22.68723 0.3484,33.53746 m 4.08375,-57.54994 c 0.27307,21.45136 -0.54162,44.83896 -1.60168,67.84842 -0.53027,11.50991 -0.4266,22.69065 -0.0883,33.83709 m 2.38109,-49.28629 c -0.38396,21.45122 -0.44684,44.39143 -1.34748,66.52029 -0.45053,11.06941 -0.3169,22.54975 0.0653,34.4056 M 708.05417,863 c -0.58546,22.71978 0.11722,44.29116 0.3323,66.22676 0.10758,10.97273 0.02,22.00025 -0.18016,32.97719 m 0.13946,-51.58237 c -0.1691,22.0502 0.15064,45.97762 0.42976,71.24658 0.0382,3.46115 0.0694,6.793 0.0956,10.01904 m -1.76436,-231.53862 0,8.04297 m 0,170.97456 0,7.17578"
       style="fill:none;stroke:#000000;stroke-width:1;stroke-linecap:butt;stroke-linejoin:miter;stroke-miterlimit:4;stroke-opacity:1;stroke-dasharray:24, 24;stroke-dashoffset:0" />
    <path
       style="fill:none;stroke:#000000;stroke-width:1px;stroke-linecap:butt;stroke-linejoin:miter;stroke-opacity:1"
       d="m 507.77667,568.79091 c -0.10037,0.01 -0.20164,0.0199 -0.30381,0.0305 -3.979,0.41133 -9.31725,1.44484 -14.70812,3.89374 -5.39087,2.44891 -10.82848,6.3098 -14.96362,12.3415 -4.13515,6.03171 -6.96746,14.23617 -7.18245,25.37058 -0.13646,7.06746 0.87968,13.01672 2.70621,18.0176 m -3.77229,-25.15213 c -0.0108,0.36951 -0.0184,0.74248 -0.0226,1.11896 -0.12585,11.31631 2.94795,19.80002 7.56764,26.11447 4.6197,6.31445 10.80351,10.47121 17.00774,13.20972 6.20423,2.73851 12.43017,4.05944 17.10991,4.69574 1.59135,0.21638 3.0037,0.35354 4.17505,0.4403 m -19.04274,0.63774 c 3.97549,1.24362 7.76948,1.92029 10.86768,2.2841 2.24548,0.26368 4.12525,0.36318 5.44388,0.39669 0.65931,0.0168 1.17837,0.017 1.53302,0.0131 0.17733,-0.002 0.31357,-0.005 0.40572,-0.008 0.0461,-0.001 0.0811,-0.002 0.1048,-0.003 0.0118,-4.2e-4 0.0208,-7.5e-4 0.0269,-9.9e-4 0.006,-2.4e-4 0.009,-3.8e-4 0.01,-3.9e-4 10e-6,0 10e-6,0 10e-6,0 0,0 1e-5,0 2e-5,0 2.6e-4,-10e-6 0.003,-1.5e-4 0.01,-4.4e-4 0.006,-2.9e-4 0.0151,-7.3e-4 0.0269,-0.001 0.0237,-0.001 0.0587,-0.003 0.10475,-0.006 0.0921,-0.005 0.22834,-0.0137 0.40577,-0.0264 0.35487,-0.0253 0.87462,-0.0674 1.53649,-0.13478 1.32373,-0.13481 3.21602,-0.37087 5.4954,-0.77708 4.55877,-0.81242 10.67061,-2.30555 16.84551,-5.03517 6.17491,-2.72963 12.408,-6.6931 17.17693,-12.45873 2.03361,-2.45862 3.80114,-5.24538 5.18577,-8.40925 m -6.74016,14.73832 c 1.88007,-1.42953 3.64542,-3.03675 5.24197,-4.84125 2.4049,-2.71814 4.4269,-5.88384 5.88132,-9.56361 1.45442,-3.67976 2.34125,-7.87362 2.47432,-12.64841 0.18127,-6.50402 -0.54483,-12.11383 -1.93581,-16.93843 -1.39098,-4.82461 -3.4483,-8.86501 -5.94618,-12.24122 -2.49788,-3.37621 -5.43668,-6.08843 -8.59431,-8.25922 -3.15764,-2.1708 -6.534,-3.80007 -9.90917,-5.0124 -2.94909,-1.05929 -5.89721,-1.80023 -8.7005,-2.30838 m 19.08158,6.48582 c -1.64257,-1.62221 -3.3811,-3.05251 -5.17974,-4.31375 -3.22137,-2.25888 -6.63541,-3.97554 -10.03219,-5.27852 -6.79356,-2.60595 -13.51119,-3.5586 -18.52141,-3.86592 -2.5051,-0.15366 -4.58498,-0.14554 -6.04036,-0.0991 -0.72769,0.0232 -1.29926,0.0561 -1.68952,0.0831 -0.19513,0.0136 -0.34493,0.0257 -0.4462,0.0344 -0.0506,0.004 -0.0892,0.008 -0.11512,0.0104 -0.013,0.001 -0.0228,0.002 -0.0295,0.003 -0.007,6.6e-4 -0.0102,0.001 -0.0104,0.001 -1e-5,0 -2e-5,0 -2e-5,0 0,0 0,0 -1e-5,0 -2.5e-4,-2e-5 -0.003,-1.9e-4 -0.008,-4.9e-4 -0.005,-3.1e-4 -0.0131,-7.5e-4 -0.0234,-0.001 -0.0206,-0.001 -0.051,-0.003 -0.091,-0.004 -0.08,-0.004 -0.19815,-0.008 -0.35195,-0.0122 -0.30759,-0.008 -0.75766,-0.0143 -1.32924,-0.006 -1.14316,0.0158 -2.77236,0.0875 -4.71846,0.31056 -3.89219,0.44608 -9.05088,1.49799 -14.13098,3.9083 -4.30632,2.04319 -8.56082,5.06369 -11.91672,9.50487 m 25.13055,-9.67496 c -3.74139,0.6799 -8.17137,1.83714 -12.55458,3.8335 -5.45204,2.48318 -10.8379,6.27239 -14.76352,12.07918 -3.92563,5.8068 -6.39987,13.64381 -5.89774,24.04312 0.29942,6.20108 1.61127,11.41865 3.63083,15.81305 m -7.07488,-14.89761 c -0.002,0.0949 -0.004,0.19001 -0.006,0.28533 -0.19639,11.42672 2.90647,19.87799 7.57491,26.13469 4.66845,6.2567 10.93161,10.31488 17.22988,12.93734 6.29827,2.62247 12.63406,3.80867 17.40314,4.33661 2.38454,0.26397 4.37655,0.36368 5.7732,0.3974 0.69833,0.0169 1.24783,0.0172 1.62324,0.0134 0.18771,-0.002 0.33189,-0.005 0.42943,-0.007 0.0488,-0.001 0.0859,-0.002 0.11091,-0.003 0.0125,-4.2e-4 0.022,-7.5e-4 0.0285,-9.9e-4 0.006,-2.4e-4 0.01,-3.7e-4 0.0101,-3.8e-4 10e-6,0 10e-6,-10e-6 10e-6,-10e-6 10e-6,0 10e-6,0 2e-5,0 2.8e-4,-10e-6 0.004,-1.5e-4 0.0101,-4.4e-4 0.006,-2.9e-4 0.016,-7.2e-4 0.0285,-0.001 0.025,-0.001 0.0621,-0.003 0.11086,-0.006 0.0272,-0.001 0.0581,-0.003 0.0925,-0.005 m -13.63406,-4.57308 c 3.23524,0.84258 6.24283,1.36728 8.77447,1.69407 2.28544,0.29502 4.18322,0.42853 5.51132,0.48774 0.66405,0.0296 1.18567,0.0406 1.54189,0.0442 0.1781,0.002 0.31485,0.002 0.40734,0.001 0.0462,-2.8e-4 0.0814,-6.7e-4 0.10518,-9.9e-4 0.0119,-1.6e-4 0.0209,-3.1e-4 0.027,-4.1e-4 0.006,-1.1e-4 0.009,-1.8e-4 0.01,-1.8e-4 10e-6,0 2e-5,0 2e-5,0 0,0 0,0 1e-5,0 2.6e-4,-10e-6 0.003,-8e-5 0.01,-2.4e-4 0.006,-1.6e-4 0.0151,-4e-4 0.027,-7.5e-4 0.0237,-6.9e-4 0.0589,-0.002 0.10509,-0.003 0.0924,-0.003 0.22904,-0.009 0.40691,-0.0174 0.35574,-0.0174 0.87647,-0.0477 1.53817,-0.0994 1.3234,-0.10322 3.21064,-0.2914 5.46836,-0.62946 4.51545,-0.67613 10.50878,-1.94839 16.46124,-4.35735 5.95247,-2.40896 11.87033,-5.96085 16.25275,-11.20599 1.51939,-1.81849 2.85381,-3.84003 3.93816,-6.08446 m -9.89694,12.08702 c 1.84343,-1.44487 3.57318,-3.06869 5.13538,-4.89152 2.36496,-2.75952 4.34621,-5.97467 5.75521,-9.71823 1.409,-3.74357 2.24591,-8.01521 2.3167,-12.89696 0.0964,-6.64973 -0.71308,-12.41645 -2.18862,-17.402 -1.47553,-4.98554 -3.61842,-9.19131 -6.20609,-12.73989 -2.58768,-3.54857 -5.62074,-6.44079 -8.87995,-8.80292 -3.25922,-2.36213 -6.74466,-4.19439 -10.23565,-5.61878 -2.05904,-0.84013 -4.11996,-1.53825 -6.1373,-2.11857 m 23.94055,11.39638 c -1.87965,-1.88919 -3.91015,-3.5172 -6.03084,-4.91724 -3.20877,-2.11837 -6.62388,-3.71479 -10.03236,-4.90983 -6.81696,-2.39009 -13.60364,-3.17239 -18.68252,-3.34587 -2.53944,-0.0867 -4.65281,-0.022 -6.13279,0.0649 -0.74,0.0435 -1.32164,0.0924 -1.71886,0.13054 -0.19861,0.0191 -0.35111,0.0354 -0.45422,0.0471 -0.0516,0.006 -0.0908,0.0104 -0.1172,0.0136 -0.0132,0.002 -0.0232,0.003 -0.03,0.004 -0.007,8.5e-4 -0.0103,0.001 -0.0106,0.001 -10e-6,0 -2e-5,0 -2e-5,0 0,0 0,0 -1e-5,0 -2.6e-4,-10e-6 -0.003,-10e-5 -0.009,-2.6e-4 -0.005,-1.5e-4 -0.0134,-3.7e-4 -0.0238,-6.2e-4 -0.0209,-5.1e-4 -0.0519,-0.001 -0.0926,-0.002 -0.0814,-0.001 -0.20176,-0.002 -0.35838,-0.002 -0.31323,6.7e-4 -0.77161,0.007 -1.35407,0.032 -1.16492,0.049 -2.82613,0.16885 -4.81426,0.45327 -3.97628,0.56884 -9.25963,1.79469 -14.50057,4.44514 -5.24094,2.65046 -10.44468,6.71987 -14.23219,13.02743 -0.29196,0.48622 -0.57547,0.9858 -0.84987,1.49916 m 26.31479,-17.12536 c -3.73398,0.61388 -8.37276,1.7749 -13.04573,3.97442 -5.35467,2.52039 -10.75082,6.40606 -14.83134,12.40896 -4.08051,6.0029 -6.8472,14.12398 -6.94536,25.09543 -0.0771,8.61776 1.60921,15.53352 4.40819,21.08687 m -7.5471,-22.58514 c 0.59153,10.72563 3.60857,18.65514 7.95352,24.57923 4.57815,6.24207 10.6079,10.23884 16.62066,12.78322 6.01276,2.54439 12.00713,3.63456 16.50471,4.08608 2.24879,0.22577 4.1232,0.29233 5.43665,0.30262 0.65673,0.005 1.17319,-0.004 1.52599,-0.014 0.17639,-0.005 0.31188,-0.0105 0.40351,-0.0147 0.0458,-0.002 0.0807,-0.004 0.10421,-0.005 0.0118,-6.3e-4 0.0207,-0.001 0.0268,-0.001 0.006,-3.4e-4 0.009,-5.3e-4 0.01,-5.5e-4 10e-6,0 10e-6,0 10e-6,0 0,0 1e-5,0 2e-5,0 2.6e-4,-2e-5 0.003,-2.2e-4 0.009,-6.2e-4 0.006,-4e-4 0.015,-9.9e-4 0.0267,-0.002 0.0235,-0.002 0.0584,-0.004 0.10415,-0.008 0.0916,-0.007 0.227,-0.0178 0.40334,-0.0336 0.35269,-0.0316 0.86911,-0.083 1.52611,-0.16235 1.31401,-0.15865 3.19025,-0.42906 5.44447,-0.87677 2.74143,-0.54447 6.04186,-1.3513 9.57254,-2.53673 m -24.68337,7.31553 c 1.92751,0.22561 3.54178,0.33809 4.71922,0.39349 0.67902,0.0319 1.21275,0.0449 1.57729,0.0498 0.18227,0.002 0.32224,0.003 0.41691,0.003 0.0473,-10e-5 0.0833,-3.6e-4 0.10766,-5.9e-4 0.0122,-1.2e-4 0.0214,-2.3e-4 0.0276,-3.1e-4 0.006,-9e-5 0.01,-1.4e-4 0.01,-1.5e-4 2e-5,0 2e-5,0 2e-5,0 0,0 10e-6,0 2e-5,0 2.7e-4,0 0.004,-6e-5 0.01,-2e-4 0.006,-1.3e-4 0.0155,-3.4e-4 0.0276,-6.4e-4 0.0243,-6e-4 0.0603,-0.002 0.10759,-0.003 0.0946,-0.003 0.23449,-0.008 0.41663,-0.0159 0.36429,-0.016 0.89764,-0.0443 1.57586,-0.0932 1.35644,-0.0978 3.29231,-0.27781 5.61449,-0.60426 4.64435,-0.65291 10.83097,-1.88804 17.04292,-4.23483 6.21194,-2.34679 12.44978,-5.81287 17.23143,-10.93247 2.39082,-2.5598 4.41789,-5.53238 5.90224,-8.96722 1.48436,-3.43485 2.42542,-7.33245 2.65576,-11.71851 0.10886,-2.07281 0.11329,-4.0363 0.0222,-5.89668 m -0.38665,16.21286 c 0.17244,-0.41797 0.33724,-0.84308 0.49408,-1.27542 1.30937,-3.60933 2.06387,-7.72368 2.06972,-12.39859 0.008,-6.36797 -0.83495,-11.84393 -2.33266,-16.53607 -1.49771,-4.69214 -3.64917,-8.60136 -6.2459,-11.84323 -2.59672,-3.24187 -5.63853,-5.81623 -8.91267,-7.84193 -3.27415,-2.0257 -6.78072,-3.50247 -10.30296,-4.55632 -1.51704,-0.4539 -3.03693,-0.82946 -4.54204,-1.13734 m 16.07429,3.06245 c -0.0755,-0.0548 -0.15107,-0.10927 -0.22681,-0.16343 -3.17654,-2.27151 -6.59342,-3.99155 -10.02986,-5.29034 -6.87288,-2.59757 -13.82756,-3.50906 -19.07274,-3.77247 -2.62259,-0.1317 -4.81695,-0.10153 -6.35639,-0.0387 -0.76972,0.0314 -1.3757,0.071 -1.78972,0.10274 -0.20701,0.0159 -0.36604,0.0298 -0.47356,0.0398 -0.0538,0.005 -0.0947,0.009 -0.12224,0.0118 -0.0138,0.001 -0.0243,0.002 -0.0313,0.003 -0.007,7.4e-4 -0.0108,0.001 -0.011,0.001 -1e-5,0 -2e-5,0 -2e-5,0 0,0 0,0 -2e-5,0 -2.6e-4,-1e-5 -0.003,-1.5e-4 -0.009,-3.9e-4 -0.006,-2.4e-4 -0.0139,-5.8e-4 -0.0248,-0.001 -0.0218,-8.4e-4 -0.0542,-0.002 -0.0966,-0.003 -0.0849,-0.003 -0.21045,-0.006 -0.37387,-0.008 -0.32685,-0.004 -0.80529,-0.005 -1.41398,0.0104 -1.21737,0.0305 -2.95569,0.12413 -5.04491,0.37634 -4.17844,0.50444 -9.76092,1.64438 -15.38471,4.17303 -4.92844,2.216 -9.8857,5.49796 -13.9721,10.34749 m 33.96369,-13.10718 c -0.0787,0.003 -0.15998,0.006 -0.24371,0.009 -1.20545,0.0486 -2.92382,0.16674 -4.97845,0.44512 -4.10926,0.55676 -9.56057,1.75222 -14.96294,4.33058 -5.40237,2.57836 -10.76143,6.53923 -14.69226,12.65854 -3.93084,6.11932 -6.43887,14.38955 -6.04354,25.66633 0.3549,10.12328 2.98572,18.03162 6.89481,24.23039 m -6.19127,-25.0792 c 6e-4,0.19201 0.002,0.38482 0.004,0.57845 0.13089,11.5581 3.19058,19.92726 7.75518,26.06005 4.56459,6.13279 10.62404,10.00111 16.68011,12.40217 6.05607,2.40105 12.10846,3.33207 16.65145,3.65328 2.27149,0.1606 4.16546,0.16998 5.49266,0.13944 0.66361,-0.0153 1.18551,-0.0405 1.54202,-0.0619 0.17826,-0.0107 0.31517,-0.0204 0.40777,-0.0276 0.0463,-0.004 0.0815,-0.006 0.10531,-0.008 0.0119,-0.001 0.0209,-0.002 0.027,-0.002 0.006,-5.4e-4 0.009,-8.4e-4 0.01,-8.6e-4 10e-6,0 10e-6,0 10e-6,0 0,0 1e-5,0 2e-5,-10e-6 2.6e-4,-2e-5 0.003,-3.2e-4 0.01,-9.1e-4 0.006,-5.9e-4 0.0151,-0.001 0.027,-0.003 0.0238,-0.002 0.059,-0.006 0.10524,-0.0109 0.0925,-0.01 0.2294,-0.0251 0.40761,-0.0466 0.35643,-0.043 0.87832,-0.11112 1.54231,-0.21211 1.32799,-0.202 3.22432,-0.53547 5.50253,-1.06375 3.96557,-0.91956 9.08816,-2.43026 14.38754,-4.86036 m -28.78853,5.00797 c 1.50079,0.17199 2.77351,0.26581 3.74444,0.31682 0.66681,0.035 1.19128,0.0499 1.54955,0.0559 0.17914,0.003 0.31673,0.004 0.4098,0.004 0.0465,4e-5 0.0819,-1.2e-4 0.10583,-2.8e-4 0.0119,-8e-5 0.021,-1.7e-4 0.0272,-2.3e-4 0.006,-7e-5 0.009,-1.1e-4 0.01,-1.2e-4 10e-6,0 10e-6,0 10e-6,0 0,0 10e-6,0 2e-5,0 2.6e-4,0 0.003,-5e-5 0.01,-1.7e-4 0.006,-1.2e-4 0.0152,-3e-4 0.0272,-5.7e-4 0.0239,-5.3e-4 0.0593,-0.001 0.10577,-0.003 0.093,-0.003 0.23055,-0.007 0.40965,-0.0148 0.35822,-0.0152 0.88276,-0.0423 1.55016,-0.0905 1.3348,-0.0962 3.24107,-0.27629 5.53161,-0.6105 4.58106,-0.6684 10.69962,-1.95391 16.85643,-4.40977 6.15681,-2.45587 12.35062,-6.08438 17.08273,-11.42152 2.36605,-2.66856 4.36679,-5.76393 5.81809,-9.34381 1.45131,-3.57987 2.35307,-7.64474 2.52578,-12.23797 0.23527,-6.25672 -0.40977,-11.59662 -1.71912,-16.15073 -0.40783,-1.4185 -0.88007,-2.76065 -1.41006,-4.03009 m 1.44526,24.37661 c 0.42431,-2.16475 0.68161,-4.47601 0.74828,-6.94426 0.17674,-6.54247 -0.49705,-12.20477 -1.82053,-17.09203 -1.32347,-4.88725 -3.29602,-9.00028 -5.70286,-12.45905 -2.40684,-3.45877 -5.2473,-6.26383 -8.30262,-8.53975 -3.05532,-2.27591 -6.32516,-4.02289 -9.59442,-5.36428 -6.53852,-2.68278 -13.06783,-3.74564 -17.94713,-4.14291 -0.46365,-0.0377 -0.91247,-0.0695 -1.3451,-0.0959 m 12.75969,9.07808 c -6.55006,-2.49401 -13.10886,-3.41591 -18.05906,-3.71414 -2.53185,-0.15253 -4.6437,-0.14173 -6.12337,-0.093 -0.73984,0.0244 -1.32167,0.0583 -1.71906,0.0861 -0.19869,0.0139 -0.35128,0.0263 -0.45445,0.0353 -0.0516,0.004 -0.0908,0.008 -0.11727,0.0106 -0.0132,0.001 -0.0233,0.002 -0.0301,0.003 -0.007,6.7e-4 -0.0103,0.001 -0.0106,0.001 -1e-5,10e-6 -1e-5,10e-6 -1e-5,10e-6 0,0 -10e-6,0 -2e-5,-10e-6 -2.5e-4,-1e-5 -0.003,-1.8e-4 -0.009,-4.7e-4 -0.005,-3e-4 -0.0134,-7.2e-4 -0.0238,-0.001 -0.021,-0.001 -0.052,-0.003 -0.0927,-0.004 -0.0815,-0.003 -0.2019,-0.008 -0.35864,-0.0115 -0.31349,-0.007 -0.77229,-0.0126 -1.35547,-0.003 -1.16635,0.0185 -2.83032,0.0945 -4.8234,0.32413 -3.98616,0.45924 -9.29001,1.53384 -14.54902,3.9814 -5.25901,2.44757 -10.47911,6.26963 -14.24458,12.20146 -3.05024,4.80511 -5.15013,10.997 -5.44571,18.92585 m 92.23183,31.71798 3.52618,-5.38213 m -30.32398,-61.71203 -5.65601,-0.982 m 29.77971,14.02771 -4.33436,-4.09902 m -78.18002,8.71408 -3.07202,6.95828 m 50.24834,60.24355 6.69833,-1.05722"
       id="path3767"
       inkscape:connector-curvature="0"
       sodipodi:nodetypes="cscsc"
       inkscape:path-effect="#path-effect3769"
       inkscape:original-d="m 512.45831,563.73305 c 0,0 -43.57143,-2.13134 -43.57143,42.14286 0,45.71429 48.57143,44.28571 48.57143,44.28571 0,0 48.52999,-1.49694 49.28571,-40 1.02936,-52.44493 -54.28571,-46.42857 -54.28571,-46.42857 z" />
    <path
       inkscape:original-d="m 514.7001,597.16976 c 0,0 4.22524,-13.15969 -9.3243,-16.79028 -13.99026,-3.74867 -17.53603,11.23312 -17.53603,11.23312 0,0 -3.52146,14.97471 8.19992,18.36334 15.96568,4.61563 18.66041,-12.80618 18.66041,-12.80618 z"
       inkscape:path-effect="#path-effect3773"
       sodipodi:nodetypes="cscsc"
       inkscape:connector-curvature="0"
       id="path3771"
       d="m 515.81364,592.2868 c -0.023,-0.1952 -0.0503,-0.39205 -0.0823,-0.59015 -0.30406,-1.8826 -1.03227,-3.87705 -2.52741,-5.63009 -1.49515,-1.75304 -3.75654,-3.26512 -7.12865,-4.18248 -3.48221,-0.94731 -6.32147,-0.72025 -8.61871,0.15129 -2.29724,0.87153 -4.05315,2.38796 -5.37396,4.02335 -1.32081,1.6354 -2.20665,3.38987 -2.76297,4.73757 -0.27815,0.67385 -0.4739,1.246 -0.60034,1.65069 -0.0632,0.20234 -0.10912,0.36282 -0.13933,0.47322 -0.0151,0.0552 -0.0263,0.0979 -0.0338,0.12702 -0.004,0.0146 -0.007,0.0257 -0.008,0.0334 -0.002,0.008 -0.003,0.0118 -0.003,0.0123 -10e-6,3e-5 -2e-5,5e-5 -2e-5,5e-5 0,0 0,2e-5 -1e-5,5e-5 -0.004,0.0162 -0.89253,3.76324 -0.32439,7.93277 0.28407,2.08476 0.93264,4.27499 2.23811,6.15687 1.30547,1.88187 3.26802,3.45537 6.17574,4.30799 3.96116,1.1615 7.10007,0.94614 9.57799,-0.0301 2.47792,-0.97626 4.29427,-2.71325 5.61311,-4.59597 0.42383,-0.60504 0.79631,-1.22514 1.12301,-1.83992 m -16.68534,4.46529 c 0.002,5.2e-4 0.004,0.001 0.005,0.002 3.97112,1.13888 7.12496,0.91071 9.61792,-0.0758 2.49297,-0.98649 4.32581,-2.73085 5.66206,-4.61922 1.33625,-1.88837 2.17616,-3.92057 2.68261,-5.48262 0.25322,-0.78102 0.42304,-1.44452 0.52971,-1.91381 0.0533,-0.23464 0.0909,-0.42073 0.11516,-0.54867 0.0121,-0.064 0.021,-0.1134 0.0268,-0.1471 0.003,-0.0168 0.005,-0.0298 0.007,-0.0386 0.001,-0.009 0.002,-0.0136 0.002,-0.0141 0,-3e-5 0,-5e-5 0,-5e-5 8e-5,2e-5 1.6e-4,4e-5 2.4e-4,5e-5 0,0 10e-6,-10e-6 2e-5,-5e-5 0.005,-0.0159 1.06499,-3.30514 0.43886,-7.0402 -0.31307,-1.86753 -1.04785,-3.84663 -2.54565,-5.58354 -1.49779,-1.73691 -3.75874,-3.23169 -7.11957,-4.12853 -3.47058,-0.92611 -6.29301,-0.68531 -8.57255,0.19811 -2.27954,0.88341 -4.0157,2.40969 -5.31576,4.05379 -1.30007,1.6441 -2.1642,3.40597 -2.70337,4.75901 -0.26958,0.67652 -0.45797,1.25081 -0.5792,1.65699 -0.0606,0.20309 -0.10442,0.36415 -0.13321,0.47495 -0.0144,0.0554 -0.025,0.0982 -0.0321,0.12747 -0.004,0.0146 -0.006,0.0258 -0.008,0.0335 -0.002,0.008 -0.003,0.0118 -0.003,0.0124 -1e-5,4e-5 -1e-5,6e-5 -1e-5,6e-5 0,0 -10e-6,1e-5 -2e-5,5e-5 -5.8e-4,0.003 -0.0226,0.1013 -0.0567,0.28242 m 25.45228,-2.84354 c -0.4393,-1.16586 -1.08545,-2.32253 -2.01637,-3.39004 -1.52591,-1.74984 -3.81743,-3.26002 -7.21594,-4.18054 -3.50949,-0.95057 -6.35833,-0.73039 -8.66111,0.13342 -2.30277,0.86382 -4.05883,2.37108 -5.37692,3.99649 -1.31808,1.6254 -2.19802,3.36902 -2.74878,4.70799 -0.27538,0.66949 -0.46849,1.23785 -0.59301,1.63984 -0.0623,0.201 -0.10736,0.3604 -0.13703,0.47006 -0.0148,0.0548 -0.0258,0.0972 -0.0331,0.12616 -0.004,0.0145 -0.006,0.0256 -0.008,0.0332 -0.002,0.008 -0.003,0.0117 -0.003,0.0122 -1e-5,3e-5 -2e-5,5e-5 -2e-5,5e-5 0,0 0,2e-5 -1e-5,5e-5 -0.004,0.0161 -0.87459,3.73898 -0.27403,7.87422 0.30028,2.06762 0.96812,4.23843 2.29564,6.09871 1.32751,1.86029 3.31455,3.4103 6.25654,4.23012 4.00784,1.11683 7.18384,0.86571 9.69513,-0.14355 2.2237,-0.89369 3.92655,-2.38233 5.22346,-4.04022 m -13.95162,4.50217 c 0.0798,0.0249 0.16039,0.0493 0.24166,0.0731 4.02527,1.18049 7.20592,0.97434 9.71998,0.006 2.51406,-0.96859 4.36089,-2.70003 5.70747,-4.57794 1.34658,-1.87791 2.19251,-3.90257 2.70223,-5.45969 0.25485,-0.77856 0.42565,-1.44024 0.53292,-1.9083 0.0536,-0.23403 0.0914,-0.41965 0.11581,-0.54727 0.0122,-0.0638 0.0211,-0.11313 0.027,-0.14674 0.003,-0.0168 0.005,-0.0297 0.007,-0.0385 0.001,-0.009 0.002,-0.0135 0.002,-0.0141 0,-3e-5 10e-6,-4e-5 10e-6,-4e-5 1.1e-4,9e-5 2.2e-4,1.9e-4 3.3e-4,2.9e-4 0,0 10e-6,-2e-5 2e-5,-6e-5 0.005,-0.0158 1.06843,-3.29713 0.43699,-7.0284 -0.31572,-1.86563 -1.0549,-3.84359 -2.55988,-5.58039 -1.50497,-1.73679 -3.77569,-3.23238 -7.15381,-4.13222 -3.48844,-0.92922 -6.32718,-0.69204 -8.62205,0.18804 -2.29488,0.88008 -4.04593,2.40307 -5.36032,4.04418 -1.31439,1.64112 -2.19211,3.40033 -2.7415,4.75151 -0.2747,0.67559 -0.46733,1.24914 -0.59153,1.65482 -0.0621,0.20284 -0.10709,0.36371 -0.13667,0.47437 -0.0148,0.0553 -0.0257,0.0981 -0.033,0.12732 -0.004,0.0146 -0.006,0.0258 -0.008,0.0335 -0.002,0.008 -0.003,0.0118 -0.003,0.0123 -10e-6,3e-5 -2e-5,5e-5 -2e-5,5e-5 1e-5,0 0,2e-5 -10e-6,6e-5 -0.004,0.0162 -0.87236,3.77158 -0.2706,7.95132 0.30087,2.08987 0.96927,4.28577 2.29785,6.17432 1.32859,1.88856 3.31697,3.46946 6.26282,4.33402 0.35374,0.10382 0.70104,0.19694 1.042,0.27977 m 16.11315,-23.23288 c -0.42057,-1.46553 -1.13535,-2.94854 -2.29788,-4.29056 -1.51759,-1.75188 -3.799,-3.2636 -7.18092,-4.18365 -3.49235,-0.9501 -6.32598,-0.72759 -8.61393,0.13899 -2.28795,0.86657 -4.02919,2.37729 -5.33234,4.00654 -1.30315,1.62926 -2.16811,3.37715 -2.70717,4.71958 -0.26953,0.67122 -0.45765,1.24108 -0.57863,1.64415 -0.0605,0.20153 -0.1042,0.36136 -0.1329,0.47132 -0.0143,0.055 -0.0249,0.0975 -0.032,0.1265 -0.004,0.0145 -0.006,0.0256 -0.008,0.0333 -0.002,0.008 -0.003,0.0118 -0.003,0.0123 -10e-6,3e-5 -10e-6,5e-5 -10e-6,5e-5 0,0 0,2e-5 -1e-5,5e-5 -0.004,0.0161 -0.84314,3.74866 -0.20084,7.89782 0.32115,2.07458 1.01226,4.2533 2.36551,6.12242 1.35325,1.86911 3.3681,3.42875 6.34912,4.26205 4.06101,1.13518 7.27999,0.89878 9.83145,-0.0969 2.55146,-0.99567 4.43708,-2.75103 5.82383,-4.65188 1.38676,-1.90085 2.27408,-3.94713 2.81638,-5.52079 0.27114,-0.78683 0.4559,-1.45546 0.57307,-1.92841 0.0321,-0.12965 0.0592,-0.2446 0.0815,-0.34325 m -14.62887,14.43397 c 2.14223,0.15638 3.98159,-0.15383 5.55706,-0.77134 2.48697,-0.97477 4.31646,-2.71548 5.65087,-4.60489 1.33441,-1.88942 2.17422,-3.92803 2.68122,-5.49699 0.2535,-0.78448 0.42374,-1.45147 0.53074,-1.92334 0.0535,-0.23594 0.0912,-0.4231 0.11558,-0.55179 0.0122,-0.0643 0.0211,-0.11406 0.0269,-0.14796 0.003,-0.017 0.005,-0.0299 0.007,-0.0388 0.001,-0.009 0.002,-0.0136 0.002,-0.0142 0,-3e-5 10e-6,-5e-5 10e-6,-5e-5 10e-5,-1.7e-4 2.1e-4,-3.5e-4 3.2e-4,-5.3e-4 0,0 0,-2e-5 2e-5,-6e-5 0.005,-0.0159 1.06755,-3.32392 0.44931,-7.09653 -0.30912,-1.88631 -1.03881,-3.88832 -2.52945,-5.65561 -1.49063,-1.76729 -3.74252,-3.29949 -7.08791,-4.25685 -3.45462,-0.98862 -6.26259,-0.80237 -8.52816,0.029 -2.26558,0.83139 -3.98783,2.30673 -5.27405,3.90068 -1.28622,1.59395 -2.13664,3.30682 -2.6652,4.62217 -0.26428,0.65767 -0.44818,1.21607 -0.56622,1.61104 -0.059,0.19748 -0.10158,0.35411 -0.1295,0.46186 -0.014,0.0539 -0.0243,0.0955 -0.0311,0.12396 -0.003,0.0142 -0.006,0.0251 -0.008,0.0326 -0.002,0.007 -0.003,0.0115 -0.003,0.012 -10e-6,4e-5 -10e-6,5e-5 -10e-6,5e-5 0,0 0,2e-5 -1e-5,5e-5 -0.004,0.0158 -0.81714,3.67613 -0.15133,7.735 0.0659,0.40177 0.14632,0.80743 0.24349,1.2138 m 25.85716,-4.41735 c 0.22074,-1.31648 0.39813,-3.30929 0.024,-5.44967 -0.32701,-1.87064 -1.07558,-3.85394 -2.58711,-5.59697 -1.51153,-1.74303 -3.78666,-3.24569 -7.16207,-4.1562 -3.48563,-0.94023 -6.31578,-0.71233 -8.60113,0.15864 -2.28536,0.87098 -4.02504,2.38488 -5.32728,4.01671 -1.30224,1.63182 -2.167,3.38159 -2.70616,4.72529 -0.26958,0.67185 -0.45782,1.24219 -0.5789,1.64559 -0.0605,0.2017 -0.10429,0.36166 -0.13302,0.4717 -0.0144,0.055 -0.025,0.0976 -0.0321,0.12659 -0.004,0.0145 -0.006,0.0257 -0.008,0.0333 -0.002,0.008 -0.003,0.0118 -0.003,0.0123 -10e-6,3e-5 -10e-6,5e-5 -10e-6,5e-5 0,0 -1e-5,2e-5 -1e-5,5e-5 -0.004,0.0162 -0.84407,3.7514 -0.20606,7.90245 0.31901,2.07553 1.00725,4.25509 2.35677,6.12502 1.34952,1.86993 3.35995,3.43034 6.33387,4.26489 3.53358,0.9916 6.42719,0.93979 8.79621,0.25103 m -14.04727,-5.57613 c 0.046,0.0681 0.0929,0.13588 0.14064,0.20324 1.3273,1.87339 3.31113,3.43958 6.24268,4.2869 3.99361,1.15429 7.15074,0.93963 9.64317,-0.0339 2.49244,-0.97353 4.31916,-2.70501 5.64587,-4.58014 1.32672,-1.87513 2.15327,-3.89381 2.64794,-5.44518 0.24734,-0.77569 0.41177,-1.43461 0.51453,-1.90064 0.0514,-0.23301 0.0873,-0.41781 0.11053,-0.54486 0.0116,-0.0635 0.02,-0.11261 0.0256,-0.14608 0.003,-0.0167 0.005,-0.0296 0.006,-0.0383 0.001,-0.009 0.002,-0.0135 0.002,-0.014 0,-3e-5 10e-6,-5e-5 10e-6,-5e-5 -2.1e-4,2.5e-4 -4.1e-4,5e-4 -6.2e-4,7.4e-4 0,0 1e-5,-10e-6 2e-5,-5e-5 0.005,-0.0157 1.03729,-3.28256 0.36662,-6.98788 -0.33534,-1.85266 -1.09621,-3.81513 -2.62708,-5.53196 -1.53086,-1.71683 -3.83161,-3.18815 -7.25401,-4.05014 -3.53414,-0.89015 -6.41019,-0.61987 -8.74034,0.29132 -1.86978,0.73118 -3.38836,1.87537 -4.61188,3.16205 m 22.90895,8.75646 c -0.016,-0.64528 -0.0731,-1.32456 -0.18916,-2.0196 -0.31118,-1.86424 -1.0463,-3.84193 -2.54819,-5.5806 -1.50189,-1.73867 -3.77011,-3.23784 -7.14901,-4.14826 -3.48923,-0.94015 -6.33193,-0.71576 -8.63177,0.15089 -2.29985,0.86664 -4.05732,2.37491 -5.37914,4.00037 -1.32181,1.62547 -2.20804,3.3681 -2.76447,4.70601 -0.27822,0.66895 -0.47396,1.23676 -0.60039,1.63835 -0.0632,0.2008 -0.10909,0.36003 -0.13929,0.46958 -0.0151,0.0548 -0.0263,0.0971 -0.0337,0.12602 -0.004,0.0145 -0.007,0.0255 -0.008,0.0331 -0.002,0.008 -0.003,0.0117 -0.003,0.0122 0,4e-5 -10e-6,5e-5 -10e-6,5e-5 0,0 0,2e-5 -1e-5,5e-5 -0.004,0.0161 -0.89225,3.73511 -0.32193,7.86263 0.28516,2.06376 0.93519,4.22993 2.24247,6.08494 1.30728,1.85501 3.27193,3.39916 6.18268,4.21103 3.96528,1.10599 7.10752,0.84666 9.58835,-0.16969 2.48083,-1.01636 4.29978,-2.79076 5.621,-4.70984 1.32121,-1.91907 2.14491,-3.98246 2.63838,-5.56895 0.24673,-0.79324 0.41093,-1.46719 0.5136,-1.94387 0.0513,-0.23834 0.0873,-0.42737 0.11047,-0.55733 0.0116,-0.065 0.02,-0.1152 0.0256,-0.14943 0.003,-0.0171 0.005,-0.0302 0.006,-0.0392 0.001,-0.009 0.002,-0.0138 0.002,-0.0143 10e-6,-3e-5 10e-6,-5e-5 10e-6,-5e-5 -2e-4,-5e-4 -4.1e-4,-10e-4 -6.1e-4,-0.001 0,0 0,-2e-5 2e-5,-6e-5 0.003,-0.0105 0.44105,-1.42916 0.5641,-3.46531 M 500.563,609.82569 c 2.11903,0.15311 3.93995,-0.1484 5.50157,-0.75036 2.49051,-0.96003 4.32155,-2.68396 5.65637,-4.55475 1.33482,-1.87078 2.17374,-3.88883 2.67957,-5.44093 0.25291,-0.77606 0.42252,-1.43565 0.52904,-1.90223 0.0533,-0.23329 0.0908,-0.41833 0.115,-0.54556 0.0121,-0.0636 0.021,-0.11277 0.0268,-0.14629 0.003,-0.0168 0.005,-0.0296 0.007,-0.0384 0.001,-0.009 0.002,-0.0135 0.002,-0.014 10e-6,-4e-5 10e-6,-5e-5 10e-6,-5e-5 7e-5,2e-4 1.4e-4,4e-4 2.1e-4,6e-4 0,0 10e-6,-2e-5 2e-5,-6e-5 0.005,-0.0158 1.06406,-3.28703 0.43801,-7.00639 -0.31303,-1.85967 -1.04756,-3.83118 -2.54473,-5.56044 -1.49717,-1.72926 -3.75717,-3.21624 -7.11587,-4.10367 -3.46838,-0.91641 -6.28848,-0.66896 -8.56566,0.22082 -2.27717,0.88979 -4.01082,2.42207 -5.3083,4.07231 -1.29747,1.65023 -2.15891,3.41834 -2.69596,4.77638 -0.26853,0.67902 -0.45601,1.25548 -0.57658,1.66321 -0.0603,0.20386 -0.10385,0.36554 -0.13245,0.47677 -0.0143,0.0556 -0.0249,0.0986 -0.0319,0.12795 -0.004,0.0147 -0.006,0.0259 -0.008,0.0337 -0.002,0.008 -0.003,0.0119 -0.003,0.0124 -1e-5,3e-5 -2e-5,5e-5 -2e-5,5e-5 0,0 0,2e-5 -1e-5,5e-5 -0.004,0.0163 -0.83974,3.7898 -0.20176,7.99288 0.31898,2.10155 1.0063,4.31034 2.35382,6.21306 1.34751,1.90271 3.35506,3.49884 6.32343,4.38468 0.47644,0.14219 0.9412,0.26518 1.39456,0.36998 m -9.9228,-5.77779 4.3157,4.77242 m 19.07732,-4.19492 2.38916,-5.21984 m -9.23895,10.87516 5.0582,-3.16279 m 3.96284,-21.89517 -5.93263,-4.76014 m -20.2856,9.81876 -0.69915,6.74511"
       style="fill:none;stroke:#000000;stroke-width:0.31683266px;stroke-linecap:butt;stroke-linejoin:miter;stroke-opacity:1" />
    <path
       style="fill:none;stroke:#000000;stroke-width:0.31683266px;stroke-linecap:butt;stroke-linejoin:miter;stroke-opacity:1"
       d="m 538.60894,583.80847 c -0.15282,-0.12088 -0.30985,-0.2399 -0.47107,-0.35649 -1.53264,-1.10832 -3.44488,-1.99632 -5.72945,-2.17202 -2.28456,-0.17569 -4.94075,0.36047 -7.96294,2.10099 -3.12087,1.79735 -4.96358,3.96635 -5.96886,6.20687 -1.00529,2.24051 -1.17383,4.55295 -0.95165,6.64115 0.44436,4.1764 2.45046,7.4564 2.45915,7.47059 1e-5,3e-5 2e-5,4e-5 2e-5,4e-5 0,0 10e-6,2e-5 3e-5,5e-5 2.7e-4,4.4e-4 0.003,0.004 0.007,0.0107 0.004,0.007 0.0103,0.0164 0.0183,0.0291 0.0161,0.0254 0.0398,0.0624 0.071,0.11031 0.0625,0.0957 0.155,0.23454 0.27621,0.40864 0.24244,0.34819 0.59968,0.83752 1.06101,1.40563 0.92267,1.13622 2.26167,2.58761 3.93179,3.85496 1.67013,1.26735 3.6716,2.35058 5.91871,2.7504 2.24712,0.39983 4.74005,0.1162 7.38881,-1.34886 3.60837,-1.99584 5.66489,-4.38051 6.71727,-6.83462 1.05238,-2.45412 1.10005,-4.97752 0.69353,-7.25179 -0.13064,-0.7309 -0.30816,-1.43608 -0.51417,-2.105 m -7.2673,14.19496 c 0.002,-9.1e-4 0.003,-0.002 0.005,-0.003 3.61833,-2.01846 5.68978,-4.41593 6.7572,-6.88028 1.06743,-2.46434 1.13158,-4.99511 0.74248,-7.27503 -0.3891,-2.27992 -1.23122,-4.30881 -1.97702,-5.76929 -0.37289,-0.73024 -0.72174,-1.31839 -0.978,-1.72483 -0.12812,-0.20322 -0.2331,-0.36101 -0.30635,-0.46842 -0.0366,-0.0537 -0.0653,-0.0948 -0.085,-0.1227 -0.01,-0.0139 -0.0174,-0.0246 -0.0227,-0.0318 -0.005,-0.007 -0.008,-0.0111 -0.008,-0.0116 -2e-5,-3e-5 -3e-5,-4e-5 -3e-5,-4e-5 8e-5,2e-5 1.6e-4,4e-5 2.4e-4,5e-5 0,0 -1e-5,-10e-6 -2e-5,-5e-5 -2.4e-4,-4.6e-4 -0.002,-0.004 -0.005,-0.0102 -0.003,-0.006 -0.008,-0.0155 -0.0145,-0.0274 -0.0127,-0.0238 -0.0315,-0.0586 -0.0564,-0.10343 -0.0498,-0.0896 -0.12402,-0.21926 -0.22248,-0.38127 -0.19693,-0.324 -0.49093,-0.7774 -0.88104,-1.29867 -0.78023,-1.04252 -1.94491,-2.35647 -3.48655,-3.44972 -1.54164,-1.09325 -3.46046,-1.96591 -5.74768,-2.12547 -2.28721,-0.15956 -4.94295,0.39389 -7.95387,2.15493 -3.10924,1.81856 -4.93512,4.0013 -5.9227,6.2537 -0.98758,2.25239 -1.13637,4.57468 -0.89345,6.67159 0.48583,4.19382 2.53934,7.48643 2.54824,7.50067 10e-6,3e-5 2e-5,5e-5 2e-5,5e-5 0,0 1e-5,10e-6 3e-5,4e-5 2.8e-4,4.5e-4 0.003,0.004 0.007,0.0108 0.004,0.007 0.0105,0.0165 0.0187,0.0292 0.0164,0.0254 0.0407,0.0627 0.0727,0.11076 0.018,0.0271 0.0385,0.0577 0.0614,0.0915 m 14.79671,-20.58922 c -1.13511,-0.52255 -2.40968,-0.89216 -3.82212,-0.99738 -2.31534,-0.1725 -5.00166,0.36557 -8.05025,2.10292 -3.14814,1.79409 -5.00044,3.95622 -6.01125,6.18901 -1.01082,2.2328 -1.17952,4.53608 -0.95461,6.61429 0.4498,4.15642 2.47504,7.41176 2.48381,7.42583 10e-6,3e-5 2e-5,5e-5 2e-5,5e-5 0,0 1e-5,10e-6 3e-5,4e-5 2.8e-4,4.4e-4 0.003,0.004 0.007,0.0107 0.004,0.007 0.0104,0.0163 0.0185,0.0289 0.0162,0.0251 0.0402,0.062 0.0717,0.10945 0.063,0.095 0.15639,0.23269 0.27869,0.40538 0.24459,0.34536 0.60502,0.83059 1.07059,1.39355 0.93114,1.12591 2.2829,2.56272 3.96924,3.81292 1.68633,1.25021 3.70707,2.31403 5.97623,2.69225 2.26916,0.37823 4.78658,0.0711 7.46961,-1.42674 3.65505,-2.04051 5.74865,-4.46094 6.8344,-6.94805 0.96143,-2.20233 1.13293,-4.45747 0.89774,-6.54562 m -6.7455,14.00222 c 0.0739,-0.0381 0.14786,-0.0771 0.22198,-0.11702 3.67249,-1.97685 5.77074,-4.3523 6.85927,-6.79875 1.08852,-2.44645 1.16667,-4.9643 0.78789,-7.23376 -0.37877,-2.26946 -1.21487,-4.29081 -1.9574,-5.74636 -0.37126,-0.72778 -0.71914,-1.31411 -0.97478,-1.71932 -0.12783,-0.20261 -0.2326,-0.35993 -0.30571,-0.46702 -0.0366,-0.0535 -0.0652,-0.0945 -0.0849,-0.12235 -0.01,-0.0139 -0.0174,-0.0245 -0.0226,-0.0317 -0.005,-0.007 -0.008,-0.0111 -0.008,-0.0115 -10e-6,-2e-5 -2e-5,-3e-5 -2e-5,-3e-5 1.1e-4,9e-5 2.2e-4,1.9e-4 3.3e-4,2.9e-4 0,0 -10e-6,-2e-5 -3e-5,-5e-5 -2.3e-4,-4.7e-4 -0.002,-0.004 -0.005,-0.0102 -0.003,-0.006 -0.008,-0.0154 -0.0144,-0.0273 -0.0127,-0.0238 -0.0315,-0.0585 -0.0563,-0.10315 -0.0497,-0.0894 -0.1238,-0.21869 -0.22212,-0.38026 -0.19665,-0.32316 -0.49033,-0.77539 -0.88033,-1.29541 -0.77998,-1.04002 -1.94534,-2.35123 -3.48963,-3.44258 -1.5443,-1.09135 -3.46752,-1.96287 -5.76191,-2.12232 -2.29439,-0.15944 -4.9599,0.39321 -7.98811,2.15124 -3.12709,1.81545 -4.96929,3.99457 -5.9722,6.24363 -1.00292,2.24906 -1.1666,4.56807 -0.93801,6.66198 0.45719,4.18784 2.48428,7.47599 2.49306,7.49022 10e-6,3e-5 2e-5,4e-5 2e-5,4e-5 0,0 10e-6,2e-5 3e-5,5e-5 2.8e-4,4.4e-4 0.003,0.004 0.007,0.0108 0.004,0.007 0.0104,0.0165 0.0185,0.0292 0.0162,0.0254 0.0402,0.0626 0.0718,0.11061 0.0631,0.096 0.15658,0.2352 0.27901,0.40978 0.24486,0.34918 0.60565,0.8399 1.07157,1.40969 0.93186,1.13959 2.2843,2.59546 3.97124,3.86791 1.68693,1.27246 3.70823,2.36136 5.97845,2.76786 2.27023,0.4065 4.789,0.13027 7.47589,-1.32284 0.3227,-0.17452 0.63328,-0.35206 0.93212,-0.53242 m -4.25364,-29.49558 c -1.33103,-0.74747 -2.88206,-1.29846 -4.64925,-1.43216 -2.307,-0.17454 -4.98321,0.36199 -8.01522,2.09981 -3.13101,1.79457 -4.96809,3.95902 -5.96408,6.19458 -0.99599,2.23556 -1.14986,4.54228 -0.91002,6.62434 0.47967,4.16413 2.53652,7.42934 2.54543,7.44345 2e-5,3e-5 3e-5,5e-5 3e-5,5e-5 0,0 10e-6,10e-6 3e-5,4e-5 2.8e-4,4.5e-4 0.003,0.004 0.007,0.0107 0.004,0.007 0.0105,0.0163 0.0188,0.029 0.0165,0.0252 0.0408,0.0622 0.0728,0.1098 0.064,0.0953 0.15878,0.23343 0.2829,0.40668 0.24825,0.34649 0.61393,0.83337 1.08602,1.39839 0.94418,1.13005 2.31407,2.57275 4.02127,3.82991 1.70721,1.25717 3.75122,2.3289 6.04611,2.71596 2.2949,0.38706 4.84014,0.0896 7.56219,-1.39481 3.70822,-2.02216 5.84481,-4.42786 6.97073,-6.90139 1.12592,-2.47354 1.24285,-5.0153 0.90425,-7.3077 -0.33859,-2.2924 -1.1333,-4.33537 -1.84325,-5.80746 -0.35497,-0.73605 -0.68889,-1.32932 -0.93464,-1.73943 -0.0674,-0.11246 -0.12814,-0.21114 -0.18089,-0.29522 m -1.08167,20.85584 c 1.61278,-1.41017 2.68677,-2.93405 3.35916,-4.48774 1.06144,-2.45263 1.12224,-4.97974 0.7313,-7.2607 -0.39095,-2.28096 -1.23316,-4.31627 -1.9784,-5.78366 -0.37262,-0.7337 -0.72106,-1.32533 -0.97698,-1.73436 -0.12796,-0.20452 -0.23279,-0.36338 -0.30594,-0.47154 -0.0366,-0.0541 -0.0652,-0.0955 -0.0849,-0.12356 -0.01,-0.014 -0.0174,-0.0248 -0.0226,-0.0321 -0.005,-0.007 -0.008,-0.0112 -0.008,-0.0116 -2e-5,-3e-5 -3e-5,-4e-5 -3e-5,-4e-5 1.1e-4,-1.7e-4 2.2e-4,-3.5e-4 3.3e-4,-5.3e-4 0,0 -10e-6,-2e-5 -3e-5,-5e-5 -2.4e-4,-4.7e-4 -0.002,-0.004 -0.005,-0.0103 -0.003,-0.006 -0.008,-0.0156 -0.0145,-0.0276 -0.0127,-0.024 -0.0315,-0.059 -0.0563,-0.10413 -0.0497,-0.0902 -0.12379,-0.22079 -0.22207,-0.38398 -0.19657,-0.32637 -0.49001,-0.78327 -0.87932,-1.3092 -0.77862,-1.05185 -1.94067,-2.37984 -3.47836,-3.49187 -1.53769,-1.11203 -3.45142,-2.0076 -5.73148,-2.19754 -2.28005,-0.18994 -4.92674,0.3261 -7.92221,2.02661 -3.09328,1.75605 -4.9047,3.88425 -5.87832,6.08461 -0.97361,2.20036 -1.1085,4.47172 -0.85173,6.51848 0.51353,4.09352 2.59542,7.28623 2.60444,7.30002 2e-5,3e-5 3e-5,5e-5 3e-5,5e-5 0,0 10e-6,1e-5 3e-5,4e-5 2.8e-4,4.3e-4 0.003,0.004 0.007,0.0104 0.004,0.007 0.0107,0.016 0.019,0.0283 0.0167,0.0246 0.0413,0.0607 0.0737,0.10725 0.0648,0.0931 0.16069,0.22797 0.28624,0.39707 0.2511,0.3382 0.62082,0.81316 1.09764,1.3635 0.95365,1.10069 2.33563,2.50302 4.0546,3.71504 0.34035,0.23999 0.69393,0.4725 1.06002,0.69371 m 14.17591,-22.1962 c -0.0979,-0.13766 -0.20395,-0.28245 -0.31803,-0.4329 -0.79129,-1.04354 -1.97003,-2.35936 -3.52561,-3.45571 -1.55558,-1.09636 -3.48819,-1.97322 -5.78914,-2.1389 -2.30095,-0.16568 -4.97087,0.3799 -7.99637,2.12726 -3.12428,1.80443 -4.95789,3.97428 -5.95128,6.21423 -0.9934,2.23996 -1.14572,4.54988 -0.90497,6.63451 0.4815,4.16926 2.53711,7.43699 2.54601,7.45111 2e-5,4e-5 3e-5,5e-5 3e-5,5e-5 0,0 1e-5,2e-5 3e-5,5e-5 2.8e-4,4.4e-4 0.003,0.004 0.007,0.0107 0.004,0.007 0.0105,0.0164 0.0188,0.029 0.0165,0.0252 0.0408,0.0622 0.0728,0.10989 0.064,0.0954 0.15869,0.23364 0.28273,0.40704 0.2481,0.34679 0.61354,0.83409 1.08525,1.39958 0.94343,1.13098 2.31198,2.57475 4.01704,3.83287 1.70506,1.25811 3.74621,2.33067 6.03737,2.71855 2.29116,0.38787 4.83198,0.0912 7.54694,-1.39197 3.22592,-1.76227 5.25679,-3.81631 6.46445,-5.95245 m -13.03163,6.44263 c 0.0809,0.0158 0.16214,0.0308 0.24369,0.0448 2.26895,0.39133 4.78317,0.1004 7.45575,-1.36996 3.64082,-2.00306 5.71556,-4.38701 6.78245,-6.8384 1.06689,-2.45139 1.12494,-4.96927 0.7263,-7.23595 -0.39864,-2.26668 -1.25413,-4.28206 -2.01169,-5.73186 -0.37879,-0.7249 -0.73303,-1.30847 -0.99319,-1.71166 -0.13008,-0.20159 -0.23663,-0.35809 -0.31098,-0.46461 -0.0372,-0.0533 -0.0663,-0.094 -0.0863,-0.12168 -0.01,-0.0138 -0.0177,-0.0244 -0.023,-0.0316 -0.005,-0.007 -0.008,-0.011 -0.008,-0.0115 -2e-5,-3e-5 -3e-5,-4e-5 -3e-5,-4e-5 -2.1e-4,2.5e-4 -4.1e-4,5e-4 -6.1e-4,7.4e-4 0,0 -1e-5,-10e-6 -3e-5,-5e-5 -2.4e-4,-4.6e-4 -0.002,-0.004 -0.005,-0.0101 -0.003,-0.006 -0.008,-0.0154 -0.0147,-0.0272 -0.0129,-0.0236 -0.0321,-0.0582 -0.0574,-0.10262 -0.0507,-0.0889 -0.12619,-0.21753 -0.22632,-0.37821 -0.20028,-0.32136 -0.49913,-0.77097 -0.89547,-1.28756 -0.79267,-1.03318 -1.97523,-2.3343 -3.53914,-3.41268 -1.56391,-1.07839 -3.50882,-1.93441 -5.82911,-2.07389 -2.32028,-0.13949 -5.01583,0.43744 -8.0883,2.23331 -3.1728,1.85452 -5.05231,4.06674 -6.09049,6.34692 -0.83312,1.82978 -1.12476,3.70365 -1.10669,5.46978 m 22.16467,-10.08321 c -0.46829,-0.44172 -0.98959,-0.87845 -1.5636,-1.28478 -1.53975,-1.08996 -3.45892,-1.96121 -5.75022,-2.12253 -2.29131,-0.16133 -4.95432,0.38775 -7.98331,2.1352 -3.12789,1.80451 -4.97403,3.97085 -5.98192,6.20648 -1.00789,2.23562 -1.17799,4.5399 -0.95682,6.61818 0.44234,4.15654 2.44895,7.40763 2.45763,7.42169 2e-5,3e-5 3e-5,4e-5 3e-5,4e-5 0,0 10e-6,2e-5 3e-5,5e-5 2.7e-4,4.4e-4 0.003,0.004 0.007,0.0107 0.004,0.007 0.0103,0.0163 0.0183,0.0288 0.0161,0.0251 0.0398,0.0619 0.0711,0.10932 0.0625,0.0949 0.15502,0.2324 0.27627,0.40484 0.24248,0.34489 0.59981,0.82942 1.06131,1.39142 0.923,1.12399 2.26267,2.55783 3.93388,3.80418 1.67122,1.24635 3.67415,2.30553 5.92308,2.67848 2.24892,0.37295 4.74396,0.06 7.39574,-1.44583 3.61249,-2.05135 5.67233,-4.47998 6.72763,-6.97419 1.05529,-2.49421 1.10556,-5.05501 0.70142,-7.36564 -0.40414,-2.31063 -1.26247,-4.37071 -2.02125,-5.85563 -0.37938,-0.74246 -0.73385,-1.34105 -0.99411,-1.75489 -0.13012,-0.20692 -0.23669,-0.36765 -0.31104,-0.47708 -0.0372,-0.0547 -0.0663,-0.0966 -0.0863,-0.12503 -0.01,-0.0142 -0.0177,-0.025 -0.023,-0.0325 -0.005,-0.007 -0.008,-0.0114 -0.008,-0.0118 -2e-5,-3e-5 -3e-5,-4e-5 -3e-5,-4e-5 -2e-4,-5e-4 -4.1e-4,-0.001 -6.1e-4,-0.002 0,0 -10e-6,-2e-5 -3e-5,-5e-5 -2.4e-4,-4.7e-4 -0.002,-0.004 -0.005,-0.0104 -0.003,-0.006 -0.008,-0.0158 -0.0147,-0.0279 -0.0129,-0.0242 -0.0321,-0.0597 -0.0574,-0.10527 -0.0507,-0.0912 -0.12617,-0.22322 -0.22627,-0.38821 -0.20019,-0.32998 -0.49888,-0.79193 -0.8948,-1.3237 -0.23868,-0.32059 -0.51271,-0.66655 -0.82181,-1.02428 m 1.94716,22.45615 c 1.59024,-1.39034 2.6522,-2.89033 3.31995,-4.41893 1.06498,-2.43788 1.12734,-4.94822 0.7368,-7.21056 -0.39053,-2.26233 -1.23365,-4.27707 -1.98006,-5.72761 -0.3732,-0.72526 -0.72227,-1.30951 -0.97866,-1.71324 -0.1282,-0.20187 -0.23323,-0.35862 -0.30652,-0.46531 -0.0366,-0.0533 -0.0653,-0.0942 -0.0851,-0.12189 -0.01,-0.0139 -0.0174,-0.0244 -0.0227,-0.0316 -0.005,-0.007 -0.008,-0.0111 -0.008,-0.0115 -2e-5,-3e-5 -3e-5,-4e-5 -3e-5,-4e-5 7e-5,2e-4 1.4e-4,4e-4 2.1e-4,6e-4 0,0 -1e-5,-2e-5 -2e-5,-5e-5 -2.4e-4,-4.6e-4 -0.002,-0.004 -0.005,-0.0102 -0.003,-0.006 -0.008,-0.0154 -0.0145,-0.0272 -0.0127,-0.0237 -0.0315,-0.0583 -0.0565,-0.10279 -0.0498,-0.0891 -0.12407,-0.21791 -0.22258,-0.37891 -0.19702,-0.32199 -0.49114,-0.77256 -0.88136,-1.29057 -0.78046,-1.03601 -1.94533,-2.34185 -3.48693,-3.42725 -1.5416,-1.0854 -3.46017,-1.95046 -5.74676,-2.10237 -2.28659,-0.15192 -4.94139,0.40935 -7.95018,2.17979 -3.10703,1.82825 -4.93058,4.01765 -5.9158,6.27641 -0.98521,2.25877 -1.1315,4.58707 -0.88599,6.69011 0.49103,4.20608 2.55037,7.51244 2.55929,7.52674 2e-5,3e-5 3e-5,5e-5 3e-5,5e-5 0,0 1e-5,10e-6 3e-5,5e-5 2.8e-4,4.4e-4 0.003,0.004 0.007,0.0108 0.004,0.007 0.0106,0.0166 0.0188,0.0294 0.0165,0.0256 0.0408,0.063 0.0729,0.11126 0.0641,0.0966 0.15899,0.23657 0.28325,0.41221 0.24852,0.35127 0.61454,0.84502 1.0868,1.41854 0.94453,1.14704 2.31403,2.61318 4.01908,3.89731 1.70504,1.28412 3.74526,2.38593 6.03442,2.80659 2.28916,0.42065 4.82709,0.15966 7.5365,-1.27218 0.43493,-0.22985 0.84804,-0.46518 1.24026,-0.70546 m -11.54783,2.29457 6.42627,0.32294 m 10.52342,-16.45596 -2.0016,-5.38038 m 1.15698,14.22282 1.34025,-5.81312 m -12.68024,-18.28439 -7.56092,0.82917 m -7.40099,21.28697 4.27516,5.26388"
       id="path3775"
       inkscape:connector-curvature="0"
       sodipodi:nodetypes="cscsc"
       inkscape:path-effect="#path-effect3777"
       inkscape:original-d="m 542.21181,587.15559 c 0,0 -6.31761,-12.293 -18.4658,-5.27925 -12.54331,7.2419 -4.45683,20.34286 -4.45683,20.34286 0,0 8.09867,13.07877 18.78306,7.18663 14.55319,-8.0257 4.13957,-22.25024 4.13957,-22.25024 z" />
    <path
       style="fill:none;stroke:#000000;stroke-width:1px;stroke-linecap:butt;stroke-linejoin:miter;stroke-opacity:1"
       d="m 513.27308,324.27417 c 2.79231,0.0647 5.57562,0.13608 8.35086,0.2131 m -7.18058,-4.26574 c 4.64531,0.14197 9.30934,0.29514 13.98958,0.45784 m -19.43265,1.88513 c 3.69356,0.11335 7.40279,0.22472 11.1254,0.33336 m -5.4086,-0.0682 c 1.97253,0.0978 3.94142,0.19341 5.90709,0.28712 m -14.30184,-3.40902 c 6.10466,0.168 12.26645,0.34826 18.4783,0.53396 m -5.11352,1.15904 3.21498,0.11908 m 3.9416,0.14598 2.86835,0.10624 m -5.1894,-0.1922 2.98077,0.1104 m -19.90512,-0.73723 3.80052,0.14076 m 4.71001,0.17444 3.3883,0.1255"
       id="path3779"
       inkscape:connector-curvature="0"
       transform="translate(0,308.2677)"
       inkscape:path-effect="#path-effect3781"
       inkscape:original-d="m 505.53509,320.87661 24.15831,0.89476" />
    <path
       style="fill:none;stroke:#000000;stroke-width:1px;stroke-linecap:butt;stroke-linejoin:miter;stroke-opacity:1"
       d="m 488.2945,592.90335 c -8.29694,-3.9929 -16.69967,-7.91488 -25.17056,-11.79647 -0.62582,1.55769 -1.25387,3.1167 -1.88393,4.67684 m 24.49666,2.18267 c -7.93791,-3.65537 -15.81353,-7.2716 -23.64148,-10.86004 -1.56612,3.97032 -3.12062,7.94742 -4.66527,11.92992 m 29.35058,2.8118 c -9.06891,-4.13552 -18.02881,-8.2811 -26.92236,-12.45279 -0.82103,2.03241 -1.63866,4.06349 -2.45339,6.09304 m 28.68021,5.10389 c -7.72249,-3.48627 -15.51183,-7.01668 -23.33482,-10.56776 -0.5511,1.41198 -1.10323,2.82334 -1.6562,4.23419 m 27.70602,5.84693 c -9.77282,-4.51366 -19.3757,-8.9929 -28.84606,-13.47057 -1.35418,3.51823 -2.69121,7.03667 -4.01282,10.55377 m 9.52533,-7.32001 -2.92595,-1.33757 m -4.61987,9.04133 -1.06601,2.66501 m 2.78909,-6.97274 -1.10779,2.76948 m 28.9074,3.88106 -3.45884,-1.58118 m -12.01288,-5.4916 -3.08368,-1.40969"
       id="path3821"
       inkscape:connector-curvature="0"
       inkscape:path-effect="#path-effect3823"
       inkscape:original-d="m 493.00856,592.45946 -31.31634,-14.31604 -5.36851,13.42129" />
    <path
       style="fill:none;stroke:#000000;stroke-width:1px;stroke-linecap:butt;stroke-linejoin:miter;stroke-opacity:1"
       d="m 547.48419,593.59292 c 8.96556,-4.52808 17.81289,-8.97719 26.58649,-13.38315 0.54154,2.59335 1.07772,5.18983 1.60939,7.78876 m -27.23046,0.596 c 8.13668,-4.16653 16.34337,-8.28895 24.60267,-12.38088 1.10864,5.139 2.23444,10.28795 3.37419,15.44432 m -33.06349,0.92513 c 9.04424,-4.6824 18.2097,-9.37578 27.44631,-14.0991 0.66072,3.08386 1.32824,6.16487 2.00107,9.24245 m -24.08293,3.49512 c 8.38941,-3.98723 16.7038,-8.02415 24.98264,-12.08275 0.52717,2.44446 1.05175,4.88734 1.5745,7.32919 m -34.34141,4.45 c 9.82288,-5.08791 19.83314,-10.13801 29.98737,-15.18818 1.07141,4.65473 2.16945,9.30945 3.29068,13.96114 m -4.08019,-11.19204 2.87754,-1.43877 m 2.26189,12.72345 0.59132,2.80874 m -1.63398,-7.76137 0.6145,2.91883 m -28.2887,2.53783 3.40162,-1.70081 m 13.19689,-6.59844 3.03267,-1.51634"
       id="path3825"
       inkscape:connector-curvature="0"
       inkscape:path-effect="#path-effect3827"
       inkscape:original-d="m 540.43043,593.35422 32.21109,-16.10554 3.57901,17.00029" />
    <path
       style="fill:none;stroke:#000000;stroke-width:1.28227901px;stroke-linecap:butt;stroke-linejoin:miter;stroke-opacity:1"
       d="m 507.06676,588.75953 -16.49276,9.17858 19.50447,-3.7288 -12.33371,6.88393 10.46932,-2.00781 -4.58929,4.30246"
       id="path3835"
       inkscape:connector-curvature="0" />
    <path
       inkscape:connector-curvature="0"
       id="path3839"
       d="m 538.00944,589.71369 -17.61311,6.78497 19.83409,-0.96795 -13.17433,5.09374 10.64714,-0.52583 -5.14526,3.61927"
       style="fill:none;stroke:#000000;stroke-width:1.28227901px;stroke-linecap:butt;stroke-linejoin:miter;stroke-opacity:1" />
    <path
       style="fill:none;stroke:#000000;stroke-width:1px;stroke-linecap:butt;stroke-linejoin:miter;stroke-opacity:1"
       d="m 519.24322,346.77661 c 0.79404,29.69534 -0.25506,60.60204 -0.78073,90.8782 -0.0149,0.85849 -0.0293,1.71665 -0.0433,2.57449 m 1.38727,-31.49982 c 0.68613,29.79609 -0.82123,60.19604 -2.45129,90.02041 m -1.48201,-23.29894 c -0.26286,9.92003 -0.31272,20.08817 -0.24225,30.40289 m 4.06801,-160.13246 c -0.85041,30.42611 -0.45532,60.20805 -1.34972,89.7389 -0.0734,2.42366 -0.12672,4.85474 -0.16142,7.29196 m -2.72939,-30.52396 c -0.56197,30.80536 0.99654,59.20982 2.9955,86.74345 0.0798,1.09971 0.15066,2.20876 0.21284,3.3266 m -0.50178,-163.21128 c 0.39358,30.53873 0.17263,61.0897 0.50612,92.37557 0.005,0.44345 0.009,0.88669 0.0133,1.32975 m 1.3392,-19.15715 c 0.48483,30.63686 -0.26859,59.88266 -0.78063,88.72633 -0.004,0.21051 -0.007,0.42114 -0.0111,0.6319 m 1.97071,-28.14642 c 0.24731,9.96153 0.30151,20.18323 0.24423,30.5636 m -4.49577,-163.70859 c 0.80796,31.00227 -0.84946,59.83743 -2.5737,88.59964 -0.12299,2.05158 -0.22876,4.11609 -0.31919,6.19187 m 1.57566,-28.79192 c 0.68181,30.46874 0.67966,62.34488 2.04587,96.15138 0.0606,1.50017 0.11658,2.98337 0.16821,4.45051 M 514.1405,342.03944 c -0.33719,30.68614 0.5287,60.32679 1.58215,90.0974 0.0367,1.03606 0.0699,2.07336 0.0999,3.11185 m -1.43203,-28.30326 c -0.30202,30.8058 0.72097,61.15847 2.17275,92.56533 0.087,1.88202 0.16487,3.75724 0.23455,5.62636 m 0.73889,-57.50984 0,3.21718 m 0,44.32364 0,2.87031"
       id="path3841"
       inkscape:connector-curvature="0"
       transform="translate(0,308.2677)"
       inkscape:path-effect="#path-effect3843"
       inkscape:original-d="m 517.53671,342.33921 0,163.86554" />
    <path
       inkscape:original-d="m 583.0019,674.62492 -64.64451,42.41152"
       inkscape:path-effect="#path-effect3847"
       inkscape:connector-curvature="0"
       id="path3845"
       d="m 584.70833,679.06228 c -20.87274,13.62309 -43.07808,28.12398 -65.16187,42.36561 m 64.18493,-48.2452 c -21.85286,13.88015 -42.80937,28.33116 -63.54773,42.80465 m 60.64837,-39.22497 c -22.21156,13.874 -43.17953,27.64321 -64.32557,40.75735 m 67.64563,-40.48283 c -20.84872,14.65124 -42.65113,28.66301 -63.86879,43.1482 m 60.15506,-47.34854 c -22.00814,13.76049 -42.37113,27.84791 -62.06879,41.42786 m 23.80686,-12.855 -2.68994,1.7648 m -16.14138,10.58992 -2.39991,1.57452 m 8.50737,-5.58146 -2.49398,1.63624 m 47.0275,-30.85348 -3.17986,2.08622 m -19.21414,12.60588 -2.83496,1.85994"
       style="fill:none;stroke:#000000;stroke-width:1px;stroke-linecap:butt;stroke-linejoin:miter;stroke-opacity:1"
       sodipodi:nodetypes="cc" />
    <path
       sodipodi:nodetypes="cc"
       style="fill:none;stroke:#000000;stroke-width:1px;stroke-linecap:butt;stroke-linejoin:miter;stroke-opacity:1"
       d="m 517.64366,720.18672 c -17.63658,-9.89192 -36.11551,-19.22714 -54.70655,-28.58059 m 53.72961,22.70101 C 498.25054,704.61967 480.40251,695.29277 462.7792,686.0517 m 50.98816,31.83512 c -18.70149,-9.69236 -36.61738,-19.45233 -54.4607,-29.55417 m 57.78076,29.82869 c -17.61748,-9.07413 -35.83963,-18.55264 -53.88963,-27.87589 m 50.1759,23.67555 c -18.53969,-9.78264 -36.03976,-19.35736 -52.9908,-29.14626"
       id="path3849"
       inkscape:connector-curvature="0"
       inkscape:path-effect="#path-effect3851"
       inkscape:original-d="M 515.93724,715.74947 461.4157,687.30022" />
    <path
       sodipodi:nodetypes="cc"
       style="fill:none;stroke:#000000;stroke-width:1px;stroke-linecap:butt;stroke-linejoin:miter;stroke-opacity:1"
       d="m 570.78928,894.1752 c -15.85358,-25.92092 -33.55029,-50.63049 -50.72358,-75.9706 -0.48695,-0.71852 -0.97342,-1.43738 -1.45944,-2.15656 m 15.78986,16.61627 c -4.80417,-7.74164 -9.81029,-15.42889 -14.95966,-23.09361 m 47.98277,80.04738 c -17.42759,-26.18084 -32.99765,-50.19021 -49.07775,-74.6416 -0.11045,-0.16795 -0.22093,-0.33596 -0.33145,-0.50404 m 15.40619,22.01259 c -5.33859,-8.00065 -10.45957,-15.95616 -15.409,-23.9086 m 48.99723,77.71476 c -17.20958,-24.8109 -32.29869,-52.0227 -46.94734,-80.10534 -0.60065,-1.15149 -1.21081,-2.29315 -1.83006,-3.42555 m 51.48397,79.72533 c -16.25404,-25.07753 -33.12261,-50.14282 -49.43673,-74.47321 -0.23123,-0.34486 -0.46276,-0.68993 -0.69459,-1.03518 m 15.3473,27.64102 c -4.96702,-7.67648 -10.05275,-15.48266 -15.21261,-23.39138 m 16.33637,24.27818 -1.76763,-2.68809 m -13.35625,-20.31129 -1.57704,-2.39826"
       id="path3853"
       inkscape:connector-curvature="0"
       inkscape:path-effect="#path-effect3855"
       inkscape:original-d="m 569.08282,889.73798 -51.9908,-79.06409" />
    <path
       inkscape:original-d="m 464.68971,887.20723 54.30036,-78.4314"
       inkscape:path-effect="#path-effect3859"
       inkscape:connector-curvature="0"
       id="path3857"
       d="m 466.39628,891.64445 c 18.04129,-25.51628 34.23945,-49.8212 50.96103,-74.75666 0.47415,-0.70705 0.94878,-1.41443 1.42386,-2.12214 m -13.53409,16.26619 c 5.55064,-7.83355 10.88791,-15.60959 16.07553,-23.36277 m -58.29638,79.41826 c 16.46728,-25.77619 34.79209,-49.38092 52.60686,-73.42767 0.12237,-0.16516 0.24469,-0.3304 0.36698,-0.49569 m -12.70516,21.67698 c 5.32993,-8.08904 10.88954,-16.13054 16.62882,-24.17 m -57.31227,77.08949 c 16.68528,-24.40626 35.49105,-51.2134 54.73726,-78.8914 0.85175,-1.22491 1.69242,-2.43836 2.52254,-3.64107 m -15.90797,22.90771 c 5.33741,-7.46502 10.61941,-14.92933 15.87761,-22.37255 m -56.69315,85.79467 c 17.76758,-25.30544 35.8429,-49.73564 55.7705,-74.48251 0.14544,-0.18061 0.29057,-0.36128 0.43542,-0.542 m -15.13618,13.28267 c 5.38491,-7.67851 10.91101,-15.45434 16.54099,-23.24396 m -56.69655,80.41961 c 18.13271,-24.65194 34.51676,-49.95722 51.78366,-75.15773 0.8538,-1.24609 1.70543,-2.49263 2.55489,-3.73973 m -19.20392,29.27141 1.8313,-2.64512 m 13.96363,-20.16906 1.63384,-2.35992 m -6.75652,9.75911 1.69788,-2.45242 m -39.05074,56.40486 2.16482,-3.12687 m 16.61833,-24.0035 1.93002,-2.78771"
       style="fill:none;stroke:#000000;stroke-width:1px;stroke-linecap:butt;stroke-linejoin:miter;stroke-opacity:1"
       sodipodi:nodetypes="cc" />
  </g>
</svg>
