<?xml version="1.0" encoding="UTF-8" standalone="no"?>
<!-- Created with Inkscape (http://www.inkscape.org/) -->

<svg
   xmlns:dc="http://purl.org/dc/elements/1.1/"
   xmlns:cc="http://creativecommons.org/ns#"
   xmlns:rdf="http://www.w3.org/1999/02/22-rdf-syntax-ns#"
   xmlns:svg="http://www.w3.org/2000/svg"
   xmlns="http://www.w3.org/2000/svg"
   xmlns:sodipodi="http://sodipodi.sourceforge.net/DTD/sodipodi-0.dtd"
   xmlns:inkscape="http://www.inkscape.org/namespaces/inkscape"
   width="1100"
   height="800"
   id="svg2"
   version="1.1"
   inkscape:version="0.48.4 r9939"
   sodipodi:docname="losering-3.svg">
  <defs
     id="defs4">
    <inkscape:path-effect
       effect="sketch"
       id="path-effect4749"
       is_visible="true"
       nbiter_approxstrokes="5"
       strokelength="100"
       strokelength_rdm="0;1"
       strokeoverlap="0"
       strokeoverlap_rdm="0.1;1"
       ends_tolerance="0;1"
       parallel_offset="1;1"
       tremble_size="1;1"
       tremble_frequency="1"
       nbtangents="0"
       tgt_places_rdmness="1;1"
       tgtscale="10"
       tgtlength="5"
       tgtlength_rdm="0.3;1" />
    <inkscape:path-effect
       effect="sketch"
       id="path-effect4747"
       is_visible="true"
       nbiter_approxstrokes="5"
       strokelength="100"
       strokelength_rdm="0;1"
       strokeoverlap="0"
       strokeoverlap_rdm="0;1"
       ends_tolerance="0;1"
       parallel_offset="1.1;1"
       tremble_size="1;1"
       tremble_frequency="1"
       nbtangents="0"
       tgt_places_rdmness="1;1"
       tgtscale="10"
       tgtlength="21"
       tgtlength_rdm="0.3;1" />
    <inkscape:path-effect
       effect="sketch"
       id="path-effect4745"
       is_visible="true"
       nbiter_approxstrokes="5"
       strokelength="100"
       strokelength_rdm="0.3;1"
       strokeoverlap="0.3"
       strokeoverlap_rdm="0.3;1"
       ends_tolerance="0.1;1"
       parallel_offset="1.1;1"
       tremble_size="2;1"
       tremble_frequency="1"
       nbtangents="4"
       tgt_places_rdmness="1;1"
       tgtscale="10"
       tgtlength="40"
       tgtlength_rdm="0.3;1" />
    <inkscape:path-effect
       effect="sketch"
       id="path-effect4737"
       is_visible="true"
       nbiter_approxstrokes="4"
       strokelength="100"
       strokelength_rdm="0.3;1"
       strokeoverlap="0.3"
       strokeoverlap_rdm="0.3;1"
       ends_tolerance="0.1;1"
       parallel_offset="2;1"
       tremble_size="2;1"
       tremble_frequency="1"
       nbtangents="5"
       tgt_places_rdmness="1;1"
       tgtscale="10"
       tgtlength="40"
       tgtlength_rdm="0.3;1" />
    <inkscape:path-effect
       effect="sketch"
       id="path-effect4715"
       is_visible="true"
       nbiter_approxstrokes="10"
       strokelength="100"
       strokelength_rdm="0.3;1"
       strokeoverlap="0.3"
       strokeoverlap_rdm="0.3;1"
       ends_tolerance="0.1;1"
       parallel_offset="1.5;1"
       tremble_size="1.8;1"
       tremble_frequency="2.5"
       nbtangents="0"
       tgt_places_rdmness="1;1"
       tgtscale="10"
       tgtlength="2"
       tgtlength_rdm="0.3;1" />
    <inkscape:path-effect
       effect="sketch"
       id="path-effect4709"
       is_visible="true"
       nbiter_approxstrokes="5"
       strokelength="100"
       strokelength_rdm="0;1"
       strokeoverlap="0"
       strokeoverlap_rdm="0;1"
       ends_tolerance="0;1"
       parallel_offset="1;1"
       tremble_size="1;1"
       tremble_frequency="2.5"
       nbtangents="0"
       tgt_places_rdmness="1;1"
       tgtscale="10"
       tgtlength="2"
       tgtlength_rdm="0.3;1" />
    <inkscape:path-effect
       effect="sketch"
       id="path-effect4341"
       is_visible="true"
       nbiter_approxstrokes="3"
       strokelength="100"
       strokelength_rdm="0;1"
       strokeoverlap="0"
       strokeoverlap_rdm="0;1"
       ends_tolerance="0;1"
       parallel_offset="1;1"
       tremble_size="2;1"
       tremble_frequency="1"
       nbtangents="0"
       tgt_places_rdmness="1;1"
       tgtscale="10"
       tgtlength="2"
       tgtlength_rdm="0.3;1" />
    <marker
       inkscape:stockid="Arrow1Lend"
       orient="auto"
       refY="0"
       refX="0"
       id="Arrow1Lend"
       style="overflow:visible">
      <path
         id="path3904"
         d="M 0,0 5,-5 -12.5,0 5,5 0,0 z"
         style="fill-rule:evenodd;stroke:#000000;stroke-width:1pt"
         transform="matrix(-0.8,0,0,-0.8,-10,0)"
         inkscape:connector-curvature="0" />
    </marker>
    <inkscape:path-effect
       effect="sketch"
       id="path-effect3895"
       is_visible="true"
       nbiter_approxstrokes="3"
       strokelength="100"
       strokelength_rdm="0;1"
       strokeoverlap="0"
       strokeoverlap_rdm="0;1"
       ends_tolerance="0;1"
       parallel_offset="1;1"
       tremble_size="1;1"
       tremble_frequency="1"
       nbtangents="0"
       tgt_places_rdmness="1;1"
       tgtscale="10"
       tgtlength="2"
       tgtlength_rdm="0.3;1" />
    <inkscape:path-effect
       tgtlength_rdm="1;1"
       tgtlength="5"
       tgtscale="10.4"
       tgt_places_rdmness="1;1"
       nbtangents="0"
       tremble_frequency="3.5"
       tremble_size="1.6;1"
       parallel_offset="1.6;1"
       ends_tolerance="0.1;1"
       strokeoverlap_rdm="0.3;1"
       strokeoverlap="0.3"
       strokelength_rdm="0.3;1"
       strokelength="100"
       nbiter_approxstrokes="5"
       is_visible="true"
       id="path-effect3885"
       effect="sketch" />
    <inkscape:path-effect
       tgtlength_rdm="1;1"
       tgtlength="5"
       tgtscale="10.4"
       tgt_places_rdmness="1;1"
       nbtangents="13"
       tremble_frequency="3.5"
       tremble_size="2;1"
       parallel_offset="2;1"
       ends_tolerance="0.1;1"
       strokeoverlap_rdm="0.3;1"
       strokeoverlap="0.3"
       strokelength_rdm="0.3;1"
       strokelength="100"
       nbiter_approxstrokes="5"
       is_visible="true"
       id="path-effect3877"
       effect="sketch" />
    <inkscape:path-effect
       effect="sketch"
       id="path-effect3869"
       is_visible="true"
       nbiter_approxstrokes="5"
       strokelength="100"
       strokelength_rdm="0.3;1"
       strokeoverlap="0.3"
       strokeoverlap_rdm="0.3;1"
       ends_tolerance="0.1;1"
       parallel_offset="2;1"
       tremble_size="2;1"
       tremble_frequency="3.5"
       nbtangents="13"
       tgt_places_rdmness="1;1"
       tgtscale="10.4"
       tgtlength="5"
       tgtlength_rdm="1;1" />
    <inkscape:path-effect
       effect="sketch"
       id="path-effect3864"
       is_visible="true"
       nbiter_approxstrokes="5"
       strokelength="100"
       strokelength_rdm="0.3;1"
       strokeoverlap="0.3"
       strokeoverlap_rdm="0.3;1"
       ends_tolerance="0.1;1"
       parallel_offset="5;1"
       tremble_size="5;1"
       tremble_frequency="1.5"
       nbtangents="5"
       tgt_places_rdmness="1;1"
       tgtscale="10"
       tgtlength="100"
       tgtlength_rdm="0.3;1" />
    <inkscape:path-effect
       effect="sketch"
       id="path-effect3862"
       is_visible="true"
       nbiter_approxstrokes="5"
       strokelength="100"
       strokelength_rdm="0.3;1"
       strokeoverlap="0.3"
       strokeoverlap_rdm="0.3;1"
       ends_tolerance="0.1;1"
       parallel_offset="2;1"
       tremble_size="2;1"
       tremble_frequency="1"
       nbtangents="0"
       tgt_places_rdmness="1;1"
       tgtscale="10"
       tgtlength="5"
       tgtlength_rdm="0.3;1" />
    <inkscape:path-effect
       effect="sketch"
       id="path-effect3860"
       is_visible="true"
       nbiter_approxstrokes="5"
       strokelength="100"
       strokelength_rdm="0.3;1"
       strokeoverlap="0.3"
       strokeoverlap_rdm="0.3;1"
       ends_tolerance="0.1;1"
       parallel_offset="5.4;1"
       tremble_size="5;1"
       tremble_frequency="1.5"
       nbtangents="5"
       tgt_places_rdmness="1;1"
       tgtscale="10"
       tgtlength="60"
       tgtlength_rdm="0.3;1" />
    <inkscape:path-effect
       effect="sketch"
       id="path-effect3858"
       is_visible="true"
       nbiter_approxstrokes="5"
       strokelength="100"
       strokelength_rdm="0.3;1"
       strokeoverlap="0.3"
       strokeoverlap_rdm="0.3;1"
       ends_tolerance="0.1;1"
       parallel_offset="3;1"
       tremble_size="2;1"
       tremble_frequency="1"
       nbtangents="0"
       tgt_places_rdmness="1;1"
       tgtscale="10"
       tgtlength="2"
       tgtlength_rdm="0.3;1" />
    <inkscape:path-effect
       effect="sketch"
       id="path-effect3856"
       is_visible="true"
       nbiter_approxstrokes="4"
       strokelength="100"
       strokelength_rdm="0.3;1"
       strokeoverlap="0.3"
       strokeoverlap_rdm="0.3;1"
       ends_tolerance="0.1;1"
       parallel_offset="3;1"
       tremble_size="3;1"
       tremble_frequency="1"
       nbtangents="0"
       tgt_places_rdmness="1;1"
       tgtscale="10"
       tgtlength="5"
       tgtlength_rdm="0.3;1" />
    <inkscape:path-effect
       effect="sketch"
       id="path-effect3854"
       is_visible="true"
       nbiter_approxstrokes="4"
       strokelength="100"
       strokelength_rdm="0.3;1"
       strokeoverlap="0.3"
       strokeoverlap_rdm="0.3;1"
       ends_tolerance="0.1;1"
       parallel_offset="2;1"
       tremble_size="2;1"
       tremble_frequency="1"
       nbtangents="0"
       tgt_places_rdmness="1;1"
       tgtscale="10"
       tgtlength="2"
       tgtlength_rdm="0.3;1" />
    <inkscape:path-effect
       effect="sketch"
       id="path-effect3846"
       is_visible="true"
       nbiter_approxstrokes="6"
       strokelength="100"
       strokelength_rdm="0.3;1"
       strokeoverlap="0.3"
       strokeoverlap_rdm="0.3;1"
       ends_tolerance="0.1;1"
       parallel_offset="5.7;1"
       tremble_size="5.6;1"
       tremble_frequency="1"
       nbtangents="0"
       tgt_places_rdmness="1;1"
       tgtscale="10"
       tgtlength="4"
       tgtlength_rdm="0.3;1" />
    <inkscape:path-effect
       effect="sketch"
       id="path-effect3842"
       is_visible="true"
       nbiter_approxstrokes="5"
       strokelength="100"
       strokelength_rdm="0.3;1"
       strokeoverlap="0.3"
       strokeoverlap_rdm="0.3;1"
       ends_tolerance="0.1;1"
       parallel_offset="5;1"
       tremble_size="5;1"
       tremble_frequency="1"
       nbtangents="5"
       tgt_places_rdmness="1;1"
       tgtscale="10"
       tgtlength="40"
       tgtlength_rdm="0.3;1" />
    <inkscape:path-effect
       effect="sketch"
       id="path-effect3840"
       is_visible="true"
       nbiter_approxstrokes="5"
       strokelength="100"
       strokelength_rdm="0.3;1"
       strokeoverlap="0.3"
       strokeoverlap_rdm="0.3;1"
       ends_tolerance="0.1;1"
       parallel_offset="5;1"
       tremble_size="5;1"
       tremble_frequency="1"
       nbtangents="5"
       tgt_places_rdmness="1;1"
       tgtscale="10"
       tgtlength="20"
       tgtlength_rdm="0.3;1" />
    <inkscape:path-effect
       effect="sketch"
       id="path-effect3826"
       is_visible="true"
       nbiter_approxstrokes="5"
       strokelength="100"
       strokelength_rdm="0.3;1"
       strokeoverlap="0.3"
       strokeoverlap_rdm="0.3;1"
       ends_tolerance="0.1;1"
       parallel_offset="5;1"
       tremble_size="5;1"
       tremble_frequency="1"
       nbtangents="0"
       tgt_places_rdmness="1;1"
       tgtscale="10"
       tgtlength="5"
       tgtlength_rdm="0.3;1" />
    <inkscape:path-effect
       effect="sketch"
       id="path-effect3814"
       is_visible="true"
       nbiter_approxstrokes="5"
       strokelength="100"
       strokelength_rdm="0.3;1"
       strokeoverlap="0.3"
       strokeoverlap_rdm="0.3;1"
       ends_tolerance="0.1;1"
       parallel_offset="4.4;1"
       tremble_size="5.2;1"
       tremble_frequency="1.5"
       nbtangents="5"
       tgt_places_rdmness="1;1"
       tgtscale="10"
       tgtlength="100"
       tgtlength_rdm="0.3;1" />
    <inkscape:path-effect
       effect="sketch"
       id="path-effect3808"
       is_visible="true"
       nbiter_approxstrokes="5"
       strokelength="100"
       strokelength_rdm="0.3;1"
       strokeoverlap="0.3"
       strokeoverlap_rdm="0.3;1"
       ends_tolerance="0.1;1"
       parallel_offset="2;1"
       tremble_size="2;1"
       tremble_frequency="1"
       nbtangents="5"
       tgt_places_rdmness="1;1"
       tgtscale="10"
       tgtlength="2"
       tgtlength_rdm="0.3;1" />
    <inkscape:path-effect
       effect="sketch"
       id="path-effect3806"
       is_visible="true"
       nbiter_approxstrokes="5"
       strokelength="100"
       strokelength_rdm="0.3;1"
       strokeoverlap="0.3"
       strokeoverlap_rdm="0.3;1"
       ends_tolerance="0.1;1"
       parallel_offset="2;1"
       tremble_size="2;1"
       tremble_frequency="1"
       nbtangents="5"
       tgt_places_rdmness="1;1"
       tgtscale="10"
       tgtlength="2"
       tgtlength_rdm="0.3;1" />
    <inkscape:path-effect
       effect="sketch"
       id="path-effect3804"
       is_visible="true"
       nbiter_approxstrokes="5"
       strokelength="100"
       strokelength_rdm="0.3;1"
       strokeoverlap="0.3"
       strokeoverlap_rdm="0.3;1"
       ends_tolerance="0.1;1"
       parallel_offset="2;1"
       tremble_size="2;1"
       tremble_frequency="1"
       nbtangents="5"
       tgt_places_rdmness="1;1"
       tgtscale="10"
       tgtlength="2"
       tgtlength_rdm="0.3;1" />
    <inkscape:path-effect
       effect="sketch"
       id="path-effect3775"
       is_visible="true"
       nbiter_approxstrokes="3"
       strokelength="100"
       strokelength_rdm="0.3;1"
       strokeoverlap="0.3"
       strokeoverlap_rdm="0.3;1"
       ends_tolerance="0.1;1"
       parallel_offset="1;1"
       tremble_size="1;1"
       tremble_frequency="1"
       nbtangents="5"
       tgt_places_rdmness="1;1"
       tgtscale="10"
       tgtlength="2"
       tgtlength_rdm="0.3;1" />
    <inkscape:path-effect
       effect="sketch"
       id="path-effect3773"
       is_visible="true"
       nbiter_approxstrokes="5"
       strokelength="100"
       strokelength_rdm="0.3;1"
       strokeoverlap="0.3"
       strokeoverlap_rdm="0.3;1"
       ends_tolerance="0;1"
       parallel_offset="1.2;1"
       tremble_size="1.3;1"
       tremble_frequency="1"
       nbtangents="0"
       tgt_places_rdmness="1;1"
       tgtscale="10"
       tgtlength="0"
       tgtlength_rdm="0.3;1" />
    <inkscape:path-effect
       effect="sketch"
       id="path-effect3771"
       is_visible="true"
       nbiter_approxstrokes="3"
       strokelength="100"
       strokelength_rdm="0.1;1"
       strokeoverlap="0"
       strokeoverlap_rdm="0;1"
       ends_tolerance="0;1"
       parallel_offset="0.7;1"
       tremble_size="0.9;1"
       tremble_frequency="1"
       nbtangents="0"
       tgt_places_rdmness="1;1"
       tgtscale="10"
       tgtlength="2"
       tgtlength_rdm="0.3;1" />
    <inkscape:path-effect
       effect="sketch"
       id="path-effect3763"
       is_visible="true"
       nbiter_approxstrokes="3"
       strokelength="100"
       strokelength_rdm="0.3;1"
       strokeoverlap="0.3"
       strokeoverlap_rdm="0.3;1"
       ends_tolerance="0.1;1"
       parallel_offset="2;1"
       tremble_size="2;1"
       tremble_frequency="1"
       nbtangents="0"
       tgt_places_rdmness="1;1"
       tgtscale="10"
       tgtlength="2"
       tgtlength_rdm="0.3;1" />
    <inkscape:path-effect
       effect="sketch"
       id="path-effect3761"
       is_visible="true"
       nbiter_approxstrokes="5"
       strokelength="100"
       strokelength_rdm="0.3;1"
       strokeoverlap="0.3"
       strokeoverlap_rdm="0.3;1"
       ends_tolerance="0.1;1"
       parallel_offset="1.9;1"
       tremble_size="2;1"
       tremble_frequency="1"
       nbtangents="3"
       tgt_places_rdmness="1;1"
       tgtscale="10"
       tgtlength="20"
       tgtlength_rdm="0.3;1" />
  </defs>
  <sodipodi:namedview
     id="base"
     pagecolor="#ffffff"
     bordercolor="#666666"
     borderopacity="1.0"
     inkscape:pageopacity="0.0"
     inkscape:pageshadow="2"
     inkscape:zoom="0.70710678"
     inkscape:cx="535.22062"
     inkscape:cy="392.73283"
     inkscape:document-units="px"
     inkscape:current-layer="layer1"
     showgrid="false"
     inkscape:window-width="1716"
     inkscape:window-height="1404"
     inkscape:window-x="3400"
     inkscape:window-y="16"
     inkscape:window-maximized="0" />
  <metadata
     id="metadata7">
    <rdf:RDF>
      <cc:Work
         rdf:about="">
        <dc:format>image/svg+xml</dc:format>
        <dc:type
           rdf:resource="http://purl.org/dc/dcmitype/StillImage" />
        <dc:title></dc:title>
      </cc:Work>
    </rdf:RDF>
  </metadata>
  <g
     inkscape:label="Layer 1"
     inkscape:groupmode="layer"
     id="layer1"
     transform="translate(0,-252.36221)">
    <path
       sodipodi:type="arc"
       style="fill:none;stroke:#000000;stroke-width:0.80000001;stroke-miterlimit:4;stroke-opacity:1;stroke-dasharray:none;stroke-dashoffset:0"
       id="path2989"
       sodipodi:cx="151.52289"
       sodipodi:cy="221.84561"
       sodipodi:rx="60.609154"
       sodipodi:ry="59.598999"
       d="m 213.15811,220.18725 c 1.40844,13.70534 -2.44198,27.06878 -10.06654,38.03317 -7.50594,10.79381 -18.67782,19.26948 -32.14202,23.4859 m 16.8171,-12.72551 c -7.07904,4.99478 -15.3194,8.61711 -24.37492,10.35242 -15.47711,2.96587 -30.56806,-0.11692 -42.77664,-7.59693 m 11.47099,8.58417 c -5.86429,-1.78944 -11.36793,-4.41325 -16.34851,-7.75948 -12.92623,-8.68457 -22.331992,-22.22703 -25.322341,-38.70824 -0.584611,-3.22207 -0.902529,-6.46686 -0.963061,-9.706 m 5.084108,17.48876 c -0.678667,-2.19747 -1.236213,-4.46332 -1.66275,-6.79093 -2.696949,-14.71725 0.320357,-29.95984 8.402384,-42.5649 m 108.96548,25.43441 c 0.50388,13.06299 -3.2328,25.64379 -10.14014,35.9905 -8.19823,12.28037 -20.86295,21.42342 -36.07158,24.48079 m 19.71967,-5.33817 c -6.30503,3.94238 -13.3608,6.74761 -20.96028,8.11056 -16.31985,2.92694 -32.0727,-1.33552 -44.37358,-10.60936 -1.72004,-1.29676 -3.37235,-2.69177 -4.94887,-4.17927 m 12.05713,10.73893 c -3.45937,-1.46691 -6.7519,-3.24069 -9.83772,-5.29343 -12.88157,-8.56899 -22.173473,-21.99599 -24.88914,-38.26821 -0.919021,-5.50675 -1.023575,-11.07329 -0.3592,-16.5492 m 2.850185,15.06736 c -0.01476,-0.0773 -0.02938,-0.15469 -0.04387,-0.23213 -3.273798,-17.50252 1.232895,-35.30138 12.286794,-48.55075 m 106.27032,32.5421 c 1.71822,14.51354 -2.15667,28.37085 -10.03918,39.49116 -8.7952,12.40789 -22.58777,21.40671 -39.2258,24.01486 -0.99604,0.15614 -1.99098,0.28757 -2.98414,0.39474 m 25.07881,-9.03311 c -6.25799,3.97668 -13.28716,6.87368 -20.88205,8.41115 -16.3592,3.31167 -32.25576,-0.29791 -44.74927,-8.5911 -5.64813,-3.74923 -10.59938,-8.45715 -14.5774,-13.91674 m 16.45053,16.81888 c -1.09534,-0.64003 -2.17117,-1.31581 -3.22556,-2.0261 -12.58606,-8.47858 -22.112535,-21.87176 -25.355991,-38.10892 -2.08892,-10.4574 -1.32381,-21.13196 2.069192,-30.97053 m -5.320741,17.87619 c 0.149688,-11.67842 3.704885,-23.28393 10.337207,-33.26677 m 110.253593,32.14519 c 0.87261,13.25674 -2.85272,26.13061 -9.91118,36.94512 -8.16204,12.50532 -20.79436,22.2447 -35.91675,26.76033 m 20.79921,-10.9096 c -6.45608,4.17678 -13.76774,7.23912 -21.72771,8.88705 -16.62478,3.44178 -32.94019,0.0734 -46.07193,-7.86713 -0.79561,-0.4811 -1.57952,-0.97898 -2.35108,-1.49315 m 15.11917,5.3229 c -4.17873,-1.66593 -8.16649,-3.76941 -11.88907,-6.26464 -12.89067,-8.64056 -22.593345,-21.97995 -26.079857,-38.09239 -1.327332,-6.13408 -1.663605,-12.33623 -1.06668,-18.39861 m 0.963739,19.74247 c -0.01302,-0.0625 -0.02594,-0.12496 -0.03876,-0.1875 -2.980989,-14.54566 -0.0099,-29.56103 8.055309,-42.00704 m 112.563975,22.4923 c 2.42121,15.39293 -1.40818,30.10777 -9.65396,41.70895 -8.70952,12.25361 -22.35429,21.03239 -38.78798,23.32324 -1.87979,0.26204 -3.75528,0.4333 -5.62183,0.51689 m 26.03447,-8.55299 c -6.23956,3.97656 -13.30963,6.88998 -20.99337,8.4464 -16.37448,3.31682 -32.4358,-0.1527 -45.12729,-8.28086 -7.5818,-4.85571 -13.96106,-11.37535 -18.481913,-19.09521 m 18.791583,18.00295 c -0.29981,-0.19131 -0.59782,-0.38529 -0.89397,-0.58192 -12.80447,-8.50126 -22.166576,-21.94173 -24.967124,-38.28491 -1.966636,-11.47671 -0.428336,-23.23485 4.267073,-33.91997 m -9.024191,23.38109 c 0.684886,-12.51009 5.28357,-24.61055 13.396052,-34.5842"
       transform="translate(-15.796949,339.2677)"
       sodipodi:start="6.0929057"
       sodipodi:end="10.139874"
       sodipodi:open="true"
       inkscape:path-effect="#path-effect3862" />
    <path
       style="fill:none;stroke:#000000;stroke-width:1px;stroke-linecap:butt;stroke-linejoin:miter;stroke-opacity:1"
       d="m 190.76555,509.45934 c -0.0532,-0.409 -0.11194,-0.83295 -0.17662,-1.27065 -0.69853,-4.72673 -2.10164,-11.05325 -4.877,-17.49212 -2.77535,-6.43886 -6.91929,-12.99232 -13.05259,-18.20741 -6.13329,-5.2151 -14.25437,-9.09135 -24.99504,-10.18342 -4.11907,-0.41882 -7.94008,-0.57134 -11.48177,-0.48935 m 18.77969,-2.07325 c -2.48669,-0.68539 -5.13932,-1.1991 -7.96851,-1.51306 -8.4651,-0.93939 -15.5997,-0.68442 -21.63283,0.46182 -6.03312,1.14624 -10.96295,3.18503 -14.98718,5.83367 -4.02423,2.64863 -7.14178,5.90777 -9.54041,9.50098 -2.266544,3.39536 -3.890829,7.0892 -5.032064,10.84821 m 4.744274,-11.19189 c -0.768923,0.87541 -1.483645,1.77856 -2.147742,2.70444 -2.532851,3.53127 -4.329703,7.39306 -5.583659,11.30907 -2.50791,7.83203 -2.840899,15.87777 -2.545623,21.95761 0.147639,3.03992 0.451791,5.58923 0.718698,7.3795 0.133454,0.89514 0.257617,1.60055 0.348476,2.08272 0.04543,0.24108 0.08254,0.42635 0.108337,0.5516 0.0129,0.0626 0.02297,0.11025 0.02985,0.14234 0.0034,0.016 0.0061,0.0282 0.0079,0.0364 0.0018,0.008 0.0027,0.0125 0.0028,0.0127 2e-6,1e-5 3e-6,1e-5 3e-6,1e-5 0,0 3e-6,0 8e-6,10e-6 0.0076,0.003 5.168046,2.39073 13.279574,5.74494 3.07121,1.26998 6.56517,2.6778 10.35883,4.14503 m -13.06908,-5.52384 c 1.54691,0.70588 3.2773,1.48654 5.16201,2.32335 8.15294,3.61991 19.17523,8.27789 30.83939,12.55955 11.66415,4.28167 23.99077,8.20206 34.84488,10.40358 5.42705,1.10075 10.48469,1.77067 14.89307,1.83014 1.96911,0.0266 3.80854,-0.0688 5.49301,-0.30222 m -30.07956,-6.37015 c 2.22455,0.52921 4.4153,1.0022 6.55329,1.40748 5.3674,1.01746 10.40232,1.60798 14.80137,1.59142 4.39904,-0.0166 8.1606,-0.63994 10.99183,-2.04883 2.83039,-1.40848 4.87133,-2.95469 6.2734,-4.5837 1.40207,-1.62901 2.16594,-3.34084 2.45068,-5.08045 0.56947,-3.47923 -0.77068,-7.07101 -2.78294,-10.32167 -2.01225,-3.25066 -4.69918,-6.1599 -6.87906,-8.26022 -1.08994,-1.05016 -2.05376,-1.89785 -2.74596,-2.48364 -0.34609,-0.29289 -0.62429,-0.52029 -0.81638,-0.67478 -0.0961,-0.0772 -0.17057,-0.13625 -0.22128,-0.17611 -0.0254,-0.0199 -0.0448,-0.0351 -0.0579,-0.0453 -0.0132,-0.0102 -0.0201,-0.0156 -0.0205,-0.0159 -2e-5,-10e-6 -2e-5,-2e-5 -2e-5,-2e-5 0,0 -1e-5,10e-6 -2e-5,10e-6 -0.009,0.004 -4.17304,1.67854 -10.2812,3.77355 m 18.10168,5.34423 c -1.19458,-1.23632 -2.39111,-2.35181 -3.4688,-3.29993 -1.16491,-1.02487 -2.19105,-1.85409 -2.92699,-2.42751 -0.36796,-0.28671 -0.66339,-0.50945 -0.86728,-0.66079 -0.10195,-0.0757 -0.18101,-0.13347 -0.2348,-0.17252 -0.0269,-0.0195 -0.0475,-0.0344 -0.0614,-0.0444 -0.014,-0.01 -0.0213,-0.0152 -0.0217,-0.0155 -1e-5,-10e-6 -2e-5,-10e-6 -2e-5,-10e-6 0,0 0,0 -2e-5,0 -0.008,0.003 -2.74159,1.08601 -7.03907,2.58789 -4.29749,1.50187 -10.15158,3.41453 -16.42097,5.09894 -6.26939,1.68441 -12.95512,3.14126 -18.97988,3.80745 -3.01238,0.3331 -5.86046,0.46971 -8.41179,0.34258 -2.55132,-0.12714 -4.80635,-0.51742 -6.62897,-1.24265 -0.34583,-2.03969 -0.6892,-4.08287 -1.03036,-6.12929 m 9.87941,8.14003 c -1.64756,0.14626 -3.22148,0.22174 -4.6987,0.21337 -2.65696,-0.015 -5.00114,-0.30133 -6.89845,-0.9349 -1.8784,-8.70733 -3.66234,-17.42877 -5.37451,-26.16429 m 65.07826,0.69681 c -0.76706,-4.60478 -2.20957,-10.58297 -4.89824,-16.64671 -2.82235,-6.36524 -7.01469,-12.82776 -13.2098,-17.91592 -6.19512,-5.08817 -14.38699,-8.8093 -25.26381,-9.62179 -1.07632,-0.0804 -2.13298,-0.14285 -3.17027,-0.18795 m 14.06602,3.31191 c -3.38127,-1.19847 -7.13369,-2.06393 -11.29812,-2.51076 -8.3933,-0.90058 -15.5656,-0.70151 -21.66197,0.36623 -6.09638,1.06774 -11.11888,3.00227 -15.24358,5.5389 -4.12469,2.53664 -7.35258,5.67414 -9.868662,9.13716 -2.516085,3.46301 -4.320654,7.25106 -5.598266,11.09098 -1.746768,5.24998 -2.508366,10.59639 -2.75251,15.35607 m 7.539229,-24.91048 c -1.602775,2.82567 -2.825919,5.78944 -3.748231,8.77959 -2.475627,8.02602 -2.779527,16.2437 -2.456646,22.46624 0.16144,3.11127 0.478573,5.72328 0.75516,7.55898 0.138294,0.91785 0.266445,1.64157 0.360069,2.13635 0.04681,0.24739 0.085,0.43755 0.111527,0.56611 0.01327,0.0643 0.02362,0.11317 0.03068,0.14611 0.0035,0.0165 0.0062,0.029 0.0081,0.0374 0.0018,0.008 0.0028,0.0128 0.0029,0.0131 2e-6,1e-5 3e-6,1e-5 3e-6,1e-5 0,0 3e-6,0 9e-6,0 0.0076,0.004 5.19492,2.52322 13.378999,6.15558 8.18408,3.63237 19.37654,8.38165 31.32618,12.9327 0.42344,0.16127 0.84782,0.32229 1.27304,0.483 m -25.07009,-8.64199 c 6.66569,2.77914 14.28097,5.81322 22.15521,8.66514 11.67254,4.22761 23.9197,8.05551 34.64848,10.12415 5.36439,1.03432 10.34991,1.62945 14.68792,1.6146 2.77098,-0.009 5.27754,-0.26789 7.44767,-0.82061 m -22.10497,-2.54127 c 4.67271,0.86729 9.00075,1.3631 12.81863,1.38485 4.40641,0.0251 8.13375,-0.58054 10.92182,-1.97972 2.78725,-1.39876 4.77712,-2.94387 6.13007,-4.57376 1.35294,-1.62989 2.06863,-3.34492 2.30188,-5.08899 0.46651,-3.48814 -0.9982,-7.0953 -3.16498,-10.36767 -2.16678,-3.27237 -5.0354,-6.20923 -7.36454,-8.33186 -1.16458,-1.06131 -2.19415,-1.91874 -2.93338,-2.51143 -0.36961,-0.29634 -0.66664,-0.52649 -0.87169,-0.68286 -0.10253,-0.0782 -0.18206,-0.13792 -0.23618,-0.17827 -0.0271,-0.0202 -0.0478,-0.0355 -0.0618,-0.0459 -0.014,-0.0104 -0.0214,-0.0158 -0.0219,-0.0161 -10e-6,-10e-6 -2e-5,-2e-5 -2e-5,-2e-5 0,0 0,0 -2e-5,10e-6 -0.0156,0.006 -10.9894,4.07542 -23.8233,7.42859 -0.25257,0.066 -0.50585,0.13171 -0.75977,0.19712 m 22.61871,-4.55991 c -3.20228,1.25332 -12.00903,4.61183 -22.02562,7.72051 -6.3052,1.95684 -13.08447,3.81348 -19.21864,4.91991 -3.06708,0.55322 -5.97294,0.91773 -8.57876,1.00805 -2.60581,0.0903 -4.91176,-0.0942 -6.77892,-0.63588 -1.59911,-7.60807 -3.17472,-15.14001 -4.70456,-22.59012 m 5.91851,17.58621 c -2.31697,-9.88842 -4.59031,-19.7969 -6.86472,-29.66833 m 64.67345,12.30231 c -0.1046,-0.82655 -0.23399,-1.73551 -0.39404,-2.71348 -0.77128,-4.71278 -2.25614,-11.02528 -5.09838,-17.4569 -2.84225,-6.43162 -7.03952,-12.98411 -13.22442,-18.2036 -6.18489,-5.21949 -14.35239,-9.10547 -25.18603,-10.21116 -3.04726,-0.311 -5.93553,-0.47854 -8.67216,-0.51509 m 18.75403,3.72793 c -3.07309,-0.94715 -6.41544,-1.628 -10.0493,-1.98291 -8.44144,-0.82443 -15.55228,-0.5168 -21.5619,0.66808 -6.00962,1.18489 -10.91624,3.24568 -14.9169,5.91416 -4.00066,2.66849 -7.09418,5.94446 -9.46714,9.55697 -2.372953,3.61252 -4.024875,7.56168 -5.144388,11.57413 -1.633903,5.85606 -2.132913,11.84833 -2.102143,17.10945 m 5.480334,-24.93103 c -1.267047,2.45977 -2.265794,5.00819 -3.046355,7.57167 -2.409823,7.91423 -2.740725,15.96505 -2.468228,22.02558 0.136249,3.03027 0.423509,5.56463 0.677186,7.34296 0.126838,0.88917 0.24527,1.58935 0.332121,2.06784 0.04343,0.23924 0.07896,0.42306 0.103684,0.54733 0.01236,0.0621 0.02203,0.10938 0.02863,0.14122 0.0033,0.0159 0.0058,0.028 0.0076,0.0361 0.0017,0.008 0.0026,0.0124 0.0027,0.0126 10e-7,10e-6 2e-6,10e-6 2e-6,10e-6 0,0 3e-6,0 8e-6,0 0.0075,0.003 5.122564,2.35206 13.128078,5.59757 8.00551,3.24552 18.8991,7.3686 30.51001,11.00651 2.76536,0.86644 5.57157,1.70622 8.38939,2.50249 m -27.21406,-9.55719 c 5.61449,2.363 11.81416,4.86328 18.23251,7.27139 11.6552,4.37293 24.03447,8.45054 34.91363,10.81543 5.43957,1.18245 10.50328,1.93453 14.90995,2.06837 4.40668,0.13385 8.15568,-0.35249 10.96953,-1.63867 2.81303,-1.2858 4.83218,-2.72793 6.213,-4.26457 1.38082,-1.53663 2.12352,-3.16714 2.38545,-4.82401 0.14789,-0.9355 0.14252,-1.87936 0.012,-2.82006 m -21.62243,11.83288 c 0.49258,0.0176 0.97784,0.028 1.4554,0.031 4.37511,0.027 8.10394,-0.57118 10.90335,-1.96215 2.79858,-1.39056 4.80944,-2.9269 6.18429,-4.54863 1.37486,-1.62172 2.11399,-3.32903 2.37336,-5.06503 0.51873,-3.47201 -0.87837,-7.0604 -2.95623,-10.31063 -2.07785,-3.25022 -4.83697,-6.16226 -7.0737,-8.26526 -1.11836,-1.05149 -2.10661,-1.90047 -2.81611,-2.48716 -0.35476,-0.29335 -0.63983,-0.52112 -0.83665,-0.67585 -0.0984,-0.0774 -0.17475,-0.13647 -0.2267,-0.17639 -0.026,-0.02 -0.0459,-0.0351 -0.0593,-0.0454 -0.0135,-0.0103 -0.0206,-0.0156 -0.021,-0.0159 -1e-5,-10e-6 -2e-5,-10e-6 -2e-5,-10e-6 0,0 0,0 -1e-5,0 -0.0151,0.006 -10.60264,4.15682 -22.87219,7.58315 -1.28183,0.35796 -2.58221,0.70815 -3.89124,1.04518 m 14.60825,-2.33747 c -4.10318,1.41894 -9.40371,3.15796 -15.08243,4.77244 -6.28463,1.78674 -13.03057,3.42005 -19.12684,4.2844 -3.04813,0.43218 -5.93413,0.67206 -8.5209,0.64299 -2.58677,-0.0291 -4.8746,-0.32702 -6.72558,-0.97048 -1.77234,-9.27674 -3.49672,-18.56492 -5.14221,-27.88474"
       id="path2991"
       inkscape:connector-curvature="0"
       sodipodi:nodetypes="ccscsc"
       inkscape:path-effect="#path-effect3763"
       inkscape:original-d="m 190.20238,512.79061 c 0,0 -1.21252,-48.99864 -43.59936,-53.54861 -67.48769,-7.24438 -53.37529,59.60952 -53.37529,59.60952 0,0 81.82236,39.39595 104.04572,28.28427 22.22335,-11.11167 -6.06092,-31.31472 -6.06092,-31.31472 0,0 -43.43656,17.17259 -58.58885,12.12183 l -7.55225,-35.295" />
    <path
       style="fill:none;stroke:#000000;stroke-width:1;stroke-linecap:butt;stroke-linejoin:miter;stroke-miterlimit:4;stroke-opacity:1;stroke-dasharray:none"
       d="m 139.87816,516.24471 c -1.23527,-5.17415 -2.48774,-10.33691 -3.75391,-15.49104 2.73559,2.24112 5.46509,4.48608 8.18952,6.73406 1.64436,-3.87718 3.28155,-7.75009 4.91332,-11.6201 1.16037,4.43824 2.3143,8.87992 3.46407,13.32323 m -13.67654,3.09635 c -1.1429,-4.5225 -2.27687,-9.03934 -3.40303,-13.5514 2.7237,2.24757 5.45193,4.4979 8.1842,6.75061 1.65369,-3.87155 3.31311,-7.73973 4.97742,-11.60522 1.87123,6.95256 3.75671,13.91299 5.65232,20.878 m -15.61174,2.05975 c -1.44871,-5.62589 -2.87833,-11.25344 -4.2933,-16.88435 2.71503,2.23627 5.43555,4.47128 8.16053,6.70464 1.64503,-3.89458 3.29639,-7.79149 4.95236,-11.6914 1.32486,4.91829 2.65657,9.83215 3.99203,14.74039 m -4.01333,-13.13377 1.25775,-2.96114 m 4.19845,17.91311 0.73503,2.77461 m -2.40157,-9.06555 0.76383,2.88336 m -13.59048,3.78766 -0.92061,-3.69002 m 6.03518,-2.40746 1.32556,-3.12077"
       id="path3765"
       inkscape:connector-curvature="0"
       inkscape:path-effect="#path-effect3775"
       inkscape:original-d="m 140.84783,520.99618 -5.42515,-21.74528 8.17508,6.75448 4.93522,-11.619 5.9354,22.40521" />
    <path
       style="fill:none;stroke:#000000;stroke-width:1;stroke-linecap:butt;stroke-linejoin:miter;stroke-miterlimit:4;stroke-opacity:1;stroke-dasharray:none"
       d="m 159.0279,495.57271 c 1.9855,6.40935 3.93506,12.84325 5.85787,19.29395 m -6.40491,-21.81969 c 1.87324,6.43879 3.77139,12.89285 5.68976,19.35879 m -6.95232,-17.87754 c 1.83215,6.43809 3.69762,12.8727 5.58754,19.30064 m -4.1209,-19.25129 c 1.98825,6.52711 3.9499,13.03689 5.8953,19.5365 m -7.45487,-21.28743 c 1.85544,6.42508 3.75513,12.85959 5.69307,19.29779"
       id="path3767"
       inkscape:connector-curvature="0"
       inkscape:path-effect="#path-effect3773"
       inkscape:original-d="m 158.26604,493.60942 5.72448,19.40487" />
    <path
       style="fill:none;stroke:#000000;stroke-width:1;stroke-linecap:butt;stroke-linejoin:miter;stroke-miterlimit:4;stroke-opacity:1;stroke-dasharray:none"
       d="m 162.22961,497.19458 c 6.72436,-2.26406 13.42148,-4.51002 20.09869,-6.74374 -3.00767,0.89922 -6.01932,1.80088 -9.03429,2.70448 1.68566,5.3683 3.36067,10.74278 5.02879,16.12044 M 161.79981,495.6493 c 6.64335,-2.24282 13.30515,-4.47398 19.98191,-6.69625 -3.00788,0.90433 -6.01276,1.81045 -9.01496,2.7181 1.70853,5.37555 3.42565,10.75603 5.14956,16.14 m -16.90171,-11.29779 c 6.61371,-2.24332 13.2528,-4.4889 19.91012,-6.73945 -3.01657,0.89168 -6.02949,1.78237 -9.0394,2.67181 1.69472,5.34296 3.39908,10.68194 5.10939,16.01554"
       id="path3769"
       inkscape:connector-curvature="0"
       inkscape:path-effect="#path-effect3771"
       inkscape:original-d="m 161.74194,495.95092 20.00571,-6.66475 -9.03465,2.71394 5.07541,16.11064"
       sodipodi:nodetypes="cccc" />
    <path
       style="fill:none;stroke:#000000;stroke-width:1px;stroke-linecap:butt;stroke-linejoin:miter;stroke-opacity:1"
       d="m 133.66657,629.85444 c -5.9066,25.67965 -12.69618,51.94063 -19.45737,78.07106 m 4.15472,-22.92603 c -5.88235,23.07155 -11.29177,46.44399 -16.53056,69.87365 m 1.08388,-12.71218 c -6.345893,23.97184 -11.983722,47.88383 -17.623031,71.46159 m 6.207576,-15.09552 c -1.769961,7.93354 -3.596892,15.82881 -5.4547,23.70474 9.773716,21.74731 19.281695,43.32817 29.182785,65.2206 m -14.27398,-28.3416 c 11.13586,25.54186 23.48282,51.32386 36.32099,76.73514 m -5.65785,-305.74611 c -6.39176,25.07457 -11.86282,49.10601 -16.97133,72.60406 m 1.29641,-15.49315 c -6.2158,24.18455 -11.616,48.25711 -16.693698,72.22123 m 5.918938,-17.83942 c -5.380988,22.64764 -11.319312,45.77879 -17.539182,69.26243 m 3.113209,-13.90334 c -1.827732,7.87426 -3.708902,15.68848 -5.628099,23.45297 9.194142,20.57764 18.086312,40.76034 27.021402,60.77866 m -9.06307,-23.7449 c 12.07489,28.27081 24.99093,55.96693 38.13464,84.49257 m -9.19393,-313.36674 c -5.98003,26.76718 -12.83454,53.20797 -19.48269,79.63277 m 2.84107,-21.69148 c -6.57008,29.46488 -14.20791,58.0453 -21.534422,86.49959 m 5.333485,-20.51323 c -5.18382,22.68482 -10.614626,45.87736 -15.775094,69.70995 1.942064,4.44661 3.894692,8.91823 5.861877,13.41588 m -2.365663,-22.48225 c -0.605088,2.36711 -1.207814,4.73313 -1.808736,7.09875 8.68218,20.6281 17.518863,41.22296 26.065793,62.35161 m -5.64765,-17.25373 c 10.75978,23.78285 21.09537,48.00776 31.13343,72.14319 m -3.57309,-315.33181 c -7.47725,30.02578 -14.12946,59.76949 -20.46806,90.09148 m 5.79286,-25.08342 c -7.46498,31.77151 -15.40593,62.20155 -23.095394,92.03931 m 6.121584,-27.13404 c -5.437258,22.52913 -10.80029,45.09957 -16.04313,68.02482 4.033472,9.12301 8.088374,18.30929 12.168166,27.58243 M 84.911097,818.69729 c 11.186534,25.13299 22.800933,49.86365 34.976673,74.39466 M 106.91996,878.252 c 9.87788,21.29592 19.70245,42.75068 29.95518,64.04975 M 131.0472,628.52844 c -7.32795,30.44494 -15.06944,60.75832 -22.7771,90.53518 m 7.74362,-25.57123 c -8.15157,31.08797 -15.22324,63.73184 -22.287017,96.0629 m 5.634743,-27.39037 c -4.832545,19.67219 -9.684881,39.06832 -14.534992,58.02889 4.540682,9.74233 9.082032,19.35401 13.627665,28.80883 M 85.103068,827.44186 c 13.215431,30.14215 27.246782,60.52105 41.364482,90.72218 m -11.56146,-30.7984 c 7.39319,16.47245 14.52669,32.89805 21.57106,49.53842 m -44.673709,-101.23414 1.306623,2.93991 m 39.125616,88.03263 1.16575,2.62293 m -14.27891,-32.12753 1.21144,2.72572 m 0.69639,-226.56406 -0.905,3.69388 m -27.266673,111.29255 -0.80684,3.29322"
       id="path3798"
       inkscape:connector-curvature="0"
       inkscape:path-effect="#path-effect3804"
       inkscape:original-d="m 134,620.36218 -49,200 56,126" />
    <path
       style="fill:none;stroke:#000000;stroke-width:1px;stroke-linecap:butt;stroke-linejoin:miter;stroke-opacity:1"
       d="m 81.958968,827.16889 c -12.924364,22.86223 -26.731709,46.30579 -40.510665,69.6188 M 50.682957,875.9011 C 38.539485,896.459 26.86896,917.31779 15.369058,938.2338 m 5.127428,-11.08882 c -2.897677,4.81571 -5.760114,9.62754 -8.595063,14.43277 M 80.514204,827.3453 C 65.255843,855.22282 49.115923,882.5081 33.68279,910.35356 m 10.29256,-27.05 C 31.69225,903.85791 20.282457,924.58613 9.3060828,945.11251 M 81.321547,823.35473 c -13.072103,22.39261 -25.223501,43.7421 -37.012347,64.5582 m 5.899573,-13.64512 c -12.732536,21.56828 -24.64947,43.02456 -36.243912,64.37241 m 10.299404,-16.08079 c -3.320393,5.82405 -6.68662,11.68792 -10.092396,17.58872 M 79.78365,825.70203 C 64.765091,852.5381 48.967542,878.49898 33.248788,904.15813 M 47.261625,881.62645 C 36.253439,900.80773 25.676288,919.69402 15.303961,938.80093 M 82.72353,820.59804 c -13.151171,23.88818 -27.176818,47.44998 -40.996106,70.99578 m 8.145464,-19.56192 c -13.223969,24.11803 -27.34477,47.49305 -41.3010827,70.70874 m 27.3062637,-40.96711 -1.607701,2.78668 m -20.158657,34.94167 -1.43436,2.48622 m 8.493719,-14.72244 -1.490578,2.58367 m 52.965074,-91.80613 -1.900507,3.29421 m -23.983811,41.57194 -1.694371,2.93691"
       id="path3800"
       inkscape:connector-curvature="0"
       inkscape:path-effect="#path-effect3808"
       inkscape:original-d="m 84,818.36218 -75,130" />
    <path
       style="fill:none;stroke:#000000;stroke-width:1px;stroke-linecap:butt;stroke-linejoin:miter;stroke-opacity:1"
       d="m 35.421495,716.49723 c 25.963945,-8.6661 51.044909,-16.75088 76.154265,-24.96621 m -18.915319,1.93574 c 8.189819,-2.74946 16.442019,-5.45925 24.742099,-8.14102 7.28643,13.4326 14.72015,26.95135 22.22306,40.4933 m -9.90809,-11.31362 c 11.34136,21.72139 23.39077,43.38294 35.43871,64.71025 m -5.66291,-13.58517 c 3.73832,6.79577 7.42486,13.55765 11.08226,20.30142 M 34.231351,711.4703 c 26.525343,-9.03185 54.261773,-17.82354 82.489419,-26.98597 m -20.701973,9.26242 c 6.855553,-2.18145 13.786573,-4.4484 20.779963,-6.78888 8.74257,15.85049 17.87274,31.24395 27.18758,46.36572 m -11.21681,-13.90102 c 11.49924,21.93056 23.81409,43.74913 36.45143,65.45927 M 30.794455,713.36945 c 22.449633,-7.34443 44.341926,-14.20535 65.952673,-20.71378 m -14.478785,5.05493 c 11.708464,-3.68112 23.294517,-7.49977 34.811587,-11.42022 8.68889,16.10321 17.21786,31.9704 25.77554,47.72766 m -10.7817,-22.90238 c 13.21337,25.51549 27.16354,50.52743 41.34713,76.18723 M 35.459653,712.91056 c 26.587054,-8.32922 52.299631,-16.98482 78.218567,-25.65641 m -21.248404,4.26888 c 7.716734,-2.3818 15.358424,-4.82575 22.950774,-7.31774 10.52147,19.35121 20.66373,38.33333 30.97412,57.24733 m -11.97259,-18.31128 c 11.4154,20.65821 22.58171,41.82763 34.02269,63.64309 M 37.621144,712.02282 c 22.924341,-7.11339 46.097286,-14.3428 68.914496,-20.91684 m -14.478568,2.58564 c 8.381768,-2.82058 16.716258,-5.59189 25.008178,-8.33371 8.17225,15.41986 16.17502,30.95715 24.04577,46.45472 m -8.59912,-15.39902 c 13.04629,24.92465 26.78218,49.61365 40.81715,74.72425 m -35.31959,-65.70545 1.52368,2.8335 m 27.84974,51.79075 1.35939,2.528 m -10.8859,-20.24397 1.41267,2.62707 m -99.701474,-59.89164 3.616005,-1.17825 m 60.139179,-5.77759 1.60582,2.98625"
       id="path3802"
       inkscape:connector-curvature="0"
       inkscape:path-effect="#path-effect3806"
       inkscape:original-d="m 28,715.36218 89,-29 57,106" />
    <path
       sodipodi:type="arc"
       style="fill:none;stroke:#000000;stroke-width:1.23064888;stroke-miterlimit:4;stroke-opacity:1;stroke-dasharray:none;stroke-dashoffset:0"
       id="path3812"
       sodipodi:cx="764.5"
       sodipodi:cy="226.59448"
       sodipodi:rx="72.5"
       sodipodi:ry="72.5"
       d="m 839.68767,227.22445 c 1.4643,8.25962 0.79706,16.72908 -1.48161,24.85797 -2.27866,8.12889 -6.17636,15.92275 -11.24765,22.88221 -3.31663,4.55151 -7.13614,8.74675 -11.33542,12.44604 -3.53215,3.11159 -7.32618,5.89016 -11.37091,8.27975 m 17.67336,-21.50595 c -9.29285,10.60945 -23.96858,18.68818 -41.74023,21.57706 -7.62215,1.23903 -15.31159,1.43546 -22.80979,0.63794 -1.93298,-0.20559 -3.81479,-0.47099 -5.64784,-0.79536 m 15.12511,5.39026 c -7.53252,0.84667 -15.23521,0.10106 -22.60606,-1.88738 -7.37084,-1.98844 -14.41457,-5.22306 -20.67195,-9.38376 -5.30323,-3.52627 -10.04305,-7.71876 -13.93645,-12.37943 -1.55387,-1.86009 -3.05077,-3.86215 -4.47493,-5.99401 m 18.08738,9.81123 c -6.00273,-4.6253 -11.12958,-10.16062 -15.32169,-16.28438 -4.19211,-6.12377 -7.44436,-12.84104 -9.75204,-19.77138 -2.0228,-6.07478 -3.19284,-11.90017 -3.72804,-17.2229 -0.7669,-7.6272 2.16392,-17.02921 7.47544,-26.55408 m -16.79582,12.40746 c 0.80078,-11.80002 5.52523,-23.08051 13.09175,-32.94379 6.83649,-8.91167 16.00293,-16.66634 26.78762,-22.62087 5.99939,-3.31243 11.99024,-5.8314 18.06564,-7.48389 m -21.17365,17.80159 c 8.18971,-5.492 17.61471,-9.27148 28.26439,-11.03504 14.07142,-2.33018 28.61337,-0.86573 43.01114,3.3284 3.86746,1.1266 7.41802,2.42111 10.68355,3.87397 m -21.57707,-7.67248 c 7.56458,2.3532 15.06773,5.75344 22.1181,10.2444 6.27268,3.99559 12.18807,8.85224 17.48471,14.59902 5.29664,5.74679 9.97487,12.38043 13.77992,19.96532 1.37585,2.74259 2.55639,5.50492 3.54088,8.2927 m 2.98337,13.38066 c 1.0577,8.66524 0.0866,16.62048 -2.46333,23.82831 -2.5499,7.20783 -6.68493,13.66268 -12.02755,19.26345 -4.35459,4.565 -9.51278,8.56142 -15.27811,11.92743 -1.07236,0.62608 -2.14728,1.24431 -3.22551,1.8525 m 1.93486,-15.91044 c -4.70246,6.19004 -10.58185,11.88635 -17.26329,16.87438 -6.68144,4.98804 -14.17033,9.26247 -22.0421,12.69369 -5.50894,2.40129 -10.88712,4.25753 -15.97756,5.64129 -7.64915,2.07931 -15.68468,0.18055 -23.29851,-4.21617 m 26.17111,5.97338 c -13.75906,-0.26545 -26.02328,-4.93928 -35.98122,-12.68824 -6.95915,-5.4154 -12.78493,-12.33988 -17.16591,-20.34258 -3.78513,-6.91427 -7.19991,-14.41925 -9.75632,-22.44849 m 3.56099,17.40054 c -5.82271,-7.62936 -9.63263,-16.68714 -10.98407,-26.56343 -1.64715,-12.03733 0.54269,-23.82199 5.64402,-34.0032 2.23747,-4.4655 4.73761,-8.9211 7.55562,-13.20616 m -6.80104,12.51853 c 1.82455,-7.73165 5.13358,-15.29759 9.58934,-22.16145 7.29808,-11.24229 17.69095,-20.62198 29.62943,-25.7831 4.25424,-1.83915 8.9931,-3.18805 14.1273,-3.95051 2.61096,-0.38774 5.26008,-0.61352 7.92726,-0.68043 m -27.44706,15.04331 c 4.94675,-2.09001 10.30317,-3.75177 16.03883,-4.90316 18.02054,-3.61746 36.86158,-1.55068 54.13292,5.05232 1.32395,0.50616 2.60068,1.05367 3.83125,1.64084 4.29566,2.04969 8.02924,4.58239 11.24062,7.52786 m -17.51848,-12.65295 c 2.28279,1.14783 4.50454,2.45125 6.65245,3.9048 6.19082,4.1895 11.76873,9.62435 16.42524,16.18885 4.65651,6.56451 8.39329,14.25625 10.88343,23.00199 m 3.72732,6.57542 c 1.65449,9.9358 1.26519,19.14934 -0.85241,27.50479 -2.11759,8.35545 -5.9647,15.8431 -11.23973,22.22701 -2.20973,2.67426 -4.67012,5.15435 -7.35924,7.42164 -2.91562,2.45824 -6.02112,4.91294 -9.29983,7.27188 m 12.53652,1.01361 c -5.1694,6.4354 -11.52691,11.71775 -18.82683,15.38093 -7.29992,3.66317 -15.5426,5.71469 -24.47997,5.58641 -4.90021,-0.0703 -9.77746,-0.79674 -14.57292,-2.15162 -8.47689,-2.39502 -16.60219,-4.057 -24.05999,-5.89994 m 26.32308,11.25341 c -14.08705,-0.1253 -27.83271,-5.79198 -39.13617,-15.87566 -6.49769,-5.79652 -12.19267,-13.05803 -16.68629,-21.61804 -5.51436,-10.50445 -9.94235,-19.64869 -12.5007,-28.34489 m 13.02004,32.42675 c -5.97247,-8.13538 -10.27829,-17.39833 -12.57563,-27.40567 -2.73532,-11.91519 -2.31412,-23.47102 0.38143,-33.81414 1.60102,-6.14331 4.51396,-12.25561 8.45107,-17.9956 2.0023,-2.9192 4.26997,-5.74252 6.76686,-8.42656 m -6.04562,20.70075 c 1.81195,-6.20082 4.50676,-11.81359 7.9394,-16.81698 8.97213,-13.07769 22.99426,-21.97064 39.55474,-26.18781 2.79086,-0.7107 5.62252,-1.31437 8.49034,-1.79564 2.33255,-0.39145 4.63895,-0.69299 6.9171,-0.90335 m -35.53378,13.06518 c 4.05569,-1.45524 8.35932,-2.69889 12.88794,-3.68776 9.35981,-2.0438 18.87927,-2.80695 28.15015,-2.34184 9.27088,0.4651 18.29475,2.15191 26.68886,4.93349 0.21583,0.0715 0.43048,0.14476 0.64395,0.21971 7.23035,2.5384 13.11557,7.02927 17.67953,12.79471 m -19.12134,-18.938 c 0.46103,0.25941 0.9189,0.52454 1.37355,0.79533 14.06349,8.37622 25.02748,22.13259 31.26988,39.69087 m 12.35096,27.01472 c 0.86051,8.80973 0.15286,17.02411 -1.85507,24.52736 -2.00793,7.50325 -5.31745,14.29055 -9.67042,20.19137 -3.14965,4.26962 -6.84579,8.07437 -10.98926,11.345 -7.24981,5.7226 -16.39209,11.01868 -26.80256,14.60184 m 22.31516,-18.24797 c -8.80081,7.69991 -20.46715,13.62418 -34.17311,16.90381 -10.99294,2.63044 -22.22629,3.30935 -33.01491,2.34469 -10.20972,-0.91291 -18.77471,-4.8235 -25.94937,-10.86437 -0.23392,-0.19695 -0.46636,-0.39619 -0.6973,-0.59767 m 18.22174,3.93501 c -8.21865,-2.60098 -15.83928,-6.27389 -22.364,-11.03438 -10.11215,-7.37789 -17.6204,-17.34868 -20.50147,-29.92829 -1.10965,-4.84506 -2.20529,-9.91764 -3.06528,-15.14266 -0.86526,-5.25703 -1.43868,-10.38944 -1.54987,-15.31805 m -5.09086,34.15274 c -1.64485,-3.92556 -2.88126,-8.09202 -3.67011,-12.46116 -1.64754,-9.12505 -1.2029,-18.3187 0.97436,-27.07295 2.17727,-8.75426 6.09096,-17.0727 11.42192,-24.47529 0.71846,-0.99765 1.44738,-1.98986 2.18707,-2.97568 4.09874,-5.46249 8.52948,-10.72711 13.33826,-15.6411 m -15.77885,13.27157 c 0.67496,-1.41356 1.41704,-2.7837 2.22326,-4.10964 4.8626,-7.99715 12.05262,-14.38978 20.95944,-18.97686 8.90683,-4.58707 19.53443,-7.36384 31.31597,-8.11694 2.01227,-0.12863 4.02666,-0.19612 6.03892,-0.20542 1.85373,-0.009 3.64462,0.003 5.37735,0.0383 m -15.86254,7.62249 c 1.86053,-0.4308 3.74096,-0.80505 5.64095,-1.1191 9.67153,-1.59863 19.02541,-1.48635 27.94208,0.22414 8.91668,1.71048 17.38899,5.01564 25.24508,9.77573 2.10524,1.27558 4.16621,2.65563 6.17973,4.1375 5.86833,4.31885 10.71369,9.10603 14.44297,14.26696 M 803.7353,170.53946 c 11.45249,7.0814 19.64463,18.26615 23.79122,31.99523 m 14.53456,22.57063 c 0.11054,8.42147 -1.24813,16.38746 -4.01141,23.78681 -2.76327,7.39936 -6.92984,14.22878 -12.43799,20.34254 -4.65627,5.16821 -10.27046,9.82416 -16.81929,13.87789 -5.72725,3.54517 -11.12873,6.78432 -16.37382,9.58532 m 24.39038,-11.76917 c -9.93861,9.13648 -22.21474,15.76127 -36.18104,18.48673 -8.56874,1.67215 -17.06505,1.7366 -25.24545,0.39005 -10.44337,-1.71905 -20.4639,-5.99593 -29.39139,-12.39425 -0.31938,-0.2289 -0.63736,-0.46053 -0.95393,-0.69485 m 21.87528,12.26658 c -8.95773,-2.64295 -17.61657,-6.60169 -25.26529,-11.95415 -10.26183,-7.18109 -18.72154,-16.84654 -23.64177,-29.17944 -1.90958,-4.78647 -3.47701,-9.75255 -4.59855,-14.88138 m 11.38438,21.67007 c -3.80301,-6.28573 -6.41999,-13.65672 -7.59651,-21.86383 -1.09915,-7.66751 -0.86253,-15.51379 0.54924,-23.21238 1.41178,-7.69859 3.99979,-15.25252 7.61954,-22.36849 2.37636,-4.67166 4.88403,-8.99407 7.56059,-12.97152 0.47912,-0.71199 0.96364,-1.41292 1.45374,-2.10279 m -11.36378,23.67706 c 2.06201,-6.15973 4.72973,-11.82129 7.91954,-16.96178 4.20339,-6.77392 9.31412,-12.64123 15.12752,-17.53947 5.81341,-4.89824 12.33109,-8.82193 19.31967,-11.75282 2.31945,-0.97274 4.82413,-1.76923 7.49761,-2.38359 5.25854,-1.20839 10.89537,-1.64937 16.67027,-1.4334 m -18.46414,-0.0543 c 2.7249,-0.90521 5.4822,-1.65556 8.2602,-2.24137 8.9476,-1.88681 17.34452,-1.8983 24.84734,-0.34137 7.50283,1.55693 14.10768,4.68359 19.40624,9.07936 0.7863,0.65233 1.54375,1.3326 2.27095,2.03982 5.03103,4.89282 11.53565,11.72483 17.95711,20.11472 M 809.1768,158.75783 c 11.89011,9.55807 21.83949,22.07985 27.12307,37.29146 m -150.68265,10.86888 48.2356,-55.67352 m 67.36716,2.88813 43.41261,59.02458 m -89.36437,-67.35399 68.91279,25.62824 m 16.42193,83.64778 -54.05917,49.79185 M 699.92136,276.2332 686.47141,203.18954"
       transform="matrix(0,-0.8125795,0.8125795,0,739.86826,1179.6046)"
       sodipodi:start="6.0929057"
       sodipodi:end="12.295934"
       sodipodi:open="true"
       inkscape:path-effect="#path-effect3864" />
    <path
       style="fill:none;stroke:#000000;stroke-width:1px;stroke-linecap:butt;stroke-linejoin:miter;stroke-opacity:1"
       d="m 1001.2021,627.04602 c 4.5587,-12.93357 5.026,-25.43947 3.1268,-37.18109 -2.2093,-13.65947 -7.64718,-26.27022 -13.79204,-37.13946 -0.59752,-1.05692 -1.2018,-2.09728 -1.8106,-3.12035 m 7.03319,7.38491 c -2.04865,-5.16397 -4.3131,-10.04381 -6.65896,-14.5868 -5.69918,-11.03703 -11.87869,-20.08859 -16.65263,-26.40061 -2.38698,-3.15602 -4.42277,-5.62657 -5.86509,-7.31041 -0.72115,-0.84191 -1.29381,-1.48705 -1.68673,-1.92218 -0.19646,-0.21756 -0.34797,-0.38261 -0.45056,-0.49346 -0.0513,-0.0554 -0.0903,-0.0973 -0.11667,-0.12541 -0.0132,-0.014 -0.0231,-0.0247 -0.0299,-0.0318 -0.007,-0.007 -0.0102,-0.0108 -0.0104,-0.011 0,0 0,-10e-6 0,-10e-6 0,0 0,10e-6 10e-6,10e-6 0.006,0.004 3.52975,2.48673 9.10099,6.91605 m -12.04257,2.37141 c -0.22913,-0.25097 -0.44762,-0.4889 -0.65499,-0.71356 -0.81388,-0.88171 -1.45651,-1.5588 -1.89663,-2.01581 -0.22007,-0.2285 -0.38948,-0.40198 -0.5041,-0.51852 -0.0573,-0.0583 -0.10093,-0.10231 -0.13032,-0.13187 -0.0147,-0.0148 -0.0258,-0.0259 -0.0333,-0.0335 -0.008,-0.008 -0.0114,-0.0114 -0.0116,-0.0116 0,0 -1e-5,-10e-6 -1e-5,-10e-6 0,0 1e-5,10e-6 1e-5,10e-6 0.006,0.005 4.05345,2.97177 10.3667,8.14346 6.31325,5.1717 14.94209,12.54518 23.85713,21.26905 5.4204,5.30418 10.93365,11.10534 16.00765,17.21652 m -4.902,-10.19049 c 7.4638,8.27293 14.482,17.31826 20.0632,26.82478 5.1545,8.77993 9.0934,17.96 11.0577,27.30894 m -40.41314,11.57983 c 3.07737,-12.16648 3.59162,-24.11788 2.48398,-35.48411 -1.35619,-13.91671 -5.10343,-26.95803 -9.45065,-38.30583 -1.19166,-3.11065 -2.42957,-6.09295 -3.6791,-8.92684 m 9.26565,25.64778 c -1.66795,-3.56784 -3.41028,-7.05809 -5.17648,-10.43107 -5.76504,-11.00978 -11.77899,-20.78176 -16.3756,-27.79061 -2.29831,-3.50442 -4.2436,-6.31523 -5.61966,-8.24533 -0.68804,-0.96505 -1.23356,-1.71013 -1.60781,-2.21384 -0.18712,-0.25186 -0.33141,-0.4434 -0.4291,-0.57215 -0.0489,-0.0644 -0.0861,-0.11306 -0.11113,-0.14574 -0.0125,-0.0163 -0.022,-0.0287 -0.0285,-0.037 -0.006,-0.008 -0.01,-0.0126 -0.01,-0.0128 -10e-6,0 -10e-6,-10e-6 -10e-6,-10e-6 0,0 10e-6,0 10e-6,10e-6 0.007,0.004 4.62411,2.58588 11.7837,6.95742 1.65137,1.00831 3.4384,2.11111 5.33525,3.29887 m -20.84114,-7.15012 c 1.76678,1.38554 4.77751,3.79351 8.66252,7.0408 6.37472,5.32831 15.1444,12.91207 24.42972,21.95676 7.23873,7.05117 14.77493,14.9911 21.51363,23.47013 m -5.1833,-17.35487 c 5.5411,6.4332 10.6221,13.54449 14.7329,21.12558 6.1725,11.38333 10.1752,23.80988 10.3377,36.52065 m -36.48261,17.13618 c 4.76591,-12.69881 5.27041,-25.77954 3.30011,-38.38296 -2.21103,-14.14403 -7.559,-27.71573 -13.63903,-39.55078 -2.37729,-4.62749 -4.86667,-8.98809 -7.32802,-13.00838 m 15.05501,21.35203 c -1.61528,-3.47526 -3.32439,-6.83631 -5.07351,-10.04809 -5.74097,-10.54173 -11.9096,-19.45098 -16.65941,-25.65273 -2.37491,-3.10088 -4.39592,-5.53072 -5.82693,-7.18457 -0.7155,-0.82692 -1.28336,-1.46008 -1.67295,-1.88696 -0.1948,-0.21343 -0.34501,-0.3753 -0.44672,-0.484 -0.0508,-0.0543 -0.0896,-0.0954 -0.11567,-0.12296 -0.0131,-0.0138 -0.0229,-0.0242 -0.0296,-0.0312 -0.007,-0.007 -0.0101,-0.0106 -0.0103,-0.0108 -10e-6,-10e-6 -10e-6,-10e-6 -10e-6,-10e-6 0,0 0,0 10e-6,10e-6 0.007,0.005 4.4978,3.20448 11.39582,8.90852 4.68562,3.87458 10.48756,8.91126 16.73151,14.96825 m -23.46238,-15.43284 c 1.04206,0.81017 2.16216,1.6946 3.3466,2.64835 6.76827,5.45009 15.58738,13.14744 24.21516,22.27085 8.62783,9.12341 17.09683,19.6819 23.62293,31.0211 0.9579,1.6643 1.8741,3.34551 2.7429,5.04162 m -15.6461,-22.21385 c 3.0478,4.01756 5.8655,8.11526 8.3707,12.26667 5.5473,9.19251 9.5663,18.65131 11.1915,28.11676 m -35.14541,23.93869 c 3.92746,-11.75907 4.51031,-23.09199 3.1455,-33.5163 -1.66931,-12.74999 -6.2495,-24.10134 -11.3965,-33.31768 -1.23222,-2.20643 -2.49824,-4.29258 -3.76903,-6.2527 m 13.23191,11.43428 c -1.76935,-3.68029 -3.66823,-7.21559 -5.63156,-10.56733 -6.09375,-10.40305 -12.8305,-19.00237 -18.1081,-24.91324 -2.6388,-2.95544 -4.90749,-5.2473 -6.51808,-6.80116 -0.8053,-0.77693 -1.44587,-1.36958 -1.88539,-1.76866 -0.21975,-0.19953 -0.38925,-0.35066 -0.50398,-0.4521 -0.0574,-0.0507 -0.10104,-0.089 -0.13047,-0.11472 -0.0147,-0.0129 -0.0259,-0.0226 -0.0334,-0.0291 -0.008,-0.007 -0.0114,-0.01 -0.0116,-0.0101 0,0 -10e-6,0 -10e-6,0 0,0 10e-6,0 10e-6,0 0.006,0.006 4.09701,3.42948 10.12774,9.61256 0.60173,0.61693 1.22257,1.26168 1.86025,1.93379 m -10.3164,-16.16397 c -2.7e-4,-2.9e-4 -5.4e-4,-5.8e-4 -8e-4,-8.6e-4 -0.007,-0.008 -0.0108,-0.0115 -0.0109,-0.0117 -10e-6,-10e-6 -10e-6,-10e-6 -10e-6,-10e-6 0,0 0,0 10e-6,0 0.007,0.005 4.31644,2.89837 10.67363,8.13175 6.35719,5.23338 14.73624,12.83584 22.925,22.09693 6.79833,7.68855 13.47023,16.50687 18.86243,25.92732 m -10.4409,-12.30942 c 5.2183,6.74339 10.3159,13.95457 14.7319,21.4783 5.1098,8.70586 9.301,17.83241 11.674,27.14115 m -32.73513,25.79098 c 5.44043,-13.42785 6.18293,-27.51546 4.25793,-41.17763 -2.0387,-14.4696 -7.08024,-28.50849 -12.818,-40.87028 -2.71249,-5.84396 -5.5814,-11.30954 -8.37312,-16.24988 m 11.803,26.13838 c -1.54866,-3.63962 -3.22981,-7.13031 -4.97863,-10.44199 -5.62876,-10.65902 -11.95259,-19.44253 -16.86015,-25.51424 -2.45378,-3.03585 -4.55491,-5.39886 -6.0439,-7.00431 -0.74449,-0.80273 -1.33596,-1.41617 -1.74175,-1.82952 -0.20289,-0.20667 -0.35937,-0.3633 -0.4653,-0.46847 -0.053,-0.0526 -0.0933,-0.0923 -0.12048,-0.11894 -0.0136,-0.0133 -0.0239,-0.0234 -0.0308,-0.0302 -0.007,-0.007 -0.0105,-0.0103 -0.0107,-0.0104 -10e-6,-10e-6 -10e-6,-10e-6 -10e-6,-10e-6 0,0 0,0 10e-6,10e-6 0.007,0.005 4.36153,3.31882 10.99088,9.24676 5.75441,5.14558 13.22815,12.27512 21.08053,21.02557 m -23.53841,-26.0522 c 0.32473,0.27002 0.65591,0.54622 0.9933,0.82848 6.47731,5.41902 15.24616,13.0536 24.40321,22.03028 9.15708,8.97667 18.70878,19.30041 26.55858,30.29926 1.7082,2.39351 3.3351,4.81944 4.8581,7.27129 m -22.165,-8.21983 c 2.3476,3.0894 4.5744,6.27389 6.6349,9.53253 6.5833,10.41129 11.4705,21.57808 13.1728,32.81357 m -58.86861,-96.10227 45.83551,45.15774 m 9.4844,9.90266 15.7435,55.20526 m -32.2979,-75.0761 29.913,51.61474 m -29.9738,25.99085 -9.36634,-75.48361 m -46.92068,-47.76841 25.63033,18.4479"
       id="path3836"
       inkscape:connector-curvature="0"
       inkscape:path-effect="#path-effect3842"
       inkscape:original-d="m 995.91434,625.28042 c 24.09326,-58.17657 -33.59733,-116.97957 -33.59733,-116.97957 0,0 68.08709,48.8073 70.44549,98.48061" />
    <path
       style="fill:none;stroke:#000000;stroke-width:1px;stroke-linecap:butt;stroke-linejoin:miter;stroke-opacity:1"
       d="m 848.77845,558.93333 c 0.1436,-0.34965 0.29393,-0.71049 0.45104,-1.08173 1.92001,-4.53681 4.84239,-10.61983 8.93082,-16.87161 4.08842,-6.25177 9.34696,-12.67493 16.06909,-17.98712 4.64415,-3.67007 9.98959,-6.8115 16.14351,-9.01404 m -42.8371,32.82315 c 1.64141,-4.37388 4.20884,-10.04356 8.01745,-15.87801 4.04175,-6.19158 9.47911,-12.56996 16.61808,-17.83492 6.76613,-4.98998 15.05472,-8.98256 25.14058,-10.87515 m -56.10457,53.93506 c 0.22966,-0.74746 0.49443,-1.566 0.79785,-2.44572 1.54129,-4.46877 4.0901,-10.51425 8.04839,-16.85342 3.95828,-6.33917 9.32229,-12.97127 16.37171,-18.63936 5.25216,-4.223 11.43725,-7.90948 18.65583,-10.5686 m -36.77803,45.72029 c 1.94526,-4.14511 4.81768,-9.58762 8.78597,-15.28456 4.19939,-6.0287 9.62759,-12.34136 16.60402,-17.61741 4.69912,-3.5538 10.10236,-6.63616 16.32898,-8.82656 m -50.15631,39.93013 c 0.35424,-1.24805 0.86708,-2.90062 1.57815,-4.84762 1.64002,-4.49058 4.3443,-10.54314 8.54837,-16.83886 4.20408,-6.29572 9.90234,-12.8353 17.42176,-18.35507 6.79539,-4.98827 15.0675,-9.14086 25.10769,-11.57763 m -33.70648,24.64811 25.72361,-19.32162 m -6.31792,3.41158 27.71873,-7.45259 m -34.6887,11.72079 27.61958,-11.26392 m -58.60649,60.68236 15.92037,-34.53865 m -4.62612,7.06251 23.25281,-24.67672"
       id="path3838"
       inkscape:connector-curvature="0"
       inkscape:path-effect="#path-effect3840"
       inkscape:original-d="m 843.69147,557.23676 c 0,0 11.45203,-45.45164 52.90325,-53.31273" />
    <path
       style="fill:none;stroke:#000000;stroke-width:1px;stroke-linecap:butt;stroke-linejoin:miter;stroke-opacity:1"
       d="m 935.11394,629.49197 c 5.99297,25.744 10.66146,52.36 15.37254,78.78017 m -4.51942,-25.1413 c 4.4279,23.2093 9.56523,46.86992 14.95848,70.61638 m -6.93224,-11.7072 c 4.25199,24.11299 9.56606,48.13622 14.87792,71.65808 m 0.0693,-14.69386 c 1.58896,7.08233 3.11195,14.12034 4.59553,21.1333 -8.7178,23.1543 -17.91223,46.00565 -26.46718,69.36383 m 5.05527,-30.56951 c -10.87074,25.86978 -19.92487,52.09979 -28.24216,77.7737 m 7.59414,-16.17765 c -3.586,8.81242 -6.98889,17.41616 -10.24886,25.84888 m 9.77112,-319.07135 c 4.46876,24.41343 10.16093,48.65889 16.33684,72.74169 m -0.39272,-18.78471 c 4.89863,22.81541 8.96125,46.35608 12.60156,70.4255 m -3.52872,-13.80317 c 5.76531,26.81207 10.6252,52.60691 15.45729,77.97125 -1.41615,3.26602 -2.83282,6.52407 -4.24779,9.77564 m 3.12463,-25.12192 c 0.89108,4.85224 1.81395,9.68275 2.76492,14.49997 -9.34256,24.25461 -17.89553,48.13573 -26.2068,72.89749 m 6.17893,-22.48794 c -9.23741,25.72484 -19.78654,50.96011 -30.02612,76.1714 m 4.45935,-21.86655 c -3.60534,10.08742 -7.41126,20.00813 -11.32651,29.81241 m 13.15146,-326.31281 c 6.12445,27.47518 11.71748,56.04276 18.11219,86.04377 m -1.83306,-24.9229 c 4.26633,24.74255 8.90556,49.31109 13.01119,74.86266 m -1.78911,-19.55197 c 5.2129,25.05414 9.80634,50.75383 13.96287,76.33318 -0.1418,0.328 -0.28367,0.65597 -0.42563,0.98392 m -2.6878,-16.6628 c 1.10206,5.87745 2.25016,11.73917 3.43877,17.59441 -8.93132,23.2712 -17.15278,46.42889 -25.06778,70.15169 m 8.93538,-24.34731 c -11.51402,30.57791 -23.74198,59.14361 -35.59272,86.82091 m 14.15402,-326.57003 c 6.49922,32.49575 13.22367,65.11683 20.3717,99.21616 m -7.06475,-32.20213 c 5.48877,27.00616 11.61934,53.40882 18.59191,79.51202 m -11.09988,-14.3502 c 4.64286,20.64725 9.22028,41.49047 14.27086,62.17762 -2.84711,7.9949 -5.61565,15.96387 -8.26915,23.88309 m 9.36557,-22.36772 c -11.29932,29.08172 -23.21895,57.9661 -35.08782,86.0457 m 11.87683,-24.25189 c -8.88357,20.83791 -16.95675,42.84754 -24.78675,65.03044"
       id="path3848"
       inkscape:connector-curvature="0"
       inkscape:path-effect="#path-effect3856"
       inkscape:original-d="m 932,618.36218 40,199 -54,137"
       sodipodi:nodetypes="ccc" />
    <path
       style="fill:none;stroke:#000000;stroke-width:1px;stroke-linecap:butt;stroke-linejoin:miter;stroke-opacity:1"
       d="m 975.14222,824.82902 c 15.3446,21.94707 29.80618,44.47546 44.29618,66.87331 m -10.8377,-21.77882 c 13.0776,19.74141 26.6281,39.78371 40.3492,59.88323 M 973.62811,825.25767 c 13.35714,20.51118 27.42229,40.96251 41.48609,61.07961 m -6.3439,-12.35108 c 12.3834,18.27303 24.3556,36.27085 36.4228,54.35854 M 968.6053,815.06318 c 15.33351,23.23168 31.8781,46.7035 48.9139,69.8046 m -11.4997,-15.28862 c 12.7758,19.87003 26.3363,38.85072 40.2426,57.34358 M 972.64603,823.05016 c 13.5182,20.71844 27.85197,41.3249 42.50827,61.82293 m -7.0413,-16.72049 c 13.1764,19.3882 25.7955,39.25991 38.133,59.48411 M 973.86013,821.54683 c 17.36925,25.78755 33.95947,50.69993 50.62857,75.31057 m -11.8397,-21.13867 c 10.1296,15.75733 20.5745,31.29877 31.1926,46.94684"
       id="path3850"
       inkscape:connector-curvature="0"
       inkscape:path-effect="#path-effect3858"
       inkscape:original-d="m 970,815.36218 78,117"
       sodipodi:nodetypes="cc" />
    <path
       style="fill:none;stroke:#000000;stroke-width:1px;stroke-linecap:butt;stroke-linejoin:miter;stroke-opacity:1"
       d="m 885.35691,754.47512 c 17.47911,-21.08613 34.07523,-41.59093 50.69975,-62.22628 m -12.77342,10.92618 c 6.96287,-8.66853 14.02789,-17.27208 21.16472,-25.8351 12.08068,4.54502 24.2566,9.14379 36.4814,13.75895 m -17.04965,-3.1494 c 22.8329,8.58429 46.37389,17.10875 69.91339,25.29896 M 886.72174,750.7251 c 19.9001,-23.16441 38.98408,-46.8771 58.66676,-70.11154 1.1353,0.43559 2.27153,0.87192 3.40877,1.30905 m -21.5467,13.35904 c 4.87947,-6.1389 9.85221,-12.25931 14.90283,-18.37428 19.30607,7.05179 39.14004,14.14044 59.2304,21.03558 m -20.38113,-5.0082 c 15.76119,6.2037 31.93393,11.94035 48.35163,17.36317 m -150.09493,45.21774 c 15.50031,-19.24245 31.81623,-38.59688 48.45463,-58.05975 m -8.67836,11.35166 c 8.84471,-10.69696 17.49667,-21.22672 26.01198,-31.61592 8.87351,3.57484 17.67996,7.21865 26.43863,10.92228 m -14.25853,-4.74229 c 25.29445,9.61128 49.99888,18.5609 74.67928,27.22498 m -146.15454,37.92916 c 18.99451,-22.88486 38.83017,-46.34441 58.89351,-68.97443 m -17.70113,19.60394 c 5.87224,-6.88955 11.65054,-13.81416 17.37296,-20.7629 17.29173,6.47189 34.34835,12.84226 51.49822,19.2054 m -20.9468,-9.14686 c 17.80836,6.76345 35.20558,13.18595 52.52068,19.44855"
       id="path3852"
       inkscape:connector-curvature="0"
       sodipodi:nodetypes="ccc"
       inkscape:path-effect="#path-effect3854"
       inkscape:original-d="m 880,756.36218 64,-78 93,35" />
    <path
       sodipodi:nodetypes="ccccc"
       inkscape:connector-curvature="0"
       inkscape:original-d="m 251,420.36218 555,-1 -1,222 -553,-1 z"
       inkscape:path-effect="#path-effect3885"
       id="path3883"
       d="m 258.49902,422.87505 c 9.99037,-0.37486 18.88988,-0.0316 28.09839,-0.0636 0,0 0,0 0,0 9.21173,-0.032 18.78244,-0.30321 27.78388,-0.85148 0,0 0,0 0,0 7.33967,-0.44705 15.57954,-0.11504 23.8618,0.13705 m -19.89726,-2.63175 c 9.05883,-0.20048 19.13503,-0.4874 28.86186,-1.38877 9.73024,-0.90168 19.22521,0.22901 29.08388,0.72352 0,0 0,0 1e-5,0 5.04639,0.25313 9.96786,0.28862 14.90197,0.31193 m -17.0124,1.55178 c 9.20068,-0.27937 19.74783,-0.29108 30.69921,-0.83869 10.95522,-0.5478 18.42645,0.6947 26.72138,2.12352 0,0 0,0 10e-6,0 5.06248,0.87203 11.26016,0.36001 17.75615,-0.54789 m -17.08872,-0.67846 c 9.20889,-0.0131 19.58575,-0.1871 30.18671,-0.51397 0,0 0,0 0,0 10.60467,-0.32698 19.14987,0.25625 28.87138,0.82352 9.72152,0.56727 18.57583,0.54239 27.14638,1.68602 2.81187,0.37521 5.91493,0.50613 9.20789,0.51552 M 500.79,419.40021 c 9.07529,0.40271 18.86793,-0.36669 28.04935,-1.06441 9.18464,-0.69796 19.43603,0.39297 29.72138,1.24852 0,0 0,0 10e-6,0 9.94744,0.82745 18.33569,0.32017 27.21476,0.84172 m -20.49964,-0.0522 c 9.99844,0.39847 18.53837,-0.48559 27.03588,-1.4144 0,0 0,0 10e-6,0 8.50048,-0.92914 19.01125,-0.34848 28.44637,-1.00148 6.41625,-0.44406 12.78398,-0.34953 19.01458,-0.31752 m -16.97052,4.86387 c 9.39167,-0.33394 19.25241,-0.98601 29.21152,-2.92613 9.96259,-1.9408 18.59907,0.83541 27.23388,2.54852 0,0 0,0 0,0 5.30533,1.05255 11.40014,0.7375 17.66526,0.26152 m -16.65828,-2.71337 c 9.05056,-0.36674 19.19731,-0.32154 29.03687,-0.92609 10e-6,0 10e-6,0 10e-6,0 9.84301,-0.60477 19.4739,0.29781 29.85887,0.93602 0,0 10e-6,0 10e-6,0 4.76206,0.29265 9.20727,0.34978 13.58386,0.36005 m -16.54367,-2.55659 c 9.30398,0.36974 18.76215,0.0681 27.72411,0.24813 8.9651,0.18009 19.23903,0.54345 29.15888,1.68602 0,0 0,0 0,0 4.37084,0.50344 8.42138,0.45808 12.25311,0.16128 -0.4869,4.96021 -1.32647,9.51516 -2.3111,14.27329 -0.39701,1.91849 -0.58755,3.92604 -0.63056,5.98766 m -0.64451,-21.45217 c 1.05447,-0.0271 2.10798,-0.0514 3.16185,-0.0736 0.2803,8.33389 0.58595,16.81 1.69528,24.9196 0,0 0,0 0,0 1.24227,9.0814 -0.37591,19.89605 -1.0037,31.12113 -0.62779,11.22509 -0.17302,18.67971 -0.39119,27.45864 0,0 0,0 0,0 -0.0403,1.61998 -0.0721,3.2743 -0.0988,4.94905 m -0.56362,-26.04383 c -0.50073,9.94504 -0.53942,19.6176 -1.49067,30.29819 -0.95159,10.68433 -0.0692,18.08265 -0.0912,25.68364 0,0 0,0 0,0 -0.0193,6.66541 0.15173,17.05579 0.56015,27.28429 m 1.0685,-19.74405 c 0.17352,9.51976 0.0843,18.14939 0.37112,25.87364 0,0 0,0 0,0 0.28696,7.72696 -0.20168,19.83428 -0.4912,30.94614 -0.28952,11.11186 0.12027,18.8264 0.4963,27.90864 0.0571,1.37793 0.0886,2.7821 0.0991,4.20786 m 0.14112,-20.60682 c 0.11112,9.20005 0.0607,18.95565 0.32119,28.32398 0.0246,0.88588 0.0449,1.7761 0.0617,2.67027 -8.42385,-0.0739 -17.17167,0.21456 -25.557,0.52122 -8.57664,0.31365 -17.80776,-0.0867 -27.06787,-0.36327 m 19.39573,0.0786 c -9.52435,0.19442 -18.65422,-0.73895 -27.39888,-2.17687 -8.74771,-1.43842 -19.50909,-0.22665 -29.94637,-0.61417 0,0 -10e-6,0 -10e-6,0 -5.98471,-0.2222 -11.30073,-0.0834 -16.46621,0.20754 m 17.88444,-0.44484 c -9.65747,0.45704 -18.69312,0.0896 -27.52374,0.31035 -8.8337,0.22086 -18.92116,-0.43329 -28.19637,-1.25167 0,0 -1e-5,0 -1e-5,0 -7.10639,-0.62702 -14.5297,-0.25716 -21.92749,0.0285 m 17.80875,1.29077 c -9.30868,-0.0252 -19.54554,0.39396 -30.0616,1.22336 -10.51975,0.82969 -18.92445,-0.84822 -28.19639,-2.48917 -9.27192,-1.64095 -19.01166,0.0899 -28.47137,0.33583 0,0 -10e-6,0 -10e-6,0 -1.97839,0.0515 -3.93174,0.0812 -5.85841,0.0964 m 25.97393,0.66296 c -9.08845,-0.42471 -19.84313,0.15138 -30.96184,0.49878 0,0 0,0 0,0 -11.12259,0.34752 -18.71027,-0.0278 -27.57138,-0.0267 -8.86111,0.001 -19.27725,-1.08537 -29.24638,-3.18916 -4.04761,-0.85417 -7.94441,-1.01148 -11.77881,-0.89005 m 31.14581,2.49533 c -9.21332,-0.11722 -19.97013,-0.28382 -31.36171,-0.78904 0,0 0,0 0,0 -11.39556,-0.50541 -18.43117,0.58413 -26.73388,1.79833 -8.3027,1.2142 -18.84852,0.041 -27.97137,0.16083 -1e-5,0 -1e-5,0 -1e-5,0 -3.92852,0.0516 -8.13167,-0.0965 -12.51342,-0.41187 m 30.30181,-0.87116 c -9.19214,-0.3914 -19.42175,0.19767 -29.68673,0.63625 -10.26857,0.43873 -18.36363,-0.38095 -26.50888,-1.10167 0,0 0,0 0,0 -7.14267,-0.63201 -17.05215,-0.2758 -26.93269,-0.34397 m 18.60459,4.09732 c -9.81972,-0.48315 -18.7377,-0.14675 -27.64856,-0.38866 -8.91399,-0.24199 -19.03991,-0.0292 -28.54639,-0.0517 -9.50648,-0.0225 -19.27331,-0.4426 -29.23388,-1.28916 -1.55204,-0.13191 -3.08684,-0.2244 -4.60939,-0.28681 m 25.36635,-2.51478 c -9.98625,-0.14195 -18.95452,0.0335 -28.31089,0.13598 0,0 0,0 0,0 -9.35964,0.10254 -19.42303,0.71922 -29.69638,2.19834 -5.27073,0.75886 -10.03216,0.64104 -14.58895,0.25124 0.29155,-4.99917 0.76745,-10.24335 1.16721,-15.21551 0.25251,-3.1406 0.31945,-6.16776 0.27624,-9.14145 m 5.01001,24.84855 c -1.36128,-0.0769 -2.73136,-0.13604 -4.11023,-0.18211 -0.13911,-8.41981 -0.5936,-16.3689 -1.36153,-24.82539 0,0 0,0 0,-10e-6 -0.89644,-9.8715 0.51142,-19.04801 1.65763,-28.55863 1.14621,-9.51061 -0.0825,-19.38581 -0.11737,-29.58362 0,-10e-6 0,-10e-6 0,-10e-6 -0.015,-4.39142 -0.20773,-8.55336 -0.57617,-12.64774 m 0.96424,29.34785 c 0.43888,-9.79531 -0.55239,-19.62912 -1.51784,-30.33585 -0.96578,-10.71047 -0.0179,-19.04734 0.0826,-28.55863 0.10057,-9.51129 -0.24455,-18.9883 -0.61737,-28.39613 -0.11773,-2.97081 -0.14217,-5.90006 -0.10458,-8.77706 m -1.33859,26.73602 c 0.41383,-9.94046 -0.68776,-19.02016 -1.91781,-28.48569 -1.23047,-9.46885 9.8e-4,-18.27996 0.14513,-26.27114 0.14415,-7.99117 -0.40291,-19.42112 -1.07986,-29.69613 -0.0328,-0.49811 -0.0616,-0.99244 -0.0866,-1.48324 3.90472,-0.26641 8.11156,-0.25353 12.46837,-0.14324 m -1.53641,-0.30065 c 9.55354,-0.10878 18.7587,-0.213 27.71135,-0.57636 8.95578,-0.3635 18.88854,0.15147 28.10888,0.49852 9.22034,0.34704 19.2286,0.40324 29.12138,1.24852 0,0 0,0 0,0 1.37918,0.11784 2.74274,0.19152 4.09371,0.2281 m -21.92999,0.12027 c 9.05888,-0.42917 19.2002,-0.36191 29.03687,-1.02603 9.84011,-0.66436 18.09418,0.50871 25.70888,1.58602 0,0 0,0 0,0 3.77284,0.53377 8.50469,0.5275 13.4971,0.37998 m -11.2128,-0.65303 c 9.02523,-0.0299 18.66094,-0.39564 27.4369,-1.12645 8.77903,-0.73106 18.58723,0.69742 27.18388,2.16102 8.59665,1.4636 19.52554,-0.18011 29.99638,-0.48898 0,0 0,0 0,0 0.64378,-0.019 1.28024,-0.0372 1.91005,-0.0549 m -24.2893,-1.96991 c 9.33768,-0.44968 19.36779,0.044 29.56158,0.17399 0,0 0,0 0,0 10.19735,0.13 18.31041,-0.3766 26.37138,-1.07648 0,0 0,0 0,0 5.01888,-0.43576 11.17691,-0.31545 17.41458,-0.1321 m -14.26592,2.39312 c 9.05063,0.20346 19.30272,0.19981 29.36187,0.66081 10.06268,0.46116 18.5588,-0.66294 27.10888,-1.93898 0,0 10e-6,0 10e-6,0 8.05877,-1.20272 18.55094,0.24247 29.04088,1.18287 m -21.93585,-0.31863 c 9.43293,-0.43306 18.78881,0.01 27.79897,0.074 9.01332,0.0644 19.36366,-0.22635 29.50888,-0.61398 10.14523,-0.38762 18.45505,0.13896 26.80888,0.47352 0,0 0,0 10e-6,0 3.93999,0.15779 8.44757,0.13781 13.15346,0.0494 m -27.87551,-0.008 c 9.38672,-0.21285 18.12634,-0.32893 25.81152,-0.93876 7.68788,-0.61004 19.03092,-0.009 28.52138,0.036 0,0 10e-6,0 10e-6,0 8.28337,0.0389 17.19524,0.0895 26.6774,0.27231 m -18.93361,-2.09288 c 9.95322,0.41124 19.29722,-0.0584 29.34843,-0.11442 0,0 0,0 0,0 10.05472,-0.056 19.59869,-0.18481 30.22138,-0.51398 9.57659,-0.29674 17.15363,0.60147 25.14653,2.01701 m -20.11381,1.11139 c 9.54532,0.13673 18.90904,-0.0456 28.17385,-0.10163 5.24116,-0.0317 10.46565,-0.061 15.53758,-0.10931 -0.25978,4.10832 -0.60962,8.20542 -1.11115,12.28163 -1.15429,9.38155 0.60122,18.69251 1.9213,27.52114 0,0 0,0 0,0 0.27067,1.8102 0.39162,3.69876 0.39814,5.64773 m -1.9492,-23.05317 c -0.48368,9.25375 0.0478,18.4317 0.28431,26.73641 0,10e-6 0,10e-6 0,10e-6 0.23658,8.30762 -0.11129,19.18337 -0.2162,28.97113 -0.10491,9.78777 -0.24856,19.03754 -0.60369,28.54614 0,0 0,0 0,0 -0.10341,2.76862 -0.17218,5.5467 -0.22949,8.33296 m 1.33634,-28.13463 c -0.17223,9.72415 -0.6664,18.98186 -1.85352,28.37343 -1.18753,9.39485 0.45253,18.98603 1.4963,28.37114 1.04378,9.3851 -0.0909,19.24756 -0.1412,29.17113 -0.005,0.97645 -0.015,1.94131 -0.0303,2.89571 m -3.12648,-22.00222 c -0.009,9.03416 0.59287,19.64293 1.89631,30.34915 1.3039,10.70997 -0.2303,18.63689 -0.55369,27.34614 0,0 0,0 0,0 -0.12071,3.25064 -0.13387,6.79938 -0.0837,10.51942 -5.85794,0.26698 -11.53717,1.017 -17.2468,1.64957 -2.12939,0.23591 -4.31168,0.33232 -6.53123,0.32872 m 22.7562,-3.23883 c 0.0144,0.34829 0.0282,0.69589 0.0417,1.04284 -8.77442,0.19157 -17.83451,-0.0982 -25.9654,-0.20016 -8.43429,-0.10579 -19.22166,-0.66976 -29.09638,-1.97666 0,0 0,0 0,0 -4.97361,-0.65825 -9.77033,-0.57684 -14.52451,-0.24967 m 13.28028,3.401 c -9.94874,-0.39156 -18.84643,-0.0319 -27.98593,-0.0388 0,0 0,0 -1e-5,0 -9.1427,-0.007 -18.44028,-0.2898 -26.73387,-0.81417 -8.29359,-0.52437 -19.69609,-0.18973 -30.50888,-0.52666 -4.83365,-0.15062 -9.06291,-0.0906 -13.03338,0.095 m 31.67891,0.7217 c -9.57827,-0.33749 -18.43488,-0.0409 -26.73632,-0.0638 -8.30435,-0.0229 -19.34047,-0.0918 -29.43388,-0.22667 -10.09341,-0.13484 -18.75071,-0.056 -27.67138,-0.11416 0,0 0,0 0,0 -3.18286,-0.0207 -6.51121,-0.0534 -9.90299,-0.10415 m 24.5607,-2.78912 c -9.64927,0.24942 -18.862,0.57606 -28.02374,1.78558 -9.16495,1.20994 -18.80662,-0.46517 -27.85888,-1.36417 0,0 -10e-6,0 -10e-6,0 -5.07915,-0.50442 -10.62313,-0.45013 -16.38202,-0.30368 m 17.18432,2.94148 c -9.94094,0.22378 -19.57513,-0.38797 -30.14844,-1.1269 -10.57702,-0.73918 -18.96571,0.63128 -28.32139,1.96084 -9.35567,1.32955 -19.2187,0.30765 -29.07138,0.96083 -1.0907,0.0723 -2.1677,0.12613 -3.23233,0.16417 m 26.26171,-4.32756 c -9.34601,-0.50785 -19.38808,0.22285 -29.58656,0.71136 -10.20205,0.48869 -18.78262,0.13567 -27.78389,0.44834 -9.00126,0.31267 -18.95852,-0.38965 -28.29637,-1.10167 0,0 -10e-6,0 -10e-6,0 -2.8338,-0.21608 -5.72819,-0.30693 -8.6677,-0.33076 m 26.59143,4.05119 c -9.94938,0.25699 -19.7626,-0.48496 -30.71093,-1.41444 0,0 0,0 -1e-5,0 -10.95215,-0.9298 -18.97145,-0.12876 -28.35887,-0.32666 0,0 0,0 0,0 -6.03728,-0.12728 -12.28043,-0.19735 -18.61729,-0.35262 m 17.04651,-1.12479 c -9.62854,-0.12467 -18.94445,0.95146 -28.28627,2.88596 -9.34508,1.93518 -18.93257,-0.54185 -28.20888,-1.57666 0,0 0,-1e-5 0,-1e-5 -6.30824,-0.70371 -12.80082,-0.43233 -19.24867,-0.14041 m 17.15473,1.8126 c -9.28339,0.48149 -19.05898,-0.6406 -28.63663,-1.87717 -8.13933,-1.05087 -16.13789,-0.28839 -24.08827,0.0551 0.0183,-1.36961 0.0382,-2.75238 0.0591,-4.16069 0.0732,-4.94431 -0.0355,-9.88489 -0.24548,-14.74742 m -2.1021,13.39158 c -0.14674,-9.19524 0.66324,-18.0357 2.12028,-25.56147 1.45756,-7.52841 -0.41302,-20.01503 -1.11737,-31.47114 -0.70434,-11.4561 -0.26421,-18.73992 -0.65486,-27.65863 -0.04,-0.91415 -0.0755,-1.83755 -0.1076,-2.76821 m 1.23854,25.63125 c -0.39674,-10.04037 0.0381,-19.13657 0.23304,-28.84809 0,0 0,0 0,0 0.19504,-9.71491 -0.5436,-19.10412 -1.50486,-28.73363 -0.96127,-9.62951 0.18439,-19.15508 0.67013,-28.89613 0,0 0,0 0,0 0.21913,-4.3945 0.0695,-8.63215 -0.30435,-12.77355 m -0.17219,29.3837 c -0.52607,-9.42508 -0.51932,-19.56229 -1.42932,-30.12374 0,0 0,0 0,0 -0.91032,-10.56515 -0.39898,-18.83067 -1.05487,-27.93363 -0.5654,-7.84704 0.35192,-16.09229 1.58409,-23.92998 1.51717,0.0572 3.0424,0.1248 4.57091,0.20616 2.13522,0.11365 4.13134,0.18133 6.02179,0.21595 m -1.26248,-0.52455 c 9.1457,-0.42476 18.45415,-0.0131 26.79927,-0.001 0,0 0,0 10e-6,0 8.34804,0.0121 19.30237,-0.0442 29.33387,-0.0765 10.0315,-0.0323 18.54368,0.044 27.05889,0.19852 4.19073,0.076 8.91592,-0.10876 13.81569,-0.49291 m -27.51369,-1.56574 c 9.69507,0.34451 18.91929,-0.32048 28.1987,-0.90184 9.28266,-0.58156 19.06195,0.39162 28.62138,1.21102 9.55944,0.8194 18.32095,-0.44181 26.39639,-1.27648 2.28508,-0.23619 4.84644,-0.33635 7.58595,-0.35642 m -24.09083,0.63887 c 9.0297,-0.52427 19.1082,0.44679 28.7619,1.38657 0,0 0,0 0,0 9.65709,0.9401 19.64819,-0.56574 30.38388,-1.65148 10.7357,-1.08575 19.00124,0.32766 28.44639,1.04852 2.5177,0.19215 5.00129,0.28377 7.44653,0.31663 m -25.68168,-2.44621 c 9.3711,-0.42443 19.57631,0.45327 30.14904,1.41147 10.57644,0.95852 18.42675,-0.53492 26.72138,-1.53898 0,0 0,0 0,0 8.05615,-0.9752 19.18314,0.0917 29.99923,0.47853 m -22.72662,1.0224 c 9.93196,-0.50418 18.64779,-0.57392 27.39845,-1.67595 0,0 0,0 0,0 8.75372,-1.10241 18.70725,-0.0748 27.54638,-0.16398 8.47623,-0.0855 18.05175,0.63747 26.9234,1.96253 m -20.92441,0.15121 c 9.24176,-0.50783 19.00645,0.15376 28.44918,0.49906 9.44603,0.34541 18.30387,0.21178 26.35888,0.68602 0,0 0,0 0,0 6.00632,0.35362 14.02577,0.30908 22.23697,0.47236 m -18.45194,-3.27795 c 9.72842,-0.45334 19.02079,0.7485 28.51117,2.2865 9.4937,1.53852 18.90569,-1.05012 28.15888,-3.11398 9.25318,-2.06386 19.33928,0.0458 29.45888,0.18602 0,0 0,0 0,0 4.23322,0.0586 8.31482,0.19867 12.37562,0.4545 m -26.10873,2.51293 c 9.64136,-0.0923 19.44343,-0.42576 29.74875,-1.22638 10.30893,-0.80091 18.64944,-0.0415 27.39638,-0.0765 0,0 10e-6,0 10e-6,0 7.31154,-0.0293 15.70588,0.29162 23.82158,0.93355 m -21.46702,0.6709 c 8.35242,-0.43559 17.30274,-0.35792 26.66086,-0.75839 0.11345,1.03412 0.23363,2.06036 0.36013,3.07661 0,0 0,0 0,0 1.11179,8.93169 -0.90969,19.23664 -2.5912,29.14614 -1.44695,8.52718 -0.53589,16.38578 -0.38906,24.30945 m 2.21848,-20.23271 c -0.1091,9.28681 0.3946,18.12448 1.32142,25.82388 0,0 0,0 0,0 0.92714,7.70209 -0.9917,18.96309 -2.8537,28.32114 -1.41897,7.13148 -0.53031,14.83053 0.2536,22.877 m -1.15473,-20.00682 c 0.25277,9.91192 0.39326,19.83772 1.29604,30.94823 0,0 0,0 0,0 0.90309,11.1144 -0.47691,18.49289 -1.3037,26.90864 -0.82679,8.41575 0.29462,19.28713 1.0088,29.29613 0,0 0,1e-5 0,1e-5 0.0937,1.31327 0.14528,2.6035 0.15983,3.87397 M 804.89502,580.498 c -0.0801,9.94494 0.23068,19.47367 0.80888,29.8482 0,0 0,0 0,0 0.57841,10.37816 -0.44034,18.92247 -1.1912,28.19613 -0.0741,0.91527 -0.12629,1.82784 -0.15861,2.737 -8.84031,-0.29676 -16.02397,-0.87835 -23.1181,-2.28872 -0.61306,-0.12188 -1.2458,-0.21922 -1.89589,-0.29423 m 21.45307,2.88212 c -9.30457,-0.0507 -19.60694,-0.2941 -30.26161,-0.83912 -10.6584,-0.5452 -19.38983,-0.10128 -29.60888,-0.23916 -10.21906,-0.13789 -18.20785,0.3449 -26.04638,1.08583 -2.5717,0.24309 -5.53017,0.25885 -8.69712,0.12758 m 27.31787,-0.58317 c -9.45392,-0.19167 -19.04866,0.3115 -28.57395,0.98603 -10e-6,0 -10e-6,0 -10e-6,0 -9.52863,0.67478 -19.93421,0.43195 -31.23388,1.34834 -7.5915,0.61566 -13.26847,0.36657 -18.64867,0.10083 m 20.03164,-1.79156 c -9.25011,-0.12976 -19.05586,-0.38192 -28.58667,-1.08903 0,0 0,0 0,0 -9.53414,-0.70735 -19.64566,-0.32736 -30.38388,-0.92666 -6.02513,-0.33627 -11.35131,-0.23199 -16.61969,0.001 m 17.7721,0.93651 c -9.82854,0.12014 -19.44741,0.10422 -29.77355,0.34821 -1e-5,0 -1e-5,0 -1e-5,0 -10.32976,0.24408 -18.6492,0.53149 -27.38388,1.64833 -8.73467,1.11684 -18.88843,-0.14769 -28.09638,-0.40166 -1.88797,-0.0521 -3.81952,-0.0807 -5.78647,-0.092 m 23.40463,-0.67268 c -9.20432,0.39071 -18.99887,0.39745 -28.43671,1.26043 -9.44115,0.86328 -18.28839,-0.3389 -26.29638,-0.96417 0,0 0,0 0,0 -4.36184,-0.34057 -9.83669,-0.22996 -15.69015,0.0368 m 15.49355,-1.98617 c -9.9617,0.087 -19.54324,0.34148 -30.08592,1.07324 -10.54636,0.73202 -18.15792,0.51106 -25.90887,1.58583 -10e-6,0 -10e-6,0 -10e-6,0 -5.36631,0.74411 -12.52898,0.2705 -19.72937,-0.33139 m 14.55854,-3.35935 c -9.00008,0.39881 -18.37763,0.0892 -26.58693,0.32292 -8.21218,0.23376 -19.32793,0.51239 -29.39638,1.57333 0,0 0,0 0,0 -5.15378,0.54307 -9.98649,0.45729 -14.7167,0.17898 m 13.25228,2.08544 c -9.05465,0.3942 -19.09168,-0.5607 -28.72437,-1.62708 0,0 0,0 -10e-6,0 -9.63606,-1.06675 -18.49587,-0.24915 -26.93387,-0.68916 0,0 0,0 0,0 -6.56878,-0.34255 -14.36407,3.3e-4 -21.85768,0.43907 m 18.19217,-1.34543 c -9.08326,-0.31242 -18.37976,0.11457 -26.56184,0.38617 0,0 0,0 0,0 -8.18495,0.27168 -19.17188,0.31285 -28.93388,0.99833 0,0 0,0 0,0 -2.72255,0.19118 -5.4575,0.2839 -8.22018,0.32404 -0.17762,-3.90935 -0.41743,-7.93658 -0.7709,-11.92779 m 5.78119,10.13715 c -2.04262,-0.0633 -4.04553,-0.079 -6.01945,-0.0546 -0.0992,-7.45541 0.23455,-14.31256 0.38285,-21.00796 0.18675,-8.43089 -0.35269,-19.44558 -0.92986,-29.77113 -0.57718,-10.32555 -0.24383,-18.84291 -0.61737,-27.95863 -0.15473,-3.77589 -0.14025,-7.65657 -0.028,-11.55616 m 0.62917,27.88829 c 0.17353,-9.06336 0.65213,-19.78506 2.09495,-30.78661 0,0 0,0 0,0 1.44333,-11.00541 -0.59848,-19.23888 -1.66737,-29.15863 -0.99869,-9.26837 0.30457,-17.61299 1.41478,-25.99131 m 0.72267,22.94061 c 0.40156,-8.99658 -0.41201,-19.44702 -1.10529,-29.78668 0,0 0,-10e-6 0,-10e-6 -0.69351,-10.34328 -0.2444,-18.77994 -0.60486,-27.75863 -0.20226,-5.03787 -0.0648,-10.2546 0.24712,-15.36194 m -3.17167,14.92759 c 0.27267,-9.12518 -0.32825,-18.95849 -0.86765,-28.29905 -0.15983,-2.76769 -0.17926,-5.54377 -0.0969,-8.31401 6.92888,0.10845 14.43226,0.24982 21.99184,0.61486 9.28691,0.44844 16.87189,0.49569 25.11594,1.16946 m -44.19657,-0.64888 c 9.06754,-0.20417 19.68983,0.19933 30.51185,0.63623 10e-6,0 10e-6,0 10e-6,0 10.82581,0.43705 18.55125,-0.20712 27.09638,-0.56398 8.54513,-0.35686 19.49035,-0.41303 29.88387,-1.17648 1e-5,0 1e-5,0 1e-5,0 1.91791,-0.14088 3.77277,-0.21868 5.58088,-0.24742 m -26.00077,0.68267 c 9.9993,-0.005 19.7766,-0.66537 30.77337,-1.95147 10e-6,0 10e-6,0 10e-6,0 11.00062,-1.28655 18.78894,0.41206 27.79638,1.29852 9.00744,0.88646 18.79481,-0.2913 27.82137,-0.81398 1e-5,0 1e-5,0 1e-5,0 2.40613,-0.13933 4.90996,-0.21443 7.4834,-0.2541 m -26.40567,-0.0372 c 9.7243,0.34468 19.08942,-0.075 28.68617,-0.16434 0,0 0,0 0,0 9.6001,-0.0894 18.19836,0.59354 26.03388,1.81102 0,0 0,0 0,0 3.8501,0.59823 8.71581,0.52531 13.9945,0.22291 m -14.15148,0.92871 c 9.81126,-0.45405 18.54066,-0.26646 27.04857,-0.751 0,0 10e-6,0 10e-6,0 8.51088,-0.4847 19.26508,-0.10222 29.24638,-0.27648 4.86352,-0.0849 9.57869,-0.0992 14.30337,-0.0989 m -13.76564,-2.23626 c 9.24197,0.12862 19.30602,0.24708 29.33667,0.78589 10e-6,0 10e-6,0 10e-6,0 10.03416,0.539 19.22133,0.0252 29.08388,0.14852 5.41244,0.0677 10.62003,0.2221 15.79,0.5359 m -15.97802,-0.41071 c 9.34555,-0.2167 18.7385,0.11541 27.63656,0.41125 8.90117,0.29595 19.09404,0.25154 28.72138,0.81102 0,0 0,0 0,0 8.08695,0.46997 16.25391,0.24839 24.69303,0.36379 m -20.42838,-1.02092 c 9.32862,0.49028 18.30518,-0.0496 26.36158,-0.0895 10e-6,0 10e-6,0 10e-6,0 8.05922,-0.0399 19.45699,0.38429 29.78388,1.21102 10.32688,0.82672 19.3377,-0.46529 29.44637,-1.33898 0,0 1e-5,0 1e-5,0 4.85057,-0.41924 9.26243,-0.52742 13.42881,-0.6072 m -30.14324,0.39842 c 9.74928,-0.0171 19.11151,0.0174 28.77365,0.11103 9.66551,0.0937 18.80066,0.44935 27.84637,1.39852 10e-6,0 10e-6,0 10e-6,0 5.74331,0.60266 11.8912,0.42581 18.08173,0.20902 m -14.67742,-0.0987 c 9.05061,-0.13777 19.26452,-0.0292 29.24938,-0.0388 0,0 0,0 0,0 9.98835,-0.01 18.99431,-0.73491 28.40888,-2.15148 1.53889,-0.23155 3.08251,-0.39288 4.62947,-0.50239 -0.0303,2.61776 -0.0497,5.40442 -0.0663,8.2518 m -8.39799,-6.5833 c 2.065,0.11204 4.1736,0.15904 6.31739,0.15821 0.0411,7.40839 0.50974,14.23569 1.05023,21.21114 0.69579,8.9798 -0.56464,19.26896 -1.5787,29.24614 0,0 0,0 0,0 -0.53571,5.27074 -0.38325,10.17651 0.0303,14.91641 m 0.94763,-14.08484 c 0.39001,9.8905 0.37027,18.95254 1.23339,28.31075 0.86342,9.36149 -0.092,18.59255 -0.1412,27.19614 0,0 0,0 0,0 -0.0405,7.08585 -0.56586,15.98884 -1.57565,25.15791 m -1.63012,-20.88478 c -0.2385,9.07945 -0.25478,18.99134 -0.61595,28.3991 -0.36129,9.41105 0.54926,19.23898 1.7838,29.13363 0,1e-5 0,1e-5 0,1e-5 0.77371,6.20115 0.36814,12.02769 -0.27208,17.75616 m 0.97962,-19.20541 c -0.42134,9.1751 -0.0156,18.97117 0.0717,28.349 0.0732,7.86081 -0.7172,16.0522 -2.12905,24.33316 -1.80952,0.0554 -3.64229,0.11406 -5.49656,0.17438 -5.76292,0.18745 -10.45962,0.13017 -14.82539,-0.0248 m 18.88115,1.16419 c -9.96581,0.16944 -19.46557,-0.77437 -29.84842,-2.26434 -10.38648,-1.49049 -19.15417,0.48177 -28.87137,1.49833 0,0 -10e-6,0 -10e-6,0 -5.93051,0.62042 -11.72991,0.37576 -17.53477,-0.0256 m 16.84208,1.33629 c -9.45793,-0.44117 -18.83446,0.3969 -27.94895,1.2363 -9.11768,0.83969 -18.78291,0.40318 -27.77138,1.27333 0,0 0,0 0,0 -5.08023,0.4918 -10.65062,0.12389 -16.42504,-0.62317 m 14.36256,-3.60187 c -9.05874,0.008 -18.99713,0.31075 -28.42437,0.99833 -9.43054,0.68781 -18.98571,0.14402 -28.39638,0.48583 -9.41067,0.34181 -18.65438,-0.43057 -27.39638,-1.25167 0,0 0,0 0,0 -1.11118,-0.10436 -2.25891,-0.17515 -3.43841,-0.2173 m 26.79951,-0.69575 c -9.46704,0.19098 -19.96669,0.29047 -31.33644,0.91063 0,0 0,0 0,0 -11.37374,0.62038 -18.62734,-0.12478 -27.30888,-0.30166 0,0 0,0 0,0 -4.12338,-0.084 -8.58779,-0.1233 -13.12311,-0.17045 m 11.56241,2.42255 c -9.25439,-0.47448 -19.23288,0.35236 -29.12416,1.09883 0,0 0,0 0,0 -9.89474,0.74672 -18.42338,0.0236 -26.68388,0.13583 -8.2605,0.11226 -19.81449,-0.45628 -30.87138,-1.31416 0,0 0,0 0,0 -0.63446,-0.0492 -1.25848,-0.0917 -1.87292,-0.12785 m 22.65756,-1.55923 c -9.66539,-0.49145 -18.10792,-0.13153 -25.76123,-0.36365 -7.656,-0.2322 -19.24941,0.53627 -29.15888,1.64833 0,0 0,0 0,0 -6.94204,0.77905 -13.82003,0.18229 -21.0326,-0.62226 m 18.76019,-0.49379 c -9.49546,0.31546 -18.97514,-0.13232 -28.37391,-0.352 -9.40206,-0.21975 -18.89773,0.009 -28.12138,0.0733 -9.22366,0.064 -19.2596,0.0424 -29.19638,0.17334 0,0 0,0 0,0 -1.67061,0.022 -3.3167,0.0228 -4.94416,0.005 m 25.59049,-1.51877 c -9.61987,0.0501 -18.43929,1.00071 -26.74878,3.03578 0,0 0,0 0,0 -8.3124,2.03579 -18.93183,-0.22319 -28.22138,-0.63916 0,0 0,0 0,0 -5.3266,-0.23852 -10.88892,-0.3079 -16.5577,-0.43618 m 12.85085,1.57338 c -9.73221,-0.005 -18.49467,-0.82649 -26.93616,-2.42666 0,0 0,0 0,0 -8.44444,-1.60073 -18.90708,-0.098 -28.13388,-0.22666 0,0 0,0 0,0 -2.9229,-0.0408 -5.92801,-0.0371 -8.98738,1.5e-4 -0.121,-6.41476 -0.49439,-12.6737 -0.8398,-18.88679 -0.1866,-3.35655 -0.23473,-6.82063 -0.21352,-10.3267 m 0.94246,26.83512 c 0.47271,-9.88627 0.24038,-18.84589 0.84463,-27.96075 0,0 0,-10e-6 0,-10e-6 0.60446,-9.11805 -0.22295,-18.97257 -0.52987,-28.34612 0,0 0,-10e-6 0,-10e-6 -0.24145,-7.37397 0.18278,-14.83475 0.89,-22.15944 m -1.66794,20.24623 c 0.23966,-9.22098 0.0641,-19.1573 0.33238,-28.92395 0,0 0,0 0,0 0.26833,-9.77007 -0.30611,-18.76787 -0.79237,-27.73363 -0.48627,-8.96575 -0.27309,-19.20091 -0.67987,-29.03363 0,0 0,0 0,0 -0.18352,-4.43585 -0.26268,-8.84432 -0.33713,-13.31162 m 0.3608,30.23458 c -0.31808,-9.12546 -0.50615,-19.36874 -1.37953,-29.56155 0,0 0,0 0,0 -0.87368,-10.19637 -0.33075,-19.34383 -0.84237,-29.44612 0,-10e-6 0,-10e-6 0,-10e-6 -0.29545,-5.83406 -0.23492,-11.13395 -0.0923,-16.23081 m 2.10364,18.33396 c -0.15927,-9.29988 0.57193,-18.96962 1.8328,-28.33636 0.0782,-0.58094 0.14606,-1.16468 0.20449,-1.75112 9.858,0.045 17.56031,-0.52534 26.32492,-1.31858 9.34392,-0.84567 18.40999,0.13913 26.64638,0.47352 0,0 0,0 0,0 3.91839,0.15909 8.50564,0.1437 13.34547,0.0691 m -63.10088,-3.66631 c 9.72478,-0.32074 19.77234,0.0408 30.77367,0.16136 0,0 0,0 0,0 11.00518,0.12055 18.29627,0.0509 26.32138,0.19852 7.03732,0.12946 16.81714,-0.11812 26.31967,-0.41295 m -20.99201,0.79193 c 9.4085,0.0907 19.53073,-0.4105 30.0115,-1.17657 10.48445,-0.76635 18.98389,-0.0611 28.37139,-0.13898 9.38749,-0.0779 18.55347,0.35147 27.08388,1.12352 0.45449,0.0411 0.91515,0.078 1.3815,0.11084 m -21.73463,-0.72278 c 9.49953,-0.32442 18.85438,0.7329 28.0114,2.23636 0,0 0,0 10e-6,0 9.16022,1.50398 19.36155,0.0606 29.49637,0.22352 10.13482,0.16293 18.28578,-0.23335 26.29638,-0.63898 0,0 0,0 1e-5,0 0.82107,-0.0416 1.6744,-0.0733 2.55508,-0.0963 m -23.59411,-0.0163 c 9.2753,0.2241 19.39064,-0.0172 29.59914,-0.002 10.21208,0.0155 19.10192,-1.01082 28.72138,-3.00148 0,0 0,0 0,0 4.37158,-0.90466 8.65546,-0.80386 12.87974,-0.25462 m -14.30745,2.87025 c 9.24607,-0.0671 19.22445,-0.0471 29.09917,-0.0889 9.87818,-0.0418 18.72516,0.5936 27.60888,1.83602 8.88372,1.24242 19.90725,-0.4551 31.13388,-1.32648 0,0 0,0 0,0 3.22282,-0.25014 6.14224,-0.38547 8.87948,-0.46701 m -29.34519,-0.91235 c 9.46245,0.22464 19.35601,0.74717 29.49894,2.29829 0,0 0,0 0,0 10.14648,1.55166 18.9552,-0.91174 28.29638,-2.68898 7.84658,-1.49288 16.00762,-0.49758 24.15615,-0.13247 m -19.41637,-0.72499 c 9.45778,0.17419 18.62597,-0.006 27.31145,0.0233 8.68852,0.0289 19.74109,0.42846 30.65888,1.34852 10.9178,0.92006 18.21406,-0.53654 26.08389,-1.56398 2.9693,-0.38765 6.40244,-0.51517 10.03286,-0.54578 m -26.18084,2.28911 c 9.15012,-0.0794 18.82453,0.19852 27.89927,0.63611 0,0 0,0 10e-6,0 9.07792,0.43774 19.02563,-0.48106 28.49637,-1.40148 9.47075,-0.92042 19.50124,0.46547 29.93388,1.46102 0,0 0,0 10e-6,0 4.15022,0.39604 8.03643,0.41167 11.8296,0.23722 m -29.11844,-2.10685 c 10.04437,-0.0918 18.78624,0.30564 27.78584,0.96112 2.64938,0.19297 5.36139,0.25412 8.09636,0.23532 -0.19275,6.68805 -0.25346,12.91633 -0.72901,19.40007 -0.31177,4.25063 -0.31131,8.58228 -0.18758,12.89326 m 3.54459,-14.5725 c -0.35512,9.58693 -0.48995,19.04326 -1.32833,28.57357 0,0 0,0 0,0 -0.83867,9.53365 0.10028,18.63189 0.4338,27.30864 0.33353,8.67675 -0.81097,19.19486 -2.3037,29.00863 0,0 0,10e-6 0,10e-6 -0.41627,2.73672 -0.54945,5.45494 -0.49407,8.17349 m 0.95129,-24.07848 c -0.48776,9.99037 0.17427,19.01684 0.64681,28.49814 0,0 0,0 0,0 0.47271,9.48462 -0.27245,19.28801 -0.7037,29.28364 -0.43124,9.99563 0.0102,18.96003 0.1713,28.29614 0.0277,1.60791 0.0333,3.23007 0.0197,4.86352 m -0.51862,-26.25593 c -0.29686,9.84936 -0.447,19.59584 -1.21589,30.21079 -0.76916,10.61867 0.36111,18.47271 1.2213,26.84614 0,0 0,0 0,0 0.3914,3.81006 0.32984,8.23155 0.0701,12.93982 -0.90132,0.0723 -1.81033,0.15576 -2.7251,0.24787 m 3.43146,-11.27917 c 0.0285,4.38222 0.038,8.82257 0.0601,13.28898 -5.04153,0.0319 -10.06648,0.0983 -15.02705,0.15029 -9.28191,0.0974 -19.39661,-0.11606 -29.63388,-0.31417 0,0 0,0 0,0 -7.67554,-0.14853 -14.70967,-0.3772 -21.99595,-0.91453 m 18.23685,-0.16552 c -9.31712,0.18255 -19.71067,0.12689 -30.56159,0.43564 -10.85472,0.30886 -18.36807,-0.47645 -26.54638,-1.38916 0,0 0,0 0,0 -7.94317,-0.88648 -18.28196,0.29843 -27.31061,1.10295 m 22.27579,-0.32662 c -9.66165,-0.0879 -18.70517,-0.0519 -27.53624,-0.10157 -8.83415,-0.0497 -19.69448,0.31918 -30.52137,1.02333 0,0 -10e-6,0 -10e-6,0 -9.8939,0.64347 -17.59195,-0.44913 -26.06401,-1.6198 m 19.70493,0.85965 c -9.56206,-0.52061 -19.05001,-0.18933 -28.57384,-0.52612 -9.52715,-0.33691 -18.67308,-0.20327 -27.45887,-0.55167 -1e-5,0 -1e-5,0 -1e-5,0 -6.15485,-0.24407 -13.23324,-0.075 -20.47655,0.16962 m 18.96679,-0.0489 c -9.3624,-0.33736 -19.02507,0.15477 -28.49905,0.49869 0,0 -10e-6,0 -10e-6,0 -9.4773,0.34403 -19.29306,0.57433 -29.30887,1.77333 -10.01582,1.199 -18.88526,-0.91828 -28.07138,-2.71416 0,0 0,0 -10e-6,0 -2.41098,-0.47135 -4.87218,-0.65421 -7.36532,-0.64491 m 23.38919,-0.49687 c -9.74058,-0.34587 -18.57181,-0.11344 -27.14865,-0.28881 -8.57984,-0.17542 -19.09137,0.51137 -28.69638,1.57334 -9.60501,1.06196 -19.18206,0.0695 -28.95888,0.24833 0,0 0,0 0,0 -3.68883,0.0675 -7.28838,0.0933 -10.83946,0.10982 m 27.5995,-1.84083 c -9.5622,0.44482 -19.25084,0.45338 -29.18634,1.39787 -9.93898,0.94482 -18.52211,-0.081 -26.98388,-0.20167 -8.46177,-0.12065 -19.47475,-0.3489 -29.84638,-1.00166 -4.55135,-0.28645 -8.80032,-0.35771 -12.96279,-0.37504 m 31.02995,0.94223 c -9.0342,-0.009 -19.59782,0.53282 -30.24939,1.66085 -10.6553,1.12842 -19.0253,-0.25297 -28.48388,-0.71417 0,0 0,0 0,0 -6.74255,-0.32877 -13.26271,-0.0694 -19.49114,0.30164 m 18.65579,0.28174 c -9.00852,0.10321 -18.55055,-0.3148 -27.07442,-0.87677 -8.41789,-0.55499 -18.88558,0.0415 -28.51053,0.20471 -0.003,-0.11938 -0.007,-0.23883 -0.01,-0.35835 -0.24644,-9.3528 -0.62939,-19.72642 -1.75487,-30.59613 0,0 0,-10e-6 0,-10e-6 -0.36002,-3.47701 -0.51356,-6.62451 -0.56683,-9.57418 m 1.47333,27.50758 c 0.31412,-9.96105 -0.52501,-18.72294 -1.4427,-27.59817 0,0 0,0 0,0 -0.91802,-8.87833 -0.17431,-18.78216 -0.37987,-27.75863 -0.20557,-8.97648 0.85486,-18.72781 2.70763,-27.62113 0,0 0,0 0,0 0.41028,-1.96937 0.6219,-4.03544 0.69652,-6.17758 m 0.24,26.35958 c -0.25172,-9.60371 -0.76867,-19.24665 -2.19211,-29.18605 0,0 0,0 0,0 -1.42393,-9.94288 -0.13533,-19.58927 -0.27986,-30.18363 -0.14454,-10.59436 0.7142,-18.24756 2.27013,-26.15863 0,0 0,0 0,0 0.23606,-1.20025 0.38719,-2.48641 0.47018,-3.84164 m -0.81693,22.20321 c -0.13069,-9.08815 -0.18294,-19.53962 -0.41723,-30.06159 -0.23437,-10.52566 -0.2062,-18.75311 -0.49237,-27.67113 0,0 0,0 0,-10e-6 -0.19471,-6.06764 0.009,-12.56157 0.38182,-18.91233 3.23251,0.0551 6.50229,0.14179 9.78555,0.31908"
       style="fill:none;stroke:#000000;stroke-width:0.80000001;stroke-miterlimit:4;stroke-opacity:1;stroke-dashoffset:0" />
    <text
       sodipodi:linespacing="125%"
       id="text3887"
       y="614.26447"
       x="263.71811"
       style="font-size:83.83319855px;font-style:normal;font-weight:normal;line-height:125%;letter-spacing:0px;word-spacing:0px;fill:#000000;fill-opacity:1;stroke:none;font-family:Sans"
       xml:space="preserve"><tspan
         style="font-style:normal;font-variant:normal;font-weight:normal;font-stretch:normal;font-family:Sketch Block;-inkscape-font-specification:Sketch Block"
         y="614.26447"
         x="263.71811"
         id="tspan3889"
         sodipodi:role="line">user</tspan></text>
    <path
       style="fill:none;stroke:#000000;stroke-width:1.39999998;stroke-linecap:butt;stroke-linejoin:miter;stroke-miterlimit:4;stroke-opacity:1;stroke-dasharray:16.8, 16.8;stroke-dashoffset:0;marker-end:url(#Arrow1Lend)"
       d="m 540.60939,446.94028 c -5.8e-4,3e-4 -0.004,0.002 -0.0113,0.006 -0.007,0.004 -0.0181,0.01 -0.0323,0.017 -0.0285,0.0151 -0.0708,0.0375 -0.12648,0.0674 -0.11132,0.0596 -0.27608,0.14873 -0.49074,0.26697 -0.42931,0.23648 -1.05822,0.58958 -1.85871,1.05722 -1.60098,0.93527 -3.88833,2.32873 -6.63901,4.16426 -5.50136,3.67105 -12.86087,9.11375 -20.26153,16.17486 -7.40066,7.06111 -14.83998,15.73881 -20.44887,25.84346 -4.76038,8.57601 -8.20123,18.17965 -9.17347,28.68722 0,0 0,0 0,0 -3e-4,0.003 -6.1e-4,0.007 -9.2e-4,0.01 m 0.46889,-1.84379 c -0.1474,1.86183 -0.21951,3.75361 -0.21001,5.67469 0.0394,7.96731 2.15775,15.88357 5.30368,23.2746 3.14593,7.39104 7.31845,14.25685 11.48084,20.12383 8.31797,11.7244 16.60755,19.45319 16.6331,19.47696 m 24.14009,-144.66462 c -5.9e-4,2.9e-4 -0.004,0.002 -0.0115,0.006 -0.007,0.004 -0.0185,0.009 -0.033,0.017 -0.0291,0.015 -0.0722,0.0373 -0.12899,0.0669 -0.11354,0.0593 -0.28156,0.14783 -0.5004,0.26539 -0.43767,0.23513 -1.07862,0.58631 -1.89327,1.05182 -1.62932,0.93102 -3.95342,2.31941 -6.73474,4.15267 -5.56265,3.66653 -12.94936,9.11807 -20.29227,16.21802 -7.3429,7.09996 -14.64451,15.84548 -20.0892,26.04008 -4.621,8.65236 -7.90548,18.34704 -8.74951,28.95878 0,0 0,0 0,0 -2.7e-4,0.003 -5.4e-4,0.007 -8e-4,0.0101 m 0.54675,0.35142 c -0.17304,1.86096 -0.26584,3.75166 -0.27198,5.67144 -0.0255,7.96193 2.11906,15.86925 5.36494,23.24687 3.24588,7.37762 7.5944,14.22531 11.95778,20.07179 8.71964,11.68343 17.48948,19.36077 17.51643,19.38438 m 23.20256,-145.19199 c -5.8e-4,3.1e-4 -0.004,0.002 -0.0114,0.006 -0.007,0.004 -0.0184,0.01 -0.0329,0.0175 -0.029,0.0155 -0.072,0.0385 -0.12864,0.0691 -0.11323,0.0612 -0.28079,0.15257 -0.49902,0.27372 -0.43645,0.24229 -1.07558,0.60368 -1.8878,1.0807 -1.62444,0.95404 -3.94125,2.37057 -6.7121,4.2197 -5.54171,3.69827 -12.89501,9.12203 -20.18063,16.05922 -7.28561,6.93718 -14.50585,15.3902 -19.83308,25.20243 -4.52132,8.32783 -7.68187,17.6385 -8.3582,27.82446 0,0 0,0 0,0 -2.1e-4,0.003 -4.3e-4,0.006 -6.4e-4,0.01 m -0.15643,0.12534 c -0.15355,1.87518 -0.23001,3.77975 -0.22299,5.71322 0.0291,8.01867 2.17008,15.97613 5.36741,23.40788 3.19734,7.43176 7.45102,14.33816 11.70518,20.24922 8.50136,11.81248 17.01135,19.65425 17.03755,19.67838"
       id="path3891"
       inkscape:connector-curvature="0"
       sodipodi:nodetypes="csc"
       inkscape:path-effect="#path-effect3895"
       inkscape:original-d="m 540,445.36218 c 0,0 -59,30.91184 -59,82 0,32 34,63 34,63" />
  </g>
</svg>
