<?xml version="1.0" encoding="UTF-8" standalone="no"?>
<!-- Created with Inkscape (http://www.inkscape.org/) -->

<svg
   xmlns:dc="http://purl.org/dc/elements/1.1/"
   xmlns:cc="http://creativecommons.org/ns#"
   xmlns:rdf="http://www.w3.org/1999/02/22-rdf-syntax-ns#"
   xmlns:svg="http://www.w3.org/2000/svg"
   xmlns="http://www.w3.org/2000/svg"
   xmlns:sodipodi="http://sodipodi.sourceforge.net/DTD/sodipodi-0.dtd"
   xmlns:inkscape="http://www.inkscape.org/namespaces/inkscape"
   width="1052.3622"
   height="744.09448"
   id="svg2"
   version="1.1"
   inkscape:version="0.48.4 r9939"
   sodipodi:docname="reactors-5.svg">
  <defs
     id="defs4">
    <inkscape:path-effect
       effect="sketch"
       id="path-effect8065"
       is_visible="true"
       nbiter_approxstrokes="8"
       strokelength="100"
       strokelength_rdm="0.1;1"
       strokeoverlap="0.5"
       strokeoverlap_rdm="1;1"
       ends_tolerance="0.2;1"
       parallel_offset="0.5;1"
       tremble_size="0.4;1"
       tremble_frequency="2.5"
       nbtangents="5"
       tgt_places_rdmness="1;1"
       tgtscale="10"
       tgtlength="2"
       tgtlength_rdm="0.3;1" />
    <inkscape:path-effect
       effect="sketch"
       id="path-effect8063"
       is_visible="true"
       nbiter_approxstrokes="6"
       strokelength="100"
       strokelength_rdm="0.3;1"
       strokeoverlap="0.3"
       strokeoverlap_rdm="0.6;1"
       ends_tolerance="0.2;1"
       parallel_offset="0.3;1"
       tremble_size="0.3;1"
       tremble_frequency="1"
       nbtangents="5"
       tgt_places_rdmness="1;1"
       tgtscale="10"
       tgtlength="3"
       tgtlength_rdm="0.3;1" />
    <inkscape:path-effect
       effect="sketch"
       id="path-effect8061"
       is_visible="true"
       nbiter_approxstrokes="5"
       strokelength="100"
       strokelength_rdm="0.2;1"
       strokeoverlap="0.2"
       strokeoverlap_rdm="0;1"
       ends_tolerance="0;1"
       parallel_offset="0.3;1"
       tremble_size="0.3;1"
       tremble_frequency="1"
       nbtangents="5"
       tgt_places_rdmness="1;1"
       tgtscale="10"
       tgtlength="3"
       tgtlength_rdm="0.3;1" />
    <inkscape:path-effect
       effect="sketch"
       id="path-effect7956"
       is_visible="true"
       nbiter_approxstrokes="5"
       strokelength="65"
       strokelength_rdm="0;1"
       strokeoverlap="0"
       strokeoverlap_rdm="0;1"
       ends_tolerance="0;1"
       parallel_offset="3;1"
       tremble_size="3;1"
       tremble_frequency="2"
       nbtangents="5"
       tgt_places_rdmness="1;1"
       tgtscale="10"
       tgtlength="2"
       tgtlength_rdm="0.3;1" />
    <inkscape:path-effect
       effect="bend_path"
       id="path-effect7954"
       is_visible="true"
       bendpath="m 386.76948,684.91173 1,0"
       prop_scale="1"
       scale_y_rel="false"
       vertical="false" />
    <marker
       inkscape:stockid="Arrow2Mend"
       orient="auto"
       refY="0.0"
       refX="0.0"
       id="Arrow2Mend"
       style="overflow:visible;">
      <path
         id="path3849"
         style="fill-rule:evenodd;stroke-width:0.62500000;stroke-linejoin:round;"
         d="M 8.7185878,4.0337352 L -2.2072895,0.016013256 L 8.7185884,-4.0017078 C 6.9730900,-1.6296469 6.9831476,1.6157441 8.7185878,4.0337352 z "
         transform="scale(0.6) rotate(180) translate(0,0)" />
    </marker>
    <marker
       inkscape:stockid="Arrow2Mend"
       orient="auto"
       refY="0"
       refX="0"
       id="Arrow2Mend-1"
       style="overflow:visible">
      <path
         inkscape:connector-curvature="0"
         id="path3849-9"
         style="fill-rule:evenodd;stroke-width:0.625;stroke-linejoin:round"
         d="M 8.7185878,4.0337352 -2.2072895,0.01601326 8.7185884,-4.0017078 c -1.7454984,2.3720609 -1.7354408,5.6174519 -6e-7,8.035443 z"
         transform="scale(-0.6,-0.6)" />
    </marker>
    <marker
       inkscape:stockid="Arrow2Mend"
       orient="auto"
       refY="0"
       refX="0"
       id="marker4480"
       style="overflow:visible">
      <path
         inkscape:connector-curvature="0"
         id="path4482"
         style="fill-rule:evenodd;stroke-width:0.625;stroke-linejoin:round"
         d="M 8.7185878,4.0337352 -2.2072895,0.01601326 8.7185884,-4.0017078 c -1.7454984,2.3720609 -1.7354408,5.6174519 -6e-7,8.035443 z"
         transform="scale(-0.6,-0.6)" />
    </marker>
    <marker
       inkscape:stockid="Arrow2Mend"
       orient="auto"
       refY="0"
       refX="0"
       id="marker4484"
       style="overflow:visible">
      <path
         inkscape:connector-curvature="0"
         id="path4486"
         style="fill-rule:evenodd;stroke-width:0.625;stroke-linejoin:round"
         d="M 8.7185878,4.0337352 -2.2072895,0.01601326 8.7185884,-4.0017078 c -1.7454984,2.3720609 -1.7354408,5.6174519 -6e-7,8.035443 z"
         transform="scale(-0.6,-0.6)" />
    </marker>
    <marker
       inkscape:stockid="Arrow2Mend"
       orient="auto"
       refY="0"
       refX="0"
       id="marker4488"
       style="overflow:visible">
      <path
         inkscape:connector-curvature="0"
         id="path4490"
         style="fill-rule:evenodd;stroke-width:0.625;stroke-linejoin:round"
         d="M 8.7185878,4.0337352 -2.2072895,0.01601326 8.7185884,-4.0017078 c -1.7454984,2.3720609 -1.7354408,5.6174519 -6e-7,8.035443 z"
         transform="scale(-0.6,-0.6)" />
    </marker>
    <marker
       inkscape:stockid="Arrow2Mend"
       orient="auto"
       refY="0"
       refX="0"
       id="marker4492"
       style="overflow:visible">
      <path
         inkscape:connector-curvature="0"
         id="path4494"
         style="fill-rule:evenodd;stroke-width:0.625;stroke-linejoin:round"
         d="M 8.7185878,4.0337352 -2.2072895,0.01601326 8.7185884,-4.0017078 c -1.7454984,2.3720609 -1.7354408,5.6174519 -6e-7,8.035443 z"
         transform="scale(-0.6,-0.6)" />
    </marker>
    <marker
       inkscape:stockid="Arrow2Mend"
       orient="auto"
       refY="0"
       refX="0"
       id="marker4496"
       style="overflow:visible">
      <path
         inkscape:connector-curvature="0"
         id="path4498"
         style="fill-rule:evenodd;stroke-width:0.625;stroke-linejoin:round"
         d="M 8.7185878,4.0337352 -2.2072895,0.01601326 8.7185884,-4.0017078 c -1.7454984,2.3720609 -1.7354408,5.6174519 -6e-7,8.035443 z"
         transform="scale(-0.6,-0.6)" />
    </marker>
    <inkscape:path-effect
       effect="sketch"
       id="path-effect5535"
       is_visible="true"
       nbiter_approxstrokes="5"
       strokelength="100"
       strokelength_rdm="0.3;1"
       strokeoverlap="0.3"
       strokeoverlap_rdm="0.3;1"
       ends_tolerance="0;1"
       parallel_offset="3;1"
       tremble_size="3;1"
       tremble_frequency="1"
       nbtangents="5"
       tgt_places_rdmness="1;1"
       tgtscale="10"
       tgtlength="4"
       tgtlength_rdm="0.3;1" />
    <inkscape:path-effect
       effect="sketch"
       id="path-effect6368"
       is_visible="true"
       nbiter_approxstrokes="5"
       strokelength="50"
       strokelength_rdm="0.2;1"
       strokeoverlap="0.2"
       strokeoverlap_rdm="0.2;1"
       ends_tolerance="0;1"
       parallel_offset="2;1"
       tremble_size="2;1"
       tremble_frequency="2.5"
       nbtangents="5"
       tgt_places_rdmness="1;1"
       tgtscale="10"
       tgtlength="2"
       tgtlength_rdm="0.2;1" />
    <inkscape:path-effect
       tgtlength_rdm="0.2;1"
       tgtlength="2"
       tgtscale="10"
       tgt_places_rdmness="1;1"
       nbtangents="5"
       tremble_frequency="2.5"
       tremble_size="1.4;1"
       parallel_offset="1.3;1"
       ends_tolerance="0;1"
       strokeoverlap_rdm="0.2;1"
       strokeoverlap="0.2"
       strokelength_rdm="0.2;1"
       strokelength="50"
       nbiter_approxstrokes="3"
       is_visible="true"
       id="path-effect6372"
       effect="sketch" />
    <inkscape:path-effect
       effect="sketch"
       id="path-effect6376"
       is_visible="true"
       nbiter_approxstrokes="4"
       strokelength="56"
       strokelength_rdm="0.2;1"
       strokeoverlap="0.2"
       strokeoverlap_rdm="0.2;1"
       ends_tolerance="0;1"
       parallel_offset="1.7;1"
       tremble_size="1.7;1"
       tremble_frequency="2.5"
       nbtangents="5"
       tgt_places_rdmness="1;1"
       tgtscale="10"
       tgtlength="2"
       tgtlength_rdm="0.2;1" />
    <inkscape:path-effect
       effect="sketch"
       id="path-effect7780"
       is_visible="true"
       nbiter_approxstrokes="5"
       strokelength="50"
       strokelength_rdm="0.2;1"
       strokeoverlap="0.2"
       strokeoverlap_rdm="0.2;1"
       ends_tolerance="0;1"
       parallel_offset="2;1"
       tremble_size="2;1"
       tremble_frequency="2.5"
       nbtangents="5"
       tgt_places_rdmness="1;1"
       tgtscale="10"
       tgtlength="2"
       tgtlength_rdm="0.2;1" />
    <inkscape:path-effect
       tgtlength_rdm="0.2;1"
       tgtlength="2"
       tgtscale="10"
       tgt_places_rdmness="1;1"
       nbtangents="5"
       tremble_frequency="2.5"
       tremble_size="1.4;1"
       parallel_offset="1.3;1"
       ends_tolerance="0;1"
       strokeoverlap_rdm="0.2;1"
       strokeoverlap="0.2"
       strokelength_rdm="0.2;1"
       strokelength="50"
       nbiter_approxstrokes="3"
       is_visible="true"
       id="path-effect7782"
       effect="sketch" />
    <inkscape:path-effect
       effect="sketch"
       id="path-effect7784"
       is_visible="true"
       nbiter_approxstrokes="4"
       strokelength="56"
       strokelength_rdm="0.2;1"
       strokeoverlap="0.2"
       strokeoverlap_rdm="0.2;1"
       ends_tolerance="0;1"
       parallel_offset="1.7;1"
       tremble_size="1.7;1"
       tremble_frequency="2.5"
       nbtangents="5"
       tgt_places_rdmness="1;1"
       tgtscale="10"
       tgtlength="2"
       tgtlength_rdm="0.2;1" />
    <inkscape:path-effect
       effect="sketch"
       id="path-effect7786"
       is_visible="true"
       nbiter_approxstrokes="5"
       strokelength="50"
       strokelength_rdm="0.2;1"
       strokeoverlap="0.2"
       strokeoverlap_rdm="0.2;1"
       ends_tolerance="0;1"
       parallel_offset="2;1"
       tremble_size="2;1"
       tremble_frequency="2.5"
       nbtangents="5"
       tgt_places_rdmness="1;1"
       tgtscale="10"
       tgtlength="2"
       tgtlength_rdm="0.2;1" />
    <inkscape:path-effect
       tgtlength_rdm="0.2;1"
       tgtlength="2"
       tgtscale="10"
       tgt_places_rdmness="1;1"
       nbtangents="5"
       tremble_frequency="2.5"
       tremble_size="1.4;1"
       parallel_offset="1.3;1"
       ends_tolerance="0;1"
       strokeoverlap_rdm="0.2;1"
       strokeoverlap="0.2"
       strokelength_rdm="0.2;1"
       strokelength="50"
       nbiter_approxstrokes="3"
       is_visible="true"
       id="path-effect7788"
       effect="sketch" />
    <inkscape:path-effect
       effect="sketch"
       id="path-effect7790"
       is_visible="true"
       nbiter_approxstrokes="4"
       strokelength="56"
       strokelength_rdm="0.2;1"
       strokeoverlap="0.2"
       strokeoverlap_rdm="0.2;1"
       ends_tolerance="0;1"
       parallel_offset="1.7;1"
       tremble_size="1.7;1"
       tremble_frequency="2.5"
       nbtangents="5"
       tgt_places_rdmness="1;1"
       tgtscale="10"
       tgtlength="2"
       tgtlength_rdm="0.2;1" />
    <inkscape:path-effect
       effect="sketch"
       id="path-effect6405"
       is_visible="true"
       nbiter_approxstrokes="8"
       strokelength="100"
       strokelength_rdm="0.3;1"
       strokeoverlap="0.3"
       strokeoverlap_rdm="0.5;1"
       ends_tolerance="0.2;1"
       parallel_offset="0.5;1"
       tremble_size="0.4;1"
       tremble_frequency="1"
       nbtangents="5"
       tgt_places_rdmness="1;1"
       tgtscale="10"
       tgtlength="2"
       tgtlength_rdm="0.3;1" />
    <inkscape:path-effect
       effect="sketch"
       id="path-effect6401"
       is_visible="true"
       nbiter_approxstrokes="8"
       strokelength="100"
       strokelength_rdm="0.3;1"
       strokeoverlap="0.3"
       strokeoverlap_rdm="0.8;1"
       ends_tolerance="0.3;1"
       parallel_offset="0.3;1"
       tremble_size="0.3;1"
       tremble_frequency="1"
       nbtangents="5"
       tgt_places_rdmness="1;1"
       tgtscale="10"
       tgtlength="3"
       tgtlength_rdm="0.3;1" />
    <inkscape:path-effect
       effect="sketch"
       id="path-effect6399"
       is_visible="true"
       nbiter_approxstrokes="5"
       strokelength="100"
       strokelength_rdm="0.4;1"
       strokeoverlap="0.3"
       strokeoverlap_rdm="0.3;1"
       ends_tolerance="0;1"
       parallel_offset="0.3;1"
       tremble_size="0.3;1"
       tremble_frequency="1"
       nbtangents="5"
       tgt_places_rdmness="1;1"
       tgtscale="10"
       tgtlength="2"
       tgtlength_rdm="0.3;1" />
  </defs>
  <sodipodi:namedview
     id="base"
     pagecolor="#ffffff"
     bordercolor="#666666"
     borderopacity="1.0"
     inkscape:pageopacity="0.0"
     inkscape:pageshadow="2"
     inkscape:zoom="0.7"
     inkscape:cx="693.32777"
     inkscape:cy="269.76658"
     inkscape:document-units="px"
     inkscape:current-layer="layer1"
     showgrid="false"
     inkscape:window-width="3436"
     inkscape:window-height="1388"
     inkscape:window-x="1680"
     inkscape:window-y="32"
     inkscape:window-maximized="0"
     showguides="true"
     inkscape:guide-bbox="true" />
  <metadata
     id="metadata7">
    <rdf:RDF>
      <cc:Work
         rdf:about="">
        <dc:format>image/svg+xml</dc:format>
        <dc:type
           rdf:resource="http://purl.org/dc/dcmitype/StillImage" />
        <dc:title />
      </cc:Work>
    </rdf:RDF>
  </metadata>
  <g
     inkscape:label="Layer 1"
     inkscape:groupmode="layer"
     id="layer1"
     transform="translate(0,-308.2677)">
    <path
       style="fill:none;stroke:#000000;stroke-width:1.29999995;stroke-linecap:butt;stroke-linejoin:miter;stroke-miterlimit:4;stroke-opacity:1;stroke-dasharray:31.2, 31.2;stroke-dashoffset:0"
       d="m 388.59842,327.02953 c 0.88128,10.15916 -0.28141,21.66793 -0.868,32.46718 0,0 0,0 0,0 -0.58678,10.80257 -0.49832,21.1615 -1.47657,31 -3e-4,0.003 -6e-4,0.006 -9e-4,0.009 m 0.14073,-4.66346 c -0.86575,10.48625 0.17508,20.80909 0.5633,29.9825 0.38834,9.17624 0.33437,22.16137 0.96094,33.95312 0,1e-5 0,1e-5 0,1e-5 1.9e-4,0.004 3.8e-4,0.007 5.8e-4,0.0109 m -2.4152,3.49085 c -0.59982,10.33827 1.3235,21.1801 4.00837,31.01389 2.68569,9.83682 -1.16586,23.03469 -3.46875,36.57812 0,0 0,10e-6 0,10e-6 -7.1e-4,0.004 -0.001,0.008 -0.002,0.0125 m -0.16248,-2.29937 c -0.5844,10.83762 1.02352,21.37484 3.04742,31.6228 2.02452,10.25113 0.19375,22.21054 0.5625,34.14063 0,0 0,0 0,0 1.1e-4,0.004 2.3e-4,0.007 3.4e-4,0.011 m -1.68734,-0.61004 c 0.53804,11.20394 -0.30259,20.8666 -0.86769,30.07559 -0.56527,9.21182 -0.32644,21.04803 -0.96093,30.60156 0,0 0,0 -10e-6,0 -1.9e-4,0.003 -3.9e-4,0.006 -5.8e-4,0.009 m 3.30618,4.4077 c 0.98288,11.11853 0.0285,21.5154 0.046,32.02098 0.0174,10.50882 -0.93847,20.82316 -2.85938,29.94531 0,10e-6 0,10e-6 0,10e-6 -5.9e-4,0.003 -0.001,0.006 -0.002,0.008 m -2.13034,0.91581 c 0.75711,11.01841 0.75386,23.59721 2.27274,38.32577 1.51935,14.73309 0.39447,19.88481 1.21875,27.10937 0,0 0,0 0,0 2.5e-4,0.002 5e-4,0.004 7.6e-4,0.007 m 0.16341,0.35439 c 0.11652,10.28395 -0.7876,21.62696 -2.32042,32.42019 -1.5333,10.79655 0.29171,21.12844 0.89062,30.85937 0,10e-6 0,10e-6 0,10e-6 1.9e-4,0.003 3.7e-4,0.006 5.6e-4,0.009 m -0.0471,1.64202 c 0.39004,11.24263 0.0247,20.3653 0.0934,28.57556 0.0688,8.21278 -0.52248,21.86149 -1.57031,33.0625 0,0 0,0 -10e-6,0 -3.2e-4,0.003 -6.4e-4,0.007 -9.6e-4,0.0103 m -0.70206,1.96858 c 0.10993,11.00908 1.16662,21.12465 3.53896,30.89608 2.37307,9.77444 -1.11454,21.98794 -3.375,33.48437 0,0 0,0 0,0 -6.9e-4,0.004 -0.001,0.007 -0.002,0.0106 m -0.48986,1.96792 c 0.26512,10.59556 -0.16369,20.97264 -0.49243,30.40432 -0.32885,9.4345 -0.19639,20.7609 -0.5625,29.8281 0,0 0,0 0,0 -1.2e-4,0 -2.3e-4,0.01 -3.4e-4,0.01 m -0.98399,4.3372 c 0.006,1.2265 0.0139,2.4367 0.022,3.6293 m 2.69641,-712.79324 c -0.36631,10.61935 0.5069,21.59766 1.50034,32.3027 0,0 0,0 0,0 0.99375,10.70833 0.32151,20.00019 0.9375,27.46093 1.9e-4,0.002 3.8e-4,0.005 5.7e-4,0.007 m 0.93658,2.48746 c -0.38254,10.7991 -0.50872,22.14469 -1.49965,33.91972 -0.99123,11.77864 0.26226,21.54804 0.77344,32.17187 0,0 0,0 0,0 1.6e-4,0.003 3.1e-4,0.007 4.7e-4,0.01 m 2.24885,-4.28852 c -0.74132,11.21209 -0.44347,21.4357 -1.33526,31.78652 -0.89206,10.35401 -1.06262,21.97748 -3.1875,33.41406 0,10e-6 0,10e-6 0,10e-6 -6.5e-4,0.004 -0.001,0.007 -0.002,0.0105 m 0.002,-1.7824 c -0.43659,10.18297 0.3891,22.33108 1.14884,34.50622 0.75998,12.17889 0.37885,22.47724 1.14844,34.89062 0,10e-6 0,10e-6 0,10e-6 2.3e-4,0.004 4.7e-4,0.008 7.1e-4,0.0115 m 0.74948,-3.79818 c 0.21056,11.00172 -0.0824,21.83976 -0.21113,33.0289 -0.12873,11.19259 -0.65793,21.22893 -1.99219,31.1875 0,0 0,0 0,0 -4.1e-4,0.003 -8.2e-4,0.006 -0.001,0.009 m -1.49906,-1.85096 c -0.31978,10.61173 0.0697,21.88969 0.18779,33.21676 0.11815,11.33057 1.31815,21.72388 3.91406,32.66406 0,10e-6 0,10e-6 0,10e-6 8e-4,0.003 0.002,0.007 0.002,0.0101 m -1.47916,3.2346 c -0.21802,11.18103 0.63676,21.67062 1.8752,32.53655 1.23883,10.86927 -0.43497,19.69143 -1.26562,26.61718 0,0 0,0 0,0 -2.6e-4,0.002 -5.1e-4,0.004 -7.7e-4,0.006 m -0.67839,7.69093 c 0.57617,10.6425 -1.73719,21.1891 -5.25053,31.10736 -3.51442,9.92131 1.15949,22.82832 3.44531,35.96875 0,0 0,0 0,0 7.1e-4,0.004 0.001,0.008 0.002,0.0121 m -1.29117,-8.36913 c 5.8e-4,11.03348 0.94757,22.74343 2.8125,35.77106 1.86551,13.03165 -0.7155,22.102 -2.10937,33.78906 0,10e-6 0,10e-6 -10e-6,10e-6 -4.2e-4,0.004 -8.5e-4,0.007 -0.001,0.0108 m 1.82892,0.93598 c -0.52983,10.02708 0.97682,22.53064 2.95361,35.13917 1.97741,12.61242 0.56647,21.45513 1.71094,31.86719 0,0 0,0 0,0 3.5e-4,0.003 7.1e-4,0.006 0.001,0.01 m -0.54088,-4.73331 c -0.82704,11.56321 -0.30316,21.58947 -0.93674,32.32522 -0.63377,10.7391 0.34592,21.3584 1.07812,31.586 0,0 0,0 10e-6,0 2.2e-4,0 4.5e-4,0.01 6.7e-4,0.01 m -6.91481,4.0559 c -0.009,1.3435 -0.003,2.6629 0.0163,3.9604 m 0.87445,-722.38291 c 0.0548,10.82235 0.25804,21.90296 0.77338,33.26344 10e-6,0 10e-6,0 10e-6,10e-6 0.5155,11.36397 -0.78799,21.33229 -2.39063,31.51562 -4.9e-4,0.003 -9.9e-4,0.006 -0.001,0.009 m 4.66553,-0.0933 c -0.009,10.66606 -1.76574,21.45413 -5.29686,31.85733 -3.53221,10.40642 1.75612,22.79155 5.22656,35.89844 0,0 0,0 0,0 0.001,0.004 0.002,0.008 0.003,0.0121 m -0.44887,-2.01839 c -0.39021,10.10462 -0.29215,21.77227 -0.91371,32.81879 -0.62175,11.04992 0.51984,22.88469 1.54688,36.13281 0,0 0,0 0,0 3.2e-4,0.004 6.3e-4,0.008 9.5e-4,0.0122 m -5.1111,-3.37806 c -0.83455,9.92603 0.16098,23.1015 0.5164,36.80334 0.35553,13.70604 -0.59279,20.96726 -1.78125,30.39062 0,0 0,0 0,0 -3.7e-4,0.003 -7.3e-4,0.006 -0.001,0.009 m 6.11835,-0.0457 c 0.0621,10.65818 -0.52816,21.32234 -1.59381,31.50578 -1.06599,10.18657 -0.30168,22.01678 -0.86719,33.53125 0,0 0,0 0,0 -1.7e-4,0.004 -3.5e-4,0.007 -5.2e-4,0.0106 m -0.86714,-2.41554 c -0.50634,9.90991 1.12065,22.26652 3.39891,34.34241 2.27896,12.0796 0.2976,21.05152 0.89062,30.67187 0,0 0,0 0,0 1.9e-4,0.003 3.7e-4,0.006 5.5e-4,0.009 m -6.02336,5.32162 c 0.67948,11.04026 1.35311,21.08097 4.10094,30.75543 2.74867,9.67745 -0.71634,20.98782 -2.10937,30.48437 0,10e-6 0,10e-6 -10e-6,10e-6 -4.2e-4,0.003 -8.5e-4,0.006 -0.001,0.009 m 4.45486,0.28249 c 0.48358,10.83737 -0.0771,20.9491 -0.23483,30.35719 -0.15781,9.41097 0.20566,21.24791 0.63282,31.28124 0,0 0,0 0,0 1.3e-4,0.003 2.6e-4,0.006 3.9e-4,0.009 m -2.15714,1.43034 c -0.53822,10.74428 0.0249,21.78901 0.0708,32.88852 0.0459,11.10292 0.27548,22.81366 0.86719,35.92187 0,0 0,0 0,0 1.8e-4,0.004 3.6e-4,0.008 5.4e-4,0.0121 m -1.05542,-2.69733 c -0.2019,10.91634 1.48333,22.52621 4.47675,35.11492 2.99435,12.59259 -0.11971,21.92809 -0.35156,33.32031 0,0 0,0 0,0 -7e-5,0.004 -1.4e-4,0.007 -2.1e-4,0.0105 m -0.72574,-4.45442 c 0.66235,9.98775 -1.11727,21.98418 -3.3053,33.47516 -2.18871,11.4945 0.40024,21.4913 1.17187,31.9375 0,0 0,0 10e-6,0 2.3e-4,0 4.7e-4,0.01 7.1e-4,0.01 m -4.10191,1.4771 c 0.0466,1.2897 0.0818,2.5731 0.10761,3.8519 m 4.48518,-721.47686 c -0.64025,11.03259 -0.99535,21.29696 -3.02285,31.36482 0,0 0,0 0,0 -2.02812,10.07096 0.47801,21.62087 1.47657,32.38281 3e-4,0.003 6.1e-4,0.007 9.2e-4,0.01 m -0.6806,7.87454 c 0.008,10.25239 0.39158,21.05522 1.17186,30.6624 0.78053,9.61014 -0.24903,21.65008 -0.72656,32.40625 0,0 0,0 0,0 -1.4e-4,0.003 -2.9e-4,0.007 -4.4e-4,0.01 m 5.15728,-2.69602 c 0.63087,9.9881 -1.56933,22.54847 -4.68809,35.16266 -3.11971,12.61806 0.46383,22.1121 1.42969,33.85937 0,0 0,0 0,0 3e-4,0.004 5.9e-4,0.007 8.9e-4,0.0109 m -1.40654,-7.99261 c 0.64725,11.29022 -0.30967,21.63974 -0.89123,32.4427 -0.58173,10.80629 -0.4042,21.82099 -1.21874,32.94531 0,0 0,0 -10e-6,0 -2.5e-4,0.003 -5e-4,0.007 -7.5e-4,0.0103 m 2.13275,5.6722 c -0.88864,11.46957 1.00854,21.54778 3.04769,32.11441 2.03978,10.56987 -0.0102,22.04202 -0.0234,33.62499 0,10e-6 0,10e-6 -10e-6,10e-6 0,0.004 0,0.007 -10e-6,0.0107 m -4.12493,-3.98591 c 0.0632,9.91804 1.27488,22.79313 3.79682,35.8424 2.52272,13.05329 -0.27319,20.89516 -0.79687,30.20313 0,0 0,0 -10e-6,0 -1.6e-4,0.003 -3.2e-4,0.006 -4.8e-4,0.009 m -0.20954,1.92257 c 0.99011,10.05832 -0.90268,22.58267 -2.7431,35.2329 -1.84098,12.65413 1.00289,21.59936 3.04687,32.26562 0,10e-6 0,10e-6 0,10e-6 6.3e-4,0.003 0.001,0.007 0.002,0.01 m -0.916,-2.06249 c -0.055,10.674 -0.61425,21.66497 -1.80464,32.53702 -1.19074,10.8754 0.36575,21.66871 1.07813,32.52344 0,0 0,0 0,0 2.2e-4,0.003 4.4e-4,0.007 6.6e-4,0.01 m -3.14174,-1.80419 c -0.49091,11.39211 0.83847,22.43593 2.50827,34.83323 1.67031,12.40112 -0.86887,21.47773 -2.60156,31.96094 0,0 0,0 -10e-6,0 -5.3e-4,0.003 -0.001,0.006 -0.002,0.01 m 2.20383,-1.64015 c -0.96692,11.00159 0.55509,21.61872 1.68839,32.37266 1.13365,10.75725 0.11935,21.3401 0.35156,31.49218 0,0 0,0 0,0 7e-5,0.003 1.5e-4,0.006 2.2e-4,0.009 m -3.09403,5.01598 c -0.0699,10.53308 0.45298,20.85375 1.336,30.0293 0.8833,9.1784 -1.00012,21.6873 -3,32.5703 0,0 0,0 0,0 -6.2e-4,0 -0.001,0.01 -0.002,0.01 m -0.8427,-4.1946 c -0.0995,1.3711 -0.17446,2.7321 -0.2286,4.0885 m -0.70879,-712.22137 c -0.74052,11.59425 0.8636,21.34587 2.60224,31.52835 0,0 0,0 0,10e-6 1.73918,10.18561 0.49724,20.04311 1.47656,27.67187 3.1e-4,0.002 6.1e-4,0.005 9.1e-4,0.007 m -0.58644,0.65977 c 0.43693,11.43802 0.16449,20.98861 0.51522,30.52069 0.35084,9.53501 -0.53473,21.60993 -1.61718,32.33593 0,0 0,0 -10e-6,0 -3.3e-4,0.003 -6.6e-4,0.007 -9.9e-4,0.01 m 0.32847,1.4069 c -0.70195,11.43053 0.14508,21.4817 0.39909,31.97382 0.25409,10.49535 -0.4232,21.2478 -1.24219,31.25781 0,0 0,0 0,0 -2.5e-4,0.003 -5e-4,0.006 -7.6e-4,0.009 m 4.52481,3.2828 c 0.66317,11.67967 0.21324,20.70754 0.67908,29.62984 0.46598,8.92504 0.1822,21.80224 0.51562,32.94531 0,0 0,0 0,0 1e-4,0.003 2.1e-4,0.007 3.1e-4,0.0103 m -0.37441,-1.75771 c 0.97515,11.25131 0.14897,21.7954 0.49129,32.93492 0.34242,11.14294 -0.54063,22.30765 -1.61719,34.44531 0,0 0,0 0,0 -3.3e-4,0.004 -6.6e-4,0.007 -9.9e-4,0.0112 m -2.15539,6.60889 c -0.14078,11.60893 -0.61047,19.84326 -1.85143,27.05178 -1.24135,7.21073 -0.33486,22.2455 -0.98438,34.21093 0,0 0,0 0,0 -2e-4,0.004 -4e-4,0.007 -6e-4,0.0111 m 3.2578,-0.61132 c -0.66289,9.85483 0.23681,21.47978 0.6803,31.95184 0.44364,10.47528 -0.85565,21.55789 -2.57812,32.19531 0,0 0,0 0,0 -5.3e-4,0.003 -0.001,0.007 -0.002,0.01 m 1.43207,3.68031 c 0.85894,11.31363 1.44711,21.6545 4.38202,32.46612 2.93581,10.81494 -0.81154,20.6895 -2.4375,29.57031 0,0 0,0 0,0 -5e-4,0.003 -10e-4,0.005 -0.001,0.008 m 0.18823,1.97078 c -0.83539,11.07959 -1.19203,21.61838 -3.56173,32.32571 -2.37044,10.71062 1.47356,21.12364 4.45312,30.90625 0,0 0,0 0,0 9.2e-4,0.003 0.002,0.006 0.003,0.009 m -0.33076,-1.94461 c 0.11642,10.54147 -0.94529,21.80232 -2.83605,32.95902 -1.89135,11.16013 0.35289,20.29106 1.07812,28.375 0,0 0,0 0,0 2.3e-4,0.002 4.5e-4,0.005 6.7e-4,0.007 m -1.54763,-0.67752 c -0.0936,10.43267 0.0251,22.46373 0.0938,34.8576 0.0688,12.3976 -1.36382,20.9033 -4.07812,30.2031 0,0 0,0 -10e-6,0 -8.3e-4,0 -0.002,0.01 -0.002,0.01 m 4.75947,2.438 c -0.10774,1.1564 -0.18851,2.352 -0.24673,3.5817 m 0.59914,-248.91533 0,3.21718 m 0,204.7354 0,2.87035 m 0,-70.31443 0,2.98281 m 0,-494.76257 0,3.80313 m 0,243.49184 0,3.39062"
       id="path4652"
       inkscape:connector-curvature="0"
       inkscape:path-effect="#path-effect7956"
       inkscape:original-d="m 386.76948,322.29567 0,718.80353"
       sodipodi:nodetypes="cc" />
    <text
       xml:space="preserve"
       style="font-size:608.45928954999999405px;font-style:normal;font-variant:normal;font-weight:normal;font-stretch:normal;line-height:125%;letter-spacing:0px;word-spacing:0px;fill:#000000;fill-opacity:1;stroke:none;font-family:Serif;-inkscape-font-specification:Serif"
       x="14.036982"
       y="867.99976"
       id="text4464-0"
       sodipodi:linespacing="125%"><tspan
         sodipodi:role="line"
         id="tspan4466-7"
         x="14.036982"
         y="867.99976"
         style="font-size:60.84592056000000326px;font-style:normal;font-variant:normal;font-weight:normal;font-stretch:normal;fill:#000000;fill-opacity:1;font-family:Sketch Block;-inkscape-font-specification:Sketch Block">custom</tspan><tspan
         sodipodi:role="line"
         x="14.036982"
         y="944.05713"
         style="font-size:60.84592056000000326px;font-style:normal;font-variant:normal;font-weight:normal;font-stretch:normal;fill:#000000;fill-opacity:1;font-family:Sketch Block;-inkscape-font-specification:Sketch Block"
         id="tspan3105">connector</tspan></text>
    <text
       sodipodi:linespacing="125%"
       id="text3082"
       y="867.7475"
       x="515.24078"
       style="font-size:608.45928954999999405px;font-style:normal;font-variant:normal;font-weight:normal;font-stretch:normal;line-height:125%;letter-spacing:0px;word-spacing:0px;fill:#000000;fill-opacity:1;stroke:none;font-family:Serif;-inkscape-font-specification:Serif"
       xml:space="preserve"><tspan
         style="font-size:60.84592056000000326px;font-style:normal;font-variant:normal;font-weight:normal;font-stretch:normal;fill:#000000;fill-opacity:1;font-family:Sketch Block;-inkscape-font-specification:Sketch Block"
         y="867.7475"
         x="515.24078"
         id="tspan3084"
         sodipodi:role="line">custom</tspan><tspan
         style="font-size:60.84592056000000326px;font-style:normal;font-variant:normal;font-weight:normal;font-stretch:normal;fill:#000000;fill-opacity:1;font-family:Sketch Block;-inkscape-font-specification:Sketch Block"
         y="943.80487"
         x="515.24078"
         sodipodi:role="line"
         id="tspan3107">event stream</tspan></text>
    <path
       sodipodi:type="arc"
       style="fill:#d40000;fill-opacity:0;stroke:#000000;stroke-width:0.1013116;stroke-linecap:butt;stroke-miterlimit:4;stroke-opacity:1;stroke-dasharray:none;stroke-dashoffset:0"
       id="path3804"
       sodipodi:cx="572.89856"
       sodipodi:cy="359.93661"
       sodipodi:rx="4.56147"
       sodipodi:ry="4.56147"
       d="m 577.64287,360.41013 c 0.007,2.51411 -2.03091,4.55264 -4.54555,4.54896 -2.51467,-0.004 -4.55391,-2.04848 -4.55125,-4.57016 0.003,-2.52168 2.04637,-4.5655 4.56655,-4.56688 2.52018,-0.001 4.56254,2.04011 4.56199,4.55887 -5.5e-4,2.51876 -2.04385,4.56095 -4.56493,4.56122 -0.51552,5e-5 -1.01111,-0.0853 -1.47339,-0.2426 m 5.88935,-4.90815 c -0.003,2.51665 -2.04718,4.55709 -4.56794,4.55546 -2.52078,-0.002 -4.56374,-2.04488 -4.56394,-4.56491 -1.9e-4,-2.52004 2.04243,-4.56262 4.56272,-4.56266 2.52029,-5e-5 4.56394,2.04245 4.56617,4.56231 0.002,2.51987 -2.03767,4.56291 -4.55361,4.56415 -0.51448,2.5e-4 -1.00901,-0.0849 -1.4702,-0.24203 m 5.71976,-3.94201 c -0.007,2.51659 -2.05349,4.5565 -4.57728,4.55368 -2.52382,-0.003 -4.56915,-2.04756 -4.57198,-4.56991 -0.003,-2.52236 2.03772,-4.56737 4.55569,-4.57087 2.51796,-0.003 4.55976,2.03561 4.55986,4.5509 10e-5,2.51528 -2.04151,4.55399 -4.55947,4.54952 -0.51488,-9.1e-4 -1.0098,-0.0872 -1.47138,-0.24549 m 6.41852,-4.2467 c 0.007,2.52426 -2.03022,4.57028 -4.544,4.57437 -2.51382,0.004 -4.55207,-2.03508 -4.54793,-4.55104 0.004,-2.51597 2.04938,-4.55577 4.5717,-4.55318 2.52231,0.003 4.56676,2.04676 4.56901,4.56806 0.002,2.52131 -2.0384,4.56511 -4.556,4.56682 -0.51481,3.5e-4 -1.00969,-0.0847 -1.47127,-0.2418 m 5.59172,-4.7992 c -0.005,2.51546 -2.0495,4.55474 -4.57058,4.55152 -2.52111,-0.003 -4.56385,-2.048 -4.56321,-4.57007 6.3e-4,-2.52208 2.04445,-4.56659 4.56671,-4.56918 2.52225,-0.003 4.56803,2.03755 4.57331,4.55433 0.005,2.51678 -2.03158,4.55699 -4.54341,4.55455 -0.51364,-5e-4 -1.00733,-0.0864 -1.46769,-0.24425 m -2.88062,-6.42584 3.94312,-2.78208 m 4.1369,1.47037 1.55041,4.01662 m -4.2334,-5.38565 3.65586,2.5794 m 0.3359,4.88448 -4.89033,2.93737 m -4.57902,-3.06567 0.24549,-5.08001"
       transform="matrix(9.8705378,0,0,9.8705378,-5122.0848,-2814.8105)"
       inkscape:path-effect="#path-effect8061" />
    <path
       transform="matrix(9.8705378,0,0,9.8705378,-4955.3078,-2814.8105)"
       d="m 568.69873,361.67891 c -0.1153,-0.40366 -0.1766,-0.83024 -0.1755,-1.2714 0.006,-2.52404 2.0529,-4.56973 4.57634,-4.57316 2.52344,-0.003 4.56841,2.03645 4.57075,4.55345 0.002,2.51701 -2.03866,4.55785 -4.55721,4.55667 -1.13628,-5.3e-4 -2.17566,-0.41663 -2.97433,-1.1046 m 0.30481,-7.85097 c 0.72108,-0.48052 1.58673,-0.76077 2.51769,-0.76158 2.51678,-0.002 4.55757,2.03857 4.55655,4.55648 -0.001,2.51791 -2.04354,4.55939 -4.56247,4.55886 -2.38105,-5e-4 -4.33544,-1.82542 -4.54097,-4.15282 m 0.41284,-2.50691 c 0.80906,-1.25507 2.21727,-2.08586 3.81922,-2.08761 2.51393,-0.003 4.5525,2.03706 4.54902,4.55325 -0.003,2.51619 -2.04793,4.55573 -4.56902,4.55233 -0.21649,-3e-4 -0.42944,-0.0156 -0.63789,-0.0451 m 4.4542,-1.46792 c -0.83259,0.9565 -2.05683,1.56122 -3.42168,1.56368 -2.51315,0.005 -4.5509,-2.03432 -4.5462,-4.54992 0.005,-2.51561 2.05037,-4.55514 4.57314,-4.55226 2.52278,0.003 4.56757,2.04726 4.57018,4.56878 0.003,2.52152 -2.03778,4.56548 -4.55512,4.56733 -2.35565,0.002 -4.29411,-1.78523 -4.53225,-4.07781 m 1.31332,2.65563 c -1.08574,-0.836 -1.78579,-2.14768 -1.78753,-3.62249 -0.003,-2.52264 2.03784,-4.56754 4.55665,-4.57051 2.5188,-0.003 4.56174,2.03693 4.56375,4.5535 9.5e-4,1.18391 -0.4499,2.26237 -1.18953,3.07232 m -7.49081,-4.04589 c 0.54808,-1.89518 2.29784,-3.28047 4.37216,-3.27889 2.51654,0.002 4.55754,2.04458 4.55722,4.56299 -3.3e-4,2.51842 -2.04188,4.55884 -4.55923,4.55543 -0.75817,-0.001 -1.47301,-0.18736 -2.10174,-0.51628 m -2.46479,-6.47561 3.94312,-2.78208 m 4.1369,1.47037 1.55041,4.01662 m -4.2334,-5.38565 3.65586,2.5794 m 0.3359,4.88448 -4.89033,2.93737 m -4.57902,-3.06567 0.24549,-5.08001"
       sodipodi:ry="4.56147"
       sodipodi:rx="4.56147"
       sodipodi:cy="359.93661"
       sodipodi:cx="572.89856"
       id="path3806"
       style="fill:#d40000;fill-opacity:0;stroke:#000000;stroke-width:0.1013116;stroke-linecap:butt;stroke-miterlimit:4;stroke-opacity:1;stroke-dasharray:none;stroke-dashoffset:0"
       sodipodi:type="arc"
       inkscape:path-effect="#path-effect8063" />
    <path
       sodipodi:type="arc"
       style="fill:#d40000;fill-opacity:0;stroke:#000000;stroke-width:0.1013116;stroke-linecap:butt;stroke-miterlimit:4;stroke-opacity:1;stroke-dasharray:none;stroke-dashoffset:0"
       id="path3808"
       sodipodi:cx="572.89856"
       sodipodi:cy="359.93661"
       sodipodi:rx="4.56147"
       sodipodi:ry="4.56147"
       d="m 568.7902,361.92495 c -0.11272,-0.40563 -0.17161,-0.83405 -0.1683,-1.27694 0.019,-2.53398 2.06973,-4.58361 4.59244,-4.5883 2.52271,-0.005 4.56211,2.03719 4.55425,4.55834 -0.008,2.52115 -2.06073,4.56716 -4.59496,4.57226 -1.45983,0.003 -2.76139,-0.67184 -3.60603,-1.72511 m 0.96737,-7.59195 c 0.71867,-0.48255 1.58255,-0.76444 2.51239,-0.76653 2.51375,-0.006 4.55639,2.03494 4.56168,4.55501 0.005,2.52007 -2.02831,4.56546 -4.53354,4.57121 -2.50522,0.006 -4.53233,-2.02985 -4.51166,-4.53997 0.0194,-2.35874 1.84161,-4.29649 4.17255,-4.51265 m -3.98813,2.63383 c 0.8,-1.25866 2.20197,-2.09321 3.79969,-2.09967 2.5073,-0.0101 4.54562,2.02241 4.54607,4.52805 2.5e-4,1.42183 -0.65548,2.69012 -1.68168,3.51797 m 1.13674,-0.39207 c -0.82449,0.96247 -2.04221,1.57207 -3.40141,1.57891 -2.50276,0.0126 -4.53579,-2.02209 -4.52789,-4.5342 0.008,-2.51212 2.05403,-4.55005 4.57712,-4.54516 2.52309,0.005 4.56772,2.05092 4.57208,4.57606 0.004,2.52514 -2.03315,4.5734 -4.54299,4.58357 -2.50984,0.0102 -4.54119,-2.02107 -4.52223,-4.52262 6.9e-4,-0.0911 0.004,-0.18159 0.0101,-0.27136 0.14542,-2.16092 1.80865,-3.91895 3.93853,-4.21548 m -2.41303,7.04529 c -1.09555,-0.8232 -1.80481,-2.12267 -1.81666,-3.58402 -0.0173,-2.13305 1.45577,-3.92071 3.44168,-4.38562 m -2.91227,3.03689 c 0.54699,-1.90668 2.29155,-3.29874 4.35434,-3.30069 2.50255,-0.002 4.52512,2.04173 4.49462,4.5666 -0.0305,2.52486 -2.10452,4.57486 -4.66911,4.58648 -0.41291,0.002 -0.81344,-0.0492 -1.19514,-0.14662 m -2.85071,-6.26728 c 0.8124,-1.28624 2.25056,-2.14075 3.88876,-2.13622 2.52679,0.007 4.57338,2.0555 4.57725,4.58331 0.003,2.13097 -1.44611,3.92276 -3.40919,4.43962 m -2.93308,-8.69208 c 0.50631,-0.19346 1.05533,-0.30027 1.62904,-0.30231 2.53462,-0.009 4.59143,2.02921 4.61204,4.54671 0.0206,2.51749 -2.00152,4.56094 -4.49224,4.56428 -2.25408,0.003 -4.11767,-1.66551 -4.42276,-3.84529 m 0.42152,-3.59296 2.62875,-1.85472 m 5.05249,1.67612 1.03361,2.67775 m -3.36569,-4.28631 2.43724,1.7196 m 0.13016,5.80394 -3.26022,1.95824 m -5.35316,-3.42277 0.16366,-3.38667"
       transform="matrix(9.8705378,0,0,9.8705378,-4782.4524,-2810.7699)"
       inkscape:path-effect="#path-effect8065" />
    <path
       inkscape:connector-curvature="0"
       style="fill:none;stroke:#000000;stroke-width:1;stroke-linecap:butt;stroke-miterlimit:4;stroke-opacity:1;stroke-dasharray:none;stroke-dashoffset:0"
       d="m 331.11588,672.42481 c 27.51961,-0.54017 53.71475,-0.20834 79.95247,-0.0724 m -20.10185,-6.11505 c 16.4499,-0.1677 33.24348,-0.11674 50.22784,0.0296 0.14655,7.33443 0.32949,14.68705 0.53608,22.0476 m -3.88809,-12.01011 c -0.64638,24.60041 -0.23067,49.11106 0.18283,73.12036 m 3.35676,-15.021 c 0.71834,26.73217 0.53269,52.85705 0.78973,79.3517 -5.43471,0.0608 -10.85001,0.13791 -16.23351,0.24018 m 11.57614,-15.99303 c -0.064,3.49887 -0.0994,7.00342 -0.10816,10.51185 -24.76503,-0.29818 -48.24513,-0.40903 -71.16197,-0.94498 m 21.24526,3.87638 c -19.83586,0.32827 -38.86781,-0.25426 -57.46769,-1.40801 0.27068,-6.40826 0.58307,-12.87167 0.92602,-19.38004 m -4.3324,19.96616 c -0.4373,-24.89004 0.34881,-49.94806 1.61866,-75.16874 m 2.90507,14.35648 C 331.42416,726.2634 330.87324,703.44024 329.9,681.14582 m -0.61245,15.50384 c 0.15578,-9.52901 0.19652,-19.18726 0.16198,-28.94817 21.00325,-0.27026 41.64635,-1.03166 62.3451,-2.0062 m -61.31195,-0.69969 c 29.96332,0.8385 61.18836,0.81496 92.75491,2.0357 m -27.75657,0.61255 c 15.38198,0.1295 30.37382,0.11339 45.2385,0.0272 -0.0636,12.38304 -0.2155,24.71737 -0.30345,37.04675 m -2.97163,-23.2782 c 0.85782,30.48402 0.11404,59.64135 -0.16279,88.60948 m -0.68102,-19.65724 c 0.45494,20.12818 0.6357,40.82002 1.03633,62.20189 -7.69206,0.53587 -15.3503,1.17785 -22.94493,1.93357 m 23.26188,-4.37023 c -25.06796,0.71787 -49.76302,1.26173 -74.99168,2.78862 m 17.61965,-3.65627 c -16.96808,-0.27925 -34.20206,-0.28142 -51.6506,-0.22187 -0.2301,-9.28074 -0.52438,-18.54301 -0.87446,-27.82207 m 0.41016,20.38534 c -0.30772,-30.04429 0.62212,-60.51169 2.02236,-90.11167 m -0.31121,24.32712 c 0.26238,-22.12024 0.18429,-45.20004 0.12508,-68.86934 10.01018,-0.56958 20.02414,-1.25754 30.07423,-2.03057 m -31.06649,0.68194 c 32.73057,0.4671 65.68637,1.05953 99.06575,3.13021 m -30.20265,-3.95061 c 13.97176,0.075 28.10935,-0.006 42.43908,-0.20289 0.39052,13.27935 0.96079,26.45018 1.73461,39.5486 m -7.10651,-14.74757 c 0.61275,29.65069 1.09585,59.68962 2.95115,89.13514 m 0.42372,-24.0664 c 0.15119,18.84902 0.0771,37.62636 -0.0754,56.19906 -12.61544,-0.27018 -25.26496,-0.62932 -37.90647,-1.1155 m 28.84054,0.66845 c -33.23555,-0.96429 -64.85125,0.40529 -96.4551,1.30564 m 26.98282,0.89767 c -10.32295,-0.10912 -20.65352,-0.3246 -30.98742,-0.6776 0.0123,-21.96057 0.0106,-44.50115 0.0322,-67.89156 m -3.6271,31.47704 c -0.36479,-33.34765 0.4943,-66.34019 1.48292,-99.59937 m 0.72049,24.09291 c 0.21267,-11.79212 0.24219,-23.6163 0.1714,-35.3478 17.68761,0.54777 35.15848,1.29577 52.67565,2.64018 m -51.06599,1.38706 c 23.49016,-0.0222 47.11118,0.23318 70.4557,0.72441 m -13.38157,1.66605 c 18.46756,-0.33031 36.84371,-0.34584 55.27524,-0.34011 0.0727,10.84822 0.16478,21.70389 0.30683,32.50603 m -1.71058,-22.53255 c -0.55591,25.26062 -0.52798,49.96512 -0.8542,74.58492 m -0.48152,-15.87009 c -0.006,25.36474 0.40714,49.53216 1.23101,73.00104 -2.85825,-0.18824 -5.71079,-0.3862 -8.55762,-0.59305 m 5.38117,-16.38907 c -0.0539,4.03119 -0.0887,8.09231 -0.10671,12.17971 -29.07578,-0.167 -57.32332,0.96922 -85.6096,2.13677 m 29.55173,4.74389 c -18.01573,0.47751 -35.69582,0.50974 -53.16092,0.50592 0.21871,-9.48122 0.49787,-18.97257 0.81948,-28.41306 m 5.74008,15.05879 c 0.17476,-27.48777 0.005,-55.08816 -0.13298,-82.50768 m -1.97634,22.38581 c 0.28804,-24.12969 -0.33583,-47.82281 -1.4102,-71.10369 6.11713,0.22236 12.20251,0.47376 18.26478,0.75375 m -18.77657,-4.67753 c 31.04011,-0.20555 62.70591,0.18186 94.18686,0.63891 m -23.63741,-3.38098 c 14.86915,0.0714 29.38583,0.29465 43.76336,0.71236 -0.11552,15.44914 -0.3805,31.10712 -0.55749,47.02132 m -5.97363,-16.86187 c -0.20189,31.11893 0.50967,61.64838 1.59867,92.42772 m -0.59105,-35.04748 c -0.46427,17.67376 -0.40949,35.92996 -0.24396,54.32122 -5.60899,0.0656 -11.20724,0.14425 -16.80708,0.22252 m 17.31513,6.58428 c -32.25677,-0.18467 -67.32252,-0.45903 -103.56821,-1.34163 m 36.83303,3.0996 c -13.02988,0.14041 -26.22959,0.19122 -39.4613,0.218 0.11935,-18.61171 0.17595,-37.27056 0.54835,-55.79653 m -5.74902,17.77509 c 1.3e-4,-24.23931 0.50663,-48.11571 1.50957,-71.37925 m 0.36518,24.68043 c -0.46157,-18.92317 0.0298,-38.30251 1.02092,-57.93311 11.03194,-0.27234 22.21407,-0.62019 33.47176,-1.00978 m 1.8384,139.27317 -6.43438,0 m -30.41208,-110.24809 0,-5.74062 m 0,53.44696 0,-5.96562 m 79.48609,-74.35718 7.60625,0 m 23.30139,142.86455 -6.78125,0"
       id="rect4654"
       inkscape:path-effect="#path-effect5535"
       inkscape:original-d="m 329.28739,667.69064 110.96926,0 0,142.86455 -110.96926,0 z" />
    <g
       id="g6378"
       transform="translate(-60.00002,119.28574)">
      <path
         inkscape:original-d="m 471.35725,621.54212 74.49478,0"
         inkscape:path-effect="#path-effect6368"
         inkscape:connector-curvature="0"
         id="path3816"
         d="m 472.57698,624.6977 c 7.25022,-0.44679 13.1415,0.0105 19.41099,-0.015 6.27263,-0.0255 12.99911,-0.33848 19.01563,-0.99999 0,0 0,0 0,-1e-5 1.04885,-0.11532 2.14913,-0.18636 3.29031,-0.22354 m -7.27171,-2.88617 c 6.08676,-0.22917 13.43769,-0.5741 20.36587,-1.67154 6.44257,-1.02051 12.62544,0.14498 19.14884,0.82375 m -75.02425,3.33265 c 6.03435,0.0932 12.98429,-0.29478 18.99094,-0.85952 6.00965,-0.56502 14.20954,-0.31546 22.67187,-0.98437 0,0 0,0 0,-1e-5 0.64883,-0.0513 1.27195,-0.0893 1.87181,-0.11504 m -5.98539,0.59901 c 6.50104,-0.27512 12.09194,0.23515 16.31836,0.70353 4.20274,0.46576 13.89844,-0.18029 21.88432,-0.57095 m -76.42244,-1.67924 c 6.93291,-0.12917 12.74049,0.71839 18.20834,2.17207 5.4706,1.45441 14.33612,0.0681 22.98438,0.1875 0,0 0,0 0,0 2.13261,0.0294 4.01174,0.0125 5.72711,-0.0461 m -8.75816,-2.70298 c 6.39887,0.61357 13.82109,0.52429 21.4279,1.62408 6.71812,0.97131 11.83264,0.54023 17.25545,0.96679 m -74.81328,2.11212 c 7.26018,0.51897 12.70499,-0.56067 18.08285,-1.70391 5.38056,-1.14381 13.29353,-0.39007 19.84375,-1.1875 0,0 0,0 0,0 0.51502,-0.0627 1.02932,-0.11635 1.54273,-0.16214 m -5.83336,1.22405 c 6.50254,-0.39603 13.58522,-1.1822 20.80274,-3.59316 7.16765,-2.3943 12.68748,1.03895 18.20461,3.20179 m -75.78472,-1.38984 c 6.74073,-0.36369 12.798,-0.0243 18.443,-0.0463 5.64784,-0.022 13.52653,-0.35667 20.59375,-1.09374 0,0 0,0 0,-1e-5 2.61234,-0.27245 5.18779,-0.28651 7.78785,-0.1547 m -4.95329,3.13949 c 6.92311,0.2745 13.33963,-0.85767 20.05211,-2.60979 5.40701,-1.41136 10.52484,-0.46337 15.42864,0.0856 m -28.87014,1.36752 3.47813,0 m 18.17114,0 3.24688,0 m -10.26826,0 3.32187,0 m -54.51948,0 3.86875,0 m 21.87634,0 3.59375,0"
         style="fill:none;stroke:#000000;stroke-width:1;stroke-linecap:butt;stroke-linejoin:miter;stroke-miterlimit:4;stroke-opacity:1;stroke-dasharray:none;marker-end:none" />
      <path
         sodipodi:nodetypes="cc"
         style="fill:none;stroke:#000000;stroke-width:1;stroke-linecap:butt;stroke-linejoin:miter;stroke-miterlimit:4;stroke-opacity:1;stroke-dasharray:none;marker-end:none"
         d="m 527.26983,631.58548 c 6.64146,-2.67477 12.33859,-4.70454 18.2866,-7.09655 0.0663,-0.0267 0.13267,-0.0534 0.19906,-0.0801 m -18.27325,4.74006 c 6.5866,-2.56943 12.01376,-4.8302 17.41169,-7.38108 0.0602,-0.0284 0.12058,-0.0569 0.18119,-0.0853 m -19.04511,8.28438 c 6.65628,-2.0491 12.61401,-4.55341 19.21627,-6.58343 0.0736,-0.0226 0.14709,-0.0454 0.22045,-0.0682 m -8.31679,2.09197 3.25227,-1.23293 m 2.31927,-0.87923 3.03604,-1.15096 m -4.84302,1.83599 3.10616,-1.17755 m -16.2821,6.17253 3.61752,-1.3714 m 3.00809,-1.14036 3.36039,-1.27392"
         id="path6370"
         inkscape:connector-curvature="0"
         inkscape:path-effect="#path-effect6372"
         inkscape:original-d="m 526.44646,629.46489 18.90049,-7.16515" />
      <path
         inkscape:original-d="m 525.01788,607.32204 21.04335,12.12056"
         inkscape:path-effect="#path-effect6376"
         inkscape:connector-curvature="0"
         id="path6374"
         d="m 526.05457,610.00439 c 6.96628,3.34516 12.78303,7.46906 18.90973,11.16229 0.51832,0.31245 1.03944,0.62326 1.56277,0.93241 m -20.16712,-15.24218 c 6.89968,3.47312 12.39532,7.32273 17.84732,10.81681 0.46124,0.29559 0.93761,0.59094 1.42732,0.88567 m -21.12062,-10.55945 c 6.98425,4.10509 13.12451,7.65664 20.03862,11.78549 0.58492,0.3493 1.16133,0.691 1.73005,1.02584 m -18.56926,-13.0503 c 5.95869,4.17186 12.26486,8.23355 17.43686,13.4854 0.43755,0.4443 0.89808,0.86045 1.37926,1.25124 m -9.29109,-8.13678 3.01393,1.73596 m 3.16911,1.82535 2.81354,1.62054 m -4.81885,-2.77556 2.87853,1.65798 m -17.50058,-10.08 3.35243,1.93093 m 4.00037,2.30414 3.11413,1.79368"
         style="fill:none;stroke:#000000;stroke-width:1;stroke-linecap:butt;stroke-linejoin:miter;stroke-miterlimit:4;stroke-opacity:1;stroke-dasharray:none;marker-end:none"
         sodipodi:nodetypes="cc" />
    </g>
    <path
       id="path4269"
       d="m 335.44438,672.30545 100.36266,0 0,136.8494 -100.36266,0 z"
       style="fill:#ffffff;fill-opacity:1;stroke:none"
       inkscape:connector-curvature="0" />
    <g
       transform="translate(107.14284,120.71431)"
       id="g6383">
      <path
         style="fill:none;stroke:#000000;stroke-width:1;stroke-linecap:butt;stroke-linejoin:miter;stroke-miterlimit:4;stroke-opacity:1;stroke-dasharray:none;marker-end:none"
         d="m 472.57698,624.6977 c 7.25022,-0.44679 13.1415,0.0105 19.41099,-0.015 6.27263,-0.0255 12.99911,-0.33848 19.01563,-0.99999 0,0 0,0 0,-1e-5 1.04885,-0.11532 2.14913,-0.18636 3.29031,-0.22354 m -7.27171,-2.88617 c 6.08676,-0.22917 13.43769,-0.5741 20.36587,-1.67154 6.44257,-1.02051 12.62544,0.14498 19.14884,0.82375 m -75.02425,3.33265 c 6.03435,0.0932 12.98429,-0.29478 18.99094,-0.85952 6.00965,-0.56502 14.20954,-0.31546 22.67187,-0.98437 0,0 0,0 0,-1e-5 0.64883,-0.0513 1.27195,-0.0893 1.87181,-0.11504 m -5.98539,0.59901 c 6.50104,-0.27512 12.09194,0.23515 16.31836,0.70353 4.20274,0.46576 13.89844,-0.18029 21.88432,-0.57095 m -76.42244,-1.67924 c 6.93291,-0.12917 12.74049,0.71839 18.20834,2.17207 5.4706,1.45441 14.33612,0.0681 22.98438,0.1875 0,0 0,0 0,0 2.13261,0.0294 4.01174,0.0125 5.72711,-0.0461 m -8.75816,-2.70298 c 6.39887,0.61357 13.82109,0.52429 21.4279,1.62408 6.71812,0.97131 11.83264,0.54023 17.25545,0.96679 m -74.81328,2.11212 c 7.26018,0.51897 12.70499,-0.56067 18.08285,-1.70391 5.38056,-1.14381 13.29353,-0.39007 19.84375,-1.1875 0,0 0,0 0,0 0.51502,-0.0627 1.02932,-0.11635 1.54273,-0.16214 m -5.83336,1.22405 c 6.50254,-0.39603 13.58522,-1.1822 20.80274,-3.59316 7.16765,-2.3943 12.68748,1.03895 18.20461,3.20179 m -75.78472,-1.38984 c 6.74073,-0.36369 12.798,-0.0243 18.443,-0.0463 5.64784,-0.022 13.52653,-0.35667 20.59375,-1.09374 0,0 0,0 0,-1e-5 2.61234,-0.27245 5.18779,-0.28651 7.78785,-0.1547 m -4.95329,3.13949 c 6.92311,0.2745 13.33963,-0.85767 20.05211,-2.60979 5.40701,-1.41136 10.52484,-0.46337 15.42864,0.0856 m -28.87014,1.36752 3.47813,0 m 18.17114,0 3.24688,0 m -10.26826,0 3.32187,0 m -54.51948,0 3.86875,0 m 21.87634,0 3.59375,0"
         id="path6385"
         inkscape:connector-curvature="0"
         inkscape:path-effect="#path-effect6368"
         inkscape:original-d="m 471.35725,621.54212 74.49478,0" />
      <path
         inkscape:original-d="m 526.44646,628.7506 18.90049,-6.45086"
         inkscape:path-effect="#path-effect6372"
         inkscape:connector-curvature="0"
         id="path6387"
         d="m 527.26983,630.87119 c 6.71053,-2.4627 12.4787,-4.28138 18.49581,-6.46118 m -19.08265,3.72939 c 6.11509,-2.30641 12.88386,-4.21262 19.69754,-6.15585 m -21.06271,7.76053 c 5.89688,-2.31054 12.66726,-4.71272 19.16285,-7.61869 m -7.35043,2.97877 3.29168,-1.12347 m 2.28117,-0.77858 3.07282,-1.04878 m -4.88023,1.66566 3.1438,-1.073 m -16.32284,5.57109 3.66136,-1.24965 m 2.96581,-1.01225 3.40111,-1.16082"
         style="fill:none;stroke:#000000;stroke-width:1;stroke-linecap:butt;stroke-linejoin:miter;stroke-miterlimit:4;stroke-opacity:1;stroke-dasharray:none;marker-end:none"
         sodipodi:nodetypes="cc" />
      <path
         sodipodi:nodetypes="cc"
         style="fill:none;stroke:#000000;stroke-width:1;stroke-linecap:butt;stroke-linejoin:miter;stroke-miterlimit:4;stroke-opacity:1;stroke-dasharray:none;marker-end:none"
         d="m 526.05458,615.00438 c 7.5095,1.9966 13.88855,4.76193 20.55915,7.10843 m -21.22418,-10.61443 c 6.79117,2.18514 14.36322,4.85092 21.99833,7.47347 m -23.73853,-5.37504 c 6.52798,2.18022 14.10477,4.25339 21.35701,5.72115 m -19.35019,-5.60085 c 7.52733,2.7506 14.22177,4.95657 21.66959,7.72158 m -10.22769,-5.02901 3.29462,1.11482 m 2.89775,0.98053 3.07557,1.0407 m -5.08391,-1.72027 3.14661,1.06474 m -17.79072,-6.01996 3.66463,1.24003 m 3.69926,1.25174 3.40415,1.15188"
         id="path6389"
         inkscape:connector-curvature="0"
         inkscape:path-effect="#path-effect6376"
         inkscape:original-d="m 525.01788,612.32204 21.04335,7.12056" />
    </g>
    <g
       id="g6391"
       transform="translate(274.99998,122.14288)">
      <path
         inkscape:original-d="m 471.35725,621.54212 74.49478,0"
         inkscape:path-effect="#path-effect6368"
         inkscape:connector-curvature="0"
         id="path6393"
         d="m 472.57698,624.6977 c 7.25022,-0.44679 13.1415,0.0105 19.41099,-0.015 6.27263,-0.0255 12.99911,-0.33848 19.01563,-0.99999 0,0 0,0 0,-1e-5 1.04885,-0.11532 2.14913,-0.18636 3.29031,-0.22354 m -7.27171,-2.88617 c 6.08676,-0.22917 13.43769,-0.5741 20.36587,-1.67154 6.44257,-1.02051 12.62544,0.14498 19.14884,0.82375 m -75.02425,3.33265 c 6.03435,0.0932 12.98429,-0.29478 18.99094,-0.85952 6.00965,-0.56502 14.20954,-0.31546 22.67187,-0.98437 0,0 0,0 0,-1e-5 0.64883,-0.0513 1.27195,-0.0893 1.87181,-0.11504 m -5.98539,0.59901 c 6.50104,-0.27512 12.09194,0.23515 16.31836,0.70353 4.20274,0.46576 13.89844,-0.18029 21.88432,-0.57095 m -76.42244,-1.67924 c 6.93291,-0.12917 12.74049,0.71839 18.20834,2.17207 5.4706,1.45441 14.33612,0.0681 22.98438,0.1875 0,0 0,0 0,0 2.13261,0.0294 4.01174,0.0125 5.72711,-0.0461 m -8.75816,-2.70298 c 6.39887,0.61357 13.82109,0.52429 21.4279,1.62408 6.71812,0.97131 11.83264,0.54023 17.25545,0.96679 m -74.81328,2.11212 c 7.26018,0.51897 12.70499,-0.56067 18.08285,-1.70391 5.38056,-1.14381 13.29353,-0.39007 19.84375,-1.1875 0,0 0,0 0,0 0.51502,-0.0627 1.02932,-0.11635 1.54273,-0.16214 m -5.83336,1.22405 c 6.50254,-0.39603 13.58522,-1.1822 20.80274,-3.59316 7.16765,-2.3943 12.68748,1.03895 18.20461,3.20179 m -75.78472,-1.38984 c 6.74073,-0.36369 12.798,-0.0243 18.443,-0.0463 5.64784,-0.022 13.52653,-0.35667 20.59375,-1.09374 0,0 0,0 0,-1e-5 2.61234,-0.27245 5.18779,-0.28651 7.78785,-0.1547 m -4.95329,3.13949 c 6.92311,0.2745 13.33963,-0.85767 20.05211,-2.60979 5.40701,-1.41136 10.52484,-0.46337 15.42864,0.0856 m -28.87014,1.36752 3.47813,0 m 18.17114,0 3.24688,0 m -10.26826,0 3.32187,0 m -54.51948,0 3.86875,0 m 21.87634,0 3.59375,0"
         style="fill:none;stroke:#000000;stroke-width:1;stroke-linecap:butt;stroke-linejoin:miter;stroke-miterlimit:4;stroke-opacity:1;stroke-dasharray:none;marker-end:none" />
      <path
         sodipodi:nodetypes="cc"
         style="fill:none;stroke:#000000;stroke-width:1;stroke-linecap:butt;stroke-linejoin:miter;stroke-miterlimit:4;stroke-opacity:1;stroke-dasharray:none;marker-end:none"
         d="m 527.26983,630.87119 c 6.71981,-2.45674 12.49302,-4.27244 18.52165,-6.44246 1.35659,-0.48832 2.72957,-0.98612 4.1096,-1.49409 m -22.41883,5.49999 c 6.66494,-2.3514 12.17394,-4.39276 17.64673,-6.727 1.23152,-0.52526 2.55127,-1.05193 3.93126,-1.58587 m -23.03023,9.13084 c 6.73463,-1.83107 12.77451,-4.11792 19.45131,-5.92934 1.50245,-0.40762 2.95529,-0.85952 4.37147,-1.34403 m -9.92754,2.19084 3.29316,-1.11913 m 3.51858,-1.19573 3.07421,-1.04471 m -5.28342,1.79548 3.14522,-1.06885 m -19.25406,6.54316 3.66301,-1.24481 m 4.43743,-1.50799 3.40264,-1.15633"
         id="path6395"
         inkscape:connector-curvature="0"
         inkscape:path-effect="#path-effect6372"
         inkscape:original-d="m 526.44646,628.7506 23.1862,-7.87943" />
      <path
         inkscape:original-d="m 526.80359,606.60776 18.54335,10.69198"
         inkscape:path-effect="#path-effect6376"
         inkscape:connector-curvature="0"
         id="path6397"
         d="m 527.84028,609.29011 c 6.65812,3.20082 12.26725,7.11617 18.09795,10.68128 m -18.76298,-14.18727 c 5.96599,3.38247 12.65759,7.21076 19.43079,11.0174 m -21.17099,-8.91897 c 5.71239,3.37773 12.39771,6.65524 18.82967,9.38916 m -16.82285,-9.26886 c 6.67529,3.9273 12.57652,7.34911 19.125,11.25231 m -9.17321,-6.54123 3.01313,1.73735 m 2.44723,1.41106 2.81279,1.62184 m -4.58372,-2.64295 2.87777,1.65931 m -15.79077,-9.10486 3.35153,1.93247 m 3.14187,1.81158 3.11329,1.79511"
         style="fill:none;stroke:#000000;stroke-width:1;stroke-linecap:butt;stroke-linejoin:miter;stroke-miterlimit:4;stroke-opacity:1;stroke-dasharray:none;marker-end:none"
         sodipodi:nodetypes="cc" />
    </g>
  </g>
</svg>
