<?xml version="1.0" encoding="UTF-8" standalone="no"?>
<!-- Created with Inkscape (http://www.inkscape.org/) -->

<svg
   xmlns:dc="http://purl.org/dc/elements/1.1/"
   xmlns:cc="http://creativecommons.org/ns#"
   xmlns:rdf="http://www.w3.org/1999/02/22-rdf-syntax-ns#"
   xmlns:svg="http://www.w3.org/2000/svg"
   xmlns="http://www.w3.org/2000/svg"
   xmlns:sodipodi="http://sodipodi.sourceforge.net/DTD/sodipodi-0.dtd"
   xmlns:inkscape="http://www.inkscape.org/namespaces/inkscape"
   width="1052.3622"
   height="744.09448"
   id="svg2"
   version="1.1"
   inkscape:version="0.48.4 r9939"
   sodipodi:docname="reactors-2.svg">
  <defs
     id="defs4">
    <inkscape:path-effect
       effect="sketch"
       id="path-effect4801"
       is_visible="true"
       nbiter_approxstrokes="5"
       strokelength="100"
       strokelength_rdm="0.3;1"
       strokeoverlap="0.3"
       strokeoverlap_rdm="0.3;1"
       ends_tolerance="0.1;1"
       parallel_offset="3;1"
       tremble_size="3;1"
       tremble_frequency="1"
       nbtangents="5"
       tgt_places_rdmness="1;1"
       tgtscale="10"
       tgtlength="20"
       tgtlength_rdm="0.3;1" />
    <inkscape:path-effect
       effect="sketch"
       id="path-effect4799"
       is_visible="true"
       nbiter_approxstrokes="5"
       strokelength="100"
       strokelength_rdm="0.3;1"
       strokeoverlap="0.3"
       strokeoverlap_rdm="0.3;1"
       ends_tolerance="0;1"
       parallel_offset="0.2;1"
       tremble_size="0.3;1"
       tremble_frequency="1"
       nbtangents="5"
       tgt_places_rdmness="1;1"
       tgtscale="10"
       tgtlength="1"
       tgtlength_rdm="0.3;1" />
    <inkscape:path-effect
       effect="sketch"
       id="path-effect4797"
       is_visible="true"
       nbiter_approxstrokes="6"
       strokelength="100"
       strokelength_rdm="0.3;1"
       strokeoverlap="0.3"
       strokeoverlap_rdm="0.3;1"
       ends_tolerance="0;1"
       parallel_offset="0.3;4057545297"
       tremble_size="0.3;1"
       tremble_frequency="1"
       nbtangents="5"
       tgt_places_rdmness="1;4023269620"
       tgtscale="10.1"
       tgtlength="3"
       tgtlength_rdm="0.3;1713976667" />
    <inkscape:path-effect
       effect="sketch"
       id="path-effect4793"
       is_visible="true"
       nbiter_approxstrokes="6"
       strokelength="100"
       strokelength_rdm="0.3;1"
       strokeoverlap="0.3"
       strokeoverlap_rdm="0.3;1"
       ends_tolerance="0;1"
       parallel_offset="0.3;1"
       tremble_size="0.35;1"
       tremble_frequency="3.5"
       nbtangents="5"
       tgt_places_rdmness="1;1"
       tgtscale="10"
       tgtlength="3.2"
       tgtlength_rdm="0.3;1" />
    <inkscape:path-effect
       effect="sketch"
       id="path-effect4791"
       is_visible="true"
       nbiter_approxstrokes="6"
       strokelength="100"
       strokelength_rdm="0.3;1"
       strokeoverlap="0.3"
       strokeoverlap_rdm="0.3;1"
       ends_tolerance="0;1"
       parallel_offset="0.2;1"
       tremble_size="0.4;1"
       tremble_frequency="1"
       nbtangents="5"
       tgt_places_rdmness="1;1"
       tgtscale="10"
       tgtlength="3"
       tgtlength_rdm="0.3;1" />
    <inkscape:path-effect
       effect="sketch"
       id="path-effect4785"
       is_visible="true"
       nbiter_approxstrokes="5"
       strokelength="100"
       strokelength_rdm="0.3;1"
       strokeoverlap="0.3"
       strokeoverlap_rdm="0.3;1"
       ends_tolerance="0;1"
       parallel_offset="0.2;1"
       tremble_size="0.3;1"
       tremble_frequency="1"
       nbtangents="5"
       tgt_places_rdmness="1;1"
       tgtscale="10"
       tgtlength="3"
       tgtlength_rdm="0.3;1" />
    <inkscape:path-effect
       effect="sketch"
       id="path-effect4783"
       is_visible="true"
       nbiter_approxstrokes="5"
       strokelength="100"
       strokelength_rdm="0.1;2477674555"
       strokeoverlap="0"
       strokeoverlap_rdm="0.3;1"
       ends_tolerance="0;1"
       parallel_offset="0.2;2533325973"
       tremble_size="0.3;798932740"
       tremble_frequency="1"
       nbtangents="5"
       tgt_places_rdmness="1;1"
       tgtscale="10"
       tgtlength="3"
       tgtlength_rdm="0.3;1" />
    <inkscape:path-effect
       effect="sketch"
       id="path-effect4760"
       is_visible="true"
       nbiter_approxstrokes="6"
       strokelength="40"
       strokelength_rdm="0.3;1"
       strokeoverlap="0.3"
       strokeoverlap_rdm="0.3;1"
       ends_tolerance="0;1"
       parallel_offset="0.4;1"
       tremble_size="0.1;1"
       tremble_frequency="1"
       nbtangents="5"
       tgt_places_rdmness="1;1"
       tgtscale="10"
       tgtlength="3"
       tgtlength_rdm="0.3;1" />
    <inkscape:path-effect
       effect="sketch"
       id="path-effect4737"
       is_visible="true"
       nbiter_approxstrokes="5"
       strokelength="100"
       strokelength_rdm="0.3;1"
       strokeoverlap="0.3"
       strokeoverlap_rdm="0.3;1"
       ends_tolerance="0.1;1"
       parallel_offset="0.2;1"
       tremble_size="0.2;1"
       tremble_frequency="2"
       nbtangents="5"
       tgt_places_rdmness="1;1"
       tgtscale="10"
       tgtlength="4"
       tgtlength_rdm="0.3;1" />
    <inkscape:path-effect
       effect="sketch"
       id="path-effect4726"
       is_visible="true"
       nbiter_approxstrokes="6"
       strokelength="49"
       strokelength_rdm="0.2;1265894308"
       strokeoverlap="0"
       strokeoverlap_rdm="0;1"
       ends_tolerance="0;1"
       parallel_offset="0.3;332923567"
       tremble_size="0.3;839300555"
       tremble_frequency="1.5"
       nbtangents="9"
       tgt_places_rdmness="1;1"
       tgtscale="10"
       tgtlength="3.1"
       tgtlength_rdm="0.3;1" />
    <inkscape:path-effect
       effect="sketch"
       id="path-effect4718"
       is_visible="true"
       nbiter_approxstrokes="6"
       strokelength="36"
       strokelength_rdm="0;1"
       strokeoverlap="0"
       strokeoverlap_rdm="0;1"
       ends_tolerance="0;1"
       parallel_offset="0.2;1"
       tremble_size="0.3;1"
       tremble_frequency="1"
       nbtangents="6"
       tgt_places_rdmness="1;1"
       tgtscale="5"
       tgtlength="3"
       tgtlength_rdm="0.3;1" />
    <inkscape:path-effect
       tgtlength_rdm="0.3;1"
       tgtlength="1"
       tgtscale="10"
       tgt_places_rdmness="1;1"
       nbtangents="5"
       tremble_frequency="2.5"
       tremble_size="1.4;578064669"
       parallel_offset="1.8;3984327984"
       ends_tolerance="0.1;1"
       strokeoverlap_rdm="0;1"
       strokeoverlap="0.1"
       strokelength_rdm="0;1"
       strokelength="64"
       nbiter_approxstrokes="5"
       is_visible="true"
       id="path-effect4688"
       effect="sketch" />
    <inkscape:path-effect
       effect="sketch"
       id="path-effect4686"
       is_visible="true"
       nbiter_approxstrokes="5"
       strokelength="64"
       strokelength_rdm="0;1"
       strokeoverlap="0.1"
       strokeoverlap_rdm="0;3558138778"
       ends_tolerance="0.1;3809433546"
       parallel_offset="1.7;425018534"
       tremble_size="1.9;3924171588"
       tremble_frequency="2.5"
       nbtangents="5"
       tgt_places_rdmness="1;1"
       tgtscale="10"
       tgtlength="1"
       tgtlength_rdm="0.3;1" />
    <inkscape:path-effect
       tgtlength_rdm="0.3;1"
       tgtlength="1"
       tgtscale="10"
       tgt_places_rdmness="1;1"
       nbtangents="5"
       tremble_frequency="2.5"
       tremble_size="1.6;3085800891"
       parallel_offset="1.7;685290624"
       ends_tolerance="0.1;3795377318"
       strokeoverlap_rdm="0;1"
       strokeoverlap="0.1"
       strokelength_rdm="0;1"
       strokelength="64"
       nbiter_approxstrokes="5"
       is_visible="true"
       id="path-effect4684"
       effect="sketch" />
    <inkscape:path-effect
       effect="sketch"
       id="path-effect4653"
       is_visible="true"
       nbiter_approxstrokes="5"
       strokelength="64"
       strokelength_rdm="0;1"
       strokeoverlap="0.1"
       strokeoverlap_rdm="0;1"
       ends_tolerance="0.1;1396551781"
       parallel_offset="1.7;2447244489"
       tremble_size="1.6;3085800891"
       tremble_frequency="2.5"
       nbtangents="5"
       tgt_places_rdmness="1;1"
       tgtscale="10"
       tgtlength="1"
       tgtlength_rdm="0.3;1" />
    <inkscape:path-effect
       tgtlength_rdm="0.3;1"
       tgtlength="1"
       tgtscale="10"
       tgt_places_rdmness="1;1"
       nbtangents="5"
       tremble_frequency="2.5"
       tremble_size="1.9;3924171588"
       parallel_offset="1.7;425018534"
       ends_tolerance="0.1;3809433546"
       strokeoverlap_rdm="0;3558138778"
       strokeoverlap="0.1"
       strokelength_rdm="0;1"
       strokelength="64"
       nbiter_approxstrokes="5"
       is_visible="true"
       id="path-effect4649"
       effect="sketch" />
    <inkscape:path-effect
       effect="sketch"
       id="path-effect4451"
       is_visible="true"
       nbiter_approxstrokes="5"
       strokelength="64"
       strokelength_rdm="0;1"
       strokeoverlap="0.1"
       strokeoverlap_rdm="0;1"
       ends_tolerance="0.1;1"
       parallel_offset="1.8;2530572275"
       tremble_size="1.4;578064669"
       tremble_frequency="2.5"
       nbtangents="5"
       tgt_places_rdmness="1;1"
       tgtscale="10"
       tgtlength="1"
       tgtlength_rdm="0.3;1" />
    <inkscape:path-effect
       effect="sketch"
       id="path-effect4273"
       is_visible="true"
       nbiter_approxstrokes="5"
       strokelength="100"
       strokelength_rdm="0.3;1"
       strokeoverlap="0.3"
       strokeoverlap_rdm="0.3;1"
       ends_tolerance="0.1;1"
       parallel_offset="5;1"
       tremble_size="5;1"
       tremble_frequency="1"
       nbtangents="5"
       tgt_places_rdmness="1;1"
       tgtscale="10"
       tgtlength="100"
       tgtlength_rdm="0.3;1" />
    <inkscape:path-effect
       tgtlength_rdm="0.3;1"
       tgtlength="4"
       tgtscale="10"
       tgt_places_rdmness="1;1"
       nbtangents="5"
       tremble_frequency="2.5"
       tremble_size="3.7;1"
       parallel_offset="3.3;1"
       ends_tolerance="0.1;1"
       strokeoverlap_rdm="0.3;1"
       strokeoverlap="0"
       strokelength_rdm="0;1"
       strokelength="70"
       nbiter_approxstrokes="8"
       is_visible="true"
       id="path-effect4271"
       effect="sketch" />
    <inkscape:path-effect
       effect="sketch"
       id="path-effect4267"
       is_visible="true"
       nbiter_approxstrokes="7"
       strokelength="70"
       strokelength_rdm="0;1"
       strokeoverlap="0"
       strokeoverlap_rdm="0.3;1"
       ends_tolerance="0.1;1"
       parallel_offset="2.9;1"
       tremble_size="2.6;1"
       tremble_frequency="1"
       nbtangents="5"
       tgt_places_rdmness="1;1"
       tgtscale="10"
       tgtlength="4"
       tgtlength_rdm="0.3;1" />
    <inkscape:path-effect
       effect="sketch"
       id="path-effect4264"
       is_visible="true"
       nbiter_approxstrokes="7"
       strokelength="100"
       strokelength_rdm="0;1"
       strokeoverlap="0.1"
       strokeoverlap_rdm="0.1;1"
       ends_tolerance="0.1;1"
       parallel_offset="3.1;11672949"
       tremble_size="3;1"
       tremble_frequency="2"
       nbtangents="5"
       tgt_places_rdmness="1;1"
       tgtscale="10"
       tgtlength="4"
       tgtlength_rdm="0.3;1" />
    <marker
       inkscape:stockid="Arrow2Mend"
       orient="auto"
       refY="0.0"
       refX="0.0"
       id="Arrow2Mend"
       style="overflow:visible;">
      <path
         id="path3849"
         style="fill-rule:evenodd;stroke-width:0.62500000;stroke-linejoin:round;"
         d="M 8.7185878,4.0337352 L -2.2072895,0.016013256 L 8.7185884,-4.0017078 C 6.9730900,-1.6296469 6.9831476,1.6157441 8.7185878,4.0337352 z "
         transform="scale(0.6) rotate(180) translate(0,0)" />
    </marker>
    <marker
       inkscape:stockid="Arrow2Mend"
       orient="auto"
       refY="0"
       refX="0"
       id="Arrow2Mend-1"
       style="overflow:visible">
      <path
         inkscape:connector-curvature="0"
         id="path3849-9"
         style="fill-rule:evenodd;stroke-width:0.625;stroke-linejoin:round"
         d="M 8.7185878,4.0337352 -2.2072895,0.01601326 8.7185884,-4.0017078 c -1.7454984,2.3720609 -1.7354408,5.6174519 -6e-7,8.035443 z"
         transform="scale(-0.6,-0.6)" />
    </marker>
    <marker
       inkscape:stockid="Arrow2Mend"
       orient="auto"
       refY="0"
       refX="0"
       id="marker4480"
       style="overflow:visible">
      <path
         inkscape:connector-curvature="0"
         id="path4482"
         style="fill-rule:evenodd;stroke-width:0.625;stroke-linejoin:round"
         d="M 8.7185878,4.0337352 -2.2072895,0.01601326 8.7185884,-4.0017078 c -1.7454984,2.3720609 -1.7354408,5.6174519 -6e-7,8.035443 z"
         transform="scale(-0.6,-0.6)" />
    </marker>
    <marker
       inkscape:stockid="Arrow2Mend"
       orient="auto"
       refY="0"
       refX="0"
       id="marker4484"
       style="overflow:visible">
      <path
         inkscape:connector-curvature="0"
         id="path4486"
         style="fill-rule:evenodd;stroke-width:0.625;stroke-linejoin:round"
         d="M 8.7185878,4.0337352 -2.2072895,0.01601326 8.7185884,-4.0017078 c -1.7454984,2.3720609 -1.7354408,5.6174519 -6e-7,8.035443 z"
         transform="scale(-0.6,-0.6)" />
    </marker>
    <marker
       inkscape:stockid="Arrow2Mend"
       orient="auto"
       refY="0"
       refX="0"
       id="marker4488"
       style="overflow:visible">
      <path
         inkscape:connector-curvature="0"
         id="path4490"
         style="fill-rule:evenodd;stroke-width:0.625;stroke-linejoin:round"
         d="M 8.7185878,4.0337352 -2.2072895,0.01601326 8.7185884,-4.0017078 c -1.7454984,2.3720609 -1.7354408,5.6174519 -6e-7,8.035443 z"
         transform="scale(-0.6,-0.6)" />
    </marker>
    <marker
       inkscape:stockid="Arrow2Mend"
       orient="auto"
       refY="0"
       refX="0"
       id="marker4492"
       style="overflow:visible">
      <path
         inkscape:connector-curvature="0"
         id="path4494"
         style="fill-rule:evenodd;stroke-width:0.625;stroke-linejoin:round"
         d="M 8.7185878,4.0337352 -2.2072895,0.01601326 8.7185884,-4.0017078 c -1.7454984,2.3720609 -1.7354408,5.6174519 -6e-7,8.035443 z"
         transform="scale(-0.6,-0.6)" />
    </marker>
    <marker
       inkscape:stockid="Arrow2Mend"
       orient="auto"
       refY="0"
       refX="0"
       id="marker4496"
       style="overflow:visible">
      <path
         inkscape:connector-curvature="0"
         id="path4498"
         style="fill-rule:evenodd;stroke-width:0.625;stroke-linejoin:round"
         d="M 8.7185878,4.0337352 -2.2072895,0.01601326 8.7185884,-4.0017078 c -1.7454984,2.3720609 -1.7354408,5.6174519 -6e-7,8.035443 z"
         transform="scale(-0.6,-0.6)" />
    </marker>
    <inkscape:path-effect
       effect="sketch"
       id="path-effect4718-3"
       is_visible="true"
       nbiter_approxstrokes="6"
       strokelength="36"
       strokelength_rdm="0;1"
       strokeoverlap="0"
       strokeoverlap_rdm="0;1"
       ends_tolerance="0;1"
       parallel_offset="0.2;1"
       tremble_size="0.3;1"
       tremble_frequency="1"
       nbtangents="6"
       tgt_places_rdmness="1;1"
       tgtscale="5"
       tgtlength="3"
       tgtlength_rdm="0.3;1" />
    <inkscape:path-effect
       effect="sketch"
       id="path-effect4760-6"
       is_visible="true"
       nbiter_approxstrokes="6"
       strokelength="40"
       strokelength_rdm="0.3;1"
       strokeoverlap="0.3"
       strokeoverlap_rdm="0.3;1"
       ends_tolerance="0;1"
       parallel_offset="0.4;1"
       tremble_size="0.1;1"
       tremble_frequency="1"
       nbtangents="5"
       tgt_places_rdmness="1;1"
       tgtscale="10"
       tgtlength="3"
       tgtlength_rdm="0.3;1" />
  </defs>
  <sodipodi:namedview
     id="base"
     pagecolor="#ffffff"
     bordercolor="#666666"
     borderopacity="1.0"
     inkscape:pageopacity="0.0"
     inkscape:pageshadow="2"
     inkscape:zoom="1.352444"
     inkscape:cx="484.09094"
     inkscape:cy="397.78052"
     inkscape:document-units="px"
     inkscape:current-layer="layer1"
     showgrid="false"
     inkscape:window-width="3436"
     inkscape:window-height="1388"
     inkscape:window-x="1680"
     inkscape:window-y="32"
     inkscape:window-maximized="0" />
  <metadata
     id="metadata7">
    <rdf:RDF>
      <cc:Work
         rdf:about="">
        <dc:format>image/svg+xml</dc:format>
        <dc:type
           rdf:resource="http://purl.org/dc/dcmitype/StillImage" />
        <dc:title />
      </cc:Work>
    </rdf:RDF>
  </metadata>
  <g
     inkscape:label="Layer 1"
     inkscape:groupmode="layer"
     id="layer1"
     transform="translate(0,-308.2677)">
    <path
       style="fill:#d40000;fill-opacity:0;stroke:#000000;stroke-width:1;stroke-linecap:butt;stroke-miterlimit:4;stroke-opacity:1;stroke-dasharray:none;stroke-dashoffset:0"
       d="m 737.01569,339.378 c 27.51961,-0.54017 53.71475,-0.20834 79.95247,-0.0723 m -20.10185,-6.11505 c 23.63356,-0.24093 47.97654,-0.0305 72.57545,0.26569 m -19.33564,3.43744 c 24.21039,-0.25636 49.48288,-0.60248 74.75314,-1.44996 m -13.32543,1.6612 c 32.56151,0.63862 63.80067,0.3889 96.09997,0.97943 m -32.00903,-5.33916 c 11.65566,-0.17522 23.6319,-0.28688 35.84873,-0.4029 0.4791,16.22537 1.4166,32.44242 2.602,48.47246 m -0.3104,-17.67925 c -0.4782,25.95109 0.4247,50.33748 1.8715,73.92381 m -4.3325,-15.20474 c -0.3449,19.64544 0.072,39.18633 0.8862,58.62528 -5.037,-0.054 -10.0455,-0.11534 -15.03238,-0.18391 m 18.66998,-3.34797 c 0,0.32137 0.01,0.64287 0.011,0.96452 -22.82972,-0.11536 -46.46698,0.47201 -70.51498,1.57363 m 14.18615,0.70524 c -30.21966,0.34527 -61.60781,-0.62223 -92.87777,-2.04234 m 27.39837,-0.69969 c -30.68773,0.8385 -60.11373,0.81496 -89.19822,2.0357 m 21.90384,0.61255 c -26.58712,0.23746 -54.48596,-0.0147 -82.07525,-0.29077 m 17.29272,-3.01385 c -11.69021,0.18886 -23.63792,0.16442 -35.70978,1e-5 -0.0563,-18.22448 -0.38969,-36.76136 -0.55552,-55.36613 m -0.68102,28.98495 c 0.63335,-27.70759 0.73529,-54.32277 1.63891,-79.50453 m 2.29813,16.59351 c -0.40766,-17.23168 -0.61963,-34.55467 -0.98052,-51.52914 6.6162,0.29569 13.21084,0.64183 19.76496,1.06263 m -9.44032,-3.65627 c 26.43359,-0.43199 52.23088,-0.20089 77.58189,-0.10402 m -18.32395,1.65123 c 30.25218,0.5156 61.74191,0.60811 93.70205,1.56802 m -25.52671,-0.88838 c 32.81485,0.40249 64.91574,-1.20723 97.39386,-3.70536 m -29.36106,0.68194 c 26.79841,0.38244 53.74782,0.8489 80.95712,2.14195 0.102,6.20727 0.2168,12.45506 0.3455,18.75139 m -12.4395,-21.71374 c 3.6966,0.0198 7.4048,0.0288 11.1251,0.0275 0.2305,23.7033 0.9619,46.98516 2.3241,70.04268 m -7.1065,-14.74758 c 0.6127,29.6507 1.0958,59.68962 2.9511,89.13514 m 0.4238,-24.0664 c 0.077,9.55205 0.095,19.0857 0.075,28.58363 -21.92311,-0.27694 -44.04666,-0.73859 -66.14572,-1.58851 m 28.84055,0.66845 c -33.23555,-0.96429 -64.85125,0.40529 -96.4551,1.30564 m 26.98282,0.89767 c -31.52374,-0.33323 -63.11857,-1.65833 -94.6621,-4.86231 m 23.29227,4.55767 c -33.50281,-0.20963 -65.78174,-0.0642 -97.93114,-0.1853 m 30.36996,-5.55657 c -13.0017,0.34118 -26.22234,0.64402 -39.55366,1.07158 -0.12224,-16.12332 -0.41991,-32.04896 -0.67698,-47.45155 m 2.30893,25.5186 c -0.27286,-23.78522 -0.41486,-47.29287 -0.83337,-70.56465 m 1.86482,16.91243 c 0.18382,-21.58403 0.24505,-42.74597 0.41164,-63.94157 8.01459,0.002 16.044,-2.9e-4 24.10026,-0.0316 m -17.09023,0.4157 c 24.41805,0.28666 49.41994,0.0172 74.06768,-0.33696 m -17.32138,0.96977 c 28.01439,0.33458 56.55199,-0.82713 85.60205,-2.78834 m -24.68451,-4.05572 c 32.62624,-0.64273 66.49324,0.64977 100.30973,1.98313 m -29.46794,4.74389 c 27.14537,0.73069 55.07668,0.41875 83.36162,0.53042 m -14.46653,-5.14782 c 8.17043,0.0419 16.31113,0.074 24.43163,0.10384 0,19.58288 -0.11,39.1526 -0.2074,58.81252 m -1.9763,-18.83932 c 0.3645,30.50668 -0.7313,61.71249 -2.3524,93.56809 m 0.4303,-29.8286 c -0.1318,13.63277 -0.1437,27.37922 -0.1036,41.19542 -17.56697,0.11996 -35.04833,0.35488 -52.58811,0.61181 m 29.40503,-3.38098 c -28.73103,0.14536 -58.92373,0.92058 -88.7767,2.685 m 17.53142,6.64318 c -30.99616,0.32465 -61.07887,0.0598 -90.78415,0.0449 m 25.01271,-9.44372 c -24.44996,-0.66467 -48.00736,-0.32776 -71.5929,0.002 m 17.31513,6.58428 c -23.26063,-0.13316 -47.98192,-0.31297 -73.55302,-0.73386 -0.73497,-9.31754 -1.59705,-18.67115 -2.55091,-28.07206 m 9.36875,30.56389 c -0.53117,0.006 -1.06262,0.0113 -1.59434,0.0167 0.64523,-31.10894 0.37612,-62.70185 1.0036,-93.91746 m -5.74902,17.77508 c 1.3e-4,-24.23931 0.50663,-48.1157 1.50957,-71.37925 m 0.36518,24.68043 c -0.17461,-7.15872 -0.21285,-14.38272 -0.13925,-21.66091 22.61162,-0.12307 46.29279,-0.76436 70.31809,-1.59581 m -68.7724,-3.16975 c 30.95735,-0.75895 63.73233,0.69333 97.00032,2.35104 m -25.2436,1.49294 c 24.98058,-0.0295 50.25427,-0.008 75.50007,-3.5e-4 m -18.19828,-2.67129 c 24.887,0.56202 50.56591,0.22363 75.91172,-0.009 m -19.74719,-0.55367 c 23.44382,-0.16919 47.88514,-0.026 72.32795,0.14996 m -16.99336,3.13155 c 13.98707,0.27257 28.14636,0.20375 42.45939,-0.0634 0.3246,15.22862 0.8377,30.21407 1.5141,45.1506 m -1.4217,-24.26114 c 0.054,32.85693 0.2522,65.97004 0.752,99.34533 m -3.5175,-31.34357 c 0.3068,17.4722 0.6038,35.17265 1.1483,52.92354 -12.3245,0.0454 -24.52111,0.11695 -36.49427,0.14848 m 25.06247,-0.68857 c -33.26335,-0.16366 -68.26788,-0.20745 -105.03874,-0.62991 m 34.922,1.68449 c -30.41356,-0.48361 -63.18822,-1.03037 -96.06923,-2.93253 m 28.87988,-1.66128 c -31.47121,-0.67774 -62.52,0.006 -94.11976,0.27724 m 30.98037,2.62936 c -22.356,0.31144 -44.82523,-0.26015 -67.16341,-1.27853 0.0517,-6.01334 0.112,-12.05578 0.18488,-18.12008 m -0.97683,16.0232 c -1.48809,-0.0394 -2.97269,-0.0727 -4.45402,-0.10004 -0.5456,-27.22854 0.0186,-52.44321 0.41404,-77.04796 m -4.76796,25.83847 c 0.0491,-25.95592 0.53797,-52.08369 1.56292,-78.04667 m 2.04645,13.54293 c 0.0167,-8.97298 -0.0135,-17.94529 -0.0871,-26.92648 23.43028,-0.14355 46.55636,-0.34927 69.44253,-0.79398 m -62.54307,3.40073 c 26.34094,0.33545 53.98102,0.66649 81.61931,1.63964 m -22.052,-3.18692 c 26.82495,-0.75294 55.07744,0.13101 83.94347,1.15812 m -16.42248,-3.1267 c 26.33877,-0.29562 51.50608,0.50991 75.56911,1.87089 m -24.10688,0.12147 c 30.42571,0.18851 60.84952,-0.42332 92.75324,-1.38198 m -21.5171,-1.68853 c 10.24529,-0.14282 20.5757,-0.0589 30.9099,0.21016 -0.3255,19.2743 -0.6388,39.13969 -1.4043,59.35832 m -0.792,-22.09358 c 0.4603,31.7 -0.025,62.74349 -0.2086,93.14978 m 1.8724,-25.8477 c -0.1524,14.4252 -0.049,29.19876 0.2234,44.1066 -10.461,0.0882 -20.83407,0.24621 -31.1518,0.39378 m 15.33289,-4.45635 c -24.78226,-0.0628 -48.97449,0.0355 -73.21105,0.19827 m 17.74645,5.91907 c -31.32875,0.37905 -60.76629,0.43248 -90.32366,1.12699 m 23.16243,-3.33022 c -24.37915,0.0626 -47.75981,0.49237 -70.36578,1.39795 m 18.21181,2.11742 c -25.76423,-0.60064 -51.61324,-0.2284 -77.77805,0.0446 m 18.47093,-3.32589 c -10.22361,-0.26392 -20.68642,-0.3309 -31.32617,-0.27812 -0.26958,-13.41976 -0.835,-26.63928 -1.56168,-39.82537 m -3.98409,18.90783 c 0.49603,-25.83236 0.70962,-53.026 1.58318,-80.39018 m -2.45043,14.52554 c 0.239,-19.89095 0.17982,-39.89968 0.0808,-59.90022 5.64556,8.2e-4 11.28791,0.002 16.93295,0.007 m 155.18368,146.69565 -32.17187,0 m -137.96316,-80.66313 0,-28.70312 m 0,110.04307 0,-29.82813 m 122.3449,-116.34928 38.03125,0 m 135.15799,145.50059 -33.90628,0"
       id="rect4272"
       inkscape:connector-curvature="0"
       inkscape:path-effect="#path-effect4801"
       inkscape:original-d="m 728.66376,334.64383 285.31244,0 0,145.50059 -285.31244,0 z" />
    <text
       xml:space="preserve"
       style="font-size:608.45928955px;font-style:normal;font-variant:normal;font-weight:normal;font-stretch:normal;line-height:125%;letter-spacing:0px;word-spacing:0px;fill:#000000;fill-opacity:1;stroke:none;font-family:Serif;-inkscape-font-specification:Serif"
       x="792.79602"
       y="424.28418"
       id="text4464"
       sodipodi:linespacing="125%"><tspan
         sodipodi:role="line"
         id="tspan4466"
         x="792.79602"
         y="424.28418"
         style="font-size:60.84592056px;font-style:normal;font-variant:normal;font-weight:normal;font-stretch:normal;fill:#000000;fill-opacity:1;font-family:Sketch Block;-inkscape-font-specification:Sketch Block">state</tspan></text>
    <path
       style="fill:none;stroke:#000000;stroke-width:1.29999995;stroke-linecap:butt;stroke-linejoin:miter;stroke-miterlimit:4;stroke-opacity:1;stroke-dasharray:31.2, 31.2;stroke-dashoffset:0"
       d="m 316.2267,344.43538 c 0.88182,15.99214 -0.28408,33.3291 -0.86771,49.96697 -0.58375,16.6412 -0.49617,32.82997 -1.47656,48.5 0,0 0,0 -10e-6,0 -1.9e-4,0.003 -3.9e-4,0.006 -5.8e-4,0.009 m 0.0587,-12.18086 c -0.86625,16.31959 0.17943,32.481 0.56302,47.4824 0,0 0,0 0,0 0.38367,15.0044 0.32945,33.82442 0.96094,51.45312 0,0 0,0 0,0 1.2e-4,0.004 2.5e-4,0.007 3.8e-4,0.0106 m -4.17809,-9.80322 c -0.60043,16.17145 1.32785,32.84247 4.00818,48.51374 0,0 0,0 0,0 2.68085,15.6744 -1.1625,34.69833 -3.46875,54.07812 -4.7e-4,0.004 -9.3e-4,0.008 -0.001,0.0116 m 1.47838,-11.45709 c -0.58495,16.67102 1.02075,33.04014 3.04722,49.12281 0,0 0,0 0,0 2.02688,16.08588 0.19157,33.87825 0.5625,51.64061 0,10e-6 0,10e-6 0,10e-6 8e-5,0.004 1.5e-4,0.007 2.3e-4,0.0107 m 1.65947,-4.94106 c 0.53841,17.03764 -0.29786,32.52932 -0.86751,47.57571 0,0 0,0 0,0 -0.56977,15.04941 -0.32429,32.70974 -0.96094,48.10156 0,0 0,0 0,0 -1.2e-4,0.003 -2.5e-4,0.006 -3.8e-4,0.009 m -2.53731,-4.64281 c 0.9834,16.95205 0.024,33.17799 0.0463,49.52107 0,10e-6 0,10e-6 0,10e-6 0.0223,16.34635 -0.9436,32.487 -2.85938,47.4453 0,0 0,10e-6 0,10e-6 -3.8e-4,0.003 -7.6e-4,0.006 -0.001,0.009 m 2.50942,-12.9887 c 0.75736,16.85142 0.75524,35.26671 2.27298,55.82582 0,0 0,10e-6 0,10e-6 1.51805,20.56322 0.3986,31.54621 1.21875,44.60936 0,0 0,0 0,10e-6 1.7e-4,0.003 3.3e-4,0.005 4.9e-4,0.008 m -3.0512,-6.76848 c 0.11676,16.11699 -0.79068,33.29098 -2.32038,49.91998 -0.0717,0.7793 -0.13602,1.5576 -0.19347,2.3349 m 1.60887,-682.69495 c -0.37447,17.05371 0.40273,33.68228 1.19554,51.04446 0.79297,17.36565 0.0272,32.0359 0.0937,46.08593 0,0 0,0 0,0 10e-6,0.003 2e-5,0.006 4e-5,0.008 m -0.2755,-9.37982 c -0.7577,16.42101 -1.60847,32.3751 -4.82767,47.13077 0,0 0,0 0,0 -3.21984,14.75862 1.17078,32.79974 3.53906,48.40624 0,1e-5 0,1e-5 0,1e-5 4.8e-4,0.003 9.5e-4,0.006 0.001,0.009 m 3.52652,-6.05711 c -0.3124,16.77324 -0.54425,34.91865 -1.64044,54.77119 0,0 0,0 0,0 -1.0964,19.85651 -0.16359,32.64333 -0.49218,47.91406 -7e-5,0.003 -1.4e-4,0.006 -2e-4,0.009 m -1.27063,-10.9354 c -0.85886,17.45984 -0.85084,34.40904 -2.55417,53.24733 0,0 0,0 0,10e-6 -1.70368,18.84205 0.0298,31.52512 0.0703,44.58593 0,0 0,0 0,0 1e-5,0.003 1e-5,0.005 2e-5,0.008 m 2.34163,-5.70565 c 0.40597,16.66266 0.31824,31.6549 0.93725,44.95093 10e-6,10e-6 10e-6,10e-6 10e-6,10e-6 0.61914,13.2987 -0.21821,34.80958 -0.67969,54.45311 0,10e-6 0,10e-6 0,10e-6 -9e-5,0.004 -1.9e-4,0.008 -2.8e-4,0.0118 m -0.37663,-7.64445 c -0.56964,17.17059 0.26115,33.21093 0.77378,49.66157 0,0 0,0 0,0 0.51274,16.45393 0.27578,33.17513 0.84375,49.55468 0,0 0,0 0,0 1.2e-4,0.003 2.3e-4,0.007 3.4e-4,0.01 m 1.88487,-9.65957 c 0.0932,17.35027 -1.06305,33.63505 -3.18755,50.90365 0,0 0,0 0,10e-6 -2.12492,17.27205 0.72508,32.01145 2.17969,46.01561 0,0 0,0 0,0 2.9e-4,0.003 5.8e-4,0.006 8.7e-4,0.008 m -4.0944,-12.62504 c 0.36697,16.54659 0.37839,34.13896 1.14821,52.38066 0.14298,3.3879 0.25534,6.675 0.35183,9.8916 m 1.40064,-695.05255 c 0.2107,16.83511 -0.0782,33.5064 -0.21106,50.52896 0,0 0,0 0,0 -0.13289,17.02596 -0.66008,32.89567 -1.99219,48.68749 0,0 0,0 0,1e-5 -2.6e-4,0.003 -5.3e-4,0.006 -8e-4,0.009 M 310.9838,424.9255 c -0.31997,16.4449 0.0672,33.56073 0.18769,50.71669 0,0 0,10e-6 0,10e-6 0.12055,17.15939 1.31343,33.38965 3.91406,50.16405 0,0 0,0 0,10e-6 5.2e-4,0.003 0.001,0.007 0.002,0.0101 m -1.67982,-5.5772 c -0.21827,17.01455 0.63265,33.33904 1.87514,50.03667 0,0 0,0 0,0 1.24273,16.70096 -0.43039,31.3631 -1.26563,44.11718 -1.7e-4,0.003 -3.3e-4,0.005 -5e-4,0.008 m 4.26882,-7.79621 c 0.57685,16.47584 -1.74168,32.85926 -5.25035,48.6073 0,10e-6 0,10e-6 0,10e-6 -3.50937,15.75119 1.15562,34.49309 3.44531,53.46874 0,0 0,0 0,10e-6 4.6e-4,0.004 9.2e-4,0.008 0.001,0.0114 M 313.68789,698.357 c 3.8e-4,16.86669 0.94405,34.41371 2.8125,53.27113 0,0 0,10e-6 0,10e-6 1.86883,18.86119 -0.71117,33.76668 -2.10937,51.28905 0,0 0,0 0,0 -2.8e-4,0.004 -5.6e-4,0.007 -8.4e-4,0.0105 m 0.6099,-13.77444 c -0.53033,15.8598 0.97946,34.20157 2.95344,52.63892 0,10e-6 0,10e-6 0,10e-6 1.97437,18.44103 0.56781,33.122 1.71094,49.36718 0,0 0,0 0,0 2.2e-4,0.003 4.5e-4,0.006 6.8e-4,0.01 m -1.75352,-11.59931 c -0.82742,17.39695 -0.30643,33.26168 -0.93701,49.8255 0,0 0,0 0,0 -0.6307,16.56713 0.35063,33.0263 1.07813,49.08593 0,0 0,0 0,10e-6 1.4e-4,0.003 2.9e-4,0.006 4.3e-4,0.01 m -4.66845,-4.93831 c -0.0777,17.31087 0.8202,32.69672 2.43755,48.06772 0.27902,2.6517 0.44879,5.3706 0.53422,8.1367 m 1.25172,-687.71789 c 0.007,15.68761 -0.79142,32.99493 -2.39063,49.00621 -1.59953,16.01448 1.12117,33.33239 3.35156,50.02343 0,0 0,0 0,10e-6 4.5e-4,0.003 9e-4,0.007 0.001,0.01 m -8.56849,-13.2045 c 0.0631,16.99158 1.75191,34.45458 5.22653,53.38824 0,0 0,0 0,0 3.47531,18.93744 -0.87164,32.23005 -2.60156,46.67187 0,0 0,0 0,0 -3.5e-4,0.003 -7e-4,0.006 -0.001,0.009 m -0.68364,-9.70718 c 0.80409,16.80431 0.51808,34.54261 1.54639,53.62273 10e-6,0 10e-6,0 10e-6,10e-6 1.02851,19.08393 0.29765,32.32544 0.86718,46.99999 1.2e-4,0.003 2.3e-4,0.006 3.4e-4,0.009 m 0.0937,-3.89247 c -0.76509,16.81134 -0.5929,32.62559 -1.78079,47.88054 0,0 0,0 0,0 -1.18812,15.25799 0.84055,33.53622 2.53125,50.58593 0,0 0,0 0,0 3.4e-4,0.003 6.8e-4,0.007 0.001,0.0102 m -4.02979,-12.65685 c 0.22622,16.0469 -0.29751,33.67507 -0.86732,51.02162 0,0 0,0 0,10e-6 -0.56992,17.35002 0.33984,34.15293 1.03125,52.43749 0,0 0,0 0,0 1.4e-4,0.004 2.8e-4,0.007 4.1e-4,0.011 m 5.87954,-7.29909 c -0.8662,15.89043 0.29798,32.71377 0.89114,48.16234 0.59329,15.45167 -1.78804,34.35302 -5.36718,53.07031 0,0 0,0 0,0 -7.2e-4,0.004 -0.001,0.007 -0.002,0.0112 m 0.64846,-14.07937 c -0.92904,16.63965 -0.71144,32.65001 -2.10881,47.97439 0,10e-6 0,10e-6 0,10e-6 -1.39766,15.32744 -0.86368,34.70669 -2.60157,54.14843 0,0 0,0 0,0 -3.4e-4,0.004 -6.9e-4,0.008 -0.001,0.0117 m 3.57689,-7.92509 c 0.10154,16.69439 0.20421,32.90429 0.63275,48.77119 0.008,0.301 0.0162,0.6026 0.0241,0.9048 m 1.45524,-697.3995 c -0.53851,16.57754 0.0244,33.45701 0.0706,50.38849 0,1e-5 0,1e-5 0,1e-5 0.0462,16.93487 0.28023,34.47809 0.86718,53.42187 1.2e-4,0.004 2.4e-4,0.008 3.6e-4,0.0114 m -2.50204,-8.75053 c -0.20233,16.74953 1.48643,34.19595 4.47669,52.61495 0,0 0,0 0,0 2.99085,18.42268 -0.11883,33.59896 -0.35157,50.82031 0,0 0,0 0,0 -4e-5,0.003 -9e-5,0.007 -1.4e-4,0.0103 m -2.40805,-12.22037 c 0.66295,15.82055 -1.11178,33.65222 -3.30509,50.97488 0,0 0,0 0,0 -2.19375,17.32612 0.39688,33.15372 1.17188,49.4375 1.5e-4,0.003 3.1e-4,0.007 4.6e-4,0.01 m -3.83226,-11.80435 c 0.39803,16.85067 -0.0315,33.37603 -0.094,50.15395 0,0 0,0 0,10e-6 -0.0625,16.78127 1.42329,33.59317 4.28907,50.77342 0,10e-6 0,10e-6 0,10e-6 5.7e-4,0.003 0.001,0.007 0.002,0.0103 m -1.40384,-8.63964 c -0.92054,16.22616 1.03394,33.04346 3.0943,49.12308 10e-6,0 10e-6,0 10e-6,0 2.06078,16.08284 -0.49211,34.9213 -1.47657,54.78124 0,0 0,10e-6 0,10e-6 -1.9e-4,0.004 -3.9e-4,0.008 -5.9e-4,0.0119 m 1.19642,-10.75603 c -0.44529,17.61546 -1.05609,33.19409 -3.14036,49.59099 0,10e-6 0,10e-6 0,10e-6 -2.08469,16.40018 1.28758,32.66864 3.84375,48.03124 0,0 0,0 0,0 5.1e-4,0.003 0.001,0.006 0.002,0.009 m -3.28406,-7.44327 c -0.82719,16.16338 0.25053,32.18487 0.77394,46.56843 0,0 0,0 0,0 0.52351,14.38643 -0.0482,33.58794 -0.16406,50.74999 0,10e-6 0,10e-6 0,10e-6 -3e-5,0.003 -5e-5,0.007 -7e-5,0.0103 m 1.08764,-9.94929 c 0.13324,17.04579 1.39521,33.39487 4.19524,50.17727 0.848,5.0826 1.08236,10.1335 0.93747,15.1619 m -0.49562,-696.21622 c -0.55413,17.53761 -0.009,33.70153 -0.0231,51.11448 0,0 0,0 0,0 -0.0141,17.41643 -1.02227,32.58771 -3.09375,47.77343 -4.2e-4,0.003 -8.3e-4,0.006 -0.001,0.009 m 2.42423,-7.23137 c 0.55402,17.59959 -0.27099,32.55635 -0.79721,47.69257 0,0 0,0 0,0 -0.52633,15.13924 0.39515,34.29169 1.17187,52.8828 0,10e-6 0,10e-6 0,10e-6 1.6e-4,0.004 3.1e-4,0.007 4.7e-4,0.0112 m -7.4859,-7.26883 c 0.8355,17.13939 1.00725,33.25525 3.04637,49.75534 0,0 0,0 0,0 2.03953,16.50338 -0.32687,32.13872 -0.98437,46.39062 -1.4e-4,0.003 -2.7e-4,0.006 -4e-4,0.009 m -2.23993,-10.28882 c -0.80374,15.96092 0.36414,33.33116 1.07861,50.01386 0,10e-6 0,10e-6 0,10e-6 0.71461,16.68604 1.13883,32.85458 3.44531,48.5703 0,0 0,0 0,1e-5 4.6e-4,0.003 9.2e-4,0.006 0.001,0.009 m 0.012,-3.13948 c 0.10112,16.31985 -0.86869,33.1411 -2.60162,49.45114 0,0 0,0 0,0 -1.73328,16.31331 1.13562,33.32075 3.42187,49.97656 0,0 0,0 0,0 4.6e-4,0.003 9.2e-4,0.007 0.001,0.01 m 0.84361,-11.21492 c -0.56189,16.53052 0.11898,32.99676 0.3519,48.98227 0,0 0,0 0,0 0.23297,15.9887 -1.15867,33.61958 -3.46875,50.84374 0,0 0,0 0,10e-6 -4.6e-4,0.003 -9.3e-4,0.007 -0.001,0.0103 m 2.17589,-10.8404 c 0.47569,17.5921 -1.00076,33.34768 -3.00028,50.05975 0,10e-6 0,10e-6 0,10e-6 -1.99992,16.71541 1.08586,33.01754 3.28125,49.03905 0,0 0,0 0,1e-5 4.4e-4,0.003 8.8e-4,0.006 0.001,0.01 m 0.44542,-9.01887 c -0.24208,15.81288 -0.3248,33.97295 -0.93736,51.88895 -0.12563,3.6746 -0.1635,7.2306 -0.1293,10.7004 m 0.59903,-697.69565 c 0.32754,15.74258 -0.65006,33.80827 -1.92207,51.42024 -1.27227,17.6155 0.49656,33.65193 1.47656,50.9375 0,0 0,0 0,0 2e-4,0.003 3.9e-4,0.007 5.9e-4,0.0104 m 2.65192,-13.16685 c 0.28123,16.53135 0.64049,35.0826 1.94515,55.24008 0,0 0,0 0,0 1.30492,20.16151 -1.35078,32.48778 -4.03125,47.44531 0,0 0,0 0,0 -5.4e-4,0.003 -0.001,0.006 -0.002,0.009 m -3.40969,-13.00306 c -0.59308,16.35098 0.19372,32.93404 0.5863,48.81831 0,0 0,0 0,0 0.39265,15.88745 0.17851,35.17779 0.51562,55.50781 7e-5,0.004 1.4e-4,0.008 2e-4,0.0122 m 2.35802,-12.92067 c 0.67147,15.82853 0.66056,34.06339 1.96834,52.17019 1e-5,0 1e-5,0 1e-5,0 1.30804,18.11042 -0.0371,32.19692 -0.14063,46.57812 0,0 0,0 0,0 -2e-5,0.003 -4e-5,0.006 -6e-5,0.009 m -0.35,-3.01142 c -0.10189,16.17888 -1.06482,31.91842 -3.18744,45.74811 0,0 0,0 0,0 -2.12305,13.83245 1.40484,35.21614 4.21875,55.62499 0,0 0,10e-6 0,10e-6 5.6e-4,0.004 0.001,0.008 0.002,0.0122 m -7.39101,-12.72847 c -0.43726,17.21771 -0.49032,33.94736 -1.45287,51.86466 0,10e-6 0,10e-6 0,10e-6 -0.96273,17.92088 1.33711,33.847 4.03125,51.5703 0,0 0,10e-6 0,10e-6 5.4e-4,0.004 0.001,0.007 0.002,0.0106 m -1.00382,-8.91498 c 0.24215,16.19498 0.50802,33.12499 1.49986,49.38091 0,0 0,0 0,0 0.99203,16.25917 -1.41328,33.96317 -4.26563,51.87499 0,10e-6 0,10e-6 0,10e-6 -5.7e-4,0.004 -0.001,0.007 -0.002,0.0108 m 3.66659,-13.57812 c 0.0622,16.62448 -0.5907,33.73817 -1.73441,51.18537 -0.14797,2.2573 -0.2336,4.498 -0.2642,6.7272 m 2.98139,-242.48037 0,6.43437 m 0,197.12597 0,5.74062 m 0,-71.76019 0,5.96562 m 0,-487.35832 0,7.60625 m 0,234.46551 0,6.78125"
       id="path4652"
       inkscape:connector-curvature="0"
       inkscape:path-effect="#path-effect4264"
       inkscape:original-d="m 314.19805,333.16225 0,703.00875"
       sodipodi:nodetypes="cc" />
    <path
       style="fill:none;stroke:#000000;stroke-width:1;stroke-linecap:butt;stroke-miterlimit:4;stroke-opacity:1;stroke-dasharray:none;stroke-dashoffset:0"
       d="m 262.95859,660.70156 c 24.09448,-0.58188 46.41604,0.006 69.23811,-0.0201 0.003,-10e-6 0.007,-10e-6 0.01,-10e-6 m 1.33644,-5.26032 c 12.479,-0.20061 24.38204,-0.24312 35.99361,-0.28855 -0.48226,11.15383 -1.21265,22.30517 -1.96771,33.32753 -2.2e-4,0.003 -4.5e-4,0.007 -6.7e-4,0.01 m -0.64977,2.66603 c 0.79171,23.91197 0.31306,46.97304 0.97466,70.92413 1e-4,0.003 1.9e-4,0.007 2.9e-4,0.0103 m 4.12125,-1.17341 c -0.4367,13.47269 -0.70123,26.888 -1.20183,40.60439 -10.63258,0.49079 -21.40966,1.1659 -32.52679,2.19699 -0.004,3.4e-4 -0.007,6.7e-4 -0.0109,0.001 m -5.26421,-7.09866 c -23.8372,0.007 -45.77391,-0.24731 -67.34916,-0.75157 -0.003,-7e-5 -0.006,-1.4e-4 -0.009,-2.1e-4 m 0.0971,4.42661 c -3.3389,-0.0554 -6.67143,-0.0928 -9.99294,-0.11569 0.52925,-20.05156 1.4337,-39.61078 3.63586,-59.39384 3.7e-4,-0.003 7.4e-4,-0.007 0.001,-0.01 m -1.85751,-0.5427 c -0.34488,-22.53141 0.6333,-45.96787 1.8689,-67.87784 1.8e-4,-0.003 3.6e-4,-0.006 5.3e-4,-0.009 m 0.19277,-2.37454 c 0.14561,-4.24042 0.20815,-8.55389 0.20272,-12.92722 18.93937,-0.0273 36.597,-1.18338 54.20773,-2.38823 0.003,-2.1e-4 0.006,-4.2e-4 0.009,-6.3e-4 m -55.44703,-3.29461 c 23.98649,0.16286 47.31368,1.679 71.96003,5.05774 0.004,4.9e-4 0.007,9.7e-4 0.0106,0.001 m 1.80477,1.06981 c 11.30032,0.18275 22.88023,0.1222 34.62371,-0.0469 0.29387,11.69507 0.76325,23.27367 1.27918,34.88556 1.5e-4,0.003 2.9e-4,0.007 4.4e-4,0.01 m -3.61853,-3.00036 c -0.29074,23.81731 0.69308,47.19968 2.09231,71.59448 2e-4,0.003 4e-4,0.007 6e-4,0.0105 m 1.07113,-2.75019 c -0.18729,12.74948 -0.30349,25.1902 -0.50803,37.60402 -11.09522,-7e-4 -22.25873,-0.0222 -33.5989,0.12707 -0.003,4e-5 -0.007,9e-5 -0.0104,1.4e-4 m -2.25504,5.78274 c -23.23499,0.15548 -45.64838,-0.46352 -66.92286,-1.38132 -0.003,-1.3e-4 -0.006,-2.6e-4 -0.009,-3.9e-4 m 0.6326,-0.92535 c -2.76948,0.0112 -5.53798,0.0387 -8.30684,0.0831 -0.23431,-20.25859 -0.48857,-39.56448 -1.32803,-57.71623 -1.4e-4,-0.003 -2.8e-4,-0.006 -4.1e-4,-0.009 m -0.25684,-8.81483 c -0.50055,-24.1824 0.4569,-46.25695 1.40178,-68.81151 1.3e-4,-0.003 2.7e-4,-0.006 4e-4,-0.01 m -1.76814,1.28001 c 0.0868,-3.74067 0.15782,-7.42545 0.21974,-11.05793 19.96676,0.31945 39.6752,2.11799 60.11425,4.8554 0.003,4.7e-4 0.007,9.3e-4 0.0104,0.001 m -52.7115,-6.68311 c 23.8374,0.74462 46.47372,1.27645 69.40072,3.85906 0.003,3.7e-4 0.007,7.3e-4 0.01,0.001 m 0.30464,0.47877 c 11.43131,0.22014 23.16708,0.19421 35.02003,0.0906 0.17403,11.54807 0.4647,23.01878 0.68607,34.57931 6e-5,0.003 1.2e-4,0.007 1.8e-4,0.01 m 4.64563,-0.6904 c -0.64288,23.66148 -0.38461,46.46518 -1.15753,69.38048 -1.1e-4,0.003 -2.2e-4,0.007 -3.4e-4,0.01 m -5.58566,2.23323 c -0.0697,12.92642 -0.28397,25.44367 -0.7014,37.81349 -11.05006,-0.22316 -22.2458,-0.55201 -33.62281,-0.82768 -0.004,-9e-5 -0.007,-1.7e-4 -0.0106,-2.6e-4 m 3.35054,-0.28144 c -23.55311,0.77138 -46.09486,0.20265 -68.30396,0.58873 -0.003,6e-5 -0.006,1.1e-4 -0.01,1.7e-4 m 3.00861,1.96077 c -3.04136,8.4e-4 -6.07037,-0.005 -9.09113,-0.0163 -0.44317,-20.45437 -0.49518,-41.20627 -1.50452,-62.24179 -1.6e-4,-0.003 -3.3e-4,-0.007 -4.9e-4,-0.0103 m -1.19338,-4.22241 c -0.27738,-23.51939 0.0598,-46.46031 0.16262,-69.36024 2e-5,-0.003 3e-5,-0.007 5e-5,-0.01 m -2.03021,2.60891 c 0.1179,-4.02246 0.15964,-7.99913 0.1352,-11.93947 19.29735,-0.14417 36.96344,0.60734 54.22059,1.09959 0.003,9e-5 0.006,1.7e-4 0.009,2.6e-4 m -56.8152,-5.55685 c 22.59252,-0.80513 46.69641,0.0858 70.1325,0.28472 0.003,3e-5 0.007,6e-5 0.01,8e-5 m 0.19014,2.51374 c 13.73568,-0.31549 27.27058,0.054 41.0485,0.79936 0.38211,10.62115 0.90371,21.45808 1.75782,32.37641 2.8e-4,0.004 5.6e-4,0.007 8.5e-4,0.0109 m -0.63757,-2.32969 c 2.3e-4,23.50618 0.82037,47.59941 2.4375,72.83367 2.3e-4,0.004 4.6e-4,0.007 6.9e-4,0.0108 m -1.01496,-1.08812 c -0.28909,14.51311 -0.73427,28.60466 -1.65349,42.59921 -9.68958,-0.14959 -19.57313,-0.33888 -29.73385,-0.48289 -0.004,-6e-5 -0.007,-1.1e-4 -0.0112,-1.6e-4 m 7.12451,2.15483 c -23.54651,-0.0338 -46.64772,0.011 -69.94928,10e-6 -0.003,0 -0.007,0 -0.01,0 m -3.38418,-3.89802 c -4.45513,-0.16633 -8.93642,-0.27792 -13.43264,-0.35368 0.22811,-19.09108 0.20225,-37.57243 0.71228,-56.77362 1e-4,-0.003 1.9e-4,-0.007 2.8e-4,-0.0102 m -2.50968,6.20437 c -0.0675,-22.76858 0.70972,-47.20739 2.11253,-71.65587 2e-4,-0.003 4e-4,-0.007 6e-4,-0.0105 m 3.76893,-3.12801 c 0.002,-5.70598 -0.0357,-11.33384 -0.11181,-16.91674 17.57733,-0.24777 34.74779,-0.0245 51.51087,-0.45508 0.003,-8e-5 0.006,-1.6e-4 0.009,-2.4e-4 m -46.90993,1.20721 c 23.32279,-0.14214 45.13013,-0.17874 65.39937,-0.54838 0.003,-5e-5 0.006,-10e-5 0.009,-1.5e-4 m 2.4574,-0.41446 c 12.26534,0.28211 24.78265,0.26191 37.37735,0.18543 0.10728,10.79192 0.27322,21.54118 0.3826,32.41018 3e-5,0.003 7e-5,0.007 10e-5,0.01 m -0.47109,-0.0788 c 0.23688,23.72895 0.26112,45.78315 0.75146,67.38983 7e-5,0.003 1.4e-4,0.006 2.1e-4,0.009 m -3.77237,8.57266 c -0.38168,13.50022 -0.49418,26.7145 -0.71719,39.71465 -10.06816,-0.31437 -20.19645,-0.74525 -30.53726,-1.26381 -0.003,-1.8e-4 -0.007,-3.5e-4 -0.0104,-5.3e-4 m 2.92469,-3.84954 c -23.27601,-0.14893 -47.11777,-0.29203 -71.37128,-0.85306 -0.003,-8e-5 -0.007,-1.6e-4 -0.0104,-2.4e-4 m -2.07788,6.83566 c -3.80379,0.0989 -7.5929,0.14299 -11.37144,0.14004 -0.15208,-19.59597 -0.0162,-40.47437 -0.18137,-61.52265 -3e-5,-0.004 -6e-5,-0.007 -9e-5,-0.0108 m 8.02198,-0.29627 c 0.0402,-23.65452 -1.54972,-45.77727 -4.65158,-67.32892 -4.4e-4,-0.003 -8.8e-4,-0.006 -0.001,-0.009 m 2.01349,-6.7078 c -0.16239,-4.7084 -0.28449,-9.43904 -0.38586,-14.19229 18.2244,-0.19393 36.77391,-0.74224 54.43526,-1.66739 0.003,-1.7e-4 0.006,-3.3e-4 0.009,-5e-4 m -49.22389,8.52628 c 23.74947,0.007 46.59335,-0.61594 69.78669,-1.84844 0.003,-1.7e-4 0.007,-3.5e-4 0.01,-5.3e-4 m 2.7622,-2.70635 c 11.40775,0.17494 22.93907,0.0292 34.26804,-0.30162 -0.49014,11.17511 -1.17127,22.17549 -2.34227,33.12544 -3.4e-4,0.003 -6.8e-4,0.006 -0.001,0.01 m 0.26944,5.07876 c -0.76443,23.6887 0.42296,47.03941 1.30033,71.14765 1.3e-4,0.003 2.5e-4,0.007 3.8e-4,0.0103 m 1.59313,-1.13259 c -0.30784,12.50278 -0.30926,25.38698 -0.28081,38.39988 -10.51822,0.18514 -21.01615,0.45773 -31.64869,0.67623 -0.003,7e-5 -0.007,1.4e-4 -0.0101,2.1e-4 m -2.56998,-0.21302 c -22.75517,-0.73065 -47.62681,0.2808 -72.85431,0.85344 -0.004,8e-5 -0.007,1.6e-4 -0.0108,2.4e-4 m 3.49368,-3.2371 c -3.14033,-0.0424 -6.29936,-0.082 -9.47866,-0.12114 -0.44122,-20.47263 -1.73845,-40.92298 -4.3242,-61.9767 -4.3e-4,-0.003 -8.5e-4,-0.007 -0.001,-0.0104 m 3.02526,1.51533 c -0.55506,-23.15418 -0.8634,-46.97521 -2.62008,-70.96508 -2.5e-4,-0.003 -5e-4,-0.007 -7.5e-4,-0.0103 m 2.8516,-2.03076 c 0.0259,-3.98009 0.0299,-7.94847 0.0141,-11.89717 19.18933,0.55687 37.93802,1.55536 56.49736,3.84196 0.003,4e-4 0.006,7.9e-4 0.01,0.001 m -51.96189,-0.51099 c 22.94408,0.82542 45.7414,-0.11443 67.2683,-0.34567 0.003,-3e-5 0.006,-6e-5 0.009,-10e-5 m -0.86654,-1.04451 c 11.53855,-0.0982 23.32763,-10e-4 35.25876,0.22004 0.24255,11.86254 0.62607,23.84792 1.04334,35.88526 1.2e-4,0.003 2.4e-4,0.007 3.6e-4,0.0103 m 2.8616,-3.56189 c 0.5615,23.72919 -0.26727,46.6429 -0.77212,69.9492 -7e-5,0.003 -1.4e-4,0.007 -2.1e-4,0.01 m 5.88762,-0.47094 c -0.1138,12.82213 -0.38194,25.42201 -0.8993,37.95419 -11.12487,-0.0933 -22.42786,-0.2349 -33.96628,-0.33157 -0.004,-3e-5 -0.007,-6e-5 -0.0108,-9e-5 m 0.49137,0.15166 c -23.46558,0.0201 -47.54283,-0.64767 -72.6712,-1.92969 -0.004,-1.9e-4 -0.007,-3.7e-4 -0.0108,-5.5e-4 m -1.21152,8.2423 c -2.90452,0.10318 -5.82837,0.16933 -8.76858,0.20347 0.17418,-20.13001 -0.42244,-41.76921 -0.81896,-63.28773 -7e-5,-0.004 -1.3e-4,-0.007 -2e-4,-0.0106 m 0.96229,-3.838 c 0.85905,-23.99961 -0.78244,-45.8614 -2.37693,-67.61315 -2.3e-4,-0.003 -4.6e-4,-0.006 -6.9e-4,-0.009 m 5.8437,-0.99802 c 0.0182,-3.79646 0.0301,-7.61915 0.0371,-11.45755 19.44469,0.40608 38.77236,0.42726 58.17124,1.3413 0.003,1.5e-4 0.007,3.1e-4 0.01,4.7e-4 m -23.56807,141.43516 -6.43437,0 m -30.41209,-110.24808 0,-5.74062 m 0,53.44696 0,-5.96563 m 79.48609,-74.35717 7.60625,0 m 23.30139,142.86454 -6.78125,0"
       id="rect4654"
       inkscape:path-effect="#path-effect4267"
       inkscape:original-d="m 256.71597,656.33384 110.96926,0 0,142.86454 -110.96926,0 z"
       inkscape:connector-curvature="0" />
    <text
       xml:space="preserve"
       style="font-size:608.45928955px;font-style:normal;font-variant:normal;font-weight:normal;font-stretch:normal;line-height:125%;letter-spacing:0px;word-spacing:0px;fill:#000000;fill-opacity:1;stroke:none;font-family:Serif;-inkscape-font-specification:Serif"
       x="375.93134"
       y="678.19891"
       id="text4464-0"
       sodipodi:linespacing="125%"
       transform="matrix(0.87233659,0.48890579,-0.48890579,0.87233659,0,0)"><tspan
         sodipodi:role="line"
         id="tspan4466-7"
         x="375.93134"
         y="678.19891"
         style="font-size:60.84592056px;font-style:normal;font-variant:normal;font-weight:normal;font-stretch:normal;fill:#000000;fill-opacity:1;font-family:Sketch Block;-inkscape-font-specification:Sketch Block">connector</tspan></text>
    <text
       sodipodi:linespacing="125%"
       id="text3082"
       y="1006.3189"
       x="541.79053"
       style="font-size:608.45928955px;font-style:normal;font-variant:normal;font-weight:normal;font-stretch:normal;line-height:125%;letter-spacing:0px;word-spacing:0px;fill:#000000;fill-opacity:1;stroke:none;font-family:Serif;-inkscape-font-specification:Serif"
       xml:space="preserve"><tspan
         style="font-size:60.84592056px;font-style:normal;font-variant:normal;font-weight:normal;font-stretch:normal;fill:#000000;fill-opacity:1;font-family:Sketch Block;-inkscape-font-specification:Sketch Block"
         y="1006.3189"
         x="541.79053"
         id="tspan3084"
         sodipodi:role="line">event stream</tspan></text>
    <path
       id="path4269"
       d="m 266.81749,667.44552 92.78651,0 0,127.71225 -92.78651,0 z"
       style="fill:#ffffff;fill-opacity:1;stroke:none"
       inkscape:connector-curvature="0" />
    <g
       id="g4655"
       transform="translate(-4,0)">
      <path
         inkscape:original-d="m 366.42033,736.45442 74.49478,0"
         inkscape:path-effect="#path-effect4451"
         inkscape:connector-curvature="0"
         id="path3816"
         d="m 370.28415,735.12486 c 8.23909,0.10893 17.29391,-0.30291 26.2794,-0.90794 10e-6,0 10e-6,0 10e-6,0 8.989,-0.60527 16.376,0.56681 23.54374,1.69531 0,0 0,0 0,0 3.58667,0.56469 8.00117,0.38922 12.72924,-0.1026 m -61.33908,2.46369 c 8.93042,0.12735 17.26643,-0.011 26.21297,-0.0439 0,0 0,0 0,0 8.95004,-0.0329 17.12489,0.12156 25.78593,0.35 1e-5,0 1e-5,0 1e-5,0 4.33391,0.11431 8.40324,-0.0717 12.2543,-0.47123 m -65.06279,-1.49895 c 8.75233,0.10915 17.5319,-0.0119 27.00067,-0.0329 10e-6,-10e-6 10e-6,-10e-6 10e-6,-10e-6 9.47247,-0.0211 17.11343,-9.6e-4 25.7203,0.0109 10e-6,0 10e-6,0 10e-6,0 4.3068,0.006 8.47431,-0.0477 12.53051,-0.15823 m -70.88003,-1.5532 c 8.40994,-0.42544 17.07674,0.37922 25.64483,1.138 0,0 0,0 0,0 8.57144,0.75907 17.52946,-0.64008 26.97812,-1.93594 0,0 0,0 0,0 4.72803,-0.64844 8.93808,-0.52631 12.97459,-0.11964 m -4.67672,4.39175 c 4.35044,0.10028 8.56757,0.0934 12.7597,0.0413 m -68.21842,-1.17089 c 8.07202,0.2616 17.69069,-0.50263 27.49367,-1.50968 9.80681,-1.00745 16.40244,0.11792 23.58749,0.35 10e-6,0 10e-6,0 10e-6,0 3.59533,0.11613 7.96374,0.19127 12.59813,0.31346 m -19.98851,0.0803 1.60859,0 m 20.01177,0 1.43516,0 m -8.44717,0 1.49141,0 m -52.62065,0 1.90156,0 m 23.80914,0 1.69532,0"
         style="fill:none;stroke:#000000;stroke-width:1;stroke-linecap:butt;stroke-linejoin:miter;stroke-miterlimit:4;stroke-opacity:1;stroke-dasharray:none;marker-end:none" />
      <path
         sodipodi:nodetypes="cc"
         style="fill:none;stroke:#000000;stroke-width:1;stroke-linecap:butt;stroke-linejoin:miter;stroke-miterlimit:4;stroke-opacity:1;stroke-dasharray:none;marker-end:none"
         d="m 417.53993,722.01113 c 6.99802,4.36872 15.29283,7.88024 23.23243,11.86129 0.8432,0.42279 1.68146,0.84851 2.51613,1.27725 m -26.34942,-12.31662 c 6.79404,4.0593 15.0451,7.73905 23.39322,11.75232 m -18.67584,-9.84501 c 8.10388,4.55119 14.89591,7.57393 22.07332,10.92592 0.21532,0.10055 0.43113,0.20198 0.64741,0.30422 M 419.8974,724.15326 c 7.93551,4.25538 14.29338,8.19267 20.14383,12.78173 0.97569,0.76533 2.0672,1.4708 3.25056,2.12549 m -22.821,-10.20622 c 6.54023,3.56755 13.71529,6.6049 21.76586,9.58349 m -8.17875,-5.71521 1.42583,0.7447 m 6.55745,3.42491 1.2721,0.66441 m -3.86127,-2.01671 1.32195,0.69044 m -20.20133,-10.55102 1.68551,0.88034 m 7.80812,4.07812 1.5027,0.78485"
         id="path4647"
         inkscape:connector-curvature="0"
         inkscape:path-effect="#path-effect4649"
         inkscape:original-d="m 416.92796,723.77569 27.35192,14.28572" />
      <path
         inkscape:original-d="m 418.11143,751.5313 23.31131,-10.96809"
         inkscape:path-effect="#path-effect4653"
         inkscape:connector-curvature="0"
         id="path4651"
         d="m 420.42765,747.31739 c 5.16293,-2.33622 10.87752,-5.04429 16.64661,-7.70863 m -16.44443,11.34482 c 5.69518,-2.48395 11.00706,-5.19988 16.19215,-7.96732 m -11.9302,4.66619 c 4.93212,-2.08266 9.5055,-4.12149 14.00215,-6.02024 m -16.90804,6.31194 c 4.78374,-2.64319 9.92302,-5.05515 14.96503,-7.54678 m -12.73993,9.9895 c 6.07091,-2.54924 11.38811,-5.25585 16.32932,-7.7574 m -7.94966,2.08928 1.45553,-0.68483 m 5.36136,-2.52255 1.2986,-0.611 m -3.50948,1.65123 1.3495,-0.63494 m -17.47053,8.21997 1.72062,-0.80956 m 6.38595,-3.00463 1.534,-0.72175"
         style="fill:none;stroke:#000000;stroke-width:1;stroke-linecap:butt;stroke-linejoin:miter;stroke-miterlimit:4;stroke-opacity:1;stroke-dasharray:none;marker-end:none"
         sodipodi:nodetypes="cc" />
    </g>
    <g
       id="g4660"
       transform="translate(164.69547,2.9276725e-7)">
      <path
         style="fill:none;stroke:#000000;stroke-width:1;stroke-linecap:butt;stroke-linejoin:miter;stroke-miterlimit:4;stroke-opacity:1;stroke-dasharray:none;marker-end:none"
         d="m 370.28415,735.12486 c 8.23909,0.10893 17.29391,-0.30291 26.2794,-0.90794 10e-6,0 10e-6,0 10e-6,0 8.989,-0.60527 16.376,0.56681 23.54374,1.69531 0,0 0,0 0,0 3.58667,0.56469 8.00117,0.38922 12.72924,-0.1026 m -61.33908,2.46369 c 8.93042,0.12735 17.26643,-0.011 26.21297,-0.0439 0,0 0,0 0,0 8.95004,-0.0329 17.12489,0.12156 25.78593,0.35 1e-5,0 1e-5,0 1e-5,0 4.33391,0.11431 8.40324,-0.0717 12.2543,-0.47123 m -65.06279,-1.49895 c 8.75233,0.10915 17.5319,-0.0119 27.00067,-0.0329 10e-6,-10e-6 10e-6,-10e-6 10e-6,-10e-6 9.47247,-0.0211 17.11343,-9.6e-4 25.7203,0.0109 10e-6,0 10e-6,0 10e-6,0 4.3068,0.006 8.47431,-0.0477 12.53051,-0.15823 m -70.88003,-1.5532 c 8.40994,-0.42544 17.07674,0.37922 25.64483,1.138 0,0 0,0 0,0 8.57144,0.75907 17.52946,-0.64008 26.97812,-1.93594 0,0 0,0 0,0 4.72803,-0.64844 8.93808,-0.52631 12.97459,-0.11964 m -4.67672,4.39175 c 4.35044,0.10028 8.56757,0.0934 12.7597,0.0413 m -68.21842,-1.17089 c 8.07202,0.2616 17.69069,-0.50263 27.49367,-1.50968 9.80681,-1.00745 16.40244,0.11792 23.58749,0.35 10e-6,0 10e-6,0 10e-6,0 3.59533,0.11613 7.96374,0.19127 12.59813,0.31346 m -19.98851,0.0803 1.60859,0 m 20.01177,0 1.43516,0 m -8.44717,0 1.49141,0 m -52.62065,0 1.90156,0 m 23.80914,0 1.69532,0"
         id="path4662"
         inkscape:connector-curvature="0"
         inkscape:path-effect="#path-effect4451"
         inkscape:original-d="m 366.42033,736.45442 74.49478,0" />
      <path
         inkscape:original-d="m 419.95842,721.75538 24.32146,16.30603"
         inkscape:path-effect="#path-effect4649"
         inkscape:connector-curvature="0"
         id="path4664"
         d="m 420.44767,720.19744 c 6.5222,5.16981 14.34044,9.48113 21.80497,14.26458 0.33299,0.21338 0.6651,0.42728 0.99644,0.64169 m -23.33255,-14.20174 c 5.93065,4.51925 13.1387,8.70654 20.50605,13.1451 m -15.91,-11.03353 c 7.38707,5.18319 13.54256,8.93201 20.01168,12.93641 m -22.60054,-14.5423 c 7.67788,4.65646 14.49957,9.78344 22.20441,15.06674 0.81038,0.55569 1.59793,1.10284 2.36473,1.64336 m -21.1457,-13.76734 c 5.88025,3.45387 10.84738,7.96489 15.46092,12.98746 m -5.65176,-5.39324 1.3361,0.89577 m 5.76635,3.86598 1.19205,0.79919 m -3.49554,-2.34354 1.23876,0.83052 m -18.0351,-12.09142 1.57944,1.05892 m 6.86672,4.6037 1.40813,0.94407"
         style="fill:none;stroke:#000000;stroke-width:1;stroke-linecap:butt;stroke-linejoin:miter;stroke-miterlimit:4;stroke-opacity:1;stroke-dasharray:none;marker-end:none"
         sodipodi:nodetypes="cc" />
      <path
         sodipodi:nodetypes="cc"
         style="fill:none;stroke:#000000;stroke-width:1;stroke-linecap:butt;stroke-linejoin:miter;stroke-miterlimit:4;stroke-opacity:1;stroke-dasharray:none;marker-end:none"
         d="m 428.77134,747.41775 c 2.84511,-2.33449 4.95252,-4.4096 7.06883,-6.25263 1.97328,-1.71848 3.97709,-3.2537 6.79579,-4.73422 m -13.60801,14.70977 c 3.34861,-2.53324 5.43699,-4.71082 7.48777,-6.64206 1.79074,-1.68636 3.53952,-3.19382 5.93163,-4.6686 m -9.5457,7.40119 c 2.26545,-1.76971 3.9314,-3.29826 5.55848,-4.66672 1.84368,-1.55063 3.6296,-2.90047 6.04808,-4.12632 m -14.36092,9.31947 c 2.32465,-2.25881 4.11308,-4.10749 5.90175,-5.76206 1.89966,-1.75723 3.81753,-3.28308 6.49369,-4.77671 m -10.17737,12.97054 c 2.61501,-2.00662 4.37145,-3.75517 6.06124,-5.31606 2.25607,-2.08396 4.39756,-3.85712 7.75623,-5.48939 m -7.4213,2.78221 1.27797,-0.97691 m 4.95989,-2.92508 1.30493,-0.59735 m -3.42665,1.70033 1.31387,-0.70571 m -14.78531,11.72359 1.46742,-1.20938 m 5.10643,-4.58997 1.26095,-1.13318"
         id="path4666"
         inkscape:connector-curvature="0"
         inkscape:path-effect="#path-effect4653"
         inkscape:original-d="m 426.88341,752.32875 c 9.56399,-7.11165 10.75615,-11.0335 20.12149,-14.95535" />
    </g>
    <g
       transform="translate(331.37064,-1.0101522)"
       id="g4668">
      <path
         inkscape:original-d="m 366.42033,736.45442 74.49478,0"
         inkscape:path-effect="#path-effect4451"
         inkscape:connector-curvature="0"
         id="path4670"
         d="m 370.28415,735.12486 c 8.23909,0.10893 17.29391,-0.30291 26.2794,-0.90794 10e-6,0 10e-6,0 10e-6,0 8.989,-0.60527 16.376,0.56681 23.54374,1.69531 0,0 0,0 0,0 3.58667,0.56469 8.00117,0.38922 12.72924,-0.1026 m -61.33908,2.46369 c 8.93042,0.12735 17.26643,-0.011 26.21297,-0.0439 0,0 0,0 0,0 8.95004,-0.0329 17.12489,0.12156 25.78593,0.35 1e-5,0 1e-5,0 1e-5,0 4.33391,0.11431 8.40324,-0.0717 12.2543,-0.47123 m -65.06279,-1.49895 c 8.75233,0.10915 17.5319,-0.0119 27.00067,-0.0329 10e-6,-10e-6 10e-6,-10e-6 10e-6,-10e-6 9.47247,-0.0211 17.11343,-9.6e-4 25.7203,0.0109 10e-6,0 10e-6,0 10e-6,0 4.3068,0.006 8.47431,-0.0477 12.53051,-0.15823 m -70.88003,-1.5532 c 8.40994,-0.42544 17.07674,0.37922 25.64483,1.138 0,0 0,0 0,0 8.57144,0.75907 17.52946,-0.64008 26.97812,-1.93594 0,0 0,0 0,0 4.72803,-0.64844 8.93808,-0.52631 12.97459,-0.11964 m -4.67672,4.39175 c 4.35044,0.10028 8.56757,0.0934 12.7597,0.0413 m -68.21842,-1.17089 c 8.07202,0.2616 17.69069,-0.50263 27.49367,-1.50968 9.80681,-1.00745 16.40244,0.11792 23.58749,0.35 10e-6,0 10e-6,0 10e-6,0 3.59533,0.11613 7.96374,0.19127 12.59813,0.31346 m -19.98851,0.0803 1.60859,0 m 20.01177,0 1.43516,0 m -8.44717,0 1.49141,0 m -52.62065,0 1.90156,0 m 23.80914,0 1.69532,0"
         style="fill:none;stroke:#000000;stroke-width:1;stroke-linecap:butt;stroke-linejoin:miter;stroke-miterlimit:4;stroke-opacity:1;stroke-dasharray:none;marker-end:none" />
      <path
         sodipodi:nodetypes="cc"
         style="fill:none;stroke:#000000;stroke-width:1;stroke-linecap:butt;stroke-linejoin:miter;stroke-miterlimit:4;stroke-opacity:1;stroke-dasharray:none;marker-end:none"
         d="m 418.64539,723.82322 c 6.48474,3.13466 13.97158,5.60086 21.34074,8.31486 m -20.91129,-6.97394 c 6.0069,2.46021 11.53837,4.63232 16.9192,6.74571 m -12.83581,-7.03369 c 6.81248,2.6969 12.86268,5.47998 18.95695,8.6349 m -21.40401,-7.56424 c 6.91213,2.55118 14.66802,5.65854 21.7496,8.25787 m -18.32674,-5.05146 c 5.16793,2.14561 9.73134,4.16234 13.93621,6.29454 m -5.6729,-3.92364 1.49551,0.59246 m 5.32354,2.10896 1.33427,0.52858 m -3.54586,-1.40472 1.38657,0.5493 m -17.51269,-6.93778 1.76789,0.70036 m 6.34125,2.51213 1.57613,0.6244"
         id="path4672"
         inkscape:connector-curvature="0"
         inkscape:path-effect="#path-effect4649"
         inkscape:original-d="m 417.93811,725.796 23.31131,9.23495" />
      <path
         inkscape:original-d="m 418.11143,751.5313 23.31131,-10.96809"
         inkscape:path-effect="#path-effect4653"
         inkscape:connector-curvature="0"
         id="path4674"
         d="m 420.42765,747.31739 c 5.16293,-2.33622 10.87752,-5.04429 16.64661,-7.70863 m -16.44443,11.34482 c 5.69518,-2.48395 11.00706,-5.19988 16.19215,-7.96732 m -11.9302,4.66619 c 4.93212,-2.08266 9.5055,-4.12149 14.00215,-6.02024 m -16.90804,6.31194 c 4.78374,-2.64319 9.92302,-5.05515 14.96503,-7.54678 m -12.73993,9.9895 c 6.07091,-2.54924 11.38811,-5.25585 16.32932,-7.7574 m -7.94966,2.08928 1.45553,-0.68483 m 5.36136,-2.52255 1.2986,-0.611 m -3.50948,1.65123 1.3495,-0.63494 m -17.47053,8.21997 1.72062,-0.80956 m 6.38595,-3.00463 1.534,-0.72175"
         style="fill:none;stroke:#000000;stroke-width:1;stroke-linecap:butt;stroke-linejoin:miter;stroke-miterlimit:4;stroke-opacity:1;stroke-dasharray:none;marker-end:none"
         sodipodi:nodetypes="cc" />
    </g>
    <g
       transform="translate(104.08632,-156.57364)"
       id="g4676">
      <path
         inkscape:original-d="m 415.83065,853.91329 92.91162,-92.22835"
         inkscape:path-effect="#path-effect4688"
         inkscape:connector-curvature="0"
         id="path4678"
         d="m 418.48249,849.6424 c 5.76292,-5.90039 12.34159,-12.32155 18.85092,-18.9359 0,0 0,0 0,0 6.51188,-6.61693 11.42175,-11.45652 16.11237,-16.33969 0,0 0,0 0,0 2.34713,-2.44349 5.5221,-5.62714 9.01063,-9.12715 m -3.73122,6.97244 c 6.45426,-5.88197 12.3141,-12.02968 18.78448,-18.07186 6.47291,-6.04453 12.17063,-11.90177 18.35455,-17.685 0,0 0,0 1e-5,0 3.09437,-2.89388 5.92417,-6.08805 8.5357,-9.49577 m -85.45075,82.864 c 6.27617,-5.90017 12.57958,-12.03051 19.5722,-18.0609 0,0 0,0 0,0 6.99535,-6.03275 12.15917,-12.0243 18.28892,-18.02407 0,0 1e-5,0 1e-5,0 3.06727,-3.00222 5.99525,-6.0641 8.81191,-9.18278 m -7.04718,2.95555 c 5.93378,-6.43476 12.12441,-11.63942 18.21635,-16.88996 6.09431,-5.2526 12.5752,-12.66341 19.54674,-19.97094 0,0 0,0 0,0 3.48849,-3.65662 6.45901,-6.54267 9.25599,-9.14419 m -85.00348,90.48072 c 6.36318,-5.8056 12.17066,-12.07841 18.3471,-18.22507 0,0 0,0 0,0 6.17885,-6.14907 11.83909,-12.29268 17.37017,-18.85532 0,0 1e-5,0 1e-5,0 2.7677,-3.28389 5.95603,-6.41753 9.36939,-9.60849 m -6.12433,3.82091 c 6.47623,-5.92903 12.49839,-11.71805 19.33133,-17.12024 6.83562,-5.40429 11.72573,-12.03826 17.02018,-18.08969 0,0 0,0 0,0 2.64929,-3.02808 5.7222,-6.00738 8.9349,-8.95095 m -88.24962,87.14024 c 5.872,-6.19162 12.241,-12.47879 18.54454,-19.40587 0,0 0,0 0,0 6.30601,-6.92979 12.33749,-11.94769 18.85768,-17.79438 0,0 0,0 0,0 3.26264,-2.92563 6.22402,-5.9375 9.05783,-8.97227 m -7.58365,7.38028 c 5.98893,-5.69281 12.86993,-12.09956 20.44753,-18.25802 7.58056,-6.16086 12.0547,-12.27752 17.99361,-18.81156 0,0 0,0 0,0 2.97178,-3.26958 5.99926,-6.08538 9.03605,-8.6431 m -2.06378,6.06789 c 2.53966,-2.69178 5.23868,-5.35543 7.99625,-7.98883 m -89.00589,84.74311 c 6.08237,-6.19102 11.36479,-11.72129 15.9193,-17.15274 4.55628,-5.43358 12.98951,-11.78117 20.78267,-17.29125 0,-10e-6 0,-10e-6 0,-10e-6 3.89963,-2.75719 6.93123,-5.9609 9.74909,-9.42262 m -4.77369,3.96806 c 5.69723,-5.75785 12.09088,-11.50885 18.11819,-16.48607 6.02965,-4.97915 11.72788,-12.259 17.02017,-18.74594 0,0 0,0 10e-6,0 2.64821,-3.246 5.86666,-6.22867 9.36739,-9.12903 m -30.18292,28.15938 1.14163,-1.13324 m 25.77718,-25.58761 1.01854,-1.01105 m -9.74897,9.67727 1.05847,-1.05068 m -64.71782,64.24188 1.34956,-1.33963 m 30.662,-30.43651 1.20318,-1.19434"
         style="fill:none;stroke:#000000;stroke-width:1;stroke-linecap:butt;stroke-linejoin:miter;stroke-miterlimit:4;stroke-opacity:1;stroke-dasharray:none;marker-end:none"
         sodipodi:nodetypes="cc" />
      <path
         sodipodi:nodetypes="cc"
         style="fill:none;stroke:#000000;stroke-width:1;stroke-linecap:butt;stroke-linejoin:miter;stroke-miterlimit:4;stroke-opacity:1;stroke-dasharray:none;marker-end:none"
         d="m 483.46172,765.85541 c 7.61585,-2.00309 16.52849,-4.86337 25.08592,-7.25413 0.90881,-0.2539 1.81269,-0.50487 2.71297,-0.75283 m -28.49029,9.76262 c 7.38755,-2.06169 16.23212,-4.50293 25.17375,-6.61065 m -20.29884,6.89325 c 8.72171,-1.82061 16.13157,-5.16968 23.92681,-8.18949 0.23385,-0.0906 0.46821,-0.18033 0.70302,-0.26924 m -26.5446,9.47766 c 8.55334,-2.11643 15.52903,-4.55094 21.99732,-6.33368 1.07872,-0.29732 2.27327,-0.65448 3.55968,-1.06243 m -24.71381,9.31458 c 7.06433,-1.83757 14.76349,-4.20535 23.33815,-6.63189 m -8.69171,-0.42494 1.54235,-0.4569 m 7.09328,-2.10129 1.37605,-0.40764 m -4.17679,1.23732 1.42998,-0.42361 m -21.85208,6.47339 1.82324,-0.54011 m 8.44616,-2.50206 1.62549,-0.48153"
         id="path4680"
         inkscape:connector-curvature="0"
         inkscape:path-effect="#path-effect4686"
         inkscape:original-d="m 482.69039,769.26342 29.58697,-8.76475" />
      <path
         inkscape:original-d="m 502.84875,788.37926 9.11647,-24.09577"
         inkscape:path-effect="#path-effect4684"
         inkscape:connector-curvature="0"
         id="path4682"
         d="m 502.95407,784.0813 c 2.30809,-6.91623 5.51279,-14.42978 8.58104,-21.69761 m -6.4046,23.45324 c 2.45679,-5.94258 4.48377,-12.14613 6.38463,-18.39488 m -6.57875,17.55593 c 2.88804,-6.48003 5.08995,-12.8831 7.35653,-18.9423 m -8.58563,20.50568 c 2.44587,-8.07034 5.64297,-15.64505 8.20161,-23.69968 m -7.54581,20.9133 c 2.16435,-5.01171 3.77412,-10.14107 5.06552,-15.15535 m -0.9174,4.79316 0.56922,-1.50451 m 2.0967,-5.54178 0.50785,-1.3423 m -1.37247,3.62758 0.52775,-1.3949 m -6.83229,18.05843 0.6729,-1.77853 m 2.49738,-6.60084 0.59991,-1.58562"
         style="fill:none;stroke:#000000;stroke-width:1;stroke-linecap:butt;stroke-linejoin:miter;stroke-miterlimit:4;stroke-opacity:1;stroke-dasharray:none;marker-end:none"
         sodipodi:nodetypes="cc" />
    </g>
    <g
       id="g4702"
       transform="matrix(0.07075763,0.99749354,-0.99749354,0.07075763,1513.3769,302.92088)"
       inkscape:transform-center-x="-6.0609152">
      <path
         sodipodi:nodetypes="cc"
         style="fill:none;stroke:#000000;stroke-width:1;stroke-linecap:butt;stroke-linejoin:miter;stroke-miterlimit:4;stroke-opacity:1;stroke-dasharray:none;marker-end:none"
         d="m 408.88242,857.10127 c 5.8453,-5.81625 12.50635,-12.15326 19.09806,-18.68347 0,0 0,0 0,0 6.59429,-6.53276 11.58658,-11.28817 16.3596,-16.08716 0,0 0,0 0,0 2.38838,-2.40137 5.60458,-5.54291 9.13435,-9.00079 m -3.79303,6.90931 c 6.53663,-5.79783 12.47886,-11.8614 19.03162,-17.81943 6.55532,-5.96036 12.33545,-11.73342 18.60179,-17.43247 0,0 0,0 0,0 3.13561,-2.85176 6.00665,-6.00381 8.65942,-9.36941 m -5.06675,2.94666 c 3.12051,-2.85427 6.24904,-5.76476 9.46169,-8.69129 m -91.1117,87.06242 c 6.56163,-6.22008 11.86243,-12.06461 17.18316,-18.43144 0,0 0,0 0,0 5.3228,-6.36932 12.15869,-11.96008 18.06585,-18.07778 0,0 0,0 0,-10e-6 2.95589,-3.06124 6.03184,-5.93247 9.14147,-8.68491 m -1.00193,5.92337 c 6.35435,-5.59004 12.03399,-11.36461 17.69746,-16.3103 5.66569,-4.94762 12.44978,-11.74606 18.91898,-17.46529 0,0 0,0 0,0 3.23712,-2.86184 6.32455,-5.84288 9.38604,-8.86713 m -6.58324,3.28519 c 3.61319,-3.60387 7.84704,-7.62169 12.36122,-11.85441 m -96.73677,90.24396 c 6.55862,-5.84489 12.66315,-11.54977 19.57848,-16.86781 0,0 0,0 0,0 6.91803,-5.32012 11.89055,-11.86991 17.26741,-17.83716 2.69054,-2.98596 5.80468,-5.92314 9.05862,-8.82459 m -4.16486,6.99993 c 5.95439,-6.10747 12.40576,-12.31049 18.79168,-19.15344 6.38842,-6.84561 12.50231,-11.77933 19.10491,-17.54184 0,-10e-6 0,-10e-6 1e-5,-10e-6 3.30388,-2.88351 6.30649,-5.85326 9.18154,-8.84591 m -4.90328,5.89684 c 3.4422,-3.1799 7.17071,-6.59358 11.15064,-10.05838 m -92.17833,86.63762 c 6.17624,-5.62621 12.26024,-11.0826 18.35393,-15.46807 6.09606,-4.38719 12.36638,-12.2309 18.70022,-18.90904 0,0 0,0 0,0 3.1694,-3.34168 6.25736,-6.2779 9.33605,-9.08858 m -3.48892,4.89986 c 6.16475,-6.10688 11.52955,-11.553 16.16644,-16.90031 4.6387,-5.3494 13.15434,-11.61282 21.02991,-17.03872 0,-10e-6 0,-10e-6 0,-10e-6 3.94086,-2.71507 7.0137,-5.87666 9.8728,-9.29626 m -6.28394,3.13149 c 2.48632,-2.44077 5.09919,-4.88416 7.75702,-7.26409 m -95.10458,87.32877 c 6.02764,-5.8414 13.02271,-11.74921 20.65097,-17.49125 0,0 0,0 0,0 7.63125,-5.74428 11.45573,-12.40311 15.94398,-19.44497 0,0 0,0 0,0 2.24588,-3.52368 5.3271,-6.37751 8.62098,-8.97962 m -2.50564,7.53373 c 5.71022,-5.558 11.91764,-12.28339 17.32635,-19.08846 0,0 0,0 0,0 5.41082,-6.80773 12.15385,-11.43223 18.06585,-16.50279 2.95831,-2.53725 6.00894,-5.66684 9.06422,-9.06835 m -2.87073,7.05611 c 4.28575,-4.63213 8.62854,-8.93803 12.49168,-13.22413 m -33.35073,30.08812 1.15717,-1.11738 m 27.59271,-26.64371 1.03241,-0.9969 m -10.35669,10.00049 1.07287,-1.03597 m -69.06247,66.6872 1.36793,-1.32088 m 32.82113,-31.69231 1.21955,-1.17761"
         id="path4704"
         inkscape:connector-curvature="0"
         inkscape:path-effect="#path-effect4688"
         inkscape:original-d="m 406.19026,861.33097 99.24325,-95.82998" />
      <path
         inkscape:original-d="m 483.98391,765.30441 28.29345,-4.80574"
         inkscape:path-effect="#path-effect4686"
         inkscape:connector-curvature="0"
         id="path4706"
         d="m 484.81478,762.15289 c 7.84673,-1.00865 16.98919,-2.87633 25.77854,-4.27082 0.19183,-0.0304 0.38344,-0.0607 0.57485,-0.0909 m -27.07862,5.97169 c 6.94098,-1.00922 15.09589,-2.3336 23.42829,-3.43364 m -18.49451,3.96981 c 8.46577,-0.78125 15.75672,-2.93056 23.31298,-4.87338 m -26.23569,4.82478 c 9.00241,-1.522 17.14889,-2.57326 26.17797,-3.46866 0.74395,-0.0738 1.47389,-0.15279 2.19082,-0.23613 m -24.36693,3.94946 c 6.72175,-1.36596 12.58265,-1.7349 18.09469,-1.60688 m -6.54914,-0.58408 1.58588,-0.26937 m 6.67818,-1.13431 1.4149,-0.24033 m -4.09513,0.69558 1.47034,-0.24975 m -21.01375,3.56926 1.87471,-0.31842 m 7.95283,-1.35082 1.67137,-0.28389"
         style="fill:none;stroke:#000000;stroke-width:1;stroke-linecap:butt;stroke-linejoin:miter;stroke-miterlimit:4;stroke-opacity:1;stroke-dasharray:none;marker-end:none"
         sodipodi:nodetypes="cc" />
      <path
         sodipodi:nodetypes="cc"
         style="fill:none;stroke:#000000;stroke-width:1;stroke-linecap:butt;stroke-linejoin:miter;stroke-miterlimit:4;stroke-opacity:1;stroke-dasharray:none;marker-end:none"
         d="m 502.7941,784.0277 c 1.70751,-6.95016 4.27279,-14.4723 6.7294,-21.7762 m -4.46207,23.56228 c 1.93303,-5.94271 3.45794,-12.13286 4.8561,-18.37142 m -5.20836,17.47947 c 2.31633,-6.49467 3.97909,-12.9156 5.68599,-19.01541 m -6.75877,20.63118 c 1.80805,-8.10272 4.33738,-15.72988 6.28054,-23.79838 m -5.89558,20.92124 c 1.70814,-4.99014 2.89528,-10.09119 3.77604,-15.09043 m -0.54233,4.76911 0.45226,-1.54371 m 1.62482,-5.54602 0.4035,-1.37727 m -1.07714,3.67664 0.41931,-1.43125 m -5.33133,18.19749 0.53463,-1.82485 m 1.93541,-6.60617 0.47664,-1.62693"
         id="path4708"
         inkscape:connector-curvature="0"
         inkscape:path-effect="#path-effect4684"
         inkscape:original-d="m 502.84875,788.37926 7.10123,-24.23872" />
    </g>
    <g
       id="g4710"
       transform="translate(507.13719,162.63456)">
      <path
         style="fill:none;stroke:#000000;stroke-width:1;stroke-linecap:butt;stroke-linejoin:miter;stroke-miterlimit:4;stroke-opacity:1;stroke-dasharray:none;marker-end:none"
         d="m 370.28415,735.12486 c 8.23909,0.10893 17.29391,-0.30291 26.2794,-0.90794 10e-6,0 10e-6,0 10e-6,0 8.989,-0.60527 16.376,0.56681 23.54374,1.69531 0,0 0,0 0,0 3.58667,0.56469 8.00117,0.38922 12.72924,-0.1026 m -61.33908,2.46369 c 8.93042,0.12735 17.26643,-0.011 26.21297,-0.0439 0,0 0,0 0,0 8.95004,-0.0329 17.12489,0.12156 25.78593,0.35 1e-5,0 1e-5,0 1e-5,0 4.33391,0.11431 8.40324,-0.0717 12.2543,-0.47123 m -65.06279,-1.49895 c 8.75233,0.10915 17.5319,-0.0119 27.00067,-0.0329 10e-6,-10e-6 10e-6,-10e-6 10e-6,-10e-6 9.47247,-0.0211 17.11343,-9.6e-4 25.7203,0.0109 10e-6,0 10e-6,0 10e-6,0 4.3068,0.006 8.47431,-0.0477 12.53051,-0.15823 m -70.88003,-1.5532 c 8.40994,-0.42544 17.07674,0.37922 25.64483,1.138 0,0 0,0 0,0 8.57144,0.75907 17.52946,-0.64008 26.97812,-1.93594 0,0 0,0 0,0 4.72803,-0.64844 8.93808,-0.52631 12.97459,-0.11964 m -4.67672,4.39175 c 4.35044,0.10028 8.56757,0.0934 12.7597,0.0413 m -68.21842,-1.17089 c 8.07202,0.2616 17.69069,-0.50263 27.49367,-1.50968 9.80681,-1.00745 16.40244,0.11792 23.58749,0.35 10e-6,0 10e-6,0 10e-6,0 3.59533,0.11613 7.96374,0.19127 12.59813,0.31346 m -19.98851,0.0803 1.60859,0 m 20.01177,0 1.43516,0 m -8.44717,0 1.49141,0 m -52.62065,0 1.90156,0 m 23.80914,0 1.69532,0"
         id="path4712"
         inkscape:connector-curvature="0"
         inkscape:path-effect="#path-effect4451"
         inkscape:original-d="m 366.42033,736.45442 74.49478,0" />
      <path
         inkscape:original-d="m 421.97872,724.78584 22.30116,13.27557"
         inkscape:path-effect="#path-effect4649"
         inkscape:connector-curvature="0"
         id="path4714"
         d="m 422.53105,723.12812 c 6.18854,4.37424 13.45949,8.02764 20.5553,11.9857 m -20.03782,-10.82378 c 5.82599,3.51466 11.13169,6.71325 16.28808,9.85976 m -12.35787,-9.83627 c 6.60009,3.83627 12.37055,7.7654 18.22758,12.11341 M 424.6831,725.0763 c 6.57886,3.83554 14.06344,8.26876 20.76553,12.11414 m -17.60501,-8.37429 c 5.0589,3.06622 9.44387,5.98966 13.44549,9.05601 m -5.45348,-4.83749 1.38222,0.82281 m 5.13872,3.05901 1.2332,0.73411 m -3.3481,-1.99308 1.28153,0.76288 m -16.70268,-9.94288 1.63397,0.97268 m 6.12067,3.64355 1.45674,0.86718"
         style="fill:none;stroke:#000000;stroke-width:1;stroke-linecap:butt;stroke-linejoin:miter;stroke-miterlimit:4;stroke-opacity:1;stroke-dasharray:none;marker-end:none"
         sodipodi:nodetypes="cc" />
      <path
         sodipodi:nodetypes="ccc"
         style="fill:none;stroke:#000000;stroke-width:1;stroke-linecap:butt;stroke-linejoin:miter;stroke-miterlimit:4;stroke-opacity:1;stroke-dasharray:none;marker-end:none"
         d="m 420.40581,747.27177 c 2.28657,-1.07534 4.68286,-2.22463 7.14478,-3.41103 3.09525,-1.39707 6.29181,-2.8514 9.50509,-4.2923 m -16.44519,11.34477 c 2.63402,-1.19135 5.185,-2.43296 7.67881,-3.70662 2.89988,-1.38809 5.72433,-2.81847 8.51254,-4.26358 m -11.94607,4.63423 c 1.82054,-0.79708 3.5916,-1.58811 5.32761,-2.36816 2.97366,-1.24652 5.84692,-2.46158 8.68986,-3.62127 m -16.91716,6.29408 c 1.90257,-1.0865 3.86218,-2.13591 5.84973,-3.16819 3.01213,-1.46807 6.08688,-2.89778 9.12665,-4.35613 m -12.75158,9.96642 c 2.10073,-0.91535 4.11007,-1.84979 6.04397,-2.78801 3.66576,-1.66035 7.06712,-3.33395 10.30871,-4.9204 m -7.99121,2.00064 1.46338,-0.66789 m 5.39083,-2.46037 1.30561,-0.59588 m -3.5286,1.61045 1.35678,-0.61923 m -17.47376,8.21279 1.7094,-0.833 m 6.34925,-3.08274 1.54228,-0.7039"
         id="path4716"
         inkscape:connector-curvature="0"
         inkscape:path-effect="#path-effect4653"
         inkscape:original-d="m 418.11143,751.5313 10.63783,-5.18392 12.67348,-5.78417" />
    </g>
    <path
       sodipodi:open="true"
       sodipodi:end="12.149772"
       sodipodi:start="6.1572258"
       sodipodi:type="arc"
       style="fill:#d40000;fill-opacity:0;stroke:#000000;stroke-width:0.1013116;stroke-linecap:butt;stroke-miterlimit:4;stroke-opacity:1;stroke-dasharray:none;stroke-dashoffset:0"
       id="path4724"
       sodipodi:cx="572.89856"
       sodipodi:cy="359.93661"
       sodipodi:rx="4.56147"
       sodipodi:ry="4.56147"
       d="m 577.62206,359.87179 c 0.34362,2.47853 -1.41644,4.75279 -3.91494,5.06566 -2.49852,0.31288 -4.78982,-1.45396 -5.12197,-3.94798 -0.33214,-2.49401 1.41906,-4.76997 3.8963,-5.08059 1.98213,-0.24853 3.8947,0.84409 4.69457,2.68761 m 0.28963,0.6312 c 0.30416,2.48889 -1.46644,4.76847 -3.95884,5.08615 -2.49243,0.31768 -4.76212,-1.44662 -5.05762,-3.93687 -0.2955,-2.49025 1.49678,-4.76263 4.0262,-5.06599 2.02389,-0.24273 3.9764,0.85674 4.81928,2.71101 m -0.15329,1.57601 c 0.2897,2.48863 -1.48975,4.76112 -3.99133,5.06234 -2.50161,0.30123 -4.77772,-1.48379 -5.08189,-4.00656 -0.30417,-2.52276 1.48011,-4.82938 3.99661,-5.18119 2.01354,-0.2815 3.95488,0.77855 4.78182,2.58374 m 0.6743,1.54531 c 0.3446,2.51995 -1.41109,4.81341 -3.89965,5.13934 -2.48858,0.32593 -4.76751,-1.43891 -5.07975,-3.93223 -0.31224,-2.49333 1.46018,-4.77096 3.96831,-5.07722 2.00684,-0.24506 3.94493,0.85395 4.77727,2.7128 m -0.15933,0.71772 c 0.29791,2.48405 -1.47066,4.75736 -3.95293,5.06368 -2.48231,0.30633 -4.73684,-1.47075 -5.00751,-3.98123 -0.27066,-2.51047 1.5485,-4.80412 4.11582,-5.13892 2.0542,-0.26788 4.0375,0.80542 4.91822,2.62583 m 0.1885,1.75303 c 0.29719,2.51654 -1.473,4.79603 -3.95868,5.09171 -2.48572,0.29568 -4.74438,-1.50624 -5.0217,-4.05768 -0.27731,-2.55145 1.53475,-4.89014 4.09162,-5.28345 2.04585,-0.31469 4.02047,0.71325 4.89003,2.48299 m -9.68752,1.55069 3.08091,-4.12368 m 3.80097,-0.0284 3.19034,3.30345 m -6.10469,-3.48377 4.63407,1.14114 m 1.87779,5.31436 -4.5966,3.98729 m -4.53426,-1.78159 -1.20167,-5.29024"
       transform="matrix(-7.7108927,6.1619519,-6.1619519,-7.7108927,7458.7618,-20.555696)"
       inkscape:path-effect="#path-effect4793" />
    <path
       transform="matrix(-0.58109745,-9.8534178,9.8534178,-0.58109745,-2213.6111,6752.3731)"
       d="m 576.17196,356.99516 c 1.84386,1.71859 1.94062,4.60158 0.22156,6.43514 -1.7191,1.83359 -4.60278,1.92314 -6.43738,0.19705 -1.8346,-1.72609 -1.92521,-4.61435 -0.20059,-6.45297 1.60155,-1.70743 4.23365,-1.92676 6.09344,-0.50855 m 0.16668,-0.13394 c 1.83418,1.72113 1.92435,4.60603 0.19917,6.44163 -1.72521,1.83562 -4.61261,1.9267 -6.45006,0.20224 -1.83745,-1.72447 -1.92914,-4.61151 -0.20441,-6.44883 1.60166,-1.70621 4.2349,-1.92459 6.09713,-0.50537 m 0.1191,0.55721 c 1.83063,1.72107 1.91804,4.60543 0.18981,6.43984 -1.72826,1.83442 -4.61805,1.92401 -6.45816,0.19722 -1.8401,-1.7268 -1.93389,-4.61628 -0.21152,-6.45706 1.59947,-1.70942 4.23092,-1.93101 6.09113,-0.51598 m 0.67551,0.31491 c 1.84409,1.72875 1.94131,4.61922 0.22308,6.46055 -1.71825,1.84136 -4.60097,1.93652 -6.4341,0.21613 -1.83314,-1.72039 -1.92224,-4.60465 -0.19552,-6.43931 1.60351,-1.70375 4.23754,-1.92051 6.09987,-0.49988 m 0.0363,-0.0352 c 1.83265,1.71995 1.92203,4.60369 0.1965,6.43771 -1.72555,1.83405 -4.61275,1.92361 -6.44939,0.19712 -1.83663,-1.72649 -1.92716,-4.61544 -0.2005,-6.45528 1.60346,-1.70854 4.23867,-1.92914 6.10363,-0.51273 m -7.15251,4.27756 0.11694,-1.60434 m 5.10492,-3.44061 1.37559,0.40916 m -4.00946,0.01 1.42935,-0.42573 m 5.24953,4.54356 -0.37008,1.8652 m -6.78113,2.08873 -1.23947,-1.15664"
       sodipodi:ry="4.56147"
       sodipodi:rx="4.56147"
       sodipodi:cy="359.93661"
       sodipodi:cx="572.89856"
       id="path4734"
       style="fill:#d40000;fill-opacity:0;stroke:#000000;stroke-width:0.1013116;stroke-linecap:butt;stroke-miterlimit:4;stroke-opacity:1;stroke-dasharray:none;stroke-dashoffset:0"
       sodipodi:type="arc"
       sodipodi:start="5.4658951"
       sodipodi:end="11.64714"
       sodipodi:open="true"
       inkscape:path-effect="#path-effect4799" />
    <path
       transform="matrix(6.2596605,7.6317866,-7.6317866,6.2596605,-182.60292,-6052.9565)"
       d="m 577.55218,361.09796 c -0.40241,2.4817 -2.74563,4.16402 -5.2301,3.75454 -2.48449,-0.40949 -4.16936,-2.75582 -3.76298,-5.24156 0.40639,-2.48574 2.74999,-4.16953 5.23247,-3.76042 2.17341,0.35818 3.77939,2.22252 3.81212,4.42895 m 0.0266,0.14584 c -0.41048,2.48382 -2.75719,4.16742 -5.24276,3.75916 -2.48561,-0.40828 -4.16876,-2.75387 -3.75808,-5.23884 0.41067,-2.48496 2.75988,-4.16819 5.25047,-3.75826 2.18052,0.35889 3.7938,2.22394 3.83547,4.43145 m -0.39137,1.30024 c -0.41342,2.48377 -2.76214,4.16633 -5.24979,3.75564 -2.48769,-0.41068 -4.17232,-2.75932 -3.76336,-5.24904 0.40897,-2.48973 2.7568,-4.17798 5.24557,-3.77515 2.17891,0.35268 3.79066,2.21147 3.83026,4.41096 m 0.2569,0.99121 c -0.40221,2.49016 -2.74475,4.17733 -5.22773,3.77184 -2.48301,-0.4055 -4.16606,-2.75004 -3.7568,-5.23459 0.40927,-2.48456 2.7559,-4.16823 5.24275,-3.75907 2.17724,0.35823 3.7871,2.22247 3.8249,4.42928 m -0.56128,0.23236 c -0.41175,2.48283 -2.75848,4.16528 -5.2429,3.75512 -2.48446,-0.41016 -4.16566,-2.75778 -3.75158,-5.24578 0.41407,-2.488 2.76706,-4.17432 5.26313,-3.76882 2.1853,0.35502 3.80347,2.21615 3.85141,4.41853 m 0.16353,0.95269 c -0.4119,2.48947 -2.7589,4.17443 -5.24385,3.76436 -2.48499,-0.41008 -4.1668,-2.76016 -3.7537,-5.2533 0.41311,-2.49314 2.76509,-4.18576 5.25969,-3.78929 2.18403,0.34711 3.80089,2.20019 3.84713,4.39262 m -9.14697,-2.32892 4.06736,-2.59707 m 3.87868,1.47273 1.57496,4.00707 m -4.18187,-5.34578 3.62902,2.61703 m -0.0576,5.45191 -5.23717,2.26175 m -4.02247,-3.34554 0.61582,-5.04852"
       sodipodi:ry="4.56147"
       sodipodi:rx="4.56147"
       sodipodi:cy="359.93661"
       sodipodi:cx="572.89856"
       id="path4720"
       style="fill:#d40000;fill-opacity:0;stroke:#000000;stroke-width:0.1013116;stroke-linecap:butt;stroke-miterlimit:4;stroke-opacity:1;stroke-dasharray:none;stroke-dashoffset:0"
       sodipodi:type="arc"
       sodipodi:start="0.16263899"
       sodipodi:end="6.2666254"
       sodipodi:open="true"
       inkscape:path-effect="#path-effect4760" />
    <path
       transform="matrix(-0.09047068,9.8701232,-9.8701232,-0.09047068,4093.463,-4890.7392)"
       d="m 577.55219,361.06046 c -0.4013,2.48085 -2.74255,4.16175 -5.22394,3.75016 -2.48141,-0.41159 -4.16301,-2.76011 -3.75243,-5.24853 0.41059,-2.48842 2.75804,-4.17459 5.24499,-3.76803 2.22905,0.3644 3.85461,2.30447 3.82311,4.56175 m -0.24802,0.24138 c -0.41098,2.48339 -2.75882,4.1662 -5.24632,3.75665 -2.48754,-0.40956 -4.17285,-2.75655 -3.76512,-5.24334 0.40774,-2.4868 2.75411,-4.17175 5.24117,-3.76388 2.22915,0.36556 3.8558,2.30656 3.82658,4.56482 m -0.29539,0.93262 c -0.41452,2.48333 -2.76512,4.16561 -5.25568,3.75486 -2.49058,-0.41075 -4.17828,-2.75923 -3.77321,-5.24835 0.40508,-2.48913 2.74936,-4.17652 5.23406,-3.77212 2.22703,0.36247 3.85192,2.30035 3.82076,4.55459 m 0.26084,0.68996 c -0.40106,2.491 -2.74185,4.17939 -5.2224,3.77557 -2.48058,-0.40383 -4.16121,-2.74673 -3.74916,-5.22945 0.41205,-2.48272 2.76101,-4.16489 5.25006,-3.75437 2.23093,0.36794 3.85837,2.31054 3.8293,4.5702 m -0.37815,0.34036 c -0.41251,2.48221 -2.76114,4.16386 -5.24899,3.75273 -2.48788,-0.41114 -4.17299,-2.75964 -3.76444,-5.24846 0.40854,-2.48882 2.75608,-4.17568 5.24507,-3.77033 2.23088,0.36331 3.85943,2.30215 3.83283,4.55772 m -8.77491,-2.5155 4.11775,-2.51641 m 3.88043,1.58067 1.45977,4.05044 m -4.0415,-5.46605 3.56026,2.70984 m -0.13289,5.35766 -5.24838,2.23564 m -4.02526,-3.41622 0.69251,-5.03857"
       sodipodi:ry="4.56147"
       sodipodi:rx="4.56147"
       sodipodi:cy="359.93661"
       sodipodi:cx="572.89856"
       id="path4720-7"
       style="fill:#d40000;fill-opacity:0;stroke:#000000;stroke-width:0.1013116;stroke-linecap:butt;stroke-miterlimit:4;stroke-opacity:1;stroke-dasharray:none;stroke-dashoffset:0"
       sodipodi:type="arc"
       sodipodi:start="0.16263899"
       sodipodi:end="6.2969936"
       sodipodi:open="true"
       inkscape:path-effect="#path-effect4785" />
    <path
       sodipodi:end="7.789268"
       sodipodi:start="1.6635284"
       sodipodi:type="arc"
       style="fill:#d40000;fill-opacity:0;stroke:#000000;stroke-width:0.1013116;stroke-linecap:butt;stroke-miterlimit:4;stroke-opacity:1;stroke-dasharray:none;stroke-dashoffset:0"
       id="path4787"
       sodipodi:cx="572.89856"
       sodipodi:cy="359.93661"
       sodipodi:rx="4.56147"
       sodipodi:ry="4.56147"
       d="m 572.65892,364.93314 c -2.49946,-0.2401 -4.33751,-2.46752 -4.09814,-4.98079 0.23936,-2.51331 2.46595,-4.36105 4.9779,-4.13102 2.51196,0.23004 4.3583,2.45052 4.1263,4.95711 -0.20657,2.23184 -2.00702,3.98186 -4.24587,4.12633 m -0.99462,-0.48568 c -2.51236,-0.23671 -4.3592,-2.46159 -4.12799,-4.97214 0.23121,-2.51059 2.45284,-4.3563 4.961,-4.1241 2.50816,0.2322 4.35304,2.45431 4.1212,4.96264 -0.20643,2.23339 -2.00545,3.98464 -4.2413,4.1304 m -0.98636,0.25007 c -2.51709,-0.23679 -4.36761,-2.46237 -4.14047,-4.97452 0.22714,-2.51219 2.44559,-4.35988 4.9502,-4.13079 2.50461,0.2291 4.34671,2.44795 4.11171,4.95166 -0.20923,2.22928 -2.01057,3.97641 -4.24901,4.11686 m -0.33486,-0.0194 c -2.49915,-0.22656 -4.33659,-2.44399 -4.09611,-4.94691 0.24049,-2.50294 2.46836,-4.34321 4.98227,-4.10557 2.51391,0.23763 4.36225,2.46346 4.13306,4.97532 -0.20407,2.23653 -2.00203,3.98991 -4.23767,4.13753 m -1.06443,-0.3651 c -2.51441,-0.23829 -4.36229,-2.4647 -4.13154,-4.97736 0.23075,-2.5127 2.45265,-4.36042 4.96189,-4.13092 2.50924,0.2295 4.35568,2.44906 4.12641,4.95404 -0.20414,2.23039 -2.00064,3.97879 -4.23303,4.12099 m -0.51904,0.39267 c -2.51465,-0.22767 -4.36283,-2.44707 -4.13255,-4.95356 0.23029,-2.50653 2.45169,-4.35085 4.96021,-4.11929 2.50852,0.23156 4.35425,2.4512 4.124,4.95447 -0.20501,2.22888 -2.00236,3.97468 -4.23585,4.11261 m 2.0653,-9.34404 2.81983,3.91621 m -1.27513,3.97902 -3.92436,1.77102 m 5.13393,-4.45115 -2.42707,3.75872 m -5.37922,0.26457 -2.60395,-5.07572 m 3.10673,-4.25199 5.07604,0.317"
       transform="matrix(-9.4149701,-2.9640943,2.9640943,-9.4149701,4983.8646,5817.3902)"
       sodipodi:open="true"
       inkscape:path-effect="#path-effect4791" />
    <path
       transform="matrix(-0.7999606,-9.8380679,9.8380679,-0.7999606,-2253.4297,6825.2107)"
       d="m 577.2165,361.34169 c -0.80169,2.38089 -3.38649,3.65618 -5.76792,2.84419 -2.38147,-0.81199 -3.65745,-3.40406 -2.84646,-5.79253 0.81098,-2.38847 3.402,-3.66902 5.78899,-2.86206 2.35263,0.79534 3.63528,3.32593 2.88623,5.6929 m -0.41244,0.43157 c -0.81137,2.38343 -3.40277,3.66063 -5.79031,2.85068 -2.38758,-0.80995 -3.66728,-3.4005 -2.85914,-5.78734 0.80813,-2.38684 3.39806,-3.66617 5.78517,-2.8579 2.35274,0.79663 3.63665,3.32819 2.8903,5.69623 m 0.0747,-0.27198 c -0.81491,2.38337 -3.40907,3.66004 -5.79967,2.84889 -2.39063,-0.81115 -3.67271,-3.40319 -2.86724,-5.79235 0.80548,-2.38917 3.39332,-3.67095 5.77807,-2.86614 2.35042,0.79322 3.63246,3.32142 2.88399,5.68496 m -0.0443,-0.10736 c -0.80145,2.39105 -3.3858,3.67382 -5.76639,2.8696 -2.38062,-0.80422 -3.65564,-3.39069 -2.84319,-5.77345 0.81245,-2.38276 3.40497,-3.65931 5.79407,-2.8484 2.35471,0.79924 3.63939,3.33248 2.89307,5.70196 m 0.23411,0.444 c -0.8129,2.38225 -3.40508,3.6583 -5.79297,2.84677 -2.38792,-0.81154 -3.66741,-3.4036 -2.85847,-5.79246 0.80895,-2.38887 3.40005,-3.67011 5.78908,-2.86437 2.35465,0.79415 3.64064,3.3234 2.89726,5.68843 m -0.18021,0.36307 c -0.81308,2.39022 -3.40548,3.67152 -5.79372,2.86462 -2.38828,-0.80691 -3.66814,-3.39642 -2.85974,-5.78373 0.80841,-2.38732 3.39897,-3.66851 5.78728,-2.86404 2.35392,0.79289 3.63921,3.31995 2.8949,5.68122 m -6.38972,2.98135 -2.84248,-3.65337 m 10.30631,-0.30774 -3.41667,4.32 m 2.3728,-1.57605 -5.66413,1.84747 m 2.79109,-10.50586 3.96241,4.29732 m -10.31297,2.06758 1.10535,-4.43705"
       sodipodi:ry="4.56147"
       sodipodi:rx="4.56147"
       sodipodi:cy="359.93661"
       sodipodi:cx="572.89856"
       id="path4795"
       style="fill:#d40000;fill-opacity:0;stroke:#000000;stroke-width:0.1013116;stroke-linecap:butt;stroke-miterlimit:4;stroke-opacity:1;stroke-dasharray:none;stroke-dashoffset:0"
       sodipodi:type="arc"
       sodipodi:start="0.32663774"
       sodipodi:end="6.5894409"
       sodipodi:open="true"
       inkscape:path-effect="#path-effect4797" />
  </g>
</svg>
