<?xml version="1.0" encoding="UTF-8" standalone="no"?>
<!-- Created with Inkscape (http://www.inkscape.org/) -->

<svg
   xmlns:dc="http://purl.org/dc/elements/1.1/"
   xmlns:cc="http://creativecommons.org/ns#"
   xmlns:rdf="http://www.w3.org/1999/02/22-rdf-syntax-ns#"
   xmlns:svg="http://www.w3.org/2000/svg"
   xmlns="http://www.w3.org/2000/svg"
   xmlns:sodipodi="http://sodipodi.sourceforge.net/DTD/sodipodi-0.dtd"
   xmlns:inkscape="http://www.inkscape.org/namespaces/inkscape"
   width="1052.3622"
   height="744.09448"
   id="svg2"
   version="1.1"
   inkscape:version="0.48.4 r9939"
   sodipodi:docname="reactors-5.svg">
  <defs
     id="defs4">
    <inkscape:path-effect
       effect="sketch"
       id="path-effect7956"
       is_visible="true"
       nbiter_approxstrokes="5"
       strokelength="65"
       strokelength_rdm="0;1"
       strokeoverlap="0"
       strokeoverlap_rdm="0;1"
       ends_tolerance="0;1"
       parallel_offset="3;1"
       tremble_size="3;1"
       tremble_frequency="2"
       nbtangents="5"
       tgt_places_rdmness="1;1"
       tgtscale="10"
       tgtlength="2"
       tgtlength_rdm="0.3;1" />
    <inkscape:path-effect
       effect="bend_path"
       id="path-effect7954"
       is_visible="true"
       bendpath="m 386.76948,684.91173 1,0"
       prop_scale="1"
       scale_y_rel="false"
       vertical="false" />
    <marker
       inkscape:stockid="Arrow2Mend"
       orient="auto"
       refY="0.0"
       refX="0.0"
       id="Arrow2Mend"
       style="overflow:visible;">
      <path
         id="path3849"
         style="fill-rule:evenodd;stroke-width:0.62500000;stroke-linejoin:round;"
         d="M 8.7185878,4.0337352 L -2.2072895,0.016013256 L 8.7185884,-4.0017078 C 6.9730900,-1.6296469 6.9831476,1.6157441 8.7185878,4.0337352 z "
         transform="scale(0.6) rotate(180) translate(0,0)" />
    </marker>
    <marker
       inkscape:stockid="Arrow2Mend"
       orient="auto"
       refY="0"
       refX="0"
       id="Arrow2Mend-1"
       style="overflow:visible">
      <path
         inkscape:connector-curvature="0"
         id="path3849-9"
         style="fill-rule:evenodd;stroke-width:0.625;stroke-linejoin:round"
         d="M 8.7185878,4.0337352 -2.2072895,0.01601326 8.7185884,-4.0017078 c -1.7454984,2.3720609 -1.7354408,5.6174519 -6e-7,8.035443 z"
         transform="scale(-0.6,-0.6)" />
    </marker>
    <marker
       inkscape:stockid="Arrow2Mend"
       orient="auto"
       refY="0"
       refX="0"
       id="marker4480"
       style="overflow:visible">
      <path
         inkscape:connector-curvature="0"
         id="path4482"
         style="fill-rule:evenodd;stroke-width:0.625;stroke-linejoin:round"
         d="M 8.7185878,4.0337352 -2.2072895,0.01601326 8.7185884,-4.0017078 c -1.7454984,2.3720609 -1.7354408,5.6174519 -6e-7,8.035443 z"
         transform="scale(-0.6,-0.6)" />
    </marker>
    <marker
       inkscape:stockid="Arrow2Mend"
       orient="auto"
       refY="0"
       refX="0"
       id="marker4484"
       style="overflow:visible">
      <path
         inkscape:connector-curvature="0"
         id="path4486"
         style="fill-rule:evenodd;stroke-width:0.625;stroke-linejoin:round"
         d="M 8.7185878,4.0337352 -2.2072895,0.01601326 8.7185884,-4.0017078 c -1.7454984,2.3720609 -1.7354408,5.6174519 -6e-7,8.035443 z"
         transform="scale(-0.6,-0.6)" />
    </marker>
    <marker
       inkscape:stockid="Arrow2Mend"
       orient="auto"
       refY="0"
       refX="0"
       id="marker4488"
       style="overflow:visible">
      <path
         inkscape:connector-curvature="0"
         id="path4490"
         style="fill-rule:evenodd;stroke-width:0.625;stroke-linejoin:round"
         d="M 8.7185878,4.0337352 -2.2072895,0.01601326 8.7185884,-4.0017078 c -1.7454984,2.3720609 -1.7354408,5.6174519 -6e-7,8.035443 z"
         transform="scale(-0.6,-0.6)" />
    </marker>
    <marker
       inkscape:stockid="Arrow2Mend"
       orient="auto"
       refY="0"
       refX="0"
       id="marker4492"
       style="overflow:visible">
      <path
         inkscape:connector-curvature="0"
         id="path4494"
         style="fill-rule:evenodd;stroke-width:0.625;stroke-linejoin:round"
         d="M 8.7185878,4.0337352 -2.2072895,0.01601326 8.7185884,-4.0017078 c -1.7454984,2.3720609 -1.7354408,5.6174519 -6e-7,8.035443 z"
         transform="scale(-0.6,-0.6)" />
    </marker>
    <marker
       inkscape:stockid="Arrow2Mend"
       orient="auto"
       refY="0"
       refX="0"
       id="marker4496"
       style="overflow:visible">
      <path
         inkscape:connector-curvature="0"
         id="path4498"
         style="fill-rule:evenodd;stroke-width:0.625;stroke-linejoin:round"
         d="M 8.7185878,4.0337352 -2.2072895,0.01601326 8.7185884,-4.0017078 c -1.7454984,2.3720609 -1.7354408,5.6174519 -6e-7,8.035443 z"
         transform="scale(-0.6,-0.6)" />
    </marker>
    <inkscape:path-effect
       effect="sketch"
       id="path-effect5535"
       is_visible="true"
       nbiter_approxstrokes="5"
       strokelength="100"
       strokelength_rdm="0.3;1"
       strokeoverlap="0.3"
       strokeoverlap_rdm="0.3;1"
       ends_tolerance="0;1"
       parallel_offset="3;1"
       tremble_size="3;1"
       tremble_frequency="1"
       nbtangents="5"
       tgt_places_rdmness="1;1"
       tgtscale="10"
       tgtlength="4"
       tgtlength_rdm="0.3;1" />
    <inkscape:path-effect
       effect="sketch"
       id="path-effect6368"
       is_visible="true"
       nbiter_approxstrokes="5"
       strokelength="50"
       strokelength_rdm="0.2;1"
       strokeoverlap="0.2"
       strokeoverlap_rdm="0.2;1"
       ends_tolerance="0;1"
       parallel_offset="2;1"
       tremble_size="2;1"
       tremble_frequency="2.5"
       nbtangents="5"
       tgt_places_rdmness="1;1"
       tgtscale="10"
       tgtlength="2"
       tgtlength_rdm="0.2;1" />
    <inkscape:path-effect
       tgtlength_rdm="0.2;1"
       tgtlength="2"
       tgtscale="10"
       tgt_places_rdmness="1;1"
       nbtangents="5"
       tremble_frequency="2.5"
       tremble_size="1.4;1"
       parallel_offset="1.3;1"
       ends_tolerance="0;1"
       strokeoverlap_rdm="0.2;1"
       strokeoverlap="0.2"
       strokelength_rdm="0.2;1"
       strokelength="50"
       nbiter_approxstrokes="3"
       is_visible="true"
       id="path-effect6372"
       effect="sketch" />
    <inkscape:path-effect
       effect="sketch"
       id="path-effect6376"
       is_visible="true"
       nbiter_approxstrokes="4"
       strokelength="56"
       strokelength_rdm="0.2;1"
       strokeoverlap="0.2"
       strokeoverlap_rdm="0.2;1"
       ends_tolerance="0;1"
       parallel_offset="1.7;1"
       tremble_size="1.7;1"
       tremble_frequency="2.5"
       nbtangents="5"
       tgt_places_rdmness="1;1"
       tgtscale="10"
       tgtlength="2"
       tgtlength_rdm="0.2;1" />
    <inkscape:path-effect
       effect="sketch"
       id="path-effect7780"
       is_visible="true"
       nbiter_approxstrokes="5"
       strokelength="50"
       strokelength_rdm="0.2;1"
       strokeoverlap="0.2"
       strokeoverlap_rdm="0.2;1"
       ends_tolerance="0;1"
       parallel_offset="2;1"
       tremble_size="2;1"
       tremble_frequency="2.5"
       nbtangents="5"
       tgt_places_rdmness="1;1"
       tgtscale="10"
       tgtlength="2"
       tgtlength_rdm="0.2;1" />
    <inkscape:path-effect
       tgtlength_rdm="0.2;1"
       tgtlength="2"
       tgtscale="10"
       tgt_places_rdmness="1;1"
       nbtangents="5"
       tremble_frequency="2.5"
       tremble_size="1.4;1"
       parallel_offset="1.3;1"
       ends_tolerance="0;1"
       strokeoverlap_rdm="0.2;1"
       strokeoverlap="0.2"
       strokelength_rdm="0.2;1"
       strokelength="50"
       nbiter_approxstrokes="3"
       is_visible="true"
       id="path-effect7782"
       effect="sketch" />
    <inkscape:path-effect
       effect="sketch"
       id="path-effect7784"
       is_visible="true"
       nbiter_approxstrokes="4"
       strokelength="56"
       strokelength_rdm="0.2;1"
       strokeoverlap="0.2"
       strokeoverlap_rdm="0.2;1"
       ends_tolerance="0;1"
       parallel_offset="1.7;1"
       tremble_size="1.7;1"
       tremble_frequency="2.5"
       nbtangents="5"
       tgt_places_rdmness="1;1"
       tgtscale="10"
       tgtlength="2"
       tgtlength_rdm="0.2;1" />
    <inkscape:path-effect
       effect="sketch"
       id="path-effect7786"
       is_visible="true"
       nbiter_approxstrokes="5"
       strokelength="50"
       strokelength_rdm="0.2;1"
       strokeoverlap="0.2"
       strokeoverlap_rdm="0.2;1"
       ends_tolerance="0;1"
       parallel_offset="2;1"
       tremble_size="2;1"
       tremble_frequency="2.5"
       nbtangents="5"
       tgt_places_rdmness="1;1"
       tgtscale="10"
       tgtlength="2"
       tgtlength_rdm="0.2;1" />
    <inkscape:path-effect
       tgtlength_rdm="0.2;1"
       tgtlength="2"
       tgtscale="10"
       tgt_places_rdmness="1;1"
       nbtangents="5"
       tremble_frequency="2.5"
       tremble_size="1.4;1"
       parallel_offset="1.3;1"
       ends_tolerance="0;1"
       strokeoverlap_rdm="0.2;1"
       strokeoverlap="0.2"
       strokelength_rdm="0.2;1"
       strokelength="50"
       nbiter_approxstrokes="3"
       is_visible="true"
       id="path-effect7788"
       effect="sketch" />
    <inkscape:path-effect
       effect="sketch"
       id="path-effect7790"
       is_visible="true"
       nbiter_approxstrokes="4"
       strokelength="56"
       strokelength_rdm="0.2;1"
       strokeoverlap="0.2"
       strokeoverlap_rdm="0.2;1"
       ends_tolerance="0;1"
       parallel_offset="1.7;1"
       tremble_size="1.7;1"
       tremble_frequency="2.5"
       nbtangents="5"
       tgt_places_rdmness="1;1"
       tgtscale="10"
       tgtlength="2"
       tgtlength_rdm="0.2;1" />
    <inkscape:path-effect
       effect="sketch"
       id="path-effect6405"
       is_visible="true"
       nbiter_approxstrokes="8"
       strokelength="100"
       strokelength_rdm="0.3;1"
       strokeoverlap="0.3"
       strokeoverlap_rdm="0.5;1"
       ends_tolerance="0.2;1"
       parallel_offset="0.5;1"
       tremble_size="0.4;1"
       tremble_frequency="1"
       nbtangents="5"
       tgt_places_rdmness="1;1"
       tgtscale="10"
       tgtlength="2"
       tgtlength_rdm="0.3;1" />
    <inkscape:path-effect
       effect="sketch"
       id="path-effect6401"
       is_visible="true"
       nbiter_approxstrokes="8"
       strokelength="100"
       strokelength_rdm="0.3;1"
       strokeoverlap="0.3"
       strokeoverlap_rdm="0.8;1"
       ends_tolerance="0.3;1"
       parallel_offset="0.3;1"
       tremble_size="0.3;1"
       tremble_frequency="1"
       nbtangents="5"
       tgt_places_rdmness="1;1"
       tgtscale="10"
       tgtlength="3"
       tgtlength_rdm="0.3;1" />
    <inkscape:path-effect
       effect="sketch"
       id="path-effect6399"
       is_visible="true"
       nbiter_approxstrokes="5"
       strokelength="100"
       strokelength_rdm="0.4;1"
       strokeoverlap="0.3"
       strokeoverlap_rdm="0.3;1"
       ends_tolerance="0;1"
       parallel_offset="0.3;1"
       tremble_size="0.3;1"
       tremble_frequency="1"
       nbtangents="5"
       tgt_places_rdmness="1;1"
       tgtscale="10"
       tgtlength="2"
       tgtlength_rdm="0.3;1" />
  </defs>
  <sodipodi:namedview
     id="base"
     pagecolor="#ffffff"
     bordercolor="#666666"
     borderopacity="1.0"
     inkscape:pageopacity="0.0"
     inkscape:pageshadow="2"
     inkscape:zoom="0.7"
     inkscape:cx="871.8992"
     inkscape:cy="269.76658"
     inkscape:document-units="px"
     inkscape:current-layer="layer1"
     showgrid="false"
     inkscape:window-width="3436"
     inkscape:window-height="1388"
     inkscape:window-x="1680"
     inkscape:window-y="32"
     inkscape:window-maximized="0"
     showguides="true"
     inkscape:guide-bbox="true" />
  <metadata
     id="metadata7">
    <rdf:RDF>
      <cc:Work
         rdf:about="">
        <dc:format>image/svg+xml</dc:format>
        <dc:type
           rdf:resource="http://purl.org/dc/dcmitype/StillImage" />
        <dc:title></dc:title>
      </cc:Work>
    </rdf:RDF>
  </metadata>
  <g
     inkscape:label="Layer 1"
     inkscape:groupmode="layer"
     id="layer1"
     transform="translate(0,-308.2677)">
    <path
       style="fill:none;stroke:#000000;stroke-width:1.29999995;stroke-linecap:butt;stroke-linejoin:miter;stroke-miterlimit:4;stroke-opacity:1;stroke-dasharray:31.2, 31.2;stroke-dashoffset:0"
       d="m 388.59842,327.02953 c 0.88128,10.15916 -0.28141,21.66793 -0.868,32.46718 0,0 0,0 0,0 -0.58678,10.80257 -0.49832,21.1615 -1.47657,31 -3e-4,0.003 -6e-4,0.006 -9e-4,0.009 m 0.14073,-4.66346 c -0.86575,10.48625 0.17508,20.80909 0.5633,29.9825 0.38834,9.17624 0.33437,22.16137 0.96094,33.95312 0,1e-5 0,1e-5 0,1e-5 1.9e-4,0.004 3.8e-4,0.007 5.8e-4,0.0109 m -2.4152,3.49085 c -0.59982,10.33827 1.3235,21.1801 4.00837,31.01389 2.68569,9.83682 -1.16586,23.03469 -3.46875,36.57812 0,0 0,10e-6 0,10e-6 -7.1e-4,0.004 -0.001,0.008 -0.002,0.0125 m -0.16248,-2.29937 c -0.5844,10.83762 1.02352,21.37484 3.04742,31.6228 2.02452,10.25113 0.19375,22.21054 0.5625,34.14063 0,0 0,0 0,0 1.1e-4,0.004 2.3e-4,0.007 3.4e-4,0.011 m -1.68734,-0.61004 c 0.53804,11.20394 -0.30259,20.8666 -0.86769,30.07559 -0.56527,9.21182 -0.32644,21.04803 -0.96093,30.60156 0,0 0,0 -10e-6,0 -1.9e-4,0.003 -3.9e-4,0.006 -5.8e-4,0.009 m 3.30618,4.4077 c 0.98288,11.11853 0.0285,21.5154 0.046,32.02098 0.0174,10.50882 -0.93847,20.82316 -2.85938,29.94531 0,10e-6 0,10e-6 0,10e-6 -5.9e-4,0.003 -0.001,0.006 -0.002,0.008 m -2.13034,0.91581 c 0.75711,11.01841 0.75386,23.59721 2.27274,38.32577 1.51935,14.73309 0.39447,19.88481 1.21875,27.10937 0,0 0,0 0,0 2.5e-4,0.002 5e-4,0.004 7.6e-4,0.007 m 0.16341,0.35439 c 0.11652,10.28395 -0.7876,21.62696 -2.32042,32.42019 -1.5333,10.79655 0.29171,21.12844 0.89062,30.85937 0,10e-6 0,10e-6 0,10e-6 1.9e-4,0.003 3.7e-4,0.006 5.6e-4,0.009 m -0.0471,1.64202 c 0.39004,11.24263 0.0247,20.3653 0.0934,28.57556 0.0688,8.21278 -0.52248,21.86149 -1.57031,33.0625 0,0 0,0 -10e-6,0 -3.2e-4,0.003 -6.4e-4,0.007 -9.6e-4,0.0103 m -0.70206,1.96858 c 0.10993,11.00908 1.16662,21.12465 3.53896,30.89608 2.37307,9.77444 -1.11454,21.98794 -3.375,33.48437 0,0 0,0 0,0 -6.9e-4,0.004 -0.001,0.007 -0.002,0.0106 m -0.48986,1.96792 c 0.26512,10.59556 -0.16369,20.97264 -0.49243,30.40432 -0.32885,9.4345 -0.19639,20.7609 -0.5625,29.8281 0,0 0,0 0,0 -1.2e-4,0 -2.3e-4,0.01 -3.4e-4,0.01 m -0.98399,4.3372 c 0.006,1.2265 0.0139,2.4367 0.022,3.6293 m 2.69641,-712.79324 c -0.36631,10.61935 0.5069,21.59766 1.50034,32.3027 0,0 0,0 0,0 0.99375,10.70833 0.32151,20.00019 0.9375,27.46093 1.9e-4,0.002 3.8e-4,0.005 5.7e-4,0.007 m 0.93658,2.48746 c -0.38254,10.7991 -0.50872,22.14469 -1.49965,33.91972 -0.99123,11.77864 0.26226,21.54804 0.77344,32.17187 0,0 0,0 0,0 1.6e-4,0.003 3.1e-4,0.007 4.7e-4,0.01 m 2.24885,-4.28852 c -0.74132,11.21209 -0.44347,21.4357 -1.33526,31.78652 -0.89206,10.35401 -1.06262,21.97748 -3.1875,33.41406 0,10e-6 0,10e-6 0,10e-6 -6.5e-4,0.004 -0.001,0.007 -0.002,0.0105 m 0.002,-1.7824 c -0.43659,10.18297 0.3891,22.33108 1.14884,34.50622 0.75998,12.17889 0.37885,22.47724 1.14844,34.89062 0,10e-6 0,10e-6 0,10e-6 2.3e-4,0.004 4.7e-4,0.008 7.1e-4,0.0115 m 0.74948,-3.79818 c 0.21056,11.00172 -0.0824,21.83976 -0.21113,33.0289 -0.12873,11.19259 -0.65793,21.22893 -1.99219,31.1875 0,0 0,0 0,0 -4.1e-4,0.003 -8.2e-4,0.006 -0.001,0.009 m -1.49906,-1.85096 c -0.31978,10.61173 0.0697,21.88969 0.18779,33.21676 0.11815,11.33057 1.31815,21.72388 3.91406,32.66406 0,10e-6 0,10e-6 0,10e-6 8e-4,0.003 0.002,0.007 0.002,0.0101 m -1.47916,3.2346 c -0.21802,11.18103 0.63676,21.67062 1.8752,32.53655 1.23883,10.86927 -0.43497,19.69143 -1.26562,26.61718 0,0 0,0 0,0 -2.6e-4,0.002 -5.1e-4,0.004 -7.7e-4,0.006 m -0.67839,7.69093 c 0.57617,10.6425 -1.73719,21.1891 -5.25053,31.10736 -3.51442,9.92131 1.15949,22.82832 3.44531,35.96875 0,0 0,0 0,0 7.1e-4,0.004 0.001,0.008 0.002,0.0121 m -1.29117,-8.36913 c 5.8e-4,11.03348 0.94757,22.74343 2.8125,35.77106 1.86551,13.03165 -0.7155,22.102 -2.10937,33.78906 0,10e-6 0,10e-6 -10e-6,10e-6 -4.2e-4,0.004 -8.5e-4,0.007 -0.001,0.0108 m 1.82892,0.93598 c -0.52983,10.02708 0.97682,22.53064 2.95361,35.13917 1.97741,12.61242 0.56647,21.45513 1.71094,31.86719 0,0 0,0 0,0 3.5e-4,0.003 7.1e-4,0.006 0.001,0.01 m -0.54088,-4.73331 c -0.82704,11.56321 -0.30316,21.58947 -0.93674,32.32522 -0.63377,10.7391 0.34592,21.3584 1.07812,31.586 0,0 0,0 10e-6,0 2.2e-4,0 4.5e-4,0.01 6.7e-4,0.01 m -6.91481,4.0559 c -0.009,1.3435 -0.003,2.6629 0.0163,3.9604 m 0.87445,-722.38291 c 0.0548,10.82235 0.25804,21.90296 0.77338,33.26344 10e-6,0 10e-6,0 10e-6,10e-6 0.5155,11.36397 -0.78799,21.33229 -2.39063,31.51562 -4.9e-4,0.003 -9.9e-4,0.006 -0.001,0.009 m 4.66553,-0.0933 c -0.009,10.66606 -1.76574,21.45413 -5.29686,31.85733 -3.53221,10.40642 1.75612,22.79155 5.22656,35.89844 0,0 0,0 0,0 0.001,0.004 0.002,0.008 0.003,0.0121 m -0.44887,-2.01839 c -0.39021,10.10462 -0.29215,21.77227 -0.91371,32.81879 -0.62175,11.04992 0.51984,22.88469 1.54688,36.13281 0,0 0,0 0,0 3.2e-4,0.004 6.3e-4,0.008 9.5e-4,0.0122 m -5.1111,-3.37806 c -0.83455,9.92603 0.16098,23.1015 0.5164,36.80334 0.35553,13.70604 -0.59279,20.96726 -1.78125,30.39062 0,0 0,0 0,0 -3.7e-4,0.003 -7.3e-4,0.006 -0.001,0.009 m 6.11835,-0.0457 c 0.0621,10.65818 -0.52816,21.32234 -1.59381,31.50578 -1.06599,10.18657 -0.30168,22.01678 -0.86719,33.53125 0,0 0,0 0,0 -1.7e-4,0.004 -3.5e-4,0.007 -5.2e-4,0.0106 m -0.86714,-2.41554 c -0.50634,9.90991 1.12065,22.26652 3.39891,34.34241 2.27896,12.0796 0.2976,21.05152 0.89062,30.67187 0,0 0,0 0,0 1.9e-4,0.003 3.7e-4,0.006 5.5e-4,0.009 m -6.02336,5.32162 c 0.67948,11.04026 1.35311,21.08097 4.10094,30.75543 2.74867,9.67745 -0.71634,20.98782 -2.10937,30.48437 0,10e-6 0,10e-6 -10e-6,10e-6 -4.2e-4,0.003 -8.5e-4,0.006 -0.001,0.009 m 4.45486,0.28249 c 0.48358,10.83737 -0.0771,20.9491 -0.23483,30.35719 -0.15781,9.41097 0.20566,21.24791 0.63282,31.28124 0,0 0,0 0,0 1.3e-4,0.003 2.6e-4,0.006 3.9e-4,0.009 m -2.15714,1.43034 c -0.53822,10.74428 0.0249,21.78901 0.0708,32.88852 0.0459,11.10292 0.27548,22.81366 0.86719,35.92187 0,0 0,0 0,0 1.8e-4,0.004 3.6e-4,0.008 5.4e-4,0.0121 m -1.05542,-2.69733 c -0.2019,10.91634 1.48333,22.52621 4.47675,35.11492 2.99435,12.59259 -0.11971,21.92809 -0.35156,33.32031 0,0 0,0 0,0 -7e-5,0.004 -1.4e-4,0.007 -2.1e-4,0.0105 m -0.72574,-4.45442 c 0.66235,9.98775 -1.11727,21.98418 -3.3053,33.47516 -2.18871,11.4945 0.40024,21.4913 1.17187,31.9375 0,0 0,0 10e-6,0 2.3e-4,0 4.7e-4,0.01 7.1e-4,0.01 m -4.10191,1.4771 c 0.0466,1.2897 0.0818,2.5731 0.10761,3.8519 m 4.48518,-721.47686 c -0.64025,11.03259 -0.99535,21.29696 -3.02285,31.36482 0,0 0,0 0,0 -2.02812,10.07096 0.47801,21.62087 1.47657,32.38281 3e-4,0.003 6.1e-4,0.007 9.2e-4,0.01 m -0.6806,7.87454 c 0.008,10.25239 0.39158,21.05522 1.17186,30.6624 0.78053,9.61014 -0.24903,21.65008 -0.72656,32.40625 0,0 0,0 0,0 -1.4e-4,0.003 -2.9e-4,0.007 -4.4e-4,0.01 m 5.15728,-2.69602 c 0.63087,9.9881 -1.56933,22.54847 -4.68809,35.16266 -3.11971,12.61806 0.46383,22.1121 1.42969,33.85937 0,0 0,0 0,0 3e-4,0.004 5.9e-4,0.007 8.9e-4,0.0109 m -1.40654,-7.99261 c 0.64725,11.29022 -0.30967,21.63974 -0.89123,32.4427 -0.58173,10.80629 -0.4042,21.82099 -1.21874,32.94531 0,0 0,0 -10e-6,0 -2.5e-4,0.003 -5e-4,0.007 -7.5e-4,0.0103 m 2.13275,5.6722 c -0.88864,11.46957 1.00854,21.54778 3.04769,32.11441 2.03978,10.56987 -0.0102,22.04202 -0.0234,33.62499 0,10e-6 0,10e-6 -10e-6,10e-6 0,0.004 0,0.007 -10e-6,0.0107 m -4.12493,-3.98591 c 0.0632,9.91804 1.27488,22.79313 3.79682,35.8424 2.52272,13.05329 -0.27319,20.89516 -0.79687,30.20313 0,0 0,0 -10e-6,0 -1.6e-4,0.003 -3.2e-4,0.006 -4.8e-4,0.009 m -0.20954,1.92257 c 0.99011,10.05832 -0.90268,22.58267 -2.7431,35.2329 -1.84098,12.65413 1.00289,21.59936 3.04687,32.26562 0,10e-6 0,10e-6 0,10e-6 6.3e-4,0.003 0.001,0.007 0.002,0.01 m -0.916,-2.06249 c -0.055,10.674 -0.61425,21.66497 -1.80464,32.53702 -1.19074,10.8754 0.36575,21.66871 1.07813,32.52344 0,0 0,0 0,0 2.2e-4,0.003 4.4e-4,0.007 6.6e-4,0.01 m -3.14174,-1.80419 c -0.49091,11.39211 0.83847,22.43593 2.50827,34.83323 1.67031,12.40112 -0.86887,21.47773 -2.60156,31.96094 0,0 0,0 -10e-6,0 -5.3e-4,0.003 -0.001,0.006 -0.002,0.01 m 2.20383,-1.64015 c -0.96692,11.00159 0.55509,21.61872 1.68839,32.37266 1.13365,10.75725 0.11935,21.3401 0.35156,31.49218 0,0 0,0 0,0 7e-5,0.003 1.5e-4,0.006 2.2e-4,0.009 m -3.09403,5.01598 c -0.0699,10.53308 0.45298,20.85375 1.336,30.0293 0.8833,9.1784 -1.00012,21.6873 -3,32.5703 0,0 0,0 0,0 -6.2e-4,0 -0.001,0.01 -0.002,0.01 m -0.8427,-4.1946 c -0.0995,1.3711 -0.17446,2.7321 -0.2286,4.0885 m -0.70879,-712.22137 c -0.74052,11.59425 0.8636,21.34587 2.60224,31.52835 0,0 0,0 0,10e-6 1.73918,10.18561 0.49724,20.04311 1.47656,27.67187 3.1e-4,0.002 6.1e-4,0.005 9.1e-4,0.007 m -0.58644,0.65977 c 0.43693,11.43802 0.16449,20.98861 0.51522,30.52069 0.35084,9.53501 -0.53473,21.60993 -1.61718,32.33593 0,0 0,0 -10e-6,0 -3.3e-4,0.003 -6.6e-4,0.007 -9.9e-4,0.01 m 0.32847,1.4069 c -0.70195,11.43053 0.14508,21.4817 0.39909,31.97382 0.25409,10.49535 -0.4232,21.2478 -1.24219,31.25781 0,0 0,0 0,0 -2.5e-4,0.003 -5e-4,0.006 -7.6e-4,0.009 m 4.52481,3.2828 c 0.66317,11.67967 0.21324,20.70754 0.67908,29.62984 0.46598,8.92504 0.1822,21.80224 0.51562,32.94531 0,0 0,0 0,0 1e-4,0.003 2.1e-4,0.007 3.1e-4,0.0103 m -0.37441,-1.75771 c 0.97515,11.25131 0.14897,21.7954 0.49129,32.93492 0.34242,11.14294 -0.54063,22.30765 -1.61719,34.44531 0,0 0,0 0,0 -3.3e-4,0.004 -6.6e-4,0.007 -9.9e-4,0.0112 m -2.15539,6.60889 c -0.14078,11.60893 -0.61047,19.84326 -1.85143,27.05178 -1.24135,7.21073 -0.33486,22.2455 -0.98438,34.21093 0,0 0,0 0,0 -2e-4,0.004 -4e-4,0.007 -6e-4,0.0111 m 3.2578,-0.61132 c -0.66289,9.85483 0.23681,21.47978 0.6803,31.95184 0.44364,10.47528 -0.85565,21.55789 -2.57812,32.19531 0,0 0,0 0,0 -5.3e-4,0.003 -0.001,0.007 -0.002,0.01 m 1.43207,3.68031 c 0.85894,11.31363 1.44711,21.6545 4.38202,32.46612 2.93581,10.81494 -0.81154,20.6895 -2.4375,29.57031 0,0 0,0 0,0 -5e-4,0.003 -10e-4,0.005 -0.001,0.008 m 0.18823,1.97078 c -0.83539,11.07959 -1.19203,21.61838 -3.56173,32.32571 -2.37044,10.71062 1.47356,21.12364 4.45312,30.90625 0,0 0,0 0,0 9.2e-4,0.003 0.002,0.006 0.003,0.009 m -0.33076,-1.94461 c 0.11642,10.54147 -0.94529,21.80232 -2.83605,32.95902 -1.89135,11.16013 0.35289,20.29106 1.07812,28.375 0,0 0,0 0,0 2.3e-4,0.002 4.5e-4,0.005 6.7e-4,0.007 m -1.54763,-0.67752 c -0.0936,10.43267 0.0251,22.46373 0.0938,34.8576 0.0688,12.3976 -1.36382,20.9033 -4.07812,30.2031 0,0 0,0 -10e-6,0 -8.3e-4,0 -0.002,0.01 -0.002,0.01 m 4.75947,2.438 c -0.10774,1.1564 -0.18851,2.352 -0.24673,3.5817 m 0.59914,-248.91533 0,3.21718 m 0,204.7354 0,2.87035 m 0,-70.31443 0,2.98281 m 0,-494.76257 0,3.80313 m 0,243.49184 0,3.39062"
       id="path4652"
       inkscape:connector-curvature="0"
       inkscape:path-effect="#path-effect7956"
       inkscape:original-d="m 386.76948,322.29567 0,718.80353"
       sodipodi:nodetypes="cc" />
    <text
       xml:space="preserve"
       style="font-size:608.45928954999999405px;font-style:normal;font-variant:normal;font-weight:normal;font-stretch:normal;line-height:125%;letter-spacing:0px;word-spacing:0px;fill:#000000;fill-opacity:1;stroke:none;font-family:Serif;-inkscape-font-specification:Serif"
       x="14.036982"
       y="867.99976"
       id="text4464-0"
       sodipodi:linespacing="125%"><tspan
         sodipodi:role="line"
         id="tspan4466-7"
         x="14.036982"
         y="867.99976"
         style="font-size:60.84592056000000326px;font-style:normal;font-variant:normal;font-weight:normal;font-stretch:normal;fill:#000000;fill-opacity:1;font-family:Sketch Block;-inkscape-font-specification:Sketch Block">custom</tspan><tspan
         sodipodi:role="line"
         x="14.036982"
         y="944.05713"
         style="font-size:60.84592056000000326px;font-style:normal;font-variant:normal;font-weight:normal;font-stretch:normal;fill:#000000;fill-opacity:1;font-family:Sketch Block;-inkscape-font-specification:Sketch Block"
         id="tspan3105">connector</tspan></text>
    <text
       sodipodi:linespacing="125%"
       id="text3082"
       y="867.7475"
       x="515.24078"
       style="font-size:608.45928954999999405px;font-style:normal;font-variant:normal;font-weight:normal;font-stretch:normal;line-height:125%;letter-spacing:0px;word-spacing:0px;fill:#000000;fill-opacity:1;stroke:none;font-family:Serif;-inkscape-font-specification:Serif"
       xml:space="preserve"><tspan
         style="font-size:60.84592056000000326px;font-style:normal;font-variant:normal;font-weight:normal;font-stretch:normal;fill:#000000;fill-opacity:1;font-family:Sketch Block;-inkscape-font-specification:Sketch Block"
         y="867.7475"
         x="515.24078"
         id="tspan3084"
         sodipodi:role="line">custom</tspan><tspan
         style="font-size:60.84592056000000326px;font-style:normal;font-variant:normal;font-weight:normal;font-stretch:normal;fill:#000000;fill-opacity:1;font-family:Sketch Block;-inkscape-font-specification:Sketch Block"
         y="943.80487"
         x="515.24078"
         sodipodi:role="line"
         id="tspan3107">event stream</tspan></text>
  </g>
</svg>
