<?xml version="1.0" encoding="UTF-8" standalone="no"?>
<!-- Created with Inkscape (http://www.inkscape.org/) -->

<svg
   xmlns:dc="http://purl.org/dc/elements/1.1/"
   xmlns:cc="http://creativecommons.org/ns#"
   xmlns:rdf="http://www.w3.org/1999/02/22-rdf-syntax-ns#"
   xmlns:svg="http://www.w3.org/2000/svg"
   xmlns="http://www.w3.org/2000/svg"
   xmlns:sodipodi="http://sodipodi.sourceforge.net/DTD/sodipodi-0.dtd"
   xmlns:inkscape="http://www.inkscape.org/namespaces/inkscape"
   width="1800"
   height="744.09003"
   id="svg2"
   version="1.1"
   inkscape:version="0.48.4 r9939"
   sodipodi:docname="reliable-1.svg">
  <sodipodi:namedview
     id="base"
     pagecolor="#ffffff"
     bordercolor="#666666"
     borderopacity="1.0"
     inkscape:pageopacity="0.0"
     inkscape:pageshadow="2"
     inkscape:zoom="0.5"
     inkscape:cx="821.13609"
     inkscape:cy="253.93721"
     inkscape:document-units="px"
     inkscape:current-layer="layer1"
     showgrid="false"
     inkscape:window-width="1596"
     inkscape:window-height="864"
     inkscape:window-x="0"
     inkscape:window-y="16"
     inkscape:window-maximized="0"
     showguides="true"
     inkscape:guide-bbox="true" />
  <defs
     id="defs4">
    <inkscape:path-effect
       effect="sketch"
       id="path-effect5943"
       is_visible="true"
       nbiter_approxstrokes="7"
       strokelength="100"
       strokelength_rdm="0.3;1"
       strokeoverlap="0.3"
       strokeoverlap_rdm="0.3;1"
       ends_tolerance="0.1;1"
       parallel_offset="2;1"
       tremble_size="3;1"
       tremble_frequency="1"
       nbtangents="5"
       tgt_places_rdmness="1;1"
       tgtscale="10"
       tgtlength="1"
       tgtlength_rdm="0.3;1" />
    <inkscape:path-effect
       effect="sketch"
       id="path-effect5939"
       is_visible="true"
       nbiter_approxstrokes="7"
       strokelength="100"
       strokelength_rdm="0.3;1042072751"
       strokeoverlap="0.3"
       strokeoverlap_rdm="0.3;2914376248"
       ends_tolerance="0.1;674511032"
       parallel_offset="2.6;1"
       tremble_size="2.7;1"
       tremble_frequency="1"
       nbtangents="5"
       tgt_places_rdmness="1;1"
       tgtscale="10"
       tgtlength="1"
       tgtlength_rdm="0.3;1" />
    <inkscape:path-effect
       tgtlength_rdm="0.3;1"
       tgtlength="1"
       tgtscale="10"
       tgt_places_rdmness="1;1"
       nbtangents="5"
       tremble_frequency="1"
       tremble_size="2;1"
       parallel_offset="2;2545115815"
       ends_tolerance="0.1;1"
       strokeoverlap_rdm="0.3;1"
       strokeoverlap="0.3"
       strokelength_rdm="0.3;1"
       strokelength="100"
       nbiter_approxstrokes="7"
       is_visible="true"
       id="path-effect5933"
       effect="sketch" />
    <inkscape:path-effect
       effect="sketch"
       id="path-effect5929"
       is_visible="true"
       nbiter_approxstrokes="7"
       strokelength="100"
       strokelength_rdm="0.3;1"
       strokeoverlap="0.3"
       strokeoverlap_rdm="0.3;1"
       ends_tolerance="0.1;1"
       parallel_offset="2;1"
       tremble_size="2;2079583435"
       tremble_frequency="1"
       nbtangents="5"
       tgt_places_rdmness="1;1"
       tgtscale="10"
       tgtlength="1"
       tgtlength_rdm="0.3;1" />
    <inkscape:path-effect
       tgtlength_rdm="0.3;1"
       tgtlength="1"
       tgtscale="10"
       tgt_places_rdmness="1;1"
       nbtangents="5"
       tremble_frequency="1"
       tremble_size="2;1"
       parallel_offset="2;1"
       ends_tolerance="0.1;1"
       strokeoverlap_rdm="0.3;1"
       strokeoverlap="0.3"
       strokelength_rdm="0.3;1"
       strokelength="100"
       nbiter_approxstrokes="7"
       is_visible="true"
       id="path-effect5925"
       effect="sketch" />
    <inkscape:path-effect
       effect="sketch"
       id="path-effect5921"
       is_visible="true"
       nbiter_approxstrokes="7"
       strokelength="100"
       strokelength_rdm="0.3;1"
       strokeoverlap="0.3"
       strokeoverlap_rdm="0.3;1"
       ends_tolerance="0.1;1"
       parallel_offset="2.5;3281953694"
       tremble_size="2;1"
       tremble_frequency="1"
       nbtangents="5"
       tgt_places_rdmness="1;1"
       tgtscale="10"
       tgtlength="1"
       tgtlength_rdm="0.3;1" />
    <inkscape:path-effect
       tgtlength_rdm="0.3;1"
       tgtlength="1"
       tgtscale="10"
       tgt_places_rdmness="1;1"
       nbtangents="5"
       tremble_frequency="1"
       tremble_size="2.6;3093962739"
       parallel_offset="2;2385647779"
       ends_tolerance="0.1;1"
       strokeoverlap_rdm="0.3;1"
       strokeoverlap="0.3"
       strokelength_rdm="0.3;1"
       strokelength="100"
       nbiter_approxstrokes="7"
       is_visible="true"
       id="path-effect5917"
       effect="sketch" />
    <inkscape:path-effect
       effect="sketch"
       id="path-effect5913"
       is_visible="true"
       nbiter_approxstrokes="7"
       strokelength="100"
       strokelength_rdm="0.3;1"
       strokeoverlap="0.3"
       strokeoverlap_rdm="0.3;1"
       ends_tolerance="0.1;1"
       parallel_offset="2;1"
       tremble_size="2.6;2147483646"
       tremble_frequency="1"
       nbtangents="5"
       tgt_places_rdmness="1;1"
       tgtscale="10"
       tgtlength="1"
       tgtlength_rdm="0.3;1" />
    <inkscape:path-effect
       tgtlength_rdm="0.3;1"
       tgtlength="1"
       tgtscale="10"
       tgt_places_rdmness="1;1"
       nbtangents="5"
       tremble_frequency="1"
       tremble_size="2;1"
       parallel_offset="2;1"
       ends_tolerance="0.1;1"
       strokeoverlap_rdm="0.3;3565528705"
       strokeoverlap="0.3"
       strokelength_rdm="0.3;1"
       strokelength="100"
       nbiter_approxstrokes="7"
       is_visible="true"
       id="path-effect5909"
       effect="sketch" />
    <inkscape:path-effect
       effect="sketch"
       id="path-effect5905"
       is_visible="true"
       nbiter_approxstrokes="7"
       strokelength="100"
       strokelength_rdm="0.3;1"
       strokeoverlap="0.3"
       strokeoverlap_rdm="0.3;1"
       ends_tolerance="0.1;1"
       parallel_offset="2;1"
       tremble_size="2.7;2147483646"
       tremble_frequency="1"
       nbtangents="5"
       tgt_places_rdmness="1;1"
       tgtscale="10"
       tgtlength="1"
       tgtlength_rdm="0.3;1" />
    <inkscape:path-effect
       effect="sketch"
       id="path-effect5899"
       is_visible="true"
       nbiter_approxstrokes="7"
       strokelength="100"
       strokelength_rdm="0.3;1"
       strokeoverlap="0.3"
       strokeoverlap_rdm="0.3;1"
       ends_tolerance="0.1;1"
       parallel_offset="3;1"
       tremble_size="2;1"
       tremble_frequency="1"
       nbtangents="5"
       tgt_places_rdmness="1;1"
       tgtscale="10"
       tgtlength="0"
       tgtlength_rdm="0.3;1" />
    <inkscape:path-effect
       tgtlength_rdm="0.3;1"
       tgtlength="2"
       tgtscale="10"
       tgt_places_rdmness="1;1"
       nbtangents="5"
       tremble_frequency="1"
       tremble_size="5;1"
       parallel_offset="5;1"
       ends_tolerance="0.1;1"
       strokeoverlap_rdm="0.3;1"
       strokeoverlap="0.3"
       strokelength_rdm="0.3;1"
       strokelength="100"
       nbiter_approxstrokes="5"
       is_visible="true"
       id="path-effect5881"
       effect="sketch" />
    <inkscape:path-effect
       effect="sketch"
       id="path-effect5877"
       is_visible="true"
       nbiter_approxstrokes="5"
       strokelength="100"
       strokelength_rdm="0.3;1"
       strokeoverlap="0.3"
       strokeoverlap_rdm="0.3;1"
       ends_tolerance="0.1;1"
       parallel_offset="5;1"
       tremble_size="5;1"
       tremble_frequency="1"
       nbtangents="5"
       tgt_places_rdmness="1;1"
       tgtscale="10"
       tgtlength="2"
       tgtlength_rdm="0.3;1" />
    <inkscape:path-effect
       effect="sketch"
       id="path-effect5871"
       is_visible="true"
       nbiter_approxstrokes="5"
       strokelength="100"
       strokelength_rdm="0.3;1"
       strokeoverlap="0.3"
       strokeoverlap_rdm="0.3;1"
       ends_tolerance="0.1;1"
       parallel_offset="5;1"
       tremble_size="5;1"
       tremble_frequency="1"
       nbtangents="5"
       tgt_places_rdmness="1;1"
       tgtscale="10"
       tgtlength="100"
       tgtlength_rdm="0.3;1" />
    <inkscape:path-effect
       effect="sketch"
       id="path-effect5865"
       is_visible="true"
       nbiter_approxstrokes="5"
       strokelength="100"
       strokelength_rdm="0.3;1"
       strokeoverlap="0.3"
       strokeoverlap_rdm="0.3;1"
       ends_tolerance="0.1;1"
       parallel_offset="5;1"
       tremble_size="5;1"
       tremble_frequency="1"
       nbtangents="5"
       tgt_places_rdmness="1;1"
       tgtscale="10"
       tgtlength="100"
       tgtlength_rdm="0.3;1" />
    <inkscape:path-effect
       tgtlength_rdm="0;1"
       tgtlength="2"
       tgtscale="15"
       tgt_places_rdmness="1;1"
       nbtangents="7"
       tremble_frequency="2.5"
       tremble_size="6;1"
       parallel_offset="1;1"
       ends_tolerance="0;1673142386"
       strokeoverlap_rdm="0.3;1"
       strokeoverlap="0.1"
       strokelength_rdm="0;1"
       strokelength="75"
       nbiter_approxstrokes="15"
       is_visible="true"
       id="path-effect5854"
       effect="sketch" />
    <inkscape:path-effect
       effect="sketch"
       id="path-effect5726"
       is_visible="true"
       nbiter_approxstrokes="6"
       strokelength="100"
       strokelength_rdm="0.3;1"
       strokeoverlap="0.3"
       strokeoverlap_rdm="0.3;1"
       ends_tolerance="0.1;1"
       parallel_offset="5;1"
       tremble_size="3;1"
       tremble_frequency="1"
       nbtangents="5"
       tgt_places_rdmness="1;1"
       tgtscale="10"
       tgtlength="100"
       tgtlength_rdm="0.3;1" />
    <inkscape:path-effect
       tgtlength_rdm="0;1"
       tgtlength="2"
       tgtscale="15"
       tgt_places_rdmness="1;1"
       nbtangents="7"
       tremble_frequency="3.5"
       tremble_size="4;1"
       parallel_offset="1;1"
       ends_tolerance="0;1673142386"
       strokeoverlap_rdm="0.3;1"
       strokeoverlap="0.1"
       strokelength_rdm="1;1"
       strokelength="75"
       nbiter_approxstrokes="15"
       is_visible="true"
       id="path-effect5715"
       effect="sketch" />
    <inkscape:path-effect
       effect="sketch"
       id="path-effect5711"
       is_visible="true"
       nbiter_approxstrokes="15"
       strokelength="75"
       strokelength_rdm="1;1"
       strokeoverlap="0.1"
       strokeoverlap_rdm="0.3;1"
       ends_tolerance="0;1673142386"
       parallel_offset="1;1"
       tremble_size="4;1"
       tremble_frequency="3.5"
       nbtangents="7"
       tgt_places_rdmness="1;1"
       tgtscale="15"
       tgtlength="2"
       tgtlength_rdm="0;1" />
    <inkscape:path-effect
       effect="sketch"
       id="path-effect6759"
       is_visible="true"
       nbiter_approxstrokes="50"
       strokelength="100"
       strokelength_rdm="0.3;1"
       strokeoverlap="0.3"
       strokeoverlap_rdm="0.3;1"
       ends_tolerance="0.1;1"
       parallel_offset="5;1"
       tremble_size="10;1"
       tremble_frequency="1"
       nbtangents="5"
       tgt_places_rdmness="1;1"
       tgtscale="10"
       tgtlength="0"
       tgtlength_rdm="0.3;1" />
    <inkscape:path-effect
       effect="sketch"
       id="path-effect6755"
       is_visible="true"
       nbiter_approxstrokes="25"
       strokelength="100"
       strokelength_rdm="0.3;1"
       strokeoverlap="0.3"
       strokeoverlap_rdm="0.3;1"
       ends_tolerance="0.1;1"
       parallel_offset="5;1"
       tremble_size="12;1"
       tremble_frequency="1"
       nbtangents="5"
       tgt_places_rdmness="1;1"
       tgtscale="10"
       tgtlength="100"
       tgtlength_rdm="0.3;1" />
    <inkscape:path-effect
       tgtlength_rdm="0.3;1"
       tgtlength="5"
       tgtscale="50"
       tgt_places_rdmness="1;1"
       nbtangents="5"
       tremble_frequency="2"
       tremble_size="3.5;1"
       parallel_offset="2;1"
       ends_tolerance="0.1;1"
       strokeoverlap_rdm="0.3;1"
       strokeoverlap="0.3"
       strokelength_rdm="0.3;1"
       strokelength="100"
       nbiter_approxstrokes="6"
       is_visible="true"
       id="path-effect6695"
       effect="sketch" />
    <inkscape:path-effect
       tgtlength_rdm="0;1"
       tgtlength="2"
       tgtscale="15"
       tgt_places_rdmness="1;1"
       nbtangents="7"
       tremble_frequency="3.5"
       tremble_size="3;1"
       parallel_offset="1;1"
       ends_tolerance="0;1673142386"
       strokeoverlap_rdm="0.3;1"
       strokeoverlap="0.1"
       strokelength_rdm="1;1"
       strokelength="75"
       nbiter_approxstrokes="7"
       is_visible="true"
       id="path-effect6642"
       effect="sketch" />
    <inkscape:path-effect
       effect="sketch"
       id="path-effect6640"
       is_visible="true"
       nbiter_approxstrokes="7"
       strokelength="75"
       strokelength_rdm="1;1"
       strokeoverlap="0.1"
       strokeoverlap_rdm="0.3;1"
       ends_tolerance="0;1673142386"
       parallel_offset="1;1"
       tremble_size="3;1"
       tremble_frequency="3.5"
       nbtangents="7"
       tgt_places_rdmness="1;1"
       tgtscale="15"
       tgtlength="2"
       tgtlength_rdm="0;1" />
    <inkscape:path-effect
       tgtlength_rdm="0;1"
       tgtlength="2"
       tgtscale="15"
       tgt_places_rdmness="1;1"
       nbtangents="7"
       tremble_frequency="3.5"
       tremble_size="4;1"
       parallel_offset="1;1"
       ends_tolerance="0;1673142386"
       strokeoverlap_rdm="0.3;1"
       strokeoverlap="0.1"
       strokelength_rdm="1;1"
       strokelength="75"
       nbiter_approxstrokes="15"
       is_visible="true"
       id="path-effect6638"
       effect="sketch" />
    <inkscape:path-effect
       effect="sketch"
       id="path-effect6630"
       is_visible="true"
       nbiter_approxstrokes="7"
       strokelength="75"
       strokelength_rdm="1;1"
       strokeoverlap="0.1"
       strokeoverlap_rdm="0.3;1"
       ends_tolerance="0;1673142386"
       parallel_offset="1;1"
       tremble_size="2;1"
       tremble_frequency="3.5"
       nbtangents="7"
       tgt_places_rdmness="1;1"
       tgtscale="15"
       tgtlength="2"
       tgtlength_rdm="0;1" />
    <inkscape:path-effect
       tgtlength_rdm="0;1"
       tgtlength="2"
       tgtscale="15"
       tgt_places_rdmness="1;1"
       nbtangents="7"
       tremble_frequency="3.5"
       tremble_size="2;1"
       parallel_offset="1;1"
       ends_tolerance="0;1673142386"
       strokeoverlap_rdm="0.3;1"
       strokeoverlap="0.1"
       strokelength_rdm="1;1"
       strokelength="75"
       nbiter_approxstrokes="7"
       is_visible="true"
       id="path-effect6626"
       effect="sketch" />
    <inkscape:path-effect
       tgtlength_rdm="0.3;1"
       tgtlength="100"
       tgtscale="15"
       tgt_places_rdmness="1;1"
       nbtangents="11"
       tremble_frequency="3"
       tremble_size="5;1"
       parallel_offset="1;1"
       ends_tolerance="0.3;1"
       strokeoverlap_rdm="0.3;1"
       strokeoverlap="0.3"
       strokelength_rdm="1;1"
       strokelength="109"
       nbiter_approxstrokes="6"
       is_visible="true"
       id="path-effect6622"
       effect="sketch" />
    <marker
       inkscape:stockid="TriangleOutL"
       orient="auto"
       refY="0"
       refX="0"
       id="TriangleOutL"
       style="overflow:visible">
      <path
         id="path3903"
         d="m 5.77,0 -8.65,5 0,-10 8.65,5 z"
         style="fill-rule:evenodd;stroke:#000000;stroke-width:1pt"
         transform="scale(0.8,0.8)"
         inkscape:connector-curvature="0" />
    </marker>
    <marker
       inkscape:stockid="Arrow1Lend"
       orient="auto"
       refY="0"
       refX="0"
       id="Arrow1Lend"
       style="overflow:visible">
      <path
         id="path3764"
         d="M 0,0 5,-5 -12.5,0 5,5 0,0 z"
         style="fill-rule:evenodd;stroke:#000000;stroke-width:1pt"
         transform="matrix(-0.8,0,0,-0.8,-10,0)"
         inkscape:connector-curvature="0" />
    </marker>
    <inkscape:path-effect
       effect="sketch"
       id="path-effect4374"
       is_visible="true"
       nbiter_approxstrokes="15"
       strokelength="75"
       strokelength_rdm="1;1"
       strokeoverlap="0.1"
       strokeoverlap_rdm="0.3;1"
       ends_tolerance="0;1673142386"
       parallel_offset="1;1"
       tremble_size="4;1"
       tremble_frequency="3.5"
       nbtangents="7"
       tgt_places_rdmness="1;1"
       tgtscale="15"
       tgtlength="2"
       tgtlength_rdm="0;1" />
    <inkscape:path-effect
       effect="sketch"
       id="path-effect4372"
       is_visible="true"
       nbiter_approxstrokes="6"
       strokelength="100"
       strokelength_rdm="0.3;1"
       strokeoverlap="0.3"
       strokeoverlap_rdm="0.3;1"
       ends_tolerance="0.1;1"
       parallel_offset="2;1"
       tremble_size="3.5;1"
       tremble_frequency="2"
       nbtangents="5"
       tgt_places_rdmness="1;1"
       tgtscale="50"
       tgtlength="5"
       tgtlength_rdm="0.3;1" />
    <marker
       inkscape:stockid="Arrow1Mend"
       orient="auto"
       refY="0"
       refX="0"
       id="Arrow1Mend"
       style="overflow:visible">
      <path
         id="path3770"
         d="M 0,0 5,-5 -12.5,0 5,5 0,0 z"
         style="fill-rule:evenodd;stroke:#000000;stroke-width:1pt"
         transform="matrix(-0.4,0,0,-0.4,-4,0)"
         inkscape:connector-curvature="0" />
    </marker>
    <marker
       inkscape:stockid="Arrow1MendU"
       orient="auto"
       refY="0"
       refX="0"
       id="Arrow1MendU"
       style="overflow:visible">
      <path
         id="path4214"
         d="M 0,0 5,-5 -12.5,0 5,5 0,0 z"
         style="fill:#373737;fill-rule:evenodd;stroke:#373737;stroke-width:1pt"
         transform="matrix(-0.4,0,0,-0.4,-4,0)"
         inkscape:connector-curvature="0" />
    </marker>
    <marker
       inkscape:stockid="Arrow1Mend8"
       orient="auto"
       refY="0"
       refX="0"
       id="Arrow1Mend8"
       style="overflow:visible">
      <path
         id="path4217"
         d="M 0,0 5,-5 -12.5,0 5,5 0,0 z"
         style="fill:#373737;fill-rule:evenodd;stroke:#373737;stroke-width:1pt"
         transform="matrix(-0.4,0,0,-0.4,-4,0)"
         inkscape:connector-curvature="0" />
    </marker>
    <marker
       inkscape:stockid="Arrow1MendO"
       orient="auto"
       refY="0"
       refX="0"
       id="Arrow1MendO"
       style="overflow:visible">
      <path
         id="path4220"
         d="M 0,0 5,-5 -12.5,0 5,5 0,0 z"
         style="fill:#373737;fill-rule:evenodd;stroke:#373737;stroke-width:1pt"
         transform="matrix(-0.4,0,0,-0.4,-4,0)"
         inkscape:connector-curvature="0" />
    </marker>
    <marker
       inkscape:stockid="Arrow1MendP"
       orient="auto"
       refY="0"
       refX="0"
       id="Arrow1MendP"
       style="overflow:visible">
      <path
         id="path4223"
         d="M 0,0 5,-5 -12.5,0 5,5 0,0 z"
         style="fill:#373737;fill-rule:evenodd;stroke:#373737;stroke-width:1pt"
         transform="matrix(-0.4,0,0,-0.4,-4,0)"
         inkscape:connector-curvature="0" />
    </marker>
    <marker
       inkscape:stockid="Arrow1Mendm"
       orient="auto"
       refY="0"
       refX="0"
       id="Arrow1Mendm"
       style="overflow:visible">
      <path
         id="path4226"
         d="M 0,0 5,-5 -12.5,0 5,5 0,0 z"
         style="fill:#373737;fill-rule:evenodd;stroke:#373737;stroke-width:1pt"
         transform="matrix(-0.4,0,0,-0.4,-4,0)"
         inkscape:connector-curvature="0" />
    </marker>
    <marker
       inkscape:stockid="Arrow1MendUk"
       orient="auto"
       refY="0"
       refX="0"
       id="Arrow1MendUk"
       style="overflow:visible">
      <path
         id="path4274"
         d="M 0,0 5,-5 -12.5,0 5,5 0,0 z"
         style="fill:#585858;fill-rule:evenodd;stroke:#585858;stroke-width:1pt"
         transform="matrix(-0.4,0,0,-0.4,-4,0)"
         inkscape:connector-curvature="0" />
    </marker>
    <marker
       inkscape:stockid="Arrow1Mend8H"
       orient="auto"
       refY="0"
       refX="0"
       id="Arrow1Mend8H"
       style="overflow:visible">
      <path
         id="path4277"
         d="M 0,0 5,-5 -12.5,0 5,5 0,0 z"
         style="fill:#585858;fill-rule:evenodd;stroke:#585858;stroke-width:1pt"
         transform="matrix(-0.4,0,0,-0.4,-4,0)"
         inkscape:connector-curvature="0" />
    </marker>
    <marker
       inkscape:stockid="Arrow1MendOg"
       orient="auto"
       refY="0"
       refX="0"
       id="Arrow1MendOg"
       style="overflow:visible">
      <path
         id="path4280"
         d="M 0,0 5,-5 -12.5,0 5,5 0,0 z"
         style="fill:#585858;fill-rule:evenodd;stroke:#585858;stroke-width:1pt"
         transform="matrix(-0.4,0,0,-0.4,-4,0)"
         inkscape:connector-curvature="0" />
    </marker>
    <marker
       inkscape:stockid="Arrow1MendP6"
       orient="auto"
       refY="0"
       refX="0"
       id="Arrow1MendP6"
       style="overflow:visible">
      <path
         id="path4283"
         d="M 0,0 5,-5 -12.5,0 5,5 0,0 z"
         style="fill:#585858;fill-rule:evenodd;stroke:#585858;stroke-width:1pt"
         transform="matrix(-0.4,0,0,-0.4,-4,0)"
         inkscape:connector-curvature="0" />
    </marker>
    <marker
       inkscape:stockid="Arrow1MendmO"
       orient="auto"
       refY="0"
       refX="0"
       id="Arrow1MendmO"
       style="overflow:visible">
      <path
         id="path4286"
         d="M 0,0 5,-5 -12.5,0 5,5 0,0 z"
         style="fill:#585858;fill-rule:evenodd;stroke:#585858;stroke-width:1pt"
         transform="matrix(-0.4,0,0,-0.4,-4,0)"
         inkscape:connector-curvature="0" />
    </marker>
    <inkscape:path-effect
       effect="sketch"
       id="path-effect8877"
       is_visible="true"
       nbiter_approxstrokes="15"
       strokelength="75"
       strokelength_rdm="0;1"
       strokeoverlap="0.1"
       strokeoverlap_rdm="0.3;1"
       ends_tolerance="0;1673142386"
       parallel_offset="1;1"
       tremble_size="6;1"
       tremble_frequency="2.5"
       nbtangents="7"
       tgt_places_rdmness="1;1"
       tgtscale="15"
       tgtlength="2"
       tgtlength_rdm="0;1" />
  </defs>
  <metadata
     id="metadata7">
    <rdf:RDF>
      <cc:Work
         rdf:about="">
        <dc:format>image/svg+xml</dc:format>
        <dc:type
           rdf:resource="http://purl.org/dc/dcmitype/StillImage" />
        <dc:title></dc:title>
      </cc:Work>
    </rdf:RDF>
  </metadata>
  <g
     inkscape:label="Layer 1"
     inkscape:groupmode="layer"
     id="layer1"
     transform="translate(0,-308.27221)">
    <path
       style="fill:none;stroke:#2a2a2a;stroke-width:1;stroke-linecap:butt;stroke-miterlimit:4;stroke-opacity:1;stroke-dasharray:none;stroke-dashoffset:0"
       d="m 499.33586,640.31841 c 17.69163,-0.65552 32.99585,0.26073 48.97619,0.35578 9.73068,0.0579 19.75241,-0.0782 29.60701,-0.42681 m -17.51922,-3.61014 c 17.55475,-0.39157 32.24423,0.004 46.78878,-0.35532 6.33333,-0.15631 13.50859,-0.31596 21.00479,-0.59556 m -14.26611,1.88269 c 17.72836,0.91079 33.74795,0.67626 51.3004,1.63999 8.63062,0.47387 16.68791,0.42047 24.49237,0.14066 m -12.32558,-2.46247 c 15.61517,1.04784 31.96915,1.84802 45.94229,5.13991 12.60297,2.9691 30.63128,-0.67341 48.17326,-3.9538 m -35.07672,-2.83052 c 15.98041,0.13652 34.51749,-0.0786 53.54364,-0.62908 13.23556,-0.38292 24.29276,0.19757 35.55179,1.05973 m -23.4646,4.881 c 17.33735,-0.38231 35.07508,0.37054 55.21079,0.71108 10.70326,0.18102 19.34554,-0.0201 27.49674,-0.51272 m -20.83054,-2.24597 c 16.1988,1.20237 34.17753,1.18775 52.50443,3.22576 9.05439,1.00687 17.22029,1.25142 25.09391,1.42288 m -17.45099,-2.25201 c 17.70954,1.03771 32.22846,-0.73064 46.65197,-2.59836 5.84107,-0.75637 12.40363,-0.971 19.23916,-1.04247 m -18.39067,-2.54853 c 17.54642,0.34699 34.20655,2.51789 52.64035,7.19111 15.5459,3.9411 28.9033,-0.064 43.275,-3.8614 m -26.0796,4.43473 c 16.2261,0.62821 34.0113,-0.0987 52.0396,-0.65672 14.7813,-0.4575 27.1132,-0.0175 39.2713,0.20076 m -26.4243,-3.11966 c 16.2717,0.78343 34.2598,0.98059 52.8052,2.54241 11.9447,1.00594 22.5229,0.99465 33.2384,1.11063 m -19.8332,-4.54221 c 16.1891,0.97444 32.7158,0.4796 48.1568,1.03839 12.3703,0.44767 26.5774,1.15269 40.7523,2.78487 m -28.7005,1.55049 c 12.8001,0.25669 26.2443,-0.092 40.5186,-0.7634 0.5568,3.72023 1.1942,7.4091 1.9179,11.07518 2.047,10.36877 1.0076,22.02449 -0.6087,33.84691 m 1.3917,-21.99377 c -0.084,16.78918 -0.072,35.17826 -1.0718,55.56095 -0.4703,9.59223 -0.4159,17.35857 -0.2372,24.45961 m -0.4174,-25.93451 c -0.3929,15.5139 1.1783,33.86325 2.7292,51.56954 0.9007,10.28354 0.61,20.28746 -0.1264,30.62891 m -2.3325,-20.67504 c 1.0185,16.25209 1.1945,35.50787 2.7556,56.54565 1.3019,17.54468 1.2323,28.95182 2.0091,41.83419 m -0.1531,-32.94376 c 0.557,10.21106 0.5725,20.32772 0.4365,30.93639 -7.2474,0.62426 -14.5754,1.51059 -21.8324,2.8869 -16.28,3.08758 -31.1913,-0.4782 -46.0917,-1.86683 m 27.2062,2.06589 c -17.3266,0.38138 -33.0193,-0.55602 -49.0833,-1.01444 -15.4302,-0.44034 -31.6671,-0.59357 -47.1041,-1.08792 m 32.0016,0.68946 c -17.5272,0.23564 -33.8419,-0.68491 -51.5441,-1.45185 -11.4016,-0.49397 -22.4544,-0.37656 -33.9918,-0.0982 m 17.6337,-0.25909 c -16.8354,0.51785 -34.3326,-0.83999 -52.9937,-1.86218 -14.994,-0.82131 -27.1159,-0.0898 -39.483,0.93405 m 27.3195,1.17978 c -16.9622,0.82771 -32.5642,-0.15048 -47.71634,0.16107 -13.4888,0.27736 -29.15151,-0.96393 -43.79938,-2.62403 m 28.43985,2.77923 c -17.56375,-0.20152 -34.09377,-0.93166 -52.30969,-2.16253 -17.49727,-1.18231 -33.14405,0.3813 -51.04817,1.96201 m 29.82482,-6.35698 c -17.0353,-0.46527 -33.24536,-0.14832 -49.76704,0.21653 -14.78542,0.32652 -28.5684,-0.21554 -41.07049,-0.39408 m 23.86856,4.0084 c -15.71573,-1.1026 -35.07784,-0.015 -55.23658,0.57238 -19.93052,0.58073 -32.3056,-0.38359 -47.28381,-0.5705 m 28.06488,-6.83221 c -17.65448,-1.29393 -33.27147,-0.30239 -49.79401,-0.24781 -13.12069,0.0434 -25.42429,0.31404 -36.71265,1.21371 m 20.58609,0.84318 c -15.5688,-0.95653 -31.97253,0.93485 -45.96714,3.41605 -5.96263,1.05716 -12.81463,1.16792 -19.93666,0.95336 m 11.91182,-4.98277 c -16.66156,0.0268 -32.22159,0.84618 -46.70476,3.1967 -10.85614,1.76188 -24.62688,0.93088 -38.54697,0.73513 m 24.32583,-2.05486 c -17.30012,0.41774 -35.16466,-0.68906 -55.48172,-1.39728 -10.13288,-0.35321 -18.16444,-0.20614 -25.45117,0.26111 M 526.7,872.61525 c -12.32431,-0.18606 -24.33174,-0.31746 -36.35649,-0.46094 0.11091,-4.54563 0.21938,-9.09296 0.3077,-13.64554 0.22046,-11.36425 0.17599,-23.13132 -0.0865,-35.32261 m -3.26682,18.34926 c 0.95035,-17.80832 0.97972,-33.67945 2.11386,-51.04838 1.11599,-17.09086 0.77039,-32.66798 1.37294,-48.78553 m -3.69989,35.98793 c 0.19481,-15.90543 1.52542,-34.06049 3.70025,-52.22531 1.39566,-11.65699 1.02569,-22.23316 0.38681,-32.92031 m 2.10959,18.77032 c 0.29422,-17.79922 -0.35097,-33.70977 -1.93262,-51.13041 -0.8046,-8.862 -0.30442,-17.33167 0.76123,-25.7041 2.76044,0.0493 5.56968,0.10707 8.40898,0.16571 m 4.67935,-0.0505 c 16.65291,-0.0638 31.26577,0.0132 43.80885,-0.35552 10.43103,-0.30663 27.97237,0.98213 45.49869,3.02169 m -25.89055,-3.14165 c 16.14389,0.83777 33.47616,0.25478 50.45369,0.40956 14.95456,0.13635 29.15296,0.33075 43.21968,0.63547 m -25.67263,1.69812 c 16.98167,0.6643 33.67419,-0.92275 51.00006,-3.11767 13.35247,-1.69155 25.13717,-0.59952 36.27931,0.10463 m -25.47455,8.45576 c 15.77023,0.30023 32.63403,-0.56259 47.91094,-2.07839 12.95522,-1.28544 28.60814,-0.0371 44.43152,0.72227 m -23.95931,-3.51575 c 16.73544,-0.0729 32.7093,-0.13781 48.12912,-0.76567 6.64216,-0.27045 13.68048,-0.185 20.82025,0.0737 m -15.97392,6.66165 c 16.20751,0.95567 33.18318,-0.94168 49.57865,-3.17253 15.90239,-2.16376 33.54089,0.77745 52.21201,2.39543 m -24.84622,-2.43865 c 16.71664,-0.30904 31.23881,1.44529 43.72678,3.96494 11.46835,2.31393 30.13789,0.57292 46.29282,0.32692 m -23.98682,-5.83906 c 15.57896,0.0999 32.492,-0.53627 47.5282,-1.96889 6.9705,-0.66413 14.4237,-0.3145 21.8722,0.58727 m -13.8936,7.24063 c 17.2273,0.13633 33.2355,-0.57425 49.7147,-2.10563 12.8159,-1.19096 25.9999,-0.66861 39.2994,-0.75788 m -20.7834,-1.44592 c 15.5331,0.59163 31.7149,-0.49394 45.1767,-1.85982 11.9525,-1.21273 28.973,0.0483 44.341,0.65504 m -25.9583,5.15625 c 15.6342,0.61034 33.8964,0.76647 51.7392,1.94095 9.108,0.59953 17.3226,0.29544 25.1158,-0.49521 m -14.6171,-0.74159 c 15.9071,-0.57344 33.1869,0.56276 49.5789,1.34011 5.4216,0.2571 10.8424,0.38257 16.2322,0.44637 -0.017,3.35874 -0.046,6.69475 -0.093,10.02369 m -8.738,-11.01514 c 2.6324,-0.12919 5.1999,-0.20493 7.7106,-0.23733 0.2107,13.85512 -1.374,29.08103 -3.3047,43.88092 -1.0115,7.75394 -0.9201,15.16222 -0.4028,22.42489 m 4.9628,-19.37861 c -0.011,16.23276 -1.4393,32.67727 -5.1734,48.04176 -2.8866,11.87692 -0.9978,25.33693 0.1051,38.59373 m 4.621,-21.94211 c -0.4664,16.89754 -0.6048,32.89364 -2.6849,48.67026 -2.0223,15.33913 0.9499,32.30193 2.4403,48.46525 m 2.4537,-30.98698 c 0.4808,17.32641 -0.013,35.17427 -0.8807,55.56064 -0.069,1.61467 -0.1202,3.17818 -0.1561,4.69607 -12.9666,1.70914 -24.5556,-0.62215 -36.1939,-2.37195 m 24.3211,0.0347 c -17.1815,0.90038 -34.5561,-0.57553 -53.6497,-1.09679 -19.0118,-0.51903 -31.7141,-1.19037 -45.3275,-2.90502 m 24.3346,2.33305 c -17.0624,-0.47428 -32.7779,0.10195 -48.3178,0.95482 -13.6154,0.74725 -28.7299,-1.15975 -43.0606,-3.57385 m 27.9728,-0.62224 c -15.9064,0.32679 -33.6807,-0.44283 -51.0255,-0.68629 -15.0341,-0.21102 -29.3972,-0.23877 -44.4258,-0.15709 m 32.9766,-0.0247 c -16.9447,0.23569 -34.5943,-0.54909 -53.7592,-1.0417 -13.37705,-0.34384 -23.74241,-0.47794 -33.64074,-0.70232 m 22.42274,1.06592 c -16.84462,-0.18346 -34.51514,-1.29184 -53.59531,-3.22895 -13.18369,-1.33847 -24.36291,-0.97365 -35.93072,-0.60121 m 23.21813,8.21373 c -16.01564,0.88187 -33.64174,-1.32079 -50.91609,-3.31162 -9.83021,-1.13291 -19.1142,-0.75128 -28.19409,0.16311 m 19.06869,-2.88356 c -15.50604,-1.11144 -34.38156,0.65222 -53.18593,2.56849 -17.93027,1.82719 -30.89778,-0.28719 -44.44646,-0.83612 m 30.59517,-2.27893 c -16.51632,0.78237 -33.334,0.31488 -50.01344,1.58298 -10.35188,0.78702 -20.96501,0.43837 -31.84359,0.0213 m 18.03709,-0.70764 c -16.17888,-0.64772 -31.99763,-0.97993 -45.96677,-2.29899 -8.86624,-0.83721 -20.4734,-0.91761 -32.75131,-1.09743 m 20.77618,1.3167 c -16.54404,-0.61115 -34.33782,-0.63922 -53.02125,-1.25994 -10.80725,-0.35905 -19.81946,-0.449 -28.20556,-0.50388 m 17.49539,-0.70731 c -17.79083,-0.0101 -32.67416,-0.4683 -48.01659,-0.76812 -12.11163,-0.23668 -25.7813,-0.60116 -39.06497,-1.23705 m 22.50302,1.30392 c -16.94411,0.37286 -32.93269,0.91525 -48.81006,3.38791 -6.67708,1.03986 -13.53868,0.96386 -20.4112,0.36769 0.20487,-6.04665 0.40266,-12.43013 0.68383,-18.84006 m 1.10484,16.1376 c -2.0936,-0.0539 -4.16693,-0.10668 -6.22002,-0.15972 0.52415,-14.75381 2.03028,-29.51929 4.5195,-44.74607 2.56759,-15.70615 0.0191,-30.81634 -1.98704,-47.0108 m 0.21268,32.89193 c 0.003,-17.65309 0.19507,-32.57091 -0.23713,-47.76723 -0.22771,-8.00645 0.22234,-16.92758 1.0375,-26.12413 m 4.63796,8.6357 c 0.66761,-17.7351 -0.19128,-32.75807 -1.38597,-48.31405 -0.55383,-7.21134 -0.34675,-14.81708 0.17694,-22.49002 m 2.73761,15.70343 c -0.25199,-17.73536 -0.0543,-33.38665 -1.02995,-50.17343 -0.11419,-1.96462 -0.18362,-3.89776 -0.2143,-5.80004 11.51563,0.38186 24.47569,1.91398 37.51142,4.45144 m -30.82644,-1.29124 c 15.84342,0.82859 33.49323,0.0481 50.45387,-0.21933 7.70348,-0.12145 15.18253,-0.18064 22.52351,-0.28711 m -16.06299,-2.43012 c 16.42619,-0.10833 33.53651,2.41093 50.59024,6.80857 9.18496,2.36852 18.21615,1.93837 27.28265,0.70919 m -17.02367,-5.09656 c 17.44622,-0.84639 34.09839,1.11891 52.28494,2.9262 7.91921,0.78697 15.25336,0.68616 22.37578,0.11176 m -17.94307,-1.27099 c 15.57904,-0.83733 32.69569,1.00538 48.10246,2.65276 9.05638,0.96836 18.55146,0.31993 27.72196,-1.02506 m -14.78541,1.39101 c 16.49866,1.03725 32.61231,-1.86324 47.82848,-5.96164 8.23093,-2.21697 17.19441,-1.76425 26.20689,-0.65172 m -20.68652,5.73387 c 15.96235,-0.36391 34.8865,0.85464 54.69208,2.21497 18.8385,1.29391 32.23723,0.16709 48.28733,-0.19648 m -29.88573,-3.11148 c 16.94535,-0.41887 33.92017,0.0201 51.73837,-0.32796 12.06109,-0.23559 22.30937,0.30161 31.80827,1.16299 m -18.3534,2.12619 c 15.60623,0.33652 32.37902,-0.88543 47.14542,-3.03544 6.84531,-0.9967 14.3583,-0.91234 21.97569,-0.43081 m -15.58011,4.57919 c 15.688,0.41891 31.9361,0.20346 45.8329,0.19107 8.8529,-0.008 20.6489,-0.15808 33.2512,-0.55059 m -18.2821,-0.96827 c 16.827,1.01988 33.8833,0.23262 51.6564,0.32743 14.5721,0.0777 26.9111,0.31395 38.8511,0.67426 m -24.2619,-6.95687 c 16.1716,0.0823 34.4972,1.01131 53.4889,2.62486 16.4615,1.39859 29.2251,0.0955 42.8409,-0.99747 m -27.8679,3.34464 c 16.1887,1.17432 31.7346,-0.63669 45.231,-2.29767 5.7187,-0.7038 12.791,-0.73976 20.4976,-0.51952 m -14.0949,4.44358 c 13.5462,-0.85413 28.8258,0.7635 43.7225,2.65908 0.1,2.45181 0.1906,4.90993 0.2655,7.36685 0.2411,7.90245 0.6115,14.85575 1.1788,21.32822 m 3.9711,-18.755 c -0.6759,15.70495 -0.8357,33.45818 -3.3136,50.3663 -1.1313,7.71925 -1.0606,15.06329 -0.5739,22.10613 m 5.9762,-15.60764 c 1.3363,16.53305 -0.7983,32.22605 -3.2055,46.72908 -1.4996,9.0351 -0.2369,19.90715 1.8374,31.04565 m 1.5387,-14.89879 c 1.1817,15.59516 -0.2964,32.14078 -1.7015,46.42886 -1.3892,14.12632 -0.2113,32.80513 -1.3589,49.17547 m -0.8904,-24.55145 c -0.2093,13.13573 1.09,23.91445 3.2236,33.69989 -3.6664,-0.94759 -7.2288,-2.01886 -10.717,-3.15389 -6.7638,-2.20089 -15.2292,-2.17864 -24.1226,-1.54354 m 13.1577,3.25535 c -17.7267,-0.16467 -31.8296,0.16382 -45.4736,1.09135 -5.5254,0.37562 -12.2173,0.2055 -19.4758,-0.28101 m 7.9324,2.77117 c -17.3542,0.35323 -33.6375,-2.64027 -50.888,-7.33083 -7.6733,-2.08645 -14.9883,-2.36551 -22.0969,-2.02042 m 20.9289,8.53889 c -16.6165,-0.0831 -33.5305,-0.92447 -50.6149,-2.13526 -10.4831,-0.74295 -20.3169,-1.05486 -29.8039,-1.62943 m 16.9587,-3.35505 c -17.8093,-5.9e-4 -33.3321,0.59735 -50.0127,2.4311 -8.3583,0.91886 -16.8041,0.93833 -25.3433,0.83487 m 19.7495,-2.13314 c -17.5004,-0.14652 -35.12746,-0.008 -55.37225,0.6265 -8.72054,0.27312 -16.14971,0.17975 -23.14311,-0.0789 m 20.3397,1.53563 c -16.80727,-0.72113 -32.27402,-2.42525 -46.81405,-6.61925 -7.1494,-2.0622 -15.80351,-2.24317 -25.20787,-1.96221 m 13.32969,8.8664 c -17.03528,-0.18358 -33.19642,-1.59455 -49.63032,-4.18598 -7.65685,-1.2074 -15.18493,-1.00293 -22.51829,-0.10957 m 14.41623,0.12041 c -16.55241,-0.28306 -32.49157,0.10377 -47.4978,0.9547 -11.81105,0.66976 -26.93683,-0.47425 -42.97108,-1.87461 m 25.65889,0.59472 c -16.74367,0.71872 -32.63004,0.52834 -47.93518,2.18458 -6.34162,0.68625 -13.28217,0.68479 -20.53199,0.39377 m 14.34019,-4.40374 c -15.60572,-0.67397 -33.18927,1.65699 -49.60384,5.57604 -12.26536,2.92841 -24.81922,0.92036 -37.35877,-0.8566 m 19.07672,-4.76713 c -16.39825,0.40869 -34.0713,-0.56968 -52.25571,-1.0418 -9.87917,-0.25649 -18.31819,-0.11369 -26.0466,0.30235 m 21.90109,-1.87293 c -16.17916,-0.17404 -32.68441,-0.5254 -48.07224,-0.93208 -12.47212,-0.32962 -26.62823,0.095 -40.42352,0.96131 m 21.27112,4.48187 c -16.51571,-0.25599 -31.81401,-0.52714 -45.47438,-0.95937 -1.98256,-0.0627 -4.08484,-0.11677 -6.27941,-0.16411 0.5944,-5.46037 0.72467,-10.88709 0.70033,-16.30273 m -2.44075,15.20106 c -0.72575,-16.90699 -0.74044,-33.96199 -3.10779,-51.89658 -2.19071,-16.5964 -0.22767,-30.57418 -0.39702,-44.98375 m 3.86926,25.07742 c -0.38867,-16.36028 -0.31905,-33.01666 -1.79549,-49.10784 -0.8748,-9.53412 -0.20665,-19.03381 0.90143,-28.14256 m 2.02648,21.66311 c 0.44902,-15.9779 -0.31499,-33.1377 -1.796,-49.4362 -1.43994,-15.84653 -0.0337,-33.09297 -0.66936,-50.76546 m -2.77874,32.44732 c 0.27632,-12.25391 1.25655,-23.97892 3.05072,-36.06966 5.7059,-0.15462 11.56299,-0.37717 17.58008,-0.73928 9.44863,-0.56863 17.06233,-0.39343 23.89221,0.10336 m -37.01495,-4.60045 c 15.69722,0.35552 32.22384,1.07689 46.65317,2.84346 14.23215,1.74242 34.70074,1.45703 54.96817,3.86173 m -29.83067,-5.75002 c 17.74574,-0.25526 31.6885,-0.691 45.03867,-2.48822 8.59856,-1.15755 20.54618,-0.60588 33.18089,0.11431 m -18.90485,5.2119 c 15.82526,0.93772 33.62448,-0.27631 50.89138,-1.17643 12.86177,-0.67049 24.71104,0.27507 36.28198,1.55017 m -24.76929,-1.63913 c 17.34624,0.0454 34.53128,-0.2142 53.57016,-1.01183 14.71726,-0.61658 26.78767,0.24608 39.48609,1.32339 m -27.65266,-1.93104 c 17.6195,-0.51881 34.77078,0.58125 54.36296,1.34007 7.88829,0.30551 14.78286,0.52942 21.25869,0.79654 m -19.53351,4.62724 c 16.25353,-0.201 34.40131,-1.61162 53.24269,-5.19528 16.55217,-3.14825 29.92339,0.34981 44.56629,2.95399 m -28.8986,-2.30057 c 16.78108,0.51927 32.98382,0.70256 48.92206,1.72226 9.92921,0.63526 20.69801,0.75324 31.77171,0.9908 m -21.48202,0.81578 c 17.13698,1.1285 34.94222,-1.37167 54.85544,-4.48514 18.52072,-2.89576 30.45082,-0.54867 43.62962,-0.79831 m -24.5446,1.54147 c 15.5702,-0.74631 33.2908,0.94219 49.8525,2.40661 15.5977,1.37917 30.7448,-0.40042 45.187,-2.00187 m -29.8439,0.38383 c 16.7452,-0.40922 34.2985,1.39766 52.9416,3.80094 7.5936,0.97888 14.3807,0.89197 20.7606,0.19792 m -18.8131,-4.77343 c 17.4919,-0.74635 34.655,0.83442 53.9802,2.13317 16.8865,1.13487 29.9723,1.37351 44.5849,3.03708 m -31.9579,0.16586 c 15.6709,-0.28199 34.7443,0.7659 54.2548,1.8868 10.4193,0.59861 18.9051,0.52296 26.7627,0.22873 -0.4652,4.45634 -1.1016,8.85309 -1.7236,13.25511 m -10.1794,-17.52199 c 3.7908,-0.1305 7.4743,-0.15741 11.0813,-0.10224 0.3686,13.19713 -0.2963,27.50109 -0.4859,41.84779 -0.1096,8.29085 -0.1362,16.07882 -0.2306,23.81139 m 3.5294,-17.6871 c -0.093,17.21679 -0,34.29698 -0.8531,52.9357 -0.4848,10.65031 -0.4133,19.82554 -0.4131,28.63628 m -0.9804,-22.35492 c -0.284,16.8974 0.3299,32.5652 0.1314,47.68589 -0.1385,10.55417 0.2404,22.56644 0.635,34.47129 m -2.6421,-16.55436 c -0.2467,17.75336 2.3761,32.64383 6.2564,47.98616 1.3998,5.535 1.7773,11.46861 1.6382,17.61676 -5.2749,0.0519 -10.9176,0.25656 -16.6242,0.5034 m 8.2979,-6.96995 c 0.1104,1.87173 0.2092,3.7382 0.2992,5.59993 -14.3371,-0.14537 -29.2279,-0.59241 -43.1454,-1.08359 -8.5092,-0.30031 -17.421,-0.40972 -26.2575,-0.49659 m 17.3692,0.7504 c -17.2719,0.10851 -32.7476,0.19359 -48.2904,1.20056 -13.4357,0.87047 -28.2609,0.0217 -42.3172,-0.16445 m 25.6036,2.03321 c -16.4255,-1.16703 -33.9026,-1.74695 -51.7088,-4.59554 -16.5611,-2.6494 -31.7168,-0.45148 -48.254,0.24991 m 27.9462,1.99202 c -17.29,-0.50165 -32.6205,-0.041 -47.8528,0.51733 -14.7027,0.53889 -31.708,-1.6001 -47.14867,-4.37439 m 25.02807,2.03275 c -17.11687,-0.70175 -32.42452,0.49416 -47.33335,2.13074 -8.20447,0.90063 -17.27878,0.39706 -26.34456,-0.58511 m 14.45978,-5.67196 c -16.25202,-1.03885 -32.72628,0.008 -48.20891,0.65438 -13.89186,0.57978 -29.55767,-0.12752 -44.44249,-0.257 m 25.68894,3.27749 c -17.52699,-0.15579 -33.21694,-0.42426 -49.63003,-0.65865 -13.8033,-0.19712 -27.87632,0.11447 -41.75512,0.89714 m 28.36997,3.24056 c -17.61813,-0.0927 -33.44046,-1.9538 -50.34091,-5.2251 -13.53966,-2.62077 -26.83046,-1.55434 -40.22917,-1.53125 m 24.549,1.57942 c -17.22623,0.92752 -32.53116,-1.01008 -47.57943,-2.40931 -10.75057,-0.99961 -23.68319,-0.53815 -37.04247,0.0915 m 24.18138,-0.84595 c -17.55482,0.31823 -34.54206,0.92069 -53.67688,3.3606 -10.17124,1.29695 -18.66344,1.04211 -26.59245,0.43378 m 20.51215,-4.74221 c -17.01775,0.40037 -34.9156,1.41427 -54.71627,4.8371 -11.87126,2.05212 -21.39684,1.36733 -30.60163,0.30141 m 18.05825,-1.88254 c -17.745,0.49996 -31.93269,-0.004 -45.80177,0.59876 -11.12153,0.48305 -26.46313,-0.37609 -41.7012,-1.31061 -0.0225,-0.19321 -0.0451,-0.38644 -0.0676,-0.57968 m 28.75368,-4.16763 c -8.42876,-0.46564 -16.43723,-0.61567 -24.30584,-0.70459 0.32087,-8.61852 0.80339,-17.16639 1.09911,-25.95984 0.30206,-8.98212 -0.14905,-17.67575 -1.22023,-26.21395 m -3.49015,18.85464 c 0.31311,-15.759 1.35191,-32.21383 3.23533,-46.67461 1.09828,-8.4325 0.794,-18.91052 0.032,-30.12371 m -3.70279,19.09631 c -0.78899,-16.73395 0.49557,-33.87966 0.58365,-51.62324 0.0423,-8.51663 0.23889,-16.63603 0.52376,-24.71307 m 1.26636,17.84413 c 0.64083,-16.43287 1.15029,-32.36355 2.60623,-47.08436 0.84901,-8.58413 0.55693,-19.16891 -0.18872,-30.60085 m -2.86754,12.23759 c 0.52866,-6.77259 0.73693,-13.43836 0.83147,-19.98337 9.83528,0.43849 19.43082,1.13155 29.41917,2.12183 7.14721,0.70859 14.24553,0.9326 21.33947,1.02487 m -39.94051,-0.20823 c 16.96272,0.88371 31.79737,1.28524 45.36726,3.47204 7.81757,1.25981 18.23254,0.74067 29.47063,-0.38003 m -22.94345,-2.88545 c 16.6541,0.75575 34.24539,0.0576 52.75026,-0.16461 8.70851,-0.10457 16.68491,-0.11295 24.50366,-0.13704 m -17.98451,1.8721 c 17.24542,-0.87371 32.90652,1.10028 48.75771,2.89888 13.03348,1.47887 28.0873,0.78473 43.82576,0.71891 m -27.84719,-1.61839 c 16.61741,-0.0633 33.55576,1.07463 50.6995,2.87105 13.97569,1.46445 26.93461,0.08 39.66374,-1.42359 m -19.37238,-4.51539 c 16.47145,1.24802 32.8836,1.50373 48.70349,4.10073 7.63037,1.2526 15.32689,1.07922 22.80529,0.31324 m -14.55767,0.78863 c 16.71754,0.85591 33.47038,0.042 50.39866,-0.27403 10.62536,-0.19836 21.1707,-0.009 31.83311,0.23426 m -23.38887,-0.80216 c 15.93445,0.48227 33.41655,-0.73704 50.26241,-2.59803 11.48191,-1.26842 22.33125,-0.83696 32.72427,-0.59544 m -16.43008,7.78824 c 16.17126,0.9833 33.57964,-0.16102 50.75446,-0.90302 13.03475,-0.56314 25.16572,-0.4822 37.05042,-0.90772 m -27.32977,-1.80752 c 16.19897,0.15417 34.52207,-1.47691 53.54347,-4.81268 10.6015,-1.85917 19.8325,-1.61115 28.9251,-1.04669 m -22.6365,3.25403 c 17.4915,0.86516 33.524,0.40594 50.6169,0.8744 8.8455,0.24242 17.2987,0.23847 25.5322,0.1342 m -13.1221,1.70061 c 17.0543,-0.85578 33.0282,0.41953 49.1133,0.87543 14.9227,0.42294 31.8722,0.5828 49.4722,1.27643 m -33.3457,0.95555 c 17.2822,0.78304 33.6528,0.004 50.9999,-0.41072 7.513,-0.17978 14.6796,-0.0413 21.6653,0.28294 m -15.7522,-1.47717 c 12.5682,0.21457 25.6914,-0.40453 38.3788,-1.65882 -0.054,3.1893 -0.1392,6.33179 -0.2768,9.43145 -0.4982,11.2232 1.221,25.74132 3.8856,40.57356 m -3.9171,-25.11683 c -0.1931,17.6259 0.031,32.67543 -0.7163,48.06827 0,0 0,0 0,10e-6 -0.7476,15.39591 0.8442,34.30413 1.6625,52.94602 0,0 0,0 0,0 10e-5,0.004 3e-4,0.007 5e-4,0.0112 m 3.0768,-27.41929 c 1.091,15.85932 0.3821,32.39803 0.2674,47.24901 -0.077,9.91335 -0.4214,21.60808 -1.3964,33.47338 m 0.7598,-20.18328 c 0.5626,15.52253 -0.4275,32.68572 -2.1386,48.09687 -1.0003,9.00956 -0.093,18.92901 1.5369,29.00456 -1.9035,0.0488 -3.7688,0.10593 -5.6104,0.16211 m 3.5674,-14.05247 c 0.014,5.24759 0.1912,10.39745 0.5126,15.47898 -10.9923,-0.28451 -21.2628,-0.9116 -31.0333,-1.55109 -9.1365,-0.59801 -20.7064,-0.54055 -32.6594,-0.40887 m 24.8873,0.87842 c -15.5147,-0.36524 -33.4637,-0.47904 -50.4242,-0.82258 -10.9636,-0.22207 -22.1293,0.0193 -33.7419,0.6272 m 17.86,0.67041 c -16.2975,-0.484 -32.6409,-1.44878 -47.9355,-3.69361 -14.7988,-2.17205 -32.5384,1.03246 -49.4878,4.06645 m 29.2772,3.5451 c -15.5701,0.41768 -34.9914,-0.85638 -54.9633,-1.91681 -17.5453,-0.93159 -29.9094,-0.27107 -43.8298,0.25571 m 26.862,-2.07355 c -17.1989,0.31771 -32.56103,-0.38356 -47.71618,-0.52222 -11.67957,-0.10685 -25.07931,-1.56897 -38.1412,-4.30407 m 23.4769,6.39608 c -17.29939,0.51747 -33.3388,-1.781 -50.01297,-4.70593 -16.40722,-2.8781 -32.40366,-0.52786 -48.04741,-0.7027 m 28.22049,3.76653 c -16.98905,-0.46574 -31.43948,-1.33919 -44.38035,-3.42018 -6.42376,-1.033 -14.83032,-1.31339 -23.84968,-1.53297 m 12.31887,-1.93918 c -16.7892,0.31837 -32.63546,1.28876 -47.93515,4.50903 -11.93443,2.51196 -25.64921,-0.3178 -39.20327,-3.61123 m 24.17974,-0.22251 c -16.43442,-1.33024 -33.47152,-0.0235 -50.42365,0.54518 -14.1374,0.47427 -28.50188,-0.0907 -43.60583,-0.35542 m 26.12094,1.67033 c -17.15443,-1.03036 -35.14958,-1.51862 -55.42712,-3.93938 -12.63252,-1.50809 -22.50136,-1.46441 -32.22846,-1.47647 m 22.84929,5.29343 c -17.47258,-0.34681 -33.79683,0.0889 -51.43475,0.87271 -14.00642,0.62246 -26.81218,-0.62446 -39.89365,-2.25925 m 29.19215,3.24572 c -16.77114,-1.13952 -32.99676,-1.24817 -49.02891,-3.14634 -14.49767,-1.7165 -30.36555,-0.71194 -46.23366,-0.72512 m 25.37678,-0.0647 c -8.70883,0.0639 -18.02435,-0.18068 -27.61762,-0.56973 -0.30265,-7.81519 -0.79937,-15.73135 -1.29806,-23.6528 -0.73113,-11.61358 -0.0411,-22.85766 0.8302,-34.39973 m 3.798,20.74583 c -0.39778,-16.5152 -0.31367,-33.31642 -1.76815,-49.95541 -1.14478,-13.09615 0.11774,-26.78197 1.24822,-41.04318 m -2.10544,26.18149 c 0.24971,-16.33279 2.19267,-32.57315 5.69631,-47.74067 2.17449,-9.41352 1.37431,-20.07766 -0.0848,-30.93093 m -1.68182,16.8121 c 0.49474,-17.17058 0.16533,-32.79317 -0.40149,-48.42376 -0.24151,-6.65967 -0.13596,-13.72757 0.12155,-20.96746 m -3.11488,17.14284 c 0.41428,-4.83128 0.70126,-9.95953 0.95475,-15.29624 11.88941,-0.34526 23.61085,-1.73592 36.21782,-3.17789 14.05428,-1.60751 25.7702,0.13334 37.30471,2.17194 M 497.0224,633.5905 c 16.17082,0.17365 32.49009,1.68385 47.47321,4.67559 12.53045,2.502 28.26567,0.6334 44.25499,-0.57755 m -22.05284,-1.01839 c 16.62612,0.48259 32.56115,0.0754 47.66434,-0.19178 10.36494,-0.18336 21.90468,-0.51435 33.12092,-1.37524 m -16.9758,2.04133 c 17.10843,0.56476 31.86105,0.608 45.61327,1.4488 8.72856,0.53365 20.40045,0.10354 32.77605,-0.75011 m -14.62478,-0.0319 c 16.15241,-0.51925 32.00895,-0.53981 46.05134,-1.99587 7.596,-0.78763 16.93947,-0.65994 26.79368,-0.36765 m -19.45224,3.93005 c 17.22741,-0.72892 33.37791,-1.13584 50.17961,-3.77308 14.99661,-2.35391 29.85838,0.86316 44.88343,3.78041 m -27.36398,0.16839 c 15.82547,0.63731 34.14433,-0.11383 52.42263,-0.71141 15.97181,-0.52217 28.79881,0.3636 41.70426,1.22029 m -20.48657,-3.66206 c 17.00887,-0.5734 33.36073,0.66832 50.12505,1.5862 15.12046,0.82787 29.63918,1.45304 43.77776,3.61235 m -26.9079,-3.30639 c 15.77957,0.87475 33.20869,1.63514 49.63357,4.53845 16.3545,2.89086 31.839,-0.72197 45.7635,-2.5998 m -27.0553,-4.21261 c 16.1802,0.10071 33.2296,1.45059 49.7154,3.93735 12.048,1.81736 24.1274,1.23712 36.0461,1.00939 m -23.3235,3.56262 c 16.7081,-0.82903 32.805,-1.00143 48.4299,-3.41756 14.9719,-2.31515 31.428,1.01944 46.6388,3.26605 m -24.7096,-0.60338 c 15.8703,0.86482 32.3908,-0.43296 47.1999,-1.69592 11.3435,-0.96739 24.7014,-0.50043 37.5632,-0.47492 m -21.2462,-4.89921 c 17.7277,0.14625 32.1092,1.49505 46.2965,4.12873 1.2938,0.24017 2.6291,0.4347 4.0004,0.58927 -0.4976,6.74518 -0.4029,12.83244 -0.09,18.64176 m 6.1001,-16.13222 c 0.5173,15.70506 0.1257,33.71726 -0.4979,51.15927 -0.6152,17.20365 1.573,32.29268 3.9938,47.54489 m -3.2013,-27.76914 c -0.7942,17.50719 -0.6262,31.83443 -2.712,45.55272 -1.4265,9.38235 -0.7896,22.05683 -0.3578,35.21217 m 4.3925,-20.24059 c 1.0634,15.69607 -0.3973,34.01424 -2.0295,52.08896 -0.7184,7.95525 -0.7335,15.47459 -0.5313,22.92347 m 4.1121,-11.64625 c -0.5535,15.84183 -0.095,29.37412 -0.6936,41.98645 -1.4384,-0.25638 -2.8851,-0.52006 -4.3417,-0.79005 -14.358,-2.66134 -26.9584,-0.65219 -39.6067,1.17836 m 21.2457,-1.72569 c -15.5512,0.28079 -33.4316,-1.60605 -50.3148,-4.15892 -16.5337,-2.50002 -30.9642,1.17017 -43.9187,4.4374 m 28.4171,-1.31689 c -17.3993,0.84609 -32.542,0.29317 -47.634,1.47356 -7.7039,0.60254 -16.2807,0.1968 -25.1038,-0.6644 m 14.8629,-1.19249 c -16.434,-1.27551 -32.5033,0.21465 -47.5252,1.25609 -14.7462,1.02232 -32.8849,-0.26378 -49.7519,-0.3283 m 23.3939,-3.66223 c -17.7632,-0.92048 -31.7801,0.0148 -45.3916,0.70899 -10.9686,0.55943 -26.91532,0.94157 -43.06863,2.572 m 24.85607,-0.21764 c -15.57841,-0.81193 -33.21134,-1.76768 -49.6312,-4.67779 -13.38557,-2.37235 -26.49019,-0.22268 -38.91376,2.05797 m 20.62317,-2.98733 c -16.5528,-0.41011 -33.47818,1.16498 -50.45093,4.09931 -13.75672,2.37833 -27.30408,0.0132 -41.13505,-2.05472 m 27.10396,-2.46232 c -16.17056,0.93745 -33.95475,1.05908 -51.84569,3.82507 -7.4969,1.15904 -14.16332,1.04922 -20.26922,0.32508 m 15.56727,-6.16783 c -16.24317,0.91907 -33.34922,0.61777 -50.04096,2.51258 -12.74638,1.44694 -24.46468,-0.29971 -35.18219,-2.44014 m 23.68371,5.6895 c -16.28867,-1.13055 -33.29556,-1.59181 -49.9042,-4.13073 -11.04769,-1.68882 -22.54604,-0.81905 -34.4473,0.56503 m 16.38583,-2.44537 c -17.3358,-0.6838 -33.2906,-0.15521 -49.87624,0.18933 -9.59381,0.19929 -19.01362,0.35255 -28.21425,0.77818 m 24.33342,-0.0361 c -15.76092,0.25448 -34.21625,0.8938 -52.6389,3.2786 -8.06521,1.04403 -15.5471,0.87819 -22.89243,0.15613 m 14.04841,-3.71358 c -17.56309,-0.60255 -32.43384,-1.89808 -47.30578,-5.03339 -7.98286,-1.68294 -16.87212,-1.55439 -25.84005,-0.97568 0.0393,-2.5144 0.0713,-4.98701 0.11946,-7.45633 m 12.20753,12.75935 c -4.24577,-0.21922 -8.58277,-0.4364 -12.95484,-0.68658 0.55174,-12.68485 0.84721,-25.61081 1.9963,-39.46986 0.89948,-10.84848 0.78945,-19.44908 0.38849,-27.10979 m -1.87679,18.35987 c -0.31601,-16.67859 -0.74866,-32.03912 -3.10804,-46.15453 -1.23754,-7.40387 -1.10056,-16.44278 -0.7371,-26.02061 m 3.58251,14.99839 c -0.74324,-17.20694 1.06379,-32.65309 2.36097,-47.98624 1.22167,-14.44067 -0.0585,-32.22771 -1.31645,-50.0193 m 1.20142,27.42091 c 0.57671,-16.18682 0.1928,-31.85805 -0.23748,-45.55326 -0.0805,-2.56248 -0.0891,-5.35066 -0.0395,-8.30634 4.24994,0.25326 8.60821,0.19452 13.03977,-0.0282 m 465.84851,236.18817 -8.04233,-0.10157 m -472.12553,-115.93529 0.12294,-7.17473 m 80.03938,118.1599 -7.45644,-0.0942 m 260.43191,-231.85022 9.50753,0.0728 m 433.52661,240.66153 -8.4759,-0.10704"
       id="rect2985"
       inkscape:path-effect="#path-effect4372"
       inkscape:original-d="m 491.13611,636.06973 783.82669,6 4,237.44211 -791.82669,-10 z"
       inkscape:connector-curvature="0"
       sodipodi:nodetypes="ccccc" />
    <g
       transform="matrix(0.94554732,0.32548466,-0.32548466,0.94554732,-286.21353,-140.85518)"
       id="g6683">
      <g
         id="g6685">
        <path
           inkscape:connector-curvature="0"
           id="path6687"
           d="m 831.63855,674.90735 c 7.94222,-3.16617 13.17773,-4.50383 19.14674,-6.8474 1.29745,-0.5094 2.63845,-1.04438 3.99903,-1.60657 m -0.86903,-1.91955 c 1.59733,-0.58786 3.04661,-1.14201 4.38101,-1.67511 m -4.10296,-2.57736 c 2.99542,-1.89378 6.79949,-2.8537 10.83794,-3.49805 m 2.63888,3.93142 c 5.5101,-2.08594 12.85812,-5.1291 18.3064,-8.53641 5.45083,-3.40889 15.30489,-5.18652 25.65787,-8.78932 0,0 0,0 0,0 9.58942,-3.33709 11.69923,-2.82805 14.89957,-1.67035 m -3.08661,-4.8522 c 6.44374,-2.82283 11.06553,-4.07469 12.96134,-5.41038 1.37154,-0.96631 8.55745,-3.1093 16.01008,-5.37669 m 1.19053,2.53392 c 5.59746,-1.93867 9.89171,-2.7443 13.54886,-2.71968 m 3.12611,3.71886 c 4.09518,-0.97091 7.61713,-2.5348 10.96508,-4.4903 m -2.82008,-5.92104 c 0.17073,-0.0286 0.3443,-0.0599 0.52057,-0.0936 m 0.52971,5.12209 c 8.0777,-1.88811 13.58436,-4.72885 20.3653,-7.44293 6.32181,-2.53032 11.54461,-5.26463 15.62481,-9.31639 m -186.63606,60.4311 c 7.78602,-1.79467 12.83483,-4.81193 18.14696,-7.63057 0,0 0,0 0,0 5.31462,-2.81996 14.54701,-1.96839 23.34537,0.96067 3.93931,1.31144 7.17063,0.0617 10.24498,-2.35501 m -8.21227,-0.39036 c 6.27011,-1.70127 14.32423,-4.96584 22.64909,-8.00569 3.51758,-1.28446 6.28873,-2.30572 8.67417,-3.23081 m -4.39109,-1.2267 c 6.32233,-1.52344 14.601,-3.71191 23.52402,-4.3497 8.92718,-0.63808 14.08438,-4.06729 21.90786,-5.41433 0,0 0,0 0,0 2.64713,-0.45578 5.0569,-1.32064 7.35281,-2.48917 m -6.38822,-0.97574 c 6.85178,-1.63719 13.99664,-3.10604 21.77327,-2.47454 4.56237,0.3705 7.69448,-1.6917 10.00405,-4.4333 m -2.35688,-4.8422 c 2.29064,-1.0603 4.74547,-1.95324 7.0974,-2.72958 m 1.16218,-1.82256 c 6.35185,-2.125 12.82284,-2.43199 18.11776,-0.4426 0.2818,0.10589 0.5713,0.1851 0.868,0.23956 m -2.75177,-5.29466 c 4.42327,-2.64023 10.03397,-3.49157 15.99397,-4.21022 m -189.73173,67.32712 c 6.841,-2.74238 13.57995,-6.95963 20.39828,-14.03549 6.82152,-7.07916 14.26474,-2.05117 22.50162,0.67942 8.23687,2.73059 14.21734,-4.63038 22.31411,-7.07058 10e-6,0 10e-6,0 10e-6,0 1.50611,-0.45391 2.93531,-0.97319 4.31297,-1.5614 m -6.28258,1.73346 c 7.88068,-3.35379 14.0489,-5.09661 21.86558,-8.47213 7.82033,-3.3771 12.86522,-3.90197 18.31412,-4.91433 5.4489,-1.01236 13.892,-4.70434 21.34537,-7.25808 1.99783,-0.68452 3.92387,-1.34433 5.8181,-1.99454 m -3.65339,2.69506 c 5.78039,-1.7635 12.9476,-4.82839 18.52477,-7.75561 2.35657,-1.23687 4.88548,-2.16447 7.31751,-2.93479 m -4.08095,-1.55385 c 6.56967,-1.44154 12.37665,-5.03477 16.86741,-8.22482 4.49286,-3.19153 14.0642,-3.65474 21.8454,-4.13307 0,0 0,0 0,0 0.5397,-0.0332 1.0722,-0.0784 1.5984,-0.13388 m -182.42046,65.06909 c 7.08028,-1.56671 13.85337,-5.54312 21.2417,-9.81839 7.39178,-4.27727 13.43216,-4.3073 20.03286,-6.10183 1e-5,0 1e-5,0 1e-5,0 5.66267,-1.5395 10.93129,-4.21363 15.46617,-7.11446 m -9.04074,5.73074 c 5.84358,-1.56768 13.84442,-6.58323 21.24344,-12.91214 7.40247,-6.33186 13.63455,-4.24005 20.56411,-5.85182 6.92956,-1.61178 15.29899,-4.47102 25.53287,-6.60183 2.74314,-0.57116 4.97787,-1.0546 6.90333,-1.44123 m -14.24545,6.93075 c 6.47802,-1.80479 14.3866,-4.5313 22.80504,-6.75555 0,0 0,0 0,0 8.42237,-2.22529 12.96188,-7.18168 18.62662,-14.66433 0,0 0,0 0,0 5.01461,-6.62388 11.80531,-4.98217 18.11011,-5.88158 m -1.8415,5.03538 c 7.53509,-2.52249 11.25529,-5.19763 13.30359,-8.6608 0.1046,-0.17684 0.2379,-0.34341 0.398,-0.50018 m -180.17123,67.86568 c 6.53799,-1.14157 11.83724,-6.55332 15.21121,-12.85024 0,0 0,0 0,0 3.37554,-6.29986 14.80946,-3.10775 24.06412,-2.44557 2.75179,0.19689 4.97967,-0.0738 6.88119,-0.5813 m -2.25327,-0.3532 c 0.90857,-0.23411 1.79781,-0.51478 2.66251,-0.8313 m -1.58309,2.96198 c 6.02066,-3.43668 14.29097,-4.826 22.58693,-7.65952 8.29984,-2.83483 13.56024,-4.51986 20.37662,-6.82057 0,0 0,0 0,0 0.25613,-0.0865 0.51132,-0.17426 0.76558,-0.26341 m -7.40176,-2.26389 c 4.32429,-2.05799 8.27429,-3.39335 12.3357,-4.73719 m 1.57987,0.50831 c 7.3597,-1.034 12.59426,-2.64535 17.49131,-1.19413 3.14092,0.9308 8.2726,-1.5414 13.90237,-4.4917 m -2.6963,-3.41683 c 6.84128,-2.28256 13.88055,-4.2206 21.33578,-5.78613 0,0 1e-5,0 1e-5,0 7.45871,-1.56627 12.49194,-4.99278 17.12661,-8.13308 4.63467,-3.14031 15.04044,-4.55435 24.78284,-6.78933 0.72,-0.16516 1.4075,-0.33536 2.0663,-0.51057 m -194.79659,60.13326 c 6.85355,-1.8346 15.90139,-3.05648 27.27327,-2.28676 4.64951,0.3147 7.56419,-0.62976 9.69113,-2.21571 m -5.21439,-5.20662 c 6.24824,-3.23882 13.16378,-4.3918 19.08661,-6.37854 2.98871,-1.00253 6.58551,-1.73491 10.46049,-2.09445 m 0.50465,1.32342 c 7.90997,-3.32205 12.02319,-4.50329 15.83429,-6.62842 0,0 0,0 0,0 3.81288,-2.12612 13.75298,-2.62672 21.00162,-1.07058 3.74096,0.80311 7.01723,-0.68196 10.02499,-2.87837 m -3.15824,-1.26454 c 6.3423,-1.26485 13.71566,-5.01935 20.83649,-8.22506 7.12415,-3.20721 12.83944,-4.99825 18.18911,-8.13308 10e-6,0 10e-6,0 10e-6,0 4.29686,-2.5179 10.1677,-3.62287 15.43077,-4.66812 m -4.60122,4.40259 c 6.24843,-1.32805 13.36219,-5.93539 19.83661,-10.88122 4.5401,-3.46821 10.0955,-3.91808 16.3952,-4.08334 m -183.71642,63.68592 c 6.82834,-2.77003 11.15111,-3.1873 13.1483,-2.72295 1.99812,0.46458 13.76726,-4.57327 20.93911,-6.91432 0,0 0,0 10e-6,0 4.3877,-1.43225 9.14962,-3.10267 14.5761,-5.05727 m -4.26119,-3.65846 c 1.00006,-0.51102 2.0398,-0.93603 3.09786,-1.27967 m -0.41495,5.91279 c 7.41245,-2.26296 13.43316,-5.49316 19.99124,-9.66116 6.56113,-4.16995 13.81756,-5.10393 21.15786,-8.44558 7.34031,-3.34165 14.35794,-4.35209 22.81412,-6.25808 0,0 0,0 0,0 2.72908,-0.61512 4.9152,-1.39594 6.72926,-2.30523 m -10.74107,0.19436 c 6.8517,-2.61398 13.90392,-3.01368 21.46077,-2.25441 0,0 0,0 10e-6,0 7.56037,0.75961 14.19139,-3.96408 22.31411,-5.03933 8.12272,-1.07525 12.31981,-6.1182 16.65788,-11.53933 0,0 0,0 0,0 0.095,-0.119 0.1937,-0.23441 0.2955,-0.34633 m -0.9079,4.99177 c 2.4188,-1.223 4.8197,-2.1408 7.1596,-2.9187 m 0.6202,1.4366 c 4.5367,-2.01302 7.9012,-3.0941 10.7079,-3.92517 m -188.13271,62.48014 c 7.6006,-1.22356 14.60371,-5.32598 23.52223,-9.13137 0,0 0,0 0,0 8.92267,-3.80716 11.25979,-5.28253 13.43911,-9.03932 1.83982,-3.17155 10.19547,-4.18504 16.77819,-5.69713 m 0.3245,3.62933 c 3.80254,-1.28746 7.78751,-2.9728 11.21249,-4.90237 m -1.17649,-0.92408 c 4.246,-2.18669 10.74619,-3.88881 17.82685,-5.95408 m -2.29102,6.52224 c 1.7618,-0.79062 3.5581,-1.52747 5.38884,-2.2547 m 0.23265,-2.37841 c 6.17453,-1.00476 12.11421,-4.7215 16.11797,-7.35043 0,0 0,0 10e-6,0 4.00563,-2.63015 15.26918,-5.44619 25.43911,-9.44557 1.77257,-0.69708 3.27506,-1.25341 4.56162,-1.69632 m -9.49118,7.43792 c 5.66693,-2.939 13.86621,-6.06829 21.33743,-11.37897 10e-6,0 10e-6,0 10e-6,0 7.47471,-5.31315 13.48284,-4.20446 20.09536,-5.82058 6.61253,-1.61611 13.13123,-4.57337 19.12663,-6.88307 0,0 0,0 0,0 0.5917,-0.22796 1.1933,-0.4532 1.8025,-0.67587 m -183.03749,63.16859 c 6.44469,-1.76337 12.07566,-4.68595 15.99259,-7.28686 0,0 0,0 0,0 3.91876,-2.60213 14.88297,-4.69173 24.37662,-7.32058 4.5102,-1.24891 7.78835,-2.22444 10.71138,-3.04108 m -9.95658,0.26931 c 7.96265,-2.72961 12.80602,-4.41468 18.11546,-6.37925 5.31192,-1.96549 15.24018,-3.04068 25.37662,-2.35183 10.13643,0.68885 13.17976,-5.57474 19.25161,-9.88308 0,0 0,0 10e-6,0 2.87273,-2.03837 6.17703,-2.88001 9.68808,-3.16995 m -6.69115,1.85923 c 8.08693,-3.30017 12.33342,-3.31293 16.64654,-3.15971 0,0 0,0 0,0 4.31514,0.15329 14.87835,-4.63546 24.37662,-7.13308 0,0 0,0 0,0 7.3693,-1.93779 11.194,-4.55995 15.2908,-8.20718 m -5.3569,1.97956 c 6.69468,-2.48032 12.69539,-4.55723 17.89849,-6.7546 1.5986,-0.67513 3.5396,-1.36512 5.6852,-2.06191 m -179.10204,60.46801 c 5.48843,-2.5638 11.90451,-4.92059 15.46268,-8.00449 2.62287,-2.27326 9.33965,-3.10631 16.29233,-3.4585 m -5.17856,1.67164 c 6.62412,-3.07271 15.04055,-4.57171 24.86734,-6.84753 6.84047,-1.5842 10.35303,-3.23271 13.66573,-4.95528 m -3.41254,2.33529 c 5.92882,-2.41237 13.47011,-4.87859 20.45229,-8.0155 m -5.95316,0.25899 c 6.44647,-1.60593 13.98386,-3.0189 21.64884,-2.22458 0,0 0,0 0,0 7.66856,0.7947 14.14568,-5.62288 22.09537,-10.10183 7.94968,-4.47895 12.20926,-4.51941 16.31411,-6.72683 0,0 0,0 0,0 0.93193,-0.50114 2.21311,-1.03067 3.75047,-1.58656 m -3.73633,-0.9752 c 5.63563,-1.0966 13.73483,-2.90911 20.93123,-1.78779 2.05642,0.32042 4.00601,0.15871 5.88125,-0.25038 m -0.78846,-0.0492 c 6.35315,-1.66137 14.21315,-6.74786 22.27395,-13.25576 0.457,-0.36897 0.9028,-0.70861 1.3382,-1.02123 m -187.08963,65.85569 c 7.35037,-1.46273 13.73742,-5.47701 20.99132,-9.44353 0.28687,-0.15687 0.57113,-0.30857 0.85286,-0.4554 m -2.56845,7.19127 c 5.69611,-1.58761 11.72533,-5.66589 14.93114,-10.22461 0,0 0,0 0,0 3.20731,-4.56084 13.74038,-4.7865 20.84537,-7.50808 1.91833,-0.73482 3.74659,-1.44519 5.50543,-2.15705 m -3.75452,-1.29236 c 6.49824,-2.54036 13.78592,-2.06905 20.99252,0.52673 0,0 0,0 0,0 7.20996,2.59698 13.81997,-5.81394 21.22036,-10.63308 0.68279,-0.44463 1.35699,-0.84445 2.02403,-1.2054 m -1.54159,5.65268 c 7.36054,-1.02679 13.49379,-6.05996 20.11631,-11.38164 0,0 0,0 0,0 6.62561,-5.32416 13.74173,-4.36674 20.97036,-6.22683 0,0 0,0 0,0 6.69552,-1.7229 11.98792,-3.42229 16.97249,-4.08798 m -9.79225,-2.49516 c 4.80856,-1.078 10.91635,-1.64266 18.02328,-0.7925 m -0.63021,-4.54758 c 2.72198,-0.91572 5.20988,-1.65839 7.56588,-2.27353 m -3.6333,5.48637 c 3.5458,-1.68281 8.2637,-2.75931 13.6939,-3.5185 m -182.01116,63.57238 c 2.38724,-0.75095 4.50328,-1.50177 6.4204,-2.25454 m -1.74659,-0.92921 c 6.31614,-1.69908 10.06004,-3.04842 12.80042,-3.84436 m 2.32226,0.4143 c 1.14112,-0.41746 2.33904,-0.91032 3.56199,-1.47206 m -6.40549,-1.00499 c 5.84506,-1.30525 15.42954,-3.77095 26.11844,-4.5375 1.00754,-0.0722 1.93124,-0.17147 2.78098,-0.29398 m -0.81947,-2.76573 c 4.78592,-2.70077 9.85148,-3.96161 13.62656,-5.5691 m -1.18225,0.88253 c 6.92293,-2.6568 12.27553,-4.35385 16.52317,-6.19185 10e-6,0 10e-6,0 10e-6,-10e-6 4.24963,-1.83886 14.01374,-6.38114 21.75161,-12.32057 7.73788,-5.93944 14.88243,-3.67973 24.31412,-4.25808 2.01232,-0.1234 3.7686,-0.43372 5.34642,-0.88136 m -7.35566,1.36214 c 6.22611,-1.07829 11.71185,-5.56268 14.86789,-9.88157 1.93792,-2.65196 7.11242,-3.69258 13.03874,-4.56756 m -1.75745,4.16144 c 2.04675,-1.30707 4.45115,-2.10051 7.0275,-2.57687 m 3.0638,0.19104 c 5.93669,-1.82477 13.39636,-3.66495 19.99326,-4.06802 2.5168,-0.15377 4.8484,-0.82697 6.9718,-1.71224 m -4.4591,-4.04899 c 1.3992,-0.71972 2.9098,-1.28509 4.5119,-1.72715 M 828.01067,668.1025 c 5.88672,-3.28008 15.53338,-4.06148 26.27462,-5.40973 0,0 0,0 0,0 10.74625,-1.34889 13.49793,-3.54712 20.12661,-3.75808 1e-5,0 1e-5,0 1e-5,0 4.78041,-0.15214 9.19611,-3.15036 13.10666,-6.68168 m -9.85622,-0.19377 c 0.96407,-0.39583 1.90557,-0.7262 2.82832,-0.99921 m 3.74215,-0.60995 c 0.7475,-0.43063 1.51777,-0.81256 2.30579,-1.15434 m -5.11735,2.47026 c 1.82319,-0.72871 4.0805,-1.38542 6.65576,-1.97698 m 1.48785,-1.56061 c 7.28776,-3.36182 13.46558,-2.57049 20.17891,-0.97211 2.0102,0.4786 3.99599,0.0387 5.95607,-1.01163 m -1.76823,-6.95129 c 5.76091,-2.03162 14.3518,-2.59355 22.74355,-0.97398 0,0 0,0 0,0 8.39567,1.62032 13.30727,-5.12252 19.59537,-8.53933 6.2881,-3.41681 14.55031,-5.52509 23.28286,-9.75808 0,0 0,0 10e-6,0 3.7734,-1.82911 6.62827,-2.92977 9.04362,-3.77704 m -9.77406,6.75008 c 4.18491,-1.55198 8.17372,-2.72409 12.00095,-3.62816 m 3.75797,-1.18928 c 0.15892,-0.0602 0.31697,-0.12073 0.47415,-0.1816 m -8.13754,0.72742 c 1.48104,-0.48508 3.17715,-0.97645 5.03351,-1.44726 m 7.37846,-4.08865 c 6.10103,-2.93778 11.28533,-4.76119 13.49303,-7.44146 0.1451,-0.1761 0.333,-0.34171 0.56,-0.49717 m -183.97212,62.45016 c 4.41549,-0.76091 8.75505,-1.50457 13.4262,-1.64468 m -1.78699,-0.65942 c 1.22585,-0.41879 2.47607,-0.81683 3.75153,-1.19361 m -4.01517,-0.74486 c 4.15947,-1.41692 7.79579,-2.35749 11.38169,-3.03921 m 1.55591,6.98788 c 2.9023,-0.54407 5.43539,-1.38392 7.73773,-2.37601 m 2.29757,-7.53777 c 7.97388,-2.80026 13.69664,-2.16147 20.74045,0.27709 7.0471,2.4397 13.52269,-5.21544 20.22037,-8.82058 0,0 0,0 0,0 1.71679,-0.92409 3.35059,-1.71535 4.89737,-2.44181 m -8.80647,-0.77713 c 0.62555,-0.27086 1.25203,-0.52132 1.88129,-0.75311 m 2.49499,-0.40595 c 7.31969,-2.23101 14.26934,-4.66976 22.49136,-7.16121 8.22587,-2.4926 13.51696,-3.68391 20.28287,-4.22683 0,0 0,0 0,0 0.16173,-0.013 0.32221,-0.0273 0.48142,-0.0428 m -5.09319,3.22618 c 6.03772,-1.67935 11.69646,-3.75335 17.72608,-5.74147 m -0.53903,-2.21183 c 5.61327,-2.55375 12.04793,-5.27885 15.775,-9.00451 0,0 0,0 0,0 3.72881,-3.72739 13.01608,-3.95281 18.78287,-5.10182 2.26661,-0.45162 5.01667,-1.37516 8.06997,-2.567 m -2.79,0.0837 c 2.556,-0.42876 5.4716,-1.03564 8.6212,-1.5623 m 2.4352,2.96202 c 2.3438,-0.50314 4.5281,-1.15608 6.5766,-1.87302 m -190.64363,59.89704 c 7.55814,-1.25303 13.64478,-3.49316 20.61603,-3.53758 0.84783,-0.005 1.71776,-0.0879 2.61086,-0.23562 m -2.11832,0.60131 c 6.93555,-2.18118 14.66766,-6.96034 23.7419,-14.06753 9.07849,-7.1105 12.28779,-3.60751 16.50162,-4.00807 4.21383,-0.40057 15.76732,-3.18335 26.97036,-2.72683 1e-5,0 1e-5,0 1e-5,0 3.76875,0.15357 6.47748,-0.41165 8.63034,-1.38318 m -16.92926,-4.33059 c 3.42142,-0.52281 6.68888,-1.36694 10.07704,-2.29003 m 1.77835,4.58853 c 5.81243,-1.34811 13.87829,-5.15574 21.33723,-8.59994 0,0 0,0 0,0 7.46243,-3.44582 12.83992,-3.56423 18.15787,-3.91433 5.31795,-0.3501 13.41799,-5.86083 19.90786,-10.75808 0,0 10e-6,0 10e-6,0 2.71559,-2.04918 5.77147,-3.27366 9.10226,-4.24879 m -1.86211,2.65326 c 7.96201,-3.50974 12.11091,-5.16175 15.92798,-8.59692 1.6128,-1.45149 4.5701,-2.41986 8.2123,-3.17194 m 2.0001,5.23609 c 2.3303,-1.06622 4.6157,-1.93579 6.7545,-2.68802 m -68.68965,21.19341 3.79197,-1.27317 m 50.21228,-16.85906 3.792,-1.27318 m -21.30689,7.1539 3.79197,-1.27317 m -131.50473,44.15345 3.79197,-1.27317 m 60.42931,-20.28948 3.79196,-1.27318 m 47.29314,-15.87893 3.79197,-1.27318 m 7.88463,-2.64731 3.79197,-1.27317"
           style="fill:none;stroke:#262626;stroke-width:1;stroke-linecap:butt;stroke-linejoin:miter;stroke-miterlimit:4;stroke-opacity:1;stroke-dasharray:none;stroke-dashoffset:0;marker-end:none"
           sodipodi:nodetypes="cc"
           inkscape:path-effect="#path-effect6638"
           inkscape:original-d="M 830.11337,671.24457 1016.9389,608.51685" />
        <path
           inkscape:original-d="m 938.27921,601.78488 74.49129,5.94184"
           inkscape:path-effect="#path-effect6640"
           sodipodi:nodetypes="cc"
           style="fill:none;stroke:#262626;stroke-width:1;stroke-linecap:butt;stroke-linejoin:miter;stroke-miterlimit:4;stroke-opacity:1;stroke-dasharray:none;stroke-dashoffset:0;marker-end:none"
           d="m 939.49929,604.7527 c 7.99743,-0.1026 13.96482,1.16619 20.48234,1.68056 1.41668,0.1118 2.86602,0.20443 4.33004,0.27664 m -1.15357,-2.49571 c 1.61672,0.0253 3.12238,0.0758 4.54189,0.14216 m -3.33727,-1.72478 c 3.33521,-0.20832 7.27691,0.28376 11.39439,1.01252 m 1.90359,2.7829 c 6.17333,0.70757 13.71805,0.69146 19.85208,0.41379 4.20392,-0.1903 9.94592,0.19244 16.30182,0.31155 m -76.78616,-3.86666 c 6.4944,1.12743 15.33856,-0.41712 24.67975,-2.91491 6.75798,-1.80706 10.22039,-0.22276 12.92955,1.27364 m -2.39852,-0.04 c 5.78592,0.63821 11.18368,1.27884 16.74902,2.29552 m -3.84977,4.90813 c 4.21024,0.0718 8.53491,0.44279 13.23513,0.88246 m 1.48613,-3.36229 c 0.17187,0.0371 0.34427,0.0737 0.51707,0.10967 m 0,0.0484 c 5.3312,-0.26257 9.8324,0.61997 14.1817,1.75377 m -74.10315,-4.71189 c 8.01239,1.34633 13.29673,0.29189 18.49013,-0.85273 0,0 0,0 0,0 5.19582,-1.14515 14.17695,0.549 21.12635,-0.0774 3.11147,-0.28046 6.18627,-0.12207 9.1745,0.15261 m -4.53085,4.9332 c 6.87565,-0.0263 14.61254,-0.6263 22.56982,-3.68673 2.0949,-0.80569 4.0144,-0.9951 5.8054,-0.76751 m -75.44113,-0.83611 c 7.2331,0.0221 13.44191,1.09959 19.03028,1.63351 5.59098,0.53416 14.53066,0.60024 22.25135,0.0632 0,0 0,0 0,0 2.61236,-0.1817 5.17849,-0.0389 7.76906,0.29924 m -1.0921,4.70044 c 7.50664,0.97958 14.25064,-0.14621 21.44394,-2.21159 2.5935,-0.74465 5.0994,-0.77861 7.5282,-0.47404 m -74.64289,-1.27598 c 2.60956,0.13344 5.20525,0.1914 7.62765,0.11951 m -0.57319,-5.54234 c 6.22735,0.33414 13.13913,1.44441 17.97701,2.68775 0.2575,0.0662 0.53127,0.12738 0.82029,0.18389 m 0.64104,4.38969 c 7.38177,0.33322 14.07027,0.45132 20.8582,-0.38256 0,0 0,0 0,0 6.79109,-0.83426 14.04039,0.2238 20.79819,-0.96802 0.934,-0.16472 1.8918,-0.25323 2.8707,-0.27959 m -75.97969,-1.55223 c 7.17151,0.21525 14.26649,-0.67566 21.42099,-3.71052 7.15785,-3.03628 14.78198,3.00781 23.00135,7.32885 8.21937,4.32104 14.74643,1.0734 22.86075,1.51635 0,0 0,0 0,0 1.5093,0.0824 2.961,0.11576 4.3741,0.0974 m -6.5598,-0.78633 c 4.8662,-0.1489 9.2424,0.154 13.7229,0.35241 m -74.3446,-5.46887 c 6.54819,1.0742 14.50216,1.00546 22.12499,1.37422 3.22094,0.15582 6.30829,0.35044 9.38048,0.54613 m -2.9109,2.2249 c 6.37605,0.9494 13.79115,0.91493 20.01586,0.9994 0,0 0,0 0,0 6.22761,0.0845 13.17777,1.4491 18.17317,2.61791 0.9129,0.21359 1.9919,0.34315 3.1981,0.39942 m -24.56043,-5.77372 3.98734,0.31805 m 17.54529,1.39951 3.9873,0.31805 m -10.97085,-0.8751 3.98735,0.31805 m -54.90913,-4.37985 3.98733,0.31805 m 21.61905,1.72445 3.98734,0.31806 m 16.38137,1.30667 3.98734,0.31805 m 0.66837,0.0533 3.98733,0.31805"
           id="path6689"
           inkscape:connector-curvature="0" />
        <path
           inkscape:connector-curvature="0"
           id="path6691"
           d="m 963.92839,661.92095 c 6.0377,-5.6075 10.04537,-9.84361 14.60316,-14.83416 0.99071,-1.08476 2.01407,-2.18871 3.05212,-3.31307 m -0.57793,-0.87872 c 1.21463,-1.10419 2.31821,-2.1831 3.33564,-3.24623 m -3.25071,-1.48163 c 2.28979,-3.14492 5.18607,-5.58945 8.25813,-7.79729 m 2.13746,3.43985 c 4.21361,-4.79734 9.79654,-10.32007 13.97294,-16.10092 2.0733,-2.86986 4.9519,-5.43922 8.2864,-8.02644 m -52.28807,50.77159 c 4.53468,-4.37748 11.41912,-11.42693 18.80058,-19.42964 5.3402,-5.78963 7.38482,-8.18791 8.6762,-10.6741 m -1.53962,2.37266 c 4.2848,-3.57845 8.18145,-7.15448 12.24568,-10.35446 m -3.50499,5.87665 c 3.13802,-2.94005 6.39042,-5.58102 10.01842,-8.15324 m 1.7264,-2.68744 c 0.1183,-0.11351 0.237,-0.22753 0.3563,-0.34212 m 0.016,0.0801 c 2.886,-2.85104 5.349,-5.1081 7.6321,-7.10621 m -50.99535,50.66027 c 6.05266,-4.15858 9.37728,-10.71791 12.61095,-17.36744 0,0 0,0 0,0 3.23519,-6.65263 10.25568,-10.46595 15.24444,-16.59982 2.23362,-2.74634 4.43058,-5.05382 6.54098,-7.24502 m -3.22128,8.61182 c 4.91596,-5.53122 10.68816,-11.62978 16.69066,-20.20145 0.4464,-0.63738 0.8786,-1.2255 1.2979,-1.76887 m -51.96943,53.43611 c 5.27337,-5.48285 9.52246,-9.91022 13.15111,-14.88121 3.63034,-4.9733 10.60937,-10.41469 16.36943,-16.45919 0,0 0,0 0,0 1.94896,-2.0452 3.8517,-3.76585 5.77887,-5.29124 m 0.14605,8.17842 c 5.54687,-4.52531 10.32897,-11.152 15.56477,-18.7263 0.8987,-1.30002 1.7774,-2.43867 2.6373,-3.45619 m -51.3597,53.37051 c 1.80539,-2.12548 3.59692,-4.32645 5.21515,-6.65727 m -0.39583,-5.04414 c 4.26762,-5.17076 9.21967,-9.56539 12.09783,-13.82695 0.15319,-0.22683 0.32266,-0.45864 0.50737,-0.69513 m 1.13036,5.7642 c 5.42205,-5.17168 10.15093,-10.55736 14.97903,-16.89726 4.58589,-6.02191 9.58389,-10.338 14.18429,-16.49051 m -50.12459,49.24695 c 4.29903,-4.14119 9.46404,-8.79375 12.9181,-11.55496 3.45568,-2.7625 10.35191,-11.68888 15.54913,-20.23263 5.19721,-8.54375 10.86066,-8.00714 17.11946,-9.19358 0,0 0,0 0,0 1.1642,-0.22069 2.2698,-0.70327 3.338,-1.37526 m -2.6153,-1.90388 c 2.4293,-1.72563 4.6251,-3.50893 6.6994,-5.13462 m -49.58625,50.55002 c 4.7748,-4.96793 9.79577,-9.38074 13.97213,-13.38192 1.76467,-1.69066 3.92709,-3.73843 6.26335,-5.9272 m -1.54344,2.3131 c 4.6118,-5.91119 10.54021,-9.52787 16.19891,-13.80248 5.627,-4.25065 9.8249,-10.02674 14.0652,-15.42289 m -19.77356,15.8203 2.88938,-2.76614 m 11.86918,-11.36292 2.8894,-2.76613 m -7.676,7.34853 2.8894,-2.76613 m -37.79137,36.17943 2.88937,-2.76613 m 14.66136,-14.03598 2.88937,-2.76614 m 11.07147,-10.59919 2.8893,-2.76613 m 0.3017,-0.2888 2.8894,-2.76613"
           style="fill:none;stroke:#262626;stroke-width:1;stroke-linecap:butt;stroke-linejoin:miter;stroke-miterlimit:4;stroke-opacity:1;stroke-dasharray:none;stroke-dashoffset:0;marker-end:none"
           sodipodi:nodetypes="cc"
           inkscape:path-effect="#path-effect6642"
           inkscape:original-d="M 962.70833,658.95321 1013.765,610.07432" />
      </g>
    </g>
    <text
       sodipodi:linespacing="125%"
       id="text6739"
       y="784.9964"
       x="244.78845"
       style="font-size:68.22363281px;font-style:normal;font-variant:normal;font-weight:normal;font-stretch:normal;line-height:125%;letter-spacing:0px;word-spacing:0px;fill:#000000;fill-opacity:1;stroke:none;font-family:Serif;-inkscape-font-specification:Serif"
       xml:space="preserve"><tspan
         style="font-style:normal;font-variant:normal;font-weight:normal;font-stretch:normal;text-align:end;text-anchor:end;font-family:Sketch Block;-inkscape-font-specification:Sketch Block"
         y="784.9964"
         x="244.78844"
         sodipodi:role="line"
         id="tspan6743">sender</tspan></text>
    <text
       xml:space="preserve"
       style="font-size:68.22363281px;font-style:normal;font-variant:normal;font-weight:normal;font-stretch:normal;line-height:125%;letter-spacing:0px;word-spacing:0px;fill:#000000;fill-opacity:1;stroke:none;font-family:Serif;-inkscape-font-specification:Serif"
       x="1502.7885"
       y="784.9964"
       id="text6745"
       sodipodi:linespacing="125%"><tspan
         id="tspan6749"
         sodipodi:role="line"
         x="1502.7885"
         y="784.9964"
         style="font-style:normal;font-variant:normal;font-weight:normal;font-stretch:normal;text-align:start;text-anchor:start;font-family:Sketch Block;-inkscape-font-specification:Sketch Block">receiver</tspan></text>
    <g
       id="g5683"
       transform="matrix(0.94554732,0.32548466,-0.32548466,0.94554732,719.78647,-140.85518)">
      <g
         id="g5685">
        <path
           inkscape:original-d="M 830.11337,671.24457 1016.9389,608.51685"
           inkscape:path-effect="#path-effect6638"
           sodipodi:nodetypes="cc"
           style="fill:none;stroke:#262626;stroke-width:1;stroke-linecap:butt;stroke-linejoin:miter;stroke-miterlimit:4;stroke-opacity:1;stroke-dasharray:none;stroke-dashoffset:0;marker-end:none"
           d="m 831.63855,674.90735 c 7.94222,-3.16617 13.17773,-4.50383 19.14674,-6.8474 1.29745,-0.5094 2.63845,-1.04438 3.99903,-1.60657 m -0.86903,-1.91955 c 1.59733,-0.58786 3.04661,-1.14201 4.38101,-1.67511 m -4.10296,-2.57736 c 2.99542,-1.89378 6.79949,-2.8537 10.83794,-3.49805 m 2.63888,3.93142 c 5.5101,-2.08594 12.85812,-5.1291 18.3064,-8.53641 5.45083,-3.40889 15.30489,-5.18652 25.65787,-8.78932 0,0 0,0 0,0 9.58942,-3.33709 11.69923,-2.82805 14.89957,-1.67035 m -3.08661,-4.8522 c 6.44374,-2.82283 11.06553,-4.07469 12.96134,-5.41038 1.37154,-0.96631 8.55745,-3.1093 16.01008,-5.37669 m 1.19053,2.53392 c 5.59746,-1.93867 9.89171,-2.7443 13.54886,-2.71968 m 3.12611,3.71886 c 4.09518,-0.97091 7.61713,-2.5348 10.96508,-4.4903 m -2.82008,-5.92104 c 0.17073,-0.0286 0.3443,-0.0599 0.52057,-0.0936 m 0.52971,5.12209 c 8.0777,-1.88811 13.58436,-4.72885 20.3653,-7.44293 6.32181,-2.53032 11.54461,-5.26463 15.62481,-9.31639 m -186.63606,60.4311 c 7.78602,-1.79467 12.83483,-4.81193 18.14696,-7.63057 0,0 0,0 0,0 5.31462,-2.81996 14.54701,-1.96839 23.34537,0.96067 3.93931,1.31144 7.17063,0.0617 10.24498,-2.35501 m -8.21227,-0.39036 c 6.27011,-1.70127 14.32423,-4.96584 22.64909,-8.00569 3.51758,-1.28446 6.28873,-2.30572 8.67417,-3.23081 m -4.39109,-1.2267 c 6.32233,-1.52344 14.601,-3.71191 23.52402,-4.3497 8.92718,-0.63808 14.08438,-4.06729 21.90786,-5.41433 0,0 0,0 0,0 2.64713,-0.45578 5.0569,-1.32064 7.35281,-2.48917 m -6.38822,-0.97574 c 6.85178,-1.63719 13.99664,-3.10604 21.77327,-2.47454 4.56237,0.3705 7.69448,-1.6917 10.00405,-4.4333 m -2.35688,-4.8422 c 2.29064,-1.0603 4.74547,-1.95324 7.0974,-2.72958 m 1.16218,-1.82256 c 6.35185,-2.125 12.82284,-2.43199 18.11776,-0.4426 0.2818,0.10589 0.5713,0.1851 0.868,0.23956 m -2.75177,-5.29466 c 4.42327,-2.64023 10.03397,-3.49157 15.99397,-4.21022 m -189.73173,67.32712 c 6.841,-2.74238 13.57995,-6.95963 20.39828,-14.03549 6.82152,-7.07916 14.26474,-2.05117 22.50162,0.67942 8.23687,2.73059 14.21734,-4.63038 22.31411,-7.07058 10e-6,0 10e-6,0 10e-6,0 1.50611,-0.45391 2.93531,-0.97319 4.31297,-1.5614 m -6.28258,1.73346 c 7.88068,-3.35379 14.0489,-5.09661 21.86558,-8.47213 7.82033,-3.3771 12.86522,-3.90197 18.31412,-4.91433 5.4489,-1.01236 13.892,-4.70434 21.34537,-7.25808 1.99783,-0.68452 3.92387,-1.34433 5.8181,-1.99454 m -3.65339,2.69506 c 5.78039,-1.7635 12.9476,-4.82839 18.52477,-7.75561 2.35657,-1.23687 4.88548,-2.16447 7.31751,-2.93479 m -4.08095,-1.55385 c 6.56967,-1.44154 12.37665,-5.03477 16.86741,-8.22482 4.49286,-3.19153 14.0642,-3.65474 21.8454,-4.13307 0,0 0,0 0,0 0.5397,-0.0332 1.0722,-0.0784 1.5984,-0.13388 m -182.42046,65.06909 c 7.08028,-1.56671 13.85337,-5.54312 21.2417,-9.81839 7.39178,-4.27727 13.43216,-4.3073 20.03286,-6.10183 1e-5,0 1e-5,0 1e-5,0 5.66267,-1.5395 10.93129,-4.21363 15.46617,-7.11446 m -9.04074,5.73074 c 5.84358,-1.56768 13.84442,-6.58323 21.24344,-12.91214 7.40247,-6.33186 13.63455,-4.24005 20.56411,-5.85182 6.92956,-1.61178 15.29899,-4.47102 25.53287,-6.60183 2.74314,-0.57116 4.97787,-1.0546 6.90333,-1.44123 m -14.24545,6.93075 c 6.47802,-1.80479 14.3866,-4.5313 22.80504,-6.75555 0,0 0,0 0,0 8.42237,-2.22529 12.96188,-7.18168 18.62662,-14.66433 0,0 0,0 0,0 5.01461,-6.62388 11.80531,-4.98217 18.11011,-5.88158 m -1.8415,5.03538 c 7.53509,-2.52249 11.25529,-5.19763 13.30359,-8.6608 0.1046,-0.17684 0.2379,-0.34341 0.398,-0.50018 m -180.17123,67.86568 c 6.53799,-1.14157 11.83724,-6.55332 15.21121,-12.85024 0,0 0,0 0,0 3.37554,-6.29986 14.80946,-3.10775 24.06412,-2.44557 2.75179,0.19689 4.97967,-0.0738 6.88119,-0.5813 m -2.25327,-0.3532 c 0.90857,-0.23411 1.79781,-0.51478 2.66251,-0.8313 m -1.58309,2.96198 c 6.02066,-3.43668 14.29097,-4.826 22.58693,-7.65952 8.29984,-2.83483 13.56024,-4.51986 20.37662,-6.82057 0,0 0,0 0,0 0.25613,-0.0865 0.51132,-0.17426 0.76558,-0.26341 m -7.40176,-2.26389 c 4.32429,-2.05799 8.27429,-3.39335 12.3357,-4.73719 m 1.57987,0.50831 c 7.3597,-1.034 12.59426,-2.64535 17.49131,-1.19413 3.14092,0.9308 8.2726,-1.5414 13.90237,-4.4917 m -2.6963,-3.41683 c 6.84128,-2.28256 13.88055,-4.2206 21.33578,-5.78613 0,0 1e-5,0 1e-5,0 7.45871,-1.56627 12.49194,-4.99278 17.12661,-8.13308 4.63467,-3.14031 15.04044,-4.55435 24.78284,-6.78933 0.72,-0.16516 1.4075,-0.33536 2.0663,-0.51057 m -194.79659,60.13326 c 6.85355,-1.8346 15.90139,-3.05648 27.27327,-2.28676 4.64951,0.3147 7.56419,-0.62976 9.69113,-2.21571 m -5.21439,-5.20662 c 6.24824,-3.23882 13.16378,-4.3918 19.08661,-6.37854 2.98871,-1.00253 6.58551,-1.73491 10.46049,-2.09445 m 0.50465,1.32342 c 7.90997,-3.32205 12.02319,-4.50329 15.83429,-6.62842 0,0 0,0 0,0 3.81288,-2.12612 13.75298,-2.62672 21.00162,-1.07058 3.74096,0.80311 7.01723,-0.68196 10.02499,-2.87837 m -3.15824,-1.26454 c 6.3423,-1.26485 13.71566,-5.01935 20.83649,-8.22506 7.12415,-3.20721 12.83944,-4.99825 18.18911,-8.13308 10e-6,0 10e-6,0 10e-6,0 4.29686,-2.5179 10.1677,-3.62287 15.43077,-4.66812 m -4.60122,4.40259 c 6.24843,-1.32805 13.36219,-5.93539 19.83661,-10.88122 4.5401,-3.46821 10.0955,-3.91808 16.3952,-4.08334 m -183.71642,63.68592 c 6.82834,-2.77003 11.15111,-3.1873 13.1483,-2.72295 1.99812,0.46458 13.76726,-4.57327 20.93911,-6.91432 0,0 0,0 10e-6,0 4.3877,-1.43225 9.14962,-3.10267 14.5761,-5.05727 m -4.26119,-3.65846 c 1.00006,-0.51102 2.0398,-0.93603 3.09786,-1.27967 m -0.41495,5.91279 c 7.41245,-2.26296 13.43316,-5.49316 19.99124,-9.66116 6.56113,-4.16995 13.81756,-5.10393 21.15786,-8.44558 7.34031,-3.34165 14.35794,-4.35209 22.81412,-6.25808 0,0 0,0 0,0 2.72908,-0.61512 4.9152,-1.39594 6.72926,-2.30523 m -10.74107,0.19436 c 6.8517,-2.61398 13.90392,-3.01368 21.46077,-2.25441 0,0 0,0 10e-6,0 7.56037,0.75961 14.19139,-3.96408 22.31411,-5.03933 8.12272,-1.07525 12.31981,-6.1182 16.65788,-11.53933 0,0 0,0 0,0 0.095,-0.119 0.1937,-0.23441 0.2955,-0.34633 m -0.9079,4.99177 c 2.4188,-1.223 4.8197,-2.1408 7.1596,-2.9187 m 0.6202,1.4366 c 4.5367,-2.01302 7.9012,-3.0941 10.7079,-3.92517 m -188.13271,62.48014 c 7.6006,-1.22356 14.60371,-5.32598 23.52223,-9.13137 0,0 0,0 0,0 8.92267,-3.80716 11.25979,-5.28253 13.43911,-9.03932 1.83982,-3.17155 10.19547,-4.18504 16.77819,-5.69713 m 0.3245,3.62933 c 3.80254,-1.28746 7.78751,-2.9728 11.21249,-4.90237 m -1.17649,-0.92408 c 4.246,-2.18669 10.74619,-3.88881 17.82685,-5.95408 m -2.29102,6.52224 c 1.7618,-0.79062 3.5581,-1.52747 5.38884,-2.2547 m 0.23265,-2.37841 c 6.17453,-1.00476 12.11421,-4.7215 16.11797,-7.35043 0,0 0,0 10e-6,0 4.00563,-2.63015 15.26918,-5.44619 25.43911,-9.44557 1.77257,-0.69708 3.27506,-1.25341 4.56162,-1.69632 m -9.49118,7.43792 c 5.66693,-2.939 13.86621,-6.06829 21.33743,-11.37897 10e-6,0 10e-6,0 10e-6,0 7.47471,-5.31315 13.48284,-4.20446 20.09536,-5.82058 6.61253,-1.61611 13.13123,-4.57337 19.12663,-6.88307 0,0 0,0 0,0 0.5917,-0.22796 1.1933,-0.4532 1.8025,-0.67587 m -183.03749,63.16859 c 6.44469,-1.76337 12.07566,-4.68595 15.99259,-7.28686 0,0 0,0 0,0 3.91876,-2.60213 14.88297,-4.69173 24.37662,-7.32058 4.5102,-1.24891 7.78835,-2.22444 10.71138,-3.04108 m -9.95658,0.26931 c 7.96265,-2.72961 12.80602,-4.41468 18.11546,-6.37925 5.31192,-1.96549 15.24018,-3.04068 25.37662,-2.35183 10.13643,0.68885 13.17976,-5.57474 19.25161,-9.88308 0,0 0,0 10e-6,0 2.87273,-2.03837 6.17703,-2.88001 9.68808,-3.16995 m -6.69115,1.85923 c 8.08693,-3.30017 12.33342,-3.31293 16.64654,-3.15971 0,0 0,0 0,0 4.31514,0.15329 14.87835,-4.63546 24.37662,-7.13308 0,0 0,0 0,0 7.3693,-1.93779 11.194,-4.55995 15.2908,-8.20718 m -5.3569,1.97956 c 6.69468,-2.48032 12.69539,-4.55723 17.89849,-6.7546 1.5986,-0.67513 3.5396,-1.36512 5.6852,-2.06191 m -179.10204,60.46801 c 5.48843,-2.5638 11.90451,-4.92059 15.46268,-8.00449 2.62287,-2.27326 9.33965,-3.10631 16.29233,-3.4585 m -5.17856,1.67164 c 6.62412,-3.07271 15.04055,-4.57171 24.86734,-6.84753 6.84047,-1.5842 10.35303,-3.23271 13.66573,-4.95528 m -3.41254,2.33529 c 5.92882,-2.41237 13.47011,-4.87859 20.45229,-8.0155 m -5.95316,0.25899 c 6.44647,-1.60593 13.98386,-3.0189 21.64884,-2.22458 0,0 0,0 0,0 7.66856,0.7947 14.14568,-5.62288 22.09537,-10.10183 7.94968,-4.47895 12.20926,-4.51941 16.31411,-6.72683 0,0 0,0 0,0 0.93193,-0.50114 2.21311,-1.03067 3.75047,-1.58656 m -3.73633,-0.9752 c 5.63563,-1.0966 13.73483,-2.90911 20.93123,-1.78779 2.05642,0.32042 4.00601,0.15871 5.88125,-0.25038 m -0.78846,-0.0492 c 6.35315,-1.66137 14.21315,-6.74786 22.27395,-13.25576 0.457,-0.36897 0.9028,-0.70861 1.3382,-1.02123 m -187.08963,65.85569 c 7.35037,-1.46273 13.73742,-5.47701 20.99132,-9.44353 0.28687,-0.15687 0.57113,-0.30857 0.85286,-0.4554 m -2.56845,7.19127 c 5.69611,-1.58761 11.72533,-5.66589 14.93114,-10.22461 0,0 0,0 0,0 3.20731,-4.56084 13.74038,-4.7865 20.84537,-7.50808 1.91833,-0.73482 3.74659,-1.44519 5.50543,-2.15705 m -3.75452,-1.29236 c 6.49824,-2.54036 13.78592,-2.06905 20.99252,0.52673 0,0 0,0 0,0 7.20996,2.59698 13.81997,-5.81394 21.22036,-10.63308 0.68279,-0.44463 1.35699,-0.84445 2.02403,-1.2054 m -1.54159,5.65268 c 7.36054,-1.02679 13.49379,-6.05996 20.11631,-11.38164 0,0 0,0 0,0 6.62561,-5.32416 13.74173,-4.36674 20.97036,-6.22683 0,0 0,0 0,0 6.69552,-1.7229 11.98792,-3.42229 16.97249,-4.08798 m -9.79225,-2.49516 c 4.80856,-1.078 10.91635,-1.64266 18.02328,-0.7925 m -0.63021,-4.54758 c 2.72198,-0.91572 5.20988,-1.65839 7.56588,-2.27353 m -3.6333,5.48637 c 3.5458,-1.68281 8.2637,-2.75931 13.6939,-3.5185 m -182.01116,63.57238 c 2.38724,-0.75095 4.50328,-1.50177 6.4204,-2.25454 m -1.74659,-0.92921 c 6.31614,-1.69908 10.06004,-3.04842 12.80042,-3.84436 m 2.32226,0.4143 c 1.14112,-0.41746 2.33904,-0.91032 3.56199,-1.47206 m -6.40549,-1.00499 c 5.84506,-1.30525 15.42954,-3.77095 26.11844,-4.5375 1.00754,-0.0722 1.93124,-0.17147 2.78098,-0.29398 m -0.81947,-2.76573 c 4.78592,-2.70077 9.85148,-3.96161 13.62656,-5.5691 m -1.18225,0.88253 c 6.92293,-2.6568 12.27553,-4.35385 16.52317,-6.19185 10e-6,0 10e-6,0 10e-6,-10e-6 4.24963,-1.83886 14.01374,-6.38114 21.75161,-12.32057 7.73788,-5.93944 14.88243,-3.67973 24.31412,-4.25808 2.01232,-0.1234 3.7686,-0.43372 5.34642,-0.88136 m -7.35566,1.36214 c 6.22611,-1.07829 11.71185,-5.56268 14.86789,-9.88157 1.93792,-2.65196 7.11242,-3.69258 13.03874,-4.56756 m -1.75745,4.16144 c 2.04675,-1.30707 4.45115,-2.10051 7.0275,-2.57687 m 3.0638,0.19104 c 5.93669,-1.82477 13.39636,-3.66495 19.99326,-4.06802 2.5168,-0.15377 4.8484,-0.82697 6.9718,-1.71224 m -4.4591,-4.04899 c 1.3992,-0.71972 2.9098,-1.28509 4.5119,-1.72715 M 828.01067,668.1025 c 5.88672,-3.28008 15.53338,-4.06148 26.27462,-5.40973 0,0 0,0 0,0 10.74625,-1.34889 13.49793,-3.54712 20.12661,-3.75808 1e-5,0 1e-5,0 1e-5,0 4.78041,-0.15214 9.19611,-3.15036 13.10666,-6.68168 m -9.85622,-0.19377 c 0.96407,-0.39583 1.90557,-0.7262 2.82832,-0.99921 m 3.74215,-0.60995 c 0.7475,-0.43063 1.51777,-0.81256 2.30579,-1.15434 m -5.11735,2.47026 c 1.82319,-0.72871 4.0805,-1.38542 6.65576,-1.97698 m 1.48785,-1.56061 c 7.28776,-3.36182 13.46558,-2.57049 20.17891,-0.97211 2.0102,0.4786 3.99599,0.0387 5.95607,-1.01163 m -1.76823,-6.95129 c 5.76091,-2.03162 14.3518,-2.59355 22.74355,-0.97398 0,0 0,0 0,0 8.39567,1.62032 13.30727,-5.12252 19.59537,-8.53933 6.2881,-3.41681 14.55031,-5.52509 23.28286,-9.75808 0,0 0,0 10e-6,0 3.7734,-1.82911 6.62827,-2.92977 9.04362,-3.77704 m -9.77406,6.75008 c 4.18491,-1.55198 8.17372,-2.72409 12.00095,-3.62816 m 3.75797,-1.18928 c 0.15892,-0.0602 0.31697,-0.12073 0.47415,-0.1816 m -8.13754,0.72742 c 1.48104,-0.48508 3.17715,-0.97645 5.03351,-1.44726 m 7.37846,-4.08865 c 6.10103,-2.93778 11.28533,-4.76119 13.49303,-7.44146 0.1451,-0.1761 0.333,-0.34171 0.56,-0.49717 m -183.97212,62.45016 c 4.41549,-0.76091 8.75505,-1.50457 13.4262,-1.64468 m -1.78699,-0.65942 c 1.22585,-0.41879 2.47607,-0.81683 3.75153,-1.19361 m -4.01517,-0.74486 c 4.15947,-1.41692 7.79579,-2.35749 11.38169,-3.03921 m 1.55591,6.98788 c 2.9023,-0.54407 5.43539,-1.38392 7.73773,-2.37601 m 2.29757,-7.53777 c 7.97388,-2.80026 13.69664,-2.16147 20.74045,0.27709 7.0471,2.4397 13.52269,-5.21544 20.22037,-8.82058 0,0 0,0 0,0 1.71679,-0.92409 3.35059,-1.71535 4.89737,-2.44181 m -8.80647,-0.77713 c 0.62555,-0.27086 1.25203,-0.52132 1.88129,-0.75311 m 2.49499,-0.40595 c 7.31969,-2.23101 14.26934,-4.66976 22.49136,-7.16121 8.22587,-2.4926 13.51696,-3.68391 20.28287,-4.22683 0,0 0,0 0,0 0.16173,-0.013 0.32221,-0.0273 0.48142,-0.0428 m -5.09319,3.22618 c 6.03772,-1.67935 11.69646,-3.75335 17.72608,-5.74147 m -0.53903,-2.21183 c 5.61327,-2.55375 12.04793,-5.27885 15.775,-9.00451 0,0 0,0 0,0 3.72881,-3.72739 13.01608,-3.95281 18.78287,-5.10182 2.26661,-0.45162 5.01667,-1.37516 8.06997,-2.567 m -2.79,0.0837 c 2.556,-0.42876 5.4716,-1.03564 8.6212,-1.5623 m 2.4352,2.96202 c 2.3438,-0.50314 4.5281,-1.15608 6.5766,-1.87302 m -190.64363,59.89704 c 7.55814,-1.25303 13.64478,-3.49316 20.61603,-3.53758 0.84783,-0.005 1.71776,-0.0879 2.61086,-0.23562 m -2.11832,0.60131 c 6.93555,-2.18118 14.66766,-6.96034 23.7419,-14.06753 9.07849,-7.1105 12.28779,-3.60751 16.50162,-4.00807 4.21383,-0.40057 15.76732,-3.18335 26.97036,-2.72683 1e-5,0 1e-5,0 1e-5,0 3.76875,0.15357 6.47748,-0.41165 8.63034,-1.38318 m -16.92926,-4.33059 c 3.42142,-0.52281 6.68888,-1.36694 10.07704,-2.29003 m 1.77835,4.58853 c 5.81243,-1.34811 13.87829,-5.15574 21.33723,-8.59994 0,0 0,0 0,0 7.46243,-3.44582 12.83992,-3.56423 18.15787,-3.91433 5.31795,-0.3501 13.41799,-5.86083 19.90786,-10.75808 0,0 10e-6,0 10e-6,0 2.71559,-2.04918 5.77147,-3.27366 9.10226,-4.24879 m -1.86211,2.65326 c 7.96201,-3.50974 12.11091,-5.16175 15.92798,-8.59692 1.6128,-1.45149 4.5701,-2.41986 8.2123,-3.17194 m 2.0001,5.23609 c 2.3303,-1.06622 4.6157,-1.93579 6.7545,-2.68802 m -68.68965,21.19341 3.79197,-1.27317 m 50.21228,-16.85906 3.792,-1.27318 m -21.30689,7.1539 3.79197,-1.27317 m -131.50473,44.15345 3.79197,-1.27317 m 60.42931,-20.28948 3.79196,-1.27318 m 47.29314,-15.87893 3.79197,-1.27318 m 7.88463,-2.64731 3.79197,-1.27317"
           id="path5687"
           inkscape:connector-curvature="0" />
        <path
           inkscape:connector-curvature="0"
           id="path5689"
           d="m 939.49929,604.7527 c 7.99743,-0.1026 13.96482,1.16619 20.48234,1.68056 1.41668,0.1118 2.86602,0.20443 4.33004,0.27664 m -1.15357,-2.49571 c 1.61672,0.0253 3.12238,0.0758 4.54189,0.14216 m -3.33727,-1.72478 c 3.33521,-0.20832 7.27691,0.28376 11.39439,1.01252 m 1.90359,2.7829 c 6.17333,0.70757 13.71805,0.69146 19.85208,0.41379 4.20392,-0.1903 9.94592,0.19244 16.30182,0.31155 m -76.78616,-3.86666 c 6.4944,1.12743 15.33856,-0.41712 24.67975,-2.91491 6.75798,-1.80706 10.22039,-0.22276 12.92955,1.27364 m -2.39852,-0.04 c 5.78592,0.63821 11.18368,1.27884 16.74902,2.29552 m -3.84977,4.90813 c 4.21024,0.0718 8.53491,0.44279 13.23513,0.88246 m 1.48613,-3.36229 c 0.17187,0.0371 0.34427,0.0737 0.51707,0.10967 m 0,0.0484 c 5.3312,-0.26257 9.8324,0.61997 14.1817,1.75377 m -74.10315,-4.71189 c 8.01239,1.34633 13.29673,0.29189 18.49013,-0.85273 0,0 0,0 0,0 5.19582,-1.14515 14.17695,0.549 21.12635,-0.0774 3.11147,-0.28046 6.18627,-0.12207 9.1745,0.15261 m -4.53085,4.9332 c 6.87565,-0.0263 14.61254,-0.6263 22.56982,-3.68673 2.0949,-0.80569 4.0144,-0.9951 5.8054,-0.76751 m -75.44113,-0.83611 c 7.2331,0.0221 13.44191,1.09959 19.03028,1.63351 5.59098,0.53416 14.53066,0.60024 22.25135,0.0632 0,0 0,0 0,0 2.61236,-0.1817 5.17849,-0.0389 7.76906,0.29924 m -1.0921,4.70044 c 7.50664,0.97958 14.25064,-0.14621 21.44394,-2.21159 2.5935,-0.74465 5.0994,-0.77861 7.5282,-0.47404 m -74.64289,-1.27598 c 2.60956,0.13344 5.20525,0.1914 7.62765,0.11951 m -0.57319,-5.54234 c 6.22735,0.33414 13.13913,1.44441 17.97701,2.68775 0.2575,0.0662 0.53127,0.12738 0.82029,0.18389 m 0.64104,4.38969 c 7.38177,0.33322 14.07027,0.45132 20.8582,-0.38256 0,0 0,0 0,0 6.79109,-0.83426 14.04039,0.2238 20.79819,-0.96802 0.934,-0.16472 1.8918,-0.25323 2.8707,-0.27959 m -75.97969,-1.55223 c 7.17151,0.21525 14.26649,-0.67566 21.42099,-3.71052 7.15785,-3.03628 14.78198,3.00781 23.00135,7.32885 8.21937,4.32104 14.74643,1.0734 22.86075,1.51635 0,0 0,0 0,0 1.5093,0.0824 2.961,0.11576 4.3741,0.0974 m -6.5598,-0.78633 c 4.8662,-0.1489 9.2424,0.154 13.7229,0.35241 m -74.3446,-5.46887 c 6.54819,1.0742 14.50216,1.00546 22.12499,1.37422 3.22094,0.15582 6.30829,0.35044 9.38048,0.54613 m -2.9109,2.2249 c 6.37605,0.9494 13.79115,0.91493 20.01586,0.9994 0,0 0,0 0,0 6.22761,0.0845 13.17777,1.4491 18.17317,2.61791 0.9129,0.21359 1.9919,0.34315 3.1981,0.39942 m -24.56043,-5.77372 3.98734,0.31805 m 17.54529,1.39951 3.9873,0.31805 m -10.97085,-0.8751 3.98735,0.31805 m -54.90913,-4.37985 3.98733,0.31805 m 21.61905,1.72445 3.98734,0.31806 m 16.38137,1.30667 3.98734,0.31805 m 0.66837,0.0533 3.98733,0.31805"
           style="fill:none;stroke:#262626;stroke-width:1;stroke-linecap:butt;stroke-linejoin:miter;stroke-miterlimit:4;stroke-opacity:1;stroke-dasharray:none;stroke-dashoffset:0;marker-end:none"
           sodipodi:nodetypes="cc"
           inkscape:path-effect="#path-effect6640"
           inkscape:original-d="m 938.27921,601.78488 74.49129,5.94184" />
        <path
           inkscape:original-d="M 962.70833,658.95321 1013.765,610.07432"
           inkscape:path-effect="#path-effect6642"
           sodipodi:nodetypes="cc"
           style="fill:none;stroke:#262626;stroke-width:1;stroke-linecap:butt;stroke-linejoin:miter;stroke-miterlimit:4;stroke-opacity:1;stroke-dasharray:none;stroke-dashoffset:0;marker-end:none"
           d="m 963.92839,661.92095 c 6.0377,-5.6075 10.04537,-9.84361 14.60316,-14.83416 0.99071,-1.08476 2.01407,-2.18871 3.05212,-3.31307 m -0.57793,-0.87872 c 1.21463,-1.10419 2.31821,-2.1831 3.33564,-3.24623 m -3.25071,-1.48163 c 2.28979,-3.14492 5.18607,-5.58945 8.25813,-7.79729 m 2.13746,3.43985 c 4.21361,-4.79734 9.79654,-10.32007 13.97294,-16.10092 2.0733,-2.86986 4.9519,-5.43922 8.2864,-8.02644 m -52.28807,50.77159 c 4.53468,-4.37748 11.41912,-11.42693 18.80058,-19.42964 5.3402,-5.78963 7.38482,-8.18791 8.6762,-10.6741 m -1.53962,2.37266 c 4.2848,-3.57845 8.18145,-7.15448 12.24568,-10.35446 m -3.50499,5.87665 c 3.13802,-2.94005 6.39042,-5.58102 10.01842,-8.15324 m 1.7264,-2.68744 c 0.1183,-0.11351 0.237,-0.22753 0.3563,-0.34212 m 0.016,0.0801 c 2.886,-2.85104 5.349,-5.1081 7.6321,-7.10621 m -50.99535,50.66027 c 6.05266,-4.15858 9.37728,-10.71791 12.61095,-17.36744 0,0 0,0 0,0 3.23519,-6.65263 10.25568,-10.46595 15.24444,-16.59982 2.23362,-2.74634 4.43058,-5.05382 6.54098,-7.24502 m -3.22128,8.61182 c 4.91596,-5.53122 10.68816,-11.62978 16.69066,-20.20145 0.4464,-0.63738 0.8786,-1.2255 1.2979,-1.76887 m -51.96943,53.43611 c 5.27337,-5.48285 9.52246,-9.91022 13.15111,-14.88121 3.63034,-4.9733 10.60937,-10.41469 16.36943,-16.45919 0,0 0,0 0,0 1.94896,-2.0452 3.8517,-3.76585 5.77887,-5.29124 m 0.14605,8.17842 c 5.54687,-4.52531 10.32897,-11.152 15.56477,-18.7263 0.8987,-1.30002 1.7774,-2.43867 2.6373,-3.45619 m -51.3597,53.37051 c 1.80539,-2.12548 3.59692,-4.32645 5.21515,-6.65727 m -0.39583,-5.04414 c 4.26762,-5.17076 9.21967,-9.56539 12.09783,-13.82695 0.15319,-0.22683 0.32266,-0.45864 0.50737,-0.69513 m 1.13036,5.7642 c 5.42205,-5.17168 10.15093,-10.55736 14.97903,-16.89726 4.58589,-6.02191 9.58389,-10.338 14.18429,-16.49051 m -50.12459,49.24695 c 4.29903,-4.14119 9.46404,-8.79375 12.9181,-11.55496 3.45568,-2.7625 10.35191,-11.68888 15.54913,-20.23263 5.19721,-8.54375 10.86066,-8.00714 17.11946,-9.19358 0,0 0,0 0,0 1.1642,-0.22069 2.2698,-0.70327 3.338,-1.37526 m -2.6153,-1.90388 c 2.4293,-1.72563 4.6251,-3.50893 6.6994,-5.13462 m -49.58625,50.55002 c 4.7748,-4.96793 9.79577,-9.38074 13.97213,-13.38192 1.76467,-1.69066 3.92709,-3.73843 6.26335,-5.9272 m -1.54344,2.3131 c 4.6118,-5.91119 10.54021,-9.52787 16.19891,-13.80248 5.627,-4.25065 9.8249,-10.02674 14.0652,-15.42289 m -19.77356,15.8203 2.88938,-2.76614 m 11.86918,-11.36292 2.8894,-2.76613 m -7.676,7.34853 2.8894,-2.76613 m -37.79137,36.17943 2.88937,-2.76613 m 14.66136,-14.03598 2.88937,-2.76614 m 11.07147,-10.59919 2.8893,-2.76613 m 0.3017,-0.2888 2.8894,-2.76613"
           id="path5691"
           inkscape:connector-curvature="0" />
      </g>
    </g>
  </g>
</svg>
