<?xml version="1.0" encoding="UTF-8" standalone="no"?>
<!-- Created with Inkscape (http://www.inkscape.org/) -->

<svg
   xmlns:dc="http://purl.org/dc/elements/1.1/"
   xmlns:cc="http://creativecommons.org/ns#"
   xmlns:rdf="http://www.w3.org/1999/02/22-rdf-syntax-ns#"
   xmlns:svg="http://www.w3.org/2000/svg"
   xmlns="http://www.w3.org/2000/svg"
   xmlns:sodipodi="http://sodipodi.sourceforge.net/DTD/sodipodi-0.dtd"
   xmlns:inkscape="http://www.inkscape.org/namespaces/inkscape"
   width="1200"
   height="1000"
   id="svg2"
   version="1.1"
   inkscape:version="0.48.4 r9939"
   sodipodi:docname="server-4.svg">
  <sodipodi:namedview
     id="base"
     pagecolor="#ffffff"
     bordercolor="#666666"
     borderopacity="1.0"
     inkscape:pageopacity="0.0"
     inkscape:pageshadow="2"
     inkscape:zoom="0.5"
     inkscape:cx="714.22852"
     inkscape:cy="477.10306"
     inkscape:document-units="px"
     inkscape:current-layer="layer1"
     showgrid="false"
     inkscape:window-width="1596"
     inkscape:window-height="864"
     inkscape:window-x="0"
     inkscape:window-y="16"
     inkscape:window-maximized="0"
     showguides="true"
     inkscape:guide-bbox="true" />
  <defs
     id="defs4">
    <inkscape:path-effect
       tgtlength_rdm="0.3;1"
       tgtlength="5"
       tgtscale="50"
       tgt_places_rdmness="1;1"
       nbtangents="5"
       tremble_frequency="2"
       tremble_size="3.5;1"
       parallel_offset="2;1"
       ends_tolerance="0.1;1"
       strokeoverlap_rdm="0.3;1"
       strokeoverlap="0.3"
       strokelength_rdm="0.3;1"
       strokelength="100"
       nbiter_approxstrokes="6"
       is_visible="true"
       id="path-effect7663"
       effect="sketch" />
    <inkscape:path-effect
       effect="sketch"
       id="path-effect6759"
       is_visible="true"
       nbiter_approxstrokes="50"
       strokelength="100"
       strokelength_rdm="0.3;1"
       strokeoverlap="0.3"
       strokeoverlap_rdm="0.3;1"
       ends_tolerance="0.1;1"
       parallel_offset="5;1"
       tremble_size="10;1"
       tremble_frequency="1"
       nbtangents="5"
       tgt_places_rdmness="1;1"
       tgtscale="10"
       tgtlength="0"
       tgtlength_rdm="0.3;1" />
    <inkscape:path-effect
       effect="sketch"
       id="path-effect6755"
       is_visible="true"
       nbiter_approxstrokes="25"
       strokelength="100"
       strokelength_rdm="0.3;1"
       strokeoverlap="0.3"
       strokeoverlap_rdm="0.3;1"
       ends_tolerance="0.1;1"
       parallel_offset="5;1"
       tremble_size="12;1"
       tremble_frequency="1"
       nbtangents="5"
       tgt_places_rdmness="1;1"
       tgtscale="10"
       tgtlength="100"
       tgtlength_rdm="0.3;1" />
    <inkscape:path-effect
       tgtlength_rdm="0.3;1"
       tgtlength="5"
       tgtscale="50"
       tgt_places_rdmness="1;1"
       nbtangents="5"
       tremble_frequency="2"
       tremble_size="3.5;1"
       parallel_offset="2;1"
       ends_tolerance="0.1;1"
       strokeoverlap_rdm="0.3;1"
       strokeoverlap="0.3"
       strokelength_rdm="0.3;1"
       strokelength="100"
       nbiter_approxstrokes="6"
       is_visible="true"
       id="path-effect6695"
       effect="sketch" />
    <inkscape:path-effect
       tgtlength_rdm="0;1"
       tgtlength="2"
       tgtscale="15"
       tgt_places_rdmness="1;1"
       nbtangents="7"
       tremble_frequency="3.5"
       tremble_size="2;1"
       parallel_offset="1;1"
       ends_tolerance="0;1673142386"
       strokeoverlap_rdm="0.3;1"
       strokeoverlap="0.1"
       strokelength_rdm="1;1"
       strokelength="75"
       nbiter_approxstrokes="7"
       is_visible="true"
       id="path-effect6642"
       effect="sketch" />
    <inkscape:path-effect
       effect="sketch"
       id="path-effect6640"
       is_visible="true"
       nbiter_approxstrokes="7"
       strokelength="75"
       strokelength_rdm="1;1"
       strokeoverlap="0.1"
       strokeoverlap_rdm="0.3;1"
       ends_tolerance="0;1673142386"
       parallel_offset="1;1"
       tremble_size="2;1"
       tremble_frequency="3.5"
       nbtangents="7"
       tgt_places_rdmness="1;1"
       tgtscale="15"
       tgtlength="2"
       tgtlength_rdm="0;1" />
    <inkscape:path-effect
       tgtlength_rdm="0;1"
       tgtlength="2"
       tgtscale="15"
       tgt_places_rdmness="1;1"
       nbtangents="7"
       tremble_frequency="3.5"
       tremble_size="4;1"
       parallel_offset="1;1"
       ends_tolerance="0;1673142386"
       strokeoverlap_rdm="0.3;1"
       strokeoverlap="0.1"
       strokelength_rdm="1;1"
       strokelength="75"
       nbiter_approxstrokes="15"
       is_visible="true"
       id="path-effect6638"
       effect="sketch" />
    <inkscape:path-effect
       effect="sketch"
       id="path-effect6630"
       is_visible="true"
       nbiter_approxstrokes="7"
       strokelength="75"
       strokelength_rdm="1;1"
       strokeoverlap="0.1"
       strokeoverlap_rdm="0.3;1"
       ends_tolerance="0;1673142386"
       parallel_offset="1;1"
       tremble_size="2;1"
       tremble_frequency="3.5"
       nbtangents="7"
       tgt_places_rdmness="1;1"
       tgtscale="15"
       tgtlength="2"
       tgtlength_rdm="0;1" />
    <inkscape:path-effect
       tgtlength_rdm="0;1"
       tgtlength="2"
       tgtscale="15"
       tgt_places_rdmness="1;1"
       nbtangents="7"
       tremble_frequency="3.5"
       tremble_size="2;1"
       parallel_offset="1;1"
       ends_tolerance="0;1673142386"
       strokeoverlap_rdm="0.3;1"
       strokeoverlap="0.1"
       strokelength_rdm="1;1"
       strokelength="75"
       nbiter_approxstrokes="7"
       is_visible="true"
       id="path-effect6626"
       effect="sketch" />
    <inkscape:path-effect
       tgtlength_rdm="0.3;1"
       tgtlength="100"
       tgtscale="15"
       tgt_places_rdmness="1;1"
       nbtangents="11"
       tremble_frequency="3"
       tremble_size="5;1"
       parallel_offset="1;1"
       ends_tolerance="0.3;1"
       strokeoverlap_rdm="0.3;1"
       strokeoverlap="0.3"
       strokelength_rdm="1;1"
       strokelength="109"
       nbiter_approxstrokes="6"
       is_visible="true"
       id="path-effect6622"
       effect="sketch" />
    <marker
       inkscape:stockid="TriangleOutL"
       orient="auto"
       refY="0"
       refX="0"
       id="TriangleOutL"
       style="overflow:visible">
      <path
         id="path3903"
         d="m 5.77,0 -8.65,5 0,-10 8.65,5 z"
         style="fill-rule:evenodd;stroke:#000000;stroke-width:1pt"
         transform="scale(0.8,0.8)"
         inkscape:connector-curvature="0" />
    </marker>
    <marker
       inkscape:stockid="Arrow1Lend"
       orient="auto"
       refY="0"
       refX="0"
       id="Arrow1Lend"
       style="overflow:visible">
      <path
         id="path3764"
         d="M 0,0 5,-5 -12.5,0 5,5 0,0 z"
         style="fill-rule:evenodd;stroke:#000000;stroke-width:1pt"
         transform="matrix(-0.8,0,0,-0.8,-10,0)"
         inkscape:connector-curvature="0" />
    </marker>
    <inkscape:path-effect
       effect="sketch"
       id="path-effect4374"
       is_visible="true"
       nbiter_approxstrokes="15"
       strokelength="75"
       strokelength_rdm="1;1"
       strokeoverlap="0.1"
       strokeoverlap_rdm="0.3;1"
       ends_tolerance="0;1673142386"
       parallel_offset="1;1"
       tremble_size="4;1"
       tremble_frequency="3.5"
       nbtangents="7"
       tgt_places_rdmness="1;1"
       tgtscale="15"
       tgtlength="2"
       tgtlength_rdm="0;1" />
    <inkscape:path-effect
       effect="sketch"
       id="path-effect4372"
       is_visible="true"
       nbiter_approxstrokes="6"
       strokelength="100"
       strokelength_rdm="0.3;1"
       strokeoverlap="0.3"
       strokeoverlap_rdm="0.3;1"
       ends_tolerance="0.1;1"
       parallel_offset="2;1"
       tremble_size="3.5;1"
       tremble_frequency="2"
       nbtangents="5"
       tgt_places_rdmness="1;1"
       tgtscale="50"
       tgtlength="5"
       tgtlength_rdm="0.3;1" />
    <marker
       inkscape:stockid="Arrow1Mend"
       orient="auto"
       refY="0"
       refX="0"
       id="Arrow1Mend"
       style="overflow:visible">
      <path
         id="path3770"
         d="M 0,0 5,-5 -12.5,0 5,5 0,0 z"
         style="fill-rule:evenodd;stroke:#000000;stroke-width:1pt"
         transform="matrix(-0.4,0,0,-0.4,-4,0)"
         inkscape:connector-curvature="0" />
    </marker>
    <marker
       inkscape:stockid="Arrow1MendU"
       orient="auto"
       refY="0"
       refX="0"
       id="Arrow1MendU"
       style="overflow:visible">
      <path
         id="path4214"
         d="M 0,0 5,-5 -12.5,0 5,5 0,0 z"
         style="fill:#373737;fill-rule:evenodd;stroke:#373737;stroke-width:1pt"
         transform="matrix(-0.4,0,0,-0.4,-4,0)"
         inkscape:connector-curvature="0" />
    </marker>
    <marker
       inkscape:stockid="Arrow1Mend8"
       orient="auto"
       refY="0"
       refX="0"
       id="Arrow1Mend8"
       style="overflow:visible">
      <path
         id="path4217"
         d="M 0,0 5,-5 -12.5,0 5,5 0,0 z"
         style="fill:#373737;fill-rule:evenodd;stroke:#373737;stroke-width:1pt"
         transform="matrix(-0.4,0,0,-0.4,-4,0)"
         inkscape:connector-curvature="0" />
    </marker>
    <marker
       inkscape:stockid="Arrow1MendO"
       orient="auto"
       refY="0"
       refX="0"
       id="Arrow1MendO"
       style="overflow:visible">
      <path
         id="path4220"
         d="M 0,0 5,-5 -12.5,0 5,5 0,0 z"
         style="fill:#373737;fill-rule:evenodd;stroke:#373737;stroke-width:1pt"
         transform="matrix(-0.4,0,0,-0.4,-4,0)"
         inkscape:connector-curvature="0" />
    </marker>
    <marker
       inkscape:stockid="Arrow1MendP"
       orient="auto"
       refY="0"
       refX="0"
       id="Arrow1MendP"
       style="overflow:visible">
      <path
         id="path4223"
         d="M 0,0 5,-5 -12.5,0 5,5 0,0 z"
         style="fill:#373737;fill-rule:evenodd;stroke:#373737;stroke-width:1pt"
         transform="matrix(-0.4,0,0,-0.4,-4,0)"
         inkscape:connector-curvature="0" />
    </marker>
    <marker
       inkscape:stockid="Arrow1Mendm"
       orient="auto"
       refY="0"
       refX="0"
       id="Arrow1Mendm"
       style="overflow:visible">
      <path
         id="path4226"
         d="M 0,0 5,-5 -12.5,0 5,5 0,0 z"
         style="fill:#373737;fill-rule:evenodd;stroke:#373737;stroke-width:1pt"
         transform="matrix(-0.4,0,0,-0.4,-4,0)"
         inkscape:connector-curvature="0" />
    </marker>
    <marker
       inkscape:stockid="Arrow1MendUk"
       orient="auto"
       refY="0"
       refX="0"
       id="Arrow1MendUk"
       style="overflow:visible">
      <path
         id="path4274"
         d="M 0,0 5,-5 -12.5,0 5,5 0,0 z"
         style="fill:#585858;fill-rule:evenodd;stroke:#585858;stroke-width:1pt"
         transform="matrix(-0.4,0,0,-0.4,-4,0)"
         inkscape:connector-curvature="0" />
    </marker>
    <marker
       inkscape:stockid="Arrow1Mend8H"
       orient="auto"
       refY="0"
       refX="0"
       id="Arrow1Mend8H"
       style="overflow:visible">
      <path
         id="path4277"
         d="M 0,0 5,-5 -12.5,0 5,5 0,0 z"
         style="fill:#585858;fill-rule:evenodd;stroke:#585858;stroke-width:1pt"
         transform="matrix(-0.4,0,0,-0.4,-4,0)"
         inkscape:connector-curvature="0" />
    </marker>
    <marker
       inkscape:stockid="Arrow1MendOg"
       orient="auto"
       refY="0"
       refX="0"
       id="Arrow1MendOg"
       style="overflow:visible">
      <path
         id="path4280"
         d="M 0,0 5,-5 -12.5,0 5,5 0,0 z"
         style="fill:#585858;fill-rule:evenodd;stroke:#585858;stroke-width:1pt"
         transform="matrix(-0.4,0,0,-0.4,-4,0)"
         inkscape:connector-curvature="0" />
    </marker>
    <marker
       inkscape:stockid="Arrow1MendP6"
       orient="auto"
       refY="0"
       refX="0"
       id="Arrow1MendP6"
       style="overflow:visible">
      <path
         id="path4283"
         d="M 0,0 5,-5 -12.5,0 5,5 0,0 z"
         style="fill:#585858;fill-rule:evenodd;stroke:#585858;stroke-width:1pt"
         transform="matrix(-0.4,0,0,-0.4,-4,0)"
         inkscape:connector-curvature="0" />
    </marker>
    <marker
       inkscape:stockid="Arrow1MendmO"
       orient="auto"
       refY="0"
       refX="0"
       id="Arrow1MendmO"
       style="overflow:visible">
      <path
         id="path4286"
         d="M 0,0 5,-5 -12.5,0 5,5 0,0 z"
         style="fill:#585858;fill-rule:evenodd;stroke:#585858;stroke-width:1pt"
         transform="matrix(-0.4,0,0,-0.4,-4,0)"
         inkscape:connector-curvature="0" />
    </marker>
  </defs>
  <metadata
     id="metadata7">
    <rdf:RDF>
      <cc:Work
         rdf:about="">
        <dc:format>image/svg+xml</dc:format>
        <dc:type
           rdf:resource="http://purl.org/dc/dcmitype/StillImage" />
        <dc:title></dc:title>
      </cc:Work>
    </rdf:RDF>
  </metadata>
  <g
     inkscape:label="Layer 1"
     inkscape:groupmode="layer"
     id="layer1"
     transform="translate(0,-52.36218)">
    <path
       style="fill:none;stroke:#2a2a2a;stroke-width:1;stroke-linecap:butt;stroke-miterlimit:4;stroke-opacity:1;stroke-dasharray:none;stroke-dashoffset:0"
       d="m 203.33599,82.296602 c 17.69196,-0.711231 32.99652,0.1493 48.97719,0.188639 9.73089,0.02396 19.75282,-0.146003 29.60762,-0.528578 M 264.40119,78.4114 c 17.55508,-0.447275 32.2449,-0.107792 46.78978,-0.522458 6.33347,-0.180563 13.50888,-0.364477 21.00522,-0.668331 m -14.26641,1.93433 c 17.72869,0.855077 33.74861,0.564843 51.3014,1.472855 8.63078,0.446474 16.68824,0.365685 24.49285,0.05848 m -12.32591,-2.406686 c 15.61551,0.992127 31.96983,1.736594 45.94329,4.972773 12.60327,2.918848 30.63189,-0.77391 48.17417,-4.104556 m -35.07726,-2.739849 c 15.98074,0.08081 34.51815,-0.190051 53.54463,-0.796212 13.2358,-0.421677 24.29323,0.120059 35.55249,0.943454 m -23.46503,4.953077 c 17.33768,-0.438023 35.07575,0.259111 55.21179,0.543943 10.70344,0.151404 19.3459,-0.07929 27.49727,-0.601566 m -20.8309,-2.18717 c 16.19914,1.146657 34.1782,1.076323 52.50544,3.058618 9.05456,0.97935 17.22062,1.196375 25.0944,1.340309 m -17.45132,-2.196059 c 17.70987,0.981991 32.22913,-0.842068 46.65297,-2.765503 5.8412,-0.778931 12.4039,-1.016125 19.23956,-1.110158 M 675.59865,75.09164 c 17.54677,0.291274 34.20723,2.406469 52.64135,7.023975 15.54618,3.894116 28.90388,-0.157979 43.27587,-4.002352 m -26.08013,4.519893 c 16.22639,0.572497 34.01199,-0.210128 52.04058,-0.82385 14.78155,-0.503188 27.11379,-0.108883 39.27219,0.06372 M 810.3237,78.836382 c 16.27201,0.727722 34.26044,0.869164 52.80617,2.375275 11.94491,0.970055 22.52329,0.922883 33.23907,1.00298 m -19.83366,-4.474464 c 16.18945,0.918737 32.71653,0.368177 48.15779,0.871254 12.37063,0.403037 26.57801,1.063431 40.75312,2.650978 m -28.70101,1.631797 c 16.7912,0.281014 34.69071,-0.47976 54.11836,-1.643989 13.05946,-0.782605 23.03256,-0.278258 32.42866,0.39279 m -19.2187,-1.123377 c 16.2987,0.200057 32.6925,2 48.0757,5.793561 7.2394,1.785275 15.0035,1.744656 22.8919,1.038741 m -16.3577,-9.793063 c 15.9896,-1.075236 33.9432,0.68498 51.8766,1.802138 4.3668,0.272025 8.5241,0.494898 12.5269,0.7141 0.01,5.899144 -0.2823,11.791244 -0.722,17.79718 m -4.138,-18.810874 c 0.652,-0.01263 1.3028,-0.02104 1.9526,-0.0253 0.8883,15.858692 1.0734,34.457789 2.5419,54.707839 1.2722,17.54514 1.1729,28.95276 1.9201,41.8356 m -0.099,-32.94462 c 0.9279,17.66382 0.2354,35.04519 -0.058,55.1793 -0.2778,19.0566 0.8132,31.45984 1.9151,46.04022 m -1.6139,-26.69433 c -0.4195,17.25334 0.7949,33.1879 1.638,49.60143 0.8099,15.76599 0.8131,31.81908 1.6162,47.53106 m 2.7634,-28.4879 c -0.6201,17.10759 -0.028,33.059 -0.8228,49.16401 -0.5121,10.37289 -0.6754,21.35718 -1.3233,32.50241 m -2.927,-20.77715 c 0.072,17.3898 -0.5184,32.90391 -2.2724,48.75368 -1.4094,12.73507 0.053,27.02291 1.2709,41.60318 m 2.5782,-23.50996 c -0.041,13.34838 0.6906,25.66964 1.8059,38.2916 -3.7932,7.6e-4 -7.5457,0.0335 -11.271,0.14414 -13.4899,0.40073 -29.1536,-0.71718 -43.8025,-2.25391 m 28.4417,2.55645 c -17.5649,-0.0629 -34.0961,-0.65449 -52.3132,-1.74677 -17.4984,-1.04919 -33.1463,0.64755 -51.05157,2.36137 m 29.82687,-6.59664 c -17.0365,-0.32668 -33.24772,0.12885 -49.77057,0.63229 -14.78648,0.45054 -28.5705,0.0325 -41.07364,-0.022 m 23.87046,3.78451 c -15.71692,-0.96401 -35.0802,0.26219 -55.24011,0.98815 -19.93168,0.71774 -32.30792,-0.10956 -47.28729,-0.15945 m 28.06697,-7.0788 c -17.65565,-1.15534 -33.27382,-0.0252 -49.79753,0.16795 -13.12163,0.1534 -25.42616,0.53415 -36.71545,1.54388 m 20.58779,0.64248 c -15.56998,-0.81795 -31.97487,1.21202 -45.97066,3.83181 -5.96313,1.1162 -12.81563,1.28601 -19.93817,1.13049 m 11.9129,-5.10957 c -16.66274,0.16541 -32.22394,1.12336 -46.70828,3.61247 -10.85702,1.86576 -24.62864,1.13864 -38.54961,1.04676 m 24.32745,-2.24571 c -17.3013,0.55633 -35.16701,-0.41189 -55.48525,-0.98151 -10.13346,-0.2841 -18.16561,-0.0679 -25.45292,0.46846 m 24.92721,2.12943 c -16.95454,-0.11735 -33.30946,-0.13129 -49.93467,-0.21548 -11.33151,-0.0574 -22.92796,-0.51759 -34.74238,-1.40201 m 18.29569,-2.75574 c -15.99831,-1.21927 -32.9176,-0.50135 -48.73212,-1.28123 -15.56133,-0.76739 -32.58425,-0.0211 -48.65903,0.18488 m 26.31524,6.60964 c -16.75385,0.68362 -32.3719,-0.88239 -47.14573,-2.45815 -9.48088,-1.01123 -20.7274,-0.94163 -32.24282,-0.98302 m 22.6622,-1.3462 c -16.65444,-1.21018 -34.24829,-0.53167 -52.7786,-1.36327 -12.19562,-0.5473 -22.20728,-0.43795 -31.63597,-0.31091 m 23.34802,0.0235 c -16.67311,-0.26315 -35.38628,-0.38557 -56.16922,-0.95368 -17.28343,-0.47245 -27.45656,0.6505 -37.64471,2.52424 m 24.41063,-2.8407 c -17.18213,0.63839 -33.17588,-0.144 -49.52438,-0.1886 -14.4005,-0.0393 -29.55715,-0.0205 -44.8455,0.10858 m 27.36879,2.01547 c -16.34435,0.46491 -32.97785,-1.32153 -48.97801,-3.71584 -2.01492,-0.30152 -4.0717,-0.52871 -6.1663,-0.69541 -0.13853,-11.54945 -1.26851,-21.5134 -2.84822,-31.74883 m -1.62444,32.13819 c -1.13773,-16.48886 -1.18188,-34.14075 -2.81292,-52.44564 -1.38316,-15.52301 -0.0686,-28.51219 1.41637,-41.99045 m 2.02031,22.28121 c -0.17251,-16.862 -1.1066,-33.71596 -2.59474,-51.1329 -0.64102,-7.50244 -0.88588,-14.64896 -1.0293,-21.62224 m -0.40182,22.12427 c -0.70044,-15.83341 -0.63273,-34.51984 -1.14521,-53.53978 -0.49706,-18.44791 0.74199,-31.79084 3.01366,-46.45702 m 4.67376,26.87379 c -0.19131,-17.09812 -2.57708,-32.13287 -6.99707,-46.4023 -4.05911,-13.10436 -0.91703,-30.26367 -0.28956,-45.92796 m 4.00773,21.95868 c -1.32899,-16.68916 -1.3239,-34.11444 -3.19561,-52.33614 -0.86768,-8.44711 -1.2525,-15.88046 -1.6421,-22.76167 m 2.40106,23.42076 c 0.26578,-13.85758 -0.31269,-28.301628 -0.76141,-43.317089 2.74756,-0.220021 5.50039,-0.46329 8.26649,-0.729685 12.81617,-1.234282 26.00042,-0.755258 39.30016,-0.887864 m -34.94549,-1.427758 c 15.53346,0.535917 31.71557,-0.60536 45.17772,-2.026954 11.95273,-1.2622 28.97354,-0.05066 44.3419,0.506638 m -25.95886,5.24559 c 15.63449,0.554631 33.89703,0.65504 51.74015,1.773816 9.10818,0.571088 17.32298,0.238559 25.11632,-0.580529 m -14.61739,-0.684402 c 15.90737,-0.629161 33.18754,0.451335 49.57984,1.172965 8.71342,0.383587 17.42458,0.427168 26.00873,0.421211 M 391.44005,82.53634 c 17.43662,-0.911402 32.02509,0.52206 46.1336,1.364541 6.27576,0.374752 13.6544,0.403853 21.45899,0.287343 m -10.42347,-3.798268 c 16.371,-0.356377 31.32576,-0.500995 43.97408,-1.725636 9.77729,-0.946662 24.32997,-0.310227 38.09675,0.122995 m -18.54919,1.520264 c 15.91606,0.308408 32.16016,-0.284624 46.46264,-1.09713 13.90586,-0.789974 32.8063,0.04372 50.22485,0.07793 m -26.21694,-1.954648 c 16.86327,0.737277 32.75189,1.996002 48.26676,5.793238 12.79331,3.131138 27.45801,0.716521 42.06243,-0.986461 m -25.59323,-0.388075 c 16.14368,1.182643 32.09423,-0.011 46.32579,-0.249998 14.17052,-0.237976 34.65045,-0.628265 54.21933,-2.061869 m -35.3818,1.827258 c 16.26276,-0.192012 33.87251,0.666474 51.65775,1.801609 15.58264,0.994555 29.66622,-0.665138 44.53362,-2.83193 m -24.80312,-1.069254 c 17.41879,0.609051 32.96965,0.121698 48.95002,0.160502 13.85146,0.03363 28.37401,0.250546 42.23097,0.576883 M 855.79675,79.43834 c 16.3804,0.517954 32.05598,0.01543 46.21627,-0.194912 9.88383,-0.146821 22.7793,-0.0839 36.14181,-0.111273 m -20.80591,0.69978 c 16.48059,0.09881 32.13525,-0.727315 46.38027,-2.38216 9.84278,-1.143437 21.69003,-0.583585 33.1487,-0.01611 m -19.65316,7.850609 c 17.30954,1.164135 33.00867,-0.756259 49.05947,-2.464831 9.1339,-0.972287 18.8141,-0.430029 28.6984,0.644992 m -17.8443,-3.196214 c 17.8191,-0.829176 32.2688,1.21674 46.7896,3.415272 10.2324,1.549249 23.1753,0.94576 36.591,0.412329 0.652,3.939835 1.3629,7.888406 2.0343,11.943596 m -14.3663,-15.148176 c 5.4373,0.344383 10.8431,0.557985 16.2322,0.741856 0.1636,11.607849 0.2543,23.085656 0.4083,35.357806 0.1413,11.25838 0.021,21.38109 -0.364,31.43533 m -1.9416,-20.64476 c 0.7282,16.22425 1.8166,32.76399 4.7546,48.31689 1.8647,9.87145 0.9885,20.49971 -0.5584,31.02856 m 0.4492,-18.96799 c 0.3631,16.2608 -0.5236,33.10469 -2.2999,49.35592 -1.0275,9.40038 -0.2599,19.06986 1.1337,28.7744 m -1.4564,-19.61975 c -0.8837,16.86183 1.14,33.27562 2.7047,49.84775 1.2352,13.08238 0.9124,26.03696 0.9755,38.72015 m -1.8537,-23.00221 c -0.037,17.24481 0.8815,34.65915 1.9112,54.00377 0.7815,14.68151 0.9621,25.72881 1.5621,36.64306 m -5.2241,-24.04843 c 0.2365,16.44286 1.7571,32.95491 4.5635,48.86363 1.1698,6.63162 1.2468,13.39054 0.7896,20.11089 -8.734,-0.29678 -18.1914,-0.64579 -27.492,-1.30844 m 24.8845,3.01124 c -0,0.89959 -0,1.8082 -0,2.72525 -15.9549,-0.71627 -31.7833,0.84394 -48.1663,2.15671 -9.1574,0.73379 -17.6371,0.5529 -25.7516,0.0966 m 22.4152,-8.76433 c -16.2811,-1.14605 -34.0886,0.42003 -52.232,1.4531 -8.4108,0.47891 -16.0606,0.56342 -23.3939,0.58073 m 19.0715,-0.28392 c -17.2006,-1.14631 -33.95159,-0.20855 -51.87592,-0.40627 -14.90615,-0.16443 -27.55239,1.26119 -40.09613,4.04842 m 21.5689,-0.97427 c -17.4826,0.62921 -33.15882,-0.35071 -49.5242,-0.81749 -7.43311,-0.21201 -15.09064,-0.36176 -22.88624,-0.5588 m 15.64405,-2.24041 c -16.89984,-0.30772 -33.11555,2.01216 -49.38783,6.21041 -8.76407,2.26113 -17.68191,1.72359 -26.56444,0.38702 m 18.47028,-4.8842 c -15.8798,-1.04578 -32.55366,0.72014 -47.69313,2.32804 -6.59238,0.70015 -13.76983,0.51252 -21.159,-0.14871 m 12.95143,-1.08615 c -17.74698,-1.03671 -33.95636,0.60661 -51.8756,2.0546 -10.53325,0.85116 -20.62779,0.0855 -31.04691,-1.37667 m 23.0162,1.61718 c -16.82736,0.83786 -34.03974,-2.26202 -52.14959,-6.55981 -9.79622,-2.32482 -18.8599,-1.97996 -27.87456,-0.97528 m 14.91566,5.94687 c -17.36367,-0.56329 -31.76554,0.45586 -45.28599,1.61681 -12.86026,1.10426 -31.1603,-0.21222 -46.80895,-0.76543 m 27.19638,-2.76996 c -16.38068,-0.61826 -32.73188,-0.37869 -48.23971,-0.92613 -10.49722,-0.37056 -22.80725,0.0317 -35.86667,0.7581 m 23.80871,2.37844 c -17.71979,0.13713 -34.27302,-1.2842 -52.83265,-3.63361 -8.60376,-1.08912 -16.53986,-1.09719 -24.37154,-0.70809 m 16.53715,4.77135 c -17.63802,0.21951 -34.71597,-0.19532 -54.1452,-0.4071 -12.37732,-0.13491 -21.81155,-0.41211 -30.43939,-0.93165 m 21.89986,-0.72786 c -16.49905,0.82049 -32.76874,-0.16616 -48.32166,-0.27074 -12.75177,-0.0857 -27.7366,-0.013 -43.12046,0.18383 m 25.39755,-6.65976 c -17.1544,-0.11706 -32.15483,0.61254 -46.48924,2.0267 -12.42478,1.22577 -28.54748,-0.25011 -43.81803,-1.51594 m 24.38317,3.65725 c -17.1373,0.97493 -34.91738,-1.03546 -54.74707,-2.89583 -8.40227,-0.78828 -15.45094,-0.90873 -21.86535,-0.77298 m 16.29717,4.62541 c -5.82136,-0.38801 -11.39548,-0.42347 -16.83635,-0.22454 -0.1076,-10.73786 0.34309,-20.49362 0.37424,-30.28095 0.0195,-6.13892 0.16835,-13.22699 0.51411,-20.79589 m 4.44904,11.53382 c -1.20174,-17.61755 -1.88724,-33.18682 -4.89099,-49.6012 -1.37134,-7.49384 -1.54071,-15.3629 -1.29401,-23.53316 m 6.47804,16.19834 c 0.81059,-16.78944 -1.84989,-34.41894 -4.78283,-53.23842 -1.82717,-11.72417 -0.892,-21.6114 0.8547,-31.23219 m 2.16182,24.59148 c 0.65599,-17.72735 -1.34792,-34.50422 -3.27884,-53.53864 -1.90905,-18.81893 -1.25092,-33.08538 -2.91841,-49.66029 m 0.0452,34.74006 c -0.80899,-15.5515 1.1433,-35.41696 4.18689,-56.21963 1.53936,-10.52136 1.37717,-18.81959 0.78693,-26.50496 m -3.58913,20.03712 c -1.30985,-16.61577 1.00417,-32.73839 3.77704,-48.26196 1.12292,-6.28656 1.07941,-13.11886 0.46923,-20.267555 m -6.64741,17.381305 c -0.5026,-8.63263 -0.69728,-18.227689 -0.89829,-28.530776 7.66724,-1.149862 15.32973,-2.829208 22.78425,-4.873518 7.15036,-1.960901 14.65912,-2.114405 22.37419,-1.643756 m -31.66182,8.181997 c 16.70862,0.199112 33.11989,-0.359938 49.3606,-1.288471 9.96537,-0.569751 20.58008,-0.708468 31.54151,-1.10984 m -22.07972,-3.685698 c 15.51589,0.281671 33.3183,1.161877 49.96288,3.277887 8.3403,1.060293 16.59315,1.221198 24.75259,1.259177 M 324.8664,77.362774 c 15.82475,0.135741 31.52292,0.556961 44.60331,1.473287 5.63445,0.394711 12.56026,0.422921 19.92185,0.285848 m -10.35255,1.275673 c 16.51791,-0.438871 34.37634,-1.86073 53.1615,-5.772463 9.23675,-1.923417 16.96878,-1.965593 23.95057,-1.545846 m -20.03322,8.583818 c 16.28991,0.09869 33.45395,-1.030025 50.34523,-3.339191 7.86996,-1.075883 15.86869,-0.73991 24.06214,0.284961 m -17.80319,-0.152485 c 16.77278,-7.96e-4 34.1588,0.668293 52.47775,1.801494 14.41841,0.891915 25.52209,-0.02993 35.7173,-1.208132 m -22.22444,0.189157 c 16.58151,1.000975 34.02033,1.09286 52.04037,3.031361 7.46652,0.803208 14.3341,0.918697 20.89242,0.744637 m -15.65207,-4.657772 c 17.71946,-0.391711 33.46109,2.22151 50.37171,6.422822 12.63603,3.139323 24.98356,1.342194 37.3454,-0.223853 m -26.69483,-5.154813 c 16.92694,0.69095 32.57907,-0.0052 47.71985,-0.195015 8.22564,-0.103144 17.89144,0.193005 28.26785,0.762386 m -13.8086,-2.175384 c 17.14602,0.108217 33.96595,0.03913 51.90331,-0.08529 14.53855,-0.100841 27.39311,0.552506 40.60849,1.647638 m -27.87667,4.065597 c 16.80947,0.02627 34.83635,0.03738 54.50116,-0.112585 9.2544,-0.07057 17.24989,-0.04972 24.92215,-0.0057 m -18.37646,-1.080103 c 15.65194,-0.174267 32.01495,-0.496536 46.0253,-1.698403 12.96496,-1.112189 30.08368,0.394248 45.07001,1.468894 m -23.44653,-2.830503 c 15.98902,0.37244 32.43635,0.448782 47.3376,1.090332 8.82908,0.380122 19.20112,0.79467 30.01309,1.600155 m -16.66058,2.57098 c 16.82668,0.754822 32.44038,0.327755 47.33708,0.761978 14.4836,0.422181 31.8134,-0.555534 47.1012,-1.959308 m -31.441,3.163691 c 16.7731,-0.802554 34.9877,-0.522049 54.966,-1.780056 4.9048,-0.308845 9.3151,-0.417264 13.3781,-0.384315 0.03,3.803809 -0.2385,7.728955 -0.6881,11.728477 m -5.0202,-15.706752 c 1.5372,0.02936 3.0823,0.06222 4.6327,0.09924 -0.5288,15.306103 -0.6158,30.964051 -2.4095,47.472511 -1.9612,18.05046 2.314,34.07312 6.388,52.78586 m -0.687,-35.10002 c 1.328,16.27872 -1.147,32.37696 -4.2146,47.11373 -1.9757,9.49164 -0.6024,20.69249 1.458,32.06186 m 1.0608,-14.89515 c -0.5925,17.47171 0.789,32.79166 1.6382,48.42551 0.6325,11.64535 0.2525,24.90675 -0.4058,38.49768 m -2.2803,-24.28736 c 0.9285,16.57939 1.6958,32.85376 4.317,48.59011 2.0261,12.16437 1.4055,25.80798 1.4128,39.66624 m -4.4327,-25.31543 c 1.2018,16.01517 1.9353,33.64921 5.1098,50.94201 1.2781,6.9625 1.5625,13.84339 1.4281,20.76749 m -5.0016,-10.00753 c -0.1642,16.33299 1.5658,31.45635 3.9895,44.40667 0.3155,1.68598 0.5612,3.51793 0.7515,5.4713 -11.5589,-1.29399 -24.9469,1.42364 -37.4123,3.49269 m 24.0107,-1.98402 c -16.5449,0.31988 -33.6682,0.30378 -51.056,1.1241 -10.8323,0.51104 -20.8249,0.50481 -30.5127,0.61815 m 18.0124,1.05207 c -16.189,0.92912 -31.7098,-1.77043 -45.1226,-5.0833 -12.47491,-3.08121 -31.54049,-0.91955 -49.35737,-1.35465 m 31.30973,1.87565 c -17.75585,-0.94569 -33.36125,0.54342 -50.1256,1.80845 -15.78857,1.19139 -32.02771,-0.77599 -48.97179,-2.56522 m 26.69089,0.72207 c -16.58084,-0.6086 -32.35355,0.99889 -47.03646,3.20278 -5.98054,0.89767 -12.76753,0.72955 -19.96169,-0.0457 m 10.8823,-4.59577 c -15.83405,-0.94573 -31.99696,0.43565 -45.99785,1.53501 -12.23415,0.96064 -28.26907,1.02506 -42.77712,2.5144 m 20.6876,0.48083 c -17.65511,-0.48138 -31.90774,0.36712 -45.72331,1.28864 -11.23017,0.74907 -26.9398,-0.064 -42.52591,-0.83226 m 25.39364,-3.3973 c -15.61615,-0.80906 -33.57064,0.64279 -50.75579,2.16384 -7.80545,0.69086 -15.52793,0.87883 -23.31816,1.0114 m 19.65011,-1.76717 c -17.03673,0.48399 -33.89228,0.83137 -51.68463,2.73728 -10.16669,1.08906 -19.777,0.70302 -29.45865,-0.0475 m 17.84374,-3.76522 c -17.22782,0.1646 -33.55784,-0.90041 -50.70014,-2.51253 -11.96525,-1.12526 -23.41309,-0.79242 -34.84523,-0.567 m 19.33703,5.15104 c -17.19057,1.02055 -31.51154,-0.82178 -44.57515,-2.21227 -8.68961,-0.92491 -20.85481,-0.49475 -33.32541,0.13681 m 13.96311,-1.50296 c -15.95276,0.0647 -32.84952,-0.29359 -48.5134,-0.70778 -8.50984,-0.22502 -17.42232,-0.25913 -26.2595,-0.27071 m 17.37049,0.60189 c -17.27302,0.2471 -32.74991,0.47077 -48.29386,1.61633 -13.43674,0.99026 -28.26297,0.26129 -42.32033,0.19494 m 25.60548,1.81647 c -16.42667,-1.02844 -33.90492,-1.46977 -51.71234,-4.17978 -16.56221,-2.5205 -31.71893,-0.19368 -48.25729,0.6366 m 27.94823,1.75975 c -17.29118,-0.36307 -32.62292,0.23622 -47.85635,0.9331 -12.71084,0.58148 -27.14236,-0.83818 -40.79634,-2.93947 0.007,-2.49995 0.0333,-5.01665 0.0883,-7.54503 m 18.58611,8.30335 c -7.67532,-0.25251 -14.98691,-0.12351 -22.06191,0.25566 0.35242,-8.68481 1.06295,-16.99096 1.89484,-25.16302 0.82991,-8.15258 0.78999,-17.70936 0.75859,-27.74474 m -3.29248,12.1173 c 0.16488,-17.48996 0.10751,-32.89401 1.04177,-48.69894 0.83828,-14.18104 -0.0974,-29.64917 -0.25208,-44.53948 m -0.89798,29.9198 c -1.11008,-16.6069 -0.38314,-33.32647 -0.37934,-50.01197 0.003,-14.03239 -0.26332,-27.55606 -0.33562,-40.60865 m 3.3365,28.32618 c -1.20123,-16.54377 -0.60666,-34.856 -1.09022,-54.57841 -0.3874,-15.80044 -0.52594,-27.91367 -0.7724,-41.07024 m 0.58759,25.59076 c -0.80933,-15.52359 0.30264,-33.91229 1.67126,-51.76262 0.97775,-12.75238 -0.22655,-24.04368 -1.85751,-35.16678 m 2.47219,20.9085 c -1.13794,-16.13288 -1.70827,-31.98153 -4.4262,-45.992726 -0.93271,-4.80823 -1.16561,-10.263237 -0.99896,-16.042581 3.27677,-0.02028 6.67395,-0.138302 10.14186,-0.30072 m -4.84849,-4.997812 c 16.30743,0.682638 31.73476,1.978804 45.25928,5.683896 8.10847,2.221346 18.56262,1.705781 29.33757,0.809092 m -20.30255,-2.207463 c 15.58019,0.782232 34.71768,0.560908 54.17378,1.445555 15.81514,0.719097 27.29399,0.05904 38.93998,-0.660673 m -19.96383,-5.126287 c 15.83464,-0.683978 33.47907,-0.009 50.42754,-0.248878 8.96933,-0.12696 17.18549,0.03457 24.78159,0.351531 m -20.72129,1.249981 c 16.69081,0.973722 34.10731,1.25162 52.36843,3.523565 10.64859,1.324837 19.89462,0.604153 28.68293,-0.851695 m -22.17042,0.228349 c 15.5887,-0.0012 33.25097,-0.414211 49.71674,-1.425068 7.9033,-0.485195 15.96094,-0.573165 24.10684,-0.618777 m -14.87323,1.354688 c 17.01853,0.299857 33.90569,1.101897 51.73933,3.113813 10.39931,1.173207 19.65755,0.345771 28.4622,-1.328828 m -21.33516,-6.630378 c 17.67393,0.12677 33.4217,0.895748 50.28971,2.512354 7.14735,0.684992 14.24581,0.885391 21.3399,0.954052 m -9.43233,0.07611 c 16.96305,0.828003 31.79803,1.173812 45.36826,3.304902 7.81776,1.227713 18.23292,0.676479 29.4712,-0.47631 m -22.94382,-2.823194 c 16.65444,0.700037 34.24606,-0.05381 52.75126,-0.331739 8.70866,-0.130794 16.68522,-0.16539 24.50413,-0.215702 m -17.98484,1.926311 c 17.24576,-0.929427 32.90719,0.988854 48.75872,2.731738 13.03375,1.433069 28.08785,0.693114 43.82658,0.581489 m -27.84769,-1.53516 c 16.61774,-0.11905 33.55643,0.963207 50.7005,2.703909 13.97596,1.419031 26.93516,-0.01087 39.66455,-1.559841 M 868.1246,78.362751 c 16.47178,1.19231 32.88426,1.392303 48.70449,3.93359 7.63053,1.225734 15.32721,1.02548 22.80577,0.232629 m -14.558,0.843707 c 16.71787,0.800191 33.47105,-0.06944 50.39966,-0.441175 10.62557,-0.233325 21.17113,-0.07929 31.83378,0.129352 M 983.921,82.325109 c 15.93477,0.426555 33.4172,-0.848474 50.2634,-2.765169 11.4821,-1.306393 22.3317,-0.912906 32.725,-0.709361 m -16.4305,7.859122 c 16.1715,0.927585 33.5803,-0.272444 50.7554,-1.070158 8.4451,-0.392239 16.5108,-0.514132 24.376,-0.678556 -0.1129,4.344092 -0.285,8.67562 -0.4876,12.944355 m -14.1674,-15.030341 c 3.1871,0.01937 6.4566,-0.03036 9.7974,-0.148593 0.4513,12.843001 2.0922,24.544362 4.1836,35.145842 1.4511,7.35593 1.5318,16.81903 1.4741,26.59859 m -4.7219,-14.78742 c 1.0738,17.39913 0.6885,33.4739 1.3637,50.47634 0.3495,8.79861 0.3066,17.35084 0.044,25.80276 m 3.8874,-15.42931 c 0.6366,15.6782 0.1928,33.48749 -0.1399,50.47737 -0.3086,15.762 1.4097,31.26092 3.7785,47.2936 m -5.8963,-26.68809 c 0.8644,17.31703 0.8173,33.07236 1.7466,49.19123 0.4025,6.98107 0.4586,14.2804 0.3338,21.76549 m -0.582,-16.75478 c -0.438,16.8068 0.021,32.26591 -0.6588,46.78529 -0.5258,11.22364 1.166,25.74219 3.8031,40.57487 m -3.8668,-25.11762 c -0.2286,17.62645 -0.04,32.67655 -0.823,48.06995 -0.3108,6.11013 -0.2532,12.77343 -0.022,19.75372 -9.8484,0.51412 -19.2951,1.76044 -29.0232,2.90988 -0,3.9e-4 -0.01,7.7e-4 -0.01,0.001 m 33.5819,2.70579 c -15.8528,-0.87349 -33.5056,-1.06759 -50.5642,-2.94941 -11.387,-1.25615 -23.0421,-0.73092 -35.3275,-0.0351 m 21.9571,0.74999 c -16.3813,-1.21027 -34.3152,-0.77989 -52.9702,-2.10155 -13.41464,-0.95039 -23.94286,-0.52413 -33.79071,-0.12406 m 19.2607,1.38903 c -16.89943,0.26492 -32.08085,-0.49562 -46.21596,-1.28212 -9.13726,-0.50842 -20.70791,-0.36138 -32.66175,-0.14011 m 24.8888,0.70941 c -15.51595,-0.22666 -33.46608,-0.20188 -50.42773,-0.40683 -10.9644,-0.13248 -22.13079,0.19844 -33.74417,0.89597 m 17.86138,0.50138 c -16.29869,-0.34541 -32.64318,-1.1716 -47.93898,-3.27784 -14.79992,-2.03796 -32.54068,1.30065 -49.49119,4.46873 m 29.27917,3.30371 c -15.57119,0.55627 -34.99371,-0.57921 -54.96676,-1.50104 -17.54633,-0.80984 -29.91143,-0.0276 -43.83292,0.62095 m 26.86385,-2.29357 c -17.2001,0.45629 -32.56335,-0.10639 -47.71968,-0.10646 -11.68048,-5e-5 -25.08112,-1.35536 -38.14392,-3.98366 m 23.47857,6.2006 c -17.30057,0.65605 -33.34116,-1.50383 -50.0165,-4.29017 -16.40838,-2.74173 -32.40597,-0.25513 -48.05087,-0.2936 m 28.22256,3.5211 c -16.99022,-0.32715 -31.44182,-1.06201 -44.38387,-3.00442 -6.42434,-0.9642 -14.83148,-1.17579 -23.85142,-1.32658 m 12.32005,-2.0788 c -16.79038,0.45696 -32.6378,1.56593 -47.93868,4.92479 -11.93534,2.62006 -25.65103,-0.10159 -39.20601,-3.28691 m 24.18142,-0.42008 c -16.4356,-1.19166 -33.47388,0.25365 -50.42717,0.96094 -14.13838,0.58985 -28.50384,0.14047 -43.60877,-0.009 m 26.12271,1.46061 c -17.1556,-0.89177 -35.15193,-1.24144 -55.43064,-3.52361 -12.63325,-1.42176 -22.50282,-1.29174 -32.23066,-1.21747 m 22.85069,5.1292 c -17.47376,-0.20822 -33.79918,0.36603 -51.43827,1.28847 -14.00735,0.73252 -26.81405,-0.40435 -39.89645,-1.92909 m 29.19385,3.04502 c -16.77231,-1.00093 -32.99911,-0.97099 -49.03243,-2.73058 -12.60422,-1.38326 -26.24394,-0.71011 -40.01914,-0.4369 -0.13055,-1.91919 -0.26415,-3.84742 -0.39777,-5.79303 m 19.55876,5.58995 c -6.80641,0.10889 -13.98335,0.0294 -21.37382,-0.16014 -0.54195,-9.78362 -1.4726,-19.76773 -2.40638,-29.76023 -1.08531,-11.61401 -0.74943,-22.85852 -0.23233,-34.40102 m 4.46177,20.74664 c -0.92837,-16.51585 -1.37484,-33.31771 -3.35991,-49.95734 -1.5624,-13.09666 -0.71749,-26.78298 -0.005,-41.0447 m -1.34306,26.18242 c -0.28088,-16.33344 1.13149,-32.57444 4.10454,-47.7426 1.84519,-9.41392 0.71571,-20.07846 -1.0727,-30.93213 m -1.05484,16.81286 c -0.0358,-17.17123 -0.89585,-32.79445 -1.99326,-48.42569 -0.46757,-6.65995 -0.58809,-13.72811 -0.55665,-20.96828 m -2.6294,17.14343 c 0.81143,-15.65126 0.28703,-34.41884 1.6156,-53.29379 1.02388,-14.5463 -0.29059,-25.74423 -1.78648,-36.64441 m 0.48321,19.3208 c -0.73714,-16.61544 -1.32582,-31.89431 -3.25065,-45.69165 -1.11982,-8.02694 -0.68877,-18.168926 0.29983,-28.733235 4.7362,-0.362814 9.57913,-0.806467 14.44559,-1.1892 m -4.41928,-0.857849 c 16.62645,0.426879 32.56181,-0.03602 47.66534,-0.35892 10.36517,-0.221594 21.90514,-0.590811 33.12161,-1.489935 m -16.97623,2.112601 c 17.10876,0.509041 31.86171,0.496571 45.61427,1.281656 8.72878,0.498296 20.40087,0.03283 32.77668,-0.856189 m -14.62518,0.03513 c 16.15275,-0.574969 32.00962,-0.651233 46.05235,-2.163005 7.59617,-0.817768 16.93982,-0.720217 26.79421,-0.458062 m -19.45259,3.989569 c 17.22774,-0.784633 33.37858,-1.247271 50.1806,-3.940224 14.99692,-2.403638 29.85898,0.763704 44.88433,3.631236 m -27.36451,0.258164 c 15.8258,0.581597 34.14499,-0.225251 52.42363,-0.878544 15.97209,-0.570855 28.79939,0.266232 41.70513,1.074243 m -20.4871,-3.574047 c 17.0092,-0.629119 33.36139,0.556892 50.12605,1.419058 15.12076,0.777624 29.63978,1.352536 43.77866,3.461597 m -26.90844,-3.215715 c 15.7799,0.819038 33.20936,1.523717 49.6346,4.371313 16.3548,2.835385 31.83964,-0.832912 45.76445,-2.766219 m -27.05587,-4.11278 c 16.18055,0.045 33.2303,1.339169 49.71639,3.770216 12.04827,1.776645 24.12791,1.155691 36.0468,0.887241 m -23.32395,3.637705 c 16.7085,-0.884739 32.80566,-1.112853 48.43092,-3.584694 14.97218,-2.368528 31.42868,0.912674 46.63975,3.105895 m -24.71016,-0.507257 c 15.87063,0.809105 32.39151,-0.544387 47.20095,-1.863056 11.3437,-1.010071 24.70185,-0.585786 37.5639,-0.602953 m -21.24664,-4.821036 c 17.72803,0.09054 32.10985,1.383632 46.29749,3.961595 6.54376,1.189033 14.15074,1.210425 22.09724,0.799997 m -9.63767,-0.195962 c 16.89975,-0.884079 32.89071,0.538994 48.64955,1.391868 15.54349,0.841219 33.89028,-0.432193 52.4698,-1.542415 m -32.28243,1.678751 c 15.58826,0.918052 32.13883,-1.343835 46.43553,-4.214683 9.7779,-1.963461 21.6193,-0.634793 33.2556,1.174734 m -16.5078,0.923402 c 17.4458,-0.893066 32.3677,0.835981 47.1179,2.321561 6.4921,0.65385 13.6874,0.871788 21.1001,1.019256 m -11.1744,3.833139 c 6.8385,0.287359 13.9025,0.06028 20.9744,-0.535155 -0.057,8.621619 -0.1,16.613543 -0.6157,24.302273 -0.7338,10.93458 0.2901,26.53966 1.2661,41.96614 m -3.5598,-26.47966 c 1.3559,17.15275 0.3826,32.13786 0.4065,46.45695 0.023,14.02272 2.1501,34.21565 5.7528,54.00562 m -1.3831,-31.05513 c -0.4922,17.71805 1.2722,34.03708 3.0873,52.08943 0.9265,9.21497 0.98,17.42166 0.7874,25.17289 m -2.4916,-18.51092 c 0.473,15.59645 1.3109,33.95856 3.1961,51.87195 1.8506,17.58462 0.3087,32.86081 0.038,49.35859 m -6.4769,-33.47096 c -0.856,15.95148 2.0342,33.75867 5.3298,51.32486 2.6557,14.15536 0.3332,28.13342 -2.1959,43.35978 m 0.051,-24.97161 c 1.3287,16.06003 0.6029,31.97623 1.0902,45.93808 0.1023,2.9327 0.2233,6.16563 0.3698,9.62366 -9.81,-0.16373 -19.4085,1.54096 -28.6316,3.31784 m 20.6249,-3.19278 c -16.554,-0.27153 -33.4806,1.44215 -50.4545,4.51507 -13.7576,2.49066 -27.306,0.23786 -41.1379,-1.71774 m 27.1057,-2.66671 c -16.1717,1.07605 -33.9571,1.33626 -51.8492,4.24083 -7.4974,1.21712 -14.16431,1.16538 -20.2707,0.49931 m 15.56833,-6.29339 c -16.24434,1.05766 -33.35156,0.89495 -50.04447,2.92835 -12.74728,1.55277 -24.46648,-0.0881 -35.18488,-2.12266 m 23.68535,5.49556 c -16.28984,-0.99196 -33.29791,-1.31463 -49.90773,-3.71496 -11.04846,-1.59664 -22.5476,-0.63469 -34.44964,0.84158 m 16.3873,-2.61826 c -17.33697,-0.54521 -33.29295,0.12196 -49.87976,0.60509 -9.59449,0.27946 -19.01498,0.51288 -28.21629,1.01867 m 24.33473,-0.19143 c -15.76209,0.39306 -34.21859,1.17098 -52.64242,3.69436 -8.06572,1.10471 -15.54812,0.99953 -22.89397,0.33814 m 14.04951,-3.84247 c -17.56427,-0.46397 -32.4362,-1.62091 -47.30931,-4.61762 -10.41624,-2.09872 -22.37543,-1.11372 -34.03919,-0.0686 m 20.52519,4.50684 c -15.72507,-0.67327 -32.70152,-1.31868 -48.07604,-3.71515 -8.78512,-1.36936 -18.57975,-0.49085 -28.66531,1.32756 m 16.95272,-0.0701 c -17.26467,-0.0895 -34.64599,1.13899 -53.95402,3.61263 -10.12752,1.29748 -18.88051,0.95991 -27.40703,0.0834 m 21.30519,-2.34826 c -17.6919,-0.61789 -32.83353,0.52501 -48.48501,1.78091 -14.74048,1.18281 -31.98279,-0.98075 -49.20292,-3.14887 m 29.95339,-0.72101 c -16.37195,0.40224 -33.70452,1.32006 -51.08346,4.21389 -7.68976,1.28046 -14.97721,1.29869 -22.04463,0.8245 m 17.50537,-1.17296 c -16.17133,-0.13516 -32.94803,0.89695 -48.89608,2.87437 -10.19703,1.26435 -20.67328,0.0564 -30.86809,-2.02469 m 14.33523,-5.1082 c -16.72638,0.0378 -31.98028,0.86983 -45.91528,2.84692 -6.2639,0.88872 -13.53685,0.9052 -21.0724,0.61029 m 14.41242,-1.86592 c -15.7622,-0.23556 -34.49331,0.285 -53.46273,1.0424 -9.41629,0.37597 -17.66443,-0.0125 -25.59429,-0.86614 m 16.51951,4.06166 c -17.51933,-0.64618 -33.91098,-1.86839 -51.71168,-5.41048 -8.05487,-1.60281 -15.539,-1.62064 -22.76664,-1.01766 0.21902,-7.50095 0.74082,-14.26907 1.16238,-21.54092 m 7.72004,24.55209 c -1.21406,0.0713 -2.43225,0.12773 -3.6539,0.17067 0.16025,-14.81404 -0.20235,-31.67124 0.14393,-48.13578 0.19552,-9.29657 -0.0198,-18.28013 -0.37597,-27.43196 m -0.2844,15.32168 c -1.35645,-15.56813 -1.66462,-31.44986 -4.23466,-44.37978 -2.09512,-10.54056 -0.72459,-26.71411 0.33265,-42.45301 m 0.33799,23.80721 c 0.54699,-16.87967 -0.68138,-32.33174 -1.28267,-46.97665 -0.37319,-9.08917 -0.36224,-19.51444 -0.22437,-29.83582 m -2.81801,13.64642 c -1.32828,-16.86134 0.48042,-32.05876 2.13642,-46.21103 1.17528,-10.04411 0.219,-22.9037 -0.83826,-35.88105 m 1.56421,24.41614 c -0.76395,-16.67135 -0.0677,-35.10071 0.49545,-55.28927 0.37857,-13.57095 0.0699,-23.15094 -0.20189,-31.96361 m 2.77035,23.00802 c 0.55605,-17.56322 -0.81813,-33.95898 -1.74752,-51.870767 -0.17802,-3.430933 -0.3447,-6.777946 -0.5146,-10.067513 10.89322,-0.299431 21.74583,0.124961 31.9064,0.08909 m -25.21264,1.398593 c 16.10813,-0.0824 34.30245,1.523466 52.94299,4.317168 8.90345,1.334382 16.6956,1.279003 24.0246,0.72104 m -18.22782,-6.17344 c 16.12564,-0.583768 32.53774,0.116072 47.61095,0.106531 8.2596,-0.0052 17.46173,-0.02819 26.8238,-0.103006 m -14.25429,0.89757 c 17.43715,0.08997 33.32384,-0.05442 49.98907,-0.386061 9.91332,-0.197275 19.15213,-0.07381 27.71067,0.116082 m -19.57033,-0.67525 c 16.98134,0.59075 32.00481,-0.105509 46.0245,-0.550424 8.60254,-0.273002 19.91908,-0.453851 32.1182,-0.890777 m -16.9176,3.434711 c 16.39872,-0.337924 32.32544,0.107155 46.98188,0.133727 7.48151,0.01356 16.39762,0.02498 25.95202,0.0156 m -9.11211,3.078651 c 17.80121,-0.948281 32.94047,-0.619406 48.81307,-2.053407 13.9813,-1.263132 28.98957,-0.64957 43.39021,-1.226648 M 564.8188,77.803601 c 16.0164,-1.011294 32.60168,1.195748 47.77508,3.33335 7.74538,1.091157 16.47815,1.308389 25.60428,1.471091 m -10.43343,-3.262638 c 15.98883,0.582316 31.98137,1.574833 45.94306,4.508175 12.06899,2.535684 29.53049,0.684682 47.13092,0.01303 M 691.04033,81.9547 c 17.25547,-0.210503 34.40536,-0.03341 53.21575,-0.276506 10.43974,-0.134917 19.31303,0.004 27.7156,0.262559 m -15.26384,-0.389496 c 15.72461,-0.638128 31.55792,0.798602 44.65807,2.184689 13.01326,1.376893 32.97998,0.351614 49.4416,0.780712 m -26.07259,-3.288564 c 16.99056,0.472068 32.29085,-0.880454 46.92684,-2.901916 6.40745,-0.884971 13.68298,-0.656374 21.31372,0.156117 m -13.71607,1.180055 c 16.35334,0.144374 32.71382,-0.626754 48.15769,-2.081406 14.25532,-1.342703 30.51766,1.837595 45.89111,5.94848 m -23.75809,1.298853 c 16.8087,0.0073 32.92334,-1.768668 48.75897,-5.471949 7.19251,-1.682019 14.82071,-1.679353 22.65161,-1.052218 m -16.289,1.500342 c 15.7616,1.100561 32.9612,-0.344766 48.869,-1.289011 9.3136,-0.552831 19.2725,-0.273311 29.4174,0.224221 m -21.5182,4.773847 c 17.1637,0.08948 32.7498,-1.2792 48.2392,-4.077468 2.5897,-0.467852 5.3029,-0.780126 8.1231,-0.976915 0.182,6.230028 0.9899,13.135068 2.1931,20.148569 m 5.2429,-10.953961 c 0.9735,15.659446 0.394,32.124086 0.4887,46.375816 0.064,9.58015 0.015,21.47617 -0.272,33.49601 m 0.7239,-22.2203 c 0.6816,17.24455 -0.909,34.01121 -3.4759,52.00768 -1.3464,9.43957 -1.2805,17.87093 -1.0242,25.87269 m 4.1804,-18.86659 c -0.6467,15.82452 1.7326,35.07368 4.4819,55.20775 1.3583,9.94721 1.2696,17.71399 0.6364,24.55396 m -3.3715,-20.23284 c -0.9113,16.29698 0.4159,32.48437 0.4899,47.49653 0.066,13.36416 -0.1932,28.98024 -1.1284,43.36081 m -3.1767,-26.09178 c 1.4021,17.30827 1.9178,33.94712 5.0276,51.87092 2.1852,12.59478 0.6776,23.12362 -1.5502,32.91124 m -1.5655,-21.59802 c -0.1278,17.34457 1.5518,33.64883 3.9347,50.9959 0.283,2.05984 0.5059,4.1035 0.6794,6.13435 -4.856,0.11619 -10.058,0.14261 -15.4072,0.14186 m 12.2079,-0.75675 c -17.7193,-0.77273 -33.2413,0.42393 -49.7154,1.50757 -9.568,0.62935 -19.0629,0.13325 -28.3804,-0.81152 m 20.9641,-2.35043 c -16.4171,-0.67228 -32.8313,1.17349 -48.4858,3.74969 -10.5231,1.73175 -22.39923,0.84837 -34.71564,-0.24604 m 21.50094,-4.67165 c -17.62858,0.0745 -33.97714,1.43623 -51.95767,4.54221 -13.39335,2.31359 -25.21008,1.34638 -37.09147,1.03188 m 18.66462,-0.27779 c -17.01773,-0.4001 -31.92777,-1.3002 -45.80573,-3.68798 -11.54113,-1.98571 -27.44184,-0.1713 -42.90459,1.45183 m 27.92404,-2.22933 c -17.80129,0.46537 -33.14696,-0.18171 -49.41463,-0.29786 -8.3421,-0.0596 -17.17242,0.30643 -26.33481,1.07677 m 10.63105,4.25058 c -16.16205,0.95694 -32.49265,-0.47808 -47.50156,-1.22785 -13.95938,-0.69734 -29.8407,0.0599 -43.65728,0.66305 m 28.85267,-2.36442 c -16.39056,-0.45403 -34.68116,0.45879 -54.06392,1.56206 -16.11902,0.9175 -28.15428,0.0397 -40.80005,-0.60635 m 29.17578,-3.11336 c -16.44463,-0.86388 -33.28889,0.17463 -49.85295,0.742 -15.52227,0.53169 -32.77144,0.61771 -51.52354,1.8448 m 26.66543,-1.07051 c -15.69737,-0.9002 -31.7561,0.45134 -45.28699,1.56233 -12.10894,0.99424 -28.87125,0.002 -43.56873,-0.46114 m 24.20063,-5.90836 c -17.12803,0.39293 -34.52807,0.8368 -53.59863,2.73733 -15.54644,1.54933 -27.12365,1.13142 -38.66047,1.9658 m 23.17342,-3.10922 c -16.58142,-0.0898 -33.80142,0.39448 -51.43881,1.37044 -10.40891,0.57597 -19.45583,0.67043 -27.73787,0.92237 m 17.11093,-0.28808 c -16.39878,0.0379 -32.49612,1.14604 -47.50141,3.61254 -11.03644,1.81413 -23.54849,0.65696 -35.55224,-0.44545 m 23.61129,-7.32268 c -16.85375,0.0287 -31.73925,0.81253 -45.2316,2.65552 -9.92368,1.35553 -23.88355,0.5017 -38.10707,-0.27665 m 15.33426,0.6953 c -16.56247,-1.17304 -31.96855,1.26119 -45.91537,3.99608 -9.76753,1.91536 -21.91602,1.26542 -33.65072,0.9513 m 18.4568,-5.3796 c -8.24389,0.20108 -16.80846,0.38311 -25.4724,0.7293 -0.24921,-7.76893 -0.58884,-15.38849 -0.82678,-22.69964 -0.37903,-11.6465 0.42993,-25.85708 2.06693,-40.24988 m 1.92914,25.39136 c 0.89231,-15.5322 -2.41035,-32.67913 -6.47819,-48.07121 -2.01925,-7.64052 -1.80039,-16.27322 -0.74876,-25.43801 m 1.19677,13.19598 c -0.77284,-17.65398 0.48406,-33.19574 2.21811,-49.57384 0.75102,-7.09334 0.75193,-14.3715 0.48833,-21.76778 m -2.50153,17.99209 c 0.83907,-15.72375 1.098,-33.53814 4.02183,-50.66875 1.47879,-8.66414 1.29774,-17.3251 0.68526,-26.16281 m -7.35464,15.43701 c -1.30111,-16.88002 0.0821,-33.1983 0.96063,-49.60165 0.55346,-10.33434 0.69634,-20.58958 1.27078,-30.58261 m 4.22285,14.40259 c -0.51899,-17.56227 -2.2762,-31.55722 -6.09453,-44.70671 -1.63582,-5.63338 -1.71325,-12.66049 -1.07424,-20.2496 m -0.29733,11.80602 c -0.56413,-13.18261 -0.50731,-25.574325 -0.50772,-37.936981 3.96183,0.137633 7.9183,0.277988 11.84998,0.399231 9.07634,0.279891 18.5819,0.533087 28.57847,0.976362 m 504.49262,370.744208 -8.04289,-0.0347 m -532.08797,-214.88254 -0.10555,-7.175 m 33.73208,219.9086 -7.45696,-0.0322 m 392.00749,-366.324658 9.50773,0.04099 m 487.25928,370.115309 -8.4765,-0.0365"
       id="rect2985"
       inkscape:path-effect="#path-effect4372"
       inkscape:original-d="m 195.13611,78.06973 927.82669,4 5.4142,368.038 -927.82668,-4 z"
       inkscape:connector-curvature="0"
       sodipodi:nodetypes="ccccc" />
    <text
       xml:space="preserve"
       style="font-size:108.14710999px;font-style:normal;font-variant:normal;font-weight:normal;font-stretch:normal;line-height:125%;letter-spacing:0px;word-spacing:0px;fill:#000000;fill-opacity:1;stroke:none;font-family:Serif;-inkscape-font-specification:Serif"
       x="451.56918"
       y="197.52502"
       id="text4367"
       sodipodi:linespacing="125%"><tspan
         sodipodi:role="line"
         id="tspan4369"
         x="451.56918"
         y="197.52502"
         style="font-style:normal;font-variant:normal;font-weight:normal;font-stretch:normal;font-family:Sketch Block;-inkscape-font-specification:Sketch Block">Server</tspan></text>
    <g
       transform="matrix(0.32050054,-0.94724833,0.94724833,0.32050054,139.42109,1229.3985)"
       id="g6683">
      <g
         id="g6685" />
    </g>
    <path
       inkscape:original-d="m 385.45314,269.63323 c 130.69888,0 199.9693,1.41421 502.4053,1.41421 l 0,136.13136 -503.81951,-15.55634 z"
       inkscape:path-effect="#path-effect6695"
       id="path6693"
       d="m 393.65308,273.83316 c 9.26758,-0.40703 17.61871,-0.37495 25.61603,-0.26158 7.99731,0.11338 15.63444,0.31298 23.36154,0.32204 9.78823,0.0115 19.75046,-0.16337 29.60768,-0.54569 m -17.51964,-3.53891 c 17.42345,-0.45588 31.9003,-0.10369 46.78975,-0.51502 6.21523,-0.1717 13.34862,-0.34579 21.00513,-0.64905 m -14.26634,1.92019 c 8.41128,0.41243 16.60205,0.57129 24.99245,0.72651 8.39041,0.15521 16.97408,0.30215 26.30872,0.7921 4.46963,0.23459 8.86148,0.33095 13.21673,0.31992 3.77548,-0.01 7.52348,-0.0998 11.27606,-0.24571 m -12.32587,-2.41649 c 1.56893,0.10086 3.15624,0.19985 4.7594,0.29978 6.63454,0.41354 13.54816,0.83631 20.50817,1.51773 6.96,0.68142 13.96942,1.61878 20.67565,3.17085 5.91288,1.36846 13.21825,1.3018 21.44469,0.37469 8.22645,-0.92711 17.37996,-2.72171 26.72958,-4.50493 m -35.07734,-2.71965 c 7.45911,0.034 15.72921,-0.009 24.70313,-0.14433 8.97391,-0.13526 18.65387,-0.3627 28.84168,-0.70013 6.33114,-0.2097 12.29671,-0.20292 18.1318,-0.0344 5.83509,0.16853 11.53869,0.4991 17.42091,0.91679 m -23.46517,4.99346 c 8.15496,-0.21922 16.63659,-0.19077 25.72826,-0.0589 9.09167,0.13184 18.79172,0.3683 29.48387,0.49719 10.3898,0.12526 19.10238,-0.10949 27.49748,-0.67407 m -20.83104,-2.13799 c 7.67608,0.52231 15.96004,0.77418 24.75242,1.1171 8.79239,0.34293 18.09401,0.775 27.75345,1.79014 8.83707,0.92872 17.02883,1.13673 25.09462,1.25309 m -17.45148,-2.13611 c 8.44544,0.44065 16.35683,0.24571 24.02047,-0.34206 7.66363,-0.58777 15.07819,-1.56951 22.63296,-2.61246 5.73871,-0.79225 12.28283,-1.06964 19.23975,-1.19478 m -18.39111,-2.43676 c 5.92375,0.0751 11.83289,0.35817 17.83211,0.89683 0.38686,11.97191 0.78457,24.8324 1.9487,38.77417 1.4935,17.88635 0.79852,27.82648 1.11782,37.97434 m -0.60636,-20.84429 c -0.43679,17.16399 0.68563,32.97286 2.05104,48.95064 0.99957,11.69676 0.0465,24.10904 -1.23953,36.44015 -1.61714,-0.0293 -3.23907,-0.0597 -4.863,-0.0927 m 2.79371,-23.23366 c -0.15994,7.08136 -0.0329,14.06471 0.30179,21.0834 -9.36152,-0.007 -18.28888,0.0601 -27.02151,0.60394 -9.51488,0.59256 -20.39629,0.16789 -31.1403,-0.12951 m 20.68521,-3.7617 c -17.12912,0.33263 -33.92062,-0.80403 -51.79793,-0.88706 -14.32226,-0.0665 -26.80777,0.12433 -39.32555,1.24233 m 19.92937,2.48725 c -16.52737,-0.30509 -31.94644,-1.65197 -45.83736,-3.4023 -9.33761,-1.17659 -21.76161,-1.06623 -34.76254,-0.78916 m 22.69865,-0.38602 c -17.01987,-0.38605 -33.94463,0.82779 -51.88003,4.03525 -8.44052,1.50945 -16.35639,1.19301 -24.14792,0.21127 m 16.06167,-9.22277 c -17.32895,-1.66134 -32.69391,-0.48723 -48.07906,0.0438 -8.93547,0.30843 -19.0624,0.33724 -29.63504,0.70356 m 16.70825,-1.36541 c -15.9176,-0.92314 -32.67763,1.15741 -48.05257,5.01995 -12.82209,3.22121 -27.01579,0.30489 -40.36292,-1.13621 m 25.47511,-6.95365 c -15.97259,0.48803 -33.56561,0.69359 -50.75957,3.65192 -16.27378,2.8 -31.17886,-1.05337 -46.07294,-2.72958 m 27.19491,2.58383 c -17.31997,0.0775 -33.00605,-1.1637 -49.06345,-1.92597 -10.04831,-0.477 -20.43899,-0.83216 -30.7278,-1.23916 0.13621,-5.62364 0.30156,-11.26212 0.56408,-16.94204 m 15.06879,17.43263 c -4.23427,-0.0165 -8.39773,-0.10049 -12.52706,-0.23355 -0.18036,-12.6629 -0.0248,-25.80865 -0.66709,-38.86607 -0.54554,-11.09022 -0.74232,-21.56906 -1.42366,-31.88694 m -2.86389,19.748 c 0.0198,-15.93394 -0.62223,-33.74357 -2.42822,-51.21754 -0.80077,-7.74796 -0.72692,-15.02304 -0.30229,-22.03706 6.40604,0.31005 12.9058,0.79296 19.23999,1.32329 m -5.64958,0.86529 c 8.55423,0.54727 17.22742,0.60445 25.95125,0.62136 8.72384,0.0169 17.50031,-0.0128 26.30835,0.26613 16.20947,0.51335 30.0155,-0.46231 45.20108,-1.87905 m -25.1304,2.32197 c 7.7506,0.037 15.75456,-0.0488 23.78222,-0.26135 8.02765,-0.2126 16.08462,-0.55198 23.88355,-1.034 6.89006,-0.42586 14.34868,-0.23681 21.99766,0.32584 7.64898,0.56265 15.49581,1.50363 22.9853,2.49348 m -27.80567,-6.87099 c 12.55013,-0.12862 26.16414,0.2145 40.60406,0.73887 3.16487,0.11493 6.36805,0.23782 9.60426,0.36404 7.05341,0.2751 14.53674,0.36253 22.56169,0.37698 8.02495,0.0145 16.59107,-0.0456 25.83694,-0.009 m -29.96778,3.55388 c 8.19875,-0.38043 15.87601,-0.29194 23.24311,0.0385 7.36711,0.33039 14.42033,0.90635 21.49592,1.36686 6.08988,0.39636 14.06311,0.45802 23.02869,0.40236 8.96558,-0.0557 18.93382,-0.23098 28.53144,-0.19666 m -31.23156,-7.2923 c 7.34338,-0.483 15.37654,-0.47082 23.84618,-0.26147 8.46964,0.20934 17.3785,0.61883 26.33564,0.78019 12.73291,0.22937 26.78638,0.65217 42.67911,1.79181 m -27.67503,0.4948 c 8.39102,-0.33682 16.81977,-0.0425 25.67076,0.71496 8.85098,0.75747 18.12205,1.97954 28.33805,3.41297 8.05619,1.13038 15.4262,1.36642 22.65974,1.24566 m -18.57973,-5.19138 c 15.85266,0.24406 33.48428,1.17105 53.27123,3.86949 6.82577,0.93086 13.08134,1.2651 19.0435,1.34225 5.96216,0.0772 11.63031,-0.1035 17.34842,-0.12252 m -21.56883,-2.34977 c 10.09732,0.39948 20.27452,0.1893 29.94579,-0.17111 -0.76081,5.6688 -1.74273,11.30328 -3.02784,16.98704 -1.82292,8.06236 -1.54452,16.625 -0.52129,25.50782 m 8.08752,-14.78302 c -0.29137,16.61781 0.0169,33.33905 0.0549,49.99002 0.0259,11.34908 -0.21318,22.29535 -0.6702,32.81739 m -2.90362,-24.04665 c 0.63308,14.7741 0.43114,31.30458 1.14305,46.62596 -0.76054,-0.052 -1.51877,-0.10698 -2.27448,-0.16542 -15.55367,-1.20273 -32.56894,-0.89174 -48.63606,-1.12116 m 26.30146,7.39316 c -16.74607,0.24119 -32.35633,-1.76724 -47.12238,-3.78544 -9.47588,-1.29514 -20.71741,-1.50946 -32.22783,-1.83477 m 22.65276,-0.8097 c -16.64666,-1.65261 -34.23273,-1.41653 -52.75526,-2.69055 -12.19049,-0.83849 -22.19703,-1.02032 -31.6206,-1.18446 m 23.33839,0.57073 c -16.66532,-0.70557 -35.37071,-1.27043 -56.14587,-2.28096 -17.27696,-0.84038 -27.44362,-0.0854 -37.62529,1.42045 m 24.39888,-2.17292 c -17.17435,0.19596 -33.16032,-1.02885 -49.50104,-1.51588 -14.39363,-0.42899 -29.54343,-0.79993 -44.82493,-1.06055 m 27.35641,2.71963 c -16.33657,0.0225 -32.96229,-2.20638 -48.95466,-5.04312 -12.32479,-2.18618 -26.21734,-1.58877 -40.75247,-1.37924 m 21.52367,9.36109 c -17.54801,-0.34159 -34.00246,-1.84622 -52.04378,-4.00384 -15.29951,-1.82971 -27.90132,-1.12559 -40.33268,-0.91056 m 27.23525,-2.52958 c -16.5828,-0.71474 -33.92718,-1.42144 -51.8256,-2.69111 -7.70984,-0.54692 -15.02351,-0.73793 -22.23574,-0.7557 m 14.71194,7.25276 c -12.31128,0.22582 -24.22489,-1.02534 -36.24306,-2.815 0.0407,-5.22709 0.0656,-10.53602 0.0447,-15.87118 -0.072,-18.44858 1.59217,-31.79218 4.28893,-46.45901 m 3.90857,26.87498 c 0.24697,-17.0988 -1.70054,-32.13424 -5.68226,-46.40435 -3.07385,-11.01641 -1.05896,-24.89826 0.27318,-38.3487 2.68619,-0.11231 5.32334,-0.20718 7.87647,-0.26359 m -3.94966,14.64226 c -0.36122,-6.76841 -0.50304,-13.65788 -0.6396,-20.67244 9.90974,-0.38979 19.44745,-1.04102 28.13134,-1.92605 7.08893,-0.72248 14.52577,-0.39029 21.87278,0.46292 m -42.24952,7.28785 c 9.01222,0.009 17.43535,-0.2064 25.61693,-0.61299 8.18158,-0.40659 16.11812,-1.00484 24.09919,-1.78268 12.86558,-1.25389 25.91886,-0.77174 39.30021,-0.9006 m -20.78389,-1.36601 c 7.66349,0.26059 15.47588,0.11894 23.12065,-0.26717 7.64477,-0.38611 15.12892,-1.01946 22.05699,-1.74378 5.7093,-0.59689 12.68947,-0.63433 20.31877,-0.42451 7.6293,0.20983 15.91805,0.67171 24.02294,0.97228 m -25.95874,5.2207 c 6.73433,0.2458 14.11775,0.41018 21.99994,0.61701 7.88218,0.20683 16.26663,0.45435 24.91991,0.91772 1.59849,0.0856 3.20584,0.17875 4.82011,0.28082 8.78317,0.55541 17.0285,0.27757 25.11626,-0.57117 m -14.61736,-0.68948 c 7.40556,-0.28948 15.36341,-0.21311 23.70205,0.0557 8.33865,0.26883 17.06144,0.73315 25.87779,1.11696 8.39522,0.36548 17.09935,0.41692 26.0088,0.40156 m -18.60729,-0.98179 c 8.14638,-0.43091 15.93225,-0.35648 23.54322,-0.0317 7.61096,0.32481 15.04457,0.90309 22.59059,1.33938 6.10176,0.35278 13.4333,0.38227 21.45913,0.24721 m -10.42357,-3.76911 c 7.70263,-0.1812 15.32618,-0.31822 22.71541,-0.56332 7.38922,-0.24509 14.5449,-0.59722 21.25902,-1.26996 4.68498,-0.46942 10.57808,-0.58211 17.13602,-0.51294 6.55794,0.0692 13.78273,0.32086 20.96105,0.52572 m -18.5494,1.59011 c 7.54942,0.12422 15.37696,0.0457 23.22236,-0.18424 7.84539,-0.22997 15.70991,-0.61181 23.24071,-1.07017 6.64008,-0.40416 14.58725,-0.44246 23.20494,-0.36397 8.61769,0.0785 17.90853,0.27475 27.02036,0.25823 m -26.21721,-1.84107 c 8.05735,0.32262 16.07322,0.76496 24.09805,1.59575 8.02482,0.83079 16.05837,2.04922 24.16917,3.99699 0,0 0,0 0,0 0.82279,0.19759 1.65518,0.37267 2.49677,0.52662 -0.66764,15.08398 0.19365,25.66713 1.00217,36.87312 m -0.63515,-25.23878 c -0.51951,17.77414 -1.23213,33.172 -3.66376,49.52449 -2.42119,16.28237 1.46701,32.41243 4.44418,47.49917 m -5.52254,-27.90355 c -0.40042,16.39948 0.54615,33.84946 1.66821,51.57609 0.059,0.9325 0.11265,1.85544 0.16136,2.76927 -12.95398,0.15984 -27.11133,-1.91151 -40.57614,-4.43089 m 27.96239,-0.14106 c -15.89978,0.023 -33.6675,-1.05051 -51.0057,-1.59781 -15.0284,-0.47439 -29.38571,-0.7655 -44.40861,-0.94718 m 32.96627,0.45165 c -16.93817,-0.0682 -34.58117,-1.15678 -53.73945,-1.95322 -13.37241,-0.55592 -23.73316,-0.9021 -33.62687,-1.33857 m 22.41414,1.46006 c -16.83798,-0.4873 -34.5019,-1.89952 -53.57546,-4.14047 -13.17912,-1.54841 -24.35378,-1.39354 -35.91702,-1.23104 m 23.20963,8.6046 c -16.00904,0.57803 -33.62852,-1.92846 -50.89627,-4.22314 -9.82645,-1.30581 -19.10667,-1.09709 -28.1828,-0.3556 m 19.06136,-2.54701 c -15.49942,-1.41527 -34.36833,0.0445 -53.1661,1.65697 -17.92396,1.53747 -30.88518,-0.86663 -44.42755,-1.70527 m 30.58382,-1.75725 c -16.50971,0.47853 -33.32078,-0.2928 -49.99362,0.67146 -10.34777,0.59844 -20.9568,0.0612 -31.83128,-0.54446 m 18.02928,-0.3486 c -16.17227,-0.95155 -31.98441,-1.5876 -45.94694,-3.2105 -8.86205,-1.03006 -20.46501,-1.30332 -32.73873,-1.67598 m 20.76823,1.682 c -14.45225,-0.79963 -29.85896,-1.15393 -45.97979,-1.84765 -0.20151,-2.13615 -0.41789,-4.27937 -0.64841,-6.43201 -1.05753,-9.87544 -0.32003,-19.48177 1.04358,-29.05304 m -1.39823,17.73415 c -0.93566,-16.46191 1.03618,-33.37187 2.54891,-50.12348 1.19419,-13.22406 0.83034,-26.57592 0.85247,-40.19918 m -1.77892,25.00475 c -0.0712,-12.86864 0.46969,-25.62869 1.18979,-37.37748 3.50877,0.40047 6.98639,0.86153 10.43088,1.39304 6.86229,1.0589 13.41789,1.13502 19.85175,0.76975 6.43387,-0.36526 12.74478,-1.17615 19.09184,-2.00111 m -51.1627,-0.9199 c 17.50451,-0.22825 35.29862,-0.36721 53.81806,-1.04695 8.74498,-0.32098 16.10462,-0.48441 22.8996,-0.70624 6.79497,-0.22183 13.01577,-0.49924 19.42868,-1.05058 m -26.44201,5.66257 c 16.22576,-0.92211 32.54239,0.85199 48.89591,2.4414 8.20139,0.79709 17.21902,0.73015 26.92403,0.34771 m -12.5403,-8.93152 c 8.06715,-0.46733 15.9672,-0.33074 23.86539,0.10852 7.8982,0.43925 15.79238,1.18732 23.88151,1.82088 2.51101,0.19666 5.14746,0.34508 7.89675,0.45767 4.71285,0.19301 9.75875,0.2796 15.05695,0.33645 m -13.04602,-0.43099 c 0.40194,-0.0247 0.80486,-0.0482 1.20875,-0.0704 7.34683,-0.40493 15.01793,-0.3997 22.88826,-0.26518 7.87034,0.13452 15.94224,0.40283 24.00607,0.37274 6.03972,-0.0225 12.75866,0.30638 19.99924,1.02392 7.24059,0.71753 15.00463,1.8238 23.04895,3.3576 m -28.73285,-1.17175 c 7.39687,0.35675 15.44106,0.36588 23.93508,0.21461 8.49402,-0.15128 17.44066,-0.46531 26.51998,-0.6515 7.48269,-0.15345 14.96744,-0.25099 22.52409,-0.40138 m -16.0634,-2.34935 c 15.44454,-0.17944 32.47033,1.96922 50.59158,6.53924 4.45506,1.12353 8.94098,1.60194 13.48009,1.62351 4.53911,0.0216 9.13137,-0.41408 13.8033,-1.0762 m -17.02416,-4.98861 c 8.26331,-0.44782 16.56349,-0.27021 25.17212,0.27034 8.60863,0.54054 17.52434,1.44574 27.11424,2.34014 7.74963,0.72278 15.09907,0.60196 22.37641,-0.0364 m -17.94352,-1.16521 c 7.42528,-0.45267 15.38554,-0.30136 23.53629,0.18669 8.15074,0.48806 16.49341,1.31413 24.56763,2.11325 8.45909,0.8372 17.52592,0.26507 26.54937,-1.06823 -0.0255,0.35928 -0.0515,0.71724 -0.0781,1.07393 m -13.53447,0.28256 c 5.7367,0.31738 11.51503,0.16142 17.30924,-0.38681 -0.32342,9.79074 -0.88371,18.33828 -1.81962,26.38447 -0.78255,6.72779 -0.83257,16.12526 -0.83356,26.18255 m -2.88561,-11.93132 c -0.7005,16.17188 1.56082,33.92621 4.70354,51.82233 2.80144,15.95265 0.82527,29.77923 0.7312,44.10044 -1.00178,-0.0664 -1.9951,-0.13067 -2.97795,-0.19187 m 1.64146,-28.35457 c 0.14441,8.23861 0.29652,16.70137 0.56505,25.16857 -7.88475,-0.29988 -15.66304,-0.59569 -23.23982,-1.07956 -10.49194,-0.67004 -22.79671,-0.56728 -35.85086,-0.14034 m 23.79886,2.93817 c -17.712,-0.30529 -34.25745,-2.16905 -52.8093,-4.96089 -8.60015,-1.29422 -16.53264,-1.50739 -24.36071,-1.32339 m 16.52964,5.19773 c -17.63023,-0.22291 -34.7004,-1.08018 -54.12185,-1.73438 -12.37236,-0.41675 -21.80163,-0.97581 -30.42452,-1.77719 m 21.89049,-0.19442 c -16.49128,0.37806 -32.75318,-1.05101 -48.29832,-1.59802 -12.74539,-0.44849 -27.72384,-0.73848 -43.10132,-0.9044 m 25.38596,-6.00049 c -17.14663,-0.55949 -32.13927,-0.27232 -46.4659,0.69941 -12.41803,0.84228 -28.53398,-1.01708 -43.79779,-2.6664 m 24.37097,4.35092 c -17.12952,0.5325 -34.90182,-1.92032 -54.72372,-4.22312 -8.39898,-0.97574 -15.44435,-1.28366 -21.85546,-1.33537 m 16.29007,5.02889 c -17.72978,-1.62472 -33.16413,0.0238 -49.52804,1.6024 -6.8954,0.66518 -13.66153,0.38121 -20.2307,-0.38358 m 19.36534,-3.1434 c -17.61203,-1.47029 -34.70782,-0.89229 -54.12186,-1.15941 -8.86331,-0.12195 -16.52465,-0.61912 -23.76993,-1.41748 m 22.14149,0.78595 c -14.31869,-0.58945 -31.56177,-1.88665 -49.25571,-4.1622 -0.19941,-1.52962 -0.40243,-3.06706 -0.60728,-4.61253 -1.55413,-11.7246 -0.34594,-21.61226 1.67381,-31.23347 m 1.64242,24.59229 c 1.09426,-17.72803 -0.47138,-34.50559 -1.96402,-53.54069 -1.47575,-18.81961 -0.3843,-33.08674 -1.61848,-49.66232 m -0.73466,34.74128 c -0.27241,-11.42771 0.94608,-25.18466 2.99292,-39.93114 5.18575,-0.91742 10.39842,-1.9501 15.61255,-3.0291 10.33881,-2.13948 18.64685,-1.93144 26.44224,-1.18768 m -37.30179,2.99994 c 8.17891,0.0265 17.08989,0.19339 26.29272,0.49488 9.20282,0.30149 18.70425,0.73739 28.20955,1.31116 8.0169,0.48392 14.79373,0.41868 21.01127,0.045 m -21.66359,2.53103 c 7.98007,0.30883 16.16278,-0.20862 24.39504,-1.34792 8.23226,-1.1393 16.51824,-2.90373 24.69257,-5.13991 7.03015,-1.92318 14.50683,-2.11259 22.37411,-1.62564 m -10.36966,8.26036 c 15.91819,0.20184 32.13911,-0.27349 49.36039,-1.24286 6.24056,-0.35127 12.89363,-0.53845 19.94689,-0.73385 3.75311,-0.10397 7.6193,-0.21114 11.59452,-0.35494 m -22.07967,-3.69774 c 2.62823,0.0498 5.35266,0.1172 8.16243,0.20674 6.32855,0.20166 13.09479,0.51437 20.13071,1.00376 7.03593,0.4894 14.34372,1.15501 21.66966,2.08587 8.04624,1.02239 16.29346,1.21689 24.75262,1.25151 m -14.03421,-2.41278 c 7.3773,0.0616 14.98503,0.18442 22.53708,0.40839 7.55205,0.22397 15.05159,0.54876 22.06637,1.02952 5.47621,0.37531 12.34852,0.40862 19.92196,0.25585 m -10.35263,1.29794 c 7.74892,-0.21611 16.03561,-0.65098 24.88819,-1.53686 8.85258,-0.88589 18.27137,-2.22136 28.27361,-4.32365 8.97423,-1.88623 16.7664,-2.01482 23.95075,-1.60475 m -20.03334,8.62486 c 7.69899,0.0283 15.81112,-0.21787 24.24116,-0.78183 8.43004,-0.56396 17.17872,-1.44569 26.10447,-2.69304 7.6829,-1.07367 15.67109,-0.81314 24.06234,0.20945 m -17.80333,-0.0995 c 15.96018,-0.0512 33.24489,0.50317 52.4782,1.62613 6.95799,0.40625 13.26265,0.39362 19.13299,0.11011 5.87034,-0.28351 11.30577,-0.83827 16.58467,-1.47721 m -22.22466,0.28795 c 9.50217,0.53547 19.53254,0.77061 30.08747,1.26107 0.34238,7.19879 0.80268,14.51829 1.36159,22.15113 0.56221,7.67781 0.52549,14.66791 0.17949,21.36846 m -0.65541,-19.58991 c 1.05628,16.19978 0.13474,35.4045 0.38217,56.19731 0.1849,15.53689 0.0813,26.13733 -0.008,36.96886 m -3.80824,-27.94294 c 0.23936,15.68395 -0.57117,30.22556 -1.86099,45.03989 -1.67195,-0.0789 -3.34889,-0.15504 -5.03019,-0.22681 -9.87559,-0.42156 -18.31102,-0.44382 -26.03584,-0.19286 m 21.89402,-1.54734 c -16.17255,-0.47789 -32.6712,-1.13308 -48.05242,-1.8436 -12.46676,-0.57589 -26.61752,-0.39759 -40.40745,0.22249 m 21.26138,4.92998 c -16.50911,-0.55983 -31.8008,-1.13482 -45.45456,-1.87089 -6.42555,-0.3464 -14.10999,-0.60137 -22.11768,-0.83318 m 14.04295,-0.50982 c -17.66663,-0.76037 -34.6222,-1.66874 -53.93043,-3.45671 -17.86754,-1.65456 -31.58134,-0.6905 -47.42752,-0.15822 m 32.12435,-1.85296 c -17.32955,-0.21367 -34.2008,-0.72343 -52.61812,-0.66798 -10.91238,0.0328 -20.28179,0.10013 -29.21129,0.55835 m 21.35611,3.23972 c -16.49185,0.16872 -34.19674,-0.84445 -52.61863,-0.99633 -17.91103,-0.14767 -32.97588,-1.69523 -50.08265,-3.66886 m 26.86916,4.18942 c -16.54546,-1.38865 -31.64948,-1.69425 -44.98969,-3.53836 -6.30926,-0.87217 -14.45345,-1.00052 -23.38146,-0.80728 m 16.29993,-3.8148 c -17.62102,-0.2863 -34.41264,-0.20674 -53.30155,0.918 -18.63079,1.10938 -31.02514,0.19095 -43.62065,1.96261 m 29.31359,-4.61072 c -12.87413,-0.74163 -28.34748,-1.60662 -44.60605,-3.26226 -0.48825,-3.14511 -1.01101,-6.32494 -1.55155,-9.54566 -2.00921,-11.97148 -0.66936,-22.23374 1.35757,-32.32749 m 1.12401,25.63001 c -0.64442,-15.85204 0.68512,-33.85583 1.48234,-51.54572 0.59383,-13.17685 0.17516,-24.73766 -0.52184,-35.96892 m -2.20913,21.35947 c 0.64879,-12.39362 1.20928,-24.95435 2.49855,-37.77666 4.80393,-0.17445 9.62482,-0.37775 14.50102,-0.61161 7.61876,-0.36539 14.37639,-0.32753 20.79919,-0.0859 6.4228,0.24166 12.50669,0.68872 18.68796,1.18288 m -47.9052,-1.82305 c 9.22162,-0.33449 18.05383,-0.21866 26.97009,0.0433 8.91625,0.26194 17.91077,0.67409 27.39424,1.00495 7.92596,0.27652 14.79661,0.4726 21.25915,0.71482 m -19.53384,4.68536 c 8.10028,-0.13557 16.61448,-0.56326 25.49838,-1.40799 8.88391,-0.84472 18.13992,-2.10441 27.7453,-3.95379 7.95684,-1.53197 15.2887,-1.54081 22.52261,-0.7859 7.23391,0.75492 14.36304,2.28501 22.04437,3.63256 m -28.89901,-2.23725 c 7.93352,0.22635 15.91624,0.38015 24.03909,0.59405 8.12284,0.2139 16.38527,0.48557 24.88376,1.00596 1.95398,0.11964 3.957,0.22015 6.00736,0.30562 7.92412,0.33031 16.56246,0.42572 25.7649,0.59634 m -21.48237,0.87383 c 7.98029,0.50392 16.36224,0.22834 25.40379,-0.63098 9.04155,-0.85932 18.74029,-2.3068 29.45261,-4.0146 8.67917,-1.38366 16.15865,-1.63587 23.1409,-1.49677 6.98226,0.13911 13.45931,0.67761 20.48978,0.50661 m -24.54527,1.66175 c 7.27607,-0.38017 15.27165,-0.23457 23.70114,0.22032 8.42949,0.4549 17.29641,1.22188 26.15255,1.96053 7.35961,0.61383 14.8301,0.53094 22.37572,0.0381 7.54562,-0.49284 15.16658,-1.39801 22.81256,-2.29389 m -29.84466,0.54083 c 7.89323,-0.23464 16.19442,0.019 24.98739,0.65124 8.79297,0.63219 18.07749,1.64403 27.95559,2.86334 7.42779,0.91685 14.23963,0.8242 20.76123,0.0702 m -18.81361,-4.67974 c 8.30142,-0.40324 16.73651,-0.28717 25.61434,0.10892 8.87783,0.3961 18.19703,1.07361 28.36732,1.69672 8.10301,0.49645 15.48502,0.79039 22.70421,1.14518 7.21919,0.35478 14.27382,0.76965 21.88201,1.57967 m -31.95867,0.35672 c 7.48954,-0.19128 15.93182,-0.0813 25.07384,0.21605 9.14203,0.29735 18.98494,0.78255 29.18237,1.30174 0,0 0,0 10e-6,0 0.0741,0.004 0.14819,0.008 0.22215,0.0112 2.2623,14.27085 0.10824,27.0016 -1.92345,39.7767 m 0.75519,-28.14218 c 1.04703,15.9261 -0.24428,34.11312 -0.76625,52.36935 -0.23708,8.29192 -0.3912,16.08096 -0.61306,23.8146 m 3.79643,-17.68935 c -0.37355,17.21916 -0.56592,34.30171 -1.69509,52.9428 -0.30479,5.03168 -0.48543,9.73421 -0.60808,14.22464 -5.15831,-0.16332 -10.24429,-0.59123 -15.35013,-1.12059 m 14.39537,-6.82127 c -0.0389,1.16339 -0.0735,2.32096 -0.1044,3.47293 -15.92704,-0.41333 -31.17771,-1.85207 -47.13267,-3.76518 -11.95982,-1.43407 -23.40222,-1.41005 -34.82893,-1.49343 m 19.32693,5.72494 c -17.18278,0.57812 -31.49598,-1.70664 -44.5518,-3.53955 -8.68444,-1.21921 -20.84445,-1.08334 -33.30988,-0.74607 m 13.9534,-0.95102 c -15.94498,-0.37775 -32.83395,-1.17846 -48.49005,-2.03507 -8.50561,-0.46538 -17.41386,-0.73986 -26.24681,-0.9918 m 17.36214,1.07598 c -17.26523,-0.19533 -32.73434,-0.41409 -48.27051,0.28904 -13.43001,0.60782 -28.24951,-0.5036 -42.30014,-0.9524 m 25.5933,2.5084 c -16.41888,-1.47087 -33.88935,-2.35463 -51.68899,-5.50707 -16.55497,-2.93199 -31.70445,-1.01666 -48.23557,-0.59787 m 27.93518,2.50126 c -17.28339,-0.80549 -32.60735,-0.64864 -47.833,-0.39419 -14.69635,0.24561 -31.69528,-2.18666 -47.12954,-5.25423 m 25.01664,2.56072 c -17.11031,-1.0056 -32.41136,-0.11353 -47.31357,1.21921 -8.20084,0.73342 -17.27151,0.0627 -26.33366,-1.08673 m 14.45265,-5.3434 c -16.24541,-1.3427 -32.71307,-0.59948 -48.18909,-0.25715 -2.48535,0.055 -5.02752,0.0687 -7.61188,0.0519 0.55694,-11.9726 0.22636,-24.58779 0.42221,-36.81349 m -1.60775,29.92091 c -0.67181,-16.60758 0.49341,-33.32784 0.93548,-50.01402 0.37178,-14.03296 0.47385,-27.55721 0.77013,-40.61038 m 2.66819,28.32723 c -0.69497,-15.0703 0.10008,-31.60795 0.21306,-49.34216 1.48642,-0.25141 2.95826,-0.51285 4.41415,-0.7838 6.84973,-1.27477 13.60038,-1.533 20.24496,-1.48577 6.64458,0.0472 13.18357,0.40622 19.62076,0.51491 m 274.64088,132.36348 -8.03914,-0.24822 m -312.96287,-53.98827 0.0832,-7.1753 m 73.75217,53.78007 -7.45348,-0.23014 m 137.23585,-123.27059 9.50771,0.0439 m 290.77991,136.73597 -8.47252,-0.2616"
       style="fill:none;stroke:#2a2a2a;stroke-width:1;stroke-linecap:butt;stroke-miterlimit:4;stroke-opacity:1;stroke-dasharray:none;stroke-dashoffset:0"
       inkscape:connector-curvature="0"
       sodipodi:nodetypes="ccccc" />
    <text
       sodipodi:linespacing="125%"
       id="text7653"
       y="356.23425"
       x="450.73141"
       style="font-size:74.88690186px;font-style:normal;font-variant:normal;font-weight:normal;font-stretch:normal;line-height:125%;letter-spacing:0px;word-spacing:0px;fill:#000000;fill-opacity:1;stroke:none;font-family:Serif;-inkscape-font-specification:Serif"
       xml:space="preserve"><tspan
         style="font-style:normal;font-variant:normal;font-weight:normal;font-stretch:normal;font-family:Sketch Block;-inkscape-font-specification:Sketch Block"
         y="356.23425"
         x="450.73141"
         sodipodi:role="line"
         id="tspan7657">mapping</tspan></text>
    <path
       sodipodi:nodetypes="ccccc"
       inkscape:connector-curvature="0"
       inkscape:original-d="m 311.13611,740.06973 643.82666,0 1.41421,286.03797 -643.82666,0 z"
       inkscape:path-effect="#path-effect7663"
       id="path7661"
       d="m 319.33605,744.26848 c 17.69212,-0.78307 32.99683,0.006 48.97766,-0.0269 9.73098,-0.0198 19.753,-0.23349 29.6079,-0.65981 m -17.51979,-3.4616 c 17.55523,-0.51911 32.2452,-0.25147 46.79024,-0.73797 6.33354,-0.21184 13.50902,-0.42704 21.00543,-0.76218 m -14.26656,2.00093 c 17.72884,0.78324 33.74892,0.42117 51.30186,1.25734 8.63086,0.41115 16.68839,0.29504 24.49309,-0.0475 m -12.32607,-2.33477 c 15.61566,0.92029 31.97013,1.59292 45.94376,4.75726 12.60341,2.85406 30.63216,-0.90349 48.17458,-4.29893 m -35.07751,-2.62294 c 15.9809,0.009 34.51846,-0.33372 53.5451,-1.01172 13.2359,-0.47165 24.29344,0.0201 35.55281,0.79353 m -23.46523,5.04601 c 17.33784,-0.50986 35.07605,0.11543 55.21225,0.32843 10.70352,0.11322 19.34606,-0.15566 27.49752,-0.71612 m -20.83106,-2.11136 c 16.1993,1.07482 34.17851,0.93265 52.5059,2.8431 9.05463,0.94386 17.22077,1.1254 25.09463,1.23384 m -17.45148,-2.12391 c 17.71003,0.91015 32.22944,-0.98575 46.65344,-2.98102 5.84126,-0.80802 12.40402,-1.07431 19.23975,-1.19743 m -18.39111,-2.43525 c 17.54692,0.21943 34.20754,2.26279 52.64182,6.80846 15.54631,3.83353 28.90414,-0.27914 43.27625,-4.1841 m -26.08036,4.62971 c 16.22654,0.50066 34.0123,-0.3538 52.04104,-1.03936 14.78168,-0.56209 27.11405,-0.22668 39.27258,-0.11298 m -26.42505,-2.92959 c 8.37431,0.33754 17.20321,0.51981 26.32873,0.81272 0.5586,8.36386 1.38101,16.82614 2.33472,25.6099 1.26557,11.65615 1.1646,22.29508 1.20105,33.06128 m 0.33032,-24.65121 c -0.39135,17.51002 -0.44506,33.55076 -1.5846,50.64513 -0.91293,13.69501 0.0109,27.64737 0.90244,42.52689 m -4.50038,-22.58415 c 0.21041,16.8723 1.52912,32.70282 4.37598,48.12989 1.91369,10.37021 0.74098,22.02738 -1.00865,33.85126 m 1.64124,-21.99649 c -0.28209,16.79135 -0.46908,35.18258 -1.66669,55.56743 -0.56361,9.59325 -0.60257,17.36061 -0.51719,24.46266 M 953.942,957.67039 c -0.59117,15.51606 0.78165,33.86757 2.13428,51.57601 0.38436,5.0321 0.48351,9.9972 0.38478,14.9676 -5.07024,0.2458 -10.35609,0.4974 -15.7582,0.837 m 12.79197,-5.8494 c 0.0641,1.27 0.12302,2.5584 0.17789,3.8644 -14.79005,0.049 -30.14811,2.5694 -44.32907,6.6042 -12.82871,3.6501 -27.02903,1.1626 -40.38278,0.1504 m 25.48712,-7.7318 c -15.98052,1.0023 -33.58148,1.7221 -50.78338,5.1947 -16.2813,3.2867 -31.19389,-0.08 -46.09548,-1.2694 m 27.20844,1.7072 c -17.32791,0.5918 -33.02193,-0.1351 -49.08726,-0.3831 -15.43152,-0.2382 -31.66971,-0.1894 -47.10794,-0.4816 m 32.00386,0.3256 c -17.52856,0.446 -33.84455,-0.2641 -51.54807,-0.8206 -11.40246,-0.3584 -22.45615,-0.1055 -33.99441,0.3084 m 17.63538,-0.515 c -16.83674,0.7283 -34.33523,-0.4191 -52.99771,-1.2309 -14.99504,-0.6522 -27.11805,0.2483 -39.4862,1.4413 m 27.3214,0.8718 c -16.96351,1.0382 -32.56678,0.2704 -47.72028,0.7924 -13.48999,0.4647 -29.15388,-0.5893 -43.80293,-2.0621 m 28.44199,2.441 c -17.56509,0.01 -34.09644,-0.5108 -52.31368,-1.5313 -17.49854,-0.9802 -33.1466,0.7856 -51.052,2.5684 m 29.82712,-6.7209 c -17.03663,-0.2548 -33.24802,0.2726 -49.77103,0.8478 -14.78661,0.5149 -28.57077,0.1611 -41.07405,0.1709 m 23.8707,3.6685 c -15.71706,-0.8922 -35.0805,0.4058 -55.24056,1.2036 -19.93184,0.7888 -32.30823,0.032 -47.28776,0.054 m 28.06725,-7.2066 c -14.48533,-0.8889 -27.59922,-0.2395 -40.96692,0.1687 0.0516,-2.9028 0.0911,-5.8172 0.10131,-8.7619 0.0453,-13.02187 0.90775,-25.81641 2.78542,-37.98198 m -3.42422,24.66969 c 1.01081,-17.40923 1.18671,-31.97056 3.77172,-45.94206 1.10139,-5.95279 1.31341,-12.85198 1.25539,-20.07649 m -3.25797,10.07091 c -0.082,-16.42588 0.93765,-32.05923 3.03409,-46.16141 1.57144,-10.57055 0.22825,-23.73399 -1.26427,-36.26217 m 1.49287,20.60332 c -0.7205,-16.03496 -2.00542,-33.59447 -5.74286,-50.75539 -1.86401,-8.55879 -1.62669,-16.6173 -0.64455,-24.35563 m 8.17077,18.8965 c -0.37375,-16.70866 -0.14788,-33.31388 -0.19229,-49.98936 -0.0292,-10.96512 -0.305,-22.30515 -0.7852,-34.03931 0.38481,-0.0284 0.76935,-0.0573 1.15361,-0.0868 m -4.00588,17.151 c 0.23302,-7.12507 0.31865,-13.94012 0.38658,-20.66506 10.14851,-0.0883 20.25722,0.026 30.76359,-0.39879 17.23163,-0.6967 33.00169,0.12033 49.71988,0.39694 m -72.96146,6.48242 c 16.57266,0.75546 34.28112,-0.73871 52.8338,-2.24264 11.9059,-0.96512 22.04616,-0.84942 31.91752,-0.84471 m -17.75084,-1.43332 c 16.67207,-1.13834 32.40474,-0.38799 47.20093,-1.14775 9.73803,-0.50003 21.66002,-0.34339 34.16498,-0.16907 m -17.87692,-0.0654 c 16.6534,-0.19131 31.26674,-0.2419 43.81031,-0.73817 10.43144,-0.4127 27.97318,0.76998 45.49991,2.70347 m -25.89129,-2.94913 c 16.14438,0.71022 33.47714,-3.2e-4 50.45515,0.0269 14.955,0.024 29.15383,0.10605 43.22097,0.29841 m -25.6734,1.90113 c 16.98216,0.53676 33.67517,-1.17785 51.00153,-3.50032 13.35284,-1.78985 25.13792,-0.79612 36.28043,-0.19026 m -25.47524,8.63568 c 15.77072,0.17268 32.63501,-0.81769 47.91241,-2.46104 12.95564,-1.39361 28.60897,-0.25338 44.43276,0.39777 m -23.96006,-3.31977 c 16.73593,-0.20048 32.71028,-0.39291 48.13058,-1.14831 6.64238,-0.3254 13.68091,-0.29489 20.82088,-0.0911 m -15.97436,6.77913 c 16.208,0.82812 33.18415,-1.19678 49.58011,-3.55518 15.90286,-2.28747 33.54184,0.53003 52.21343,2.02429 m -24.84707,-2.21596 c 16.71713,-0.43659 31.23979,1.19019 43.72824,3.58229 11.46881,2.1968 30.13879,0.33865 46.29417,-0.0245 m -23.98763,-5.62787 c 15.57945,-0.0276 32.49298,-0.79137 47.52972,-2.35154 0.21303,-0.0221 0.42652,-0.0433 0.64045,-0.0635 -0.66581,6.84701 -0.89184,14.6335 -1.12235,22.93891 m 2.08545,-8.69519 c 0.64688,16.6719 0.0746,32.4969 -0.0266,47.5011 -0.0787,11.66875 0.21068,25.05081 0.61554,37.82124 m 2.79089,-24.9564 c -1.04733,17.12721 -1.44602,32.57722 -4.56466,47.74692 -2.76898,13.46884 -0.46989,29.41141 0.17676,44.69975 m 0.62871,-21.35882 c -0.94631,17.14593 0.73544,33.83763 1.99777,51.5477 0.64436,9.04025 0.39537,17.17688 -0.27511,24.82696 m 2.40219,-17.71474 c -0.67343,15.96213 0.0259,33.63391 -0.16255,50.94684 -0.1002,9.20278 -0.20267,18.06558 -0.43215,26.87878 m -1.10889,-18.5057 c 0.50374,9.2291 0.0207,19.2706 -0.96606,29.5258 -7.579,0.3126 -15.40414,0.7297 -23.31051,1.0467 -8.54855,0.3428 -15.99422,0.34 -23.01393,0.1915 m 20.87644,-3.7308 c -16.95551,-0.4282 -35.32726,-0.6446 -56.00545,-1.9411 -15.98447,-1.0022 -27.19355,-0.4213 -39.18852,-0.044 m 28.58524,1.6218 c -17.41045,0.2366 -34.49286,-0.4283 -53.51689,-1.3126 -18.49649,-0.8598 -31.9984,-0.096 -46.9822,-0.1316 m 32.10716,-1.8289 c -16.46325,0.6654 -33.90114,1.8523 -51.71278,5.5777 -14.68719,3.0719 -27.50298,0.598 -40.37907,-1.1642 m 24.32316,-0.2805 c -17.18284,1.1108 -34.55879,-0.1546 -53.65375,-0.4655 -19.01308,-0.3095 -31.71675,-0.7713 -45.33146,-2.2764 m 24.33701,1.956 c -17.06376,-0.2639 -32.78052,0.5228 -48.3218,1.5861 -13.61659,0.9316 -28.73225,-0.7911 -43.06409,-3.0208 m 27.97496,-0.9555 c -15.90772,0.5372 -33.68337,-0.022 -51.02951,-0.055 -15.03528,-0.029 -29.39947,0.126 -44.42925,0.3901 m 32.97871,-0.3547 c -16.94611,0.4461 -34.59705,-0.1282 -53.76327,-0.4104 -13.37794,-0.197 -23.74423,-0.1842 -33.64348,-0.2617 m 22.42443,0.793 c -16.84592,0.027 -34.51777,-0.871 -53.59926,-2.5977 -13.18461,-1.1931 -24.36476,-0.6829 -35.93349,-0.165 m 23.21985,7.943 c -16.01698,1.0923 -33.6444,-0.8999 -50.92008,-2.6803 -9.83097,-1.0132 -19.11571,-0.5118 -28.19635,0.5223 m 19.07015,-3.1166 c -7.78058,-0.4521 -16.40938,-0.1804 -25.45185,0.4712 -0.71822,-7.6556 -1.8444,-14.9365 -2.95292,-22.1795 -2.12134,-13.86068 0.72007,-31.66298 2.98032,-47.89981 m 2.12868,25.96966 c 0.0633,-15.67034 -0.17477,-32.59053 -0.27459,-47.77514 -0.062,-9.42413 -0.38516,-19.98393 -0.97383,-30.61219 m -1.55458,18.73406 c 0.40074,-17.10041 1.16161,-33.88533 3.77209,-51.65709 1.65688,-11.27977 0.57284,-21.80275 -1.18196,-32.42512 m 0.84296,21.09732 c 0.0356,-17.06386 -1.17858,-33.54463 -3.28238,-50.61805 -1.21692,-9.87597 -0.63881,-19.48283 0.56541,-29.05463 m -1.08936,17.73518 c -1.2112,-16.46283 0.48509,-33.3737 1.72227,-50.12623 0.21902,-2.96565 0.35968,-5.93772 0.44392,-8.91784 10.54638,-0.10481 20.41749,-0.30591 30.52089,-0.67034 m -23.63754,1.00078 c 16.38122,0.58329 33.71799,1.33609 51.16596,4.01918 13.24205,2.03632 25.88316,0.43842 38.94364,-1.29252 m -28.07776,-0.85605 c 16.65474,-0.21867 34.59355,-0.36815 53.81813,-1.12096 17.33948,-0.67899 29.56284,-0.76201 42.32863,-1.92929 m -26.44225,5.77635 c 16.38091,-0.99219 32.95076,0.75087 48.89642,2.21544 8.40125,0.77164 17.48027,0.6286 26.92438,0.21013 m -12.54054,-8.83968 c 17.04546,-1.07422 32.56442,0.56371 47.74758,1.66861 7.03852,0.51221 14.83794,0.63003 22.95398,0.68064 m -13.04621,-0.35316 c 16.12586,-1.07447 32.70141,-0.0649 48.1036,-0.19076 12.80872,-0.10469 27.87735,1.38068 43.04848,4.22764 m -28.73301,-1.08269 c 15.84391,0.70104 33.4942,-0.20703 50.45534,-0.60198 7.70369,-0.17938 15.18297,-0.2965 22.52417,-0.46091 m -16.06345,-2.30876 c 16.42667,-0.23588 33.53747,2.15583 50.5917,6.42592 9.18522,2.29982 18.21667,1.80097 27.28343,0.5031 m -17.02418,-4.96071 c 17.44671,-0.97395 34.09936,0.86381 52.2864,2.54355 7.91943,0.73143 15.25379,0.57507 22.37642,-0.0549 m -17.94353,-1.15274 c 15.57953,-0.96488 32.69667,0.75027 48.10393,2.27011 9.05666,0.89338 18.55204,0.16997 27.72282,-1.24999 m -14.78596,1.53569 c 16.49915,0.9097 32.61328,-2.11834 47.82994,-6.3443 8.2312,-2.28595 17.19493,-1.90224 26.20769,-0.8587 m -20.68705,5.87013 c 9.02648,-0.2779 19.00001,-0.0498 29.54444,0.42379 0.89787,7.60459 2.13286,15.35416 3.53427,23.1305 3.06764,17.02208 0.69551,31.62343 0.97475,46.98804 m -1.48607,-31.43427 c 0.36489,16.11671 0.75925,33.09125 1.99698,49.27878 0.83782,10.9573 -0.13718,22.6874 -1.86156,34.74169 m 2.62322,-18.79365 c -0.97423,16.8721 -0.7819,32.18573 -2.59597,46.57129 -0.84095,6.66877 -1.01424,14.4186 -1.08311,22.56559 m 0.39896,-11.35663 c -0.89246,16.95449 -1.22485,33.27462 -3.90851,49.79781 -1.70962,10.52604 -0.47616,20.90978 1.56369,31.05119 m 1.70936,-20.9056 c 0.24651,17.55546 0.72239,33.30379 1.91503,49.93419 0.32745,4.5661 0.40449,9.1499 0.29998,13.7503 -9.33956,0.05 -19.39529,0.1654 -29.62754,0.3355 m 25.39778,-6.7668 c -17.15456,-0.045 -32.15514,0.7562 -46.48971,2.2422 -12.42491,1.288 -28.54774,-0.1256 -43.81843,-1.3292 m 24.38341,3.5446 c -17.13745,1.0468 -34.91769,-0.8917 -54.74753,-2.6803 -8.40234,-0.7578 -15.45108,-0.8478 -21.86555,-0.6816 m 16.29731,4.5599 c -17.73772,-1.1105 -33.18,1.0523 -49.55186,3.1452 -6.89874,0.8818 -13.66821,0.8146 -20.24073,0.2665 m 19.37256,-3.6109 c -17.61997,-0.956 -34.7237,0.1363 -54.14568,0.3834 -8.86693,0.1129 -16.5319,-0.1495 -23.7808,-0.7131 m 22.14907,0.2951 c -15.60764,-0.1279 -34.68634,-1.0959 -54.03751,-3.2538 -12.0554,-1.3444 -21.34848,-0.8518 -29.83001,-0.093 m 21.61894,4.846 c -15.76224,-1.0658 -34.18437,-1.1811 -52.53351,-3.554 -18.14141,-2.3461 -33.71563,-0.1396 -51.61548,-0.2416 m 29.25851,5.0938 c -17.22722,1.11 -31.69315,-2.0939 -45.06778,-6.235 -6.76449,-2.0945 -15.23053,-1.9658 -24.12461,-1.2243 m 13.15911,3.0407 c -17.72807,0.046 -31.83228,0.5847 -45.47764,1.7226 -5.52594,0.4609 -12.21832,0.3759 -19.47736,-0.025 m 7.93352,2.5844 c -17.35548,0.5636 -33.64015,-2.2195 -50.89193,-6.6996 -7.67394,-1.9929 -14.98949,-2.1783 -22.09873,-1.7396 m 20.93019,8.3412 c -16.61789,0.1273 -33.53314,-0.5036 -50.61893,-1.5039 -10.48392,-0.6139 -20.31849,-0.7967 -29.80634,-1.2421 m 16.96025,-3.6016 c -15.25917,0.1798 -28.84001,0.7989 -42.90853,2.2581 0.0229,-2.1431 0.0322,-4.2627 0.0178,-6.3569 -0.0506,-7.3253 -0.18864,-15.55 -0.42009,-23.89757 m 2.94176,14.54587 c -0.92081,-16.59918 -1.9682,-32.91293 -5.63337,-48.73157 -1.57879,-6.81396 -1.86621,-13.99442 -1.71785,-21.34016 m 5.06999,16.68846 c -0.22766,-17.17384 0.88521,-35.33067 2.9248,-55.97737 1.00288,-10.15208 0.50104,-18.42291 -0.75104,-26.23183 m -3.2687,25.33773 c -0.45566,-16.63628 -0.0372,-34.49996 0.10854,-53.54409 0.0679,-8.87301 0.26456,-16.33416 0.65595,-23.10642 m -1.61326,16.0272 c 0.0272,-16.73576 0.66768,-32.80164 2.24106,-48.40341 1.23837,-12.27977 -0.83798,-26.37332 -3.8228,-40.72321 m 1.83644,24.23481 c -0.11189,-10.73113 0.17501,-21.88514 0.77312,-32.58775 5.6034,0.30873 11.27443,0.71557 17.00423,1.3091 7.46658,0.77345 14.33423,0.85917 20.89261,0.65534 m -35.6229,-4.59312 c 17.71962,-0.46354 33.46141,2.07784 50.37218,6.20731 12.63614,3.08565 24.98379,1.23484 37.34575,-0.38489 m -26.69504,-5.05614 c 16.92709,0.61911 32.57938,-0.14884 47.72031,-0.41053 8.22573,-0.14217 17.89161,0.11495 28.2681,0.6453 m -13.80877,-2.0984 c 17.14618,0.0364 33.96627,-0.10455 51.90378,-0.3008 14.53868,-0.15907 27.39336,0.43605 40.60887,1.47296 m -27.8769,4.17154 c 16.80962,-0.0456 34.83666,-0.10629 54.50163,-0.3281 9.25446,-0.10438 17.25003,-0.11733 24.92236,-0.10713 m -18.37661,-1.0102 c 15.6521,-0.24611 32.01526,-0.64021 46.02576,-1.91392 12.96511,-1.17867 30.08397,0.26129 45.07044,1.26946 m -23.44678,-2.71068 c 15.98917,0.3006 32.43665,0.3051 47.33806,0.87482 8.82917,0.33755 19.2013,0.70954 30.01335,1.47246 m -16.66074,2.65295 c 16.82688,0.68298 32.44071,0.18407 47.33756,0.54646 14.48374,0.35234 31.81368,-0.69522 47.10169,-2.16884 m -31.44131,3.28941 c 16.77326,-0.87439 34.98797,-0.66573 54.9665,-1.99557 9.44886,-0.62895 17.06279,-0.51408 23.89289,-0.0776 m -16.22306,-4.31678 c 15.69771,0.22796 32.22482,0.82178 46.65464,2.4608 14.23263,1.61661 34.70169,1.20542 54.96961,3.48431 m -29.83154,-5.52361 c 17.74623,-0.3828 31.68947,-0.9461 45.04013,-2.87086 5.24542,-0.75623 11.73708,-0.87644 18.87072,-0.71035 0.39577,4.29167 1.05392,8.70035 1.81657,13.13467 m -6.4109,-7.18946 c 2.4401,0.12492 4.92713,0.19868 7.4519,0.23033 -0.1743,14.26752 0.78713,27.26765 1.36773,40.49234 0.51131,11.64654 0.0101,24.90913 -0.76939,38.50125 m -2.05739,-24.28955 c 0.76578,16.58099 1.37036,32.85696 3.82878,48.59491 1.90038,12.1656 1.15392,25.81045 1.03546,39.66994 m -4.20254,-25.31768 c 1.03903,16.01677 1.60986,33.65241 4.62158,50.9468 1.21259,6.96315 1.43146,13.84468 1.2316,20.76942 m -4.8576,-10.00894 c -0.32693,16.33459 1.24038,31.45955 3.5013,44.41146 1.98623,11.37827 0.79151,29.40285 0.86846,46.53353 m -2.57503,-28.55288 c 0.16641,14.14592 -0.0651,28.06068 -0.51534,42.41328 -2.9488,0.1094 -5.90685,0.2372 -8.87259,0.3894 -10.83235,0.5558 -20.82513,0.5943 -30.513,0.7524 m 18.0126,0.9669 c -16.1892,1.001 -31.71014,-1.6267 -45.12309,-4.8678 -12.47504,-3.0144 -31.54076,-0.7859 -49.35779,-1.1542 m 31.30999,1.7553 c -17.756,-0.8739 -33.36156,0.6871 -50.12606,2.0239 -15.78872,1.2591 -32.02801,-0.6406 -48.97223,-2.3622 m 26.69115,0.6002 c -16.581,-0.5368 -32.35386,1.1426 -47.03692,3.4183 -5.9806,0.9269 -12.76766,0.788 -19.96188,0.042 m 10.88243,-4.6597 c -15.8342,-0.8739 -31.99726,0.5793 -45.99831,1.7505 -12.23428,1.0234 -28.26934,1.1506 -42.77752,2.7027 m 20.68784,0.3674 c -17.65526,-0.4096 -31.90805,0.5108 -45.72378,1.5041 -11.23029,0.8075 -26.94004,0.053 -42.52628,-0.6571 m 25.39387,-3.5035 c -15.61631,-0.7372 -33.57096,0.7865 -50.75626,2.3794 -7.80551,0.7234 -15.52807,0.9441 -23.31837,1.1093 m 19.65025,-1.8356 c -17.03688,0.5559 -33.89258,0.9751 -51.68508,2.9528 -10.16678,1.1301 -19.77718,0.7851 -29.45892,0.076 m 17.84391,-3.8451 c -17.22797,0.2365 -33.55815,-0.7567 -50.7006,-2.297 -11.96537,-1.0751 -23.4133,-0.6921 -34.84555,-0.4165 m 19.33722,5.0578 c -17.19072,1.0924 -31.51185,-0.6781 -44.57562,-1.9967 -8.68971,-0.8772 -20.85501,-0.3992 -33.32571,0.2801 m 13.9633,-1.5926 c -15.95291,0.1366 -32.84982,-0.1499 -48.51386,-0.4922 -1.60177,-0.035 -3.21781,-0.063 -4.84492,-0.086 0.29507,-7.4462 0.38409,-14.7876 0.52274,-22.1141 m -0.39672,18.3804 c -0.69222,-16.3442 0.41168,-32.71184 1.44853,-48.15758 0.89628,-13.35183 0.40308,-28.4229 0.67875,-42.83135 m -0.32591,27.76427 c 0.15412,-17.61973 -0.74333,-34.65236 -1.96996,-53.95366 -1.14085,-17.95162 -0.87622,-31.05593 -1.99322,-45.65676 m 0.15887,29.56671 c -0.71039,-16.95436 0.53866,-32.94637 1.88603,-48.84078 1.30053,-15.34187 0.29847,-33.36162 0.8611,-52.01667 m -3.781,30.62135 c -0.5373,-17.15446 0.73467,-32.41126 2.40546,-47.22738 0.89819,-7.96484 0.96632,-17.26967 1.0232,-27.05165 0.21452,-0.0195 0.42904,-0.0393 0.64357,-0.0593 M 308.2262,753.717 c 0.11391,-6.0821 0.20095,-11.91201 0.31216,-17.59426 11.13156,0.20972 22.34814,0.93903 33.98664,1.49777 16.00945,0.76859 30.24495,0.25009 45.26144,0.30941 m -73.67809,2.93672 c 15.79835,0.0546 33.43374,-0.003 50.34599,-0.0274 14.22308,-0.0202 28.17644,0.4684 42.32402,1.42804 m -22.44651,2.91969 c 15.70721,0.11776 33.21022,-1.53295 49.63511,-4.59382 13.15865,-2.4522 26.56616,-1.21719 39.86576,-1.02551 m -24.09126,1.27228 c 16.09911,1.13795 34.11952,-0.58922 52.39659,-1.77802 13.05723,-0.84929 23.93241,-0.2375 34.38093,0.54248 m -19.88702,-1.1242 c 15.77051,0.52866 32.10862,1.34154 46.29913,3.99187 7.54306,1.40881 16.76515,1.26582 26.55043,0.76934 m -14.65734,-4.96428 c 16.30759,0.6108 31.73507,1.83513 45.25975,5.46838 8.10856,2.17828 18.56281,1.61964 29.33785,0.67989 m -20.30273,-2.12477 c 15.58034,0.71039 34.71799,0.41723 54.17425,1.23004 15.81526,0.6607 27.29424,-0.0577 38.94035,-0.83586 m -19.96405,-5.02006 c 15.83479,-0.75582 33.47937,-0.15265 50.42799,-0.46439 8.96942,-0.16498 17.18567,-0.0415 24.78184,0.23747 m -20.72145,1.32557 c 16.69097,0.90188 34.10762,1.10794 52.36889,3.30805 10.64868,1.28295 19.89481,0.52037 28.6832,-0.97737 m -22.17059,0.30936 c 15.58886,-0.0731 33.25128,-0.55789 49.71721,-1.64059 7.90338,-0.51967 15.96108,-0.64212 24.10706,-0.72221 m -14.87338,1.42548 c 17.01868,0.22802 33.90599,0.95822 51.73979,2.8983 10.3994,1.13131 19.65773,0.26199 28.46248,-1.4545 m -21.33534,-6.54938 c 7.0069,0.0218 13.71107,0.1445 20.30232,0.38095 0.027,10.41699 -0.20775,21.09759 -0.0344,32.08695 0.1217,7.71509 0.19451,14.94559 0.26294,22.04435 m 5.68871,-15.0545 c 0.38225,17.4193 -1.36356,34.3564 -4.37412,53.07878 -1.73438,10.7859 -0.87136,19.79285 0.81479,28.19825 m -4.41292,-21.36583 c 0.0736,17.29133 1.08447,33.12877 3.00888,49.44214 0.90563,7.67717 1.07916,15.45055 1.09503,23.20821 m -1.8515,-14.21723 c 0.66497,15.66186 -0.2544,34.17143 -0.98367,52.50561 -0.59963,15.07509 0.82108,27.97715 2.92643,41.50754 m -3.07678,-26.32175 c 0.037,16.47224 0.39484,34.14579 0.95812,52.47779 0.18284,5.9507 0.20447,11.4496 0.11457,16.6692 -8.35133,-0.2861 -16.95742,-1.2105 -25.64674,-2.1779 m 29.85359,-4.5036 c -3.9e-4,0.063 -7.7e-4,0.1261 -0.001,0.1892 -16.79538,1.1095 -33.65151,1.2455 -51.09571,3.7062 -8.44377,1.1911 -16.82139,0.9562 -25.41713,0.1287 m 18.3881,0.9147 c -16.60865,0.7283 -33.18198,-0.2131 -49.57988,-0.6567 -10.29246,-0.2784 -20.66493,-0.1695 -30.92034,-0.01 m 16.33426,-0.6501 c -17.39174,0.3547 -33.23581,-0.9922 -49.71613,-2.9807 -11.23276,-1.3554 -23.09808,-1.0108 -35.41973,-0.8563 m 25.96833,7.9506 c -17.15493,0.8557 -33.07272,-0.4162 -49.22408,-1.2857 -12.25801,-0.66 -25.41978,-0.6758 -38.82787,-1.1982 m 19.05935,-1.6299 c -17.12723,0.027 -32.13025,-1.732 -46.43503,-5.1954 -7.97267,-1.9302 -17.31573,-1.7533 -26.79722,-1.2599 m 13.72813,3.3932 c -15.83466,0.7376 -33.12838,0.1508 -49.3616,0.4917 -8.40054,0.1765 -17.19333,0.1065 -26.20581,-0.064 m 21.4053,1.8328 c -16.27192,-0.9833 -33.62417,0.1644 -50.86524,0.4928 -15.99504,0.3046 -29.96322,0.3461 -43.2809,0.9214 m 22.37337,1.1688 c -16.04404,0.6555 -32.99959,-0.2507 -48.97866,-0.7934 -6.92052,-0.235 -14.18753,-0.1518 -21.63528,0.1172 m 15.04154,-1.3593 c -17.34643,0.1453 -33.7956,-1.0571 -51.38412,-3.1993 -13.59612,-1.6559 -24.97476,-0.017 -35.40809,1.9363 m 20.04716,-1.5529 c -17.13703,0.9649 -33.85687,-0.6465 -51.54831,-1.9146 -13.87347,-0.9945 -26.30892,0.1701 -38.80658,1.6726 0.13909,-3.1855 0.27347,-6.3453 0.37178,-9.5176 9e-5,-0 1.8e-4,-0.01 2.7e-4,-0.01 m 22.82736,13.3846 c -6.08615,-0.3078 -12.43759,-0.5154 -18.91885,-0.7569 -0.18559,-10.6534 -0.70549,-21.3939 -0.99985,-32.77493 -0.31894,-12.33119 -0.90604,-22.881 -2.12345,-33.26024 m 1.21404,21.50622 c 0.19949,-17.80157 -1.15363,-33.96247 -3.22779,-51.87543 -1.49151,-12.88109 -0.0966,-24.38552 1.97871,-35.91615 m -2.78532,23.44901 c -0.31863,-16.32637 1.08074,-33.6782 3.52643,-51.056 1.58095,-11.23341 0.7285,-21.81136 -0.50713,-32.31509 m 4.66727,20.94373 c 1.06485,-16.81794 -0.30448,-33.38446 -0.68534,-50.1807 -0.24619,-10.85748 -0.69438,-21.25155 -1.58956,-31.27902 m -2.36014,20.73572 c 0.28211,-16.93671 0.51842,-34.35419 1.80341,-53.05173 0.1281,-1.86393 0.22498,-3.67079 0.29473,-5.42664 15.14069,-0.82472 28.22459,2.2165 41.9443,5.12053 m -35.3176,3.17858 c 17.75532,0.62811 31.65931,-0.43553 45.01278,-1.28553 11.73103,-0.74673 28.64329,0.0986 43.99917,0.81029 m -26.0462,-2.40763 c 16.12641,0.52813 34.08967,0.0373 52.25985,0.10906 14.00315,0.0553 26.28614,-1.24464 38.90698,-3.81758 m -23.53132,6.09927 c 16.02595,0.72789 33.31187,-1.36016 49.96304,-4.07466 16.3846,-2.67104 33.17998,-0.11375 50.32805,-0.0815 m -30.79683,3.39388 c 16.33629,-0.25532 35.21121,-0.91834 55.59567,-2.78891 10.11871,-0.92854 18.25462,-1.10448 25.77772,-1.2196 m -21.25424,-2.15118 c 16.53613,0.5288 34.01522,1.70961 52.04086,5.14031 14.06078,2.67609 26.34122,0.0105 38.78237,-3.11881 m -23.32767,-0.52249 c 16.89091,-1.11981 33.17914,0.39733 49.55236,1.17646 13.65462,0.64976 27.08215,0.26029 39.77022,0.17104 m -24.30804,1.3519 c 16.17091,-0.81993 31.50109,-1.09776 44.54889,-3.3081 8.12852,-1.377 19.02074,-1.20223 30.05468,-1.0832 m -16.64433,5.04405 c 15.85276,-0.13637 32.85384,0.50972 48.54127,1.50399 12.45752,0.78957 26.1157,-0.29026 39.49818,-1.75794 m -19.06901,2.94098 c 16.5542,-0.92909 33.65391,-0.82731 50.9471,-2.51507 15.638,-1.52621 29.9058,-0.33137 44.17336,-0.15426 m -28.99393,-0.40804 c 17.0702,0.3226 32.15801,-0.36245 47.20628,-1.0873 -0.02,0.24497 -0.0399,0.48993 -0.0599,0.73488 -0.8667,10.6309 -0.31221,21.6313 0.4235,32.33371 m 4.05207,-20.94357 c -0.60088,16.80882 -0.71986,33.33162 -2.37744,50.01665 -1.30464,13.13239 -0.20197,25.67511 0.76866,37.64244 m -1.81362,-21.70016 c 0.0466,16.99123 1.78648,34.07488 5.08702,52.23138 2.04844,11.26859 1.12222,21.28655 -0.46294,31.11539 m -1.44183,-22.56596 c 0.29165,16.15343 -0.24086,33.85487 -1.01078,51.54829 -0.32804,7.53857 -0.30902,14.66893 -0.13805,21.62728 m -2.92905,-13.34752 c 1.13893,17.6734 0.94203,32.23048 2.59808,46.68019 1.27627,11.13591 0.21419,25.62014 -1.02932,40.40224 m 0.0213,-27.6865 c -0.20468,8.349 -0.3723,17.0316 -0.68806,26.066 -8.69471,0.7095 -17.53796,1.7716 -26.7157,3.2047 -15.34039,2.3953 -27.47601,0.4201 -39.35754,-0.8975 m 28.50642,-0.8249 c -16.70006,0.355 -34.09121,-0.1797 -52.3142,-0.5745 -12.50597,-0.2709 -23.83714,-0.6894 -35.49182,-1.6378 m 25.65936,2.2045 c -16.21775,0.4372 -34.79132,0.3529 -54.36527,1.0661 -12.42363,0.4527 -21.90394,-0.058 -30.68052,-0.9929 m 25.44236,0.1215 c -17.17377,-0.6468 -34.64341,-0.7949 -53.9272,-2.3786 -10.43124,-0.8566 -19.115,-0.7979 -27.28803,-0.5746 m 16.15012,4.0663 c -16.09877,-0.8565 -33.27444,-1.3909 -49.79893,-4.1557 -14.74919,-2.4678 -29.63324,0.6354 -44.35401,3.4389 m 26.34084,0.3739 c -17.50071,0.5097 -32.50803,-0.3689 -47.5559,-1.0941 -13.14902,-0.6336 -29.44284,0.1407 -45.65821,0.886 m 32.15918,-3.4606 c -16.31732,-0.701 -33.29164,0.4132 -49.85349,1.2035 -14.93785,0.7129 -30.47744,1.223 -46.39718,3.2673 m 27.33041,-3.0988 c -17.54661,0.7472 -33.44366,1.38 -50.34493,4.1558 -16.82879,2.7638 -34.52756,-0.976 -53.78634,-2.9809 m 32.66293,-3.984 c -17.14596,-0.027 -33.42272,1.1955 -50.26315,3.5547 -12.30723,1.7241 -24.5831,1.0507 -37.01973,0.7297 m 21.59368,3.7346 c -16.61802,-0.9566 -33.84737,-1.2566 -51.54863,-3.8002 -11.10792,-1.5963 -21.57924,-0.7694 -32.18067,0.5881 -0.10356,-4.7948 -0.24326,-9.4423 -0.53128,-14.2194 m 16.33592,16.1473 c -4.26599,0.1802 -8.49314,0.2312 -12.71593,0.1852 -0.52754,-12.7334 -1.01335,-26.3948 -2.47631,-40.03637 -1.48303,-13.82869 -0.95162,-26.22303 -0.91631,-39.05882 m 2.24948,18.66022 c 0.98247,-16.64443 -1.38128,-32.08631 -3.9392,-46.24331 -1.17979,-6.52963 -1.29636,-14.2269 -1.07342,-22.356 m 6.44887,15.88039 c 0.15418,-17.61904 -0.60042,-32.93094 -1.58715,-48.81303 -0.97323,-15.66506 0.85682,-33.44475 2.91959,-51.06125 m -2.55683,31.38551 c -1.1573,-15.81691 -1.3523,-34.81377 -3.80119,-54.41958 -1.67487,-13.40902 -1.28624,-23.5259 -1.10278,-33.16193 m 4.85572,22.27345 c 0.61191,-15.40301 -0.70324,-28.80406 -2.3761,-42.11485 1.87201,0.18044 3.73655,0.36276 5.59836,0.54121 6.49212,0.62223 13.68755,0.80855 21.10032,0.9244 m 340.06431,284.79716 -8.04297,0 m -357.3437,-173.48253 -0.0355,-7.1757 m 0.89817,181.66443 -0.0369,-7.4569 m 298.97675,-279.58727 9.50782,0 m 325.08307,286.03797 -8.47656,0"
       style="fill:none;stroke:#2a2a2a;stroke-width:1;stroke-linecap:butt;stroke-miterlimit:4;stroke-opacity:1;stroke-dasharray:none;stroke-dashoffset:0" />
    <text
       sodipodi:linespacing="125%"
       id="text7665"
       y="927.78723"
       x="457.18945"
       style="font-size:108.14710999px;font-style:normal;font-variant:normal;font-weight:normal;font-stretch:normal;line-height:125%;letter-spacing:0px;word-spacing:0px;fill:#000000;fill-opacity:1;stroke:none;font-family:Serif;-inkscape-font-specification:Serif"
       xml:space="preserve"><tspan
         style="font-style:normal;font-variant:normal;font-weight:normal;font-stretch:normal;font-family:Sketch Block;-inkscape-font-specification:Sketch Block"
         y="927.78723"
         x="457.18945"
         id="tspan7667"
         sodipodi:role="line">Client</tspan></text>
  </g>
</svg>
