<?xml version="1.0" encoding="UTF-8" standalone="no"?>
<!-- Created with Inkscape (http://www.inkscape.org/) -->

<svg
   xmlns:dc="http://purl.org/dc/elements/1.1/"
   xmlns:cc="http://creativecommons.org/ns#"
   xmlns:rdf="http://www.w3.org/1999/02/22-rdf-syntax-ns#"
   xmlns:svg="http://www.w3.org/2000/svg"
   xmlns="http://www.w3.org/2000/svg"
   xmlns:sodipodi="http://sodipodi.sourceforge.net/DTD/sodipodi-0.dtd"
   xmlns:inkscape="http://www.inkscape.org/namespaces/inkscape"
   width="1200"
   height="1000"
   id="svg2"
   version="1.1"
   inkscape:version="0.48.4 r9939"
   sodipodi:docname="server-2.svg">
  <sodipodi:namedview
     id="base"
     pagecolor="#ffffff"
     bordercolor="#666666"
     borderopacity="1.0"
     inkscape:pageopacity="0.0"
     inkscape:pageshadow="2"
     inkscape:zoom="0.5"
     inkscape:cx="714.22852"
     inkscape:cy="477.10306"
     inkscape:document-units="px"
     inkscape:current-layer="layer1"
     showgrid="false"
     inkscape:window-width="1596"
     inkscape:window-height="864"
     inkscape:window-x="0"
     inkscape:window-y="16"
     inkscape:window-maximized="0"
     showguides="true"
     inkscape:guide-bbox="true" />
  <defs
     id="defs4">
    <inkscape:path-effect
       tgtlength_rdm="0.3;1"
       tgtlength="5"
       tgtscale="50"
       tgt_places_rdmness="1;1"
       nbtangents="5"
       tremble_frequency="2"
       tremble_size="3.5;1"
       parallel_offset="2;1"
       ends_tolerance="0.1;1"
       strokeoverlap_rdm="0.3;1"
       strokeoverlap="0.3"
       strokelength_rdm="0.3;1"
       strokelength="100"
       nbiter_approxstrokes="6"
       is_visible="true"
       id="path-effect7663"
       effect="sketch" />
    <inkscape:path-effect
       effect="sketch"
       id="path-effect6759"
       is_visible="true"
       nbiter_approxstrokes="50"
       strokelength="100"
       strokelength_rdm="0.3;1"
       strokeoverlap="0.3"
       strokeoverlap_rdm="0.3;1"
       ends_tolerance="0.1;1"
       parallel_offset="5;1"
       tremble_size="10;1"
       tremble_frequency="1"
       nbtangents="5"
       tgt_places_rdmness="1;1"
       tgtscale="10"
       tgtlength="0"
       tgtlength_rdm="0.3;1" />
    <inkscape:path-effect
       effect="sketch"
       id="path-effect6755"
       is_visible="true"
       nbiter_approxstrokes="25"
       strokelength="100"
       strokelength_rdm="0.3;1"
       strokeoverlap="0.3"
       strokeoverlap_rdm="0.3;1"
       ends_tolerance="0.1;1"
       parallel_offset="5;1"
       tremble_size="12;1"
       tremble_frequency="1"
       nbtangents="5"
       tgt_places_rdmness="1;1"
       tgtscale="10"
       tgtlength="100"
       tgtlength_rdm="0.3;1" />
    <inkscape:path-effect
       tgtlength_rdm="0.3;1"
       tgtlength="5"
       tgtscale="50"
       tgt_places_rdmness="1;1"
       nbtangents="5"
       tremble_frequency="2"
       tremble_size="3.5;1"
       parallel_offset="2;1"
       ends_tolerance="0.1;1"
       strokeoverlap_rdm="0.3;1"
       strokeoverlap="0.3"
       strokelength_rdm="0.3;1"
       strokelength="100"
       nbiter_approxstrokes="6"
       is_visible="true"
       id="path-effect6695"
       effect="sketch" />
    <inkscape:path-effect
       tgtlength_rdm="0;1"
       tgtlength="2"
       tgtscale="15"
       tgt_places_rdmness="1;1"
       nbtangents="7"
       tremble_frequency="3.5"
       tremble_size="2;1"
       parallel_offset="1;1"
       ends_tolerance="0;1673142386"
       strokeoverlap_rdm="0.3;1"
       strokeoverlap="0.1"
       strokelength_rdm="1;1"
       strokelength="75"
       nbiter_approxstrokes="7"
       is_visible="true"
       id="path-effect6642"
       effect="sketch" />
    <inkscape:path-effect
       effect="sketch"
       id="path-effect6640"
       is_visible="true"
       nbiter_approxstrokes="7"
       strokelength="75"
       strokelength_rdm="1;1"
       strokeoverlap="0.1"
       strokeoverlap_rdm="0.3;1"
       ends_tolerance="0;1673142386"
       parallel_offset="1;1"
       tremble_size="2;1"
       tremble_frequency="3.5"
       nbtangents="7"
       tgt_places_rdmness="1;1"
       tgtscale="15"
       tgtlength="2"
       tgtlength_rdm="0;1" />
    <inkscape:path-effect
       tgtlength_rdm="0;1"
       tgtlength="2"
       tgtscale="15"
       tgt_places_rdmness="1;1"
       nbtangents="7"
       tremble_frequency="3.5"
       tremble_size="4;1"
       parallel_offset="1;1"
       ends_tolerance="0;1673142386"
       strokeoverlap_rdm="0.3;1"
       strokeoverlap="0.1"
       strokelength_rdm="1;1"
       strokelength="75"
       nbiter_approxstrokes="15"
       is_visible="true"
       id="path-effect6638"
       effect="sketch" />
    <inkscape:path-effect
       effect="sketch"
       id="path-effect6630"
       is_visible="true"
       nbiter_approxstrokes="7"
       strokelength="75"
       strokelength_rdm="1;1"
       strokeoverlap="0.1"
       strokeoverlap_rdm="0.3;1"
       ends_tolerance="0;1673142386"
       parallel_offset="1;1"
       tremble_size="2;1"
       tremble_frequency="3.5"
       nbtangents="7"
       tgt_places_rdmness="1;1"
       tgtscale="15"
       tgtlength="2"
       tgtlength_rdm="0;1" />
    <inkscape:path-effect
       tgtlength_rdm="0;1"
       tgtlength="2"
       tgtscale="15"
       tgt_places_rdmness="1;1"
       nbtangents="7"
       tremble_frequency="3.5"
       tremble_size="2;1"
       parallel_offset="1;1"
       ends_tolerance="0;1673142386"
       strokeoverlap_rdm="0.3;1"
       strokeoverlap="0.1"
       strokelength_rdm="1;1"
       strokelength="75"
       nbiter_approxstrokes="7"
       is_visible="true"
       id="path-effect6626"
       effect="sketch" />
    <inkscape:path-effect
       tgtlength_rdm="0.3;1"
       tgtlength="100"
       tgtscale="15"
       tgt_places_rdmness="1;1"
       nbtangents="11"
       tremble_frequency="3"
       tremble_size="5;1"
       parallel_offset="1;1"
       ends_tolerance="0.3;1"
       strokeoverlap_rdm="0.3;1"
       strokeoverlap="0.3"
       strokelength_rdm="1;1"
       strokelength="109"
       nbiter_approxstrokes="6"
       is_visible="true"
       id="path-effect6622"
       effect="sketch" />
    <marker
       inkscape:stockid="TriangleOutL"
       orient="auto"
       refY="0"
       refX="0"
       id="TriangleOutL"
       style="overflow:visible">
      <path
         id="path3903"
         d="m 5.77,0 -8.65,5 0,-10 8.65,5 z"
         style="fill-rule:evenodd;stroke:#000000;stroke-width:1pt"
         transform="scale(0.8,0.8)"
         inkscape:connector-curvature="0" />
    </marker>
    <marker
       inkscape:stockid="Arrow1Lend"
       orient="auto"
       refY="0"
       refX="0"
       id="Arrow1Lend"
       style="overflow:visible">
      <path
         id="path3764"
         d="M 0,0 5,-5 -12.5,0 5,5 0,0 z"
         style="fill-rule:evenodd;stroke:#000000;stroke-width:1pt"
         transform="matrix(-0.8,0,0,-0.8,-10,0)"
         inkscape:connector-curvature="0" />
    </marker>
    <inkscape:path-effect
       effect="sketch"
       id="path-effect4374"
       is_visible="true"
       nbiter_approxstrokes="15"
       strokelength="75"
       strokelength_rdm="1;1"
       strokeoverlap="0.1"
       strokeoverlap_rdm="0.3;1"
       ends_tolerance="0;1673142386"
       parallel_offset="1;1"
       tremble_size="4;1"
       tremble_frequency="3.5"
       nbtangents="7"
       tgt_places_rdmness="1;1"
       tgtscale="15"
       tgtlength="2"
       tgtlength_rdm="0;1" />
    <inkscape:path-effect
       effect="sketch"
       id="path-effect4372"
       is_visible="true"
       nbiter_approxstrokes="6"
       strokelength="100"
       strokelength_rdm="0.3;1"
       strokeoverlap="0.3"
       strokeoverlap_rdm="0.3;1"
       ends_tolerance="0.1;1"
       parallel_offset="2;1"
       tremble_size="3.5;1"
       tremble_frequency="2"
       nbtangents="5"
       tgt_places_rdmness="1;1"
       tgtscale="50"
       tgtlength="5"
       tgtlength_rdm="0.3;1" />
    <marker
       inkscape:stockid="Arrow1Mend"
       orient="auto"
       refY="0"
       refX="0"
       id="Arrow1Mend"
       style="overflow:visible">
      <path
         id="path3770"
         d="M 0,0 5,-5 -12.5,0 5,5 0,0 z"
         style="fill-rule:evenodd;stroke:#000000;stroke-width:1pt"
         transform="matrix(-0.4,0,0,-0.4,-4,0)"
         inkscape:connector-curvature="0" />
    </marker>
    <marker
       inkscape:stockid="Arrow1MendU"
       orient="auto"
       refY="0"
       refX="0"
       id="Arrow1MendU"
       style="overflow:visible">
      <path
         id="path4214"
         d="M 0,0 5,-5 -12.5,0 5,5 0,0 z"
         style="fill:#373737;fill-rule:evenodd;stroke:#373737;stroke-width:1pt"
         transform="matrix(-0.4,0,0,-0.4,-4,0)"
         inkscape:connector-curvature="0" />
    </marker>
    <marker
       inkscape:stockid="Arrow1Mend8"
       orient="auto"
       refY="0"
       refX="0"
       id="Arrow1Mend8"
       style="overflow:visible">
      <path
         id="path4217"
         d="M 0,0 5,-5 -12.5,0 5,5 0,0 z"
         style="fill:#373737;fill-rule:evenodd;stroke:#373737;stroke-width:1pt"
         transform="matrix(-0.4,0,0,-0.4,-4,0)"
         inkscape:connector-curvature="0" />
    </marker>
    <marker
       inkscape:stockid="Arrow1MendO"
       orient="auto"
       refY="0"
       refX="0"
       id="Arrow1MendO"
       style="overflow:visible">
      <path
         id="path4220"
         d="M 0,0 5,-5 -12.5,0 5,5 0,0 z"
         style="fill:#373737;fill-rule:evenodd;stroke:#373737;stroke-width:1pt"
         transform="matrix(-0.4,0,0,-0.4,-4,0)"
         inkscape:connector-curvature="0" />
    </marker>
    <marker
       inkscape:stockid="Arrow1MendP"
       orient="auto"
       refY="0"
       refX="0"
       id="Arrow1MendP"
       style="overflow:visible">
      <path
         id="path4223"
         d="M 0,0 5,-5 -12.5,0 5,5 0,0 z"
         style="fill:#373737;fill-rule:evenodd;stroke:#373737;stroke-width:1pt"
         transform="matrix(-0.4,0,0,-0.4,-4,0)"
         inkscape:connector-curvature="0" />
    </marker>
    <marker
       inkscape:stockid="Arrow1Mendm"
       orient="auto"
       refY="0"
       refX="0"
       id="Arrow1Mendm"
       style="overflow:visible">
      <path
         id="path4226"
         d="M 0,0 5,-5 -12.5,0 5,5 0,0 z"
         style="fill:#373737;fill-rule:evenodd;stroke:#373737;stroke-width:1pt"
         transform="matrix(-0.4,0,0,-0.4,-4,0)"
         inkscape:connector-curvature="0" />
    </marker>
    <marker
       inkscape:stockid="Arrow1MendUk"
       orient="auto"
       refY="0"
       refX="0"
       id="Arrow1MendUk"
       style="overflow:visible">
      <path
         id="path4274"
         d="M 0,0 5,-5 -12.5,0 5,5 0,0 z"
         style="fill:#585858;fill-rule:evenodd;stroke:#585858;stroke-width:1pt"
         transform="matrix(-0.4,0,0,-0.4,-4,0)"
         inkscape:connector-curvature="0" />
    </marker>
    <marker
       inkscape:stockid="Arrow1Mend8H"
       orient="auto"
       refY="0"
       refX="0"
       id="Arrow1Mend8H"
       style="overflow:visible">
      <path
         id="path4277"
         d="M 0,0 5,-5 -12.5,0 5,5 0,0 z"
         style="fill:#585858;fill-rule:evenodd;stroke:#585858;stroke-width:1pt"
         transform="matrix(-0.4,0,0,-0.4,-4,0)"
         inkscape:connector-curvature="0" />
    </marker>
    <marker
       inkscape:stockid="Arrow1MendOg"
       orient="auto"
       refY="0"
       refX="0"
       id="Arrow1MendOg"
       style="overflow:visible">
      <path
         id="path4280"
         d="M 0,0 5,-5 -12.5,0 5,5 0,0 z"
         style="fill:#585858;fill-rule:evenodd;stroke:#585858;stroke-width:1pt"
         transform="matrix(-0.4,0,0,-0.4,-4,0)"
         inkscape:connector-curvature="0" />
    </marker>
    <marker
       inkscape:stockid="Arrow1MendP6"
       orient="auto"
       refY="0"
       refX="0"
       id="Arrow1MendP6"
       style="overflow:visible">
      <path
         id="path4283"
         d="M 0,0 5,-5 -12.5,0 5,5 0,0 z"
         style="fill:#585858;fill-rule:evenodd;stroke:#585858;stroke-width:1pt"
         transform="matrix(-0.4,0,0,-0.4,-4,0)"
         inkscape:connector-curvature="0" />
    </marker>
    <marker
       inkscape:stockid="Arrow1MendmO"
       orient="auto"
       refY="0"
       refX="0"
       id="Arrow1MendmO"
       style="overflow:visible">
      <path
         id="path4286"
         d="M 0,0 5,-5 -12.5,0 5,5 0,0 z"
         style="fill:#585858;fill-rule:evenodd;stroke:#585858;stroke-width:1pt"
         transform="matrix(-0.4,0,0,-0.4,-4,0)"
         inkscape:connector-curvature="0" />
    </marker>
  </defs>
  <metadata
     id="metadata7">
    <rdf:RDF>
      <cc:Work
         rdf:about="">
        <dc:format>image/svg+xml</dc:format>
        <dc:type
           rdf:resource="http://purl.org/dc/dcmitype/StillImage" />
        <dc:title></dc:title>
      </cc:Work>
    </rdf:RDF>
  </metadata>
  <g
     inkscape:label="Layer 1"
     inkscape:groupmode="layer"
     id="layer1"
     transform="translate(0,-52.36218)">
    <path
       style="fill:none;stroke:#2a2a2a;stroke-width:1;stroke-linecap:butt;stroke-miterlimit:4;stroke-opacity:1;stroke-dasharray:none;stroke-dashoffset:0"
       d="m 203.33599,82.296602 c 17.69196,-0.711231 32.99652,0.1493 48.97719,0.188639 9.73089,0.02396 19.75282,-0.146003 29.60762,-0.528578 M 264.40119,78.4114 c 17.55508,-0.447275 32.2449,-0.107792 46.78978,-0.522458 6.33347,-0.180563 13.50888,-0.364477 21.00522,-0.668331 m -14.26641,1.93433 c 17.72869,0.855077 33.74861,0.564843 51.3014,1.472855 8.63078,0.446474 16.68824,0.365685 24.49285,0.05848 m -12.32591,-2.406686 c 15.61551,0.992127 31.96983,1.736594 45.94329,4.972773 12.60327,2.918848 30.63189,-0.77391 48.17417,-4.104556 m -35.07726,-2.739849 c 15.98074,0.08081 34.51815,-0.190051 53.54463,-0.796212 13.2358,-0.421677 24.29323,0.120059 35.55249,0.943454 m -23.46503,4.953077 c 17.33768,-0.438023 35.07575,0.259111 55.21179,0.543943 10.70344,0.151404 19.3459,-0.07929 27.49727,-0.601566 m -20.8309,-2.18717 c 16.19914,1.146657 34.1782,1.076323 52.50544,3.058618 9.05456,0.97935 17.22062,1.196375 25.0944,1.340309 m -17.45132,-2.196059 c 17.70987,0.981991 32.22913,-0.842068 46.65297,-2.765503 5.8412,-0.778931 12.4039,-1.016125 19.23956,-1.110158 M 675.59865,75.09164 c 17.54677,0.291274 34.20723,2.406469 52.64135,7.023975 15.54618,3.894116 28.90388,-0.157979 43.27587,-4.002352 m -26.08013,4.519893 c 16.22639,0.572497 34.01199,-0.210128 52.04058,-0.82385 14.78155,-0.503188 27.11379,-0.108883 39.27219,0.06372 M 810.3237,78.836382 c 16.27201,0.727722 34.26044,0.869164 52.80617,2.375275 11.94491,0.970055 22.52329,0.922883 33.23907,1.00298 m -19.83366,-4.474464 c 16.18945,0.918737 32.71653,0.368177 48.15779,0.871254 12.37063,0.403037 26.57801,1.063431 40.75312,2.650978 m -28.70101,1.631797 c 16.7912,0.281014 34.69071,-0.47976 54.11836,-1.643989 13.05946,-0.782605 23.03256,-0.278258 32.42866,0.39279 m -19.2187,-1.123377 c 16.2987,0.200057 32.6925,2 48.0757,5.793561 7.2394,1.785275 15.0035,1.744656 22.8919,1.038741 m -16.3577,-9.793063 c 15.9896,-1.075236 33.9432,0.68498 51.8766,1.802138 4.3668,0.272025 8.5241,0.494898 12.5269,0.7141 0.01,5.899144 -0.2823,11.791244 -0.722,17.79718 m -4.138,-18.810874 c 0.652,-0.01263 1.3028,-0.02104 1.9526,-0.0253 0.8883,15.858692 1.0734,34.457789 2.5419,54.707839 1.2722,17.54514 1.1729,28.95276 1.9201,41.8356 m -0.099,-32.94462 c 0.9279,17.66382 0.2354,35.04519 -0.058,55.1793 -0.2778,19.0566 0.8132,31.45984 1.9151,46.04022 m -1.6139,-26.69433 c -0.4195,17.25334 0.7949,33.1879 1.638,49.60143 0.8099,15.76599 0.8131,31.81908 1.6162,47.53106 m 2.7634,-28.4879 c -0.6201,17.10759 -0.028,33.059 -0.8228,49.16401 -0.5121,10.37289 -0.6754,21.35718 -1.3233,32.50241 m -2.927,-20.77715 c 0.072,17.3898 -0.5184,32.90391 -2.2724,48.75368 -1.4094,12.73507 0.053,27.02291 1.2709,41.60318 m 2.5782,-23.50996 c -0.041,13.34838 0.6906,25.66964 1.8059,38.2916 -3.7932,7.6e-4 -7.5457,0.0335 -11.271,0.14414 -13.4899,0.40073 -29.1536,-0.71718 -43.8025,-2.25391 m 28.4417,2.55645 c -17.5649,-0.0629 -34.0961,-0.65449 -52.3132,-1.74677 -17.4984,-1.04919 -33.1463,0.64755 -51.05157,2.36137 m 29.82687,-6.59664 c -17.0365,-0.32668 -33.24772,0.12885 -49.77057,0.63229 -14.78648,0.45054 -28.5705,0.0325 -41.07364,-0.022 m 23.87046,3.78451 c -15.71692,-0.96401 -35.0802,0.26219 -55.24011,0.98815 -19.93168,0.71774 -32.30792,-0.10956 -47.28729,-0.15945 m 28.06697,-7.0788 c -17.65565,-1.15534 -33.27382,-0.0252 -49.79753,0.16795 -13.12163,0.1534 -25.42616,0.53415 -36.71545,1.54388 m 20.58779,0.64248 c -15.56998,-0.81795 -31.97487,1.21202 -45.97066,3.83181 -5.96313,1.1162 -12.81563,1.28601 -19.93817,1.13049 m 11.9129,-5.10957 c -16.66274,0.16541 -32.22394,1.12336 -46.70828,3.61247 -10.85702,1.86576 -24.62864,1.13864 -38.54961,1.04676 m 24.32745,-2.24571 c -17.3013,0.55633 -35.16701,-0.41189 -55.48525,-0.98151 -10.13346,-0.2841 -18.16561,-0.0679 -25.45292,0.46846 m 24.92721,2.12943 c -16.95454,-0.11735 -33.30946,-0.13129 -49.93467,-0.21548 -11.33151,-0.0574 -22.92796,-0.51759 -34.74238,-1.40201 m 18.29569,-2.75574 c -15.99831,-1.21927 -32.9176,-0.50135 -48.73212,-1.28123 -15.56133,-0.76739 -32.58425,-0.0211 -48.65903,0.18488 m 26.31524,6.60964 c -16.75385,0.68362 -32.3719,-0.88239 -47.14573,-2.45815 -9.48088,-1.01123 -20.7274,-0.94163 -32.24282,-0.98302 m 22.6622,-1.3462 c -16.65444,-1.21018 -34.24829,-0.53167 -52.7786,-1.36327 -12.19562,-0.5473 -22.20728,-0.43795 -31.63597,-0.31091 m 23.34802,0.0235 c -16.67311,-0.26315 -35.38628,-0.38557 -56.16922,-0.95368 -17.28343,-0.47245 -27.45656,0.6505 -37.64471,2.52424 m 24.41063,-2.8407 c -17.18213,0.63839 -33.17588,-0.144 -49.52438,-0.1886 -14.4005,-0.0393 -29.55715,-0.0205 -44.8455,0.10858 m 27.36879,2.01547 c -16.34435,0.46491 -32.97785,-1.32153 -48.97801,-3.71584 -2.01492,-0.30152 -4.0717,-0.52871 -6.1663,-0.69541 -0.13853,-11.54945 -1.26851,-21.5134 -2.84822,-31.74883 m -1.62444,32.13819 c -1.13773,-16.48886 -1.18188,-34.14075 -2.81292,-52.44564 -1.38316,-15.52301 -0.0686,-28.51219 1.41637,-41.99045 m 2.02031,22.28121 c -0.17251,-16.862 -1.1066,-33.71596 -2.59474,-51.1329 -0.64102,-7.50244 -0.88588,-14.64896 -1.0293,-21.62224 m -0.40182,22.12427 c -0.70044,-15.83341 -0.63273,-34.51984 -1.14521,-53.53978 -0.49706,-18.44791 0.74199,-31.79084 3.01366,-46.45702 m 4.67376,26.87379 c -0.19131,-17.09812 -2.57708,-32.13287 -6.99707,-46.4023 -4.05911,-13.10436 -0.91703,-30.26367 -0.28956,-45.92796 m 4.00773,21.95868 c -1.32899,-16.68916 -1.3239,-34.11444 -3.19561,-52.33614 -0.86768,-8.44711 -1.2525,-15.88046 -1.6421,-22.76167 m 2.40106,23.42076 c 0.26578,-13.85758 -0.31269,-28.301628 -0.76141,-43.317089 2.74756,-0.220021 5.50039,-0.46329 8.26649,-0.729685 12.81617,-1.234282 26.00042,-0.755258 39.30016,-0.887864 m -34.94549,-1.427758 c 15.53346,0.535917 31.71557,-0.60536 45.17772,-2.026954 11.95273,-1.2622 28.97354,-0.05066 44.3419,0.506638 m -25.95886,5.24559 c 15.63449,0.554631 33.89703,0.65504 51.74015,1.773816 9.10818,0.571088 17.32298,0.238559 25.11632,-0.580529 m -14.61739,-0.684402 c 15.90737,-0.629161 33.18754,0.451335 49.57984,1.172965 8.71342,0.383587 17.42458,0.427168 26.00873,0.421211 M 391.44005,82.53634 c 17.43662,-0.911402 32.02509,0.52206 46.1336,1.364541 6.27576,0.374752 13.6544,0.403853 21.45899,0.287343 m -10.42347,-3.798268 c 16.371,-0.356377 31.32576,-0.500995 43.97408,-1.725636 9.77729,-0.946662 24.32997,-0.310227 38.09675,0.122995 m -18.54919,1.520264 c 15.91606,0.308408 32.16016,-0.284624 46.46264,-1.09713 13.90586,-0.789974 32.8063,0.04372 50.22485,0.07793 m -26.21694,-1.954648 c 16.86327,0.737277 32.75189,1.996002 48.26676,5.793238 12.79331,3.131138 27.45801,0.716521 42.06243,-0.986461 m -25.59323,-0.388075 c 16.14368,1.182643 32.09423,-0.011 46.32579,-0.249998 14.17052,-0.237976 34.65045,-0.628265 54.21933,-2.061869 m -35.3818,1.827258 c 16.26276,-0.192012 33.87251,0.666474 51.65775,1.801609 15.58264,0.994555 29.66622,-0.665138 44.53362,-2.83193 m -24.80312,-1.069254 c 17.41879,0.609051 32.96965,0.121698 48.95002,0.160502 13.85146,0.03363 28.37401,0.250546 42.23097,0.576883 M 855.79675,79.43834 c 16.3804,0.517954 32.05598,0.01543 46.21627,-0.194912 9.88383,-0.146821 22.7793,-0.0839 36.14181,-0.111273 m -20.80591,0.69978 c 16.48059,0.09881 32.13525,-0.727315 46.38027,-2.38216 9.84278,-1.143437 21.69003,-0.583585 33.1487,-0.01611 m -19.65316,7.850609 c 17.30954,1.164135 33.00867,-0.756259 49.05947,-2.464831 9.1339,-0.972287 18.8141,-0.430029 28.6984,0.644992 m -17.8443,-3.196214 c 17.8191,-0.829176 32.2688,1.21674 46.7896,3.415272 10.2324,1.549249 23.1753,0.94576 36.591,0.412329 0.652,3.939835 1.3629,7.888406 2.0343,11.943596 m -14.3663,-15.148176 c 5.4373,0.344383 10.8431,0.557985 16.2322,0.741856 0.1636,11.607849 0.2543,23.085656 0.4083,35.357806 0.1413,11.25838 0.021,21.38109 -0.364,31.43533 m -1.9416,-20.64476 c 0.7282,16.22425 1.8166,32.76399 4.7546,48.31689 1.8647,9.87145 0.9885,20.49971 -0.5584,31.02856 m 0.4492,-18.96799 c 0.3631,16.2608 -0.5236,33.10469 -2.2999,49.35592 -1.0275,9.40038 -0.2599,19.06986 1.1337,28.7744 m -1.4564,-19.61975 c -0.8837,16.86183 1.14,33.27562 2.7047,49.84775 1.2352,13.08238 0.9124,26.03696 0.9755,38.72015 m -1.8537,-23.00221 c -0.037,17.24481 0.8815,34.65915 1.9112,54.00377 0.7815,14.68151 0.9621,25.72881 1.5621,36.64306 m -5.2241,-24.04843 c 0.2365,16.44286 1.7571,32.95491 4.5635,48.86363 1.1698,6.63162 1.2468,13.39054 0.7896,20.11089 -8.734,-0.29678 -18.1914,-0.64579 -27.492,-1.30844 m 24.8845,3.01124 c -0,0.89959 -0,1.8082 -0,2.72525 -15.9549,-0.71627 -31.7833,0.84394 -48.1663,2.15671 -9.1574,0.73379 -17.6371,0.5529 -25.7516,0.0966 m 22.4152,-8.76433 c -16.2811,-1.14605 -34.0886,0.42003 -52.232,1.4531 -8.4108,0.47891 -16.0606,0.56342 -23.3939,0.58073 m 19.0715,-0.28392 c -17.2006,-1.14631 -33.95159,-0.20855 -51.87592,-0.40627 -14.90615,-0.16443 -27.55239,1.26119 -40.09613,4.04842 m 21.5689,-0.97427 c -17.4826,0.62921 -33.15882,-0.35071 -49.5242,-0.81749 -7.43311,-0.21201 -15.09064,-0.36176 -22.88624,-0.5588 m 15.64405,-2.24041 c -16.89984,-0.30772 -33.11555,2.01216 -49.38783,6.21041 -8.76407,2.26113 -17.68191,1.72359 -26.56444,0.38702 m 18.47028,-4.8842 c -15.8798,-1.04578 -32.55366,0.72014 -47.69313,2.32804 -6.59238,0.70015 -13.76983,0.51252 -21.159,-0.14871 m 12.95143,-1.08615 c -17.74698,-1.03671 -33.95636,0.60661 -51.8756,2.0546 -10.53325,0.85116 -20.62779,0.0855 -31.04691,-1.37667 m 23.0162,1.61718 c -16.82736,0.83786 -34.03974,-2.26202 -52.14959,-6.55981 -9.79622,-2.32482 -18.8599,-1.97996 -27.87456,-0.97528 m 14.91566,5.94687 c -17.36367,-0.56329 -31.76554,0.45586 -45.28599,1.61681 -12.86026,1.10426 -31.1603,-0.21222 -46.80895,-0.76543 m 27.19638,-2.76996 c -16.38068,-0.61826 -32.73188,-0.37869 -48.23971,-0.92613 -10.49722,-0.37056 -22.80725,0.0317 -35.86667,0.7581 m 23.80871,2.37844 c -17.71979,0.13713 -34.27302,-1.2842 -52.83265,-3.63361 -8.60376,-1.08912 -16.53986,-1.09719 -24.37154,-0.70809 m 16.53715,4.77135 c -17.63802,0.21951 -34.71597,-0.19532 -54.1452,-0.4071 -12.37732,-0.13491 -21.81155,-0.41211 -30.43939,-0.93165 m 21.89986,-0.72786 c -16.49905,0.82049 -32.76874,-0.16616 -48.32166,-0.27074 -12.75177,-0.0857 -27.7366,-0.013 -43.12046,0.18383 m 25.39755,-6.65976 c -17.1544,-0.11706 -32.15483,0.61254 -46.48924,2.0267 -12.42478,1.22577 -28.54748,-0.25011 -43.81803,-1.51594 m 24.38317,3.65725 c -17.1373,0.97493 -34.91738,-1.03546 -54.74707,-2.89583 -8.40227,-0.78828 -15.45094,-0.90873 -21.86535,-0.77298 m 16.29717,4.62541 c -5.82136,-0.38801 -11.39548,-0.42347 -16.83635,-0.22454 -0.1076,-10.73786 0.34309,-20.49362 0.37424,-30.28095 0.0195,-6.13892 0.16835,-13.22699 0.51411,-20.79589 m 4.44904,11.53382 c -1.20174,-17.61755 -1.88724,-33.18682 -4.89099,-49.6012 -1.37134,-7.49384 -1.54071,-15.3629 -1.29401,-23.53316 m 6.47804,16.19834 c 0.81059,-16.78944 -1.84989,-34.41894 -4.78283,-53.23842 -1.82717,-11.72417 -0.892,-21.6114 0.8547,-31.23219 m 2.16182,24.59148 c 0.65599,-17.72735 -1.34792,-34.50422 -3.27884,-53.53864 -1.90905,-18.81893 -1.25092,-33.08538 -2.91841,-49.66029 m 0.0452,34.74006 c -0.80899,-15.5515 1.1433,-35.41696 4.18689,-56.21963 1.53936,-10.52136 1.37717,-18.81959 0.78693,-26.50496 m -3.58913,20.03712 c -1.30985,-16.61577 1.00417,-32.73839 3.77704,-48.26196 1.12292,-6.28656 1.07941,-13.11886 0.46923,-20.267555 m -6.64741,17.381305 c -0.5026,-8.63263 -0.69728,-18.227689 -0.89829,-28.530776 7.66724,-1.149862 15.32973,-2.829208 22.78425,-4.873518 7.15036,-1.960901 14.65912,-2.114405 22.37419,-1.643756 m -31.66182,8.181997 c 16.70862,0.199112 33.11989,-0.359938 49.3606,-1.288471 9.96537,-0.569751 20.58008,-0.708468 31.54151,-1.10984 m -22.07972,-3.685698 c 15.51589,0.281671 33.3183,1.161877 49.96288,3.277887 8.3403,1.060293 16.59315,1.221198 24.75259,1.259177 M 324.8664,77.362774 c 15.82475,0.135741 31.52292,0.556961 44.60331,1.473287 5.63445,0.394711 12.56026,0.422921 19.92185,0.285848 m -10.35255,1.275673 c 16.51791,-0.438871 34.37634,-1.86073 53.1615,-5.772463 9.23675,-1.923417 16.96878,-1.965593 23.95057,-1.545846 m -20.03322,8.583818 c 16.28991,0.09869 33.45395,-1.030025 50.34523,-3.339191 7.86996,-1.075883 15.86869,-0.73991 24.06214,0.284961 m -17.80319,-0.152485 c 16.77278,-7.96e-4 34.1588,0.668293 52.47775,1.801494 14.41841,0.891915 25.52209,-0.02993 35.7173,-1.208132 m -22.22444,0.189157 c 16.58151,1.000975 34.02033,1.09286 52.04037,3.031361 7.46652,0.803208 14.3341,0.918697 20.89242,0.744637 m -15.65207,-4.657772 c 17.71946,-0.391711 33.46109,2.22151 50.37171,6.422822 12.63603,3.139323 24.98356,1.342194 37.3454,-0.223853 m -26.69483,-5.154813 c 16.92694,0.69095 32.57907,-0.0052 47.71985,-0.195015 8.22564,-0.103144 17.89144,0.193005 28.26785,0.762386 m -13.8086,-2.175384 c 17.14602,0.108217 33.96595,0.03913 51.90331,-0.08529 14.53855,-0.100841 27.39311,0.552506 40.60849,1.647638 m -27.87667,4.065597 c 16.80947,0.02627 34.83635,0.03738 54.50116,-0.112585 9.2544,-0.07057 17.24989,-0.04972 24.92215,-0.0057 m -18.37646,-1.080103 c 15.65194,-0.174267 32.01495,-0.496536 46.0253,-1.698403 12.96496,-1.112189 30.08368,0.394248 45.07001,1.468894 m -23.44653,-2.830503 c 15.98902,0.37244 32.43635,0.448782 47.3376,1.090332 8.82908,0.380122 19.20112,0.79467 30.01309,1.600155 m -16.66058,2.57098 c 16.82668,0.754822 32.44038,0.327755 47.33708,0.761978 14.4836,0.422181 31.8134,-0.555534 47.1012,-1.959308 m -31.441,3.163691 c 16.7731,-0.802554 34.9877,-0.522049 54.966,-1.780056 4.9048,-0.308845 9.3151,-0.417264 13.3781,-0.384315 0.03,3.803809 -0.2385,7.728955 -0.6881,11.728477 m -5.0202,-15.706752 c 1.5372,0.02936 3.0823,0.06222 4.6327,0.09924 -0.5288,15.306103 -0.6158,30.964051 -2.4095,47.472511 -1.9612,18.05046 2.314,34.07312 6.388,52.78586 m -0.687,-35.10002 c 1.328,16.27872 -1.147,32.37696 -4.2146,47.11373 -1.9757,9.49164 -0.6024,20.69249 1.458,32.06186 m 1.0608,-14.89515 c -0.5925,17.47171 0.789,32.79166 1.6382,48.42551 0.6325,11.64535 0.2525,24.90675 -0.4058,38.49768 m -2.2803,-24.28736 c 0.9285,16.57939 1.6958,32.85376 4.317,48.59011 2.0261,12.16437 1.4055,25.80798 1.4128,39.66624 m -4.4327,-25.31543 c 1.2018,16.01517 1.9353,33.64921 5.1098,50.94201 1.2781,6.9625 1.5625,13.84339 1.4281,20.76749 m -5.0016,-10.00753 c -0.1642,16.33299 1.5658,31.45635 3.9895,44.40667 0.3155,1.68598 0.5612,3.51793 0.7515,5.4713 -11.5589,-1.29399 -24.9469,1.42364 -37.4123,3.49269 m 24.0107,-1.98402 c -16.5449,0.31988 -33.6682,0.30378 -51.056,1.1241 -10.8323,0.51104 -20.8249,0.50481 -30.5127,0.61815 m 18.0124,1.05207 c -16.189,0.92912 -31.7098,-1.77043 -45.1226,-5.0833 -12.47491,-3.08121 -31.54049,-0.91955 -49.35737,-1.35465 m 31.30973,1.87565 c -17.75585,-0.94569 -33.36125,0.54342 -50.1256,1.80845 -15.78857,1.19139 -32.02771,-0.77599 -48.97179,-2.56522 m 26.69089,0.72207 c -16.58084,-0.6086 -32.35355,0.99889 -47.03646,3.20278 -5.98054,0.89767 -12.76753,0.72955 -19.96169,-0.0457 m 10.8823,-4.59577 c -15.83405,-0.94573 -31.99696,0.43565 -45.99785,1.53501 -12.23415,0.96064 -28.26907,1.02506 -42.77712,2.5144 m 20.6876,0.48083 c -17.65511,-0.48138 -31.90774,0.36712 -45.72331,1.28864 -11.23017,0.74907 -26.9398,-0.064 -42.52591,-0.83226 m 25.39364,-3.3973 c -15.61615,-0.80906 -33.57064,0.64279 -50.75579,2.16384 -7.80545,0.69086 -15.52793,0.87883 -23.31816,1.0114 m 19.65011,-1.76717 c -17.03673,0.48399 -33.89228,0.83137 -51.68463,2.73728 -10.16669,1.08906 -19.777,0.70302 -29.45865,-0.0475 m 17.84374,-3.76522 c -17.22782,0.1646 -33.55784,-0.90041 -50.70014,-2.51253 -11.96525,-1.12526 -23.41309,-0.79242 -34.84523,-0.567 m 19.33703,5.15104 c -17.19057,1.02055 -31.51154,-0.82178 -44.57515,-2.21227 -8.68961,-0.92491 -20.85481,-0.49475 -33.32541,0.13681 m 13.96311,-1.50296 c -15.95276,0.0647 -32.84952,-0.29359 -48.5134,-0.70778 -8.50984,-0.22502 -17.42232,-0.25913 -26.2595,-0.27071 m 17.37049,0.60189 c -17.27302,0.2471 -32.74991,0.47077 -48.29386,1.61633 -13.43674,0.99026 -28.26297,0.26129 -42.32033,0.19494 m 25.60548,1.81647 c -16.42667,-1.02844 -33.90492,-1.46977 -51.71234,-4.17978 -16.56221,-2.5205 -31.71893,-0.19368 -48.25729,0.6366 m 27.94823,1.75975 c -17.29118,-0.36307 -32.62292,0.23622 -47.85635,0.9331 -12.71084,0.58148 -27.14236,-0.83818 -40.79634,-2.93947 0.007,-2.49995 0.0333,-5.01665 0.0883,-7.54503 m 18.58611,8.30335 c -7.67532,-0.25251 -14.98691,-0.12351 -22.06191,0.25566 0.35242,-8.68481 1.06295,-16.99096 1.89484,-25.16302 0.82991,-8.15258 0.78999,-17.70936 0.75859,-27.74474 m -3.29248,12.1173 c 0.16488,-17.48996 0.10751,-32.89401 1.04177,-48.69894 0.83828,-14.18104 -0.0974,-29.64917 -0.25208,-44.53948 m -0.89798,29.9198 c -1.11008,-16.6069 -0.38314,-33.32647 -0.37934,-50.01197 0.003,-14.03239 -0.26332,-27.55606 -0.33562,-40.60865 m 3.3365,28.32618 c -1.20123,-16.54377 -0.60666,-34.856 -1.09022,-54.57841 -0.3874,-15.80044 -0.52594,-27.91367 -0.7724,-41.07024 m 0.58759,25.59076 c -0.80933,-15.52359 0.30264,-33.91229 1.67126,-51.76262 0.97775,-12.75238 -0.22655,-24.04368 -1.85751,-35.16678 m 2.47219,20.9085 c -1.13794,-16.13288 -1.70827,-31.98153 -4.4262,-45.992726 -0.93271,-4.80823 -1.16561,-10.263237 -0.99896,-16.042581 3.27677,-0.02028 6.67395,-0.138302 10.14186,-0.30072 m -4.84849,-4.997812 c 16.30743,0.682638 31.73476,1.978804 45.25928,5.683896 8.10847,2.221346 18.56262,1.705781 29.33757,0.809092 m -20.30255,-2.207463 c 15.58019,0.782232 34.71768,0.560908 54.17378,1.445555 15.81514,0.719097 27.29399,0.05904 38.93998,-0.660673 m -19.96383,-5.126287 c 15.83464,-0.683978 33.47907,-0.009 50.42754,-0.248878 8.96933,-0.12696 17.18549,0.03457 24.78159,0.351531 m -20.72129,1.249981 c 16.69081,0.973722 34.10731,1.25162 52.36843,3.523565 10.64859,1.324837 19.89462,0.604153 28.68293,-0.851695 m -22.17042,0.228349 c 15.5887,-0.0012 33.25097,-0.414211 49.71674,-1.425068 7.9033,-0.485195 15.96094,-0.573165 24.10684,-0.618777 m -14.87323,1.354688 c 17.01853,0.299857 33.90569,1.101897 51.73933,3.113813 10.39931,1.173207 19.65755,0.345771 28.4622,-1.328828 m -21.33516,-6.630378 c 17.67393,0.12677 33.4217,0.895748 50.28971,2.512354 7.14735,0.684992 14.24581,0.885391 21.3399,0.954052 m -9.43233,0.07611 c 16.96305,0.828003 31.79803,1.173812 45.36826,3.304902 7.81776,1.227713 18.23292,0.676479 29.4712,-0.47631 m -22.94382,-2.823194 c 16.65444,0.700037 34.24606,-0.05381 52.75126,-0.331739 8.70866,-0.130794 16.68522,-0.16539 24.50413,-0.215702 m -17.98484,1.926311 c 17.24576,-0.929427 32.90719,0.988854 48.75872,2.731738 13.03375,1.433069 28.08785,0.693114 43.82658,0.581489 m -27.84769,-1.53516 c 16.61774,-0.11905 33.55643,0.963207 50.7005,2.703909 13.97596,1.419031 26.93516,-0.01087 39.66455,-1.559841 M 868.1246,78.362751 c 16.47178,1.19231 32.88426,1.392303 48.70449,3.93359 7.63053,1.225734 15.32721,1.02548 22.80577,0.232629 m -14.558,0.843707 c 16.71787,0.800191 33.47105,-0.06944 50.39966,-0.441175 10.62557,-0.233325 21.17113,-0.07929 31.83378,0.129352 M 983.921,82.325109 c 15.93477,0.426555 33.4172,-0.848474 50.2634,-2.765169 11.4821,-1.306393 22.3317,-0.912906 32.725,-0.709361 m -16.4305,7.859122 c 16.1715,0.927585 33.5803,-0.272444 50.7554,-1.070158 8.4451,-0.392239 16.5108,-0.514132 24.376,-0.678556 -0.1129,4.344092 -0.285,8.67562 -0.4876,12.944355 m -14.1674,-15.030341 c 3.1871,0.01937 6.4566,-0.03036 9.7974,-0.148593 0.4513,12.843001 2.0922,24.544362 4.1836,35.145842 1.4511,7.35593 1.5318,16.81903 1.4741,26.59859 m -4.7219,-14.78742 c 1.0738,17.39913 0.6885,33.4739 1.3637,50.47634 0.3495,8.79861 0.3066,17.35084 0.044,25.80276 m 3.8874,-15.42931 c 0.6366,15.6782 0.1928,33.48749 -0.1399,50.47737 -0.3086,15.762 1.4097,31.26092 3.7785,47.2936 m -5.8963,-26.68809 c 0.8644,17.31703 0.8173,33.07236 1.7466,49.19123 0.4025,6.98107 0.4586,14.2804 0.3338,21.76549 m -0.582,-16.75478 c -0.438,16.8068 0.021,32.26591 -0.6588,46.78529 -0.5258,11.22364 1.166,25.74219 3.8031,40.57487 m -3.8668,-25.11762 c -0.2286,17.62645 -0.04,32.67655 -0.823,48.06995 -0.3108,6.11013 -0.2532,12.77343 -0.022,19.75372 -9.8484,0.51412 -19.2951,1.76044 -29.0232,2.90988 -0,3.9e-4 -0.01,7.7e-4 -0.01,0.001 m 33.5819,2.70579 c -15.8528,-0.87349 -33.5056,-1.06759 -50.5642,-2.94941 -11.387,-1.25615 -23.0421,-0.73092 -35.3275,-0.0351 m 21.9571,0.74999 c -16.3813,-1.21027 -34.3152,-0.77989 -52.9702,-2.10155 -13.41464,-0.95039 -23.94286,-0.52413 -33.79071,-0.12406 m 19.2607,1.38903 c -16.89943,0.26492 -32.08085,-0.49562 -46.21596,-1.28212 -9.13726,-0.50842 -20.70791,-0.36138 -32.66175,-0.14011 m 24.8888,0.70941 c -15.51595,-0.22666 -33.46608,-0.20188 -50.42773,-0.40683 -10.9644,-0.13248 -22.13079,0.19844 -33.74417,0.89597 m 17.86138,0.50138 c -16.29869,-0.34541 -32.64318,-1.1716 -47.93898,-3.27784 -14.79992,-2.03796 -32.54068,1.30065 -49.49119,4.46873 m 29.27917,3.30371 c -15.57119,0.55627 -34.99371,-0.57921 -54.96676,-1.50104 -17.54633,-0.80984 -29.91143,-0.0276 -43.83292,0.62095 m 26.86385,-2.29357 c -17.2001,0.45629 -32.56335,-0.10639 -47.71968,-0.10646 -11.68048,-5e-5 -25.08112,-1.35536 -38.14392,-3.98366 m 23.47857,6.2006 c -17.30057,0.65605 -33.34116,-1.50383 -50.0165,-4.29017 -16.40838,-2.74173 -32.40597,-0.25513 -48.05087,-0.2936 m 28.22256,3.5211 c -16.99022,-0.32715 -31.44182,-1.06201 -44.38387,-3.00442 -6.42434,-0.9642 -14.83148,-1.17579 -23.85142,-1.32658 m 12.32005,-2.0788 c -16.79038,0.45696 -32.6378,1.56593 -47.93868,4.92479 -11.93534,2.62006 -25.65103,-0.10159 -39.20601,-3.28691 m 24.18142,-0.42008 c -16.4356,-1.19166 -33.47388,0.25365 -50.42717,0.96094 -14.13838,0.58985 -28.50384,0.14047 -43.60877,-0.009 m 26.12271,1.46061 c -17.1556,-0.89177 -35.15193,-1.24144 -55.43064,-3.52361 -12.63325,-1.42176 -22.50282,-1.29174 -32.23066,-1.21747 m 22.85069,5.1292 c -17.47376,-0.20822 -33.79918,0.36603 -51.43827,1.28847 -14.00735,0.73252 -26.81405,-0.40435 -39.89645,-1.92909 m 29.19385,3.04502 c -16.77231,-1.00093 -32.99911,-0.97099 -49.03243,-2.73058 -12.60422,-1.38326 -26.24394,-0.71011 -40.01914,-0.4369 -0.13055,-1.91919 -0.26415,-3.84742 -0.39777,-5.79303 m 19.55876,5.58995 c -6.80641,0.10889 -13.98335,0.0294 -21.37382,-0.16014 -0.54195,-9.78362 -1.4726,-19.76773 -2.40638,-29.76023 -1.08531,-11.61401 -0.74943,-22.85852 -0.23233,-34.40102 m 4.46177,20.74664 c -0.92837,-16.51585 -1.37484,-33.31771 -3.35991,-49.95734 -1.5624,-13.09666 -0.71749,-26.78298 -0.005,-41.0447 m -1.34306,26.18242 c -0.28088,-16.33344 1.13149,-32.57444 4.10454,-47.7426 1.84519,-9.41392 0.71571,-20.07846 -1.0727,-30.93213 m -1.05484,16.81286 c -0.0358,-17.17123 -0.89585,-32.79445 -1.99326,-48.42569 -0.46757,-6.65995 -0.58809,-13.72811 -0.55665,-20.96828 m -2.6294,17.14343 c 0.81143,-15.65126 0.28703,-34.41884 1.6156,-53.29379 1.02388,-14.5463 -0.29059,-25.74423 -1.78648,-36.64441 m 0.48321,19.3208 c -0.73714,-16.61544 -1.32582,-31.89431 -3.25065,-45.69165 -1.11982,-8.02694 -0.68877,-18.168926 0.29983,-28.733235 4.7362,-0.362814 9.57913,-0.806467 14.44559,-1.1892 m -4.41928,-0.857849 c 16.62645,0.426879 32.56181,-0.03602 47.66534,-0.35892 10.36517,-0.221594 21.90514,-0.590811 33.12161,-1.489935 m -16.97623,2.112601 c 17.10876,0.509041 31.86171,0.496571 45.61427,1.281656 8.72878,0.498296 20.40087,0.03283 32.77668,-0.856189 m -14.62518,0.03513 c 16.15275,-0.574969 32.00962,-0.651233 46.05235,-2.163005 7.59617,-0.817768 16.93982,-0.720217 26.79421,-0.458062 m -19.45259,3.989569 c 17.22774,-0.784633 33.37858,-1.247271 50.1806,-3.940224 14.99692,-2.403638 29.85898,0.763704 44.88433,3.631236 m -27.36451,0.258164 c 15.8258,0.581597 34.14499,-0.225251 52.42363,-0.878544 15.97209,-0.570855 28.79939,0.266232 41.70513,1.074243 m -20.4871,-3.574047 c 17.0092,-0.629119 33.36139,0.556892 50.12605,1.419058 15.12076,0.777624 29.63978,1.352536 43.77866,3.461597 m -26.90844,-3.215715 c 15.7799,0.819038 33.20936,1.523717 49.6346,4.371313 16.3548,2.835385 31.83964,-0.832912 45.76445,-2.766219 m -27.05587,-4.11278 c 16.18055,0.045 33.2303,1.339169 49.71639,3.770216 12.04827,1.776645 24.12791,1.155691 36.0468,0.887241 m -23.32395,3.637705 c 16.7085,-0.884739 32.80566,-1.112853 48.43092,-3.584694 14.97218,-2.368528 31.42868,0.912674 46.63975,3.105895 m -24.71016,-0.507257 c 15.87063,0.809105 32.39151,-0.544387 47.20095,-1.863056 11.3437,-1.010071 24.70185,-0.585786 37.5639,-0.602953 m -21.24664,-4.821036 c 17.72803,0.09054 32.10985,1.383632 46.29749,3.961595 6.54376,1.189033 14.15074,1.210425 22.09724,0.799997 m -9.63767,-0.195962 c 16.89975,-0.884079 32.89071,0.538994 48.64955,1.391868 15.54349,0.841219 33.89028,-0.432193 52.4698,-1.542415 m -32.28243,1.678751 c 15.58826,0.918052 32.13883,-1.343835 46.43553,-4.214683 9.7779,-1.963461 21.6193,-0.634793 33.2556,1.174734 m -16.5078,0.923402 c 17.4458,-0.893066 32.3677,0.835981 47.1179,2.321561 6.4921,0.65385 13.6874,0.871788 21.1001,1.019256 m -11.1744,3.833139 c 6.8385,0.287359 13.9025,0.06028 20.9744,-0.535155 -0.057,8.621619 -0.1,16.613543 -0.6157,24.302273 -0.7338,10.93458 0.2901,26.53966 1.2661,41.96614 m -3.5598,-26.47966 c 1.3559,17.15275 0.3826,32.13786 0.4065,46.45695 0.023,14.02272 2.1501,34.21565 5.7528,54.00562 m -1.3831,-31.05513 c -0.4922,17.71805 1.2722,34.03708 3.0873,52.08943 0.9265,9.21497 0.98,17.42166 0.7874,25.17289 m -2.4916,-18.51092 c 0.473,15.59645 1.3109,33.95856 3.1961,51.87195 1.8506,17.58462 0.3087,32.86081 0.038,49.35859 m -6.4769,-33.47096 c -0.856,15.95148 2.0342,33.75867 5.3298,51.32486 2.6557,14.15536 0.3332,28.13342 -2.1959,43.35978 m 0.051,-24.97161 c 1.3287,16.06003 0.6029,31.97623 1.0902,45.93808 0.1023,2.9327 0.2233,6.16563 0.3698,9.62366 -9.81,-0.16373 -19.4085,1.54096 -28.6316,3.31784 m 20.6249,-3.19278 c -16.554,-0.27153 -33.4806,1.44215 -50.4545,4.51507 -13.7576,2.49066 -27.306,0.23786 -41.1379,-1.71774 m 27.1057,-2.66671 c -16.1717,1.07605 -33.9571,1.33626 -51.8492,4.24083 -7.4974,1.21712 -14.16431,1.16538 -20.2707,0.49931 m 15.56833,-6.29339 c -16.24434,1.05766 -33.35156,0.89495 -50.04447,2.92835 -12.74728,1.55277 -24.46648,-0.0881 -35.18488,-2.12266 m 23.68535,5.49556 c -16.28984,-0.99196 -33.29791,-1.31463 -49.90773,-3.71496 -11.04846,-1.59664 -22.5476,-0.63469 -34.44964,0.84158 m 16.3873,-2.61826 c -17.33697,-0.54521 -33.29295,0.12196 -49.87976,0.60509 -9.59449,0.27946 -19.01498,0.51288 -28.21629,1.01867 m 24.33473,-0.19143 c -15.76209,0.39306 -34.21859,1.17098 -52.64242,3.69436 -8.06572,1.10471 -15.54812,0.99953 -22.89397,0.33814 m 14.04951,-3.84247 c -17.56427,-0.46397 -32.4362,-1.62091 -47.30931,-4.61762 -10.41624,-2.09872 -22.37543,-1.11372 -34.03919,-0.0686 m 20.52519,4.50684 c -15.72507,-0.67327 -32.70152,-1.31868 -48.07604,-3.71515 -8.78512,-1.36936 -18.57975,-0.49085 -28.66531,1.32756 m 16.95272,-0.0701 c -17.26467,-0.0895 -34.64599,1.13899 -53.95402,3.61263 -10.12752,1.29748 -18.88051,0.95991 -27.40703,0.0834 m 21.30519,-2.34826 c -17.6919,-0.61789 -32.83353,0.52501 -48.48501,1.78091 -14.74048,1.18281 -31.98279,-0.98075 -49.20292,-3.14887 m 29.95339,-0.72101 c -16.37195,0.40224 -33.70452,1.32006 -51.08346,4.21389 -7.68976,1.28046 -14.97721,1.29869 -22.04463,0.8245 m 17.50537,-1.17296 c -16.17133,-0.13516 -32.94803,0.89695 -48.89608,2.87437 -10.19703,1.26435 -20.67328,0.0564 -30.86809,-2.02469 m 14.33523,-5.1082 c -16.72638,0.0378 -31.98028,0.86983 -45.91528,2.84692 -6.2639,0.88872 -13.53685,0.9052 -21.0724,0.61029 m 14.41242,-1.86592 c -15.7622,-0.23556 -34.49331,0.285 -53.46273,1.0424 -9.41629,0.37597 -17.66443,-0.0125 -25.59429,-0.86614 m 16.51951,4.06166 c -17.51933,-0.64618 -33.91098,-1.86839 -51.71168,-5.41048 -8.05487,-1.60281 -15.539,-1.62064 -22.76664,-1.01766 0.21902,-7.50095 0.74082,-14.26907 1.16238,-21.54092 m 7.72004,24.55209 c -1.21406,0.0713 -2.43225,0.12773 -3.6539,0.17067 0.16025,-14.81404 -0.20235,-31.67124 0.14393,-48.13578 0.19552,-9.29657 -0.0198,-18.28013 -0.37597,-27.43196 m -0.2844,15.32168 c -1.35645,-15.56813 -1.66462,-31.44986 -4.23466,-44.37978 -2.09512,-10.54056 -0.72459,-26.71411 0.33265,-42.45301 m 0.33799,23.80721 c 0.54699,-16.87967 -0.68138,-32.33174 -1.28267,-46.97665 -0.37319,-9.08917 -0.36224,-19.51444 -0.22437,-29.83582 m -2.81801,13.64642 c -1.32828,-16.86134 0.48042,-32.05876 2.13642,-46.21103 1.17528,-10.04411 0.219,-22.9037 -0.83826,-35.88105 m 1.56421,24.41614 c -0.76395,-16.67135 -0.0677,-35.10071 0.49545,-55.28927 0.37857,-13.57095 0.0699,-23.15094 -0.20189,-31.96361 m 2.77035,23.00802 c 0.55605,-17.56322 -0.81813,-33.95898 -1.74752,-51.870767 -0.17802,-3.430933 -0.3447,-6.777946 -0.5146,-10.067513 10.89322,-0.299431 21.74583,0.124961 31.9064,0.08909 m -25.21264,1.398593 c 16.10813,-0.0824 34.30245,1.523466 52.94299,4.317168 8.90345,1.334382 16.6956,1.279003 24.0246,0.72104 m -18.22782,-6.17344 c 16.12564,-0.583768 32.53774,0.116072 47.61095,0.106531 8.2596,-0.0052 17.46173,-0.02819 26.8238,-0.103006 m -14.25429,0.89757 c 17.43715,0.08997 33.32384,-0.05442 49.98907,-0.386061 9.91332,-0.197275 19.15213,-0.07381 27.71067,0.116082 m -19.57033,-0.67525 c 16.98134,0.59075 32.00481,-0.105509 46.0245,-0.550424 8.60254,-0.273002 19.91908,-0.453851 32.1182,-0.890777 m -16.9176,3.434711 c 16.39872,-0.337924 32.32544,0.107155 46.98188,0.133727 7.48151,0.01356 16.39762,0.02498 25.95202,0.0156 m -9.11211,3.078651 c 17.80121,-0.948281 32.94047,-0.619406 48.81307,-2.053407 13.9813,-1.263132 28.98957,-0.64957 43.39021,-1.226648 M 564.8188,77.803601 c 16.0164,-1.011294 32.60168,1.195748 47.77508,3.33335 7.74538,1.091157 16.47815,1.308389 25.60428,1.471091 m -10.43343,-3.262638 c 15.98883,0.582316 31.98137,1.574833 45.94306,4.508175 12.06899,2.535684 29.53049,0.684682 47.13092,0.01303 M 691.04033,81.9547 c 17.25547,-0.210503 34.40536,-0.03341 53.21575,-0.276506 10.43974,-0.134917 19.31303,0.004 27.7156,0.262559 m -15.26384,-0.389496 c 15.72461,-0.638128 31.55792,0.798602 44.65807,2.184689 13.01326,1.376893 32.97998,0.351614 49.4416,0.780712 m -26.07259,-3.288564 c 16.99056,0.472068 32.29085,-0.880454 46.92684,-2.901916 6.40745,-0.884971 13.68298,-0.656374 21.31372,0.156117 m -13.71607,1.180055 c 16.35334,0.144374 32.71382,-0.626754 48.15769,-2.081406 14.25532,-1.342703 30.51766,1.837595 45.89111,5.94848 m -23.75809,1.298853 c 16.8087,0.0073 32.92334,-1.768668 48.75897,-5.471949 7.19251,-1.682019 14.82071,-1.679353 22.65161,-1.052218 m -16.289,1.500342 c 15.7616,1.100561 32.9612,-0.344766 48.869,-1.289011 9.3136,-0.552831 19.2725,-0.273311 29.4174,0.224221 m -21.5182,4.773847 c 17.1637,0.08948 32.7498,-1.2792 48.2392,-4.077468 2.5897,-0.467852 5.3029,-0.780126 8.1231,-0.976915 0.182,6.230028 0.9899,13.135068 2.1931,20.148569 m 5.2429,-10.953961 c 0.9735,15.659446 0.394,32.124086 0.4887,46.375816 0.064,9.58015 0.015,21.47617 -0.272,33.49601 m 0.7239,-22.2203 c 0.6816,17.24455 -0.909,34.01121 -3.4759,52.00768 -1.3464,9.43957 -1.2805,17.87093 -1.0242,25.87269 m 4.1804,-18.86659 c -0.6467,15.82452 1.7326,35.07368 4.4819,55.20775 1.3583,9.94721 1.2696,17.71399 0.6364,24.55396 m -3.3715,-20.23284 c -0.9113,16.29698 0.4159,32.48437 0.4899,47.49653 0.066,13.36416 -0.1932,28.98024 -1.1284,43.36081 m -3.1767,-26.09178 c 1.4021,17.30827 1.9178,33.94712 5.0276,51.87092 2.1852,12.59478 0.6776,23.12362 -1.5502,32.91124 m -1.5655,-21.59802 c -0.1278,17.34457 1.5518,33.64883 3.9347,50.9959 0.283,2.05984 0.5059,4.1035 0.6794,6.13435 -4.856,0.11619 -10.058,0.14261 -15.4072,0.14186 m 12.2079,-0.75675 c -17.7193,-0.77273 -33.2413,0.42393 -49.7154,1.50757 -9.568,0.62935 -19.0629,0.13325 -28.3804,-0.81152 m 20.9641,-2.35043 c -16.4171,-0.67228 -32.8313,1.17349 -48.4858,3.74969 -10.5231,1.73175 -22.39923,0.84837 -34.71564,-0.24604 m 21.50094,-4.67165 c -17.62858,0.0745 -33.97714,1.43623 -51.95767,4.54221 -13.39335,2.31359 -25.21008,1.34638 -37.09147,1.03188 m 18.66462,-0.27779 c -17.01773,-0.4001 -31.92777,-1.3002 -45.80573,-3.68798 -11.54113,-1.98571 -27.44184,-0.1713 -42.90459,1.45183 m 27.92404,-2.22933 c -17.80129,0.46537 -33.14696,-0.18171 -49.41463,-0.29786 -8.3421,-0.0596 -17.17242,0.30643 -26.33481,1.07677 m 10.63105,4.25058 c -16.16205,0.95694 -32.49265,-0.47808 -47.50156,-1.22785 -13.95938,-0.69734 -29.8407,0.0599 -43.65728,0.66305 m 28.85267,-2.36442 c -16.39056,-0.45403 -34.68116,0.45879 -54.06392,1.56206 -16.11902,0.9175 -28.15428,0.0397 -40.80005,-0.60635 m 29.17578,-3.11336 c -16.44463,-0.86388 -33.28889,0.17463 -49.85295,0.742 -15.52227,0.53169 -32.77144,0.61771 -51.52354,1.8448 m 26.66543,-1.07051 c -15.69737,-0.9002 -31.7561,0.45134 -45.28699,1.56233 -12.10894,0.99424 -28.87125,0.002 -43.56873,-0.46114 m 24.20063,-5.90836 c -17.12803,0.39293 -34.52807,0.8368 -53.59863,2.73733 -15.54644,1.54933 -27.12365,1.13142 -38.66047,1.9658 m 23.17342,-3.10922 c -16.58142,-0.0898 -33.80142,0.39448 -51.43881,1.37044 -10.40891,0.57597 -19.45583,0.67043 -27.73787,0.92237 m 17.11093,-0.28808 c -16.39878,0.0379 -32.49612,1.14604 -47.50141,3.61254 -11.03644,1.81413 -23.54849,0.65696 -35.55224,-0.44545 m 23.61129,-7.32268 c -16.85375,0.0287 -31.73925,0.81253 -45.2316,2.65552 -9.92368,1.35553 -23.88355,0.5017 -38.10707,-0.27665 m 15.33426,0.6953 c -16.56247,-1.17304 -31.96855,1.26119 -45.91537,3.99608 -9.76753,1.91536 -21.91602,1.26542 -33.65072,0.9513 m 18.4568,-5.3796 c -8.24389,0.20108 -16.80846,0.38311 -25.4724,0.7293 -0.24921,-7.76893 -0.58884,-15.38849 -0.82678,-22.69964 -0.37903,-11.6465 0.42993,-25.85708 2.06693,-40.24988 m 1.92914,25.39136 c 0.89231,-15.5322 -2.41035,-32.67913 -6.47819,-48.07121 -2.01925,-7.64052 -1.80039,-16.27322 -0.74876,-25.43801 m 1.19677,13.19598 c -0.77284,-17.65398 0.48406,-33.19574 2.21811,-49.57384 0.75102,-7.09334 0.75193,-14.3715 0.48833,-21.76778 m -2.50153,17.99209 c 0.83907,-15.72375 1.098,-33.53814 4.02183,-50.66875 1.47879,-8.66414 1.29774,-17.3251 0.68526,-26.16281 m -7.35464,15.43701 c -1.30111,-16.88002 0.0821,-33.1983 0.96063,-49.60165 0.55346,-10.33434 0.69634,-20.58958 1.27078,-30.58261 m 4.22285,14.40259 c -0.51899,-17.56227 -2.2762,-31.55722 -6.09453,-44.70671 -1.63582,-5.63338 -1.71325,-12.66049 -1.07424,-20.2496 m -0.29733,11.80602 c -0.56413,-13.18261 -0.50731,-25.574325 -0.50772,-37.936981 3.96183,0.137633 7.9183,0.277988 11.84998,0.399231 9.07634,0.279891 18.5819,0.533087 28.57847,0.976362 m 504.49262,370.744208 -8.04289,-0.0347 m -532.08797,-214.88254 -0.10555,-7.175 m 33.73208,219.9086 -7.45696,-0.0322 m 392.00749,-366.324658 9.50773,0.04099 m 487.25928,370.115309 -8.4765,-0.0365"
       id="rect2985"
       inkscape:path-effect="#path-effect4372"
       inkscape:original-d="m 195.13611,78.06973 927.82669,4 5.4142,368.038 -927.82668,-4 z"
       inkscape:connector-curvature="0"
       sodipodi:nodetypes="ccccc" />
    <text
       xml:space="preserve"
       style="font-size:108.14710999px;font-style:normal;font-variant:normal;font-weight:normal;font-stretch:normal;line-height:125%;letter-spacing:0px;word-spacing:0px;fill:#000000;fill-opacity:1;stroke:none;font-family:Serif;-inkscape-font-specification:Serif"
       x="451.56918"
       y="197.52502"
       id="text4367"
       sodipodi:linespacing="125%"><tspan
         sodipodi:role="line"
         id="tspan4369"
         x="451.56918"
         y="197.52502"
         style="font-style:normal;font-variant:normal;font-weight:normal;font-stretch:normal;font-family:Sketch Block;-inkscape-font-specification:Sketch Block">Server</tspan></text>
    <g
       transform="matrix(0.32050054,-0.94724833,0.94724833,0.32050054,139.42109,1229.3985)"
       id="g6683">
      <g
         id="g6685" />
    </g>
  </g>
</svg>
